<svg width="67" height="66" viewBox="0 0 67 66" version="1.1" xmlns="http://www.w3.org/2000/svg" xmlns:xlink="http://www.w3.org/1999/xlink">
<title>article</title>
<desc>Created using Figma</desc>
<g id="Canvas" transform="translate(-10137 1675)">
<g id="article">
<g id="if_tv_328077">
<g id="Vector">
<use xlink:href="#path0_fill" transform="translate(10137 -1675)" fill="#DFDBCB"/>
</g>
<g id="Intersect">
<use xlink:href="#path1_fill" transform="translate(10158.5 -1656)" fill="#000000" fill-opacity="0.25"/>
</g>
</g>
<g id="Group 2.1">
<g id="paper">
<use xlink:href="#path2_fill" transform="translate(10158 -1657)" fill="#FFFFFF"/>
<use xlink:href="#path3_fill" transform="translate(10158 -1657)" fill="#FFFFFF"/>
</g>
<g id="Group">
<g id="Vector">
<use xlink:href="#path4_stroke" transform="translate(10163.4 -1647.23)" fill="#A7A498"/>
</g>
<g id="Vector">
<use xlink:href="#path5_stroke" transform="translate(10170.5 -1647.21)" fill="#A7A498"/>
</g>
<g id="Vector">
<use xlink:href="#path6_stroke" transform="translate(10163.5 -1640.18)" fill="#A7A498"/>
</g>
<g id="Vector">
<use xlink:href="#path7_stroke" transform="translate(10166.9 -1647.21)" fill="#A7A498"/>
</g>
<g id="Vector">
<use xlink:href="#path8_stroke" transform="translate(10171 -1647.21)" fill="#A7A498"/>
</g>
<g id="Vector">
<use xlink:href="#path9_stroke" transform="translate(10165.1 -1644.72)" fill="#A7A498"/>
</g>
<g id="Vector">
<use xlink:href="#path10_stroke" transform="translate(10165.1 -1637.91)" fill="#A7A498"/>
</g>
</g>
</g>
</g>
</g>
<defs>
<path id="path0_fill" d="M 67 57.3755C 67 62.1387 63.0801 66 58.2448 66L 8.75532 66C 3.92004 66 0 62.1387 0 57.3755L 0 8.62437C 0 3.86139 3.92004 0 8.75532 0L 58.2448 0C 63.0801 0 67 3.86139 67 8.62437L 67 57.3755Z"/>
<path id="path1_fill" d="M 36.0296 47C 41.2352 47 45.4556 42.8798 45.4556 37.7971L 45.4556 29.6383L 15.9551 0L 0 30.4681L 19.5717 47L 36.0296 47Z"/>
<path id="path2_fill" d="M 25.0444 10.8511C 25.0444 8.68085 23.4111 7.59574 21.7778 7.59574L 17.4222 7.59574L 17.4222 2.71277C 17.4222 1.08511 15.7889 0 14.1556 0L 0.544444 0C 0.196723 0 0 0.177628 0 0.542553L 0 30.9255C 0 31.2905 0.196723 31.4681 0.544444 31.4681L 24.5 31.4681C 24.8477 31.4681 25.0444 31.2905 25.0444 30.9255L 25.0444 10.8511Z"/>
<path id="path3_fill" d="M 18.5 3L 18.5 6.5L 22 6.5L 18.5 3Z"/>
<path id="path4_stroke" d="M 7.07778 0.5C 10.7177 0.5 13.6556 3.43017 13.6556 7.05319L 14.6556 7.05319C 14.6556 2.87461 11.2667 -0.5 7.07778 -0.5L 7.07778 0.5ZM 13.6556 7.05319C 13.6556 10.6762 10.7177 13.6064 7.07778 13.6064L 7.07778 14.6064C 11.2667 14.6064 14.6556 11.2318 14.6556 7.05319L 13.6556 7.05319ZM 7.07778 13.6064C 3.43788 13.6064 0.5 10.6762 0.5 7.05319L -0.5 7.05319C -0.5 11.2318 2.88888 14.6064 7.07778 14.6064L 7.07778 13.6064ZM 0.5 7.05319C 0.5 3.43017 3.43788 0.5 7.07778 0.5L 7.07778 -0.5C 2.88888 -0.5 -0.5 2.87461 -0.5 7.05319L 0.5 7.05319Z"/>
<path id="path5_stroke" d="M 0.499998 5.40711e-09C 0.499998 -0.276142 0.276141 -0.5 -1.52588e-06 -0.5C -0.276144 -0.5 -0.500002 -0.276142 -0.500002 5.40711e-09L 0.499998 5.40711e-09ZM -0.500002 14.061C -0.500002 14.3372 -0.276144 14.561 -1.52588e-06 14.561C 0.276141 14.561 0.499998 14.3372 0.499998 14.061L -0.500002 14.061ZM -0.500002 5.40711e-09L -0.500002 14.061L 0.499998 14.061L 0.499998 5.40711e-09L -0.500002 5.40711e-09Z"/>
<path id="path6_stroke" d="M 14.11 0.499998C 14.3862 0.499998 14.61 0.276141 14.61 -1.52588e-06C 14.61 -0.276144 14.3862 -0.500002 14.11 -0.500002L 14.11 0.499998ZM 5.42596e-09 -0.500002C -0.276142 -0.500002 -0.5 -0.276144 -0.5 -1.52588e-06C -0.5 0.276141 -0.276142 0.499998 5.42596e-09 0.499998L 5.42596e-09 -0.500002ZM 14.11 -0.500002L 5.42596e-09 -0.500002L 5.42596e-09 0.499998L 14.11 0.499998L 14.11 -0.500002Z"/>
<path id="path7_stroke" d="M 3.49438 0.393681C 3.71181 0.223441 3.75006 -0.0908221 3.57982 -0.308246C 3.40958 -0.52567 3.09532 -0.56392 2.87789 -0.393681L 3.49438 0.393681ZM 2.87789 14.4547C 3.09532 14.6249 3.40958 14.5867 3.57982 14.3693C 3.75006 14.1518 3.71181 13.8376 3.49438 13.6673L 2.87789 14.4547ZM 3.18614 5.40711e-09C 2.87789 -0.393681 2.87771 -0.393538 2.87752 -0.393386C 2.87743 -0.393322 2.87723 -0.39316 2.87707 -0.393033C 2.87686 -0.392868 2.87637 -0.392485 2.87595 -0.392154C 2.87534 -0.391669 2.87407 -0.39067 2.87285 -0.389698C 2.87086 -0.388116 2.86718 -0.385182 2.86324 -0.382008C 2.85627 -0.376391 2.84449 -0.366792 2.83092 -0.355534C 2.80564 -0.334532 2.76547 -0.30045 2.71793 -0.258435C 2.62665 -0.177634 2.48922 -0.050302 2.33122 0.110677C 2.02307 0.425345 1.59484 0.914388 1.17749 1.53631C 0.359567 2.76196 -0.488727 4.65703 -0.5 7.03051L 0.5 7.03051C 0.488727 4.86818 1.2335 3.248 2.00865 2.09234C 2.38784 1.52361 2.75614 1.10549 3.04538 0.81066C 3.18609 0.666889 3.29758 0.563887 3.38053 0.490541C 3.42012 0.455483 3.4484 0.431538 3.46979 0.413782C 3.47956 0.40566 3.48566 0.400698 3.49075 0.396597C 3.49284 0.394913 3.49374 0.394199 3.49481 0.393349C 3.49512 0.393104 3.49532 0.392943 3.49517 0.393067C 3.4952 0.39304 3.4949 0.393275 3.49492 0.393262C 3.49485 0.393313 3.49472 0.393418 3.49469 0.393443C 3.49454 0.393557 3.49438 0.393681 3.18614 5.40711e-09ZM -0.5 7.03051C -0.488727 9.40399 0.359567 11.2991 1.17749 12.5247C 1.59484 13.1466 2.02307 13.6357 2.33122 13.9503C 2.48922 14.1113 2.62665 14.2387 2.71793 14.3195C 2.76547 14.3615 2.80564 14.3956 2.83092 14.4166C 2.84449 14.4278 2.85627 14.4374 2.86324 14.443C 2.86718 14.4462 2.87086 14.4491 2.87285 14.4507C 2.87407 14.4517 2.87534 14.4527 2.87595 14.4532C 2.87637 14.4535 2.87686 14.4539 2.87707 14.4541C 2.87723 14.4542 2.87743 14.4543 2.87752 14.4544C 2.87771 14.4546 2.87789 14.4547 3.18614 14.061C 3.49438 13.6673 3.49454 13.6675 3.49469 13.6676C 3.49472 13.6676 3.49485 13.6677 3.49492 13.6678C 3.4949 13.6678 3.4952 13.668 3.49517 13.668C 3.49532 13.6681 3.49512 13.6679 3.49481 13.6677C 3.49374 13.6668 3.49284 13.6661 3.49076 13.6644C 3.48566 13.6603 3.47956 13.6554 3.46979 13.6472C 3.4484 13.6295 3.42012 13.6055 3.38053 13.5705C 3.29758 13.4971 3.18609 13.3941 3.04538 13.2504C 2.75614 12.9555 2.38784 12.5374 2.00865 11.9687C 1.2335 10.813 0.488727 9.19284 0.5 7.03051L -0.5 7.03051Z"/>
<path id="path8_stroke" d="M 0.308246 -0.393681C 0.0908218 -0.56392 -0.223441 -0.52567 -0.393681 -0.308246C -0.563921 -0.0908221 -0.52567 0.223441 -0.308246 0.393681L 0.308246 -0.393681ZM -0.308246 13.6673C -0.52567 13.8376 -0.56392 14.1518 -0.393681 14.3693C -0.223441 14.5867 0.0908219 14.6249 0.308246 14.4547L -0.308246 13.6673ZM -3.47261e-07 5.40711e-09C -0.308246 0.393681 -0.308404 0.393557 -0.308549 0.393443C -0.308582 0.393418 -0.308716 0.393313 -0.308781 0.393262C -0.308764 0.393275 -0.309063 0.39304 -0.309028 0.393067C -0.309186 0.392943 -0.30898 0.393104 -0.308672 0.393349C -0.307601 0.394199 -0.306705 0.394913 -0.304617 0.396597C -0.299527 0.400698 -0.293423 0.40566 -0.283653 0.413782C -0.262261 0.431538 -0.233981 0.455483 -0.194395 0.490541C -0.11144 0.563887 4.52656e-05 0.666889 0.140754 0.81066C 0.429997 1.10549 0.798302 1.52361 1.17749 2.09234C 1.95264 3.248 2.69741 4.86818 2.68614 7.03051L 3.68614 7.03051C 3.67486 4.65703 2.82657 2.76196 2.00865 1.53631C 1.5913 0.914388 1.16307 0.425345 0.854913 0.110677C 0.696922 -0.050302 0.55949 -0.177634 0.468203 -0.258435C 0.420668 -0.30045 0.380496 -0.334532 0.355216 -0.355534C 0.34165 -0.366792 0.329863 -0.376391 0.322897 -0.382008C 0.318956 -0.385182 0.315282 -0.388116 0.31329 -0.389698C 0.312066 -0.39067 0.310802 -0.391669 0.310188 -0.392154C 0.309768 -0.392485 0.309281 -0.392868 0.309071 -0.393033C 0.308909 -0.39316 0.308703 -0.393322 0.308622 -0.393386C 0.308428 -0.393538 0.308246 -0.393681 -3.47261e-07 5.40711e-09ZM 2.68614 7.03051C 2.69741 9.19284 1.95264 10.813 1.17749 11.9687C 0.798302 12.5374 0.429997 12.9555 0.140754 13.2504C 4.52152e-05 13.3941 -0.11144 13.4971 -0.194395 13.5705C -0.233981 13.6055 -0.262261 13.6295 -0.283653 13.6472C -0.293423 13.6554 -0.299527 13.6603 -0.304617 13.6644C -0.306705 13.6661 -0.307601 13.6668 -0.308672 13.6677C -0.30898 13.6679 -0.309186 13.6681 -0.309028 13.668C -0.309063 13.668 -0.308764 13.6678 -0.308781 13.6678C -0.308716 13.6677 -0.308582 13.6676 -0.30855 13.6676C -0.308404 13.6675 -0.308246 13.6673 -3.47261e-07 14.061C 0.308246 14.4547 0.308428 14.4546 0.308622 14.4544C 0.308703 14.4543 0.308909 14.4542 0.309071 14.4541C 0.309281 14.4539 0.309768 14.4535 0.310188 14.4532C 0.310802 14.4527 0.312066 14.4517 0.31329 14.4507C 0.315282 14.4491 0.318956 14.4462 0.322897 14.443C 0.329863 14.4374 0.34165 14.4278 0.355216 14.4166C 0.380496 14.3956 0.420668 14.3615 0.468203 14.3195C 0.55949 14.2387 0.696922 14.1113 0.854914 13.9503C 1.16307 13.6357 1.5913 13.1466 2.00865 12.5247C 2.82657 11.2991 3.67486 9.40399 3.68614 7.03051L 2.68614 7.03051Z"/>
<path id="path9_stroke" d="M 0.446902 -0.22423C 0.323063 -0.471047 0.0225874 -0.57074 -0.22423 -0.446902C -0.471046 -0.323063 -0.57074 -0.0225872 -0.446902 0.22423L 0.446902 -0.22423ZM 11.3708 0.22423C 11.4946 -0.0225871 11.3949 -0.323063 11.1481 -0.446901C 10.9013 -0.57074 10.6008 -0.471047 10.477 -0.22423L 11.3708 0.22423ZM 8.68154e-08 8.65138e-08C -0.446902 0.22423 -0.44673 0.224571 -0.446554 0.224921C -0.446489 0.225049 -0.446308 0.225408 -0.446179 0.225665C -0.446031 0.225956 -0.44564 0.226728 -0.445344 0.227311C -0.444976 0.228032 -0.444077 0.229786 -0.443334 0.231227C -0.442304 0.233217 -0.440035 0.237557 -0.437934 0.241512C -0.43467 0.247632 -0.428192 0.25953 -0.421432 0.271525C -0.409892 0.2919 -0.388742 0.327721 -0.364192 0.366357C -0.319479 0.436281 -0.240988 0.549078 -0.141365 0.671288C 0.0471836 0.900599 0.375157 1.23314 0.826261 1.54602C 1.74131 2.1749 3.2073 2.76791 5.46195 2.76791L 5.46195 1.76791C 3.39256 1.76791 2.12757 1.22696 1.39266 0.721887C 1.01878 0.467793 0.792022 0.233355 0.632087 0.0374334C 0.557469 -0.0529735 0.513279 -0.117357 0.478871 -0.171458C 0.463862 -0.194836 0.456342 -0.207739 0.449102 -0.220585C 0.446472 -0.225201 0.446033 -0.226038 0.444726 -0.2285C 0.444543 -0.228836 0.44492 -0.228129 0.445017 -0.227939C 0.444837 -0.22829 0.44585 -0.226312 0.445762 -0.226484C 0.445606 -0.226792 0.446361 -0.225304 0.446283 -0.225458C 0.446378 -0.22527 0.446533 -0.224963 0.44658 -0.224869C 0.446739 -0.224554 0.446902 -0.22423 8.68154e-08 8.65138e-08ZM 5.46195 2.76791C 7.71661 2.76791 9.18259 2.1749 10.0976 1.54602C 10.5487 1.23314 10.8767 0.900599 11.0653 0.671288C 11.1649 0.549079 11.2434 0.436282 11.2881 0.366357C 11.3126 0.327721 11.3338 0.2919 11.3453 0.271525C 11.3521 0.25953 11.3586 0.247632 11.3618 0.241512C 11.3639 0.237557 11.3662 0.233217 11.3672 0.231227C 11.368 0.229786 11.3689 0.228032 11.3692 0.227311C 11.3695 0.226728 11.3699 0.225957 11.3701 0.225665C 11.3702 0.225408 11.3704 0.225049 11.3705 0.224921C 11.3706 0.224571 11.3708 0.22423 10.9239 8.65138e-08C 10.477 -0.22423 10.4772 -0.224554 10.4773 -0.224869C 10.4774 -0.224963 10.4775 -0.22527 10.4776 -0.225458C 10.4775 -0.225304 10.4783 -0.226793 10.4781 -0.226484C 10.4781 -0.226312 10.4791 -0.22829 10.4789 -0.227939C 10.479 -0.228129 10.4794 -0.228836 10.4792 -0.2285C 10.4779 -0.226038 10.4774 -0.225201 10.4748 -0.220585C 10.4676 -0.207739 10.46 -0.194836 10.445 -0.171458C 10.4106 -0.117357 10.3664 -0.0529736 10.2918 0.0374333C 10.1319 0.233355 9.90512 0.467793 9.53125 0.721886C 8.79633 1.22696 7.53134 1.76791 5.46195 1.76791L 5.46195 2.76791Z"/>
<path id="path10_stroke" d="M -0.446902 2.04368C -0.57074 2.29049 -0.471046 2.59097 -0.22423 2.71481C 0.0225874 2.83865 0.323063 2.73895 0.446902 2.49214L -0.446902 2.04368ZM 10.477 2.49214C 10.6008 2.73895 10.9013 2.83865 11.1481 2.71481C 11.3949 2.59097 11.4946 2.29049 11.3708 2.04368L 10.477 2.49214ZM 8.68154e-08 2.26791C 0.446902 2.49214 0.446739 2.49246 0.44658 2.49278C 0.446533 2.49287 0.446378 2.49318 0.446283 2.49336C 0.446361 2.49321 0.445606 2.4947 0.445762 2.49439C 0.44585 2.49422 0.444837 2.4962 0.445017 2.49585C 0.44492 2.49604 0.444543 2.49674 0.444726 2.49641C 0.446033 2.49394 0.446472 2.49311 0.449102 2.48849C 0.456342 2.47565 0.463862 2.46274 0.478871 2.43937C 0.513279 2.38526 0.557469 2.32088 0.632087 2.23047C 0.792022 2.03455 1.01878 1.80011 1.39266 1.54602C 2.12757 1.04094 3.39256 0.5 5.46195 0.5L 5.46195 -0.5C 3.2073 -0.5 1.74131 0.0930109 0.826261 0.721886C 0.375157 1.03477 0.0471836 1.36731 -0.141365 1.59662C -0.240988 1.71883 -0.319479 1.83163 -0.364192 1.90155C -0.388742 1.94019 -0.409892 1.97601 -0.421432 1.99638C -0.428192 2.00838 -0.43467 2.02028 -0.437934 2.0264C -0.440035 2.03035 -0.442304 2.03469 -0.443334 2.03668C -0.444077 2.03812 -0.444976 2.03987 -0.445344 2.0406C -0.44564 2.04118 -0.446031 2.04195 -0.446179 2.04224C -0.446308 2.0425 -0.446489 2.04286 -0.446554 2.04299C -0.44673 2.04334 -0.446902 2.04368 8.68154e-08 2.26791ZM 5.46195 0.5C 7.53134 0.5 8.79633 1.04094 9.53125 1.54602C 9.90512 1.80011 10.1319 2.03455 10.2918 2.23047C 10.3664 2.32088 10.4106 2.38526 10.445 2.43937C 10.46 2.46274 10.4676 2.47565 10.4748 2.48849C 10.4774 2.49311 10.4779 2.49394 10.4792 2.49641C 10.4794 2.49674 10.479 2.49604 10.4789 2.49585C 10.4791 2.4962 10.4781 2.49422 10.4781 2.49439C 10.4783 2.4947 10.4775 2.49321 10.4776 2.49336C 10.4775 2.49318 10.4774 2.49287 10.4773 2.49278C 10.4772 2.49246 10.477 2.49214 10.9239 2.26791C 11.3708 2.04368 11.3706 2.04334 11.3705 2.04299C 11.3704 2.04286 11.3702 2.0425 11.3701 2.04224C 11.3699 2.04195 11.3695 2.04118 11.3692 2.0406C 11.3689 2.03987 11.368 2.03812 11.3672 2.03668C 11.3662 2.03469 11.3639 2.03035 11.3618 2.0264C 11.3586 2.02028 11.3521 2.00838 11.3453 1.99638C 11.3338 1.97601 11.3126 1.94019 11.2881 1.90155C 11.2434 1.83163 11.1649 1.71883 11.0653 1.59662C 10.8767 1.36731 10.5487 1.03477 10.0976 0.721886C 9.18259 0.0930109 7.71661 -0.5 5.46195 -0.5L 5.46195 0.5Z"/>
</defs>
</svg>
