<svg xmlns="http://www.w3.org/2000/svg" viewBox="0 0 467 333.3"><defs><style>.cls-1{opacity:0.2;}.cls-2,.cls-3{fill:none;stroke:#fff;stroke-miterlimit:10;}.cls-2{stroke-width:2px;}.cls-3{stroke-width:5px;}</style></defs><title>blue-tile</title><g id="Layer_2" data-name="Layer 2"><g id="Layer_1-2" data-name="Layer 1"><g class="cls-1"><path class="cls-2" d="M5.6,49v6.8"/><path class="cls-2" d="M19.7,48v3.9"/><path class="cls-2" d="M54.7,69.5c-16.3-3.6-35-.3-53.5,4.6"/><path class="cls-2" d="M1,115c6.7-11.2,9.4-25.2,16.3-36.3,4.8,8.8,11.6,17.5,15.5,26.3,4.4-10.7,8.3-22.9,12.7-33.6"/><path class="cls-2" d="M1.2,197c2.7-13.1,5.1-27,9.2-39.9C12.9,167.8,21.1,178,28,186.3a162.8,162.8,0,0,0,4.3-35"/><path class="cls-2" d="M1.2,257.1,8,261.8"/><path class="cls-2" d="M2.6,231.6c9.3,8.8,17.6,19.5,27.3,27.3"/><path class="cls-2" d="M20.7,222.4C30.4,234,41.6,246.2,53.3,255"/><path class="cls-2" d="M35.8,213.1c13.6,13.1,32.6,30.7,48.7,40.4"/><path class="cls-2" d="M53.3,203.8c18.5,13.7,38,27.8,55,42.4"/><path class="cls-2" d="M1.2,306.3c7.2,7.3,13.6,15.2,21.4,21.7"/><path class="cls-2" d="M11.4,292c12.2,10.7,21.4,23.4,33.1,34.1"/><path class="cls-2" d="M30.9,289.5c11.7,11.2,19.5,20.5,27.7,34.1"/><path class="cls-2" d="M47.9,289.5c11.2,8.8,17.6,20,24.9,31.7"/><path class="cls-2" d="M356.8,136.5c43.8,4.8,74.5-30.2,111.1-51.5"/><path class="cls-2" d="M345.6,301.7c47.3-14.9,83.7-43.7,122.3-68.9"/><path class="cls-2" d="M387.8,315.5c17.3-34.1,47-46.8,80.1-52.9"/><path class="cls-2" d="M408.5,324.9c18.6-19.3,37.7-31.7,59.4-40.4"/><path class="cls-2" d="M429.8,307.5a289.3,289.3,0,0,1,37.9-13.1"/><path class="cls-2" d="M420.1,59.2c-.5,2-.9,3.9-1.4,6.4"/><path class="cls-2" d="M441.6,55.8a13.2,13.2,0,0,1-.5,4.4"/><path class="cls-2" d="M455.2,54.4c0,2.4,0,4.8-1,6.8"/><path class="cls-2" d="M341.7,182.4c32.7-2.9,61.4-30.7,72.6-59.9,6.8,4.4,12.2,11.7,18.5,17.1,2.9-12.2,5.4-24.9,10.7-36.1,5.9,6.9,13.6,11.7,20.9,16.1a44.6,44.6,0,0,0,3.5-5"/><path class="cls-2" d="M329.1,213.6c23.8,5.8,41.4,26.8,63.8,36,.5-19.5-11.7-40.4-13.7-59.4,18.5,9.8,35.1,25.3,51.6,38,3.5-19.5.5-40.9,3.9-60.4,11.7,7.3,25.4,23.4,31.7,36,.6-2.4,1.1-4.9,1.6-7.5"/><path class="cls-2" d="M364.1,294.4c10.8,1.5,21.5,4.9,30.7,8.3"/><path class="cls-2" d="M384.1,284.7c7.8,1.4,15.1,3.4,22.4,4.4"/><path class="cls-2" d="M403.1,274.9a58,58,0,0,1,15.1,4.9"/><path class="cls-2" d="M416.2,265.7c6.9,1.4,13.2,2.9,20,4.9"/><path class="cls-2" d="M438.2,253.5a112.9,112.9,0,0,1,16.5,10.2"/><path class="cls-2" d="M450.8,243.8c5.6,4.5,11.3,9.1,17.1,13.3"/><path class="cls-2" d="M386.1,315.8c11.1,3,26.7,2.5,31.6-7.3,1.9-4.8-6.3-13.6-1.9-19.4,6.8-9.8,6.8-1,14.6-.5s6.3,11.2,15.1,2.9c2.9-2.9-2-16.1,1.4-19.5,9.8-10.2,6.8,4.4,15.6,5.4l5.3.7"/><path class="cls-2" d="M467.9,287.6c-15.3,4.2-29.2,10.5-39,19.5"/><path class="cls-2" d="M421.6,314.9c6.3,3.9,12.7,8.2,19,12.6"/><path class="cls-2" d="M430.4,307.1A206.1,206.1,0,0,0,452.8,327"/><path class="cls-2" d="M444,301.2c6.3,9.8,15.1,17.6,21.4,26.8"/><path class="cls-2" d="M458.1,297.3a107.9,107.9,0,0,1,9.9,9.1"/><path class="cls-3" d="M1.2,38.1a278,278,0,0,0,33.9-.6l11.4-.8c24.8-.6,61-6,82.4-11.4,30.8-7.6,43.8-13.6,72.4-20,38.8-8.8,87.7,6,125.3,6l11.2.2c25-1.6,61.9,26.6,95,26,13.5-.2,24.5.3,35.1.6"/><path class="cls-3" d="M1.2,328.1a278,278,0,0,0,33.9-.6l14.1-.7c22.8-12.1,99.2,4,132,4,28.4,0,70.3-2,92.4-14.1,17.5-9.3,35.5-18.7,55.6-16l8.6.8c25-1.6,61.9,26.6,95,26,13.5-.2,24.5.3,35.1.6"/><path class="cls-2" d="M170.4,13.6c19.7,11.9,50.7,10.2,73.2,14.7,28.8,6.2,58.6,12.9,87.9,16.9l6.3,3.3c36.6,27.2,85.1,15.1,130.1,5.5"/><path class="cls-2" d="M105.1,31.1c29.3,5.6,59.7,13.5,89,19.7,24.8,5.6,49,13,73.2,19.7s38.3,20.3,60.3,33.3l8.2-.3c43.3-1.4,88.8-17.4,132.1-33"/><path class="cls-2" d="M122.5,36.2c-23.6-.6-45.6,3.3-68.1,7.9l-6.3,2.4c-14.7.8-30.6,4-47,7.5"/><path class="cls-2" d="M139.5,38.6C110.2,46,83.7,48.8,53.9,50.5L50,53.1c-15.8,5-32.1,11-48.8,17"/><path class="cls-2" d="M1.1,85c16.8-9.8,34.9-16.7,56-15.5l4.6,1c98.6-3.9,182.5,73.3,283.4,66.5l9.8,1.1c3.4-6.8,10.7-6.3,14.6-11.2,6.3-7.3,5.8-11.6,12.2-19,9.2-10.7,23.3-17,36.5-19.9,15.1-3.3,32.3-9.4,49.7-13.9"/><path class="cls-2" d="M1.1,78.9c9.4-6.1,19.1-11.8,30.3-15.3l8.3-1c6.8-2.2,14.1-7.3,20.9-8.4,34.3-5.1,84.5.6,118.3,11.3,49.5,15.2,99.7,31.5,149.3,47.8h9.2c33.6-1,55.5,3.4,87.1-8.8,16.1-6.1,29.3-16.4,43.4-25.6"/><path class="cls-2" d="M405.5,62.5a21.4,21.4,0,0,1-2.7,4.7"/><path class="cls-2" d="M393.1,61.9c-1,2.3-2,4.6-3,6.6"/><path class="cls-2" d="M380.8,61.2c-.3,2-1,3.7-1.3,5.3"/><path class="cls-2" d="M371.1,61.2c-1,1.3-1.6,3-2.6,4.3"/><path class="cls-2" d="M360.8,57.2c-1.3,1.7-2.7,3.7-3.7,5.3"/><path class="cls-2" d="M351.1,53.2a43.8,43.8,0,0,0-2.6,3.7"/><path class="cls-2" d="M343.1,48.5c-1.6,2-3.3,4.4-4.6,6.4"/><path class="cls-2" d="M333.8,42.5c-1.3,2-2.7,3.7-4,5.7"/><path class="cls-2" d="M323.5,40.9c-.4,2-1,4.3-1.4,6.3"/><path class="cls-2" d="M313.8,40.5a22.7,22.7,0,0,1-.3,4.7"/><path class="cls-2" d="M305.1,38.9a5.8,5.8,0,0,0-.3,2.3"/><path class="cls-2" d="M296.8,37.9a15.4,15.4,0,0,1-.7,5.6"/><path class="cls-2" d="M287.1,36.2a5.8,5.8,0,0,0-2,2.7"/><path class="cls-2" d="M271.1,31.2a20.4,20.4,0,0,1-.6,6"/><path class="cls-2" d="M257.5,28.5c-.4,2-.7,3.7-1,5.4"/><path class="cls-2" d="M247.1,26.9a41.5,41.5,0,0,0-4.3,4"/><path class="cls-2" d="M234.8,25.2a37.3,37.3,0,0,0-1.7,3.7"/><path class="cls-2" d="M222.1,24.5a10.9,10.9,0,0,0,.7,3"/><path class="cls-2" d="M212.8,23.2a8.1,8.1,0,0,1-3.3,4"/><path class="cls-2" d="M205.1,22.2a14.4,14.4,0,0,0-3.3,2.7"/><path class="cls-2" d="M192.1,24.9l5.7-2.7"/><path class="cls-2" d="M181.8,20.5a19.2,19.2,0,0,0,7-2.3"/><path class="cls-2" d="M31.5,51.2a11.9,11.9,0,0,0,2.6-3.3"/><path class="cls-2" d="M46.1,48.2a15.7,15.7,0,0,1,2.4-3.7"/><path class="cls-2" d="M59.8,46.2a37.3,37.3,0,0,0,1.7-3.7"/><path class="cls-2" d="M71.5,42.5a3.8,3.8,0,0,0-.4-2"/><path class="cls-2" d="M87.1,42.2a11,11,0,0,0-4-4"/><path class="cls-2" d="M100.1,39.5a56.4,56.4,0,0,1-5.3-4"/><path class="cls-2" d="M109.5,38.5a3.2,3.2,0,0,0,.6-2.3"/><path class="cls-2" d="M129.8,24.9c6,5.3,12.3,10,18,15"/><path class="cls-2" d="M146.1,21.9c6.4,7,11,15,17.4,22"/><path class="cls-2" d="M156.5,18.2c9.3,9.3,16.3,22.3,26.6,29.7"/><path class="cls-2" d="M168.1,15.5c9.7,17.4,28.4,28,43.4,39.7"/><path class="cls-2" d="M211.1,55.5c25.4-5.3,59-3.6,82.4-15.3"/><path class="cls-2" d="M296.8,40.2c11.7,20.7,19,43,29.7,63.7"/><path class="cls-2" d="M326.1,104.2c9-12,22.4-41,39.7-41"/><path class="cls-2" d="M369.8,64.2a212.2,212.2,0,0,0,25.7,30.7c4.3-10.4,12.3-19.7,18-29.4"/><path class="cls-2" d="M414.5,64.9c8.3,5.6,18,10,27,14.6,2-6.3,5-13,7.3-19.6,7.3,3.6,11.3,12,19,9"/><path class="cls-2" d="M47.1,70.2c10.4,5.7,23.7,18,29.7,28,16.7-8,38.3-7,53.3-17,5,7.3,9.4,22.7,17.4,25,9.6,2.7,25-7.7,35.6-7.7"/><path class="cls-2" d="M1.1,118.4c21.6-9.7,44.7-16.5,71-16.9l10.7,1.7c33,4,62.3,12.7,96.3,11,13.4-.7,26.7-3,40.4-3"/><path class="cls-2" d="M156.8,114.2c28.3,5.7,56,14,83.7,21.3,23.3,6,47,6.4,70,12.4,26,6.6,59.6-4.4,84.6-14.4a84.2,84.2,0,0,0,18-9"/><path class="cls-2" d="M386.8,162.5c-24.3-.3-49.7,4.4-73.7,2.4s-26.6-18.7-42.6-30.7-50.7-2.7-70.4-4.3c-23.6-2-47.3-3.4-71-6.7-30-4.7-59.6-16.3-89.3-4.3l-7,1.2c-10.9,3.6-21.3,6.9-31.6,10.7"/><path class="cls-2" d="M1.2,157.6c18.1-5.1,35.9-9.4,52.9-13.1l7.7-3c8.7-.3,15.3-6.3,24.3-7.3,13.4-1.3,25.7,5.7,38.4,8.7,0-1,4,1.3,4,.3,20,3.3,34,6,54.3,5.3s45.3-8,65.7-1c13.6,4.7,24,17.7,37.6,24,12,5.7,25.7,10.7,38.4,15h5.3c50.8-11.6,90.8-46.9,138.1-68.2"/><path class="cls-2" d="M1.2,138.9c11.5-6.2,22.8-10.8,32.6-11h6.7c20.6-3,53.3-7,74-3,11.6,2.3,10,12.6,19.6,16.6s21.7-7.6,29.4-13c11,11,19.6,20,34.3,16.7,10-2.3,20.3-10.3,31.3-9.7s15.4,9.4,24.4,12,17,.7,24.6-2.3c3.4,7,5.4,15.7,4.7,23.3,6.7-1.6,14-5,20.3-8,6,7,9,18,16.4,23,5.6-4,8.3-10.3,9.6-17,3.7,5.4,8.4,11.4,11,17.4a94.3,94.3,0,0,0,12-20.7c4.7,3.7,9,8,14,11.3.7-3.3,2-7.6,1.7-11"/><path class="cls-2" d="M44.1,180.5l9.7-4.3h.3c11.4-6,26.2-.9,38.4-2.7,35.3-5,54.3-11,86.6-9,28.4,1.7,68.4,10.4,96.4,15.7,14.3,3,29.3,12,44.3,11.7l7.3.8c47.8.9,67.7-24.4,105.7-46.3a240.1,240.1,0,0,1,35.1-15.6"/><path class="cls-2" d="M32.1,149.9c11.4,7.6,22.7,17.3,35,23,9-10,11-24,15.7-36.4,6.7,11,8.3,24.4,14.7,35.4,7-9,12.3-20.4,17.3-30.7,3,9,3,18.7,6.3,27.3,7.7-4,12-14.6,17-21.3,3,3.7,10.7,16.7,15.7,17s12.7-10.3,16.3-14.7c3.7,3.7,10.7,15,15.7,15s16-12.3,18.7-17c3.6,8,10,14,14,21.7,3.6-6.7,4-16,5-23.7,2.3,8.7,6.6,16.7,9,25.4,6.6-6.4,11.3-16,16.3-23.4,6,10,8,20.4,12,31a58,58,0,0,0,14.7-12.6c2.6,6,7,11.3,10,17,3-2,7.3-3.7,10-6.4,3.3,4,6.3,8.7,9.6,13,1.7-2.3,5-3.3,6.7-6.6,1,4,4.7,5.3,6.7,8.3,1-1.7,3.6-3,4.6-4.7,4.7,1.7,9,4,13.4,5.4.3-1.7,1.6-3.4,1.6-5,2.4,1.3,6.4,1.6,8.7,3.6,0-2,1.7-5.3,1.3-8,5,1,10.7,2.7,15.7,3.4-1-2.4-.7-6-2-8.4a129.2,129.2,0,0,1,13.3,3.4c0-3,1.7-7.4,1.4-10.7a28,28,0,0,1,14,.7c1.6-3,.6-5.4-.7-8.4"/><path class="cls-2" d="M389.5,163.5c14.3,3,14.6,1.4,25-8.6,5.6-5.4,13-10.4,18.3-15.4"/><path class="cls-2" d="M1,213.1c13.1-9,26.2-17.9,40.6-23.9l9.2-2.7c40.7,0,80-2,120-7.6,13-1.7,28-2.7,39.7-9.7"/><path class="cls-2" d="M.5,222.1A479.6,479.6,0,0,1,42.6,199l6.5-2.5c36-9.6,74.7-6.6,112-8.6,49.4-2.7,99.7,3.6,148.4,11.3,5.3,1,10.3,2.7,16,3.3l3.6,1.4c29.2-2.5,65.2-24.4,91.5-37.1,13.1-6.3,30.3-18.8,47.3-27.9"/><path class="cls-2" d="M1.2,232.8c21-13.7,42.6-26.4,66.9-35.3l7-.3c4.4-.7,8.7-.7,13-1,41-1.7,75.7.3,116,9.7,36,8.6,69.4,18,107,18l7.7-3.4c43-27.4,97.1-48.3,149.1-62.9"/><path class="cls-2" d="M53.5,203.5c-.4-6.3-1-17.3,4-22,9.6-9.6,6.3,1,12.3,8.7,11.3,14.7,9.3-7.7,21-12.3,17-7,13,24.3,30.7,13.6,8.6-5.3,11-25.6,25.6-12.6,7,6.6.7,20.3,14.4,18.6s5.3-17,9.6-24c15.7-25,23.4,23.7,25.4,25.7,18.3,18.7,18.3-19,23-23.7,13.3-14,12.3,28,15.6,32.7,5.4,7,15,8.7,19.7,1.3s-3-21-5.3-29.3c22-10,17.6,17.7,20,28.3,3,14.4,14,15.7,16.3-1.3,1-8-5.7-26.7,10.3-16.7,8.7,5.4,6,30.4,15.7,31s6.3-14.6,8.3-19.6c5.4-13,4.4-.4,14.7,2,6.7,1.3,7.3-1,11.7-3.4,1.6-1,.3-6,1.3-6.6s5,0,6.3-.7c-1.3.7,10.7-1.3,10-1.3,3.4-.4,4-5.4,10-2"/><path class="cls-2" d="M1.2,262.6c35.6-6.6,75.3-5.7,107.9-16.1l4.7-1.3c43-5.3,94-17.7,136-5.7,27.3,7.7,55.7,14,82,23l7,2c44.2,1.5,87.9-33.4,129.1-60.3"/><path class="cls-2" d="M73.1,197.5c16.7,13.7,32.4,36.4,52.7,44.4"/><path class="cls-2" d="M96.5,195.9c18.6,12,29,33.3,49,44"/><path class="cls-2" d="M123.1,195.9c6.4,11.3,22.7,35,34.4,42"/><path class="cls-2" d="M144.5,197.2c10,11.3,14.6,25.7,22.3,38.3"/><path class="cls-2" d="M165.5,198.9c11.3,9.3,19.3,24,27.3,35.6"/><path class="cls-2" d="M193.1,204.2c9,9,13.7,21.3,22.7,29.7"/><path class="cls-2" d="M219.8,209.5c7,8.4,9.7,20.7,18.3,27"/><path class="cls-2" d="M245.5,216.5c5,10.7,14.6,21.4,24,28.4"/><path class="cls-2" d="M267.5,220.5c8,10.7,16.3,21.7,26,30.7"/><path class="cls-2" d="M291.1,222.9c13.4,13,19.7,32,38.4,38.3"/><path class="cls-2" d="M312.8,223.2c7,14.7,16.7,36,33,41.7"/><path class="cls-2" d="M322.5,218.9c9.6,13.3,21,36.3,36.6,43.3"/><path class="cls-2" d="M327.1,214.5c15.7,20.4,31.4,34,56,41"/><path class="cls-2" d="M.9,284.7a264.3,264.3,0,0,1,39.2-12.2l7.7.4c47-.4,88.3-3,134-13.7,33.3-7.7,65.3-11,99-11.3"/><path class="cls-2" d="M255.1,240.5c2.4,20.4-11.6-2-11.3-2-12.3-2-2,19-15,8-2.7-2.3.3-12.3-5.3-12s0,11.7-.4,12.7c-8.3,14.3-7-8-14.3-10.3-11-3.7-3.7,12-.7,16.3-9,5-14.3-12.3-21.3-16.7-2.7,8.4,7.7,34-9.3,12-2-2.3-8.4-20-11.4-5.3-1.3,6.7,7.7,11,8.4,17.7-13.4,1.6-13.7-21-26.4-20-1.6,6.6,10.4,21,3.4,23.3-9.7,3.3-13.7-17.7-18-22-7,7,9.6,25,0,25-7.7,0-11-18-14.7-22.7-8.7,4.7,9,26.4-3,24.4-7-1-12.7-26-17-16-1,2.6,6.7,29.3-6,15.3-2-2.7-1.7-29.7-8.7-11.7a15.7,15.7,0,0,0,2,13.7c-9,3-12.6-23.7-18-13-1.6,3.7,6,13,1.4,14s-9.7-12.3-10.4-15.3c-2.6,3-.6,12.6-1.3,17l-7.4-3.8c-15.1-21.9-13.2,2.9-21.9,4.4-4.9.5-5.9-12.2-12.7-10.7S11.9,272.5,8,274c-7.2,3.6-4.3,4.5-6.8,4.2"/><path class="cls-2" d="M144.5,267.2c19.6,13,54,21.3,77.6,24,41.4,4.7,73.4-5.7,110.7-17.7h8.5c32.1.5,67.6-26.3,94.9-40.4,10.9-5.8,21.2-12.9,31.5-20"/><path class="cls-2" d="M156.5,275.2c-27,6.7-55.7,2.3-83,6.3l-5.1.3a199.1,199.1,0,0,0-67.2,5.8"/><path class="cls-2" d="M241.1,292.5c10.7,3.4,21.4,1.4,32.4.7,18-1,37,.7,54.3-5l9.6-4c48.4-9.2,88.9-37.5,130.5-62.5"/><path class="cls-2" d="M1.1,294.4c23.6-6.1,48.7-8,69,2.1l3.4,2.4c30.6,23.6,73.3,7,107,.3,19.3-3.7,40.3-5.3,60-6"/><path class="cls-2" d="M55.5,290.5c33.3,6.7,81,3,112-10.6"/><path class="cls-2" d="M85.1,306.2c30.4,3.7,72.4-4.7,99-20.3"/><path class="cls-2" d="M83.1,305.9c7,4.6,12,11.6,18.4,17"/><path class="cls-2" d="M114.1,311.5l13,13"/><path class="cls-2" d="M135.5,309.5c10.3,6,19,14,29,19.7"/><path class="cls-2" d="M159.8,303.5c11.7,7.7,22.3,17.7,33.7,26"/><path class="cls-2" d="M186.8,298.5c12.3,9.7,23,22.4,36.3,30.4"/><path class="cls-2" d="M206.5,295.5c16,7,28.3,21.7,44.6,27.7"/><path class="cls-2" d="M232.8,293.5c12.7,9,27.3,13.4,41,21"/><path class="cls-2" d="M262.8,294.2c10.3,3.7,19.7,9,30.3,11.7"/><path class="cls-2" d="M295.8,291.9c8.3,4,17,5.6,25.3,8.3"/><path class="cls-2" d="M320.1,290.9c10.4,3.6,20.7,8.6,31,11.6"/></g></g></g></svg>
