<svg width="70" height="70" viewBox="0 0 70 70" version="1.1" xmlns="http://www.w3.org/2000/svg" xmlns:xlink="http://www.w3.org/1999/xlink">
<title>book2</title>
<desc>Created using Figma</desc>
<g id="Canvas" transform="translate(-9797 1680)">
<g id="book2">
<g id="Rectangle 26">
<use xlink:href="#path0_fill" transform="translate(9797 -1680)" fill="#BB6BD9"/>
</g>
<g id="BOOK">
<use xlink:href="#path1_fill" transform="translate(9797 -1627)" fill="#F2F2F2"/>
</g>
<g id="book6">
<g id="Layer 2">
<g id="Layer 1">
<g id="Vector">
<use xlink:href="#path2_fill" transform="matrix(0.5 -0.866025 -0.866025 -0.5 9832.86 -1624.43)" fill="#FFFFFF"/>
</g>
<g id="Vector">
<use xlink:href="#path3_fill" transform="matrix(0.5 -0.866025 -0.866025 -0.5 9832.16 -1652.28)" fill="#FFFFFF"/>
</g>
<g id="Vector">
<use xlink:href="#path4_fill" transform="matrix(0.5 -0.866025 -0.866025 -0.5 9823.22 -1630)" fill="#F3DEFC"/>
</g>
<g id="Vector">
<use xlink:href="#path5_fill" transform="matrix(0.5 -0.866025 -0.866025 -0.5 9832.99 -1623.75)" fill="#333333"/>
</g>
<g id="label">
<use xlink:href="#path6_fill" transform="matrix(0.5 -0.866025 -0.866025 -0.5 9833.34 -1642.36)" fill="#F3DEFC"/>
</g>
<g id="Rectangle 27">
<use xlink:href="#path7_fill" transform="translate(9823 -1657)" fill="#333333"/>
</g>
</g>
</g>
</g>
</g>
</g>
<defs>
<path id="path0_fill" d="M 0 0L 70 0L 70 70L 0 70L 0 0Z"/>
<path id="path1_fill" d="M 19.0117 11L 19.0117 2.46875L 21.9355 2.46875C 22.9004 2.46875 23.6348 2.66211 24.1387 3.04883C 24.6426 3.43555 24.8945 4.01172 24.8945 4.77734C 24.8945 5.16797 24.7891 5.51953 24.5781 5.83203C 24.3672 6.14453 24.0586 6.38672 23.6523 6.55859C 24.1133 6.68359 24.4688 6.91992 24.7188 7.26758C 24.9727 7.61133 25.0996 8.02539 25.0996 8.50977C 25.0996 9.31055 24.8418 9.92578 24.3262 10.3555C 23.8145 10.7852 23.0801 11 22.123 11L 19.0117 11ZM 20.4941 7.15039L 20.4941 9.81641L 22.1406 9.81641C 22.6055 9.81641 22.9688 9.70117 23.2305 9.4707C 23.4922 9.24023 23.623 8.91992 23.623 8.50977C 23.623 7.62305 23.1699 7.16992 22.2637 7.15039L 20.4941 7.15039ZM 20.4941 6.06055L 21.9473 6.06055C 22.4082 6.06055 22.7676 5.95703 23.0254 5.75C 23.2871 5.53906 23.418 5.24219 23.418 4.85938C 23.418 4.4375 23.2969 4.13281 23.0547 3.94531C 22.8164 3.75781 22.4434 3.66406 21.9355 3.66406L 20.4941 3.66406L 20.4941 6.06055ZM 33.3906 6.95703C 33.3906 7.79297 33.2461 8.52734 32.957 9.16016C 32.668 9.78906 32.2539 10.2734 31.7148 10.6133C 31.1797 10.9492 30.5625 11.1172 29.8633 11.1172C 29.1719 11.1172 28.5547 10.9492 28.0117 10.6133C 27.4727 10.2734 27.0547 9.79102 26.7578 9.16602C 26.4648 8.54102 26.3164 7.82031 26.3125 7.00391L 26.3125 6.52344C 26.3125 5.69141 26.459 4.95703 26.752 4.32031C 27.0488 3.68359 27.4648 3.19727 28 2.86133C 28.5391 2.52148 29.1562 2.35156 29.8516 2.35156C 30.5469 2.35156 31.1621 2.51953 31.6973 2.85547C 32.2363 3.1875 32.6523 3.66797 32.9453 4.29688C 33.2383 4.92188 33.3867 5.65039 33.3906 6.48242L 33.3906 6.95703ZM 31.9082 6.51172C 31.9082 5.56641 31.7285 4.8418 31.3691 4.33789C 31.0137 3.83398 30.5078 3.58203 29.8516 3.58203C 29.2109 3.58203 28.709 3.83398 28.3457 4.33789C 27.9863 4.83789 27.8027 5.54688 27.7949 6.46484L 27.7949 6.95703C 27.7949 7.89453 27.9766 8.61914 28.3398 9.13086C 28.707 9.64258 29.2148 9.89844 29.8633 9.89844C 30.5195 9.89844 31.0234 9.64844 31.375 9.14844C 31.7305 8.64844 31.9082 7.91797 31.9082 6.95703L 31.9082 6.51172ZM 41.6758 6.95703C 41.6758 7.79297 41.5312 8.52734 41.2422 9.16016C 40.9531 9.78906 40.5391 10.2734 40 10.6133C 39.4648 10.9492 38.8477 11.1172 38.1484 11.1172C 37.457 11.1172 36.8398 10.9492 36.2969 10.6133C 35.7578 10.2734 35.3398 9.79102 35.043 9.16602C 34.75 8.54102 34.6016 7.82031 34.5977 7.00391L 34.5977 6.52344C 34.5977 5.69141 34.7441 4.95703 35.0371 4.32031C 35.334 3.68359 35.75 3.19727 36.2852 2.86133C 36.8242 2.52148 37.4414 2.35156 38.1367 2.35156C 38.832 2.35156 39.4473 2.51953 39.9824 2.85547C 40.5215 3.1875 40.9375 3.66797 41.2305 4.29688C 41.5234 4.92188 41.6719 5.65039 41.6758 6.48242L 41.6758 6.95703ZM 40.1934 6.51172C 40.1934 5.56641 40.0137 4.8418 39.6543 4.33789C 39.2988 3.83398 38.793 3.58203 38.1367 3.58203C 37.4961 3.58203 36.9941 3.83398 36.6309 4.33789C 36.2715 4.83789 36.0879 5.54688 36.0801 6.46484L 36.0801 6.95703C 36.0801 7.89453 36.2617 8.61914 36.625 9.13086C 36.9922 9.64258 37.5 9.89844 38.1484 9.89844C 38.8047 9.89844 39.3086 9.64844 39.6602 9.14844C 40.0156 8.64844 40.1934 7.91797 40.1934 6.95703L 40.1934 6.51172ZM 45.6016 7.31445L 44.6348 8.33984L 44.6348 11L 43.1523 11L 43.1523 2.46875L 44.6348 2.46875L 44.6348 6.4707L 45.4551 5.45703L 47.9512 2.46875L 49.7441 2.46875L 46.5742 6.24805L 49.9258 11L 48.168 11L 45.6016 7.31445Z"/>
<path id="path2_fill" d="M 0 11.0993L 19.3169 0L 42.7319 13.4569L 23.4149 24.5561L 0 11.0993Z"/>
<path id="path3_fill" d="M 17.58 -2.28404e-07L 9.17877e-07 10.1188L 9.17877e-07 16.7275L 17.58 6.60868L 17.58 -2.28404e-07Z"/>
<path id="path4_fill" d="M 23.5277 20.1254L 0 6.60119L 0 2.28404e-07L 23.5277 13.5167L 23.5277 20.1254Z"/>
<path id="path5_fill" d="M 43.9876 16.4356L 43.1605 15.994L 43.153 15.994L 42.4085 15.5899L 42.4085 15.051L 42.8823 14.7816L 43.9876 14.2203L 19.3169 0L 0 11.2565L 0 18.4639L 24.1443 32.3174L 24.1518 32.3174L 43.9876 20.9262L 43.1605 20.4847L 43.153 20.4847L 42.4085 20.0805L 42.4085 19.5791L 43.9876 18.6734L 43.1605 18.2319L 43.153 18.2319L 42.4085 17.8277L 42.4085 17.3263L 43.9876 16.4356ZM 24.6631 27.5424L 41.2807 17.9924L 41.2807 19.3021L 24.6631 28.8297L 24.6631 27.5424ZM 24.6631 26.547L 24.6631 25.2597L 41.2807 15.7096L 41.2807 16.9895L 24.6631 26.547ZM 23.5202 24.7657L 23.5352 24.7882L 23.5352 30.8205L 1.12789 17.9175L 1.12789 11.8328L 19.2944 1.16007L 41.8822 14.2128L 23.5202 24.7657ZM 24.6631 29.7877L 41.2807 20.2377L 41.2807 21.5474L 24.6631 31.075L 24.6631 29.7877Z"/>
<path id="path6_fill" d="M 18.7605 3.98167L 6.91771 10.7849L 0 6.81076L 11.8428 0L 18.7605 3.98167Z"/>
<path id="path7_fill" d="M 0 0L 1 0L 1 27L 0 27L 0 0Z"/>
</defs>
</svg>
