<svg width="232" height="231" viewBox="0 0 232 231" version="1.1" xmlns="http://www.w3.org/2000/svg" xmlns:xlink="http://www.w3.org/1999/xlink"><title>checkov</title><desc>Created using Figma</desc><use xlink:href="#a" fill="#FFF"/><g transform="translate(36.9 151.04)"><use xlink:href="#b" fill="#FFF"/><use xlink:href="#c" fill="#333"/></g><g transform="translate(89.2 157.54)"><use xlink:href="#d" fill="#FFF"/><use xlink:href="#e" fill="#333"/></g><g transform="translate(89.2 93.14)"><use xlink:href="#f" fill="#FFF"/><use xlink:href="#g" fill="#333"/></g><g transform="translate(154.6 78.14)"><use xlink:href="#h" fill="#FFF"/><use xlink:href="#i" fill="#333"/></g><g transform="translate(81.4 43.94)"><use xlink:href="#j" fill="#FFF"/><use xlink:href="#k" fill="#333"/></g><g transform="translate(128.5 77.94)"><use xlink:href="#l" fill="#FFF"/><use xlink:href="#m" fill="#333"/></g><g transform="translate(109 74.34)"><use xlink:href="#n" fill="#FFF"/><use xlink:href="#o" fill="#333"/></g><use xlink:href="#p" transform="translate(102.9 74.34)" fill="#333"/><g transform="translate(149 74.34)"><use xlink:href="#q" fill="#FFF"/><use xlink:href="#r" fill="#333"/></g><use xlink:href="#s" transform="translate(142.9 74.34)" fill="#333"/><use xlink:href="#t" transform="translate(99.1 68.24)" fill="#333"/><use xlink:href="#u" transform="translate(137.7 68.24)" fill="#333"/><g transform="translate(76.4 17.74)"><use xlink:href="#v" fill="#BDBDBD"/><use xlink:href="#w" fill="#333"/></g><g transform="translate(115 112.74)"><use xlink:href="#x" fill="#FFF"/><use xlink:href="#y" fill="#333"/></g><g transform="translate(119.9 112.74)"><use xlink:href="#z" fill="#FFF"/><use xlink:href="#A" fill="#333"/></g><g><use xlink:href="#B" transform="translate(72.8 78.14)" fill="#FFF"/><use xlink:href="#C" transform="translate(71.3 76.64)" fill="#333"/></g><g><use xlink:href="#D" transform="translate(94.6 31.84)" fill="#333"/><use xlink:href="#E" transform="translate(81 36.98)" fill="#333"/><use xlink:href="#F" transform="translate(99.5 26.14)" fill="#333"/><use xlink:href="#G" transform="translate(110 22.68)" fill="#333"/></g><defs><path id="a" d="M231.045 115.5c0 63.789-51.721 115.5-115.522 115.5C51.721 231 0 179.289 0 115.5S51.721 0 115.523 0c63.801 0 115.522 51.711 115.522 115.5z"/><path id="b" d="M78.4 0s52.1 10.8 65.4 18c13.3 7.2 13.6 20.4 13.6 20.4S135 52.5 78.7 52.5C22.4 52.5 0 38.4 0 38.4S.3 25.2 13.6 18C27 10.8 78.4 0 78.4 0z"/><path id="c" d="M78.4 0l.304-1.469a1.5 1.5 0 0 0-.612.001L78.4 0zm79 38.4l.799 1.27a1.5 1.5 0 0 0 .701-1.304l-1.5.034zM0 38.4l-1.5-.034a1.5 1.5 0 0 0 .7 1.303L0 38.4zM13.6 18l-.71-1.321-.004.002L13.6 18zM78.4 0l-.304 1.469h.002l.007.002c.006 0 .015.003.027.005l.111.024a353.19 353.19 0 0 1 2.109.445c1.449.31 3.53.758 6.073 1.32a881.606 881.606 0 0 1 19.33 4.492c7.333 1.797 15.056 3.812 21.785 5.83 6.72 2.014 12.327 3.984 15.546 5.732l1.428-2.638c-3.431-1.852-9.324-3.932-16.113-5.968-6.781-2.032-14.577-4.067-21.931-5.87a886.866 886.866 0 0 0-27.614-6.28l-.113-.024-.029-.006a2.69 2.69 0 0 0-.007-.001h-.002L78.4 0zm64.686 19.32c6.289 3.404 9.482 8.205 11.115 12.153a23.371 23.371 0 0 1 1.467 5.01 17.515 17.515 0 0 1 .228 1.85l.004.087v.016c0-.001 0-.002 1.5-.036 1.5-.034 1.5-.035 1.5-.036v-.002l-.001-.004v-.013l-.001-.041-.007-.137c-.006-.107-.017-.279-.036-.484a21.777 21.777 0 0 0-.232-1.716 27.761 27.761 0 0 0-1.649-5.64c-1.842-4.452-5.449-9.85-12.46-13.646l-1.428 2.638zM157.4 38.4l-.798-1.27h0l-.006.004-.038.023c-.041.024-.095.057-.177.104-.17.1-.414.237-.76.421-.706.378-1.752.904-3.209 1.55-2.946 1.307-7.403 3.032-13.653 4.773-12.568 3.508-32.042 7-60.059 6.995v3c28.283-.006 48.159-3.563 60.866-7.105 6.388-1.784 11.049-3.585 14.063-4.92a53.294 53.294 0 0 0 3.405-1.646 28.667 28.667 0 0 0 1.076-.605l.061-.037a.191.191 0 0 0 .018-.011l.006-.004.002-.002c.001 0 .002 0-.797-1.27zM78.7 51c-28.017.006-47.49-3.487-60.06-6.995-6.249-1.741-10.706-3.466-13.652-4.773a48.81 48.81 0 0 1-3.21-1.55 23.75 23.75 0 0 1-.98-.552L0 38.4c-.8 1.27-.798 1.27-.797 1.27l.002.002.006.004a2.12 2.12 0 0 0 .079.048l.222.132c.186.107.477.272.854.473.739.394 1.882.97 3.405 1.645 3.014 1.337 7.675 3.137 14.063 4.92C30.541 50.438 50.417 53.995 78.7 54v-3zM0 38.4l1.5.035v-.015l.004-.087a17.585 17.585 0 0 1 .228-1.85 23.387 23.387 0 0 1 1.467-5.01c1.633-3.948 4.826-8.75 11.115-12.154l-1.428-2.638C5.875 20.476 2.268 25.875.426 30.327a27.763 27.763 0 0 0-1.649 5.64 21.964 21.964 0 0 0-.232 1.716 14.444 14.444 0 0 0-.045.68v.001c0 .001 0 .002 1.5.036zm14.31-19.079c3.247-1.75 8.832-3.72 15.502-5.735 6.677-2.018 14.322-4.033 21.574-5.83a875.674 875.674 0 0 1 27.176-6.257l.11-.023.028-.006.006-.002h.002L78.4 0a291.441 291.441 0 0 0-.31-1.468h-.001l-.007.002-.029.006a150.078 150.078 0 0 0-.546.116l-1.659.356a880.027 880.027 0 0 0-25.184 5.832c-7.273 1.803-14.99 3.838-21.72 5.87-6.736 2.036-12.6 4.114-16.054 5.965l1.42 2.642z"/><path id="d" d="M50.8 7s-7.7 6.1-25.5 6.1S0 7 0 7v-.9S7.7 0 25.5 0s25.3 6.1 25.3 6.1V7z"/><path id="e" d="M50.8 7l4.036 5.095A6.5 6.5 0 0 0 57.3 7h-6.5zM0 7h-6.5a6.5 6.5 0 0 0 2.399 5.043L0 7zm0-.9l-4.036-5.095A6.5 6.5 0 0 0-6.5 6.1H0zm50.8 0h6.5a6.5 6.5 0 0 0-2.399-5.043L50.8 6.1zm0 .9c-4.036-5.095-4.033-5.097-4.03-5.1a.364.364 0 0 0 .015-.012 5.897 5.897 0 0 0 .073-.056 8.209 8.209 0 0 1-.766.478c-.846.487-1.875 1.013-3.609 1.639C38.695 5.353 33.44 6.645 25.3 6.6v13c9.661-.045 17.155-1.803 21.667-3.449 2.416-.899 4.425-1.898 5.579-2.555.646-.373 1.23-.746 1.543-.959a19.44 19.44 0 0 0 .634-.454 15.583 15.583 0 0 0 .09-.07l.012-.009.006-.004c.002-.003.005-.005-4.031-5.1zm-25.5-.4c-8.133.045-13.327-1.242-17.059-2.642-1.701-.621-2.694-1.138-3.518-1.62a7.513 7.513 0 0 1-.655-.412c-.052-.036-.094-.068-.067-.048a3.93 3.93 0 0 1 .079.062l.01.008.006.005C4.098 1.955 4.1 1.957 0 7s-4.098 5.045-4.096 5.047l.006.005.013.01a3.245 3.245 0 0 0 .09.072 15.005 15.005 0 0 0 .633.464c.31.215.89.595 1.531.971 1.139.66 3.133 1.67 5.532 2.573 4.468 1.65 11.924 3.413 21.591 3.458v-13zM6.5 7v-.9h-13V7h13zM0 6.1c4.036 5.095 4.033 5.097 4.03 5.1l-.005.004-.01.008a1.697 1.697 0 0 0-.018.014l-.03.022-.025.02a8.188 8.188 0 0 1 .766-.478c.846-.487 1.875-1.013 3.609-1.639C12.105 7.747 17.36 6.455 25.5 6.5v-13c-9.661.045-17.155 1.803-21.667 3.449-2.416.899-4.425 1.898-5.579 2.555-.646.373-1.23.746-1.543.959a19.312 19.312 0 0 0-.634.454 12.944 12.944 0 0 0-.102.079L-4.03 1c-.002.002-.005.004 4.031 5.099zm25.5.4c8.133-.045 13.327 1.242 17.059 2.642 1.701.621 2.695 1.138 3.518 1.62.34.197.485.294.655.412.052.036.094.068.067.048l-.03-.023-.03-.024a3.117 3.117 0 0 1-.035-.028c-.002-.002-.005-.004 4.096-5.047s4.099-5.045 4.096-5.047l-.006-.005-.013-.01a4.32 4.32 0 0 0-.09-.072A15.572 15.572 0 0 0 54.153.5a26.19 26.19 0 0 0-1.531-.97c-1.139-.66-3.133-1.67-5.532-2.573C42.623-4.692 35.167-6.455 25.5-6.5v13zm18.8-.4V7h13v-.9h-13z"/><path id="f" d="M50.8 70.4s-7.7 6.1-25.5 6.1S0 70.4 0 70.4V0h50.8v70.4z"/><path id="g" d="M50.8 70.4l.931 1.176A1.5 1.5 0 0 0 52.3 70.4h-1.5zM0 70.4h-1.5c0 .451.203.879.554 1.164L0 70.4zM0 0v-1.5A1.5 1.5 0 0 0-1.5 0H0zm50.8 0h1.5a1.5 1.5 0 0 0-1.5-1.5V0zm0 70.4c-.931-1.176-.93-1.176-.93-1.177l.002-.002h.001l-.006.004a7.056 7.056 0 0 1-.276.196c-.23.157-.55.364-1.017.63-.964.552-2.37 1.26-4.366 1.991C40.14 73.539 34.024 75.01 25.3 75v3c9.076-.01 15.709-1.59 19.942-3.142 2.154-.794 3.786-1.611 4.821-2.203.534-.306.954-.575 1.215-.752a11.303 11.303 0 0 0 .41-.293l.027-.022.01-.007.003-.003.002-.001s.002-.001-.93-1.177zM25.3 75c-8.723.01-14.787-1.46-18.802-2.956-1.97-.73-3.348-1.435-4.293-1.987-.456-.265-.768-.47-.992-.626a6.449 6.449 0 0 1-.266-.194l-.006-.005.002.001.001.001.001.001S.946 69.236 0 70.4a123.412 123.412 0 0 0-.944 1.166l.004.003.01.008a3.217 3.217 0 0 0 .116.09c.067.05.179.132.315.227.256.177.668.448 1.194.755 1.017.593 2.627 1.412 4.757 2.207C9.637 76.41 16.223 77.99 25.3 78v-3zM1.5 70.4V0h-3v70.4h3zM0 1.5h50.8v-3H0v3zM49.3 0v70.4h3V0h-3z"/><path id="h" d="M4.2 15c4.1 0 7.5-3.3 7.5-7.5C11.7 3.4 8.4 0 4.2 0H0v15h4.2z"/><path id="i" d="M0 0v-1.5A1.5 1.5 0 0 0-1.5 0H0zm0 15h-1.5A1.5 1.5 0 0 0 0 16.5V15zm4.2 1.5c4.915 0 9-3.959 9-9h-3c0 3.358-2.715 6-6 6v3zm9-9c0-4.915-3.959-9-9-9v3c3.359 0 6 2.715 6 6h3zm-9-9H0v3h4.2v-3zM-1.5 0v15h3V0h-3zM0 16.5h4.2v-3H0v3z"/><path id="j" d="M0 0v45.9c0 37.8 26.2 50.9 33 53.4 9.2 3.4 20.1 4.4 28.4-1.7 7.1-5.2 11.7-13.2 14.4-21.4 2.4-7.4 3.4-15.3 3.4-23.1V0H0z"/><path id="k" d="M33 99.3l.52-1.407h-.002L33 99.3zm28.4-1.7l-.886-1.21-.002.001.888 1.209zm14.4-21.4l1.425.47.002-.007L75.8 76.2zM79.2 0h1.5v-1.5h-1.5V0zM-1.5 0v45.9h3V0h-3zm0 45.9c0 38.692 26.885 52.199 33.982 54.808l1.036-2.816C27.015 95.502 1.5 82.808 1.5 45.9h-3zm33.98 54.807c9.384 3.468 20.905 4.645 29.808-1.898l-1.776-2.418c-7.696 5.657-17.976 4.834-26.992 1.502l-1.04 2.814zm29.806-1.897c7.437-5.447 12.18-13.762 14.939-22.14l-2.85-.94c-2.64 8.022-7.098 15.707-13.861 20.66l1.772 2.42zm14.94-22.147c2.438-7.536 3.471-15.669 3.474-23.563h-3c.003 7.706-.964 15.373-3.327 22.637l2.854.926zM80.7 53.1V0h-3v53.1h3zM79.2-1.5H0v3h79.2v-3z"/><path id="l" d="M0 20.7h6.3c2.9 0 5.2-2.3 5.2-5.2 0-2.9-2.3-5.2-5.2-5.2H3.8V0"/><path id="m" d="M0 19.2a1.5 1.5 0 1 0 0 3v-3zm3.8-8.9H2.3a1.5 1.5 0 0 0 1.5 1.5v-1.5zM5.3 0a1.5 1.5 0 1 0-3 0h3zM0 22.2h6.3v-3H0v3zm6.3 0c3.728 0 6.7-2.971 6.7-6.7h-3c0 2.072-1.628 3.7-3.7 3.7v3zm6.7-6.7c0-3.728-2.972-6.7-6.7-6.7v3c2.072 0 3.7 1.628 3.7 3.7h3zM6.3 8.8H3.8v3h2.5v-3zm-1 1.5V0h-3v10.3h3z"/><path id="n" d="M6 3c0 1.7-1.3 3-3 3S0 4.6 0 3c0-1.7 1.4-3 3-3 1.7 0 3 1.3 3 3z"/><path id="o" d="M4.5 3c0 .872-.628 1.5-1.5 1.5v3c2.528 0 4.5-1.972 4.5-4.5h-3zM3 4.5c-.84 0-1.5-.696-1.5-1.5h-3C-1.5 5.396.44 7.5 3 7.5v-3zM1.5 3c0-.84.696-1.5 1.5-1.5v-3C.604-1.5-1.5.44-1.5 3h3zM3 1.5c.872 0 1.5.628 1.5 1.5h3C7.5.472 5.528-1.5 3-1.5v3z"/><path id="p" d="M0-1.5a1.5 1.5 0 1 0 0 3v-3zm18 3a1.5 1.5 0 0 0 0-3v3zm-18 0h18v-3H0v3z"/><path id="q" d="M6 3c0 1.7-1.3 3-3 3S0 4.6 0 3c0-1.7 1.4-3 3-3s3 1.3 3 3z"/><path id="r" d="M4.5 3c0 .872-.628 1.5-1.5 1.5v3c2.528 0 4.5-1.972 4.5-4.5h-3zM3 4.5c-.84 0-1.5-.696-1.5-1.5h-3C-1.5 5.396.44 7.5 3 7.5v-3zM1.5 3c0-.84.696-1.5 1.5-1.5v-3C.604-1.5-1.5.44-1.5 3h3zM3 1.5c.804 0 1.5.66 1.5 1.5h3C7.5.44 5.396-1.5 3-1.5v3z"/><path id="s" d="M0-1.5a1.5 1.5 0 1 0 0 3v-3zm16 3a1.5 1.5 0 0 0 0-3v3zm-16 0h16v-3H0v3z"/><path id="t" d="M0-1.5a1.5 1.5 0 0 0 0 3v-3zm25.8 3a1.5 1.5 0 0 0 0-3v3zM0 1.5h25.8v-3H0v3z"/><path id="u" d="M0-1.5a1.5 1.5 0 0 0 0 3v-3zm22.8 3a1.5 1.5 0 1 0 0-3v3zM0 1.5h22.8v-3H0v3z"/><path id="v" d="M97.2 26.4s-9.9-2.8-17.9-12.6C74 6.3 63.8 0 44.5 0 33.4 0 20.7 0 18.2 14 4.1 12.4 0 23.9 0 29.6v17.8c0 5.7 5 23.7 5 23.7S16.5 67 16.5 51.3V46c1-5.7 6-6.4 7.8-6.5h.6s9.7.7 11.4-8.8v-2.9 2.9c1.7 9.5 11.5 8.8 11.5 8.8h36.3v-.1c7.2.1 13.1-5.8 13.1-13z"/><path id="w" d="M97.2 26.4h1.5a1.5 1.5 0 0 0-1.092-1.443L97.2 26.4zM79.3 13.8l-1.225.866c.02.028.041.056.063.083L79.3 13.8zm-61.1.2l-.17 1.49a1.5 1.5 0 0 0 1.647-1.226L18.2 14zM5 71.1l-1.445.401a1.5 1.5 0 0 0 1.949 1.012L5 71.1zM16.5 46l-1.477-.26A1.492 1.492 0 0 0 15 46h1.5zm7.8-6.5V38c-.028 0-.056 0-.083.002L24.3 39.5zm.6 0l.108-1.496A1.497 1.497 0 0 0 24.9 38v1.5zm11.4-8.8l1.477.264a1.5 1.5 0 0 0 .023-.264h-1.5zm1.5-2.9a1.5 1.5 0 0 0-3 0h3zm-1.5 2.9h-1.5c0 .089.008.177.023.264L36.3 30.7zm11.5 8.8V38c-.036 0-.071.001-.107.004L47.8 39.5zm36.3 0V41a1.5 1.5 0 0 0 1.5-1.5h-1.5zm0-.1l.02-1.5a1.5 1.5 0 0 0-1.52 1.5h1.5zm13.1-13a246.29 246.29 0 0 1 .41-1.443h-.001l-.013-.004-.068-.02a22.626 22.626 0 0 1-1.449-.518 34.595 34.595 0 0 1-4.102-1.952c-3.406-1.884-7.655-4.86-11.515-9.612l-2.324 1.898a43.52 43.52 0 0 0 12.385 10.338 38.959 38.959 0 0 0 4.455 2.118c.551.217 1.007.378 1.306.478a17.406 17.406 0 0 0 .463.147l.03.009a.391.391 0 0 0 .009.003h.003l.002.001.409-1.443zM80.525 12.934C74.873 4.936 64.15-1.5 44.5-1.5v3c18.95 0 28.627 6.164 33.575 13.166l2.45-1.732zM44.5-1.5c-5.48 0-11.713-.017-16.882 1.838-5.346 1.92-9.544 5.835-10.895 13.398l2.954.528c1.15-6.437 4.551-9.521 8.955-11.102C33.213 1.517 38.88 1.5 44.5 1.5v-3zM18.37 12.51c-7.543-.856-12.597 1.81-15.716 5.6C-.392 21.81-1.5 26.466-1.5 29.6h3c0-2.567.942-6.511 3.47-9.584 2.457-2.985 6.503-5.27 13.06-4.526l.34-2.98zM-1.5 29.6v17.8h3V29.6h-3zm0 17.8c0 3.066 1.305 9.183 2.541 14.337a318.918 318.918 0 0 0 2.499 9.71l.01.04.004.01v.004L5 71.1l1.445-.402v-.002l-.003-.01-.01-.037a116.423 116.423 0 0 1-.2-.727 314.37 314.37 0 0 1-2.274-8.885C2.696 55.768 1.5 50.035 1.5 47.4h-3zM5 71.1a111.187 111.187 0 0 0 .508 1.412l.005-.002.013-.005.038-.014c.026-.01.073-.028.125-.05.094-.037.248-.102.425-.182.336-.153.854-.409 1.44-.75a20.638 20.638 0 0 0 4.277-3.381C14.958 64.878 18 59.56 18 51.3h-3c0 7.439-2.708 12.022-5.33 14.747a16.273 16.273 0 0 1-3.63 2.872 12.297 12.297 0 0 1-1.47.74 3.454 3.454 0 0 1-.079.03h.002l.002-.001L5 71.1zm13-19.8v-3h-3v3h3zm0-3v-.1h-3v.1h3zm0-.1V46h-3v2.2h3zm-.023-1.94c.416-2.371 1.617-3.604 2.858-4.303 1.33-.78 2.694-.913 3.548-.96l-.166-2.995c-.946.054-2.981.322-4.852 1.34-1.959 1.102-3.758 3.07-4.342 6.399l2.954.518zM24.3 41h.6v-3h-.6v3zm.6-1.5a136.64 136.64 0 0 0-.106 1.496h.006a.6.6 0 0 1 .01.001l.034.002a8.857 8.857 0 0 0 .473.012c.289.001.742-.011 1.257-.056a15.393 15.393 0 0 0 3.926-.892c3.029-1.163 6.317-3.735 7.276-9.099l-2.953-.528c-.74 4.136-3.152 5.964-5.398 6.826a11.022 11.022 0 0 1-3.115.705 10.366 10.366 0 0 1-1.298.037h-.009.003c.001 0 .002 0-.106 1.496zm12.9-8.8v-2.9h-3v2.9h3zm-3-2.9v2.9h3v-2.9h-3zm.023 3.164c.961 5.37 4.281 7.94 7.331 9.1 1.475.553 2.956.803 3.957.891.52.045.976.057 1.268.056a10.799 10.799 0 0 0 .476-.012l.033-.002h.017c.001 0 .002 0-.105-1.497l-.106-1.496h.003s.001 0 0 0h-.009l-.057.003a10.638 10.638 0 0 1-1.258-.04 11.254 11.254 0 0 1-3.152-.706c-2.275-.866-4.705-2.695-5.444-6.825l-2.954.528zM47.8 41h36.3v-3H47.8v3zm36.3-1.5h1.5v-.002-.01-.088h-3V39.5h1.5zm-.02 1.4c8.048.112 14.62-6.476 14.62-14.5h-3c0 6.376-5.228 11.588-11.58 11.5l-.04 3z"/><path id="x" d="M0 0h30.8"/><path id="y" d="M0-1.5a1.5 1.5 0 0 0 0 3v-3zm30.8 3a1.5 1.5 0 0 0 0-3v3zM0 1.5h15.9v-3H0v3zm15.9 0h14.9v-3H15.9v3z"/><path id="z" d="M0 0h22s-2.3 7.6-9.4 7.6C5.5 7.6 0 0 0 0z"/><path id="A" d="M0 0v-1.5h-2.937L-1.215.88 0 0zm22 0l1.436.434.585-1.934H22V0zm-9.4 7.6v1.5-1.5zM0 1.5h22v-3H0v3zM22 0c-1.436-.434-1.436-.435-1.435-.436v-.002l-.001.006a10.223 10.223 0 0 1-.398.995c-.306.67-.732 1.472-1.392 2.322C17.488 4.555 15.534 6.1 12.6 6.1v3c4.167 0 6.912-2.255 8.551-4.385a15.885 15.885 0 0 0 1.742-2.903c.18-.392.319-.742.401-.966a10.33 10.33 0 0 0 .129-.37L23.43.45a.478.478 0 0 0 .003-.01V.438l.001-.001S23.435.434 22 0zm-9.4 6.1c-3.029 0-5.84-1.636-7.998-3.449a22.898 22.898 0 0 1-3.341-3.47 5.607 5.607 0 0 1-.039-.05l-.007-.01-.001-.002a.075.075 0 0 1 0 .001L0 0l-1.215.88.001.001.002.003.005.007a6.857 6.857 0 0 0 .073.098c.046.06.118.155.207.268.172.217.44.544.77.921a27.29 27.29 0 0 0 2.83 2.77C5.04 6.937 8.529 9.1 12.6 9.1v-3z"/><path id="B" d="M7.5 0C3.4 0 0 3.3 0 7.5 0 11.6 3.3 15 7.5 15h4.2V0H7.5z"/><path id="C" d="M13.2 18H9c-4.9 0-9-4-9-9s4-9 9-9h4.2v3H9C5.7 3 3 5.7 3 9s2.7 6 6 6h4.2v3z"/><path id="D" d="M0-1.5a1.5 1.5 0 1 0 0 3v-3zm16.6 15.2a1.5 1.5 0 1 0 3 0h-3zM0 1.5c2.747-.004 6.913.552 10.484 2.475 3.46 1.838 6.116 4.82 6.116 9.725h3c0-6.296-3.545-10.163-7.709-12.375C7.837-.802 2.953-1.496 0-1.5v3z"/><path id="E" d="M13 1.519a1.5 1.5 0 0 0 0-3v3zm-9 .5L3.168.77 4 2.019zm-5.423 7.526a1.5 1.5 0 0 0 2.846.948l-2.846-.948zM13-1.481C10.75-1.48 7.177-1.792 3.168.77l1.664 2.496c3.052-2.143 5.75-1.75 8.168-1.748v-3zM3.168.77C1.398 2 .301 3.898-.286 5.509c-.582 1.63-.836 3.148-1.137 4.036l2.846.948c.366-1.113.612-2.595 1.113-3.965.496-1.388 1.067-2.492 2.296-3.261L3.168.771z"/><path id="F" d="M-1.233 6.395a1.25 1.25 0 1 0 2.466.41l-2.466-.41zM4.127.937A1.25 1.25 0 1 0 2.473-.937L4.127.937zM1.233 6.806C1.697 4.019 2.69 2.205 4.127.937L2.473-.937C.51.795-.697 3.182-1.233 6.395l2.466.41z"/><path id="G" d="M-.223-.662a1.5 1.5 0 0 0 .446 2.967L-.223-.662zM47 18.322l.854-1.233L47 18.322zm9.943 7.393a1.5 1.5 0 0 0 1.114-2.786l-1.114 2.786zM.223 2.305c3.286-.493 8.699-.959 14.425-.76 5.756.199 11.576 1.066 15.681 3.118l1.342-2.683C26.976-.367 20.629-1.25 14.75-1.452c-5.906-.2-11.593.284-14.974.79l.446 2.967zm30.106 2.358c5.262 2.631 7.457 5.088 9.144 7.414 1.753 2.411 3.154 4.99 6.673 7.478l1.708-2.466c-2.981-2.012-4.08-4.184-5.952-6.773C39.964 7.643 37.409 4.85 31.67 1.98l-1.342 2.683zm15.817 14.892c5.29 3.657 8.24 5.135 10.797 6.16l1.114-2.786c-2.443-.976-5.093-2.298-10.203-5.84l-1.708 2.466z"/></defs></svg>