<svg width="149" height="148" viewBox="0 0 149 148" version="1.1" xmlns="http://www.w3.org/2000/svg" xmlns:xlink="http://www.w3.org/1999/xlink"><title>checkov</title><desc>Created using Figma</desc><use xlink:href="#a" fill="#F2F2F2"/><g transform="translate(55.47 113.57)"><use xlink:href="#b" fill="#FFF"/><use xlink:href="#c" fill="#333"/></g><g transform="translate(55.47 72.31)"><use xlink:href="#d" fill="#FFF"/><use xlink:href="#e" fill="#333"/></g><g transform="translate(97.4 61.7)"><use xlink:href="#f" fill="#FFF"/><use xlink:href="#g" fill="#333"/></g><g transform="translate(50.47 40.79)"><use xlink:href="#h" fill="#FFF"/><use xlink:href="#i" fill="#333"/></g><g transform="translate(80.67 61.57)"><use xlink:href="#j" fill="#FFF"/><use xlink:href="#k" fill="#333"/></g><g transform="translate(68.17 59.26)"><use xlink:href="#l" fill="#FFF"/><use xlink:href="#m" fill="#333"/></g><use xlink:href="#n" transform="translate(64.26 59.26)" fill="#333"/><g transform="translate(93.8 59.26)"><use xlink:href="#o" fill="#FFF"/><use xlink:href="#p" fill="#333"/></g><use xlink:href="#q" transform="translate(89.9 59.26)" fill="#333"/><use xlink:href="#r" transform="translate(61.82 55.36)" fill="#333"/><use xlink:href="#s" transform="translate(86.56 55.36)" fill="#333"/><g transform="translate(47.27 23)"><use xlink:href="#t" fill="#BDBDBD"/><use xlink:href="#u" fill="#333"/></g><g transform="translate(72.01 83.87)"><use xlink:href="#v" fill="#FFF"/><use xlink:href="#w" fill="#333"/></g><g transform="translate(75.15 83.87)"><use xlink:href="#x" fill="#FFF"/><use xlink:href="#y" fill="#333"/></g><g><use xlink:href="#z" transform="translate(44.96 61.7)" fill="#FFF"/><use xlink:href="#A" transform="translate(44 60.74)" fill="#333"/></g><g><use xlink:href="#B" transform="translate(58.94 32.03)" fill="#333"/><use xlink:href="#C" transform="translate(50.22 35.33)" fill="#333"/><use xlink:href="#D" transform="translate(62.08 28.38)" fill="#333"/><use xlink:href="#E" transform="translate(68.81 26.16)" fill="#333"/></g><defs><path id="a" d="M148.1 74c0 40.869-33.153 74-74.05 74S0 114.869 0 74C0 33.13 33.153 0 74.05 0s74.05 33.13 74.05 74z"/><path id="b" d="M32.563 4.485s-4.936 3.908-16.346 3.908S0 4.485 0 4.485v-.577S4.936 0 16.346 0s16.217 3.908 16.217 3.908v.577z"/><path id="c" d="M32.563 4.485l3.104 3.92a5 5 0 0 0 1.896-3.92h-5zM0 4.485h-5a5 5 0 0 0 1.846 3.88L0 4.485zm0-.577l-3.104-3.92A5 5 0 0 0-5 3.908h5zm32.563 0h5a5 5 0 0 0-1.846-3.88l-3.154 3.88zm0 .577C29.459.565 29.46.563 29.463.562l.004-.004.008-.006.015-.011.024-.02.029-.02c.01-.008.002-.002-.025.016-.053.037-.181.12-.386.238-.409.233-1.13.602-2.187.99-2.105.773-5.607 1.648-10.728 1.648v10c6.29 0 10.96-1.08 14.176-2.26a24.484 24.484 0 0 0 3.701-1.697c.437-.249.784-.47 1.045-.648a10.714 10.714 0 0 0 .519-.376l.004-.004c.002-.002.005-.003-3.1-3.923zM16.217 3.393c-5.12 0-8.584-.874-10.645-1.64-1.036-.386-1.735-.75-2.126-.978a5.54 5.54 0 0 1-.363-.228L3.065.535a2.151 2.151 0 0 1 .072.057l.008.006.005.004c.002.001.004.003-3.15 3.883s-3.152 3.881-3.15 3.883a3.36 3.36 0 0 1 .082.065 7.991 7.991 0 0 0 .443.325c.26.181.605.406 1.038.658.866.505 2.082 1.118 3.675 1.71 3.195 1.188 7.84 2.267 14.13 2.267v-10zM5 4.485v-.577H-5v.577H5zm-5-.577c3.104 3.92 3.102 3.922 3.1 3.924l-.005.003-.008.006a2.907 2.907 0 0 1-.067.052c-.01.007-.002 0 .025-.017.053-.037.18-.12.386-.238.409-.233 1.13-.602 2.187-.99C7.722 5.875 11.225 5 16.346 5V-5C10.056-5 5.386-3.92 2.17-2.74a24.48 24.48 0 0 0-3.702 1.697 15.9 15.9 0 0 0-1.044.648 10.832 10.832 0 0 0-.51.369l-.01.007a2.426 2.426 0 0 1-.004.004c-.002.002-.004.003 3.1 3.923zM16.346 5c5.12 0 8.584.875 10.644 1.64 1.036.386 1.735.75 2.127.978.196.114.316.195.363.228l.017.012a1.693 1.693 0 0 1-.056-.044l-.015-.012-.009-.007-.004-.004c-.002-.001-.004-.003 3.15-3.883S35.714.027 35.713.025c-.002 0-.004-.003-.005-.004l-.01-.008a2.93 2.93 0 0 0-.067-.053 10.54 10.54 0 0 0-.443-.325c-.26-.181-.605-.406-1.038-.658-.867-.505-2.083-1.118-3.675-1.71C27.28-3.92 22.635-5 16.345-5V5zm11.217-1.092v.577h10v-.577h-10z"/><path id="d" d="M32.563 45.105s-4.936 3.908-16.346 3.908S0 45.105 0 45.105V0h32.563v45.105z"/><path id="e" d="M32.563 45.105l.62.784a1 1 0 0 0 .38-.784h-1zM0 45.105h-1a1 1 0 0 0 .37.776l.63-.776zM0 0v-1a1 1 0 0 0-1 1h1zm32.563 0h1a1 1 0 0 0-1-1v1zm0 45.105c-.621-.784-.62-.784-.62-.785l.002-.001-.003.002a2.986 2.986 0 0 1-.176.125 9.885 9.885 0 0 1-.649.401c-.595.34-1.518.805-2.793 1.273-2.55.936-6.519 1.893-12.107 1.893v2c5.822 0 10.025-.998 12.797-2.015 1.384-.509 2.408-1.021 3.095-1.414a11.888 11.888 0 0 0 .988-.63 4.09 4.09 0 0 0 .058-.043l.018-.014.006-.005.003-.002c.001 0 .002-.001-.62-.785zm-16.346 2.908c-5.588 0-9.524-.957-12.039-1.892-1.258-.467-2.164-.931-2.745-1.27a9.465 9.465 0 0 1-.775-.501 1.693 1.693 0 0 1-.03-.024l.001.002H.63l-.63.777a78.696 78.696 0 0 0-.629.777l.003.002.006.005.018.014.057.044c.048.036.116.086.203.147.175.121.43.288.768.486.677.394 1.686.907 3.055 1.416 2.742 1.02 6.915 2.017 12.736 2.017v-2zM1 45.105V0h-2v45.105h2zM0 1h32.563v-2H0v2zm31.563-1v45.105h2V0h-2z"/><path id="f" d="M2.692 9.61A4.8 4.8 0 0 0 7.5 4.805 4.8 4.8 0 0 0 2.692 0H0v9.61h2.692z"/><path id="g" d="M0 0v-1a1 1 0 0 0-1 1h1zm0 9.61h-1a1 1 0 0 0 1 1v-1zm2.692 1c3.171 0 5.808-2.553 5.808-5.805h-2A3.8 3.8 0 0 1 2.692 8.61v2zM8.5 4.805A5.8 5.8 0 0 0 2.692-1v2A3.8 3.8 0 0 1 6.5 4.805h2zM2.692-1H0v2h2.692v-2zM-1 0v9.61h2V0h-2zm1 10.61h2.692v-2H0v2z"/><path id="h" d="M0 0v29.408C0 53.626 16.794 62.019 21.153 63.62c5.897 2.178 12.884 2.819 18.204-1.09 4.551-3.331 7.5-8.457 9.23-13.71 1.54-4.741 2.18-9.803 2.18-14.8V0H0z"/><path id="i" d="M21.153 63.62l.347-.937h-.002l-.345.938zm18.204-1.088l-.59-.807h-.002l.592.807zm9.23-13.711l.95.313.002-.005-.951-.308zM50.768 0h1v-1h-1v1zM-1 0v29.408h2V0h-2zm0 29.408c0 24.813 17.251 33.477 21.808 35.151l.69-1.877C17.338 61.153 1 53.032 1 29.408h-2zm21.806 35.15c6.02 2.224 13.42 2.983 19.143-1.22l-1.184-1.612c-4.918 3.612-11.49 3.09-17.265.957l-.694 1.876zm19.142-1.22c4.776-3.496 7.82-8.831 9.59-14.204l-1.9-.626c-1.691 5.134-4.545 10.05-8.871 13.217l1.181 1.614zm9.59-14.209c1.578-4.86 2.23-10.028 2.23-15.108h-2c0 4.915-.632 9.869-2.132 14.491l1.903.617zm2.23-15.108V0h-2v34.02h2zM50.767-1H0v2h50.767v-2z"/><path id="j" d="M0 13.262h4.038a3.31 3.31 0 0 0 3.334-3.331 3.31 3.31 0 0 0-3.334-3.332H2.436V0"/><path id="k" d="M0 12.262a1 1 0 1 0 0 2v-2zM2.436 6.6h-1a1 1 0 0 0 1 1v-1zm1-6.599a1 1 0 1 0-2 0h2zM0 14.262h4.038v-2H0v2zm4.038 0a4.31 4.31 0 0 0 4.334-4.331h-2a2.31 2.31 0 0 1-2.334 2.331v2zm4.334-4.331a4.31 4.31 0 0 0-4.334-4.332v2a2.31 2.31 0 0 1 2.334 2.332h2zM4.038 5.599H2.436v2h1.602v-2zm-.602 1V0h-2v6.6h2z"/><path id="l" d="M3.846 1.922c0 1.09-.833 1.922-1.923 1.922A1.928 1.928 0 0 1 0 1.922C0 .832.897 0 1.923 0c1.09 0 1.923.833 1.923 1.922z"/><path id="m" d="M2.846 1.922c0 .537-.385.922-.923.922v2a2.888 2.888 0 0 0 2.923-2.922h-2zm-.923.922A.928.928 0 0 1 1 1.922h-2C-1 3.478.26 4.844 1.923 4.844v-2zM1 1.922C1 1.407 1.427 1 1.923 1v-2C.367-1-1 .259-1 1.922h2zM1.923 1c.538 0 .923.386.923.922h2A2.888 2.888 0 0 0 1.923-1v2z"/><path id="n" d="M0-1a1 1 0 1 0 0 2v-2zm11.538 2a1 1 0 1 0 0-2v2zM0 1h11.538v-2H0v2z"/><path id="o" d="M3.846 1.922c0 1.09-.833 1.922-1.923 1.922A1.928 1.928 0 0 1 0 1.922C0 .832.897 0 1.923 0s1.923.833 1.923 1.922z"/><path id="p" d="M2.846 1.922c0 .537-.385.922-.923.922v2a2.888 2.888 0 0 0 2.923-2.922h-2zm-.923.922A.928.928 0 0 1 1 1.922h-2C-1 3.478.26 4.844 1.923 4.844v-2zM1 1.922C1 1.407 1.427 1 1.923 1v-2C.367-1-1 .259-1 1.922h2zM1.923 1c.496 0 .923.407.923.922h2C4.846.26 3.479-1 1.923-1v2z"/><path id="q" d="M0-1a1 1 0 1 0 0 2v-2zm10.256 2a1 1 0 1 0 0-2v2zM0 1h10.256v-2H0v2z"/><path id="r" d="M0-1a1 1 0 1 0 0 2v-2zm16.538 2a1 1 0 1 0 0-2v2zM0 1h16.538v-2H0v2z"/><path id="s" d="M0-1a1 1 0 1 0 0 2v-2zm14.615 2a1 1 0 1 0 0-2v2zM0 1h14.615v-2H0v2z"/><path id="t" d="M62.305 16.914S55.96 15.12 50.831 8.842C47.434 4.036 40.896 0 28.524 0 21.41 0 13.27 0 11.666 8.97 2.628 7.945 0 15.312 0 18.965a36608088984505880 36608088984505880 0 0 1 3.205 26.588s7.371-2.627 7.371-12.685V29.47c.641-3.651 3.846-4.1 5-4.164h.385s6.218.449 7.307-5.638v-1.858 1.858c1.09 6.087 7.372 5.638 7.372 5.638h23.268v-.064c4.615.064 8.397-3.716 8.397-8.329z"/><path id="u" d="M62.305 16.914h1a1 1 0 0 0-.728-.962l-.272.962zM50.831 8.842l-.816.577a.987.987 0 0 0 .042.055l.774-.632zm-39.165.128l-.113.993a1 1 0 0 0 1.098-.817l-.985-.176zM3.205 45.553l-.964.268a1 1 0 0 0 1.3.674l-.336-.942zm7.371-16.081l-.984-.173a1 1 0 0 0-.016.173h1zm5-4.165v-1c-.018 0-.037 0-.055.002l.055.998zm.385 0l.072-.997a.958.958 0 0 0-.072-.003v1zm7.307-5.638l.985.177c.01-.059.015-.118.015-.177h-1zm1-1.858a1 1 0 0 0-2 0h2zm-1 1.858h-1c0 .06.005.118.016.177l.984-.177zm7.372 5.638v-1l-.072.003.072.997zm23.268 0v1a1 1 0 0 0 1-1h-1zm0-.064l.014-1a1 1 0 0 0-1.014 1h1zm8.397-8.329l.273-.962-.009-.002a14.953 14.953 0 0 1-.97-.344 22.574 22.574 0 0 1-2.624-1.248 25.494 25.494 0 0 1-7.37-6.149l-1.548 1.265a27.49 27.49 0 0 0 7.95 6.633c1.156.64 2.15 1.08 2.86 1.36a16.886 16.886 0 0 0 1.072.382c.027.008.05.014.065.02l.02.005.005.002h.003l.273-.962zm-10.657-8.65C48.016 3.127 41.128-1 28.524-1v2c12.139 0 18.328 3.946 21.49 8.419l1.634-1.155zM28.524-1c-3.51 0-7.513-.011-10.834 1.18-1.686.605-3.233 1.53-4.468 2.947-1.237 1.419-2.113 3.275-2.54 5.667l1.969.352c.374-2.094 1.116-3.6 2.079-4.705.964-1.106 2.197-1.862 3.636-2.379C21.296 1.012 24.92 1 28.525 1v-2zM11.78 7.976c-4.847-.55-8.1 1.163-10.107 3.602C-.288 13.958-1 16.95-1 18.965h2c0-1.637.602-4.155 2.216-6.116 1.566-1.902 4.146-3.361 8.337-2.886l.226-1.987zM-1 18.965V30.369h2v-.022-.021-.021-.022-.021-.022-.021-.022-.021-.022-.021-.022-.021-.022-.021-.022-.021-.022-.022-.021-.022-.021-.022-.022-.021-.022-.021-.022-.022-.022-.021-.022-.022-.021-.022-.022-.022-.021-.022-.022-.022-.021-.022-.022-.022-.022-.021-.022-.022-.022-.022-.022-.022-.022-.022-.021-.022-.022-.022-.022-.022-.022-.022-.022-.022-.022-.022-.022-.022-.022-.022-.022-.022-.022-.022-.022-.022-.022-.022-.022-.023-.022-.022-.022-.022-.022-.022-.022-.023-.022-.022-.022-.022-.022-.023-.022-.022-.022-.022-.023-.022-.022-.022-.023-.022-.022-.022-.023-.022-.022-.023-.022-.022-.022-.023-.022-.022-.023-.022-.022-.023-.022-.022-.023-.022-.022-.023-.022-.023-.022-.022-.023-.022-.023-.022-.022-.023-.022-.023-.022-.023-.022-.022-.023-.022-.023-.022-.023-.022-.023-.022-.023V27v-.023-.022-.023-.022-.023-.022-.023-.022-.023-.023-.022-.023-.022-.023-.022-.023-.022-.023-.023-.022-.023-.022-.023-.022-.023-.023-.022-.023-.022-.023-.023-.022-.023-.022-.023-.023-.022-.023-.022-.023-.023-.022-.023-.023-.022-.023-.023-.022-.023-.023-.022-.023-.023-.022-.023-.023-.022-.023-.023-.022-.023-.023-.022-.023-.023-.022-.023-.023-.022-.023-.023-.023-.022-.023-.023-.022-.023-.023-.022-.023-.023-.023-.022-.023-.023-.022-.023-.023-.022-.023-.023-.023-.022-.023-.023-.022-.023-.023-.023-.022-.023-.023-.022-.023-.023-.022-.023-.023-.023-.022-.023-.023-.023-.022-.023-.023-.022-.023-.023-.022-.023-.023-.023-.022-.023-.023-.022-.023-.023-.022-.023-.023-.023-.022-.023-.023-.022-.023-.023-.022-.023-.023-.022-.023-.023-.022-.023-.023-.022-.023-.023-.022-.023-.023-.022-.023-.023-.022-.023-.023-.022-.023-.023-.022-.023-.023-.022-.023-.022-.023-.023-.022-.023-.023-.022-.023-.022-.023-.023-.022-.023-.022-.023-.023-.022-.023-.022-.023-.022-.023-.022-.023-.023-.022-.023-.022-.023-.022-.023-.022-.023-.022-.023-.022-.023-.022-.023-.022-.023-.022-.023-.022-.023-.022-.023-.022-.023-.022-.023-.022-.022-.023-.022-.023-.022-.023-.022-.022-.023-.022-.023-.022-.022-.023-.022-.022-.023-.022-.022-.023-.022-.022-.023-.022-.022-.023-.022-.022-.022-.023-.022-.022-.023-.022-.022-.022-.023-.022-.022-.022-.022-.023-.022-.022-.022-.022-.023-.022-.022-.022-.022-.022-.023-.022-.022-.022-.022-.022-.022-.022-.022-.022-.023-.022-.022-.022-.022-.022-.022-.022-.022-.022-.022-.022-.022-.022-.022-.022-.022-.021-.023-.021-.022-.022-.022-.022-.022-.022-.022-.021-.022-.022-.022-.022-.022-.021-.022-.022-.022-.022-.021-.022-.022-.022-.021-.022-.022-.021-.022-.022-.021-.022-.022-.021-.022-.022-.021-.022-.021-.022-.022-.021-.022-.021-.022-.021-.022-.021-.022-.021-.022-.021-.022-.021-.022-.021-.022-.021-.021h-2zm0 11.404c0 1.015.217 2.502.518 4.098.305 1.618.71 3.42 1.112 5.097a203.839 203.839 0 0 0 1.602 6.222l.007.026.002.007v.001l.964-.267.963-.268v-.001c0-.002 0-.004-.002-.006l-.006-.024a74.187 74.187 0 0 1-.128-.466 201.767 201.767 0 0 1-1.457-5.691 107.766 107.766 0 0 1-1.092-5C1.183 32.503 1 31.179 1 30.369h-2zm4.205 15.184l.337.942h.001l.003-.002.009-.003a2.46 2.46 0 0 0 .106-.04 10.249 10.249 0 0 0 1.2-.6 12.81 12.81 0 0 0 2.75-2.174c2.011-2.089 3.965-5.505 3.965-10.809h-2c0 4.756-1.731 7.683-3.406 9.422a10.814 10.814 0 0 1-2.317 1.833 8.275 8.275 0 0 1-.938.471 1.8 1.8 0 0 1-.043.017l-.006.003.001-.001h.001l.337.941zm8.371-12.685v-1.923h-2v1.922h2zm0-1.923v-.064h-2v.064h2zm0-.064v-1.41h-2v1.41h2zm-.015-1.236c.265-1.506 1.027-2.287 1.813-2.73.831-.466 1.743-.58 2.258-.61l-.111-1.996c-.639.035-1.907.177-3.127.863-1.265.712-2.426 1.981-2.802 4.127l1.97.346zm4.015-3.338H15.96v-2h-.001-.003-.003-.003-.003-.003-.003-.003-.003-.003-.003-.003-.003-.003-.003-.003-.003-.003-.001-.003-.003-.003-.003-.003-.003-.003-.003-.003-.003-.003-.003-.003-.003-.003-.003-.003-.003-.003-.003-.003-.003-.003-.003-.003-.003-.003-.003-.003-.003-.003-.003-.003-.003-.003-.003-.003-.003-.003-.003-.003-.003-.003-.003-.003-.003-.003-.003-.003-.003-.003-.001-.003-.003-.003-.003-.003-.003-.003-.003-.003-.003-.003-.003-.003-.003-.003-.003-.003-.003-.003-.003-.003-.003-.003-.003-.003-.003-.003-.003-.003-.003-.003-.003-.003-.003-.003-.003-.003-.003-.003-.003-.003-.003-.003-.003-.003-.003-.003-.003-.003-.003-.003-.001-.003-.003-.003-.003-.003-.003-.003-.001v2zm.385-1l-.071.998h.011l.022.002.069.003c.057.002.137.005.236.005a9.448 9.448 0 0 0 3.336-.61c1.952-.75 4.07-2.407 4.689-5.86l-1.97-.352c-.47 2.634-2.006 3.796-3.435 4.344a7.449 7.449 0 0 1-2.819.473h.002c.001 0 .002 0-.07.997zm8.307-5.638v-1.858h-2v1.858h2zm-2-1.858v1.858h2v-1.858h-2zm.016 2.035c.619 3.456 2.758 5.113 4.723 5.86a9.593 9.593 0 0 0 3.692.6h.007l.003-.001c.002 0 .002 0-.07-.998l-.07-.997h-.003l-.036.002c-.035.001-.09.003-.165.003a7.597 7.597 0 0 1-2.648-.479c-1.447-.55-2.994-1.713-3.464-4.343l-1.97.353zm8.356 6.461h23.268v-2H30.64v2zm23.268-1h1v-.001-.001-.001-.001-.001-.001-.001-.001-.001-.001-.001-.001-.001-.001-.001-.001-.001-.001-.001-.001-.001-.001-.001-.001-.001-.001-.001-.001-.001-.001-.001-.001-.001-.001-.001-.001-.001-.001-.001-.001-.001-.001-.001-.001-.001-.001-.001-.001-.001-.001-.001-.001-.001-.001-.001-.001-.001-.001-.001-.001-.001-.001-.001h-2V25.308h1zm-.014.936c5.18.072 9.411-4.166 9.411-9.329h-2c0 4.063-3.333 7.386-7.383 7.33l-.028 2z"/><path id="v" d="M0 0h19.742"/><path id="w" d="M0-1a1 1 0 1 0 0 2v-2zm19.743 2a1 1 0 1 0 0-2v2zM0 1h10.192v-2H0v2zm10.192 0h9.55v-2h-9.55v2z"/><path id="x" d="M0 0h14.102s-1.474 4.87-6.025 4.87S0 0 0 0z"/><path id="y" d="M0 0v-1h-1.959L-.81.586 0 0zm14.102 0l.957.29.39-1.29h-1.347v1zM8.077 4.87v1-1zM0 1h14.102v-2H0v2zm14.102-1a126.911 126.911 0 0 1-.957-.289 6.892 6.892 0 0 1-.253.633 7.757 7.757 0 0 1-.888 1.48C11.184 2.89 9.94 3.87 8.077 3.87v2c2.686 0 4.456-1.454 5.511-2.824a9.751 9.751 0 0 0 1.38-2.49 5.978 5.978 0 0 0 .09-.261V.292.29S15.06.29 14.103 0zM8.077 3.87c-1.928 0-3.722-1.042-5.102-2.201a15.07 15.07 0 0 1-2.03-2.08 7.851 7.851 0 0 1-.136-.177v.001L0 0l-.81.587a.196.196 0 0 0 .005.007 3.49 3.49 0 0 0 .048.063c.03.042.076.1.133.173A17.07 17.07 0 0 0 1.689 3.2c1.52 1.275 3.765 2.668 6.388 2.668v-2z"/><path id="z" d="M4.808 0A4.8 4.8 0 0 0 0 4.805 4.8 4.8 0 0 0 4.808 9.61H7.5V0H4.808z"/><path id="A" d="M8.461 11.533H5.77C2.629 11.533 0 8.97 0 5.766A5.744 5.744 0 0 1 5.769 0h2.692v1.922H5.77a3.856 3.856 0 0 0-3.846 3.844A3.856 3.856 0 0 0 5.769 9.61h2.692v1.923z"/><path id="B" d="M0-1a1 1 0 0 0 0 2v-2zm10.602 9.777a1 1 0 1 0 2 0h-2zM0 1c1.72 0 4.446.383 6.702 1.581 2.21 1.173 3.9 3.073 3.9 6.196h2c0-4.052-2.284-6.54-4.962-7.962C5.01-.582 1.933-1 0-1v2z"/><path id="C" d="M8.333 1.012a1 1 0 0 0 0-2v2zm-5.769.281L2.01.461l.554.832zm-3.513 4.81a1 1 0 1 0 1.898.632L-.95 6.103zm9.282-7.09C6.919-.988 4.572-1.247 2.01.46l1.108 1.665C5.082.818 6.756 1.012 8.333 1.012v-2zM2.01.46C.796 1.27.163 2.46-.22 3.516c-.191.531-.328 1.053-.44 1.5-.117.47-.198.814-.289 1.087l1.898.632c.122-.368.229-.824.332-1.235.108-.434.225-.874.38-1.304.313-.864.748-1.598 1.457-2.07L2.01.46z"/><path id="D" d="M-.986 4.064a1 1 0 0 0 1.972.33l-1.972-.33zM2.777.75a1 1 0 0 0-1.323-1.5L2.777.75zM.987 4.393c.291-1.751.91-2.868 1.79-3.643L1.454-.75C.154.397-.637 1.972-.986 4.064l1.972.33z"/><path id="E" d="M-.148-.462a1 1 0 0 0 .296 1.977L-.148-.462zm30.275 12.2l.569-.822-.569.823zm6.36 4.773a1 1 0 1 0 .742-1.857l-.743 1.857zM.147 1.515c2.082-.312 5.579-.611 9.24-.486 3.688.127 7.412.682 10.036 1.994l.894-1.79C17.301-.273 13.226-.84 9.457-.968c-3.795-.13-7.414.178-9.605.507l.296 1.977zm19.276 1.508c3.367 1.682 4.77 3.252 5.847 4.738 1.094 1.508 2.023 3.234 4.287 4.8l1.138-1.645c-1.903-1.316-2.577-2.635-3.806-4.33-1.246-1.717-2.888-3.51-6.572-5.352l-.894 1.789zm10.134 9.538c3.378 2.337 5.239 3.275 6.928 3.95l.743-1.857c-1.516-.606-3.244-1.462-6.533-3.738l-1.138 1.645z"/></defs></svg>