<svg width="232" height="231" viewBox="0 0 232 231" version="1.1" xmlns="http://www.w3.org/2000/svg" xmlns:xlink="http://www.w3.org/1999/xlink">
<title>checkov</title>
<desc>Created using Figma</desc>
<g id="Canvas" transform="translate(-10437 -4173)">
<g id="checkov">
<g id="Ellipse">
<use xlink:href="#path0_fill" transform="translate(10437 4173)" fill="#FFFFFF"/>
</g>
<g id="Vector">
<use xlink:href="#path1_fill" transform="translate(10473.9 4324.04)" fill="#FFFFFF"/>
<use xlink:href="#path2_stroke" transform="translate(10473.9 4324.04)" fill="#333333"/>
</g>
<g id="Vector">
<use xlink:href="#path3_fill" transform="translate(10526.2 4330.54)" fill="#FFFFFF"/>
<use xlink:href="#path4_stroke" transform="translate(10526.2 4330.54)" fill="#333333"/>
</g>
<g id="Vector">
<use xlink:href="#path5_fill" transform="translate(10526.2 4266.14)" fill="#FFFFFF"/>
<use xlink:href="#path6_stroke" transform="translate(10526.2 4266.14)" fill="#333333"/>
</g>
<g id="Vector">
<use xlink:href="#path7_fill" transform="translate(10591.6 4251.14)" fill="#FFFFFF"/>
<use xlink:href="#path8_stroke" transform="translate(10591.6 4251.14)" fill="#333333"/>
</g>
<g id="Vector">
<use xlink:href="#path9_fill" transform="translate(10518.4 4216.94)" fill="#FFFFFF"/>
<use xlink:href="#path10_stroke" transform="translate(10518.4 4216.94)" fill="#333333"/>
</g>
<g id="Vector">
<use xlink:href="#path11_fill" transform="translate(10565.5 4250.94)" fill="#FFFFFF"/>
<use xlink:href="#path12_stroke" transform="translate(10565.5 4250.94)" fill="#333333"/>
</g>
<g id="Group">
<g id="Vector">
<use xlink:href="#path13_fill" transform="translate(10546 4247.34)" fill="#FFFFFF"/>
<use xlink:href="#path14_stroke" transform="translate(10546 4247.34)" fill="#333333"/>
</g>
<g id="Vector">
<use xlink:href="#path15_stroke" transform="translate(10539.9 4247.34)" fill="#333333"/>
</g>
</g>
<g id="Group">
<g id="Vector">
<use xlink:href="#path16_fill" transform="translate(10586 4247.34)" fill="#FFFFFF"/>
<use xlink:href="#path17_stroke" transform="translate(10586 4247.34)" fill="#333333"/>
</g>
<g id="Vector">
<use xlink:href="#path18_stroke" transform="translate(10579.9 4247.34)" fill="#333333"/>
</g>
</g>
<g id="Vector">
<use xlink:href="#path19_stroke" transform="translate(10536.1 4241.24)" fill="#333333"/>
</g>
<g id="Vector">
<use xlink:href="#path20_stroke" transform="translate(10574.7 4241.24)" fill="#333333"/>
</g>
<g id="Vector">
<use xlink:href="#path21_fill" transform="translate(10513.4 4190.74)" fill="#BDBDBD"/>
<use xlink:href="#path22_stroke" transform="translate(10513.4 4190.74)" fill="#333333"/>
</g>
<g id="Group">
<g id="Vector">
<use xlink:href="#path23_fill" transform="translate(10552 4285.74)" fill="#FFFFFF"/>
<use xlink:href="#path24_stroke" transform="translate(10552 4285.74)" fill="#333333"/>
</g>
<g id="Vector">
<use xlink:href="#path25_fill" transform="translate(10556.9 4285.74)" fill="#FFFFFF"/>
<use xlink:href="#path26_stroke" transform="translate(10556.9 4285.74)" fill="#333333"/>
</g>
</g>
<g id="Group">
<g id="Vector">
<use xlink:href="#path27_fill" transform="translate(10509.8 4251.14)" fill="#FFFFFF"/>
</g>
<g id="Vector">
<use xlink:href="#path28_fill" transform="translate(10508.3 4249.64)" fill="#333333"/>
</g>
</g>
<g id="Group 2">
<g id="Vector">
<use xlink:href="#path29_stroke" transform="translate(10531.6 4204.84)" fill="#333333"/>
</g>
<g id="Vector 2">
<use xlink:href="#path30_stroke" transform="translate(10518 4209.98)" fill="#333333"/>
</g>
<g id="Group">
<g id="Vector">
<use xlink:href="#path31_stroke" transform="translate(10536.5 4199.14)" fill="#333333"/>
</g>
</g>
<g id="Vector 2">
<use xlink:href="#path32_stroke" transform="translate(10547 4195.68)" fill="#333333"/>
</g>
</g>
</g>
</g>
<defs>
<path id="path0_fill" d="M 231.045 115.5C 231.045 179.289 179.324 231 115.523 231C 51.7213 231 0 179.289 0 115.5C 0 51.7111 51.7213 0 115.523 0C 179.324 0 231.045 51.7111 231.045 115.5Z"/>
<path id="path1_fill" d="M 78.4 0C 78.4 0 130.5 10.8 143.8 18C 157.1 25.2 157.4 38.4 157.4 38.4C 157.4 38.4 135 52.5 78.7 52.5C 22.4 52.5 -1.2207e-05 38.4 -1.2207e-05 38.4C -1.2207e-05 38.4 0.300024 25.2 13.6 18C 27 10.8 78.4 0 78.4 0Z"/>
<path id="path2_stroke" d="M 78.4 0L 78.7045 -1.46877C 78.5023 -1.51069 78.2936 -1.5104 78.0916 -1.46795L 78.4 0ZM 157.4 38.4L 158.199 39.6695C 158.646 39.3884 158.912 38.8934 158.9 38.3659L 157.4 38.4ZM -1.2207e-05 38.4L -1.49962 38.3659C -1.51161 38.8934 -1.2456 39.3884 -0.799081 39.6695L -1.2207e-05 38.4ZM 13.6 18L 12.89 16.6787L 12.8859 16.6809L 13.6 18ZM 78.4 0C 78.0955 1.46877 78.0957 1.4688 78.096 1.46887C 78.0964 1.46895 78.0969 1.46906 78.0977 1.46922C 78.0992 1.46954 78.1015 1.47001 78.1046 1.47065C 78.1108 1.47194 78.12 1.47386 78.1324 1.47643C 78.1573 1.48162 78.1943 1.48932 78.2435 1.49957C 78.3421 1.52016 78.4882 1.55071 78.6799 1.59099C 79.0641 1.6717 79.628 1.79077 80.3518 1.94513C 81.8007 2.25416 83.8825 2.703 86.4249 3.26468C 91.5126 4.38869 98.4239 5.95983 105.755 7.75688C 113.088 9.55417 120.811 11.5693 127.54 13.5868C 134.26 15.6012 139.867 17.5712 143.086 19.3191L 144.514 16.6809C 141.083 14.8288 135.19 12.7488 128.401 10.7132C 121.62 8.68066 113.824 6.64583 106.47 4.84312C 99.1136 3.04017 92.1687 1.46131 87.072 0.335319C 84.5222 -0.227998 82.4298 -0.679157 80.9775 -0.988881C 80.2507 -1.14389 79.6823 -1.26389 79.2968 -1.3449C 79.1037 -1.38547 78.9556 -1.41645 78.8563 -1.43717C 78.8064 -1.44757 78.7685 -1.45547 78.7432 -1.46072C 78.7305 -1.46336 78.7208 -1.46538 78.7144 -1.46671C 78.7112 -1.46738 78.7087 -1.4679 78.7071 -1.46823C 78.7063 -1.4684 78.7056 -1.46854 78.7052 -1.46863C 78.7047 -1.46872 78.7045 -1.46877 78.4 0ZM 143.086 19.3191C 149.375 22.7237 152.568 27.525 154.201 31.4734C 155.03 33.4643 155.441 35.1805 155.668 36.4833C 155.779 37.1165 155.835 37.5991 155.867 37.9549C 155.883 38.1244 155.891 38.243 155.896 38.3329C 155.898 38.3737 155.899 38.3988 155.9 38.4199C 155.9 38.4284 155.9 38.4319 155.9 38.4363C 155.9 38.4375 155.9 38.4382 155.9 38.4376C 155.9 38.4377 155.9 38.4363 155.9 38.4364C 155.9 38.4361 155.9 38.4356 155.9 38.4354C 155.9 38.4348 155.9 38.4341 157.4 38.4C 158.9 38.3659 158.9 38.3652 158.9 38.3643C 158.9 38.364 158.9 38.3631 158.9 38.3624C 158.9 38.3615 158.899 38.3595 158.899 38.3577C 158.899 38.3551 158.899 38.3497 158.899 38.3446C 158.899 38.3362 158.898 38.3206 158.898 38.304C 158.896 38.2747 158.894 38.2248 158.891 38.1672C 158.885 38.0601 158.874 37.8881 158.855 37.6826C 158.819 37.2885 158.748 36.6836 158.623 35.9668C 158.378 34.5696 157.883 32.5357 156.974 30.3266C 155.132 25.875 151.525 20.4763 144.514 16.6809L 143.086 19.3191ZM 157.4 38.4C 156.601 37.1306 156.602 37.1302 156.602 37.1299C 156.602 37.1298 156.603 37.1295 156.603 37.1295C 156.603 37.1293 156.603 37.1294 156.602 37.1296C 156.601 37.1307 156.599 37.1315 156.596 37.1338C 156.587 37.1394 156.576 37.146 156.558 37.157C 156.517 37.1814 156.463 37.2142 156.381 37.2613C 156.211 37.3601 155.967 37.4983 155.621 37.6825C 154.915 38.0597 153.869 38.5862 152.412 39.232C 149.466 40.5395 145.009 42.2639 138.759 44.0052C 126.191 47.5127 106.717 51.0059 78.7 51L 78.7 54C 106.983 53.9941 126.859 50.4373 139.566 46.8949C 145.954 45.1112 150.615 43.3105 153.629 41.9743C 155.152 41.2982 156.295 40.7232 157.034 40.3292C 157.411 40.1279 157.702 39.9632 157.888 39.8555C 157.985 39.7993 158.063 39.7529 158.11 39.7239C 158.136 39.7083 158.158 39.6947 158.171 39.6867C 158.179 39.6822 158.186 39.6779 158.189 39.6756C 158.192 39.6741 158.194 39.6726 158.195 39.6719C 158.196 39.6714 158.197 39.6708 158.197 39.6705C 158.198 39.67 158.199 39.6695 157.4 38.4ZM 78.7 51C 50.6828 51.0059 31.2091 47.5127 18.6405 44.0052C 12.3912 42.2639 7.93409 40.5395 4.98795 39.232C 3.53119 38.5862 2.4851 38.0597 1.77866 37.6825C 1.43328 37.4983 1.18869 37.3601 1.01865 37.2613C 0.937463 37.2142 0.882648 37.1814 0.842364 37.157C 0.824116 37.146 0.81331 37.1394 0.80422 37.1338C 0.800617 37.1315 0.799331 37.1307 0.797532 37.1296C 0.797102 37.1294 0.797055 37.1293 0.79727 37.1295C 0.797397 37.1295 0.797844 37.1298 0.797907 37.1299C 0.798439 37.1302 0.799056 37.1306 -1.2207e-05 38.4C -0.799081 39.6695 -0.798292 39.67 -0.797419 39.6705C -0.797013 39.6708 -0.796053 39.6714 -0.795242 39.6719C -0.794088 39.6726 -0.791652 39.6741 -0.789342 39.6756C -0.785662 39.6779 -0.778722 39.6822 -0.771344 39.6867C -0.758472 39.6947 -0.736289 39.7083 -0.710436 39.7239C -0.662519 39.7529 -0.58468 39.7993 -0.488061 39.8555C -0.302486 39.9632 -0.0108386 40.1279 0.366234 40.3292C 1.10472 40.7232 2.24847 41.2982 3.7714 41.9743C 6.78464 43.3105 11.4463 45.1112 17.8345 46.8949C 30.5408 50.4373 50.4172 53.9941 78.7 54L 78.7 51ZM -1.2207e-05 38.4C 1.4996 38.4341 1.49958 38.4348 1.49957 38.4354C 1.49957 38.4356 1.49955 38.4361 1.49955 38.4364C 1.49955 38.4363 1.49951 38.4377 1.49952 38.4376C 1.4995 38.4382 1.49952 38.4375 1.49955 38.4363C 1.49969 38.4319 1.4998 38.4284 1.50014 38.4199C 1.50095 38.3988 1.50203 38.3737 1.50432 38.3329C 1.50926 38.243 1.51711 38.1244 1.53266 37.9549C 1.56497 37.5991 1.62101 37.1165 1.73228 36.4833C 1.95919 35.1805 2.37009 33.4643 3.19858 31.4734C 4.83203 27.525 8.02512 22.7237 14.3141 19.3191L 12.8859 16.6809C 5.87493 20.4763 2.268 25.875 0.426431 30.3266C -0.482588 32.5357 -0.977947 34.5696 -1.22292 35.9668C -1.34759 36.6836 -1.4189 37.2885 -1.45495 37.6826C -1.47358 37.8881 -1.48516 38.0601 -1.49111 38.1672C -1.49427 38.2248 -1.49649 38.2747 -1.49763 38.304C -1.49826 38.3206 -1.49879 38.3362 -1.49904 38.3446C -1.4992 38.3497 -1.49935 38.3551 -1.49942 38.3577C -1.49947 38.3595 -1.49952 38.3615 -1.49954 38.3624C -1.49956 38.3631 -1.49958 38.364 -1.49959 38.3643C -1.49961 38.3652 -1.49962 38.3659 -1.2207e-05 38.4ZM 14.31 19.3213C 17.5569 17.5718 23.1421 15.6004 29.8119 13.5859C 36.4894 11.5684 44.1341 9.55324 51.3859 7.75595C 58.6362 5.95892 65.4632 4.38781 70.4869 3.26381C 72.9973 2.70213 75.0521 2.2533 76.4821 1.94428C 77.1964 1.78992 77.7529 1.67086 78.1319 1.59016C 78.3211 1.54987 78.4652 1.51932 78.5625 1.49874C 78.611 1.48848 78.6475 1.48079 78.6721 1.4756C 78.6843 1.47303 78.6934 1.47111 78.6996 1.46982C 78.7026 1.46918 78.7048 1.46871 78.7063 1.46839C 78.7071 1.46823 78.7076 1.46812 78.708 1.46804C 78.7083 1.46797 78.7084 1.46795 78.4 0C 78.0916 -1.46795 78.0913 -1.46789 78.0909 -1.4678C 78.0905 -1.46771 78.0898 -1.46758 78.089 -1.4674C 78.0874 -1.46707 78.0849 -1.46655 78.0817 -1.46588C 78.0754 -1.46455 78.0659 -1.46253 78.0533 -1.45989C 78.0284 -1.45464 77.9909 -1.44673 77.9418 -1.43634C 77.8438 -1.41561 77.6976 -1.38464 77.5071 -1.34406C 77.1266 -1.26305 76.5657 -1.14304 75.8484 -0.988032C 74.4151 -0.678303 72.3496 -0.227133 69.8319 0.336192C 64.7993 1.46219 57.9389 3.04108 50.6642 4.84405C 43.3909 6.64676 35.6731 8.6816 28.9444 10.7141C 22.2079 12.7496 16.3432 14.8282 12.8901 16.6787L 14.31 19.3213Z"/>
<path id="path3_fill" d="M 50.8 7C 50.8 7 43.1 13.1 25.3 13.1C 7.50002 13.1 -2.44141e-05 7 -2.44141e-05 7L -2.44141e-05 6.09998C -2.44141e-05 6.09998 7.69998 0 25.5 0C 43.3 0 50.8 6.09998 50.8 6.09998L 50.8 7Z"/>
<path id="path4_stroke" d="M 50.8 7L 54.8363 12.095C 56.3926 10.8621 57.3 8.98547 57.3 7L 50.8 7ZM -2.44141e-05 7L -6.50002 7C -6.50002 8.9562 -5.61901 10.8084 -4.10138 12.0427L -2.44141e-05 7ZM -2.44141e-05 6.09998L -4.03628 1.00501C -5.59257 2.23791 -6.50002 4.1145 -6.50002 6.09998L -2.44141e-05 6.09998ZM 50.8 6.09998L 57.3 6.09998C 57.3 4.14377 56.419 2.29159 54.9014 1.05727L 50.8 6.09998ZM 50.8 7C 46.7638 1.90504 46.7665 1.90284 46.7693 1.90067C 46.7702 1.89998 46.7729 1.89783 46.7746 1.89645C 46.773 1.89774 46.7881 1.88583 46.7848 1.88842C 46.782 1.89063 46.809 1.86958 46.8033 1.87401C 46.7994 1.87699 46.8399 1.84575 46.8322 1.85174C 46.8318 1.85198 46.859 1.83135 46.8579 1.83236C 46.8866 1.8111 46.8358 1.84931 46.7796 1.88692C 46.6028 2.00779 46.4456 2.11095 46.092 2.31062C 45.246 2.79714 44.2167 3.3229 42.4831 3.94887C 38.6947 5.3529 33.4387 6.64472 25.3 6.59998L 25.3 19.6C 34.9614 19.5552 42.4554 17.7971 46.967 16.1511C 49.3834 15.2521 51.3915 14.2528 52.5456 13.5956C 53.1919 13.2234 53.7754 12.85 54.0892 12.6373C 54.2783 12.5081 54.4678 12.3727 54.5605 12.3047C 54.6224 12.259 54.692 12.2066 54.7226 12.1833C 54.7455 12.1657 54.7741 12.1437 54.7855 12.1348C 54.7949 12.1275 54.8077 12.1175 54.8124 12.1138C 54.8166 12.1105 54.8226 12.1058 54.8247 12.1041C 54.8267 12.1025 54.8296 12.1003 54.8306 12.0995C 54.8334 12.0972 54.8363 12.095 50.8 7ZM 25.3 6.59998C 17.1671 6.6454 11.9732 5.35831 8.241 3.95776C 6.53999 3.33671 5.54651 2.82017 4.7229 2.33725C 4.38222 2.14143 4.2379 2.04441 4.06814 1.92568C 4.01625 1.89024 3.97433 1.8576 4.00083 1.87774C 3.99821 1.8756 4.03144 1.90134 4.03035 1.90053C 4.02203 1.89397 4.06479 1.9278 4.06069 1.92454C 4.05479 1.91982 4.08266 1.94216 4.07973 1.9398C 4.07635 1.93708 4.0919 1.94963 4.09021 1.94827C 4.09201 1.94973 4.09479 1.95198 4.09569 1.95271C 4.0985 1.95499 4.10133 1.9573 -2.44141e-05 7C -4.10138 12.0427 -4.09849 12.0451 -4.09557 12.0474C -4.09456 12.0482 -4.0916 12.0506 -4.08957 12.0523C -4.08743 12.054 -4.08133 12.059 -4.07703 12.0624C -4.07226 12.0663 -4.05931 12.0767 -4.04973 12.0843C -4.03829 12.0934 -4.00935 12.1164 -3.98629 12.1345C -3.95573 12.1584 -3.88562 12.2125 -3.82373 12.2593C -3.73167 12.3285 -3.54208 12.4672 -3.35412 12.5985C -3.04419 12.8134 -2.46351 13.1929 -1.82293 13.569C -0.684036 14.2298 1.31 15.2383 3.709 16.1422C 8.17686 17.7917 15.6329 19.5545 25.3 19.6L 25.3 6.59998ZM 6.49998 7L 6.49998 6.09998L -6.50002 6.09998L -6.50002 7L 6.49998 7ZM -2.44141e-05 6.09998C 4.03623 11.1949 4.03346 11.1971 4.03071 11.1993C 4.02984 11.2 4.02712 11.2021 4.02536 11.2035C 4.027 11.2022 4.01187 11.2141 4.01516 11.2116C 4.01798 11.2093 3.99105 11.2304 3.99673 11.226C 4.00056 11.223 3.96006 11.2542 3.96785 11.2482C 3.96821 11.248 3.94096 11.2686 3.94213 11.2676C 3.91343 11.2889 3.96417 11.2507 4.02037 11.2131C 4.19721 11.0922 4.3544 10.989 4.70802 10.7894C 5.55397 10.3028 6.58331 9.77708 8.31694 9.1511C 12.1053 7.74708 17.3613 6.45526 25.5 6.5L 25.5 -6.5C 15.8386 -6.45526 8.34464 -4.69709 3.83301 -3.05113C 1.41664 -2.15211 -0.591517 -1.15287 -1.74557 -0.495646C -2.39195 -0.123441 -2.97538 0.249957 -3.28917 0.462679C -3.47828 0.591868 -3.66775 0.727228 -3.76054 0.795322C -3.82244 0.841002 -3.89205 0.893394 -3.92263 0.916716C -3.94554 0.934244 -3.97411 0.956313 -3.98548 0.965149C -3.99494 0.972512 -4.00768 0.982477 -4.01238 0.98617C -4.01661 0.989492 -4.0226 0.994202 -4.02471 0.995865C -4.0267 0.997436 -4.02959 0.999722 -4.03059 1.00051C -4.03345 1.00277 -4.03628 1.00501 -2.44141e-05 6.09998ZM 25.5 6.5C 33.6329 6.45457 38.8268 7.74167 42.559 9.14222C 44.26 9.76327 45.2535 10.2798 46.0771 10.7627C 46.4178 10.9585 46.5621 11.0556 46.7319 11.1743C 46.7838 11.2097 46.8257 11.2424 46.7992 11.2222C 46.8018 11.2244 46.7686 11.1986 46.7696 11.1994C 46.778 11.206 46.7352 11.1722 46.7393 11.1754C 46.7452 11.1802 46.7173 11.1578 46.7203 11.1602C 46.7237 11.1629 46.7081 11.1503 46.7098 11.1517C 46.708 11.1502 46.7052 11.148 46.7043 11.1473C 46.7015 11.145 46.6987 11.1427 50.8 6.09998C 54.9014 1.05727 54.8985 1.05492 54.8956 1.05255C 54.8946 1.05173 54.8916 1.04933 54.8896 1.04769C 54.8874 1.04595 54.8813 1.04102 54.877 1.03756C 54.8723 1.03372 54.8593 1.02332 54.8497 1.01567C 54.8383 1.00654 54.8093 0.98361 54.7863 0.965508C 54.7557 0.941613 54.6856 0.88751 54.6237 0.840701C 54.5317 0.771481 54.3421 0.632793 54.1541 0.501435C 53.8442 0.286574 53.2635 -0.0929672 52.6229 -0.469018C 51.484 -1.12985 49.49 -2.1383 47.091 -3.04224C 42.6231 -4.69168 35.1671 -6.45457 25.5 -6.5L 25.5 6.5ZM 44.3 6.09998L 44.3 7L 57.3 7L 57.3 6.09998L 44.3 6.09998Z"/>
<path id="path5_fill" d="M 50.8 70.4C 50.8 70.4 43.1 76.5 25.3 76.5C 7.50002 76.5 -2.44141e-05 70.4 -2.44141e-05 70.4L -2.44141e-05 -2.44141e-05L 50.8 -2.44141e-05L 50.8 70.4Z"/>
<path id="path6_stroke" d="M 50.8 70.4L 51.7315 71.5758C 52.0906 71.2912 52.3 70.8582 52.3 70.4L 50.8 70.4ZM -2.44141e-05 70.4L -1.50002 70.4C -1.50002 70.8514 -1.29671 71.2789 -0.946491 71.5637L -2.44141e-05 70.4ZM -2.44141e-05 -2.44141e-05L -2.44141e-05 -1.50002C -0.828452 -1.50002 -1.50002 -0.828452 -1.50002 -2.44141e-05L -2.44141e-05 -2.44141e-05ZM 50.8 -2.44141e-05L 52.3 -2.44141e-05C 52.3 -0.828452 51.6285 -1.50002 50.8 -1.50002L 50.8 -2.44141e-05ZM 50.8 70.4C 49.8686 69.2242 49.8692 69.2238 49.8698 69.2233C 49.8699 69.2232 49.8705 69.2227 49.8708 69.2225C 49.8706 69.2226 49.8728 69.2209 49.8724 69.2213C 49.8724 69.2212 49.8735 69.2204 49.8734 69.2205C 49.8713 69.2221 49.871 69.2223 49.867 69.2254C 49.8554 69.2342 49.8435 69.2432 49.8204 69.2602C 49.7671 69.2994 49.6983 69.3489 49.591 69.4217C 49.3615 69.5779 49.0404 69.785 48.5741 70.051C 47.6097 70.6032 46.2039 71.311 44.2076 72.042C 40.1411 73.5391 34.0243 75.0103 25.3 75L 25.3 78C 34.3757 77.9897 41.0089 76.4108 45.2424 74.8579C 47.3962 74.0639 49.0279 73.2468 50.0634 72.6552C 50.5972 72.3494 51.0167 72.0799 51.2778 71.9025C 51.4158 71.8086 51.5298 71.7269 51.598 71.6768C 51.6356 71.6491 51.6692 71.6239 51.6878 71.6096C 51.6989 71.6011 51.7099 71.5927 51.7154 71.5884C 51.719 71.5855 51.7231 71.5824 51.7249 71.581C 51.7262 71.5799 51.7279 71.5786 51.7285 71.5781C 51.7291 71.5777 51.7298 71.5771 51.7301 71.5769C 51.7308 71.5763 51.7315 71.5758 50.8 70.4ZM 25.3 75C 16.5771 75.0105 10.513 73.5404 6.49792 72.0441C 4.52845 71.3142 3.15015 70.6085 2.20527 70.0572C 1.74925 69.792 1.43709 69.5863 1.21342 69.4306C 1.1092 69.3583 1.0431 69.3097 0.991384 69.2706C 0.969189 69.2539 0.958114 69.2454 0.947031 69.2367C 0.943285 69.2337 0.943178 69.2336 0.941298 69.2321C 0.941247 69.2321 0.942486 69.2331 0.942515 69.2331C 0.942087 69.2328 0.944353 69.2346 0.94414 69.2344C 0.944467 69.2347 0.945043 69.2352 0.945207 69.2353C 0.94581 69.2358 0.946443 69.2363 -2.44141e-05 70.4C -0.946491 71.5637 -0.945802 71.5643 -0.945084 71.5648C -0.944806 71.5651 -0.944058 71.5657 -0.943502 71.5661C -0.942831 71.5667 -0.941159 71.568 -0.939814 71.5691C -0.938009 71.5706 -0.933961 71.5738 -0.930339 71.5767C -0.924873 71.5811 -0.913951 71.5897 -0.902963 71.5983C -0.884578 71.6127 -0.851366 71.6384 -0.814283 71.6664C -0.747442 71.7167 -0.635028 71.7991 -0.499406 71.8936C -0.243387 72.0715 0.169464 72.3424 0.694695 72.6491C 1.71233 73.2415 3.32153 74.0607 5.45208 74.8559C 9.63698 76.4096 16.223 77.9895 25.3 78L 25.3 75ZM 1.49998 70.4L 1.49998 -2.44141e-05L -1.50002 -2.44141e-05L -1.50002 70.4L 1.49998 70.4ZM -2.44141e-05 1.49998L 50.8 1.49998L 50.8 -1.50002L -2.44141e-05 -1.50002L -2.44141e-05 1.49998ZM 49.3 -2.44141e-05L 49.3 70.4L 52.3 70.4L 52.3 -2.44141e-05L 49.3 -2.44141e-05Z"/>
<path id="path7_fill" d="M 4.20001 15C 8.30001 15 11.7 11.7 11.7 7.49998C 11.7 3.39998 8.40001 -2.44141e-05 4.20001 -2.44141e-05L 0 -2.44141e-05L 0 15L 4.20001 15Z"/>
<path id="path8_stroke" d="M 0 -2.44141e-05L 0 -1.50002C -0.828427 -1.50002 -1.5 -0.828452 -1.5 -2.44141e-05L 0 -2.44141e-05ZM 0 15L -1.5 15C -1.5 15.8284 -0.828427 16.5 3.33067e-16 16.5L 0 15ZM 4.20001 16.5C 9.11538 16.5 13.2 12.5414 13.2 7.49998L 10.2 7.49998C 10.2 10.8585 7.48465 13.5 4.20001 13.5L 4.20001 16.5ZM 13.2 7.49998C 13.2 2.58461 9.24144 -1.50002 4.20001 -1.50002L 4.20001 1.49998C 7.55858 1.49998 10.2 4.21534 10.2 7.49998L 13.2 7.49998ZM 4.20001 -1.50002L 0 -1.50002L 0 1.49998L 4.20001 1.49998L 4.20001 -1.50002ZM -1.5 -2.44141e-05L -1.5 15L 1.5 15L 1.5 -2.44141e-05L -1.5 -2.44141e-05ZM 0 16.5L 4.20001 16.5L 4.20001 13.5L 0 13.5L 0 16.5Z"/>
<path id="path9_fill" d="M -1.2207e-05 2.44141e-05L -1.2207e-05 45.9C -1.2207e-05 83.7 26.2 96.8 33 99.3C 42.2 102.7 53.1 103.7 61.4 97.6C 68.5 92.4 73.1 84.4 75.8 76.2C 78.2 68.8 79.2 60.9 79.2 53.1L 79.2 2.44141e-05L -1.2207e-05 2.44141e-05L -1.2207e-05 2.44141e-05Z"/>
<path id="path10_stroke" d="M 33 99.3L 33.52 97.893L 33.5176 97.8921L 33 99.3ZM 61.4 97.6L 60.5137 96.3898L 60.5117 96.3913L 61.4 97.6ZM 75.8 76.2L 77.2247 76.6691L 77.2268 76.6627L 75.8 76.2ZM 79.2 2.44141e-05L 80.7 2.44141e-05L 80.7 -1.49998L 79.2 -1.49998L 79.2 2.44141e-05ZM -1.50001 2.44141e-05L -1.50001 45.9L 1.49999 45.9L 1.49999 2.44141e-05L -1.50001 2.44141e-05ZM -1.50001 45.9C -1.50001 84.5919 25.3849 98.0985 32.4824 100.708L 33.5176 97.8921C 27.0151 95.5015 1.49999 82.8081 1.49999 45.9L -1.50001 45.9ZM 32.48 100.707C 41.864 104.175 53.3845 105.352 62.2883 98.8087L 60.5117 96.3913C 52.8156 102.048 42.536 101.225 33.52 97.893L 32.48 100.707ZM 62.2863 98.8101C 69.7233 93.3633 74.4658 85.048 77.2247 76.6691L 74.3752 75.7308C 71.7341 83.752 67.2767 91.4367 60.5137 96.3898L 62.2863 98.8101ZM 77.2268 76.6627C 79.6639 69.127 80.697 60.9944 80.7 53.1L 77.7 53.1C 77.703 60.8056 76.7361 68.473 74.3731 75.7372L 77.2268 76.6627ZM 80.7 53.1L 80.7 2.44141e-05L 77.7 2.44141e-05L 77.7 53.1L 80.7 53.1ZM 79.2 -1.49998L -1.2207e-05 -1.49998L -1.2207e-05 1.50002L 79.2 1.50002L 79.2 -1.49998Z"/>
<path id="path11_fill" d="M 2.44141e-05 20.7L 6.30001 20.7C 9.20001 20.7 11.5 18.4 11.5 15.5C 11.5 12.6 9.20001 10.3 6.30001 10.3L 3.80001 10.3L 3.80001 2.44141e-05"/>
<path id="path12_stroke" d="M 2.44141e-05 19.2C -0.828403 19.2 -1.49998 19.8715 -1.49998 20.7C -1.49998 21.5284 -0.828403 22.2 2.44141e-05 22.2L 2.44141e-05 19.2ZM 3.80001 10.3L 2.30001 10.3C 2.30001 11.1284 2.97158 11.8 3.80001 11.8L 3.80001 10.3ZM 5.30001 2.44141e-05C 5.30001 -0.828403 4.62844 -1.49998 3.80001 -1.49998C 2.97158 -1.49998 2.30001 -0.828403 2.30001 2.44141e-05L 5.30001 2.44141e-05ZM 2.44141e-05 22.2L 6.30001 22.2L 6.30001 19.2L 2.44141e-05 19.2L 2.44141e-05 22.2ZM 6.30001 22.2C 10.0284 22.2 13 19.2285 13 15.5L 10 15.5C 10 17.5716 8.37161 19.2 6.30001 19.2L 6.30001 22.2ZM 13 15.5C 13 11.7716 10.0284 8.80001 6.30001 8.80001L 6.30001 11.8C 8.37159 11.8 10 13.4285 10 15.5L 13 15.5ZM 6.30001 8.80001L 3.80001 8.80001L 3.80001 11.8L 6.30001 11.8L 6.30001 8.80001ZM 5.30001 10.3L 5.30001 2.44141e-05L 2.30001 2.44141e-05L 2.30001 10.3L 5.30001 10.3Z"/>
<path id="path13_fill" d="M 6.00002 2.99999C 6.00002 4.69999 4.70002 5.99999 3.00002 5.99999C 1.30002 5.99999 2.44141e-05 4.59999 2.44141e-05 2.99999C 2.44141e-05 1.29999 1.40002 -1.2207e-05 3.00002 -1.2207e-05C 4.70002 -1.2207e-05 6.00002 1.29999 6.00002 2.99999Z"/>
<path id="path14_stroke" d="M 4.50002 2.99999C 4.50002 3.87156 3.8716 4.49999 3.00002 4.49999L 3.00002 7.49999C 5.52845 7.49999 7.50002 5.52842 7.50002 2.99999L 4.50002 2.99999ZM 3.00002 4.49999C 2.16077 4.49999 1.50002 3.80426 1.50002 2.99999L -1.49998 2.99999C -1.49998 5.39572 0.439276 7.49999 3.00002 7.49999L 3.00002 4.49999ZM 1.50002 2.99999C 1.50002 2.16074 2.19576 1.49999 3.00002 1.49999L 3.00002 -1.50001C 0.604292 -1.50001 -1.49998 0.439239 -1.49998 2.99999L 1.50002 2.99999ZM 3.00002 1.49999C 3.8716 1.49999 4.50002 2.12841 4.50002 2.99999L 7.50002 2.99999C 7.50002 0.471561 5.52845 -1.50001 3.00002 -1.50001L 3.00002 1.49999Z"/>
<path id="path15_stroke" d="M -1.2207e-05 -1.50001C -0.828439 -1.50001 -1.50001 -0.828439 -1.50001 -1.2207e-05C -1.50001 0.828415 -0.828439 1.49999 -1.2207e-05 1.49999L -1.2207e-05 -1.50001ZM 18 1.49999C 18.8284 1.49999 19.5 0.828415 19.5 -1.2207e-05C 19.5 -0.828439 18.8284 -1.50001 18 -1.50001L 18 1.49999ZM -1.2207e-05 1.49999L 18 1.49999L 18 -1.50001L -1.2207e-05 -1.50001L -1.2207e-05 1.49999Z"/>
<path id="path16_fill" d="M 6.00002 2.99999C 6.00002 4.69999 4.70002 5.99999 3.00002 5.99999C 1.30002 5.99999 2.44141e-05 4.59999 2.44141e-05 2.99999C 2.44141e-05 1.29999 1.40002 -1.2207e-05 3.00002 -1.2207e-05C 4.60002 -1.2207e-05 6.00002 1.29999 6.00002 2.99999Z"/>
<path id="path17_stroke" d="M 4.50002 2.99999C 4.50002 3.87156 3.8716 4.49999 3.00002 4.49999L 3.00002 7.49999C 5.52845 7.49999 7.50002 5.52842 7.50002 2.99999L 4.50002 2.99999ZM 3.00002 4.49999C 2.16077 4.49999 1.50002 3.80426 1.50002 2.99999L -1.49998 2.99999C -1.49998 5.39572 0.439276 7.49999 3.00002 7.49999L 3.00002 4.49999ZM 1.50002 2.99999C 1.50002 2.16074 2.19576 1.49999 3.00002 1.49999L 3.00002 -1.50001C 0.604292 -1.50001 -1.49998 0.439239 -1.49998 2.99999L 1.50002 2.99999ZM 3.00002 1.49999C 3.80429 1.49999 4.50002 2.16074 4.50002 2.99999L 7.50002 2.99999C 7.50002 0.439239 5.39576 -1.50001 3.00002 -1.50001L 3.00002 1.49999Z"/>
<path id="path18_stroke" d="M -1.2207e-05 -1.50001C -0.828439 -1.50001 -1.50001 -0.828439 -1.50001 -1.2207e-05C -1.50001 0.828415 -0.828439 1.49999 -1.2207e-05 1.49999L -1.2207e-05 -1.50001ZM 16 1.49999C 16.8284 1.49999 17.5 0.828415 17.5 -1.2207e-05C 17.5 -0.828439 16.8284 -1.50001 16 -1.50001L 16 1.49999ZM -1.2207e-05 1.49999L 16 1.49999L 16 -1.50001L -1.2207e-05 -1.50001L -1.2207e-05 1.49999Z"/>
<path id="path19_stroke" d="M 0 -1.49999C -0.828427 -1.49999 -1.5 -0.828415 -1.5 1.2207e-05C -1.5 0.828439 -0.828427 1.50001 0 1.50001L 0 -1.49999ZM 25.8 1.50001C 26.6284 1.50001 27.3 0.828439 27.3 1.2207e-05C 27.3 -0.828415 26.6284 -1.49999 25.8 -1.49999L 25.8 1.50001ZM 0 1.50001L 25.8 1.50001L 25.8 -1.49999L 0 -1.49999L 0 1.50001Z"/>
<path id="path20_stroke" d="M -2.44141e-05 -1.49999C -0.828452 -1.49999 -1.50002 -0.828415 -1.50002 1.2207e-05C -1.50002 0.828439 -0.828452 1.50001 -2.44141e-05 1.50001L -2.44141e-05 -1.49999ZM 22.8 1.50001C 23.6285 1.50001 24.3 0.828439 24.3 1.2207e-05C 24.3 -0.828415 23.6285 -1.49999 22.8 -1.49999L 22.8 1.50001ZM -2.44141e-05 1.50001L 22.8 1.50001L 22.8 -1.49999L -2.44141e-05 -1.49999L -2.44141e-05 1.50001Z"/>
<path id="path21_fill" d="M 97.2 26.4C 97.2 26.4 87.3 23.6 79.3 13.8C 74 6.3 63.8 1.2207e-05 44.5 1.2207e-05C 33.4 1.2207e-05 20.7 1.23978e-05 18.2 14C 4.1 12.4 -1.2207e-05 23.9 -1.2207e-05 29.6C -1.2207e-05 35.3 -1.2207e-05 41.7 -1.2207e-05 47.4C -1.2207e-05 53.1 4.99999 71.1 4.99999 71.1C 4.99999 71.1 16.5 67 16.5 51.3L 16.5 48.3L 16.5 48.2L 16.5 46C 17.5 40.3 22.5 39.6 24.3 39.5C 24.5 39.5 24.7 39.5 24.9 39.5C 24.9 39.5 34.6 40.2 36.3 30.7L 36.3 27.8L 36.3 30.7C 38 40.2 47.8 39.5 47.8 39.5L 84.1 39.5C 84.1 39.5 84.1 39.5 84.1 39.4C 91.3 39.5 97.2 33.6 97.2 26.4Z"/>
<path id="path22_stroke" d="M 97.2 26.4L 98.7 26.4C 98.7 25.7288 98.2541 25.1393 97.6082 24.9566L 97.2 26.4ZM 79.3 13.8L 78.075 14.6657C 78.095 14.694 78.116 14.7217 78.138 14.7486L 79.3 13.8ZM 18.2 14L 18.0309 15.4904C 18.8172 15.5797 19.5375 15.0427 19.6766 14.2637L 18.2 14ZM 4.99999 71.1L 3.55471 71.5015C 3.66617 71.9027 3.93943 72.2396 4.30906 72.4314C 4.6787 72.6232 5.11145 72.6527 5.50371 72.5129L 4.99999 71.1ZM 16.5 46L 15.0226 45.7408C 15.0075 45.8264 15 45.9131 15 46L 16.5 46ZM 24.3 39.5L 24.3 38C 24.2722 38 24.2445 38.0008 24.2168 38.0023L 24.3 39.5ZM 24.9 39.5L 25.008 38.0039C 24.9721 38.0013 24.936 38 24.9 38L 24.9 39.5ZM 36.3 30.7L 37.7765 30.9642C 37.7921 30.877 37.8 30.7886 37.8 30.7L 36.3 30.7ZM 37.8 27.8C 37.8 26.9716 37.1284 26.3 36.3 26.3C 35.4715 26.3 34.8 26.9716 34.8 27.8L 37.8 27.8ZM 36.3 30.7L 34.8 30.7C 34.8 30.7886 34.8078 30.877 34.8234 30.9642L 36.3 30.7ZM 47.8 39.5L 47.8 38C 47.7643 38 47.7287 38.0013 47.6931 38.0038L 47.8 39.5ZM 84.1 39.5L 84.1 41C 84.9284 41 85.6 40.3284 85.6 39.5L 84.1 39.5ZM 84.1 39.4L 84.1209 37.9001C 83.7195 37.8945 83.3326 38.0501 83.0468 38.332C 82.7609 38.6139 82.6 38.9985 82.6 39.4L 84.1 39.4ZM 97.2 26.4C 97.6082 24.9566 97.6087 24.9567 97.6091 24.9568C 97.6092 24.9569 97.6096 24.957 97.6098 24.957C 97.6097 24.957 97.6105 24.9572 97.6104 24.9572C 97.6109 24.9574 97.6101 24.9571 97.609 24.9568C 97.6056 24.9558 97.6025 24.9549 97.5957 24.9529C 97.5795 24.9481 97.5595 24.9422 97.5278 24.9324C 97.459 24.9113 97.366 24.8819 97.2345 24.8379C 96.9602 24.7463 96.5799 24.6121 96.0788 24.4141C 95.0532 24.0096 93.6543 23.3939 91.9768 22.4629C 88.5713 20.5788 84.3222 17.6022 80.462 12.8514L 78.138 14.7486C 82.2778 19.7978 86.9787 23.1212 90.5231 25.0871C 92.3206 26.0811 93.8968 26.7778 94.9775 27.2046C 95.5294 27.4222 95.9851 27.5834 96.2835 27.6832C 96.4383 27.7348 96.5658 27.7752 96.6459 27.7999C 96.6887 27.813 96.7253 27.824 96.747 27.8304C 96.7592 27.834 96.7704 27.8372 96.7766 27.839C 96.7803 27.8401 96.7841 27.8412 96.786 27.8417C 96.7872 27.8421 96.7887 27.8425 96.7893 27.8427C 96.7898 27.8428 96.7904 27.843 96.7907 27.843C 96.7912 27.8432 96.7918 27.8434 97.2 26.4ZM 80.525 12.9343C 74.873 4.93633 64.1499 -1.49999 44.5 -1.49999L 44.5 1.50001C 63.4501 1.50001 73.1269 7.66367 78.075 14.6657L 80.525 12.9343ZM 44.5 -1.49999C 39.0196 -1.49999 32.7867 -1.51716 27.6182 0.33822C 22.2716 2.25752 18.0739 6.17308 16.7234 13.7363L 19.6766 14.2637C 20.8261 7.82694 24.2284 4.7425 28.6318 3.1618C 33.2132 1.51718 38.8804 1.50001 44.5 1.50001L 44.5 -1.49999ZM 18.3691 12.5096C 10.8275 11.6538 5.77301 14.3193 2.65423 18.1094C -0.391901 21.8112 -1.50001 26.4666 -1.50001 29.6L 1.49999 29.6C 1.49999 27.0334 2.44188 23.0888 4.97076 20.0156C 7.42698 17.0307 11.4725 14.7462 18.0309 15.4904L 18.3691 12.5096ZM -1.50001 29.6C -1.50001 35.3 -1.50001 41.7 -1.50001 47.4L 1.49999 47.4C 1.49999 41.7 1.49999 35.3 1.49999 29.6L -1.50001 29.6ZM -1.50001 47.4C -1.50001 50.4657 -0.194698 56.583 1.04134 61.7373C 1.66929 64.3556 2.29847 66.8002 2.76837 68.5811C 3.00372 69.473 3.20044 70.2037 3.3376 70.7086C 3.40636 70.9618 3.46067 71.1601 3.49748 71.294C 3.51598 71.3613 3.53029 71.4132 3.53984 71.4478C 3.54466 71.4652 3.54838 71.4786 3.55083 71.4875C 3.55207 71.4919 3.55304 71.4954 3.55367 71.4977C 3.554 71.4989 3.55426 71.4998 3.55442 71.5004C 3.5545 71.5007 3.55458 71.501 3.55462 71.5011C 3.55468 71.5013 3.55471 71.5015 4.99999 71.1C 6.44526 70.6985 6.44526 70.6985 6.44524 70.6984C 6.44521 70.6983 6.44517 70.6982 6.4451 70.6979C 6.44496 70.6974 6.44476 70.6967 6.44448 70.6957C 6.4439 70.6936 6.44306 70.6906 6.4419 70.6864C 6.43954 70.6779 6.43609 70.6654 6.43145 70.6486C 6.42208 70.6147 6.40831 70.5648 6.39019 70.4989C 6.35376 70.3664 6.30065 70.1724 6.23269 69.9222C 6.09641 69.4205 5.90251 68.7004 5.6691 67.8157C 5.2015 66.0436 4.58068 63.6319 3.95863 61.0377C 2.69467 55.767 1.49999 50.0343 1.49999 47.4L -1.50001 47.4ZM 4.99999 71.1C 5.50371 72.5129 5.50459 72.5126 5.50552 72.5122C 5.50588 72.5121 5.50686 72.5118 5.50759 72.5115C 5.5085 72.5112 5.51071 72.5104 5.51253 72.5097C 5.51505 72.5088 5.52053 72.5068 5.52556 72.505C 5.53337 72.5021 5.54852 72.4965 5.56401 72.4906C 5.59046 72.4806 5.637 72.4626 5.68866 72.4419C 5.78273 72.404 5.93662 72.3394 6.11426 72.259C 6.45039 72.1061 6.96816 71.85 7.55337 71.5093C 8.6831 70.8481 10.2867 69.7218 11.8308 68.1276C 14.958 64.878 18 59.5613 18 51.3L 15 51.3C 15 58.7387 12.292 63.322 9.66917 66.0474C 8.33824 67.4407 7.06688 68.3207 6.04036 68.9188C 5.54744 69.2078 5.16677 69.3946 4.874 69.5273C 4.73718 69.5896 4.64401 69.6285 4.56962 69.6584C 4.53705 69.6715 4.51901 69.6784 4.50194 69.6849C 4.49567 69.6873 4.49433 69.6878 4.49109 69.689C 4.49059 69.6891 4.49137 69.6889 4.49164 69.6888C 4.49121 69.6889 4.49365 69.688 4.49344 69.6881C 4.49382 69.688 4.49453 69.6877 4.49472 69.6877C 4.49547 69.6874 4.49626 69.6871 4.99999 71.1ZM 18 51.3L 18 48.3L 15 48.3L 15 51.3L 18 51.3ZM 18 48.3L 18 48.2L 15 48.2L 15 48.3L 18 48.3ZM 18 48.2L 18 46L 15 46L 15 48.2L 18 48.2ZM 17.9774 46.2592C 18.3933 43.8886 19.5939 42.6557 20.8354 41.9574C 22.1643 41.1763 23.5293 41.0444 24.3832 40.9977L 24.2168 38.0023C 23.2707 38.0556 21.2356 38.3237 19.3646 39.3426C 17.406 40.4443 15.6067 42.4114 15.0226 45.7408L 17.9774 46.2592ZM 24.3 41C 24.5 41 24.7 41 24.9 41L 24.9 38C 24.7 38 24.5 38 24.3 38L 24.3 41ZM 24.9 39.5C 24.792 40.9961 24.7928 40.9962 24.7936 40.9962C 24.7939 40.9963 24.7948 40.9963 24.7954 40.9964C 24.7962 40.9964 24.7981 40.9965 24.7996 40.9967C 24.8018 40.9968 24.8065 40.9971 24.8108 40.9974C 24.8175 40.9978 24.8305 40.9986 24.8437 40.9994C 24.8662 41.0006 24.9062 41.0026 24.9505 41.0044C 25.0308 41.0075 25.1636 41.0111 25.3169 41.0115C 25.606 41.012 26.0594 40.9999 26.5744 40.9551C 27.5668 40.8662 29.037 40.6163 30.5001 40.0629C 33.529 38.9001 36.8168 36.3276 37.7765 30.9642L 34.8234 30.4358C 34.0832 34.5725 31.671 36.3999 29.4249 37.2622C 28.2505 37.7212 27.1895 37.89 26.31 37.9668C 25.8891 38.0048 25.5713 38.0122 25.3234 38.0115C 25.2081 38.0114 25.1308 38.0092 25.0683 38.0067C 25.041 38.0057 25.0264 38.0049 25.0121 38.0041C 25.0069 38.0038 25.006 38.0037 25.0033 38.0036C 25.0029 38.0036 25.0037 38.0036 25.0039 38.0036C 25.0036 38.0036 25.0057 38.0037 25.0055 38.0037C 25.0059 38.0038 25.0065 38.0038 25.0066 38.0038C 25.0073 38.0039 25.008 38.0039 24.9 39.5ZM 37.8 30.7L 37.8 27.8L 34.8 27.8L 34.8 30.7L 37.8 30.7ZM 34.8 27.8L 34.8 30.7L 37.8 30.7L 37.8 27.8L 34.8 27.8ZM 34.8234 30.9642C 35.7844 36.3345 39.1041 38.9046 42.1543 40.0646C 43.6289 40.6172 45.11 40.8665 46.1113 40.9552C 46.6305 41 47.0871 41.012 47.3788 41.0115C 47.5332 41.0111 47.6668 41.0075 47.7478 41.0044C 47.7923 41.0027 47.8325 41.0007 47.8551 40.9994C 47.8684 40.9987 47.8815 40.9979 47.8881 40.9975C 47.8925 40.9972 47.8972 40.9969 47.8993 40.9967C 47.9009 40.9966 47.9028 40.9965 47.9035 40.9964C 47.9042 40.9964 47.905 40.9963 47.9053 40.9963C 47.9061 40.9963 47.9068 40.9962 47.8 39.5C 47.6931 38.0038 47.6938 38.0038 47.6944 38.0037C 47.6946 38.0037 47.6952 38.0037 47.6955 38.0037C 47.6953 38.0037 47.6974 38.0035 47.6971 38.0035C 47.6973 38.0035 47.698 38.0035 47.6976 38.0035C 47.6948 38.0037 47.6938 38.0038 47.6885 38.004C 47.674 38.0049 47.6589 38.0056 47.6312 38.0067C 47.5678 38.0092 47.4892 38.0114 47.3723 38.0115C 47.1215 38.0122 46.7991 38.0047 46.3731 37.9667C 45.4837 37.8898 44.4085 37.7203 43.2206 37.2605C 40.9458 36.3954 38.5155 34.5656 37.7765 30.4358L 34.8234 30.9642ZM 47.8 41L 84.1 41L 84.1 38L 47.8 38L 47.8 41ZM 84.1 39.5C 85.6 39.5 85.6 39.5 85.6 39.5C 85.6 39.5 85.6 39.5 85.6 39.5C 85.6 39.5 85.6 39.5 85.6 39.5C 85.6 39.5 85.6 39.5 85.6 39.5C 85.6 39.5 85.6 39.5 85.6 39.5C 85.6 39.5 85.6 39.5 85.6 39.5C 85.6 39.5 85.6 39.4999 85.6 39.4998C 85.6 39.4996 85.6 39.4992 85.6 39.4984C 85.6 39.4969 85.6 39.4937 85.6 39.4875C 85.6 39.475 85.6 39.45 85.6 39.4L 82.6 39.4C 82.6 39.45 82.6 39.475 82.6 39.4875C 82.6 39.4937 82.6 39.4969 82.6 39.4984C 82.6 39.4992 82.6 39.4996 82.6 39.4998C 82.6 39.4999 82.6 39.5 82.6 39.5C 82.6 39.5 82.6 39.5 82.6 39.5C 82.6 39.5 82.6 39.5 82.6 39.5C 82.6 39.5 82.6 39.5 82.6 39.5C 82.6 39.5 82.6 39.5 82.6 39.5C 82.6 39.5 82.6 39.5 82.6 39.5C 82.6 39.5 82.6 39.5 84.1 39.5ZM 84.0792 40.8998C 92.1279 41.0116 98.7 34.4243 98.7 26.4L 95.7 26.4C 95.7 32.7757 90.4721 37.9883 84.1209 37.9001L 84.0792 40.8998Z"/>
<path id="path23_fill" d="M 2.44141e-05 1.2207e-05L 15.9 1.2207e-05L 30.8 1.2207e-05"/>
<path id="path24_stroke" d="M 2.44141e-05 -1.49999C -0.828403 -1.49999 -1.49998 -0.828415 -1.49998 1.2207e-05C -1.49998 0.828439 -0.828403 1.50001 2.44141e-05 1.50001L 2.44141e-05 -1.49999ZM 30.8 1.50001C 31.6284 1.50001 32.3 0.828439 32.3 1.2207e-05C 32.3 -0.828415 31.6284 -1.49999 30.8 -1.49999L 30.8 1.50001ZM 2.44141e-05 1.50001L 15.9 1.50001L 15.9 -1.49999L 2.44141e-05 -1.49999L 2.44141e-05 1.50001ZM 15.9 1.50001L 30.8 1.50001L 30.8 -1.49999L 15.9 -1.49999L 15.9 1.50001Z"/>
<path id="path25_fill" d="M -1.2207e-05 1.2207e-05L 22 1.2207e-05C 22 1.2207e-05 19.7 7.59999 12.6 7.59999C 5.50002 7.59999 -1.2207e-05 1.2207e-05 -1.2207e-05 1.2207e-05Z"/>
<path id="path26_stroke" d="M -1.2207e-05 1.2207e-05L -1.2207e-05 -1.49999L -2.93714 -1.49999L -1.21518 0.879421L -1.2207e-05 1.2207e-05ZM 22 1.2207e-05L 23.4357 0.434494L 24.0211 -1.49999L 22 -1.49999L 22 1.2207e-05ZM 12.6 7.59999L 12.6 9.09999L 12.6 7.59999ZM -1.2207e-05 1.50001L 22 1.50001L 22 -1.49999L -1.2207e-05 -1.49999L -1.2207e-05 1.50001ZM 22 1.2207e-05C 20.5643 -0.43447 20.5645 -0.435042 20.5646 -0.435585C 20.5647 -0.435727 20.5648 -0.436244 20.5649 -0.43653C 20.5649 -0.436358 20.5654 -0.438263 20.5653 -0.437915C 20.5654 -0.438024 20.5656 -0.438876 20.5656 -0.438683C 20.565 -0.436678 20.5648 -0.436214 20.5636 -0.432361C 20.5601 -0.421377 20.5566 -0.410406 20.5496 -0.389535C 20.5334 -0.341089 20.5131 -0.281881 20.4802 -0.193144C 20.4096 -0.00167625 20.3134 0.2424 20.1661 0.56253C 19.8597 1.23279 19.4342 2.03539 18.7739 2.88506C 17.4883 4.55518 15.5334 6.09999 12.6 6.09999L 12.6 9.09999C 16.7667 9.09999 19.5117 6.8448 21.1512 4.71494C 21.9533 3.66461 22.5466 2.56723 22.8933 1.81249C 23.0725 1.42012 23.2115 1.07045 23.2944 0.846292C 23.3383 0.727217 23.3743 0.623144 23.3953 0.560262C 23.4069 0.525469 23.4171 0.493765 23.4228 0.475988C 23.4261 0.465462 23.4294 0.455025 23.431 0.449724C 23.4321 0.446264 23.4333 0.442441 23.4338 0.440708C 23.4342 0.43944 23.4347 0.437882 23.4348 0.437248C 23.435 0.436731 23.4352 0.436041 23.4353 0.435783C 23.4355 0.435124 23.4357 0.434494 22 1.2207e-05ZM 12.6 6.09999C 9.57145 6.09999 6.76022 4.46361 4.60214 2.65131C 3.53187 1.75542 2.70211 0.88588 2.09671 0.196952C 1.80119 -0.138734 1.58365 -0.405278 1.42697 -0.603579C 1.35183 -0.698567 1.29947 -0.766959 1.26071 -0.818334C 1.24283 -0.842009 1.23157 -0.857142 1.22246 -0.869483C 1.21863 -0.874665 1.21684 -0.877111 1.21489 -0.87977C 1.21428 -0.880609 1.21373 -0.881367 1.21404 -0.880938C 1.21402 -0.880967 1.21436 -0.880495 1.21435 -0.880508C 1.21445 -0.88038 1.21465 -0.880102 1.21469 -0.880038C 1.21492 -0.879732 1.21516 -0.879396 -1.2207e-05 1.2207e-05C -1.21518 0.879421 -1.2149 0.879814 -1.21459 0.880236C -1.21446 0.880416 -1.21413 0.880868 -1.21387 0.881227C -1.21353 0.881702 -1.21275 0.882781 -1.21206 0.883731C -1.21103 0.885142 -1.20895 0.887998 -1.20689 0.890811C -1.20349 0.895458 -1.19729 0.903913 -1.1905 0.913111C -1.17836 0.92953 -1.15786 0.957072 -1.13373 0.989061C -1.08846 1.04901 -1.01572 1.1439 -0.926597 1.25673C -0.754758 1.47405 -0.487141 1.80125 -0.156103 2.17807C 0.491635 2.91413 1.48063 3.94458 2.67287 4.94869C 5.03981 6.93638 8.52859 9.09999 12.6 9.09999L 12.6 6.09999Z"/>
<path id="path27_fill" d="M 7.50001 -2.44141e-05C 3.40001 -2.44141e-05 1.2207e-05 3.29998 1.2207e-05 7.49998C 1.2207e-05 11.6 3.30001 15 7.50001 15L 11.7 15L 11.7 -2.44141e-05L 7.50001 -2.44141e-05Z"/>
<path id="path28_fill" d="M 13.2 18L 9.00001 18C 4.10001 18 1.2207e-05 14 1.2207e-05 8.99998C 1.2207e-05 3.99998 4.00001 -2.44141e-05 9.00001 -2.44141e-05L 13.2 -2.44141e-05L 13.2 2.99998L 9.00001 2.99998C 5.70001 2.99998 3.00001 5.69998 3.00001 8.99998C 3.00001 12.3 5.70001 15 9.00001 15L 13.2 15L 13.2 18Z"/>
<path id="path29_stroke" d="M 0 -1.50001C -0.828427 -1.50001 -1.5 -0.828439 -1.5 -1.2207e-05C -1.5 0.828415 -0.828427 1.49999 0 1.49999L 0 -1.50001ZM 16.6 13.7C 16.6 14.5284 17.2715 15.2 18.1 15.2C 18.9284 15.2 19.6 14.5284 19.6 13.7L 16.6 13.7ZM 0 1.49999C 2.74714 1.49646 6.91347 2.05223 10.4839 3.97472C 13.9448 5.81302 16.6 8.79591 16.6 13.7L 19.6 13.7C 19.6 7.40409 16.0551 3.53698 11.8911 1.32526C 7.83652 -0.802244 2.95286 -1.49648 0 -1.50001L 0 1.49999Z"/>
<path id="path30_stroke" d="M 13 1.51885C 13.8284 1.51885 14.5 0.84728 14.5 0.0188531C 14.5 -0.809574 13.8284 -1.48115 13 -1.48115L 13 1.51885ZM 4 2.01885L 3.16804 0.77072L 4 2.01885ZM -1.42302 9.54451C -1.685 10.3304 -1.26026 11.1799 -0.474342 11.4419C 0.311573 11.7038 1.16105 11.2791 1.42302 10.4932L -1.42302 9.54451ZM 13 -1.48115C 10.7507 -1.47879 7.17664 -1.79198 3.16804 0.77072L 4.83196 3.26699C 7.88368 1.12351 10.5826 1.5165 13 1.51885L 13 -1.48115ZM 3.16804 0.77072C 1.39735 2.00177 0.301233 3.89774 -0.285835 5.50929C -0.867845 7.1392 -1.12244 8.65728 -1.42302 9.54451L 1.42302 10.4932C 1.7891 9.38042 2.03451 7.89836 2.53583 6.5282C 3.0321 5.13966 3.60265 4.03564 4.83196 3.26699L 3.16804 0.77072Z"/>
<path id="path31_stroke" d="M -1.23299 6.39454C -1.34649 7.0755 -0.886462 7.71954 -0.205499 7.83303C 0.475464 7.94652 1.1195 7.4865 1.23299 6.80554L -1.23299 6.39454ZM 4.12701 0.937297C 4.64467 0.480543 4.69404 -0.309372 4.23729 -0.827027C 3.78053 -1.34468 2.99062 -1.39405 2.47296 -0.937297L 4.12701 0.937297ZM 1.23299 6.80554C 1.69749 4.01855 2.69039 2.20491 4.12701 0.937297L 2.47296 -0.937297C 0.509588 0.795091 -0.69749 3.18152 -1.23299 6.39454L 1.23299 6.80554Z"/>
<path id="path32_stroke" d="M -0.222511 -0.661582C -1.04177 -0.538692 -1.60629 0.225072 -1.4834 1.04433C -1.36052 1.8636 -0.596751 2.42812 0.222511 2.30523L -0.222511 -0.661582ZM 47 18.3218L 47.8538 17.0885L 47 18.3218ZM 56.9429 25.7145C 57.7121 26.0222 58.585 25.648 58.8927 24.8789C 59.2004 24.1097 58.8263 23.2367 58.0571 22.9291L 56.9429 25.7145ZM 0.222511 2.30523C 3.50863 1.81154 8.92158 1.34634 14.6485 1.54594C 20.4043 1.74385 26.224 2.61085 30.3292 4.66346L 31.6708 1.98018C 26.976 -0.367209 20.629 -1.2502 14.7515 -1.45229C 8.84508 -1.65269 3.15803 -1.1679 -0.222511 -0.661582L 0.222511 2.30523ZM 30.3292 4.66346C 35.5908 7.29427 37.7864 9.75074 39.4731 12.0773C 41.2259 14.4883 42.6271 17.0663 46.1462 19.5551L 47.8538 17.0885C 44.8729 15.0772 43.7741 12.9052 41.9019 10.3163C 39.9636 7.64288 37.4092 4.84937 31.6708 1.98018L 30.3292 4.66346ZM 46.1462 19.5551C 51.4358 23.2125 54.3855 24.6901 56.9429 25.7145L 58.0571 22.9291C 55.6145 21.9534 52.9642 20.6311 47.8538 17.0885L 46.1462 19.5551Z"/>
</defs>
</svg>
