<svg width="232" height="231" viewBox="0 0 232 231" version="1.1" xmlns="http://www.w3.org/2000/svg" xmlns:xlink="http://www.w3.org/1999/xlink">
<title>dan</title>
<desc>Created using Figma</desc>
<g id="Canvas" transform="translate(-10163 -3908)">
<g id="dan">
<g id="Ellipse">
<use xlink:href="#path0_fill" transform="translate(10163 3908)" fill="#FFFFFF"/>
</g>
<g id="Vector">
<use xlink:href="#path1_fill" transform="translate(10192.9 4055.2)" fill="#FFFFFF"/>
<use xlink:href="#path2_stroke" transform="translate(10192.9 4055.2)" fill="#333333"/>
</g>
<g id="Vector">
<use xlink:href="#path3_fill" transform="translate(10280.3 4072.4)" fill="#FFFFFF"/>
<use xlink:href="#path4_stroke" transform="translate(10280.3 4072.4)" fill="#333333"/>
</g>
<g id="Vector">
<use xlink:href="#path5_fill" transform="translate(10244 4053.3)" fill="#FFFFFF"/>
<use xlink:href="#path6_stroke" transform="translate(10244 4053.3)" fill="#333333"/>
</g>
<g id="Vector">
<use xlink:href="#path7_fill" transform="translate(10281.3 4052.3)" fill="#FFFFFF"/>
<use xlink:href="#path8_stroke" transform="translate(10281.3 4052.3)" fill="#333333"/>
</g>
<g id="Vector">
<use xlink:href="#path9_fill" transform="translate(10312.6 3986.7)" fill="#FFFFFF"/>
<use xlink:href="#path10_stroke" transform="translate(10312.6 3986.7)" fill="#333333"/>
</g>
<g id="Vector">
<use xlink:href="#path11_fill" transform="translate(10236.8 3962.6)" fill="#FFFFFF"/>
<use xlink:href="#path12_stroke" transform="translate(10236.8 3962.6)" fill="#333333"/>
</g>
<g id="Vector">
<use xlink:href="#path13_fill" transform="translate(10307.5 3984.3)" fill="#FFFFFF"/>
<use xlink:href="#path14_stroke" transform="translate(10307.5 3984.3)" fill="#333333"/>
</g>
<g id="Vector">
<use xlink:href="#path15_fill" transform="translate(10264.9 4026.8)" fill="#FFFFFF"/>
<use xlink:href="#path16_stroke" transform="translate(10264.9 4026.8)" fill="#333333"/>
</g>
<g id="Vector">
<use xlink:href="#path17_fill" transform="translate(10286.2 3986.9)" fill="#FFFFFF"/>
<use xlink:href="#path18_stroke" transform="translate(10286.2 3986.9)" fill="#333333"/>
</g>
<g id="Vector">
<use xlink:href="#path19_fill" transform="translate(10265.7 3984.3)" fill="#FFFFFF"/>
<use xlink:href="#path20_stroke" transform="translate(10265.7 3984.3)" fill="#333333"/>
</g>
<g id="Vector">
<use xlink:href="#path21_fill" transform="translate(10254.9 3976.3)" fill="#828282"/>
<use xlink:href="#path22_stroke" transform="translate(10254.9 3976.3)" fill="#333333"/>
</g>
<g id="Vector">
<use xlink:href="#path21_fill" transform="translate(10296.9 3976.3)" fill="#828282"/>
<use xlink:href="#path22_stroke" transform="translate(10296.9 3976.3)" fill="#333333"/>
</g>
<g id="Vector">
<use xlink:href="#path23_fill" transform="translate(10236.7 3925)" fill="#828282"/>
<use xlink:href="#path24_stroke" transform="translate(10236.7 3925)" fill="#333333"/>
</g>
<g id="Vector">
<use xlink:href="#path25_fill" transform="translate(10261.3 4019.6)" fill="#828282"/>
<use xlink:href="#path26_stroke" transform="translate(10261.3 4019.6)" fill="#333333"/>
</g>
<g id="Vector">
<use xlink:href="#path27_stroke" transform="translate(10240.7 4051.6)" fill="#333333"/>
</g>
<g id="Vector">
<use xlink:href="#path28_fill" transform="translate(10244.8 3964.5)" fill="#FFFFFF"/>
<use xlink:href="#path29_stroke" transform="translate(10244.8 3964.5)" fill="#333333"/>
</g>
<g id="Vector">
<use xlink:href="#path30_fill" transform="translate(10228.5 3986.5)" fill="#FFFFFF"/>
<use xlink:href="#path31_stroke" transform="translate(10228.5 3986.5)" fill="#333333"/>
</g>
<g id="Vector">
<use xlink:href="#path32_stroke" transform="translate(10248.5 3950)" fill="#333333"/>
</g>
<g id="Vector">
<use xlink:href="#path33_stroke" transform="translate(10265.4 4072.7)" fill="#333333"/>
</g>
<g id="Vector">
<use xlink:href="#path34_fill" transform="translate(10256.9 3929)" fill="#FFFFFF"/>
<use xlink:href="#path35_stroke" transform="translate(10256.9 3929)" fill="#333333"/>
</g>
</g>
</g>
<defs>
<path id="path0_fill" d="M 231.045 115.5C 231.045 179.289 179.324 231 115.523 231C 51.7213 231 0 179.289 0 115.5C 0 51.7111 51.7213 0 115.523 0C 179.324 0 231.045 51.7111 231.045 115.5Z"/>
<path id="path1_fill" d="M 86 -1.2207e-05C 86 -1.2207e-05 143.1 8.79999 157.7 16C 172.3 23.2 172.6 36.4 172.6 36.4C 172.6 36.4 148 50.5 86.3 50.5C 24.6 50.5 -1.2207e-05 36.4 -1.2207e-05 36.4C -1.2207e-05 36.4 0.300012 23.2 14.9 16C 29.6 8.79999 86 -1.2207e-05 86 -1.2207e-05Z"/>
<path id="path2_stroke" d="M 86 -1.2207e-05L 86.2285 -1.48251C 86.0761 -1.50599 85.921 -1.50584 85.7687 -1.48208L 86 -1.2207e-05ZM 172.6 36.4L 173.346 37.7014C 173.823 37.428 174.112 36.9156 174.1 36.3659L 172.6 36.4ZM -1.2207e-05 36.4L -1.49962 36.3659C -1.51212 36.9156 -1.22292 37.428 -0.745928 37.7014L -1.2207e-05 36.4ZM 14.9 16L 14.2402 14.6529L 14.2366 14.6547L 14.9 16ZM 86 -1.2207e-05C 85.7715 1.48249 85.7717 1.48251 85.772 1.48257C 85.7725 1.48263 85.773 1.48272 85.7739 1.48285C 85.7756 1.48311 85.778 1.48349 85.7814 1.48402C 85.7883 1.48507 85.7984 1.48663 85.812 1.48874C 85.8393 1.49297 85.8798 1.49926 85.9337 1.50764C 86.0419 1.52445 86.202 1.54943 86.4122 1.58243C 86.8332 1.64852 87.4514 1.7462 88.2447 1.87329C 89.8329 2.1277 92.1148 2.49866 94.9015 2.96676C 100.478 3.90347 108.054 5.22535 116.091 6.77293C 124.13 8.32069 132.597 10.0874 139.976 11.9183C 147.388 13.7571 153.549 15.6252 157.037 17.3453L 158.363 14.6547C 154.551 12.7748 148.1 10.8429 140.699 9.00663C 133.265 7.16261 124.72 5.37929 116.659 3.82704C 108.596 2.27462 100.984 0.946505 95.3985 0.00821149C 92.6039 -0.461187 90.3108 -0.833977 88.7193 -1.08894C 87.9228 -1.21654 87.3 -1.31495 86.8774 -1.38128C 86.6658 -1.4145 86.5036 -1.43981 86.3947 -1.45673C 86.3401 -1.46522 86.2986 -1.47167 86.2709 -1.47595C 86.257 -1.4781 86.2464 -1.47975 86.2394 -1.48083C 86.2358 -1.48137 86.2331 -1.4818 86.2313 -1.48207C 86.2304 -1.48221 86.2297 -1.48232 86.2292 -1.48239C 86.2287 -1.48247 86.2285 -1.48251 86 -1.2207e-05ZM 157.037 17.3453C 163.984 20.7714 167.481 25.5902 169.258 29.5183C 170.161 31.5019 170.606 33.2061 170.851 34.5047C 170.971 35.1341 171.031 35.6109 171.066 35.9649C 171.082 36.1327 171.09 36.2487 171.096 36.3377C 171.098 36.3777 171.099 36.4015 171.1 36.4222C 171.1 36.4304 171.1 36.4333 171.1 36.4374C 171.1 36.4385 171.1 36.4386 171.1 36.4381C 171.1 36.4384 171.1 36.4366 171.1 36.4367C 171.1 36.4364 171.1 36.4357 171.1 36.4355C 171.1 36.4348 171.1 36.4341 172.6 36.4C 174.1 36.3659 174.1 36.3651 174.1 36.3642C 174.1 36.3638 174.1 36.3629 174.1 36.3621C 174.099 36.3612 174.099 36.359 174.099 36.3571C 174.099 36.3544 174.099 36.3487 174.099 36.3434C 174.099 36.3348 174.098 36.3187 174.097 36.3017C 174.096 36.272 174.094 36.2208 174.09 36.1624C 174.084 36.0545 174.072 35.8799 174.051 35.6726C 174.013 35.2766 173.935 34.666 173.799 33.9453C 173.532 32.544 172.989 30.4981 171.992 28.2817C 169.969 23.8097 166.016 18.4286 158.363 14.6547L 157.037 17.3453ZM 172.6 36.4C 171.854 35.0986 171.855 35.0983 171.855 35.098C 171.855 35.098 171.856 35.0977 171.856 35.0977C 171.856 35.0975 171.856 35.0977 171.855 35.0981C 171.853 35.0992 171.851 35.1002 171.847 35.1026C 171.837 35.1083 171.824 35.1153 171.804 35.1266C 171.759 35.1513 171.697 35.1848 171.607 35.2324C 171.42 35.3317 171.148 35.4716 170.767 35.6568C 169.989 36.035 168.834 36.5647 167.23 37.2124C 163.991 38.5219 159.084 40.2518 152.218 41.9963C 138.419 45.5065 117.029 49.0049 86.3 49L 86.3 52C 117.271 51.9951 139.031 48.4434 152.957 44.9037C 159.953 43.1232 165.052 41.3281 168.354 39.9938C 170.021 39.3197 171.27 38.7479 172.078 38.3549C 172.49 38.1546 172.807 37.9915 173.01 37.8843C 173.115 37.8287 173.199 37.783 173.251 37.7543C 173.279 37.7389 173.303 37.7257 173.317 37.7179C 173.325 37.7135 173.332 37.7093 173.336 37.7071C 173.338 37.7057 173.341 37.7043 173.342 37.7036C 173.343 37.7031 173.344 37.7026 173.344 37.7023C 173.345 37.7018 173.346 37.7014 172.6 36.4ZM 86.3 49C 55.5713 49.0049 34.1811 45.5065 20.3822 41.9963C 13.5157 40.2518 8.60851 38.5219 5.36992 37.2124C 3.7663 36.5647 2.61105 36.035 1.83329 35.6568C 1.452 35.4716 1.18038 35.3317 0.992671 35.2324C 0.902551 35.1848 0.840919 35.1513 0.796209 35.1266C 0.775705 35.1153 0.763144 35.1083 0.752931 35.1026C 0.748746 35.1002 0.746993 35.0992 0.744904 35.0981C 0.744319 35.0977 0.743985 35.0975 0.744278 35.0977C 0.744361 35.0977 0.744768 35.098 0.744809 35.098C 0.745309 35.0983 0.745903 35.0986 -1.2207e-05 36.4C -0.745928 37.7014 -0.745146 37.7018 -0.74427 37.7023C -0.743853 37.7026 -0.742883 37.7031 -0.742048 37.7036C -0.740838 37.7043 -0.738332 37.7057 -0.735908 37.7071C -0.731979 37.7093 -0.724699 37.7135 -0.716825 37.7179C -0.702919 37.7257 -0.679254 37.7389 -0.65133 37.7543C -0.599183 37.783 -0.515148 37.8287 -0.410029 37.8843C -0.207256 37.9915 0.109891 38.1546 0.521766 38.3549C 1.33033 38.7479 2.57899 39.3197 4.24568 39.9938C 7.54772 41.3281 12.6468 43.1232 19.6428 44.9037C 33.5689 48.4434 55.3287 51.9951 86.3 52L 86.3 49ZM -1.2207e-05 36.4C 1.4996 36.4341 1.49958 36.4348 1.49957 36.4355C 1.49956 36.4357 1.49955 36.4364 1.49954 36.4367C 1.49954 36.4366 1.49949 36.4384 1.4995 36.4381C 1.49949 36.4386 1.49949 36.4385 1.49952 36.4375C 1.49965 36.4333 1.49975 36.4304 1.50008 36.4222C 1.50091 36.4015 1.50199 36.3777 1.50436 36.3377C 1.50954 36.2487 1.5177 36.1327 1.53426 35.9649C 1.56877 35.6109 1.62849 35.1341 1.74868 34.5047C 1.99425 33.2061 2.43855 31.5019 3.34166 29.5183C 5.11862 25.5902 8.61609 20.7714 15.5635 17.3453L 14.2366 14.6547C 6.58393 18.4286 2.63139 23.8097 0.608338 28.2817C -0.388554 30.4981 -0.931767 32.5439 -1.19869 33.9453C -1.33476 34.666 -1.41254 35.2766 -1.45147 35.6726C -1.47163 35.8799 -1.48417 36.0545 -1.49052 36.1624C -1.49391 36.2208 -1.49629 36.272 -1.49749 36.3017C -1.49817 36.3187 -1.49873 36.3348 -1.499 36.3434C -1.49917 36.3487 -1.49933 36.3544 -1.4994 36.3571C -1.49945 36.359 -1.49951 36.3612 -1.49953 36.3621C -1.49955 36.3629 -1.49958 36.3638 -1.49958 36.3642C -1.49961 36.3651 -1.49962 36.3659 -1.2207e-05 36.4ZM 15.5598 17.3471C 19.0765 15.6246 25.2163 13.7561 32.5745 11.9178C 39.902 10.0868 48.2915 8.32013 56.2489 6.77239C 64.2048 5.22484 71.6966 3.90299 77.2091 2.96629C 79.9638 2.4982 82.2187 2.12725 83.7879 1.87284C 84.5718 1.74575 85.1825 1.64808 85.5984 1.58199C 85.806 1.549 85.9642 1.52402 86.071 1.5072C 86.1242 1.49882 86.1643 1.49254 86.1913 1.48831C 86.2047 1.4862 86.2147 1.48464 86.2214 1.48358C 86.2248 1.48306 86.2272 1.48268 86.2289 1.48242C 86.2297 1.48229 86.2303 1.4822 86.2307 1.48214C 86.2311 1.48208 86.2312 1.48206 86 -1.2207e-05C 85.7687 -1.48208 85.7685 -1.48204 85.768 -1.48196C 85.7675 -1.48189 85.7668 -1.48178 85.7659 -1.48164C 85.7642 -1.48137 85.7615 -1.48094 85.758 -1.4804C 85.751 -1.47931 85.7406 -1.47767 85.7268 -1.47552C 85.6995 -1.47124 85.6584 -1.46479 85.6045 -1.4563C 85.497 -1.43937 85.3367 -1.41406 85.1276 -1.38084C 84.7102 -1.31451 84.0948 -1.21609 83.3078 -1.08849C 81.7352 -0.833524 79.469 -0.460722 76.7065 0.00868536C 71.1847 0.946988 63.6577 2.27514 55.6761 3.82758C 47.696 5.37984 39.2292 7.1632 31.8474 9.00722C 24.4962 10.8438 18.0736 12.7753 14.2402 14.6529L 15.5598 17.3471Z"/>
<path id="path3_fill" d="M 1.2207e-05 0L 0.900006 9.60001L 0.900006 32.3"/>
<path id="path4_stroke" d="M 1.49346 -0.14001C 1.41614 -0.96482 0.684813 -1.57078 -0.139998 -1.49345C -0.964808 -1.41613 -1.57076 -0.6848 -1.49344 0.14001L 1.49346 -0.14001ZM 0.900006 9.60001L 2.40001 9.60001C 2.40001 9.55326 2.39782 9.50654 2.39346 9.46L 0.900006 9.60001ZM -0.599994 32.3C -0.599994 33.1284 0.071579 33.8 0.900006 33.8C 1.72843 33.8 2.40001 33.1284 2.40001 32.3L -0.599994 32.3ZM -1.49344 0.14001L -0.593445 9.74002L 2.39346 9.46L 1.49346 -0.14001L -1.49344 0.14001ZM -0.599994 9.60001L -0.599994 32.3L 2.40001 32.3L 2.40001 9.60001L -0.599994 9.60001Z"/>
<path id="path5_fill" d="M 12.2 -6.10352e-06C 6.30001 1.09999 3.89999 3.49999 -6.10352e-06 5.99999C -6.10352e-06 5.99999 0.900013 14.5 10.3 25.3C 17.3 33.3 26.2 38.9 26.2 38.9L 37.1 28.6L 12.2 -6.10352e-06Z"/>
<path id="path6_stroke" d="M 12.2 -6.10352e-06L 13.3313 -0.984959C 12.9824 -1.38573 12.4475 -1.57199 11.9251 -1.4746L 12.2 -6.10352e-06ZM -6.10352e-06 5.99999L -0.809505 4.73718C -1.28742 5.04353 -1.55144 5.59342 -1.49167 6.15794L -6.10352e-06 5.99999ZM 10.3 25.3L 9.16855 26.2848L 9.17115 26.2878L 10.3 25.3ZM 26.2 38.9L 25.4012 40.1696C 25.9804 40.534 26.7328 40.4602 27.2302 39.9902L 26.2 38.9ZM 37.1 28.6L 38.1302 29.6902C 38.7151 29.1376 38.7597 28.2219 38.2313 27.615L 37.1 28.6ZM 11.9251 -1.4746C 5.65314 -0.305252 2.91356 2.3506 -0.809505 4.73718L 0.809493 7.26281C 4.88643 4.64939 6.94687 2.50524 12.4749 1.47458L 11.9251 -1.4746ZM -6.10352e-06 5.99999C -1.49167 6.15794 -1.49159 6.15867 -1.49151 6.15943C -1.49148 6.15973 -1.49139 6.16053 -1.49133 6.16113C -1.49125 6.16185 -1.49105 6.16365 -1.49089 6.1651C -1.49068 6.16707 -1.49019 6.17144 -1.48975 6.17538C -1.48906 6.1814 -1.48768 6.19325 -1.48623 6.20524C -1.48378 6.22546 -1.47921 6.26148 -1.47373 6.30161C -1.46376 6.37428 -1.44596 6.49444 -1.42188 6.63699C -1.37608 6.90665 -1.29442 7.33028 -1.17125 7.84622C -0.931321 8.84629 -0.492743 10.3524 0.233674 12.1605C 1.66572 15.7093 4.36474 20.751 9.16856 26.2848L 11.4315 24.3152C 6.83529 19.0491 4.3843 14.4407 3.01633 11.0395C 2.34274 9.3726 1.96882 8.0787 1.74625 7.14752C 1.63816 6.69784 1.57607 6.37302 1.53593 6.13566C 1.51704 6.02469 1.50633 5.95169 1.49853 5.89457C 1.49511 5.8698 1.49348 5.85678 1.49196 5.84417C 1.49142 5.83975 1.49136 5.83925 1.49111 5.83701C 1.49109 5.83682 1.49121 5.8379 1.49122 5.83799C 1.49117 5.83757 1.49142 5.83985 1.4914 5.83964C 1.49143 5.83997 1.4915 5.84058 1.49152 5.84075C 1.49158 5.84138 1.49166 5.84205 -6.10352e-06 5.99999ZM 9.17115 26.2878C 12.7453 30.3666 16.8281 33.8633 19.9568 36.2861C 21.5301 37.5038 22.8952 38.4782 23.8492 39.1353C 24.3304 39.4667 24.7192 39.726 24.9807 39.8976C 25.1134 39.9848 25.2187 40.0529 25.2877 40.0972C 25.3231 40.12 25.3516 40.1381 25.3696 40.1496C 25.3791 40.1556 25.387 40.1606 25.3918 40.1637C 25.3944 40.1653 25.3968 40.1668 25.3981 40.1676C 25.3989 40.1681 25.3997 40.1686 25.4 40.1689C 25.4003 40.169 25.4006 40.1692 25.4007 40.1693C 25.401 40.1694 25.4012 40.1696 26.2 38.9C 26.9988 37.6304 26.999 37.6305 26.9991 37.6306C 26.9991 37.6306 26.9992 37.6306 26.9992 37.6306C 26.999 37.6305 26.999 37.6305 26.9987 37.6303C 26.9978 37.6298 26.9969 37.6292 26.9953 37.6281C 26.9914 37.6257 26.9865 37.6226 26.9789 37.6178C 26.9629 37.6076 26.9405 37.5933 26.909 37.5731C 26.8442 37.5314 26.7514 37.4714 26.6271 37.3898C 26.3745 37.224 26.0133 36.9832 25.5508 36.6646C 24.6174 36.0218 23.32 35.0962 21.7933 33.9139C 18.7219 31.5367 14.8547 28.2334 11.4289 24.3123L 9.17115 26.2878ZM 27.2302 39.9902L 38.1302 29.6902L 36.0698 27.5098L 25.1698 37.8097L 27.2302 39.9902ZM 38.2313 27.615L 13.3313 -0.984959L 11.0687 0.984947L 35.9687 29.585L 38.2313 27.615Z"/>
<path id="path7_fill" d="M 24.9 -6.10352e-06C 30.8 1.09999 33.2 3.49999 37.1 5.99999C 37.1 5.99999 36.2 14.5 26.8 25.3C 19.8 33.3 10.9 38.9 10.9 38.9L 1.2207e-05 28.6L 24.9 -6.10352e-06Z"/>
<path id="path8_stroke" d="M 24.9 -6.10352e-06L 25.1749 -1.4746C 24.6525 -1.57199 24.1176 -1.38573 23.7687 -0.984959L 24.9 -6.10352e-06ZM 37.1 5.99999L 38.5916 6.15793C 38.6514 5.59342 38.3874 5.04353 37.9095 4.73718L 37.1 5.99999ZM 26.8 25.3L 27.9289 26.2878L 27.9315 26.2848L 26.8 25.3ZM 10.9 38.9L 9.86978 39.9902C 10.3672 40.4602 11.1196 40.534 11.6988 40.1696L 10.9 38.9ZM 1.2207e-05 28.6L -1.1313 27.615C -1.65966 28.2219 -1.61506 29.1376 -1.03022 29.6902L 1.2207e-05 28.6ZM 24.6251 1.47458C 30.1531 2.50524 32.2135 4.64939 36.2905 7.26281L 37.9095 4.73718C 34.1864 2.3506 31.4469 -0.305251 25.1749 -1.4746L 24.6251 1.47458ZM 37.1 5.99999C 35.6083 5.84206 35.6084 5.84139 35.6085 5.84075C 35.6085 5.84058 35.6085 5.83998 35.6086 5.83964C 35.6086 5.83985 35.6088 5.83758 35.6088 5.838C 35.6088 5.8379 35.6089 5.83683 35.6089 5.83701C 35.6086 5.83925 35.6086 5.83976 35.608 5.84418C 35.6065 5.85678 35.6049 5.86981 35.6015 5.89457C 35.5937 5.95169 35.5829 6.02469 35.564 6.13566C 35.5239 6.37303 35.4618 6.69784 35.3537 7.14753C 35.1312 8.07871 34.7572 9.3726 34.0837 11.0395C 32.7157 14.4407 30.2647 19.0491 25.6685 24.3152L 27.9315 26.2848C 32.7353 20.751 35.4343 15.7093 36.8663 12.1605C 37.5927 10.3524 38.0313 8.84629 38.2712 7.84621C 38.3944 7.33027 38.4761 6.90665 38.5219 6.63698C 38.5459 6.49444 38.5637 6.37427 38.5737 6.30161C 38.5792 6.26148 38.5838 6.22546 38.5862 6.20523C 38.5877 6.19324 38.589 6.18139 38.5897 6.17538C 38.5902 6.17144 38.5907 6.16707 38.5909 6.1651C 38.591 6.16364 38.5912 6.16185 38.5913 6.16112C 38.5914 6.16053 38.5915 6.15973 38.5915 6.15943C 38.5916 6.15866 38.5916 6.15793 37.1 5.99999ZM 25.6711 24.3123C 22.2453 28.2334 18.3781 31.5367 15.3067 33.9139C 13.78 35.0962 12.4827 36.0218 11.5492 36.6646C 11.0867 36.9832 10.7255 37.224 10.4729 37.3898C 10.3486 37.4714 10.2558 37.5314 10.191 37.5731C 10.1596 37.5933 10.1371 37.6076 10.1211 37.6178C 10.1135 37.6226 10.1086 37.6257 10.1048 37.6281C 10.1031 37.6292 10.1022 37.6298 10.1014 37.6303C 10.1011 37.6305 10.101 37.6305 10.1009 37.6306C 10.1008 37.6306 10.1009 37.6306 10.1009 37.6306C 10.101 37.6305 10.1012 37.6304 10.9 38.9C 11.6988 40.1696 11.6991 40.1694 11.6993 40.1693C 11.6994 40.1692 11.6997 40.169 11.7 40.1689C 11.7004 40.1686 11.7011 40.1681 11.7019 40.1676C 11.7032 40.1668 11.7056 40.1653 11.7082 40.1637C 11.713 40.1606 11.7209 40.1556 11.7304 40.1496C 11.7485 40.1381 11.7769 40.12 11.8123 40.0972C 11.8813 40.0529 11.9866 39.9848 12.1193 39.8976C 12.3808 39.726 12.7696 39.4667 13.2508 39.1353C 14.2049 38.4782 15.57 37.5038 17.1433 36.2861C 20.2719 33.8633 24.3547 30.3666 27.9289 26.2878L 25.6711 24.3123ZM 11.9302 37.8097L 1.03024 27.5098L -1.03022 29.6902L 9.86978 39.9902L 11.9302 37.8097ZM 1.13132 29.585L 26.0313 0.984947L 23.7687 -0.984959L -1.1313 27.615L 1.13132 29.585Z"/>
<path id="path9_fill" d="M 4.39999 15.6C 8.69999 15.6 12.2 12.1 12.2 7.80001C 12.2 3.50001 8.69999 -1.2207e-05 4.39999 -1.2207e-05L 0 -1.2207e-05L 0 15.7L 4.39999 15.7L 4.39999 15.6Z"/>
<path id="path10_stroke" d="M 4.39999 15.6L 4.39999 14.1L 2.89999 14.1L 2.89999 15.6L 4.39999 15.6ZM 0 -1.2207e-05L 0 -1.50001L -1.5 -1.50001L -1.5 -1.2207e-05L 0 -1.2207e-05ZM 0 15.7L -1.5 15.7L -1.5 17.2L 0 17.2L 0 15.7ZM 4.39999 15.7L 4.39999 17.2L 5.89999 17.2L 5.89999 15.7L 4.39999 15.7ZM 4.39999 17.1C 9.52841 17.1 13.7 12.9284 13.7 7.80001L 10.7 7.80001C 10.7 11.2716 7.87157 14.1 4.39999 14.1L 4.39999 17.1ZM 13.7 7.80001C 13.7 2.67158 9.52842 -1.50001 4.39999 -1.50001L 4.39999 1.49999C 7.87157 1.49999 10.7 4.32843 10.7 7.80001L 13.7 7.80001ZM 4.39999 -1.50001L 0 -1.50001L 0 1.49999L 4.39999 1.49999L 4.39999 -1.50001ZM -1.5 -1.2207e-05L -1.5 15.7L 1.5 15.7L 1.5 -1.2207e-05L -1.5 -1.2207e-05ZM 0 17.2L 4.39999 17.2L 4.39999 14.2L 0 14.2L 0 17.2ZM 5.89999 15.7L 5.89999 15.6L 2.89999 15.6L 2.89999 15.7L 5.89999 15.7Z"/>
<path id="path11_fill" d="M 1.2207e-05 1.2207e-05L 1.2207e-05 70.7C 1.2207e-05 81.8 10 88.7 21.4 92.9C 33.6 97.4 47.5 98.8 52.7 98.8C 62.7 98.8 82.9 93.7 82.9 70.8L 82.9 0.0999878L 1.2207e-05 0.0999878L 1.2207e-05 1.2207e-05Z"/>
<path id="path12_stroke" d="M 21.4 92.9L 21.9191 91.4927L 21.9186 91.4925L 21.4 92.9ZM 82.9 0.0999878L 84.4 0.0999878L 84.4 -1.40001L 82.9 -1.40001L 82.9 0.0999878ZM 1.2207e-05 0.0999878L -1.49999 0.0999878L -1.49999 1.59999L 1.2207e-05 1.59999L 1.2207e-05 0.0999878ZM -1.49999 1.2207e-05L -1.49999 70.7L 1.50001 70.7L 1.50001 1.2207e-05L -1.49999 1.2207e-05ZM -1.49999 70.7C -1.49999 76.7597 1.24894 81.6357 5.40541 85.4877C 9.48709 89.2519 15.0942 92.1722 20.8814 94.3075L 21.9186 91.4925C 16.3058 89.4278 11.2129 86.7981 7.44461 83.2873C 3.75108 79.8643 1.50001 75.7403 1.50001 70.7L -1.49999 70.7ZM 20.8809 94.3073C 33.2772 98.8797 47.3581 100.3 52.7 100.3L 52.7 97.3C 47.6419 97.3 33.9228 95.9203 21.9191 91.4927L 20.8809 94.3073ZM 52.7 100.3C 57.8253 100.295 65.7983 98.9212 72.3734 94.6413C 79.074 90.2407 84.4 82.7806 84.4 70.8L 81.4 70.8C 81.4 81.7194 76.626 88.2593 70.7266 92.1337C 64.7017 96.1288 57.5747 97.3052 52.7 97.3L 52.7 100.3ZM 84.4 70.8L 84.4 0.0999878L 81.4 0.0999878L 81.4 70.8L 84.4 70.8ZM 82.9 -1.40001L 1.2207e-05 -1.40001L 1.2207e-05 1.59999L 82.9 1.59999L 82.9 -1.40001ZM 1.50001 0.0999878L 1.50001 1.2207e-05L -1.49999 1.2207e-05L -1.49999 0.0999878L 1.50001 0.0999878Z"/>
<path id="path13_fill" d="M 6.39999 3.20001C 6.39999 4.90001 5.00001 6.39999 3.20001 6.39999C 1.50001 6.39999 -6.10352e-06 5.00001 -6.10352e-06 3.20001C -6.10352e-06 1.50001 1.40001 -6.10352e-06 3.20001 -6.10352e-06C 5.00001 -6.10352e-06 6.39999 1.50001 6.39999 3.20001Z"/>
<path id="path14_stroke" d="M 3.20001 -6.10352e-06L 3.20001 1.49999L 3.20001 -6.10352e-06ZM 4.89999 3.20001C 4.89999 4.10215 4.14133 4.89999 3.20001 4.89999L 3.20001 7.89999C 5.85868 7.89999 7.89999 5.69786 7.89999 3.20001L 4.89999 3.20001ZM 3.20001 4.89999C 2.29784 4.89999 1.49999 4.14131 1.49999 3.20001L -1.50001 3.20001C -1.50001 5.8587 0.702172 7.89999 3.20001 7.89999L 3.20001 4.89999ZM 1.49999 3.20001C 1.49999 2.29786 2.25868 1.49999 3.20001 1.49999L 3.20001 -1.50001C 0.541331 -1.50001 -1.50001 0.702154 -1.50001 3.20001L 1.49999 3.20001ZM 3.20001 1.49999C 4.14131 1.49999 4.89999 2.29784 4.89999 3.20001L 7.89999 3.20001C 7.89999 0.702172 5.8587 -1.50001 3.20001 -1.50001L 3.20001 1.49999Z"/>
<path id="path15_fill" d="M 45.6 10.2C 45.6 10.2 32.1 14.5 25.8 -6.10352e-06C 19.5 14.5 -1.2207e-05 10.5 -1.2207e-05 10.5"/>
<path id="path16_stroke" d="M 25.8 -6.10352e-06L 27.1758 -0.597748C 26.9377 -1.1456 26.3973 -1.50001 25.8 -1.50001C 25.2027 -1.50001 24.6623 -1.1456 24.4243 -0.597748L 25.8 -6.10352e-06ZM 45.6 10.2C 45.1448 8.77076 45.1455 8.77053 45.1462 8.77031C 45.1463 8.77026 45.1469 8.77006 45.1472 8.76996C 45.1471 8.77 45.1488 8.76949 45.1485 8.76956C 45.1491 8.76937 45.1487 8.76952 45.1475 8.76987C 45.1432 8.77122 45.14 8.77221 45.1314 8.77474C 45.1102 8.78111 45.0855 8.78833 45.0446 8.79971C 44.9538 8.82502 44.8359 8.85626 44.6658 8.8959C 44.307 8.98007 43.8295 9.07713 43.1996 9.15773C 41.8982 9.32752 40.2416 9.40945 38.3242 9.0605C 34.616 8.40349 30.1093 6.15397 27.1758 -0.597748L 24.4243 0.597736C 27.7907 8.34602 33.184 11.1965 37.8008 12.0145C 40.0459 12.4031 42.1581 12.3162 43.5847 12.1329C 44.3189 12.0369 44.9454 11.9114 45.3494 11.817C 45.5608 11.7674 45.7391 11.7204 45.8491 11.6898C 45.9086 11.6732 45.9605 11.6581 45.9907 11.6491C 46.0079 11.6439 46.0242 11.6389 46.0328 11.6363C 46.0382 11.6346 46.0438 11.6329 46.0465 11.632C 46.0484 11.6314 46.0506 11.6307 46.0515 11.6304C 46.0522 11.6302 46.0532 11.6299 46.0535 11.6298C 46.0544 11.6295 46.0552 11.6293 45.6 10.2ZM 24.4243 -0.597748C 21.5659 5.98101 15.7229 8.42809 10.3244 9.2027C 7.61276 9.59666 5.14286 9.54855 3.26053 9.40286C 2.33394 9.33193 1.60019 9.23861 1.07064 9.15984C 0.812539 9.12156 0.621487 9.08924 0.48399 9.0647C 0.418397 9.05301 0.373039 9.04449 0.339142 9.03797C 0.323727 9.03501 0.314361 9.03317 0.306504 9.03161C 0.303331 9.03098 0.302072 9.03072 0.300464 9.0304C 0.300035 9.03031 0.299837 9.03027 0.300056 9.03031C 0.300133 9.03033 0.300471 9.0304 0.300509 9.03041C 0.300919 9.03049 0.301404 9.03059 -1.2207e-05 10.5C -0.301428 11.9694 -0.300795 11.9695 -0.300088 11.9697C -0.299753 11.9697 -0.298969 11.9699 -0.298299 11.97C -0.297331 11.9702 -0.295314 11.9706 -0.293379 11.971C -0.290257 11.9717 -0.284437 11.9728 -0.278214 11.9741C -0.267277 11.9762 -0.248577 11.9799 -0.226905 11.9841C -0.186625 11.9918 -0.121717 12.004 -0.0429494 12.0181C 0.108274 12.045 0.34232 12.0845 0.629726 12.1273C 1.1912 12.2106 2.03011 12.3165 3.03007 12.394C 5.00088 12.5452 7.79973 12.5908 10.7505 12.1723C 16.6771 11.3219 23.7341 8.51898 27.1758 0.597736L 24.4243 -0.597748Z"/>
<path id="path17_fill" d="M 6.10352e-06 21.6L 6.60001 21.6C 9.60001 21.6 12 19.2 12 16.2C 12 13.2 9.60001 10.8 6.60001 10.8L 4.00001 10.8L 4.00001 -5.68434e-14"/>
<path id="path18_stroke" d="M 6.10352e-06 20.1C -0.828421 20.1 -1.49999 20.7716 -1.49999 21.6C -1.49999 22.4284 -0.828421 23.1 6.10352e-06 23.1L 6.10352e-06 20.1ZM 4.00001 10.8L 2.50001 10.8C 2.50001 11.6284 3.17158 12.3 4.00001 12.3L 4.00001 10.8ZM 5.50001 -5.68434e-14C 5.50001 -0.828427 4.82843 -1.5 4.00001 -1.5C 3.17158 -1.5 2.50001 -0.828427 2.50001 -5.68434e-14L 5.50001 -5.68434e-14ZM 6.10352e-06 23.1L 6.60001 23.1L 6.60001 20.1L 6.10352e-06 20.1L 6.10352e-06 23.1ZM 6.60001 23.1C 10.4284 23.1 13.5 20.0284 13.5 16.2L 10.5 16.2C 10.5 18.3716 8.77159 20.1 6.60001 20.1L 6.60001 23.1ZM 13.5 16.2C 13.5 12.3716 10.4285 9.29999 6.60001 9.29999L 6.60001 12.3C 8.77157 12.3 10.5 14.0284 10.5 16.2L 13.5 16.2ZM 6.60001 9.29999L 4.00001 9.29999L 4.00001 12.3L 6.60001 12.3L 6.60001 9.29999ZM 5.50001 10.8L 5.50001 -5.68434e-14L 2.50001 -5.68434e-14L 2.50001 10.8L 5.50001 10.8Z"/>
<path id="path19_fill" d="M 6.4 3.20001C 6.4 4.90001 4.99999 6.39999 3.19999 6.39999C 1.49999 6.39999 6.10352e-06 5.00001 6.10352e-06 3.20001C 6.10352e-06 1.50001 1.39999 -6.10352e-06 3.19999 -6.10352e-06C 4.89999 -6.10352e-06 6.4 1.50001 6.4 3.20001Z"/>
<path id="path20_stroke" d="M 3.19999 -6.10352e-06L 3.19999 1.49999L 3.19999 -6.10352e-06ZM 4.9 3.20001C 4.9 4.10214 4.14133 4.89999 3.19999 4.89999L 3.19999 7.89999C 5.85864 7.89999 7.9 5.69788 7.9 3.20001L 4.9 3.20001ZM 3.19999 4.89999C 2.29784 4.89999 1.50001 4.14133 1.50001 3.20001L -1.49999 3.20001C -1.49999 5.85868 0.702136 7.89999 3.19999 7.89999L 3.19999 4.89999ZM 1.50001 3.20001C 1.50001 2.29784 2.25868 1.49999 3.19999 1.49999L 3.19999 -1.50001C 0.541295 -1.50001 -1.49999 0.702172 -1.49999 3.20001L 1.50001 3.20001ZM 3.19999 1.49999C 4.07156 1.49999 4.9 2.32843 4.9 3.20001L 7.9 3.20001C 7.9 0.671579 5.72842 -1.50001 3.19999 -1.50001L 3.19999 1.49999Z"/>
<path id="path21_fill" d="M 27.7 3.39999C 27.7 5.39999 26.1 6.99999 24.1 6.99999L 3.59999 6.99999C 1.59999 6.99999 -1.2207e-05 5.39999 -1.2207e-05 3.39999L -1.2207e-05 3.6C -1.2207e-05 1.6 1.59999 -6.10352e-06 3.59999 -6.10352e-06L 24.1 -6.10352e-06C 26.1 -6.10352e-06 27.7 1.6 27.7 3.6L 27.7 3.39999Z"/>
<path id="path22_stroke" d="M 29.2 3.39999C 29.2 2.57156 28.5284 1.89999 27.7 1.89999C 26.8716 1.89999 26.2 2.57156 26.2 3.39999L 29.2 3.39999ZM 1.49999 3.39999C 1.49999 2.57156 0.828415 1.89999 -1.2207e-05 1.89999C -0.828439 1.89999 -1.50001 2.57156 -1.50001 3.39999L 1.49999 3.39999ZM -1.50001 3.6C -1.50001 4.42843 -0.828439 5.1 -1.2207e-05 5.1C 0.828415 5.1 1.49999 4.42843 1.49999 3.6L -1.50001 3.6ZM 26.2 3.6C 26.2 4.42843 26.8716 5.1 27.7 5.1C 28.5284 5.1 29.2 4.42843 29.2 3.6L 26.2 3.6ZM 26.2 3.39999C 26.2 4.57156 25.2716 5.49999 24.1 5.49999L 24.1 8.49999C 26.9284 8.49999 29.2 6.22841 29.2 3.39999L 26.2 3.39999ZM 24.1 5.49999L 3.59999 5.49999L 3.59999 8.49999L 24.1 8.49999L 24.1 5.49999ZM 3.59999 5.49999C 2.42842 5.49999 1.49999 4.57156 1.49999 3.39999L -1.50001 3.39999C -1.50001 6.22841 0.771567 8.49999 3.59999 8.49999L 3.59999 5.49999ZM -1.50001 3.39999L -1.50001 3.6L 1.49999 3.6L 1.49999 3.39999L -1.50001 3.39999ZM 1.49999 3.6C 1.49999 2.42843 2.42842 1.49999 3.59999 1.49999L 3.59999 -1.50001C 0.771567 -1.50001 -1.50001 0.771573 -1.50001 3.6L 1.49999 3.6ZM 3.59999 1.49999L 24.1 1.49999L 24.1 -1.50001L 3.59999 -1.50001L 3.59999 1.49999ZM 24.1 1.49999C 25.2716 1.49999 26.2 2.42843 26.2 3.6L 29.2 3.6C 29.2 0.771573 26.9284 -1.50001 24.1 -1.50001L 24.1 1.49999ZM 29.2 3.6L 29.2 3.39999L 26.2 3.39999L 26.2 3.6L 29.2 3.6Z"/>
<path id="path23_fill" d="M 20.1 37.5C 20.3 37.5 20.5 37.5 20.8 37.5C 41.1 37.5 70.7 37.5 82.8 37.5C 102.1 37.5 98.9 6.10352e-06 98.9 6.10352e-06L 81.9 6.4L 81.9 6.10352e-06C 81.9 6.10352e-06 45.4 6.10352e-06 41.4 6.10352e-06C 32.8 6.10352e-06 21.1 1.49999 16.1 7.19999C 15 8.39999 16.6 19.6 16.6 19.6C 16.6 19.6 12.2 8.70001 10.8 9.50001C 3.69999 13.7 6.10352e-06 24.7 6.10352e-06 35.5L 6.10352e-06 50.8L 6.10352e-06 63.1L 0.199988 79L 0.199988 127.6C 0.199988 130.1 0.700012 132.3 1.60001 134.4C 4.60001 141.3 12 146 20.4 149.3C 21.3 149.6 21 141.3 21 141.3C 21 141.3 25.6 150.7 26.6 151.4C 31.2 154.2 41.4 158 50.2 158C 57.7 158 65 155.4 67.7 152.4C 68.6 151.4 72.1 142.8 72.1 142.8C 72.1 142.8 73.1 149.3 74 148.5C 79.3 144.2 83.2 137.6 83.2 127.5L 83.2 110.8C 83.2 113.3 76.3 114.3 74.8 113C 72.8 111.3 73.5 107.4 72.5 105.2C 71.4 102.9 69.7 101 67.6 99.5C 62.9 96.2 56.7 95.3 51.1 95.3C 43.4 95.3 34 97.1 30 104.5C 28.3 107.7 28.9 111.6 25.6 113.6C 22.9 115.2 18.6 114.5 16 113.1C 9.30001 109.4 8.69999 94.4 8.69999 87.7L 8.69999 62.2C 10.3 60.8 11.6 56.8 12.1 53.8L 12.1 50.6L 12.1 50.4L 12.1 44.1C 13 38.3 18.3 37.5 20.1 37.5Z"/>
<path id="path24_stroke" d="M 98.9 6.10352e-06L 100.395 -0.12753C 100.355 -0.595627 100.098 -1.01797 99.7003 -1.26864C 99.303 -1.5193 98.8112 -1.56933 98.3715 -1.40381L 98.9 6.10352e-06ZM 81.9 6.4L 80.4 6.4C 80.4 6.89231 80.6416 7.35328 81.0464 7.63344C 81.4512 7.9136 81.9678 7.97727 82.4285 7.80381L 81.9 6.4ZM 81.9 6.10352e-06L 83.4 6.10352e-06C 83.4 -0.828421 82.7284 -1.49999 81.9 -1.49999L 81.9 6.10352e-06ZM 16.1 7.19999L 17.2057 8.21357C 17.2131 8.20551 17.2204 8.19737 17.2277 8.18914L 16.1 7.19999ZM 16.6 19.6L 15.2091 20.1615C 15.493 20.8648 16.2572 21.2455 16.9897 21.0485C 17.7221 20.8515 18.1922 20.1387 18.0849 19.3879L 16.6 19.6ZM 10.8 9.50001L 10.0558 8.19764C 10.0493 8.20137 10.0428 8.20515 10.0363 8.20898L 10.8 9.50001ZM 6.10352e-06 63.1L -1.49999 63.1C -1.49999 63.1063 -1.49995 63.1126 -1.49988 63.1189L 6.10352e-06 63.1ZM 0.199988 79L 1.69999 79C 1.69999 78.9937 1.69995 78.9874 1.69987 78.9811L 0.199988 79ZM 1.60001 134.4L 0.221276 134.991L 0.224407 134.998L 1.60001 134.4ZM 20.4 149.3L 19.8515 150.696C 19.876 150.706 19.9007 150.715 19.9257 150.723L 20.4 149.3ZM 21 141.3L 22.3473 140.641C 22.036 140.005 21.3222 139.673 20.6353 139.845C 19.9483 140.017 19.4754 140.646 19.501 141.354L 21 141.3ZM 26.6 151.4L 25.7398 152.629C 25.766 152.647 25.7928 152.665 25.8201 152.681L 26.6 151.4ZM 67.7 152.4L 68.8149 153.403L 68.8149 153.403L 67.7 152.4ZM 72.1 142.8L 73.5826 142.572C 73.48 141.905 72.945 141.389 72.275 141.31C 71.605 141.232 70.965 141.61 70.7107 142.235L 72.1 142.8ZM 74 148.5L 73.0549 147.335C 73.0375 147.349 73.0203 147.364 73.0035 147.379L 74 148.5ZM 84.7 110.8C 84.7 109.972 84.0284 109.3 83.2 109.3C 82.3716 109.3 81.7 109.972 81.7 110.8L 84.7 110.8ZM 74.8 113L 75.7824 111.866C 75.7788 111.863 75.7751 111.86 75.7715 111.857L 74.8 113ZM 72.5 105.2L 73.8656 104.579C 73.8615 104.57 73.8574 104.562 73.8532 104.553L 72.5 105.2ZM 67.6 99.5L 68.4719 98.2794L 68.462 98.2724L 67.6 99.5ZM 30 104.5L 28.6804 103.787L 28.6753 103.796L 30 104.5ZM 25.6 113.6L 26.3647 114.89C 26.369 114.888 26.3732 114.885 26.3775 114.883L 25.6 113.6ZM 16 113.1L 15.2749 114.413C 15.2795 114.416 15.2842 114.418 15.2889 114.421L 16 113.1ZM 8.69999 62.2L 7.71223 61.0711C 7.38671 61.356 7.19999 61.7674 7.19999 62.2L 8.69999 62.2ZM 12.1 53.8L 13.5796 54.0466C 13.5932 53.9651 13.6 53.8826 13.6 53.8L 12.1 53.8ZM 12.1 44.1L 10.6178 43.87C 10.6059 43.9461 10.6 44.023 10.6 44.1L 12.1 44.1ZM 20.1 39C 20.3 39 20.5 39 20.8 39L 20.8 36C 20.5 36 20.3 36 20.1 36L 20.1 39ZM 20.8 39C 41.1 39 70.7 39 82.8 39L 82.8 36C 70.7 36 41.1 36 20.8 36L 20.8 39ZM 82.8 39C 88.2126 39 92.0579 36.3292 94.6944 32.4897C 97.2246 28.7733 98.7413 23.7812 99.5658 19.0043C 100.385 14.2224 100.597 9.40782 100.598 5.86005C 100.599 4.07651 100.548 2.57495 100.498 1.53856C 100.473 1.01589 100.447 0.598426 100.428 0.319119C 100.418 0.177348 100.41 0.0654741 100.404 -0.00762623C 100.401 -0.045203 100.399 -0.0752294 100.397 -0.0942866C 100.397 -0.10432 100.396 -0.112644 100.395 -0.117692C 100.395 -0.120467 100.395 -0.12293 100.395 -0.12432C 100.395 -0.125141 100.395 -0.125944 100.395 -0.126354C 100.395 -0.127013 100.395 -0.12753 98.9 6.10352e-06C 97.4054 0.127542 97.4054 0.127312 97.4054 0.127224C 97.4054 0.127384 97.4054 0.127437 97.4055 0.127757C 97.4055 0.128646 97.4056 0.129599 97.4058 0.131366C 97.4061 0.135401 97.4065 0.140668 97.4072 0.148658C 97.4086 0.16565 97.4105 0.189411 97.413 0.222787C 97.4183 0.291594 97.4256 0.390291 97.4347 0.523178C 97.4531 0.793188 97.4772 1.18139 97.5016 1.68411C 97.5509 2.6985 97.5994 4.12662 97.5984 5.85871C 97.5972 9.3422 97.4023 13.9026 96.6092 18.4957C 95.8212 23.0938 94.5192 27.4768 92.2213 30.7915C 90.0296 33.9833 87.0374 36 82.8 36L 82.8 39ZM 98.3715 -1.40381L 81.3715 4.99619L 82.4285 7.80381L 99.4285 1.40382L 98.3715 -1.40381ZM 83.4 6.4L 83.4 6.10352e-06L 80.4 6.10352e-06L 80.4 6.4L 83.4 6.4ZM 81.9 6.10352e-06C 81.9 -1.49999 81.8999 -1.49999 81.8996 -1.49999C 81.8993 -1.49999 81.8989 -1.49999 81.8983 -1.49999C 81.8972 -1.49999 81.8956 -1.49999 81.8934 -1.49999C 81.8889 -1.49999 81.8823 -1.49999 81.8735 -1.49999C 81.856 -1.49999 81.8298 -1.49999 81.7952 -1.49999C 81.726 -1.49999 81.6233 -1.49999 81.4891 -1.49999C 81.2208 -1.49999 80.8268 -1.49999 80.3238 -1.49999C 79.318 -1.49999 77.8766 -1.49999 76.1344 -1.49999C 72.65 -1.49999 67.9625 -1.49999 63.15 -1.49999C 53.525 -1.49999 43.4 -1.49999 41.4 -1.49999L 41.4 1.50001C 43.4 1.50001 53.525 1.50001 63.15 1.50001C 67.9625 1.50001 72.65 1.50001 76.1344 1.50001C 77.8766 1.50001 79.318 1.50001 80.3238 1.50001C 80.8268 1.50001 81.2208 1.50001 81.4891 1.50001C 81.6233 1.50001 81.726 1.50001 81.7952 1.50001C 81.8298 1.50001 81.856 1.50001 81.8735 1.50001C 81.8823 1.50001 81.8889 1.50001 81.8934 1.50001C 81.8956 1.50001 81.8972 1.50001 81.8983 1.50001C 81.8989 1.50001 81.8993 1.50001 81.8996 1.50001C 81.8999 1.50001 81.9 1.50001 81.9 6.10352e-06ZM 41.4 -1.49999C 37.0447 -1.49897 31.7974 -1.10762 27.0567 0.0023193C 22.3308 1.11352 17.7829 3.00679 14.9724 6.21083L 17.2277 8.18914C 19.4171 5.69318 23.2192 3.98646 27.7433 2.92267C 32.2526 1.85763 37.1553 1.49899 41.4 1.50001L 41.4 -1.49999ZM 14.9943 6.1864C 14.5128 6.71166 14.3808 7.45392 14.3214 7.86048C 14.2514 8.35108 14.217 8.99271 14.2141 9.63797C 14.2101 10.9076 14.3106 12.4894 14.4434 13.9829C 14.5765 15.4773 14.745 16.9408 14.8786 18.0162C 14.9457 18.556 15.0049 19.0059 15.0469 19.3168C 15.0679 19.4732 15.085 19.5973 15.0966 19.6806C 15.1025 19.7227 15.1071 19.7556 15.1102 19.7773C 15.1117 19.7884 15.1129 19.7971 15.1137 19.8027C 15.1142 19.8056 15.1145 19.808 15.1147 19.8095C 15.1148 19.8102 15.1149 19.8109 15.115 19.8113C 15.115 19.8115 15.115 19.8117 15.115 19.8119C 15.1151 19.812 15.1151 19.8121 16.6 19.6C 18.0849 19.3879 18.0849 19.3879 18.0849 19.3879C 18.0849 19.3879 18.0849 19.3878 18.0849 19.3877C 18.0849 19.3874 18.0848 19.3871 18.0847 19.3865C 18.0846 19.3852 18.0843 19.3835 18.084 19.3811C 18.0832 19.3759 18.0822 19.3685 18.0808 19.3584C 18.0778 19.3376 18.0736 19.3075 18.068 19.2673C 18.0567 19.186 18.0405 19.0682 18.02 18.916C 17.9787 18.6097 17.9215 18.1753 17.8557 17.6463C 17.7237 16.5842 17.561 15.1727 17.4316 13.7171C 17.3019 12.2606 17.2087 10.8174 17.2141 9.64951C 17.2158 9.07602 17.2369 8.64577 17.2899 8.29419C 17.3536 7.85856 17.4122 7.98831 17.2057 8.21357L 14.9943 6.1864ZM 16.6 19.6C 17.991 19.0385 17.9909 19.0384 17.9908 19.0382C 17.9908 19.0381 17.9907 19.0379 17.9906 19.0377C 17.9904 19.0373 17.9902 19.0366 17.9899 19.0358C 17.9893 19.0344 17.9883 19.032 17.9872 19.0291C 17.9849 19.0236 17.9815 19.0151 17.9771 19.0042C 17.9685 18.9831 17.9554 18.9509 17.9386 18.91C 17.9056 18.8292 17.8562 18.7089 17.7936 18.5582C 17.6695 18.2591 17.4883 17.8274 17.2685 17.3164C 16.8307 16.2992 16.2228 14.9304 15.5743 13.5947C 14.9252 12.259 14.1939 10.8807 13.543 9.90562C 13.203 9.40057 12.7893 8.88882 12.4363 8.57318C 12.2351 8.39795 11.941 8.18052 11.5644 8.05667C 11.1463 7.91917 10.5902 7.89223 10.0558 8.19764L 11.5442 10.8024C 11.1847 11.0078 10.8271 10.9722 10.6272 10.9065C 10.4689 10.8545 10.4129 10.7892 10.466 10.8354C 10.6216 10.9628 10.7814 11.1713 11.0508 11.5756C 11.6186 12.4193 12.2498 13.6161 12.8757 14.9054C 13.5022 16.1946 14.0818 17.5008 14.5128 18.5023C 14.7273 19.0007 14.9009 19.4144 15.0228 19.7082C 15.0833 19.854 15.1298 19.9671 15.1619 20.0456C 15.1777 20.0843 15.1895 20.1132 15.1976 20.1333C 15.2016 20.1431 15.2045 20.1501 15.2065 20.1551C 15.2074 20.1575 15.2081 20.1591 15.2086 20.1603C 15.2088 20.1608 15.2089 20.1611 15.209 20.1614C 15.2091 20.1615 15.2091 20.1615 15.2091 20.1616C 15.2091 20.1615 15.2091 20.1615 16.6 19.6ZM 10.0363 8.20898C 6.09755 10.5389 3.22455 14.6712 1.34091 19.4777C -0.520329 24.2487 -1.4947 29.9741 -1.49999 35.5L 1.50001 35.5C 1.49471 30.226 2.37034 25.0513 4.13409 20.5723C 5.87545 16.1288 8.40244 12.6611 11.5637 10.791L 10.0363 8.20898ZM -1.49999 35.5L -1.49999 50.8L 1.50001 50.8L 1.50001 35.5L -1.49999 35.5ZM -1.49999 50.8L -1.49999 63.1L 1.50001 63.1L 1.50001 50.8L -1.49999 50.8ZM -1.49988 63.1189L -1.29989 79.0189L 1.69987 78.9811L 1.49989 63.0811L -1.49988 63.1189ZM -1.30001 79L -1.30001 127.6L 1.69999 127.6L 1.69999 79L -1.30001 79ZM -1.30001 127.6C -1.29066 130.267 -0.726558 132.764 0.221295 134.991L 2.97873 133.809C 2.12658 131.836 1.69063 129.933 1.69999 127.6L -1.30001 127.6ZM 0.224407 134.998C 3.47475 142.474 11.3705 147.364 19.8515 150.696L 20.9485 147.904C 12.6295 144.636 5.72527 140.126 2.97562 133.802L 0.224407 134.998ZM 19.9257 150.723C 20.6011 150.948 21.2123 150.7 21.5812 150.354C 21.8705 150.082 22.0128 149.763 22.0802 149.591C 22.1997 149.272 22.3029 148.796 22.3602 148.375C 22.4658 147.575 22.518 146.48 22.5372 145.44C 22.5562 144.401 22.5467 143.345 22.5326 142.565C 22.5254 142.173 22.517 141.842 22.5105 141.613C 22.5072 141.498 22.5044 141.406 22.5024 141.344C 22.5013 141.313 22.5005 141.288 22.5 141.272C 22.4997 141.264 22.4994 141.257 22.4993 141.253C 22.4992 141.251 22.4991 141.249 22.4991 141.248C 22.4991 141.247 22.4991 141.247 22.4991 141.247C 22.499 141.246 22.499 141.246 22.499 141.246C 22.499 141.246 22.499 141.246 21 141.3C 19.501 141.354 19.501 141.354 19.501 141.354C 19.501 141.354 19.501 141.354 19.501 141.354C 19.501 141.354 19.501 141.355 19.501 141.355C 19.501 141.356 19.5011 141.357 19.5012 141.359C 19.5013 141.363 19.5015 141.368 19.5017 141.375C 19.5023 141.391 19.503 141.413 19.5039 141.442C 19.5059 141.502 19.5086 141.588 19.5117 141.699C 19.5181 141.923 19.5261 142.238 19.5331 142.619C 19.547 143.386 19.5563 144.387 19.5378 145.385C 19.5195 146.383 19.4779 147.306 19.3867 147.978C 19.3455 148.293 19.2518 148.571 19.2882 148.494C 19.2883 148.491 19.3436 148.385 19.3315 148.408C 19.3588 148.362 19.42 148.268 19.5289 148.166C 19.8033 147.908 20.3114 147.689 20.8743 147.877L 19.9257 150.723ZM 21 141.3C 19.6527 141.959 19.6527 141.959 19.6528 141.959C 19.6528 141.96 19.6529 141.96 19.653 141.96C 19.6531 141.96 19.6534 141.961 19.6537 141.961C 19.6542 141.963 19.6552 141.964 19.6563 141.967C 19.6586 141.971 19.662 141.978 19.6665 141.988C 19.6753 142.006 19.6886 142.033 19.7058 142.068C 19.74 142.137 19.7906 142.24 19.8549 142.37C 19.9832 142.629 20.1685 143.003 20.3932 143.451C 20.8416 144.347 21.4538 145.555 22.0959 146.783C 22.7377 148.01 23.4232 149.281 24.0077 150.283C 24.3028 150.788 24.5928 151.258 24.8339 151.611C 25.0297 151.898 25.3545 152.359 25.7398 152.629L 27.4602 150.171C 27.5955 150.266 27.5578 150.28 27.3106 149.919C 27.1088 149.624 26.8753 149.245 26.5986 148.77C 26.0394 147.813 25.3873 146.603 24.7542 145.392C 24.1212 144.182 23.5209 142.997 23.0756 142.108C 22.8533 141.664 22.6715 141.298 22.5443 141.041C 22.4809 140.912 22.4317 140.812 22.398 140.744C 22.3812 140.71 22.3686 140.684 22.36 140.666C 22.3557 140.658 22.3525 140.651 22.3504 140.647C 22.3493 140.645 22.3486 140.643 22.348 140.642C 22.3478 140.642 22.3476 140.641 22.3475 140.641C 22.3474 140.641 22.3474 140.641 22.3473 140.641C 22.3473 140.641 22.3473 140.641 21 141.3ZM 25.8201 152.681C 30.6086 155.596 41.0751 159.5 50.2 159.5L 50.2 156.5C 41.7249 156.5 31.7915 152.804 27.3799 150.119L 25.8201 152.681ZM 50.2 159.5C 54.0803 159.494 58.0162 158.805 61.2209 157.749C 64.424 156.69 67.211 155.186 68.8149 153.403L 66.585 151.397C 65.4889 152.614 63.276 153.91 60.2791 154.901C 57.2838 155.895 53.8197 156.506 50.2 156.5L 50.2 159.5ZM 68.8149 153.403C 69.0579 153.134 69.2846 152.746 69.462 152.423C 69.6566 152.068 69.8858 151.614 70.1194 151.127C 70.5829 150.162 71.1166 148.967 71.6135 147.822C 72.1105 146.677 72.5805 145.56 72.9238 144.736C 73.0958 144.323 73.2374 143.98 73.3352 143.742C 73.3843 143.622 73.4229 143.528 73.4489 143.465C 73.462 143.433 73.4721 143.408 73.4788 143.391C 73.4822 143.383 73.4849 143.376 73.4866 143.372C 73.4875 143.37 73.4882 143.368 73.4886 143.367C 73.4888 143.367 73.489 143.366 73.4891 143.366C 73.4892 143.366 73.4893 143.366 73.4893 143.366C 73.4893 143.365 73.4894 143.365 72.1 142.8C 70.7107 142.235 70.7107 142.235 70.7107 142.235C 70.7106 142.235 70.7106 142.235 70.7106 142.235C 70.7105 142.235 70.7103 142.235 70.7101 142.236C 70.7097 142.237 70.7092 142.238 70.7083 142.24C 70.7067 142.244 70.7043 142.25 70.701 142.258C 70.6945 142.274 70.6848 142.298 70.6721 142.329C 70.6464 142.392 70.6089 142.484 70.5605 142.601C 70.4634 142.837 70.3245 143.174 70.1543 143.583C 69.8132 144.402 69.352 145.498 68.8615 146.628C 68.3709 147.758 67.8608 148.901 67.415 149.829C 66.9746 150.747 66.473 151.505 66.585 151.397L 68.8149 153.403ZM 72.1 142.8C 70.6175 143.028 70.6175 143.028 70.6175 143.028C 70.6175 143.028 70.6175 143.029 70.6176 143.029C 70.6176 143.029 70.6177 143.03 70.6178 143.03C 70.6179 143.031 70.6182 143.033 70.6185 143.035C 70.619 143.038 70.6199 143.044 70.6209 143.05C 70.6229 143.063 70.6261 143.083 70.6301 143.108C 70.6379 143.157 70.6498 143.231 70.6648 143.322C 70.6944 143.502 70.7389 143.764 70.7942 144.07C 70.9038 144.676 71.0651 145.504 71.2532 146.297C 71.4423 147.091 71.6925 147.96 71.9522 148.555C 72.075 148.832 72.2936 149.276 72.6617 149.604C 72.8635 149.784 73.2253 150.032 73.7338 150.065C 74.2821 150.1 74.7172 149.869 74.9966 149.621L 73.0035 147.379C 73.1704 147.231 73.4921 147.043 73.9269 147.071C 74.3219 147.096 74.5699 147.286 74.6582 147.365C 74.7994 147.491 74.7922 147.559 74.6947 147.339C 74.5137 146.94 74.3453 146.334 74.1718 145.603C 73.9975 144.871 73.8524 144.124 73.7464 143.536C 73.6939 143.246 73.6532 143.006 73.6247 142.833C 73.6106 142.748 73.6002 142.683 73.5928 142.637C 73.5893 142.615 73.5867 142.598 73.5849 142.587C 73.584 142.581 73.5835 142.578 73.583 142.575C 73.5828 142.574 73.5827 142.573 73.5826 142.572C 73.5826 142.572 73.5826 142.572 73.5825 142.572C 73.5825 142.572 73.5826 142.572 73.5825 142.572C 73.5826 142.572 73.5826 142.572 72.1 142.8ZM 74.9451 149.665C 80.5986 145.078 84.7 138.049 84.7 127.5L 81.7 127.5C 81.7 137.151 78.0014 143.322 73.0549 147.335L 74.9451 149.665ZM 84.7 127.5L 84.7 110.8L 81.7 110.8L 81.7 127.5L 84.7 127.5ZM 81.7 110.8C 81.7 110.659 81.7989 110.795 81.2952 111.114C 80.7742 111.456 80.1162 111.68 79.2554 111.857C 78.3917 112.04 77.5862 112.106 76.8326 112.059C 76.1171 112.024 75.695 111.737 75.7824 111.866L 73.8176 114.134C 74.5954 114.808 75.7542 115.001 76.658 115.054C 77.6201 115.106 78.8208 115.01 79.8696 114.793C 80.9212 114.57 82.0821 114.156 82.9016 113.648C 83.7385 113.117 84.7 112.191 84.7 110.8L 81.7 110.8ZM 75.7715 111.857C 75.2525 111.416 74.9646 110.572 74.7612 109.084C 74.6653 108.386 74.5953 107.628 74.4831 106.883C 74.3687 106.133 74.1733 105.277 73.8656 104.579L 71.1345 105.821C 71.3267 106.223 71.4188 106.679 71.5169 107.332C 71.6172 107.99 71.6847 108.727 71.7888 109.491C 71.9854 110.928 72.3475 112.884 73.8285 114.143L 75.7715 111.857ZM 73.8532 104.553C 72.6481 102.068 70.701 99.8828 68.4719 98.2794L 66.7282 100.721C 68.6991 102.117 70.1519 103.732 71.1468 105.847L 73.8532 104.553ZM 68.462 98.2724C 63.3833 94.7065 56.8063 93.8 51.1 93.8L 51.1 96.8C 56.5938 96.8 62.4168 97.6935 66.7381 100.728L 68.462 98.2724ZM 51.1 93.8C 47.1714 93.8021 42.6396 94.288 38.6536 95.714C 34.6072 97.1733 30.9055 99.6704 28.6804 103.787L 31.3196 105.213C 33.0945 101.93 36.0928 99.8267 39.6714 98.536C 43.3104 97.212 47.3286 96.7979 51.1 96.8L 51.1 93.8ZM 28.6753 103.796C 27.7266 105.627 27.4108 107.549 26.9603 109.079C 26.5243 110.57 25.9952 111.607 24.8226 112.317L 26.3775 114.883C 28.5048 113.594 29.3257 111.68 29.8398 109.921C 30.3392 108.201 30.5734 106.573 31.3247 105.204L 28.6753 103.796ZM 24.8353 112.31C 23.8513 112.893 22.4518 113.115 20.8915 112.981C 19.3094 112.852 17.8768 112.415 16.7112 111.779L 15.2889 114.421C 16.7232 115.185 18.7406 115.798 20.6335 115.969C 22.5482 116.135 24.6487 115.907 26.3647 114.89L 24.8353 112.31ZM 16.7251 111.787C 15.4176 111.065 14.302 109.729 13.379 107.851C 12.4333 105.94 11.7892 103.697 11.3096 101.237C 10.3409 96.3098 10.1998 91.0293 10.2 87.7L 7.19999 87.7C 7.20013 91.0707 7.35912 96.6402 8.36538 101.813C 8.87329 104.403 9.63545 107.023 10.6866 109.174C 11.7605 111.359 13.2324 113.285 15.2749 114.413L 16.7251 111.787ZM 10.2 87.7L 10.2 62.2L 7.19999 62.2L 7.19999 87.7L 10.2 87.7ZM 9.68774 63.3289C 10.7839 62.3697 11.6146 60.716 12.2151 59.1316C 12.8299 57.5033 13.3176 55.6104 13.5796 54.0466L 10.6204 53.5534C 10.3825 54.9896 9.97014 56.5967 9.40988 58.0683C 8.8354 59.584 8.21611 60.6302 7.71223 61.0711L 9.68774 63.3289ZM 13.6 53.8L 13.6 50.6L 10.6 50.6L 10.6 53.8L 13.6 53.8ZM 13.6 50.6L 13.6 50.4L 10.6 50.4L 10.6 50.6L 13.6 50.6ZM 13.6 50.4L 13.6 44.1L 10.6 44.1L 10.6 50.4L 13.6 50.4ZM 13.5823 44.33C 13.9536 41.9367 15.1875 40.6615 16.4918 39.9358C 17.8826 39.1285 19.2841 38.9976 20.1 39L 20.1 36C 19.1159 36.0024 16.9675 36.2715 15.0332 37.3142C 13.0125 38.4385 11.1464 40.4633 10.6178 43.87L 13.5823 44.33Z"/>
<path id="path25_fill" d="M 1.2207e-05 19.5C 1.2207e-05 4.80001 11.6 1.2207e-05 26.3 1.2207e-05C 41 1.2207e-05 52.9 4.49999 52.9 19.2C 52.9 19.2 37.2 24.2 29.9 7.3C 22.6 24.1 1.2207e-05 19.5 1.2207e-05 19.5Z"/>
<path id="path26_stroke" d="M 1.2207e-05 19.5L -1.49999 19.5C -1.49999 20.2131 -0.997939 20.8276 -0.299163 20.9699L 1.2207e-05 19.5ZM 52.9 19.2L 53.3552 20.6293C 53.9775 20.4311 54.4 19.8531 54.4 19.2L 52.9 19.2ZM 29.9 7.3L 31.277 6.70519C 31.0399 6.15631 30.4995 5.80065 29.9016 5.8C 29.3037 5.79935 28.7625 6.15384 28.5243 6.70221L 29.9 7.3ZM 1.50001 19.5C 1.50001 12.6188 4.17424 8.23986 8.44713 5.50025C 12.8312 2.68937 19.0664 1.50001 26.3 1.50001L 26.3 -1.49999C 18.8336 -1.49999 11.9188 -0.289346 6.82789 2.97477C 1.62578 6.31016 -1.49999 11.6812 -1.49999 19.5L 1.50001 19.5ZM 26.3 1.50001C 33.546 1.50001 39.8639 2.61795 44.3262 5.36488C 48.6682 8.03777 51.4 12.3384 51.4 19.2L 54.4 19.2C 54.4 11.3616 51.1818 6.06223 45.8988 2.81013C 40.7361 -0.367932 33.754 -1.49999 26.3 -1.49999L 26.3 1.50001ZM 52.9 19.2C 52.4448 17.7707 52.4455 17.7705 52.4462 17.7703C 52.4463 17.7702 52.4469 17.7701 52.4472 17.77C 52.4472 17.77 52.4483 17.7696 52.4482 17.7696C 52.4491 17.7694 52.4477 17.7698 52.446 17.7703C 52.4406 17.772 52.4358 17.7735 52.4252 17.7766C 52.3997 17.7843 52.3689 17.7933 52.3198 17.8069C 52.2126 17.8368 52.0707 17.8744 51.8696 17.9212C 51.4487 18.0198 50.8815 18.1349 50.1408 18.2295C 48.6176 18.4274 46.6554 18.522 44.4008 18.1108C 40.0191 17.3295 34.7118 14.6568 31.277 6.70519L 28.523 7.89481C 32.3882 16.8432 38.581 20.1205 43.8742 21.0642C 46.4571 21.5155 48.8761 21.4163 50.5248 21.2048C 51.3701 21.0948 52.0865 20.9512 52.5527 20.8424C 52.7951 20.7856 52.9976 20.7323 53.124 20.6971C 53.1917 20.6783 53.2499 20.6613 53.2843 20.651C 53.3036 20.6452 53.3214 20.6398 53.3312 20.6368C 53.3371 20.635 53.3431 20.6331 53.3461 20.6321C 53.3481 20.6315 53.3504 20.6308 53.3514 20.6305C 53.3521 20.6302 53.3531 20.6299 53.3535 20.6298C 53.3543 20.6295 53.3552 20.6293 52.9 19.2ZM 28.5243 6.70221C 25.1656 14.4318 18.2966 17.3036 11.9976 18.2155C 8.83578 18.678 5.94697 18.6266 3.75837 18.4605C 2.67863 18.3794 1.81986 18.2715 1.20359 18.1808C 0.902126 18.1366 0.677281 18.0989 0.516834 18.0705C 0.439766 18.0569 0.385642 18.0468 0.345849 18.0392C 0.327485 18.0357 0.315889 18.0334 0.306538 18.0316C 0.302618 18.0308 0.300797 18.0305 0.298813 18.0301C 0.298195 18.0299 0.297668 18.0298 0.29798 18.0299C 0.298011 18.0299 0.298314 18.03 0.298328 18.03C 0.298715 18.0301 0.299187 18.0301 1.2207e-05 19.5C -0.299163 20.9699 -0.298518 20.97 -0.297787 20.9702C -0.297428 20.9702 -0.296609 20.9704 -0.295892 20.9705C -0.294829 20.9708 -0.292671 20.9712 -0.290548 20.9716C -0.287051 20.9723 -0.280668 20.9736 -0.273698 20.975C -0.261267 20.9774 -0.240336 20.9815 -0.215716 20.9862C -0.169541 20.995 -0.0958694 21.0087 -0.00562767 21.0246C 0.168544 21.0554 0.436375 21.1002 0.767136 21.1489C 1.41532 21.2441 2.37921 21.3644 3.53228 21.452C 5.8093 21.6234 9.02674 21.672 12.4274 21.1845C 19.2534 20.1964 27.3344 16.9682 31.2757 7.89779L 28.5243 6.70221Z"/>
<path id="path27_stroke" d="M 12.241 17.918C 12.8584 18.2268 13.6093 17.9765 13.918 17.359C 14.2268 16.7415 13.9765 15.9907 13.359 15.682L 12.241 17.918ZM 1.10001 6.19999L -0.0559088 6.67596L -0.0504015 6.68892L 1.10001 6.19999ZM 1.25001 1.2207e-05C 1.25001 -0.690344 0.690362 -1.24999 6.10352e-06 -1.24999C -0.69035 -1.24999 -1.24999 -0.690344 -1.24999 1.2207e-05L 1.25001 1.2207e-05ZM 13.359 15.682C 7.48191 12.7434 3.78425 9.32008 2.25043 5.71107L -0.0504015 6.68892C 1.81577 11.0799 6.11808 14.8566 12.241 17.918L 13.359 15.682ZM 2.25586 5.72406C 1.5901 4.11766 1.24167 2.6559 1.25001 1.00001L -1.24999 1.00001C -1.24166 2.94413 -0.79008 4.88233 -0.0558354 6.67593L 2.25586 5.72406ZM 1.25001 1.00001L 1.25001 1.2207e-05L -1.24999 1.2207e-05L -1.24999 1.00001L 1.25001 1.00001Z"/>
<path id="path28_fill" d="M 1.3 6.10352e-06C 0.8 1.00001 0.300012 1.99999 1.2207e-05 3.29999Z"/>
<path id="path29_stroke" d="M 2.41803 0.559023C 2.72677 -0.05845 2.47649 -0.809291 1.85902 -1.11803C 1.24154 -1.42676 0.490703 -1.17648 0.181966 -0.559011L 2.41803 0.559023ZM -1.21798 3.01892C -1.37321 3.6916 -0.953739 4.36275 -0.281062 4.51798C 0.391615 4.67322 1.06277 4.25375 1.218 3.58107L -1.21798 3.01892ZM 0.181966 -0.559011C -0.318035 0.440992 -0.876239 1.57699 -1.21798 3.01892L 1.218 3.58107C 1.47626 2.423 1.91804 1.55902 2.41803 0.559023L 0.181966 -0.559011Z"/>
<path id="path30_fill" d="M 12.2 15.6L 7.80001 15.6C 3.50001 15.6 -6.10352e-06 12.1 -6.10352e-06 7.79999C -6.10352e-06 3.49999 3.50001 6.10352e-06 7.80001 6.10352e-06L 12.2 6.10352e-06L 12.2 15.6Z"/>
<path id="path31_stroke" d="M 12.2 15.6L 12.2 17.1C 13.0284 17.1 13.7 16.4284 13.7 15.6L 12.2 15.6ZM 12.2 6.10352e-06L 13.7 6.10352e-06C 13.7 -0.828421 13.0284 -1.49999 12.2 -1.49999L 12.2 6.10352e-06ZM 12.2 14.1L 7.80001 14.1L 7.80001 17.1L 12.2 17.1L 12.2 14.1ZM 7.80001 14.1C 4.32844 14.1 1.49999 11.2716 1.49999 7.79999L -1.50001 7.79999C -1.50001 12.9284 2.67158 17.1 7.80001 17.1L 7.80001 14.1ZM 1.49999 7.79999C 1.49999 4.32843 4.32843 1.50001 7.80001 1.50001L 7.80001 -1.49999C 2.67159 -1.49999 -1.50001 2.67156 -1.50001 7.79999L 1.49999 7.79999ZM 7.80001 1.50001L 12.2 1.50001L 12.2 -1.49999L 7.80001 -1.49999L 7.80001 1.50001ZM 10.7 6.10352e-06L 10.7 15.6L 13.7 15.6L 13.7 6.10352e-06L 10.7 6.10352e-06Z"/>
<path id="path32_stroke" d="M 81.6747 0.427185C 81.9107 -0.221607 81.576 -0.938811 80.9272 -1.17474C 80.2784 -1.41066 79.5612 -1.07596 79.3253 -0.427173L 81.6747 0.427185ZM 77.2 5.69999L 76.2862 4.84709C 76.2802 4.8535 76.2743 4.85996 76.2685 4.86649L 77.2 5.69999ZM 8.1 8.4L 8.1 7.15C 8.08513 7.15 8.07025 7.15027 8.05539 7.1508L 8.1 8.4ZM -0.82023 10.4567C -1.34118 10.9097 -1.39626 11.6993 -0.943263 12.2202C -0.490266 12.7412 0.299271 12.7963 0.820217 12.3433L -0.82023 10.4567ZM 79.3253 -0.427173C 78.5616 1.68369 77.5877 3.46671 76.2862 4.84709L 78.1138 6.55289C 79.6123 4.93327 80.8384 2.71633 81.6747 0.427185L 79.3253 -0.427173ZM 76.2685 4.86649C 74.831 6.47307 73.1843 7.15 70.9 7.15L 70.9 9.65C 73.8156 9.65 76.169 8.72691 78.1316 6.53348L 76.2685 4.86649ZM 70.9 7.15L 8.1 7.15L 8.1 9.65L 70.9 9.65L 70.9 7.15ZM 8.05539 7.1508C 5.09644 7.26669 1.69677 8.30519 -0.82023 10.4567L 0.820217 12.3433C 2.90322 10.4948 5.50356 9.73331 8.14461 9.6492L 8.05539 7.1508Z"/>
<path id="path33_stroke" d="M 31.4089 5.88123C 32.0613 5.65541 32.407 4.94349 32.1812 4.29111C 31.9554 3.63873 31.2435 3.29294 30.5911 3.51877L 31.4089 5.88123ZM 0.300006 0.499988L -0.583877 1.38387C -0.508406 1.45934 -0.42358 1.52484 -0.331468 1.57876L 0.300006 0.499988ZM 1.11802 -0.559029C 0.809285 -1.1765 0.0584439 -1.42678 -0.559029 -1.11805C -1.1765 -0.80931 -1.42678 -0.0584683 -1.11805 0.559005L 1.11802 -0.559029ZM 30.5911 3.51877C 28.0652 4.39567 24.9696 5.05683 21.5 5.05001L 21.5 7.55001C 25.2304 7.54319 28.7348 6.80433 31.4089 5.88123L 30.5911 3.51877ZM 21.5 5.05001L 21.3 5.05001L 21.3 7.55001L 21.5 7.55001L 21.5 5.05001ZM 21.3 5.05001C 13.7737 5.05001 4.89015 1.73849 0.93148 -0.57878L -0.331468 1.57876C 3.90986 4.06149 13.2263 7.55001 21.3 7.55001L 21.3 5.05001ZM 1.18389 -0.383896C 1.22819 -0.339598 1.25017 -0.307415 1.25111 -0.306063C 1.25648 -0.299205 1.25005 -0.306537 1.23528 -0.332729C 1.20578 -0.384338 1.17179 -0.451501 1.11802 -0.559029L -1.11805 0.559005C -1.06315 0.668802 -0.863631 1.10412 -0.583877 1.38387L 1.18389 -0.383896Z"/>
<path id="path34_fill" d="M -1.2207e-05 4.69999C 3.89999 1.79999 11.7 6.10352e-06 21.1 6.10352e-06Z"/>
<path id="path35_stroke" d="M -0.745891 3.69691C -1.29988 4.10885 -1.41503 4.89188 -1.00309 5.44587C -0.591153 5.99985 0.191882 6.115 0.745866 5.70307L -0.745891 3.69691ZM 21.1 1.25001C 21.7904 1.25001 22.35 0.690362 22.35 6.10352e-06C 22.35 -0.69035 21.7904 -1.24999 21.1 -1.24999L 21.1 1.25001ZM 0.745866 5.70307C 4.31236 3.05106 11.7704 1.25001 21.1 1.25001L 21.1 -1.24999C 11.6296 -1.24999 3.48761 0.54892 -0.745891 3.69691L 0.745866 5.70307Z"/>
</defs>
</svg>
