<svg width="232" height="231" viewBox="0 0 232 231" version="1.1" xmlns="http://www.w3.org/2000/svg" xmlns:xlink="http://www.w3.org/1999/xlink"><title>dan</title><desc>Created using Figma</desc><use xlink:href="#a" fill="#FFF"/><g transform="translate(29.9 147.2)"><use xlink:href="#b" fill="#FFF"/><use xlink:href="#c" fill="#333"/></g><g transform="translate(117.3 164.4)"><use xlink:href="#d" fill="#FFF"/><use xlink:href="#e" fill="#333"/></g><g transform="translate(81 145.3)"><use xlink:href="#f" fill="#FFF"/><use xlink:href="#g" fill="#333"/></g><g transform="translate(118.3 144.3)"><use xlink:href="#h" fill="#FFF"/><use xlink:href="#i" fill="#333"/></g><g transform="translate(149.6 78.7)"><use xlink:href="#j" fill="#FFF"/><use xlink:href="#k" fill="#333"/></g><g transform="translate(73.8 54.6)"><use xlink:href="#l" fill="#FFF"/><use xlink:href="#m" fill="#333"/></g><g transform="translate(144.5 76.3)"><use xlink:href="#n" fill="#FFF"/><use xlink:href="#o" fill="#333"/></g><g transform="translate(101.9 118.8)"><use xlink:href="#p" fill="#FFF"/><use xlink:href="#q" fill="#333"/></g><g transform="translate(123.2 78.9)"><use xlink:href="#r" fill="#FFF"/><use xlink:href="#s" fill="#333"/></g><g transform="translate(102.7 76.3)"><use xlink:href="#t" fill="#FFF"/><use xlink:href="#u" fill="#333"/></g><g transform="translate(91.9 68.3)"><use xlink:href="#v" fill="#828282"/><use xlink:href="#w" fill="#333"/></g><g transform="translate(133.9 68.3)"><use xlink:href="#v" fill="#828282"/><use xlink:href="#w" fill="#333"/></g><g transform="translate(73.7 17)"><use xlink:href="#x" fill="#828282"/><use xlink:href="#y" fill="#333"/></g><g transform="translate(98.3 111.6)"><use xlink:href="#z" fill="#828282"/><use xlink:href="#A" fill="#333"/></g><use xlink:href="#B" transform="translate(77.7 143.6)" fill="#333"/><g transform="translate(81.8 56.5)"><use xlink:href="#C" fill="#FFF"/><use xlink:href="#D" fill="#333"/></g><g transform="translate(65.5 78.5)"><use xlink:href="#E" fill="#FFF"/><use xlink:href="#F" fill="#333"/></g><use xlink:href="#G" transform="translate(85.5 42)" fill="#333"/><use xlink:href="#H" transform="translate(102.4 164.7)" fill="#333"/><g transform="translate(93.9 21)"><use xlink:href="#I" fill="#FFF"/><use xlink:href="#J" fill="#333"/></g><defs><path id="a" d="M231.045 115.5c0 63.789-51.721 115.5-115.522 115.5C51.721 231 0 179.289 0 115.5S51.721 0 115.523 0c63.801 0 115.522 51.711 115.522 115.5z"/><path id="b" d="M86 0s57.1 8.8 71.7 16c14.6 7.2 14.9 20.4 14.9 20.4S148 50.5 86.3 50.5C24.6 50.5 0 36.4 0 36.4S.3 23.2 14.9 16C29.6 8.8 86 0 86 0z"/><path id="c" d="M86 0l.228-1.483a1.5 1.5 0 0 0-.46 0L86 0zm86.6 36.4l.746 1.301c.477-.273.766-.785.754-1.335l-1.5.034zM0 36.4l-1.5-.034A1.5 1.5 0 0 0-.746 37.7L0 36.4zM14.9 16l-.66-1.347-.003.002L14.9 16zM86 0l-.228 1.483h.002l.007.001a11.855 11.855 0 0 1 .153.024l.478.074c.421.067 1.04.164 1.833.291 1.588.255 3.87.626 6.656 1.094a922.149 922.149 0 0 1 21.19 3.806c8.039 1.548 16.506 3.314 23.885 5.145 7.412 1.84 13.573 3.707 17.061 5.427l1.326-2.69c-3.812-1.88-10.263-3.812-17.664-5.648-7.434-1.844-15.979-3.628-24.04-5.18A927.112 927.112 0 0 0 95.399.008a903.819 903.819 0 0 0-9.128-1.484l-.032-.005-.008-.001h-.002L86 0zm71.037 17.345c6.947 3.426 10.444 8.245 12.221 12.173a21.589 21.589 0 0 1 1.593 4.987c.12.63.18 1.106.215 1.46.016.168.024.284.03.373l.004.084v.013l1.5-.035c1.5-.034 1.5-.035 1.5-.036v-.002l-.001-.005v-.014l-.002-.041a11.128 11.128 0 0 0-.046-.63 19.863 19.863 0 0 0-.252-1.727 25.982 25.982 0 0 0-1.807-5.663c-2.023-4.472-5.976-9.853-13.629-13.627l-1.326 2.69zM172.6 36.4c-.746-1.301-.745-1.302-.745-1.302h0l-.008.005-.043.024-.197.105c-.187.1-.459.24-.84.425-.778.378-1.933.908-3.537 1.555-3.239 1.31-8.146 3.04-15.012 4.784-13.799 3.51-35.189 7.009-65.918 7.004v3c30.971-.005 52.731-3.557 66.657-7.096 6.996-1.78 12.095-3.576 15.397-4.91a60.5 60.5 0 0 0 3.724-1.64 31.864 31.864 0 0 0 1.173-.6l.066-.036.019-.01.006-.004.002-.002c.001 0 .002 0-.744-1.302zM86.3 49c-30.729.005-52.119-3.493-65.918-7.004-6.866-1.744-11.773-3.474-15.012-4.784a56.363 56.363 0 0 1-3.537-1.555 27.192 27.192 0 0 1-1.088-.559s-.001 0 0 0L0 36.4c-.746 1.301-.745 1.302-.744 1.302l.002.002.006.003c.004.002.011.007.02.01a10.939 10.939 0 0 0 .306.167c.203.108.52.27.932.47.808.394 2.057.966 3.724 1.64 3.302 1.334 8.4 3.13 15.397 4.91C33.569 48.444 55.329 51.995 86.3 52v-3zM0 36.4l1.5.035v.003a1.403 1.403 0 0 1 .004-.1 9.01 9.01 0 0 1 .03-.373c.035-.354.094-.83.215-1.46.245-1.299.69-3.003 1.593-4.987 1.777-3.928 5.274-8.747 12.222-12.173l-1.327-2.69C6.584 18.429 2.63 23.81.608 28.282a25.983 25.983 0 0 0-1.807 5.663 20.27 20.27 0 0 0-.252 1.728 13.398 13.398 0 0 0-.048.684v.007c0 .001 0 .002 1.499.036zm15.56-19.053c3.516-1.722 9.656-3.59 17.014-5.43 7.328-1.83 15.718-3.597 23.675-5.145a912.582 912.582 0 0 1 20.96-3.806 886.59 886.59 0 0 1 8.862-1.459l.12-.019.03-.004.008-.002h.002L86 0l-.232-1.482h-.002l-.008.002-.031.004a169.554 169.554 0 0 0-.6.095A890.907 890.907 0 0 0 76.707.01a916.992 916.992 0 0 0-21.03 3.819c-7.98 1.552-16.447 3.335-23.829 5.18-7.35 1.836-13.773 3.767-17.607 5.645l1.32 2.694z"/><path id="d" d="M0 0l.9 9.6v22.7"/><path id="e" d="M1.493-.14a1.5 1.5 0 1 0-2.986.28l2.986-.28zM.9 9.6h1.5c0-.047-.002-.093-.007-.14L.9 9.6zM-.6 32.3a1.5 1.5 0 0 0 3 0h-3zM-1.493.14l.9 9.6 2.986-.28-.9-9.6-2.986.28zM-.6 9.6v22.7h3V9.6h-3z"/><path id="f" d="M12.2 0C6.3 1.1 3.9 3.5 0 6c0 0 .9 8.5 10.3 19.3 7 8 15.9 13.6 15.9 13.6l10.9-10.3L12.2 0z"/><path id="g" d="M12.2 0l1.131-.985a1.5 1.5 0 0 0-1.406-.49L12.2 0zM0 6l-.81-1.263a1.5 1.5 0 0 0-.682 1.42L0 6zm10.3 19.3l-1.131.985.002.003L10.3 25.3zm15.9 13.6l-.799 1.27a1.5 1.5 0 0 0 1.83-.18L26.2 38.9zm10.9-10.3l1.03 1.09a1.5 1.5 0 0 0 .101-2.075L37.1 28.6zM11.925-1.475C5.653-.305 2.914 2.351-.81 4.737L.81 7.263c4.076-2.614 6.137-4.758 11.665-5.788l-.55-2.95zM0 6c-1.492.158-1.492.159-1.492.16v.001l.001.004.001.01a5.274 5.274 0 0 0 .016.127c.01.072.028.192.052.335.046.27.128.693.25 1.21.24 1 .68 2.505 1.406 4.314 1.432 3.548 4.13 8.59 8.935 14.124l2.262-1.97C6.835 19.05 4.385 14.441 3.017 11.04c-.673-1.666-1.047-2.96-1.27-3.891A14.877 14.877 0 0 1 1.5 5.895a2.667 2.667 0 0 1-.008-.058v.001a.13.13 0 0 0 0 .003L0 6zm9.171 20.288c3.574 4.079 7.657 7.575 10.786 9.998a88.122 88.122 0 0 0 3.892 2.85 62.062 62.062 0 0 0 1.439.961l.082.053.022.014.006.004h.002v.001l.8-1.269.8-1.27h-.001l-.004-.002-.016-.01a30.097 30.097 0 0 1-.352-.228 58.198 58.198 0 0 1-1.076-.725 83.79 83.79 0 0 1-3.758-2.751c-3.071-2.377-6.938-5.68-10.364-9.602L9.17 26.288zm18.06 13.702l10.9-10.3-2.061-2.18-10.9 10.3 2.06 2.18zm11-12.375l-24.9-28.6L11.07.985l24.9 28.6 2.262-1.97z"/><path id="h" d="M24.9 0c5.9 1.1 8.3 3.5 12.2 6 0 0-.9 8.5-10.3 19.3-7 8-15.9 13.6-15.9 13.6L0 28.6 24.9 0z"/><path id="i" d="M24.9 0l.275-1.475a1.5 1.5 0 0 0-1.406.49L24.9 0zm12.2 6l1.492.158a1.5 1.5 0 0 0-.682-1.42L37.1 6zM26.8 25.3l1.129.988.003-.003L26.8 25.3zM10.9 38.9l-1.03 1.09a1.5 1.5 0 0 0 1.829.18L10.9 38.9zM0 28.6l-1.131-.985a1.5 1.5 0 0 0 .1 2.075L0 28.6zM24.625 1.475c5.528 1.03 7.589 3.174 11.666 5.788l1.619-2.526c-3.724-2.386-6.463-5.042-12.735-6.212l-.55 2.95zM37.1 6a166.46 166.46 0 0 1-1.492-.16v-.002-.001.007a14.843 14.843 0 0 1-.254 1.303c-.223.932-.597 2.226-1.27 3.893-1.368 3.4-3.82 8.01-8.416 13.275l2.264 1.97c4.803-5.534 7.502-10.576 8.934-14.124.727-1.809 1.165-3.315 1.405-4.315.123-.516.205-.94.25-1.209a11.813 11.813 0 0 0 .065-.432l.004-.03a.503.503 0 0 0 .002-.016L37.1 6zM25.671 24.312c-3.426 3.921-7.293 7.225-10.364 9.602a83.731 83.731 0 0 1-3.758 2.75 58.198 58.198 0 0 1-1.358.91l-.07.044-.016.01-.004.002.799 1.27.8 1.27v-.001l.002-.001.006-.004a3.129 3.129 0 0 1 .104-.067 62.062 62.062 0 0 0 1.438-.962 88.055 88.055 0 0 0 3.893-2.849c3.129-2.423 7.212-5.92 10.786-9.998l-2.258-1.976zM11.931 37.81l-10.9-10.3-2.061 2.18 10.9 10.3 2.06-2.18zm-10.8-8.225l24.9-28.6-2.262-1.97-24.9 28.6 2.262 1.97z"/><path id="j" d="M4.4 15.6c4.3 0 7.8-3.5 7.8-7.8S8.7 0 4.4 0H0v15.7h4.4v-.1z"/><path id="k" d="M4.4 15.6v-1.5H2.9v1.5h1.5zM0 0v-1.5h-1.5V0H0zm0 15.7h-1.5v1.5H0v-1.5zm4.4 0v1.5h1.5v-1.5H4.4zm0 1.4c5.128 0 9.3-4.172 9.3-9.3h-3a6.31 6.31 0 0 1-6.3 6.3v3zm9.3-9.3c0-5.128-4.172-9.3-9.3-9.3v3a6.31 6.31 0 0 1 6.3 6.3h3zM4.4-1.5H0v3h4.4v-3zM-1.5 0v15.7h3V0h-3zM0 17.2h4.4v-3H0v3zm5.9-1.5v-.1h-3v.1h3z"/><path id="l" d="M0 0v70.7c0 11.1 10 18 21.4 22.2 12.2 4.5 26.1 5.9 31.3 5.9 10 0 30.2-5.1 30.2-28V.1H0V0z"/><path id="m" d="M21.4 92.9l.52-1.407h-.001L21.4 92.9zM82.9.1h1.5v-1.5h-1.5V.1zM0 .1h-1.5v1.5H0V.1zM-1.5 0v70.7h3V0h-3zm0 70.7c0 6.06 2.749 10.936 6.905 14.788 4.082 3.764 9.69 6.684 15.476 8.82l1.038-2.816c-5.613-2.064-10.706-4.694-14.474-8.205C3.75 79.864 1.5 75.74 1.5 70.7h-3zm22.38 23.607C33.278 98.88 47.359 100.3 52.7 100.3v-3c-5.058 0-18.777-1.38-30.78-5.807l-1.04 2.814zM52.7 100.3c5.125-.005 13.098-1.379 19.673-5.659C79.074 90.241 84.4 82.781 84.4 70.8h-3c0 10.92-4.774 17.46-10.673 21.334-6.025 3.995-13.152 5.171-18.027 5.166v3zm31.7-29.5V.1h-3v70.7h3zM82.9-1.4H0v3h82.9v-3zM1.5.1V0h-3v.1h3z"/><path id="n" d="M6.4 3.2c0 1.7-1.4 3.2-3.2 3.2C1.5 6.4 0 5 0 3.2 0 1.5 1.4 0 3.2 0 5 0 6.4 1.5 6.4 3.2z"/><path id="o" d="M3.2 0v1.5V0zm1.7 3.2c0 .902-.759 1.7-1.7 1.7v3c2.659 0 4.7-2.202 4.7-4.7h-3zM3.2 4.9c-.902 0-1.7-.759-1.7-1.7h-3c0 2.659 2.202 4.7 4.7 4.7v-3zM1.5 3.2c0-.902.759-1.7 1.7-1.7v-3C.541-1.5-1.5.702-1.5 3.2h3zm1.7-1.7c.941 0 1.7.798 1.7 1.7h3c0-2.498-2.041-4.7-4.7-4.7v3z"/><path id="p" d="M45.6 10.2S32.1 14.5 25.8 0C19.5 14.5 0 10.5 0 10.5"/><path id="q" d="M25.8 0l1.376-.598a1.5 1.5 0 0 0-2.752 0L25.8 0zm19.8 10.2l-.454-1.43h.001a14.2 14.2 0 0 1-1.948.388c-1.3.17-2.957.251-4.875-.098-3.708-.657-8.215-2.906-11.148-9.658L24.424.598c3.367 7.748 8.76 10.599 13.377 11.417 2.245.388 4.357.301 5.784.118.734-.096 1.36-.222 1.764-.316a13.126 13.126 0 0 0 .642-.168l.042-.013.014-.004a.472.472 0 0 0 .007-.002L45.6 10.2zM24.424-.598c-2.858 6.579-8.701 9.026-14.1 9.8-2.711.395-5.181.347-7.063.2-.927-.07-1.66-.163-2.19-.242a20.019 20.019 0 0 1-.764-.128L.3 9.03 0 10.5l-.3 1.47h.002l.005.001.015.003.051.01.184.034c.151.027.385.066.673.11.561.083 1.4.188 2.4.266 1.97.151 4.77.197 7.72-.222 5.927-.85 12.984-3.653 16.426-11.574L24.424-.598z"/><path id="r" d="M0 21.6h6.6c3 0 5.4-2.4 5.4-5.4 0-3-2.4-5.4-5.4-5.4H4V0"/><path id="s" d="M0 20.1a1.5 1.5 0 0 0 0 3v-3zm4-9.3H2.5A1.5 1.5 0 0 0 4 12.3v-1.5zM5.5 0a1.5 1.5 0 0 0-3 0h3zM0 23.1h6.6v-3H0v3zm6.6 0c3.828 0 6.9-3.072 6.9-6.9h-3c0 2.172-1.728 3.9-3.9 3.9v3zm6.9-6.9c0-3.828-3.072-6.9-6.9-6.9v3c2.172 0 3.9 1.728 3.9 3.9h3zM6.6 9.3H4v3h2.6v-3zm-1.1 1.5V0h-3v10.8h3z"/><path id="t" d="M6.4 3.2c0 1.7-1.4 3.2-3.2 3.2C1.5 6.4 0 5 0 3.2 0 1.5 1.4 0 3.2 0c1.7 0 3.2 1.5 3.2 3.2z"/><path id="u" d="M3.2 0v1.5V0zm1.7 3.2c0 .902-.759 1.7-1.7 1.7v3c2.659 0 4.7-2.202 4.7-4.7h-3zM3.2 4.9c-.902 0-1.7-.759-1.7-1.7h-3c0 2.659 2.202 4.7 4.7 4.7v-3zM1.5 3.2c0-.902.759-1.7 1.7-1.7v-3C.541-1.5-1.5.702-1.5 3.2h3zm1.7-1.7c.872 0 1.7.828 1.7 1.7h3c0-2.528-2.172-4.7-4.7-4.7v3z"/><path id="v" d="M27.7 3.4c0 2-1.6 3.6-3.6 3.6H3.6C1.6 7 0 5.4 0 3.4v.2C0 1.6 1.6 0 3.6 0h20.5c2 0 3.6 1.6 3.6 3.6v-.2z"/><path id="w" d="M29.2 3.4a1.5 1.5 0 0 0-3 0h3zm-27.7 0a1.5 1.5 0 1 0-3 0h3zm-3 .2a1.5 1.5 0 1 0 3 0h-3zm27.7 0a1.5 1.5 0 0 0 3 0h-3zm0-.2c0 1.172-.928 2.1-2.1 2.1v3c2.828 0 5.1-2.272 5.1-5.1h-3zm-2.1 2.1H3.6v3h20.5v-3zm-20.5 0c-1.172 0-2.1-.928-2.1-2.1h-3c0 2.828 2.272 5.1 5.1 5.1v-3zm-5.1-2.1v.2h3v-.2h-3zm3 .2c0-1.172.928-2.1 2.1-2.1v-3a5.085 5.085 0 0 0-5.1 5.1h3zm2.1-2.1h20.5v-3H3.6v3zm20.5 0c1.172 0 2.1.928 2.1 2.1h3c0-2.828-2.272-5.1-5.1-5.1v3zm5.1 2.1v-.2h-3v.2h3z"/><path id="x" d="M20.1 37.5h62.7C102.1 37.5 98.9 0 98.9 0l-17 6.4V0H41.4c-8.6 0-20.3 1.5-25.3 7.2-1.1 1.2.5 12.4.5 12.4S12.2 8.7 10.8 9.5C3.7 13.7 0 24.7 0 35.5v27.6L.2 79v48.6c0 2.5.5 4.7 1.4 6.8 3 6.9 10.4 11.6 18.8 14.9.9.3.6-8 .6-8s4.6 9.4 5.6 10.1c4.6 2.8 14.8 6.6 23.6 6.6 7.5 0 14.8-2.6 17.5-5.6.9-1 4.4-9.6 4.4-9.6s1 6.5 1.9 5.7c5.3-4.3 9.2-10.9 9.2-21v-16.7c0 2.5-6.9 3.5-8.4 2.2-2-1.7-1.3-5.6-2.3-7.8-1.1-2.3-2.8-4.2-4.9-5.7-4.7-3.3-10.9-4.2-16.5-4.2-7.7 0-17.1 1.8-21.1 9.2-1.7 3.2-1.1 7.1-4.4 9.1-2.7 1.6-7 .9-9.6-.5-6.7-3.7-7.3-18.7-7.3-25.4V62.2c1.6-1.4 2.9-5.4 3.4-8.4v-9.7c.9-5.8 6.2-6.6 8-6.6z"/><path id="y" d="M98.9 0l1.495-.128a1.5 1.5 0 0 0-2.023-1.276L98.9 0zm-17 6.4h-1.5a1.5 1.5 0 0 0 2.028 1.404L81.9 6.4zm0-6.4h1.5a1.5 1.5 0 0 0-1.5-1.5V0zM16.1 7.2l1.106 1.014.022-.025L16.1 7.2zm.5 12.4l-1.39.561a1.5 1.5 0 0 0 2.875-.773L16.6 19.6zM10.8 9.5l-.744-1.302a1.962 1.962 0 0 0-.02.011L10.8 9.5zM0 63.1h-1.5v.019L0 63.1zM.2 79h1.5v-.019L.2 79zm1.4 55.4l-1.379.591.003.007L1.6 134.4zm18.8 14.9l-.548 1.396c.024.01.049.019.074.027l.474-1.423zm.6-8l1.347-.659a1.5 1.5 0 0 0-2.846.713L21 141.3zm5.6 10.1l-.86 1.229c.026.018.053.036.08.052l.78-1.281zm41.1 1l1.115 1.003L67.7 152.4zm4.4-9.6l1.483-.228a1.5 1.5 0 0 0-2.872-.337l1.389.565zm1.9 5.7l-.945-1.165a1.327 1.327 0 0 0-.052.044L74 148.5zm10.7-37.7a1.5 1.5 0 0 0-3 0h3zm-9.9 2.2l.982-1.134-.01-.009L74.8 113zm-2.3-7.8l1.366-.621-.013-.026-1.353.647zm-4.9-5.7l.872-1.22-.01-.008L67.6 99.5zm-37.6 5l-1.32-.713-.005.009L30 104.5zm-4.4 9.1l.765 1.29.013-.007-.778-1.283zm-9.6-.5l-.725 1.313.014.008L16 113.1zM8.7 62.2l-.988-1.129A1.5 1.5 0 0 0 7.2 62.2h1.5zm3.4-8.4l1.48.247c.013-.082.02-.164.02-.247h-1.5zm0-9.7l-1.482-.23a1.489 1.489 0 0 0-.018.23h1.5zm8-5.1h.7v-3h-.7v3zm.7 0h62v-3h-62v3zm62 0c5.413 0 9.258-2.67 11.894-6.51 2.53-3.717 4.047-8.709 4.872-13.486.819-4.782 1.031-9.596 1.032-13.144a89.717 89.717 0 0 0-.1-4.321 61.108 61.108 0 0 0-.094-1.547l-.007-.086a.127.127 0 0 0-.002-.024v-.006-.002c0-.001 0-.002-1.495.126l-1.495.127v.004l.002.018.006.074.022.3c.018.27.042.658.067 1.161.049 1.015.097 2.443.096 4.175 0 3.483-.196 8.044-.989 12.637-.788 4.598-2.09 8.98-4.388 12.296C90.03 33.983 87.037 36 82.8 36v3zM98.372-1.404l-17 6.4 1.056 2.808 17-6.4-1.056-2.808zM83.4 6.4V0h-3v6.4h3zM81.9 0v-1.5h-.002H41.4v3h40.5V0zM41.4-1.5c-4.355.001-9.603.392-14.343 1.502-4.726 1.112-9.274 3.005-12.085 6.209l2.256 1.978c2.19-2.496 5.991-4.203 10.515-5.266C32.253 1.858 37.155 1.499 41.4 1.5v-3zM14.994 6.186c-.481.526-.613 1.268-.673 1.674-.07.491-.104 1.133-.107 1.778-.004 1.27.097 2.851.23 4.345a119.997 119.997 0 0 0 .653 5.698l.013.096.004.026v.006l.001.002L16.6 19.6l1.485-.212v-.002l-.001-.005-.003-.023a22.069 22.069 0 0 1-.061-.442 125.408 125.408 0 0 1-.588-5.199c-.13-1.456-.223-2.9-.218-4.067.002-.574.023-1.004.076-1.356.064-.435.122-.306-.084-.08l-2.212-2.028zM16.6 19.6l1.39-.562v-.002a.175.175 0 0 1-.003-.007l-.01-.025-.038-.094-.145-.352c-.125-.299-.306-.73-.526-1.242a92.762 92.762 0 0 0-1.694-3.721c-.649-1.336-1.38-2.714-2.031-3.69-.34-.504-.754-1.016-1.107-1.332a2.566 2.566 0 0 0-.872-.516 1.85 1.85 0 0 0-1.508.14l1.488 2.605c-.36.206-.717.17-.917.104-.158-.052-.214-.117-.161-.07.156.127.315.335.585.74.568.843 1.199 2.04 1.825 3.33a88.238 88.238 0 0 1 1.637 3.596 100.517 100.517 0 0 1 .649 1.544l.036.087.008.022.003.005v.001L16.6 19.6zM10.036 8.209c-3.938 2.33-6.811 6.462-8.695 11.269C-.52 24.248-1.495 29.974-1.5 35.5h3c-.005-5.274.87-10.449 2.634-14.928 1.741-4.443 4.268-7.91 7.43-9.781l-1.528-2.582zM-1.5 35.5v15.3h3V35.5h-3zm0 15.3v12.3h3V50.8h-3zm0 12.319l.2 15.9 3-.038-.2-15.9-3 .038zM-1.3 79v48.6h3V79h-3zm0 48.6a19.01 19.01 0 0 0 1.521 7.391l2.758-1.182c-.852-1.973-1.288-3.876-1.279-6.209h-3zm1.524 7.398c3.25 7.476 11.146 12.366 19.628 15.698l1.096-2.792c-8.319-3.268-15.223-7.778-17.972-14.102l-2.752 1.196zm19.702 15.725a1.646 1.646 0 0 0 1.655-.369c.29-.272.432-.591.5-.763.119-.319.222-.795.28-1.216.105-.8.157-1.895.176-2.935a81.841 81.841 0 0 0-.037-4.168v-.019-.005-.001l-.001-.001L21 141.3l-1.499.054v.021l.003.067.008.257a77.47 77.47 0 0 1 .026 3.686c-.018.998-.06 1.921-.151 2.593-.041.315-.135.593-.099.516 0-.003.056-.109.043-.086.028-.046.089-.14.198-.242a1.353 1.353 0 0 1 1.345-.289l-.948 2.846zM21 141.3l-1.347.659v.002l.003.006a.271.271 0 0 1 .01.021l.04.08.149.302a233.567 233.567 0 0 0 2.24 4.413 91.933 91.933 0 0 0 1.913 3.5c.295.505.585.975.826 1.328.196.287.52.748.906 1.018l1.72-2.458c.136.095.098.109-.15-.252a19.338 19.338 0 0 1-.711-1.149 86.626 86.626 0 0 1-1.845-3.378 214.337 214.337 0 0 1-2.394-4.726l-.01-.019-.002-.005v-.001L21 141.3zm4.82 11.381c4.789 2.915 15.255 6.819 24.38 6.819v-3c-8.475 0-18.409-3.696-22.82-6.381l-1.56 2.562zM50.2 159.5c3.88-.006 7.816-.695 11.02-1.751 3.204-1.059 5.991-2.563 7.595-4.346l-2.23-2.006c-1.096 1.217-3.309 2.513-6.306 3.504-2.995.994-6.46 1.605-10.079 1.599v3zm18.615-6.097c.243-.269.47-.657.647-.98a28.1 28.1 0 0 0 .657-1.296c.464-.965.998-2.16 1.495-3.305a232.393 232.393 0 0 0 1.865-4.431l.008-.019.002-.005v-.001L72.1 142.8l-1.39-.565v.001l-.002.004-.007.018-.029.071-.111.272a226.885 226.885 0 0 1-1.699 4.027c-.491 1.13-1.001 2.273-1.447 3.201-.44.918-.942 1.676-.83 1.568l2.23 2.006zM72.1 142.8l-1.482.228v.007l.003.015a11.764 11.764 0 0 0 .044.272c.03.18.074.442.13.748.109.606.27 1.434.458 2.227.19.794.44 1.663.7 2.258.122.277.34.721.709 1.049.201.18.563.428 1.072.461.548.035.983-.196 1.263-.444l-1.993-2.242c.166-.148.488-.336.923-.308.395.025.643.215.731.294.141.126.134.194.037-.026-.181-.399-.35-1.005-.523-1.736a45.25 45.25 0 0 1-.547-2.77l-.032-.196-.008-.05-.002-.012v-.003l-1.483.228zm2.845 6.865C80.6 145.078 84.7 138.049 84.7 127.5h-3c0 9.651-3.699 15.822-8.645 19.835l1.89 2.33zM84.7 127.5v-16.7h-3v16.7h3zm-3-16.7c0-.141.099-.005-.405.314-.52.342-1.179.566-2.04.743a8.98 8.98 0 0 1-2.422.202c-.716-.035-1.138-.322-1.05-.193l-1.965 2.268c.777.674 1.936.867 2.84.92.962.052 2.163-.044 3.212-.261 1.051-.223 2.212-.637 3.032-1.145.837-.531 1.798-1.457 1.798-2.848h-3zm-5.928 1.057c-.52-.441-.807-1.285-1.01-2.773-.097-.698-.167-1.456-.279-2.201-.114-.75-.31-1.606-.617-2.304l-2.731 1.242c.192.402.284.858.382 1.511.1.658.168 1.395.272 2.159.196 1.437.558 3.393 2.04 4.652l1.943-2.286zm-1.919-7.304c-1.205-2.485-3.152-4.67-5.381-6.274l-1.744 2.442c1.971 1.396 3.424 3.011 4.419 5.126l2.706-1.294zm-5.391-6.28C63.383 94.706 56.806 93.8 51.1 93.8v3c5.494 0 11.317.894 15.638 3.928l1.724-2.456zM51.1 93.8c-3.929.002-8.46.488-12.446 1.914-4.047 1.46-7.749 3.956-9.974 8.073l2.64 1.426c1.774-3.283 4.773-5.386 8.351-6.677 3.64-1.324 7.658-1.738 11.429-1.736v-3zm-22.425 9.996c-.948 1.831-1.264 3.753-1.715 5.283-.436 1.491-.965 2.528-2.137 3.238l1.555 2.566c2.127-1.289 2.948-3.203 3.462-4.962.5-1.72.733-3.348 1.485-4.717l-2.65-1.408zm-3.84 8.514c-.984.583-2.383.805-3.944.671-1.582-.129-3.014-.566-4.18-1.202l-1.422 2.642c1.434.764 3.452 1.377 5.345 1.548 1.914.166 4.015-.062 5.73-1.079l-1.529-2.58zm-8.11-.523c-1.307-.722-2.423-2.058-3.346-3.936-.946-1.911-1.59-4.154-2.07-6.614C10.342 96.31 10.2 91.029 10.2 87.7h-3c0 3.37.16 8.94 1.165 14.113.508 2.59 1.27 5.21 2.322 7.361 1.074 2.185 2.545 4.111 4.588 5.239l1.45-2.626zM10.2 87.7V62.2h-3v25.5h3zm-.512-24.371c1.096-.96 1.927-2.613 2.527-4.197a28.562 28.562 0 0 0 1.365-5.085l-2.96-.494a24.15 24.15 0 0 1-1.21 4.515c-.575 1.516-1.194 2.562-1.698 3.003l1.976 2.258zM13.6 53.8v-3.2h-3v3.2h3zm0-3.2v-.2h-3v.2h3zm0-.2v-6.3h-3v6.3h3zm-.018-6.07c.372-2.393 1.605-3.669 2.91-4.394 1.39-.807 2.792-.938 3.608-.936v-3c-.984.002-3.133.272-5.067 1.314-2.02 1.124-3.887 3.15-4.415 6.556l2.964.46z"/><path id="z" d="M0 19.5C0 4.8 11.6 0 26.3 0 41 0 52.9 4.5 52.9 19.2c0 0-15.7 5-23-11.9C22.6 24.1 0 19.5 0 19.5z"/><path id="A" d="M0 19.5h-1.5a1.5 1.5 0 0 0 1.2 1.47L0 19.5zm52.9-.3l.455 1.43A1.5 1.5 0 0 0 54.4 19.2h-1.5zm-23-11.9l1.377-.595a1.5 1.5 0 0 0-2.753-.003L29.9 7.3zM1.5 19.5c0-6.881 2.674-11.26 6.947-14 4.384-2.81 10.62-4 17.853-4v-3c-7.466 0-14.381 1.21-19.472 4.475C1.626 6.31-1.5 11.68-1.5 19.5h3zm24.8-18c7.246 0 13.564 1.118 18.026 3.865C48.668 8.038 51.4 12.338 51.4 19.2h3c0-7.838-3.218-13.138-8.501-16.39C40.736-.368 33.754-1.5 26.3-1.5v3zm26.6 17.7l-.454-1.43h0a16.812 16.812 0 0 1-2.305.46c-1.523.197-3.486.292-5.74-.12-4.382-.78-9.69-3.453-13.124-11.405l-2.754 1.19c3.865 8.948 10.058 12.226 15.351 13.17 2.583.45 5.002.351 6.65.14.846-.11 1.563-.254 2.029-.363a14.786 14.786 0 0 0 .793-.21l.005-.002h.002c.001 0 .002 0-.453-1.43zM28.524 6.702c-3.358 7.73-10.227 10.602-16.526 11.513-3.162.463-6.051.412-8.24.245a36.057 36.057 0 0 1-2.554-.28 23.293 23.293 0 0 1-.858-.14l-.04-.008L.3 18.03H.298L0 19.5c-.3 1.47-.299 1.47-.298 1.47h.002l.005.002.017.003.058.011.21.039c.175.03.442.075.773.124.648.095 1.612.215 2.765.303 2.277.171 5.495.22 8.895-.268 6.826-.988 14.907-4.216 18.849-13.286l-2.752-1.196z"/><path id="B" d="M12.241 17.918a1.25 1.25 0 1 0 1.118-2.236l-1.118 2.236zM1.1 6.2l-1.156.476.006.013L1.1 6.2zM1.25 0a1.25 1.25 0 0 0-2.5 0h2.5zm12.109 15.682C7.482 12.743 3.784 9.32 2.25 5.712l-2.3.977c1.866 4.39 6.168 8.168 12.291 11.229l1.118-2.236zM2.256 5.724C1.59 4.118 1.242 2.656 1.25 1h-2.5c.008 1.944.46 3.882 1.194 5.676l2.312-.952zM1.25 1V0h-2.5v1h2.5z"/><path id="C" d="M1.3 0C.8 1 .3 2 0 3.3z"/><path id="D" d="M2.418.559A1.25 1.25 0 1 0 .182-.559L2.418.559zm-3.636 2.46a1.25 1.25 0 0 0 2.436.562l-2.436-.562zM.182-.56c-.5 1-1.058 2.136-1.4 3.578l2.436.562c.258-1.158.7-2.022 1.2-3.022L.182-.559z"/><path id="E" d="M12.2 15.6H7.8C3.5 15.6 0 12.1 0 7.8S3.5 0 7.8 0h4.4v15.6z"/><path id="F" d="M12.2 15.6v1.5a1.5 1.5 0 0 0 1.5-1.5h-1.5zm0-15.6h1.5a1.5 1.5 0 0 0-1.5-1.5V0zm0 14.1H7.8v3h4.4v-3zm-4.4 0a6.31 6.31 0 0 1-6.3-6.3h-3c0 5.128 4.172 9.3 9.3 9.3v-3zM1.5 7.8a6.31 6.31 0 0 1 6.3-6.3v-3c-5.128 0-9.3 4.172-9.3 9.3h3zm6.3-6.3h4.4v-3H7.8v3zM10.7 0v15.6h3V0h-3z"/><path id="G" d="M81.675.427a1.25 1.25 0 1 0-2.35-.854l2.35.854zM77.2 5.7l-.914-.853a1.006 1.006 0 0 0-.017.02l.931.833zM8.1 8.4V7.15h-.045L8.1 8.4zm-8.92 2.057a1.25 1.25 0 0 0 1.64 1.886l-1.64-1.886zM79.325-.427c-.763 2.11-1.737 3.894-3.039 5.274l1.828 1.706c1.498-1.62 2.724-3.837 3.56-6.126l-2.349-.854zM76.27 4.866C74.83 6.473 73.184 7.15 70.9 7.15v2.5c2.916 0 5.269-.923 7.232-3.117l-1.864-1.667zM70.9 7.15H8.1v2.5h62.8v-2.5zm-62.845 0c-2.959.117-6.358 1.155-8.875 3.307l1.64 1.886c2.083-1.848 4.684-2.61 7.325-2.694l-.09-2.498z"/><path id="H" d="M31.409 5.881a1.25 1.25 0 0 0-.818-2.362l.818 2.362zM.3.5l-.884.884c.076.075.16.14.253.195L.3.5zm.818-1.059A1.25 1.25 0 0 0-1.118.559L1.118-.559zm29.473 4.078A27.637 27.637 0 0 1 21.5 5.05v2.5a31.26 31.26 0 0 0 9.909-1.669L30.59 3.52zM21.5 5.05h-.2v2.5h.2v-2.5zm-.2 0C13.774 5.05 4.89 1.738.931-.579L-.33 1.58C3.909 4.06 13.226 7.55 21.3 7.55v-2.5zM1.184-.384c.044.044.066.077.067.078l-.016-.027a5.018 5.018 0 0 1-.117-.226L-1.118.559c.055.11.254.545.534.825L1.184-.384z"/><path id="I" d="M0 4.7C3.9 1.8 11.7 0 21.1 0z"/><path id="J" d="M-.746 3.697A1.25 1.25 0 1 0 .746 5.703L-.746 3.697zM21.1 1.25a1.25 1.25 0 1 0 0-2.5v2.5zM.746 5.703C4.312 3.051 11.77 1.25 21.1 1.25v-2.5C11.63-1.25 3.488.549-.746 3.697L.746 5.703z"/></defs></svg>