<svg width="232" height="231" viewBox="0 0 232 231" version="1.1" xmlns="http://www.w3.org/2000/svg" xmlns:xlink="http://www.w3.org/1999/xlink"><title>daphne</title><desc>Created using Figma</desc><use xlink:href="#a" fill="#FFF"/><g transform="translate(59.8 127.74)"><use xlink:href="#b" fill="#828282"/><use xlink:href="#c" fill="#333"/></g><g transform="translate(132.4 127.74)"><use xlink:href="#d" fill="#828282"/><use xlink:href="#e" fill="#333"/></g><g transform="translate(80.1 105.44)"><use xlink:href="#f" fill="#FFF"/><use xlink:href="#g" fill="#333"/></g><g transform="translate(-10437 -3612)"><use xlink:href="#h" transform="translate(10519.2 3670.54)" fill="#FFF"/><mask id="i"><use xlink:href="#h" fill="#fff" transform="translate(10519.2 3670.54)"/></mask><use xlink:href="#j" transform="translate(10519.2 3670.54)" fill="#333" mask="url(#i)"/></g><g transform="translate(82.2 58.54)"><use xlink:href="#h" fill="#FFF"/><use xlink:href="#k" fill="#333"/></g><g transform="translate(130.9 98.94)"><use xlink:href="#l" fill="#FFF"/><use xlink:href="#m" fill="#333"/></g><g transform="translate(116.3 123.94)"><use xlink:href="#n" fill="#FFF"/><use xlink:href="#o" fill="#333"/></g><g transform="translate(121.2 123.94)"><use xlink:href="#p" fill="#FFF"/><use xlink:href="#q" fill="#333"/></g><g transform="translate(60.9 19.54)"><use xlink:href="#r" fill="#828282"/><use xlink:href="#s" fill="#333"/></g><g transform="translate(98.2 85.34)"><use xlink:href="#t" fill="#FFF"/><use xlink:href="#u" fill="#333"/></g><g transform="translate(140.4 85.34)"><use xlink:href="#v" fill="#FFF"/><use xlink:href="#w" fill="#333"/></g><g transform="translate(112.2 90.74)"><use xlink:href="#x" fill="#FFF"/><use xlink:href="#y" fill="#333"/></g><use xlink:href="#z" transform="translate(127.7 85.34)" fill="#333"/><use xlink:href="#A" transform="translate(93.4 85.34)" fill="#333"/><g transform="translate(63.3 181.84)"><use xlink:href="#B" fill="#FFF"/><use xlink:href="#C" fill="#333"/></g><use xlink:href="#D" transform="translate(105.9 90.74)" fill="#333"/><g transform="translate(152.1 90.74)"><use xlink:href="#E" fill="#FFF"/><use xlink:href="#F" fill="#333"/></g><use xlink:href="#G" transform="translate(148.2 90.54)" fill="#333"/><use xlink:href="#H" transform="translate(65.6 134.74)" fill="#333"/><use xlink:href="#I" transform="translate(145.4 149.84)" fill="#333"/><use xlink:href="#J" transform="translate(65.8 29.94)" fill="#333"/><use xlink:href="#K" transform="translate(83.1 124.04)" fill="#333"/><use xlink:href="#L" transform="translate(138 27.64)" fill="#333"/><defs><path id="a" d="M231.045 115.5c0 63.789-51.721 115.5-115.522 115.5C51.721 231 0 179.289 0 115.5S51.721 0 115.523 0c63.801 0 115.522 51.711 115.522 115.5z"/><path id="b" d="M27.8 27.8C17 38.6 0 39.1 0 39.1s.5-17 11.3-27.8S39.1 0 39.1 0s-.5 17-11.3 27.8z"/><path id="c" d="M0 39.1l-1.5-.044a1.5 1.5 0 0 0 1.544 1.543L0 39.1zM39.1 0l1.5.044a1.5 1.5 0 0 0-1.544-1.543L39.1 0zM26.74 26.74c-5.17 5.21-11.764 7.862-17.272 9.31a51.084 51.084 0 0 1-6.825 1.314 39.473 39.473 0 0 1-2.524.23l-.129.005-.029.002h-.006L0 39.1l.045 1.5h.006l.013-.001.044-.002.16-.007c.132-.007.337-.018.59-.036a43.95 43.95 0 0 0 2.15-.212 55.468 55.468 0 0 0 7.224-1.392c5.692-1.502 12.997-4.5 18.629-10.09l-2.122-2.12zM0 39.1l1.5.045v-.006a4.99 4.99 0 0 1 .006-.158 39.566 39.566 0 0 1 .23-2.523 51.084 51.084 0 0 1 1.315-6.826c1.447-5.508 4.099-12.103 9.31-17.271l-2.122-2.122C4.65 15.871 1.652 23.176.15 28.868a55.475 55.475 0 0 0-1.391 7.225 43.97 43.97 0 0 0-.212 2.148 27.989 27.989 0 0 0-.045.808v.006L0 39.1zm12.36-26.74c5.17-5.21 11.764-7.862 17.272-9.31a51.085 51.085 0 0 1 6.825-1.314 39.582 39.582 0 0 1 1.998-.197 23.53 23.53 0 0 1 .684-.04h.006L39.1 0l-.045-1.5h-.002-.004l-.013.001a9.873 9.873 0 0 0-.204.01 27.88 27.88 0 0 0-.59.035c-.498.036-1.242.101-2.15.212-1.79.22-4.354.637-7.224 1.391C23.176 1.652 15.87 4.65 10.239 10.24l2.122 2.122zM39.1 0l-1.5-.045v.036l-.006.128c-.007.122-.016.294-.033.526a39.473 39.473 0 0 1-.197 1.998 51.084 51.084 0 0 1-1.314 6.825c-1.448 5.508-4.1 12.103-9.31 17.271l2.12 2.122c5.59-5.632 8.588-12.937 10.09-18.629a55.468 55.468 0 0 0 1.392-7.225c.11-.907.176-1.65.212-2.148a28.351 28.351 0 0 0 .043-.751L40.6.064V.05.047.045L39.1 0z"/><path id="d" d="M11.3 27.8c10.8 10.8 27.8 11.3 27.8 11.3s-.5-17-11.3-27.8S0 0 0 0s.5 17 11.3 27.8z"/><path id="e" d="M39.1 39.1l-.044 1.5a1.5 1.5 0 0 0 1.543-1.544L39.1 39.1zM0 0l.044-1.5A1.5 1.5 0 0 0-1.499.045L0 0zm10.24 28.86c5.63 5.59 12.936 8.588 18.628 10.09a55.467 55.467 0 0 0 7.225 1.392c.907.11 1.65.176 2.148.212a28.35 28.35 0 0 0 .751.043l.044.002h.013a.09.09 0 0 0 .004 0h.002L39.1 39.1l.045-1.5h-.036l-.128-.006a39.469 39.469 0 0 1-2.523-.23 51.081 51.081 0 0 1-6.826-1.314c-5.508-1.448-12.103-4.1-17.271-9.31l-2.122 2.12zM39.1 39.1l1.5-.045v-.002-.004l-.001-.013-.002-.044a27.047 27.047 0 0 0-.043-.75c-.036-.498-.101-1.242-.212-2.15a55.47 55.47 0 0 0-1.392-7.224c-1.502-5.692-4.5-12.997-10.09-18.629l-2.12 2.122c5.21 5.168 7.862 11.763 9.31 17.271a51.081 51.081 0 0 1 1.314 6.825c.105.856.163 1.524.197 1.998a23.515 23.515 0 0 1 .04.684v.006L39.1 39.1zM28.86 10.24C23.23 4.65 15.925 1.651 10.233.15a55.473 55.473 0 0 0-7.225-1.392c-.907-.11-1.65-.176-2.148-.212a27.881 27.881 0 0 0-.795-.045H.047.045L0 0l-.045 1.5h.006a4.809 4.809 0 0 1 .158.006 39.583 39.583 0 0 1 2.524.23c1.733.212 4.095.594 6.825 1.315 5.508 1.447 12.103 4.099 17.271 9.31l2.122-2.122zM0 0a195.378 195.378 0 0 0-1.5.047V.05l.001.013a9.781 9.781 0 0 0 .01.204c.006.132.017.337.035.59.036.498.101 1.242.212 2.15.22 1.79.637 4.354 1.391 7.224C1.652 15.924 4.65 23.23 10.24 28.861l2.122-2.122C7.15 21.571 4.498 14.976 3.05 9.468a51.085 51.085 0 0 1-1.315-6.825A39.584 39.584 0 0 1 1.539.645a23.58 23.58 0 0 1-.04-.684v-.006L0 0z"/><path id="f" d="M75 76.4c-7.3 0-13.2-5.9-13.2-13.2V0H13.2v63.2c0 7.3-5.9 13.2-13.2 13.2 0 0 6.9 22.5 41.1 22.5S75 76.4 75 76.4z"/><path id="g" d="M75 76.4l1.5-.02A1.5 1.5 0 0 0 75 74.9v1.5zM61.8 0h1.5a1.5 1.5 0 0 0-1.5-1.5V0zM13.2 0v-1.5A1.5 1.5 0 0 0 11.7 0h1.5zM0 76.4v-1.5a1.5 1.5 0 0 0-1.434 1.94L0 76.4zm75-1.5c-6.472 0-11.7-5.228-11.7-11.7h-3c0 8.128 6.572 14.7 14.7 14.7v-3zM63.3 63.2V0h-3v63.2h3zM61.8-1.5H13.2v3h48.6v-3zM11.7 0v63.2h3V0h-3zm0 63.2c0 6.472-5.228 11.7-11.7 11.7v3c8.128 0 14.7-6.572 14.7-14.7h-3zM0 76.4c-1.434.44-1.434.44-1.433.442v.003l.003.007c0 .004.003.012.006.02a6.116 6.116 0 0 0 .097.285c.063.177.168.454.305.785.266.64.707 1.599 1.326 2.707 1.216 2.168 3.283 5.166 6.395 8.095C12.99 94.641 23.636 100.4 41.1 100.4v-3c-16.736 0-26.64-5.491-32.35-10.844-2.887-2.696-4.682-5.323-5.829-7.373a22.311 22.311 0 0 1-1.172-2.391 13.154 13.154 0 0 1-.315-.831l-.001-.004v.002s.001.001-1.433.441zm41.1 24c17.458 0 26.431-5.765 30.977-11.853 2.217-2.995 3.365-6.088 3.894-8.281.269-1.127.406-2.11.468-2.757a14.829 14.829 0 0 0 .06-1.028l.001-.067v-.02-.009-.003s0-.002-1.5.018c-1.5.02-1.5.019-1.5.018v-.001-.002.033a10.408 10.408 0 0 1-.047.777 16.378 16.378 0 0 1-.4 2.34 19.094 19.094 0 0 1-3.38 7.188C65.82 91.915 57.843 97.4 41.1 97.4v3z"/><path id="h" d="M0 0v41.1c0 21.9 13.5 56 50.3 56 9.6 0 28.8-20.1 28.8-48.8V0H0z"/><path id="j" d="M0 0v-1h-1v1h1zm79.1 0h1v-1h-1v1zM-1 0v41.1h2V0h-2zm0 41.1c.007 11.068 3.465 25.364 11.534 36.79C18.674 89.386 31.539 98.1 50.3 98.1v-2c-18.039 0-30.324-8.336-38.134-19.365C4.286 65.636.993 51.932 1 41.1h-2zm51.3 57c2.711 0 5.922-1.398 9.145-3.785 3.214-2.385 6.627-5.91 9.676-10.28C75.18 75.321 80.083 62.835 80.1 48.3h-2c.018 14.164-4.681 26.078-10.62 34.59-2.952 4.243-6.139 7.536-9.225 9.817-3.077 2.279-5.866 3.393-7.955 3.393v2zm29.8-49.8V0h-2v48.3h2zM79.1-1H0v2h79.1v-2z"/><path id="k" d="M0 0v-1.5h-1.5V0H0zm79.1 0h1.5v-1.5h-1.5V0zM-1.5 0v41.1h3V0h-3zm0 41.1c.01 11.127 3.51 25.57 11.626 37.08C18.349 89.791 31.358 98.6 50.3 98.6v-3c-17.858 0-29.998-8.242-37.726-19.154C4.741 65.43 1.49 51.873 1.5 41.1h-3zm51.8 57.5c2.867 0 6.183-1.47 9.443-3.884 3.246-2.41 6.715-5.994 9.788-10.396C75.622 75.558 80.574 62.93 80.6 48.3h-3c.026 14.07-4.622 25.842-10.53 34.305-2.928 4.21-6.059 7.445-9.113 9.7-3.04 2.252-5.724 3.295-7.657 3.295v3zm30.3-50.3V0h-3v48.3h3zM79.1-1.5H0v3h79.1v-3z"/><path id="l" d="M0 10.4h6.3c2.9 0 5.2-2.3 5.2-5.2C11.5 2.3 9.2 0 6.3 0"/><path id="m" d="M0 8.9a1.5 1.5 0 0 0 0 3v-3zM6.3-1.5a1.5 1.5 0 1 0 0 3v-3zM0 11.9h6.3v-3H0v3zm6.3 0c3.728 0 6.7-2.972 6.7-6.7h-3c0 2.072-1.628 3.7-3.7 3.7v3zM13 5.2c0-3.728-2.972-6.7-6.7-6.7v3c2.072 0 3.7 1.628 3.7 3.7h3z"/><path id="n" d="M0 0h30.8"/><path id="o" d="M0-1.5a1.5 1.5 0 0 0 0 3v-3zm30.8 3a1.5 1.5 0 0 0 0-3v3zM0 1.5h15.9v-3H0v3zm15.9 0h14.9v-3H15.9v3z"/><path id="p" d="M0 0h22s-2.3 7.6-9.4 7.6C5.5 7.5 0 0 0 0z"/><path id="q" d="M0 0v-1.5A1.5 1.5 0 0 0-1.21.887L0 0zm22 0l1.436.434A1.5 1.5 0 0 0 22-1.5V0zm-9.4 7.6l-.021 1.5h.021V7.6zM0 1.5h22v-3H0v3zM22 0c-1.436-.434-1.436-.435-1.435-.436v-.002l-.001.006a10.223 10.223 0 0 1-.398.995c-.306.67-.732 1.472-1.392 2.322C17.488 4.555 15.534 6.1 12.6 6.1v3c4.167 0 6.912-2.255 8.551-4.385a15.886 15.886 0 0 0 1.742-2.903c.18-.392.319-.742.401-.966a10.677 10.677 0 0 0 .129-.37L23.43.45l.003-.01V.438l.001-.001S23.435.434 22 0zm-9.379 6.1c-3.043-.043-5.864-1.688-8.023-3.49A23.156 23.156 0 0 1 1.255-.826a5.53 5.53 0 0 1-.046-.06V-.89v.001L0 0c-1.21.887-1.21.887-1.209.888l.003.003a6.974 6.974 0 0 0 .078.104A23.865 23.865 0 0 0-.151 2.17a27.546 27.546 0 0 0 2.828 2.744C5.043 6.888 8.522 9.043 12.579 9.1l.042-3z"/><path id="r" d="M64.5 1.897c-18.8-5.8-40.2 2.4-51.8 15.1-9.4 10.3-12.7 24.4-12.7 38.1 0 50.4 32.4 62.4 32.4 62.4v-55.5c0-6.3 5.1-11.4 11.4-11.4h25.1c6.2 0 11.3-5 11.4-11.1h.3c.2 6.1 5.2 11.1 11.4 11.1h8.5v36.8s18.9-27.5 7.6-55.6c-10.6-26.7-30.2-22.8-30.2-22.8s-5.2-4.6-13.4-7.1z"/><path id="s" d="M64.5 1.897l-.442 1.433.004.002.438-1.435zm-51.8 15.1l-1.107-1.012h-.001l1.108 1.012zm19.7 100.5l-.521 1.407a1.5 1.5 0 0 0 2.021-1.407h-1.5zm47.9-78v-1.5a1.5 1.5 0 0 0-1.5 1.475l1.5.025zm.3 0l1.5-.05a1.5 1.5 0 0 0-1.5-1.45v1.5zm19.9 11.1h1.5a1.5 1.5 0 0 0-1.5-1.5v1.5zm0 36.8H99a1.5 1.5 0 0 0 2.736.85l-1.236-.85zm7.6-55.6l-1.394.553.002.007 1.392-.56zm-30.2-22.8l-.994 1.123a1.5 1.5 0 0 0 1.287.348L77.9 8.997zM64.942.464c-19.447-6-41.428 2.47-53.35 15.521l2.215 2.024C25.087 5.66 45.905-2.27 64.058 3.33l.885-2.866zm-53.35 15.522C1.845 26.666-1.5 41.193-1.5 55.097h3c0-13.496 3.255-27.17 12.308-37.089l-2.216-2.022zM-1.5 55.097c0 25.553 8.225 41.506 16.569 51.085 4.156 4.761 8.377 7.973 11.47 9.922a39.62 39.62 0 0 0 3.818 2.13 25.6 25.6 0 0 0 1.096.498 16.528 16.528 0 0 0 .387.157l.026.01.008.003.003.001c.001 0 .002.001.523-1.406.521-1.407.522-1.406.523-1.406l-.01-.004a8.382 8.382 0 0 1-.293-.119c-.227-.095-.541-.234-.961-.437a35.121 35.121 0 0 1-3.522-1.966c-2.983-1.876-6.863-4.814-10.806-9.353C9.475 95.192 1.5 79.943 1.5 55.097h-3zm35.4 62.4v-11.9h-3v11.9h3zm0-11.9v-43.6h-3v43.6h3zm0-43.6c0-5.472 4.428-9.9 9.9-9.9v-3c-7.128 0-12.9 5.772-12.9 12.9h3zm9.9-9.9h25.1v-3H43.8v3zm25.1 0c7.007 0 12.786-5.645 12.9-12.575l-3-.05c-.086 5.27-4.507 9.625-9.9 9.625v3zm11.4-11.1h.3v-3h-.3v3zm-1.2-1.45c.227 6.888 5.87 12.55 12.9 12.55v-3c-5.37 0-9.727-4.338-9.9-9.65l-3 .1zM92 52.096h8.5v-3H92v3zm7-1.5v36.8h3v-36.8h-3zm1.5 36.8c1.236.85 1.237.849 1.237.848l.001-.002a3.685 3.685 0 0 0 .062-.092c.037-.055.095-.141.166-.251.14-.214.348-.54.603-.955a66.69 66.69 0 0 0 2.034-3.583 79.641 79.641 0 0 0 5.364-12.772c3.346-10.512 5.272-24.927-.475-39.353l-2.784 1.12c5.553 13.674 3.679 27.06.4 37.322a75.172 75.172 0 0 1-5.157 12.28 61.538 61.538 0 0 1-1.94 3.417 37.45 37.45 0 0 1-.748 1.172l1.237.849zm8.994-56.154c-5.442-13.706-13.285-19.736-19.937-22.26-3.283-1.236-6.314-1.622-8.39-1.678a21.563 21.563 0 0 0-2.55.084 14.69 14.69 0 0 0-.92.12 6.697 6.697 0 0 0-.059.01l-.019.005h-.007l-.002.001c-.002 0-.003 0 .29 1.472a118.681 118.681 0 0 1 .29 1.472h-.002.002l.026-.005a10.322 10.322 0 0 1 .693-.09 17.184 17.184 0 0 1 2.18-.07c1.93.048 4.462.355 7.404 1.483 5.798 2.2 13.055 7.57 18.213 20.563l2.788-1.107zM77.9 8.997a238.777 238.777 0 0 0 .992-1.125l-.001-.001-.006-.005a4.962 4.962 0 0 0-.07-.061 26.053 26.053 0 0 0-.945-.758 38.431 38.431 0 0 0-2.796-1.932C72.7 3.624 69.173 1.76 64.937.462l-.874 2.87c3.965 1.201 7.136 2.888 9.413 4.322a34.04 34.04 0 0 1 2.573 1.777 21.522 21.522 0 0 1 .858.69l.993-1.124z"/><path id="t" d="M0 0h29.5s.2 2.1-.2 4.7c-.8 4.6-3.8 11-13.8 11C-.3 15.8 0 0 0 0z"/><path id="u" d="M0 0v-1.5A1.5 1.5 0 0 0-1.5-.028L0 0zm29.5 0l1.494-.142A1.5 1.5 0 0 0 29.5-1.5V0zm-.2 4.7l1.478.257.005-.029L29.3 4.7zm-13.8 11v-1.5h-.01l.01 1.5zM0 1.5h29.5v-3H0v3zM29.5 0l-1.493.142V.14c0-.001 0 0 0 0l.001.01a10.814 10.814 0 0 1 .02.297 19.97 19.97 0 0 1-.21 4.024l2.965.456c.21-1.382.267-2.671.267-3.553a21.57 21.57 0 0 0-.046-1.392 10.814 10.814 0 0 0-.01-.112v-.008-.003-.001L29.5 0zm-1.677 4.443c-.375 2.182-1.151 4.523-3.052 6.44-1.78 1.844-4.622 3.317-9.27 3.317v3c5.35 0 9.01-1.727 11.429-4.233 2.299-2.433 3.423-5.592 3.848-8.01l-2.955-.514zM15.49 14.2c-7.247.046-10.633-3.478-12.315-6.964C2.29 5.42 1.893 3.668 1.684 2.248A17.057 17.057 0 0 1 1.501.156a5.626 5.626 0 0 1 0-.13v.001L0 0a131.176 131.176 0 0 0-1.5-.025v.005A8.953 8.953 0 0 0-1.5.2c.002.125.007.323.02.558.023.453.08 1.14.196 1.93.228 1.539.743 3.73 1.757 5.852 2.118 4.39 6.483 8.715 15.036 8.661l-.02-3z"/><path id="v" d="M24.45 0H.05s-1.6 15.8 13.2 15.8c14.7 0 11.2-15.8 11.2-15.8z"/><path id="w" d="M24.45 0l1.465-.324A1.5 1.5 0 0 0 24.451-1.5V0zM.05 0v-1.5A1.5 1.5 0 0 0-1.441-.151L.051 0zm24.4-1.5H.05v3h24.4v-3zM.05 0a139.97 139.97 0 0 0-1.492-.15v.007l-.002.014a8.043 8.043 0 0 0-.016.202c-.009.124-.02.32-.028.554-.016.452-.02 1.137.022 1.924.086 1.539.385 3.733 1.158 5.866.78 2.106 2.202 4.432 4.34 6.104C6.26 16.232 9.268 17.3 13.25 17.3v-3c-3.419 0-5.76-.906-7.394-2.159-1.725-1.29-2.679-2.914-3.348-4.758-.677-1.817-.902-3.573-.98-4.996A18.098 18.098 0 0 1 1.534.282a6.312 6.312 0 0 1 .01-.13V.149.15L.051 0zm13.2 17.3c3.955 0 6.861-1.07 8.925-2.827 1.956-1.71 3.12-4.095 3.645-6.218.513-2.143.546-4.346.445-5.886a22.986 22.986 0 0 0-.21-1.92 17.027 17.027 0 0 0-.126-.707l-.01-.045-.002-.013-.001-.005v-.002L24.45 0l-1.465.323v.003l.005.023.022.11a18.637 18.637 0 0 1 .258 2.11c.096 1.422.085 3.169-.365 4.976-.437 1.827-1.154 3.391-2.676 4.644-1.415 1.205-3.584 2.111-6.98 2.111v3z"/><path id="x" d="M5.4 2.7c0 1.5-1.2 2.7-2.7 2.7C1.2 5.4 0 4.2 0 2.7 0 1.2 1.2 0 2.7 0c1.5 0 2.7 1.2 2.7 2.7z"/><path id="y" d="M4.15 2.7c0 .81-.64 1.45-1.45 1.45v2.5c2.19 0 3.95-1.76 3.95-3.95h-2.5zM2.7 4.15c-.81 0-1.45-.64-1.45-1.45h-2.5c0 2.19 1.76 3.95 3.95 3.95v-2.5zM1.25 2.7c0-.81.64-1.45 1.45-1.45v-2.5C.51-1.25-1.25.51-1.25 2.7h2.5zM2.7 1.25c.81 0 1.45.64 1.45 1.45h2.5c0-2.19-1.76-3.95-3.95-3.95v2.5z"/><path id="z" d="M0 1.5h12.6v-3H0v3z"/><path id="A" d="M4.8-1.5H0v3h4.8v-3z"/><path id="B" d="M91.6 0s.4 13.5-33.9 13.5S16.6 0 16.6 0H0s3 26.9 57.7 26.9C105.1 26.9 106 0 106 0H91.6z"/><path id="C" d="M91.6 0v-1.5h-1.545L90.1.044 91.6 0zm-75 0l1.34-.675-.416-.825H16.6V0zM0 0v-1.5h-1.677L-1.49.166 0 0zm106 0l1.499.05.052-1.55H106V0zM91.6 0c-1.5.044-1.5.043-1.5.04V.039.032.024.022l-.002.047c-.004.076-.01.15-.03.286a5.014 5.014 0 0 1-.337 1.205c-.404 1.026-1.271 2.5-3.16 4.022C82.768 8.647 74.698 12 57.7 12v3c17.302 0 26.182-3.397 30.754-7.082 2.299-1.853 3.476-3.754 4.068-5.259a9.363 9.363 0 0 0 .511-1.854c.035-.233.054-.45.06-.57a5.006 5.006 0 0 0 .007-.24v-.022-.01-.004c0-.002 0-.003-1.5.041zM57.7 12c-16.955 0-26.962-3.336-32.676-6.557C22.161 3.84 20.418 2.3 19.298 1.09a11.361 11.361 0 0 1-1.101-1.358 5.372 5.372 0 0 1-.263-.418l.002.003a.109.109 0 0 0 .002.006c.001 0 .002.002-1.338.677s-1.339.676-1.338.678l.001.003.004.007.01.018a5.568 5.568 0 0 0 .115.206c.067.114.184.302.33.516.273.398.74 1.013 1.377 1.701 1.227 1.32 3.327 3.157 6.452 4.928C29.812 11.587 40.355 15 57.7 15v-3zM16.6-1.5H0v3h16.6v-3zM0 0c-1.49.166-1.49.168-1.49.17v.003a3.956 3.956 0 0 0 .016.118c.008.06.024.16.045.276.038.214.109.558.212.962.2.774.57 1.947 1.173 3.29 1.18 2.61 3.44 6.235 7.387 9.753C15.288 21.616 30.113 28.4 57.7 28.4v-3c-27.113 0-41.138-6.665-48.368-13.072-3.641-3.207-5.548-6.308-6.64-8.74A16.814 16.814 0 0 1 1.688.782 9.788 9.788 0 0 1 1.49-.17v-.003.004c0 .001 0 .003-1.49.169zm57.7 28.4c23.987 0 36.519-6.815 43.032-13.938 3.213-3.538 4.955-7.181 5.812-9.792.436-1.34.683-2.507.806-3.278.064-.401.102-.74.122-.952.01-.114.018-.212.021-.27l.004-.08.002-.025V.057.053c0-.001 0-.003-1.499-.053-1.499-.05-1.499-.051-1.499-.052v-.002-.002.004l-.002.037-.014.18c-.017.18-.044.42-.098.755-.111.7-.305 1.635-.694 2.817-.793 2.432-2.238 5.514-5.175 8.7C92.731 18.766 81.113 25.4 57.7 25.4v3zM106-1.5H91.6v3H106v-3z"/><path id="D" d="M0-1.5a1.5 1.5 0 1 0 0 3v-3zm16.9 3a1.5 1.5 0 0 0 0-3v3zM0 1.5h16.9v-3H0v3z"/><path id="E" d="M5.4 2.7c0 1.5-1.2 2.7-2.7 2.7C1.2 5.4 0 4.2 0 2.7 0 1.2 1.2 0 2.7 0c1.5 0 2.7 1.2 2.7 2.7z"/><path id="F" d="M4.15 2.7c0 .81-.64 1.45-1.45 1.45v2.5c2.19 0 3.95-1.76 3.95-3.95h-2.5zM2.7 4.15c-.81 0-1.45-.64-1.45-1.45h-2.5c0 2.19 1.76 3.95 3.95 3.95v-2.5zM1.25 2.7c0-.81.64-1.45 1.45-1.45v-2.5C.51-1.25-1.25.51-1.25 2.7h2.5zM2.7 1.25c.81 0 1.45.64 1.45 1.45h2.5c0-2.19-1.76-3.95-3.95-3.95v2.5z"/><path id="G" d="M0-1.5a1.5 1.5 0 0 0 0 3v-3zm13.2 3a1.5 1.5 0 0 0 0-3v3zM0 1.5h13.2v-3H0v3z"/><path id="H" d="M-1.224 26.046a1.25 1.25 0 0 0 2.448.508l-2.448-.508zM22.903 1.183a1.25 1.25 0 1 0-.806-2.366l.806 2.366zM1.223 26.554c1.086-5.238 3.345-12.505 8.76-17.87L8.217 6.916c-5.785 5.835-8.325 13.768-9.44 19.13l2.448.508zm8.76-17.87c3.736-3.761 8.585-6.025 12.92-7.5l-.806-2.367C17.63.34 12.28 2.877 8.217 6.917l1.767 1.767z"/><path id="I" d="M20.146 12.424a1.25 1.25 0 1 0 .508-2.448l-.508 2.448zM.949-.813A1.25 1.25 0 1 0-.949.813L.949-.813zm19.705 10.79C15.416 8.89 8.149 6.63 2.784 1.216L1.016 2.983c5.835 5.784 13.768 8.326 19.13 9.44l.508-2.448zm-17.87-8.76C2.117.55 1.549-.114.949-.814L-.949.813c.6.7 1.232 1.436 1.965 2.17l1.768-1.767z"/><path id="J" d="M11.495 89.343a1.25 1.25 0 1 0 2.01-1.486l-2.01 1.486zM11.4 10l-.918-.849-.005.006.923.843zm13.968-8.886a1.25 1.25 0 1 0-1.136-2.228l1.136 2.228zM13.506 87.857C7.171 79.283 1.25 65.747 1.25 44.7h-2.5c0 21.553 6.078 35.617 12.745 44.643l2.01-1.486zM1.25 44.7c0-9.996 1.99-23.905 11.073-33.857l-1.846-1.686C.759 19.805-1.25 34.497-1.25 44.7h2.5zm11.068-33.851c3.616-3.918 8.04-7.186 13.05-9.735l-1.136-2.228c-5.19 2.651-9.966 6.183-13.75 10.265l1.836 1.698z"/><path id="K" d="M4.35 5.4a1.25 1.25 0 1 0 1.5-2l-1.5 2zM.884-.884A1.25 1.25 0 1 0-.884.884L.884-.884zM5.85 3.4A44.841 44.841 0 0 1 .884-.884L-.884.884A48.408 48.408 0 0 0 4.35 5.4l1.5-2z"/><path id="L" d="M1.9 31.3a1.5 1.5 0 0 0 3 0h-3zM1.06-1.06a1.5 1.5 0 1 0-2.12 2.12l2.12-2.12zM4.9 31.3c-.002-5.923.649-12.262.55-17.927-.1-5.598-.935-10.979-4.39-14.434l-2.12 2.122c2.545 2.545 3.41 6.814 3.51 12.366.101 5.485-.548 11.796-.55 17.873h3z"/></defs></svg>