<svg width="232" height="231" viewBox="0 0 232 231" version="1.1" xmlns="http://www.w3.org/2000/svg" xmlns:xlink="http://www.w3.org/1999/xlink">
<title>daphne</title>
<desc>Created using Figma</desc>
<g id="Canvas" transform="translate(-10437 -3612)">
<g id="daphne">
<g id="Ellipse">
<use xlink:href="#path0_fill" transform="translate(10437 3612)" fill="#FFFFFF"/>
</g>
<g id="Vector">
<use xlink:href="#path1_fill" transform="translate(10496.8 3739.74)" fill="#828282"/>
<use xlink:href="#path2_stroke" transform="translate(10496.8 3739.74)" fill="#333333"/>
</g>
<g id="Vector">
<use xlink:href="#path3_fill" transform="translate(10569.4 3739.74)" fill="#828282"/>
<use xlink:href="#path4_stroke" transform="translate(10569.4 3739.74)" fill="#333333"/>
</g>
<g id="Vector">
<use xlink:href="#path5_fill" transform="translate(10517.1 3717.44)" fill="#FFFFFF"/>
<use xlink:href="#path6_stroke" transform="translate(10517.1 3717.44)" fill="#333333"/>
</g>
<g id="Vector">
<use xlink:href="#path7_fill" transform="translate(10519.2 3670.54)" fill="#FFFFFF"/>
<mask id="mask0_outline_ins">
<use xlink:href="#path7_fill" fill="white" transform="translate(10519.2 3670.54)"/>
</mask>
<g mask="url(#mask0_outline_ins)">
<use xlink:href="#path8_stroke_2x" transform="translate(10519.2 3670.54)" fill="#333333"/>
</g>
</g>
<g id="Vector">
<use xlink:href="#path7_fill" transform="translate(10519.2 3670.54)" fill="#FFFFFF"/>
<use xlink:href="#path9_stroke" transform="translate(10519.2 3670.54)" fill="#333333"/>
</g>
<g id="Vector">
<use xlink:href="#path10_fill" transform="translate(10567.9 3710.94)" fill="#FFFFFF"/>
<use xlink:href="#path11_stroke" transform="translate(10567.9 3710.94)" fill="#333333"/>
</g>
<g id="Vector">
<use xlink:href="#path12_fill" transform="translate(10553.3 3735.94)" fill="#FFFFFF"/>
<use xlink:href="#path13_stroke" transform="translate(10553.3 3735.94)" fill="#333333"/>
</g>
<g id="Vector">
<use xlink:href="#path14_fill" transform="translate(10558.2 3735.94)" fill="#FFFFFF"/>
<use xlink:href="#path15_stroke" transform="translate(10558.2 3735.94)" fill="#333333"/>
</g>
<g id="Vector">
<use xlink:href="#path16_fill" transform="translate(10497.9 3631.54)" fill="#828282"/>
<use xlink:href="#path17_stroke" transform="translate(10497.9 3631.54)" fill="#333333"/>
</g>
<g id="Vector">
<use xlink:href="#path18_fill" transform="translate(10535.2 3697.34)" fill="#FFFFFF"/>
<use xlink:href="#path19_stroke" transform="translate(10535.2 3697.34)" fill="#333333"/>
</g>
<g id="Vector">
<use xlink:href="#path20_fill" transform="translate(10577.4 3697.34)" fill="#FFFFFF"/>
<use xlink:href="#path21_stroke" transform="translate(10577.4 3697.34)" fill="#333333"/>
</g>
<g id="Vector">
<use xlink:href="#path22_fill" transform="translate(10549.2 3702.74)" fill="#FFFFFF"/>
<use xlink:href="#path23_stroke" transform="translate(10549.2 3702.74)" fill="#333333"/>
</g>
<g id="Vector">
<use xlink:href="#path24_stroke" transform="translate(10564.7 3697.34)" fill="#333333"/>
</g>
<g id="Vector">
<use xlink:href="#path25_stroke" transform="translate(10530.4 3697.34)" fill="#333333"/>
</g>
<g id="Vector">
<use xlink:href="#path26_fill" transform="translate(10500.3 3793.84)" fill="#FFFFFF"/>
<use xlink:href="#path27_stroke" transform="translate(10500.3 3793.84)" fill="#333333"/>
</g>
<g id="Vector">
<use xlink:href="#path28_stroke" transform="translate(10542.9 3702.74)" fill="#333333"/>
</g>
<g id="Vector">
<use xlink:href="#path29_fill" transform="translate(10589.1 3702.74)" fill="#FFFFFF"/>
<use xlink:href="#path30_stroke" transform="translate(10589.1 3702.74)" fill="#333333"/>
</g>
<g id="Vector">
<use xlink:href="#path31_stroke" transform="translate(10585.2 3702.54)" fill="#333333"/>
</g>
<g id="Vector">
<use xlink:href="#path32_stroke" transform="translate(10502.6 3746.74)" fill="#333333"/>
</g>
<g id="Vector">
<use xlink:href="#path33_stroke" transform="translate(10582.4 3761.84)" fill="#333333"/>
</g>
<g id="Vector">
<use xlink:href="#path34_stroke" transform="translate(10502.8 3641.94)" fill="#333333"/>
</g>
<g id="Vector">
<use xlink:href="#path35_stroke" transform="translate(10520.1 3736.04)" fill="#333333"/>
</g>
<g id="Vector">
<use xlink:href="#path36_stroke" transform="translate(10575 3639.64)" fill="#333333"/>
</g>
</g>
</g>
<defs>
<path id="path0_fill" d="M 231.045 115.5C 231.045 179.289 179.324 231 115.523 231C 51.7213 231 0 179.289 0 115.5C 0 51.7111 51.7213 0 115.523 0C 179.324 0 231.045 51.7111 231.045 115.5Z"/>
<path id="path1_fill" d="M 27.8 27.8C 17 38.6 1.2207e-05 39.1 1.2207e-05 39.1C 1.2207e-05 39.1 0.5 22.1 11.3 11.3C 22.1 0.5 39.1 -3.05176e-06 39.1 -3.05176e-06C 39.1 -3.05176e-06 38.6 17 27.8 27.8Z"/>
<path id="path2_stroke" d="M 1.2207e-05 39.1L -1.49934 39.0559C -1.51148 39.4689 -1.35278 39.8685 -1.06065 40.1607C -0.76852 40.4528 -0.368841 40.6115 0.0441111 40.5994L 1.2207e-05 39.1ZM 39.1 -3.05176e-06L 40.5993 0.0440944C 40.6115 -0.368858 40.4528 -0.768536 40.1606 -1.06066C 39.8685 -1.35279 39.4688 -1.5115 39.0559 -1.49935L 39.1 -3.05176e-06ZM 26.7393 26.7393C 21.5708 31.95 14.9756 34.602 9.46795 36.0495C 6.73836 36.7702 4.37614 37.1525 2.64286 37.3642C 1.78737 37.4691 1.11869 37.5274 0.644532 37.5612C 0.41266 37.5779 0.241184 37.5876 0.119349 37.5936C 0.0609367 37.5965 0.0202378 37.5982 -0.00973042 37.5994C -0.0234867 37.5999 -0.032037 37.6002 -0.0390166 37.6005C -0.0418988 37.6006 -0.0431568 37.6006 -0.0446121 37.6007C -0.0450376 37.6007 -0.0453336 37.6007 -0.0451187 37.6007C -0.0450754 37.6007 -0.0448168 37.6007 -0.0447955 37.6007C -0.0444734 37.6007 -0.0440867 37.6007 1.2207e-05 39.1C 0.0441111 40.5994 0.0446275 40.5993 0.0452087 40.5993C 0.045489 40.5993 0.046136 40.5993 0.0466967 40.5993C 0.0475167 40.5993 0.0492013 40.5992 0.05084 40.5991C 0.0535129 40.5991 0.0584363 40.5989 0.0637664 40.5987C 0.0732112 40.5984 0.0892093 40.5978 0.107948 40.5971C 0.14297 40.5957 0.199048 40.5933 0.267785 40.5899C 0.400246 40.5833 0.604551 40.5717 0.858616 40.5536C 1.35633 40.5179 2.10015 40.4528 3.00716 40.342C 4.79888 40.1225 7.36165 39.7048 10.2321 38.9505C 15.9244 37.448 23.2292 34.45 28.8607 28.8607L 26.7393 26.7393ZM 1.2207e-05 39.1C 1.49936 39.1441 1.49935 39.1445 1.49934 39.1448C 1.49934 39.1448 1.49933 39.1451 1.49933 39.1451C 1.49933 39.1453 1.49934 39.1451 1.49935 39.1446C 1.4994 39.1432 1.49944 39.1419 1.49954 39.139C 1.49977 39.1321 1.50008 39.1235 1.50062 39.1097C 1.5018 39.0798 1.50352 39.0391 1.50643 38.9807C 1.51245 38.8588 1.52214 38.6874 1.53877 38.4555C 1.57264 37.9813 1.6309 37.3126 1.73578 36.4572C 1.94754 34.7239 2.32978 32.3616 3.05053 29.6321C 4.498 24.1244 7.14996 17.5292 12.3607 12.3607L 10.2393 10.2393C 4.65004 15.8708 1.65201 23.1756 0.149478 28.8679C -0.604762 31.7384 -1.02252 34.3011 -1.24201 36.0929C -1.35275 36.9999 -1.41793 37.7437 -1.45359 38.2414C -1.47172 38.4955 -1.48333 38.6998 -1.4899 38.8322C -1.49329 38.901 -1.49569 38.957 -1.49707 38.9921C -1.4978 39.0108 -1.49838 39.0268 -1.4987 39.0362C -1.49889 39.0416 -1.49905 39.0465 -1.49913 39.0492C -1.49918 39.0508 -1.49924 39.0525 -1.49926 39.0533C -1.49928 39.0539 -1.4993 39.0545 -1.49931 39.0548C -1.49932 39.0554 -1.49934 39.0559 1.2207e-05 39.1ZM 12.3607 12.3607C 17.5292 7.14996 24.1244 4.498 29.6321 3.05053C 32.3616 2.32977 34.7239 1.94753 36.4571 1.73577C 37.3126 1.63088 37.9813 1.57263 38.4555 1.53875C 38.6873 1.52212 38.8588 1.51244 38.9807 1.50641C 39.0391 1.50351 39.0798 1.50178 39.1097 1.50061C 39.1235 1.50006 39.132 1.49976 39.139 1.49952C 39.1419 1.49942 39.1432 1.49938 39.1446 1.49933C 39.145 1.49932 39.1453 1.49931 39.1451 1.49932C 39.1451 1.49932 39.1448 1.49933 39.1448 1.49933C 39.1445 1.49934 39.1441 1.49935 39.1 -3.05176e-06C 39.0559 -1.49935 39.0554 -1.49934 39.0548 -1.49932C 39.0545 -1.49931 39.0539 -1.49929 39.0533 -1.49928C 39.0525 -1.49925 39.0508 -1.4992 39.0492 -1.49915C 39.0465 -1.49906 39.0416 -1.4989 39.0362 -1.49872C 39.0268 -1.49839 39.0108 -1.49782 38.9921 -1.49708C 38.957 -1.49571 38.901 -1.49331 38.8322 -1.48991C 38.6998 -1.48334 38.4954 -1.47174 38.2414 -1.4536C 37.7437 -1.41795 36.9998 -1.35276 36.0928 -1.24203C 34.3011 -1.02254 31.7383 -0.604771 28.8679 0.149471C 23.1756 1.652 15.8708 4.65004 10.2393 10.2393L 12.3607 12.3607ZM 39.1 -3.05176e-06C 37.6006 -0.0441005 37.6006 -0.0444873 37.6007 -0.0448094C 37.6007 -0.0448307 37.6007 -0.0450893 37.6007 -0.0451326C 37.6007 -0.0453475 37.6007 -0.0450514 37.6007 -0.044626C 37.6006 -0.0431706 37.6006 -0.0419127 37.6005 -0.0390305C 37.6002 -0.0320508 37.5999 -0.0235006 37.5994 -0.00974426C 37.5982 0.020224 37.5965 0.060923 37.5936 0.119335C 37.5875 0.24117 37.5779 0.412647 37.5612 0.644519C 37.5274 1.11868 37.4691 1.78736 37.3642 2.64285C 37.1525 4.37613 36.7702 6.73836 36.0495 9.46794C 34.602 14.9756 31.95 21.5708 26.7393 26.7393L 28.8607 28.8607C 34.45 23.2292 37.448 15.9244 38.9505 10.2321C 39.7048 7.36164 40.1225 4.79886 40.342 3.00715C 40.4528 2.10014 40.5179 1.35631 40.5536 0.8586C 40.5717 0.604535 40.5833 0.40023 40.5899 0.267768C 40.5933 0.199032 40.5957 0.142954 40.5971 0.107932C 40.5978 0.0891927 40.5984 0.0731946 40.5987 0.0637497C 40.5989 0.0584197 40.599 0.0534963 40.5991 0.0508234C 40.5992 0.0491847 40.5992 0.0475 40.5993 0.0466801C 40.5993 0.0461194 40.5993 0.0454724 40.5993 0.045192C 40.5993 0.0446109 40.5993 0.0440944 39.1 -3.05176e-06Z"/>
<path id="path3_fill" d="M 11.3 27.8C 22.1 38.6 39.1 39.1 39.1 39.1C 39.1 39.1 38.6 22.1 27.8 11.3C 17 0.5 -1.2207e-05 -3.05176e-06 -1.2207e-05 -3.05176e-06C -1.2207e-05 -3.05176e-06 0.499975 17 11.3 27.8Z"/>
<path id="path4_stroke" d="M 39.1 39.1L 39.0559 40.5994C 39.4689 40.6115 39.8686 40.4528 40.1607 40.1607C 40.4528 39.8685 40.6115 39.4689 40.5994 39.0559L 39.1 39.1ZM -1.2207e-05 -3.05176e-06L 0.0440867 -1.49935C -0.368865 -1.5115 -0.768544 -1.35279 -1.06067 -1.06066C -1.3528 -0.768536 -1.51151 -0.368858 -1.49936 0.0440944L -1.2207e-05 -3.05176e-06ZM 10.2393 28.8607C 15.8708 34.45 23.1756 37.448 28.8679 38.9505C 31.7384 39.7048 34.3011 40.1225 36.0929 40.342C 36.9999 40.4528 37.7437 40.5179 38.2414 40.5536C 38.4955 40.5717 38.6998 40.5833 38.8323 40.5899C 38.901 40.5933 38.9571 40.5957 38.9921 40.5971C 39.0108 40.5978 39.0268 40.5984 39.0363 40.5987C 39.0416 40.5989 39.0465 40.5991 39.0492 40.5991C 39.0508 40.5992 39.0525 40.5993 39.0533 40.5993C 39.0539 40.5993 39.0545 40.5993 39.0548 40.5993C 39.0554 40.5993 39.0559 40.5994 39.1 39.1C 39.1441 37.6007 39.1445 37.6007 39.1448 37.6007C 39.1449 37.6007 39.1451 37.6007 39.1452 37.6007C 39.1454 37.6007 39.1451 37.6007 39.1446 37.6007C 39.1432 37.6006 39.1419 37.6006 39.1391 37.6005C 39.1321 37.6002 39.1235 37.5999 39.1098 37.5994C 39.0798 37.5982 39.0391 37.5965 38.9807 37.5936C 38.8589 37.5876 38.6874 37.5779 38.4555 37.5612C 37.9813 37.5274 37.3127 37.4691 36.4572 37.3642C 34.7239 37.1525 32.3616 36.7702 29.6321 36.0495C 24.1244 34.602 17.5292 31.95 12.3606 26.7393L 10.2393 28.8607ZM 39.1 39.1C 40.5994 39.0559 40.5994 39.0554 40.5993 39.0548C 40.5993 39.0545 40.5993 39.0539 40.5993 39.0533C 40.5993 39.0525 40.5992 39.0508 40.5992 39.0492C 40.5991 39.0465 40.5989 39.0416 40.5987 39.0362C 40.5984 39.0268 40.5978 39.0108 40.5971 38.9921C 40.5957 38.957 40.5933 38.901 40.5899 38.8322C 40.5834 38.6998 40.5718 38.4955 40.5536 38.2414C 40.518 37.7437 40.4528 36.9999 40.342 36.0928C 40.1225 34.3011 39.7048 31.7384 38.9505 28.8679C 37.448 23.1756 34.4499 15.8708 28.8606 10.2393L 26.7393 12.3607C 31.95 17.5292 34.602 24.1244 36.0495 29.6321C 36.7702 32.3616 37.1525 34.7239 37.3642 36.4572C 37.4691 37.3126 37.5274 37.9813 37.5613 38.4555C 37.5779 38.6874 37.5876 38.8588 37.5936 38.9807C 37.5965 39.0391 37.5982 39.0798 37.5994 39.1097C 37.6 39.1235 37.6003 39.1321 37.6005 39.139C 37.6006 39.1419 37.6006 39.1432 37.6007 39.1446C 37.6007 39.1451 37.6007 39.1454 37.6007 39.1451C 37.6007 39.1451 37.6007 39.1448 37.6007 39.1448C 37.6007 39.1445 37.6007 39.1441 39.1 39.1ZM 28.8606 10.2393C 23.2292 4.65004 15.9244 1.652 10.232 0.149471C 7.36163 -0.604771 4.79885 -1.02254 3.00714 -1.24203C 2.10013 -1.35276 1.3563 -1.41795 0.858592 -1.4536C 0.604527 -1.47174 0.400222 -1.48334 0.26776 -1.48991C 0.199024 -1.49331 0.142946 -1.49571 0.107924 -1.49708C 0.0891849 -1.49782 0.0731868 -1.49839 0.063742 -1.49872C 0.0584119 -1.4989 0.0534885 -1.49906 0.0508156 -1.49915C 0.0491769 -1.4992 0.0474923 -1.49925 0.0466723 -1.49928C 0.0461116 -1.49929 0.0454646 -1.49931 0.0451843 -1.49932C 0.0446031 -1.49934 0.0440867 -1.49935 -1.2207e-05 -3.05176e-06C -0.0441111 1.49935 -0.0444979 1.49934 -0.04482 1.49933C -0.0448412 1.49933 -0.0450998 1.49932 -0.0451431 1.49932C -0.045358 1.49931 -0.045062 1.49932 -0.0446366 1.49933C -0.0431812 1.49938 -0.0419233 1.49942 -0.0390411 1.49952C -0.0320614 1.49976 -0.0235112 1.50006 -0.00975484 1.50061C 0.0202134 1.50178 0.0609123 1.50351 0.119324 1.50641C 0.241159 1.51244 0.412636 1.52212 0.644508 1.53875C 1.11867 1.57263 1.78734 1.63088 2.64283 1.73577C 4.37612 1.94753 6.73834 2.32977 9.46792 3.05053C 14.9756 4.498 21.5708 7.14996 26.7393 12.3607L 28.8606 10.2393ZM -1.2207e-05 -3.05176e-06C -1.49936 0.0440944 -1.49935 0.0446109 -1.49933 0.045192C -1.49932 0.0454724 -1.4993 0.0461194 -1.49929 0.0466801C -1.49926 0.0475 -1.49921 0.0491846 -1.49916 0.0508233C -1.49907 0.0534963 -1.49891 0.0584197 -1.49873 0.0637497C -1.4984 0.0731946 -1.49783 0.0891927 -1.49709 0.107932C -1.49572 0.142953 -1.49332 0.199032 -1.48992 0.267768C -1.48335 0.40023 -1.47175 0.604535 -1.45361 0.8586C -1.41796 1.35631 -1.35278 2.10014 -1.24204 3.00715C -1.02255 4.79886 -0.604786 7.36164 0.149453 10.2321C 1.65198 15.9244 4.65002 23.2292 10.2393 28.8607L 12.3606 26.7393C 7.14993 21.5708 4.49798 14.9756 3.05051 9.46794C 2.32975 6.73836 1.94752 4.37613 1.73576 2.64285C 1.63087 1.78736 1.57262 1.11868 1.53874 0.644519C 1.52211 0.412647 1.51243 0.24117 1.5064 0.119335C 1.5035 0.060923 1.50177 0.020224 1.5006 -0.00974424C 1.50006 -0.0235006 1.49975 -0.0320508 1.49951 -0.0390305C 1.49941 -0.0419127 1.49937 -0.0431706 1.49932 -0.044626C 1.49931 -0.0450514 1.4993 -0.0453474 1.49931 -0.0451326C 1.49931 -0.0450893 1.49932 -0.0448307 1.49932 -0.0448094C 1.49933 -0.0444873 1.49934 -0.0441005 -1.2207e-05 -3.05176e-06Z"/>
<path id="path5_fill" d="M 75 76.4C 67.7 76.4 61.8 70.5 61.8 63.2L 61.8 1.52588e-06L 13.2 1.52588e-06L 13.2 63.2C 13.2 70.5 7.3 76.4 1.13687e-13 76.4C 1.13687e-13 76.4 6.89997 98.9 41.1 98.9C 75.3 98.9 75 76.4 75 76.4Z"/>
<path id="path6_stroke" d="M 75 76.4L 76.4999 76.38C 76.4889 75.5594 75.8206 74.9 75 74.9L 75 76.4ZM 61.8 1.52588e-06L 63.3 1.52588e-06C 63.3 -0.828426 62.6284 -1.5 61.8 -1.5L 61.8 1.52588e-06ZM 13.2 1.52588e-06L 13.2 -1.5C 12.3716 -1.5 11.7 -0.828426 11.7 1.52588e-06L 13.2 1.52588e-06ZM 1.13687e-13 76.4L 1.13687e-13 74.9C -0.475771 74.9 -0.923331 75.1257 -1.20617 75.5083C -1.489 75.8909 -1.57357 76.3849 -1.43408 76.8398L 1.13687e-13 76.4ZM 75 74.9C 68.5284 74.9 63.3 69.6716 63.3 63.2L 60.3 63.2C 60.3 71.3284 66.8716 77.9 75 77.9L 75 74.9ZM 63.3 63.2L 63.3 1.52588e-06L 60.3 1.52588e-06L 60.3 63.2L 63.3 63.2ZM 61.8 -1.5L 13.2 -1.5L 13.2 1.5L 61.8 1.5L 61.8 -1.5ZM 11.7 1.52588e-06L 11.7 63.2L 14.7 63.2L 14.7 1.52588e-06L 11.7 1.52588e-06ZM 11.7 63.2C 11.7 69.6716 6.47158 74.9 1.13687e-13 74.9L 1.13687e-13 77.9C 8.12843 77.9 14.7 71.3284 14.7 63.2L 11.7 63.2ZM 1.13687e-13 76.4C -1.43408 76.8398 -1.43376 76.8408 -1.4334 76.842C -1.43325 76.8425 -1.43287 76.8437 -1.43256 76.8447C -1.43215 76.8461 -1.43122 76.849 -1.43039 76.8517C -1.42912 76.8557 -1.42659 76.8638 -1.42403 76.8718C -1.41973 76.8853 -1.41192 76.9095 -1.4031 76.9361C -1.38719 76.9842 -1.36005 77.0639 -1.32669 77.1574C -1.26366 77.3337 -1.15939 77.6107 -1.02204 77.942C -0.755852 78.5824 -0.315302 79.5406 0.303736 80.6485C 1.51977 82.8168 3.58714 85.8149 6.69908 88.7443C 12.989 94.6411 23.6356 100.4 41.1 100.4L 41.1 97.4C 24.3644 97.4 14.4609 91.9089 8.7509 86.5557C 5.86284 83.8601 4.06772 81.2332 2.92126 79.1827C 2.35905 78.1813 1.99335 77.3816 1.7486 76.7916C 1.63048 76.5077 1.55311 76.3013 1.49837 76.1479C 1.47285 76.0767 1.45706 76.0301 1.44478 75.993C 1.4395 75.977 1.43689 75.9689 1.43429 75.9608C 1.43341 75.958 1.43337 75.9579 1.43293 75.9565C 1.43291 75.9564 1.43319 75.9573 1.4332 75.9573C 1.43329 75.9577 1.43351 75.9584 1.43356 75.9585C 1.43381 75.9593 1.43408 75.9602 1.13687e-13 76.4ZM 41.1 100.4C 58.5578 100.4 67.5311 94.6355 72.0769 88.5474C 74.2939 85.5519 75.4421 82.459 75.9711 80.2657C 76.2396 79.1393 76.3774 78.1562 76.4393 77.509C 76.4711 77.1721 76.4872 76.8872 76.494 76.7086C 76.4975 76.6131 76.4992 76.5303 76.4997 76.4813C 76.5 76.4538 76.5001 76.4283 76.5001 76.4144C 76.5001 76.406 76.5 76.3973 76.5 76.3931C 76.5 76.3902 76.4999 76.3869 76.4999 76.3855C 76.4999 76.3844 76.4999 76.383 76.4999 76.3825C 76.4999 76.3812 76.4999 76.38 75 76.4C 73.5001 76.42 73.5001 76.419 73.5001 76.418C 73.5001 76.4178 73.5001 76.417 73.5001 76.4166C 73.5001 76.4166 73.5001 76.415 73.5001 76.4151C 73.5001 76.4139 73.5001 76.4159 73.5001 76.4182C 73.5001 76.4259 73.5001 76.4327 73.4999 76.4478C 73.4995 76.484 73.4987 76.5275 73.4961 76.5967C 73.4905 76.7477 73.4796 76.9463 73.4528 77.2246C 73.3976 77.8079 73.2917 78.5826 73.0539 79.5656C 72.5704 81.5911 71.656 84.1231 69.6731 86.7526C 65.8188 91.9145 57.8422 97.4 41.1 97.4L 41.1 100.4Z"/>
<path id="path7_fill" d="M -2.44141e-05 0L -2.44141e-05 41.1C -2.44141e-05 63 13.5 97.1 50.3 97.1C 59.9 97.1 79.1 77 79.1 48.3L 79.1 0L -2.44141e-05 0Z"/>
<path id="path8_stroke_2x" d="M -2.44141e-05 0L -2.44141e-05 -1L -1.00002 -1L -1.00002 0L -2.44141e-05 0ZM 79.1 0L 80.1 0L 80.1 -1L 79.1 -1L 79.1 0ZM -1.00002 0L -1.00002 41.1L 0.999976 41.1L 0.999976 0L -1.00002 0ZM -1.00002 41.1C -0.993038 52.168 2.46451 66.4636 10.5339 77.8904C 18.674 89.3861 31.5388 98.1 50.3 98.1L 50.3 96.1C 32.2612 96.1 19.976 87.7639 12.1661 76.7346C 4.28547 65.6364 0.992989 51.932 0.999976 41.1L -1.00002 41.1ZM 50.3 98.1C 53.0113 98.1 56.2219 96.7016 59.4452 94.3146C 62.6591 91.9302 66.072 88.4044 69.1205 84.0341C 75.1816 75.3221 80.0825 62.8363 80.1 48.3L 78.1 48.3C 78.1175 62.4637 73.4185 74.3779 67.4795 82.8909C 64.528 87.1332 61.341 90.426 58.2549 92.7073C 55.1781 94.9859 52.3887 96.1 50.3 96.1L 50.3 98.1ZM 80.1 48.3L 80.1 0L 78.1 0L 78.1 48.3L 80.1 48.3ZM 79.1 -1L -2.44141e-05 -1L -2.44141e-05 1L 79.1 1L 79.1 -1Z"/>
<path id="path9_stroke" d="M -2.44141e-05 0L -2.44141e-05 -1.5L -1.50002 -1.5L -1.50002 0L -2.44141e-05 0ZM 79.1 0L 80.6 0L 80.6 -1.5L 79.1 -1.5L 79.1 0ZM -1.50002 0L -1.50002 41.1L 1.49998 41.1L 1.49998 0L -1.50002 0ZM -1.50002 41.1C -1.48954 52.227 2.00927 66.6703 10.1258 78.1793C 18.3486 89.7917 31.3582 98.6 50.3 98.6L 50.3 95.6C 32.4418 95.6 20.3015 87.3583 12.5742 76.4457C 4.74071 65.4297 1.4895 51.873 1.49998 41.1L -1.50002 41.1ZM 50.3 98.6C 53.167 98.6 56.4829 97.1305 59.7427 94.7164C 62.9886 92.3063 66.458 88.7222 69.5308 84.3199C 75.6223 75.5581 80.5737 62.9295 80.6 48.3L 77.6 48.3C 77.6263 62.3705 72.9777 74.1419 67.0692 82.6051C 64.142 86.8154 61.0114 90.05 57.9573 92.3055C 54.9171 94.557 52.2331 95.6 50.3 95.6L 50.3 98.6ZM 80.6 48.3L 80.6 0L 77.6 0L 77.6 48.3L 80.6 48.3ZM 79.1 -1.5L -2.44141e-05 -1.5L -2.44141e-05 1.5L 79.1 1.5L 79.1 -1.5Z"/>
<path id="path10_fill" d="M -1.2207e-05 10.4L 6.29998 10.4C 9.19998 10.4 11.5 8.1 11.5 5.2C 11.5 2.3 9.19998 1.52588e-06 6.29998 1.52588e-06"/>
<path id="path11_stroke" d="M -1.2207e-05 8.9C -0.828439 8.9 -1.50001 9.57158 -1.50001 10.4C -1.50001 11.2284 -0.828439 11.9 -1.2207e-05 11.9L -1.2207e-05 8.9ZM 6.29998 -1.5C 5.47155 -1.5 4.79998 -0.828426 4.79998 1.52588e-06C 4.79998 0.828429 5.47155 1.5 6.29998 1.5L 6.29998 -1.5ZM -1.2207e-05 11.9L 6.29998 11.9L 6.29998 8.9L -1.2207e-05 8.9L -1.2207e-05 11.9ZM 6.29998 11.9C 10.0284 11.9 13 8.92843 13 5.2L 9.99999 5.2C 9.99999 7.27157 8.37155 8.9 6.29998 8.9L 6.29998 11.9ZM 13 5.2C 13 1.47157 10.0284 -1.5 6.29998 -1.5L 6.29998 1.5C 8.37155 1.5 9.99999 3.12843 9.99999 5.2L 13 5.2Z"/>
<path id="path12_fill" d="M 1.2207e-05 1.52588e-06L 15.9 1.52588e-06L 30.8 1.52588e-06"/>
<path id="path13_stroke" d="M 1.2207e-05 -1.5C -0.828415 -1.5 -1.49999 -0.828426 -1.49999 1.52588e-06C -1.49999 0.828429 -0.828415 1.5 1.2207e-05 1.5L 1.2207e-05 -1.5ZM 30.8 1.5C 31.6284 1.5 32.3 0.828429 32.3 1.52588e-06C 32.3 -0.828426 31.6284 -1.5 30.8 -1.5L 30.8 1.5ZM 1.2207e-05 1.5L 15.9 1.5L 15.9 -1.5L 1.2207e-05 -1.5L 1.2207e-05 1.5ZM 15.9 1.5L 30.8 1.5L 30.8 -1.5L 15.9 -1.5L 15.9 1.5Z"/>
<path id="path14_fill" d="M -2.44141e-05 1.52588e-06L 22 1.52588e-06C 22 1.52588e-06 19.7 7.6 12.6 7.6C 5.50001 7.5 -2.44141e-05 1.52588e-06 -2.44141e-05 1.52588e-06Z"/>
<path id="path15_stroke" d="M -2.44141e-05 1.52588e-06L -2.44141e-05 -1.5C -0.565279 -1.5 -1.08254 -1.18223 -1.33804 -0.67802C -1.59354 -0.173806 -1.5439 0.431228 -1.20963 0.887051L -2.44141e-05 1.52588e-06ZM 22 1.52588e-06L 23.4357 0.434482C 23.5732 -0.019959 23.4875 -0.512679 23.2045 -0.893945C 22.9215 -1.27521 22.4748 -1.5 22 -1.5L 22 1.52588e-06ZM 12.6 7.6L 12.5789 9.09985C 12.5859 9.09995 12.593 9.1 12.6 9.1L 12.6 7.6ZM -2.44141e-05 1.5L 22 1.5L 22 -1.5L -2.44141e-05 -1.5L -2.44141e-05 1.5ZM 22 1.52588e-06C 20.5643 -0.434479 20.5645 -0.435051 20.5646 -0.435594C 20.5647 -0.435737 20.5648 -0.436253 20.5649 -0.436539C 20.5649 -0.436367 20.5654 -0.438273 20.5653 -0.437925C 20.5654 -0.438033 20.5656 -0.438885 20.5656 -0.438692C 20.5649 -0.436687 20.5648 -0.436223 20.5636 -0.43237C 20.5601 -0.421386 20.5566 -0.410415 20.5496 -0.389544C 20.5334 -0.341098 20.5131 -0.28189 20.4802 -0.193152C 20.4096 -0.0016838 20.3134 0.242393 20.1661 0.562525C 19.8597 1.23278 19.4342 2.03539 18.7738 2.88506C 17.4883 4.55519 15.5333 6.1 12.6 6.1L 12.6 9.1C 16.7667 9.1 19.5117 6.84481 21.1511 4.71494C 21.9533 3.66461 22.5465 2.56722 22.8933 1.81248C 23.0725 1.42011 23.2115 1.07044 23.2944 0.84628C 23.3383 0.727205 23.3742 0.623132 23.3953 0.56025C 23.4068 0.525457 23.4171 0.493753 23.4228 0.475976C 23.4261 0.46545 23.4294 0.455013 23.431 0.449712C 23.4321 0.446252 23.4332 0.442429 23.4338 0.440696C 23.4342 0.439428 23.4346 0.43787 23.4348 0.437236C 23.435 0.436719 23.4352 0.436029 23.4353 0.435771C 23.4355 0.435112 23.4357 0.434482 22 1.52588e-06ZM 12.6211 6.10015C 9.57784 6.05729 6.75717 4.41165 4.59839 2.61069C 3.52736 1.71997 2.6968 0.858254 2.09127 0.176736C 1.79567 -0.155355 1.57805 -0.418827 1.42136 -0.61472C 1.34623 -0.708553 1.29387 -0.776087 1.2551 -0.826807C 1.23722 -0.850176 1.22598 -0.865108 1.21687 -0.877286C 1.21304 -0.882398 1.21125 -0.884807 1.20931 -0.887429C 1.20869 -0.888255 1.20815 -0.888998 1.20846 -0.888575C 1.20844 -0.888605 1.20878 -0.888135 1.20877 -0.888149C 1.20887 -0.888022 1.20907 -0.887746 1.20911 -0.887683C 1.20934 -0.88738 1.20958 -0.887048 -2.44141e-05 1.52588e-06C -1.20963 0.887051 -1.20934 0.88744 -1.20904 0.887857C -1.20891 0.888035 -1.20858 0.888482 -1.20832 0.888836C -1.20797 0.889306 -1.20719 0.890373 -1.2065 0.891311C -1.20547 0.892705 -1.20339 0.895526 -1.20133 0.898304C -1.19793 0.902893 -1.19172 0.911243 -1.18493 0.920325C -1.17279 0.936534 -1.15229 0.963729 -1.12815 0.995315C -1.08288 1.05451 -1.01014 1.1482 -0.921019 1.25964C -0.749192 1.4743 -0.481649 1.79754 -0.15068 2.17014C 0.496923 2.898 1.48512 3.91753 2.67659 4.91431C 5.04283 6.88835 8.52218 9.04271 12.5789 9.09985L 12.6211 6.10015Z"/>
<path id="path16_fill" d="M 64.5 1.89698C 45.7 -3.90302 24.3 4.29698 12.7 16.997C 3.3 27.297 -1.2207e-05 41.397 -1.2207e-05 55.097C -1.2207e-05 105.497 32.4 117.497 32.4 117.497L 32.4 105.597L 32.4 61.997C 32.4 55.697 37.5 50.597 43.8 50.597L 68.9 50.597C 75.1 50.597 80.2 45.597 80.3 39.497L 80.6 39.497C 80.8 45.597 85.8 50.597 92 50.597L 100.5 50.597L 100.5 87.397C 100.5 87.397 119.4 59.897 108.1 31.797C 97.5 5.09698 77.9 8.99698 77.9 8.99698C 77.9 8.99698 72.7 4.39698 64.5 1.89698Z"/>
<path id="path17_stroke" d="M 64.5 1.89698L 64.0578 3.33033L 64.0625 3.33178L 64.5 1.89698ZM 12.7 16.997L 11.5925 15.9854L 11.592 15.9858L 12.7 16.997ZM 32.4 117.497L 31.879 118.904C 32.3394 119.074 32.854 119.009 33.2569 118.728C 33.6598 118.448 33.9 117.988 33.9 117.497L 32.4 117.497ZM 80.3 39.497L 80.3 37.997C 79.4811 37.997 78.8136 38.6537 78.8002 39.4724L 80.3 39.497ZM 80.6 39.497L 82.0992 39.4478C 82.0727 38.639 81.4093 37.997 80.6 37.997L 80.6 39.497ZM 100.5 50.597L 102 50.597C 102 49.7686 101.328 49.097 100.5 49.097L 100.5 50.597ZM 100.5 87.397L 99 87.397C 99 88.0541 99.4276 88.6347 100.055 88.8295C 100.683 89.0244 101.364 88.7881 101.736 88.2466L 100.5 87.397ZM 108.1 31.797L 106.706 32.3505L 106.708 32.3566L 108.1 31.797ZM 77.9 8.99698L 76.9062 10.1205C 77.2572 10.431 77.7331 10.5596 78.1927 10.4681L 77.9 8.99698ZM 64.9422 0.463645C 45.4947 -5.53612 23.5139 2.93351 11.5925 15.9854L 13.8075 18.0086C 25.0861 5.66046 45.9053 -2.26991 64.0578 3.33032L 64.9422 0.463645ZM 11.592 15.9858C 1.84494 26.6662 -1.50001 41.1926 -1.50001 55.097L 1.49999 55.097C 1.49999 41.6013 4.75506 27.9278 13.808 18.0081L 11.592 15.9858ZM -1.50001 55.097C -1.50001 80.6505 6.72542 96.6026 15.0689 106.182C 19.2255 110.943 23.446 114.155 26.5383 116.104C 28.107 117.09 29.4473 117.796 30.3571 118.234C 30.8227 118.458 31.2044 118.627 31.4527 118.732C 31.582 118.786 31.6889 118.83 31.7554 118.856C 31.7913 118.87 31.8222 118.882 31.8404 118.889C 31.8507 118.893 31.8604 118.897 31.8656 118.899C 31.8688 118.9 31.8722 118.901 31.8738 118.902C 31.8749 118.902 31.8762 118.903 31.8768 118.903C 31.878 118.903 31.879 118.904 32.4 117.497C 32.921 116.09 32.9218 116.091 32.9225 116.091C 32.9226 116.091 32.9231 116.091 32.9233 116.091C 32.9236 116.091 32.9233 116.091 32.9226 116.091C 32.92 116.09 32.9179 116.089 32.9127 116.087C 32.8997 116.082 32.8842 116.076 32.8587 116.066C 32.8026 116.044 32.7276 116.014 32.6196 115.968C 32.3933 115.873 32.0789 115.734 31.6585 115.531C 30.7965 115.117 29.6055 114.491 28.1367 113.565C 25.154 111.689 21.2745 108.751 17.3311 104.212C 9.47457 95.1913 1.49999 79.9434 1.49999 55.097L -1.50001 55.097ZM 33.9 117.497L 33.9 105.597L 30.9 105.597L 30.9 117.497L 33.9 117.497ZM 33.9 105.597L 33.9 61.997L 30.9 61.997L 30.9 105.597L 33.9 105.597ZM 33.9 61.997C 33.9 56.5254 38.3284 52.097 43.8 52.097L 43.8 49.097C 36.6715 49.097 30.9 54.8686 30.9 61.997L 33.9 61.997ZM 43.8 52.097L 68.9 52.097L 68.9 49.097L 43.8 49.097L 43.8 52.097ZM 68.9 52.097C 75.9074 52.097 81.6862 46.4517 81.7998 39.5216L 78.8002 39.4724C 78.7138 44.7423 74.2926 49.097 68.9 49.097L 68.9 52.097ZM 80.3 40.997L 80.6 40.997L 80.6 37.997L 80.3 37.997L 80.3 40.997ZM 79.1008 39.5461C 79.3267 46.435 84.9708 52.097 92 52.097L 92 49.097C 86.6291 49.097 82.2734 44.759 82.0992 39.4478L 79.1008 39.5461ZM 92 52.097L 100.5 52.097L 100.5 49.097L 92 49.097L 92 52.097ZM 99 50.597L 99 87.397L 102 87.397L 102 50.597L 99 50.597ZM 100.5 87.397C 101.736 88.2466 101.737 88.246 101.737 88.2454C 101.737 88.245 101.738 88.2442 101.738 88.2435C 101.739 88.2424 101.741 88.2402 101.742 88.2379C 101.745 88.2339 101.75 88.2271 101.755 88.2191C 101.765 88.2046 101.781 88.1808 101.8 88.1518C 101.837 88.0963 101.895 88.0095 101.966 87.9C 102.106 87.6862 102.314 87.3598 102.569 86.9446C 103.071 86.125 103.789 84.8997 104.603 83.3622C 106.215 80.3112 108.279 75.8738 109.967 70.5902C 113.313 60.0777 115.239 45.6626 109.492 31.2373L 106.708 32.3566C 112.261 46.0314 110.387 59.4163 107.108 69.6788C 105.484 74.7827 103.529 78.9765 101.951 81.9599C 101.169 83.4396 100.498 84.5822 100.011 85.3764C 99.7712 85.768 99.5847 86.0598 99.4526 86.2626C 99.3883 86.3614 99.3412 86.4324 99.3075 86.4827C 99.2915 86.5065 99.2806 86.5227 99.2724 86.5347C 99.2687 86.5402 99.2666 86.5433 99.2647 86.546C 99.264 86.5471 99.2638 86.5474 99.2634 86.548C 99.2633 86.5481 99.2634 86.5479 99.2634 86.548C 99.2635 86.5477 99.2638 86.5474 100.5 87.397ZM 109.494 31.2435C 104.052 17.5366 96.2094 11.5067 89.5573 8.98208C 86.274 7.74745 83.2435 7.36056 81.1667 7.30529C 80.1013 7.27923 79.2019 7.33168 78.6168 7.38869C 78.312 7.41876 78.0575 7.45262 77.899 7.47648C 77.8139 7.48936 77.7405 7.50161 77.6973 7.50918C 77.6729 7.51348 77.6503 7.51762 77.638 7.51991C 77.6305 7.52132 77.6228 7.5228 77.619 7.52352C 77.6165 7.52402 77.6135 7.52459 77.6123 7.52484C 77.6113 7.52503 77.61 7.52528 77.6095 7.52538C 77.6084 7.52561 77.6073 7.52582 77.9 8.99698C 78.1927 10.4681 78.1918 10.4683 78.1909 10.4685C 78.1907 10.4685 78.1899 10.4687 78.1896 10.4688C 78.1896 10.4688 78.1879 10.4691 78.1881 10.469C 78.1871 10.4692 78.1885 10.469 78.1905 10.4686C 78.1972 10.4674 78.2028 10.4663 78.2158 10.464C 78.2474 10.4585 78.2853 10.4521 78.3465 10.4429C 78.4802 10.4227 78.6571 10.3988 78.909 10.3744C 79.4372 10.3224 80.1519 10.2788 81.0895 10.3043C 83.019 10.3522 85.551 10.659 88.4928 11.7869C 94.2906 13.9873 101.548 19.3574 106.706 32.3505L 109.494 31.2435ZM 77.9 8.99698C 78.8939 7.87349 78.8936 7.87322 78.8932 7.87294C 78.8931 7.87282 78.8928 7.87252 78.8925 7.87228C 78.8922 7.87197 78.8914 7.87126 78.8907 7.87065C 78.8896 7.86976 78.8876 7.86792 78.8855 7.86614C 78.8822 7.86325 78.8761 7.85791 78.8695 7.85218C 78.8579 7.84204 78.838 7.82488 78.8148 7.80499C 78.7715 7.76792 78.7016 7.70886 78.6158 7.63791C 78.4505 7.50145 78.1931 7.29421 77.87 7.0472C 77.2376 6.56431 76.2758 5.87182 75.0737 5.11479C 72.701 3.62352 69.1725 1.76052 64.9374 0.462185L 64.0625 3.33178C 68.0275 4.53344 71.199 6.22045 73.4763 7.65418C 74.5992 8.35965 75.4499 8.97341 76.0488 9.43114C 76.3413 9.65445 76.5542 9.82611 76.7053 9.95098C 76.7777 10.0107 76.8276 10.0529 76.8644 10.0844C 76.8813 10.0989 76.8916 10.1078 76.9001 10.1152C 76.9036 10.1183 76.9051 10.1196 76.9069 10.1211C 76.9074 10.1216 76.9077 10.1219 76.9075 10.1216C 76.9075 10.1217 76.907 10.1212 76.907 10.1213C 76.9069 10.1212 76.9067 10.121 76.9067 10.1209C 76.9064 10.1207 76.9062 10.1205 77.9 8.99698Z"/>
<path id="path18_fill" d="M 0.000377133 3.05176e-06L 29.5004 3.05176e-06C 29.5004 3.05176e-06 29.7004 2.1 29.3004 4.7C 28.5004 9.3 25.5004 15.7 15.5004 15.7C -0.299623 15.8 0.000377133 3.05176e-06 0.000377133 3.05176e-06Z"/>
<path id="path19_stroke" d="M 0.000377133 3.05176e-06L 0.000377133 -1.5C -0.816951 -1.5 -1.48384 -0.845653 -1.49935 -0.0284729L 0.000377133 3.05176e-06ZM 29.5004 3.05176e-06L 30.9936 -0.142245C 30.9203 -0.912084 30.2737 -1.5 29.5004 -1.5L 29.5004 3.05176e-06ZM 29.3004 4.7L 30.7782 4.95701C 30.7799 4.94739 30.7815 4.93774 30.783 4.92809L 29.3004 4.7ZM 15.5004 15.7L 15.5004 14.2L 15.4909 14.2L 15.5004 15.7ZM 0.000377133 1.5L 29.5004 1.5L 29.5004 -1.5L 0.000377133 -1.5L 0.000377133 1.5ZM 29.5004 3.05176e-06C 28.0071 0.142251 28.0071 0.142036 28.0071 0.141829C 28.0071 0.141771 28.0071 0.141571 28.0071 0.141455C 28.0071 0.14154 28.007 0.140676 28.007 0.140847C 28.007 0.14089 28.0069 0.140104 28.0069 0.140195C 28.0069 0.139779 28.007 0.14032 28.007 0.141133C 28.0073 0.143961 28.0075 0.146312 28.008 0.15184C 28.0091 0.165333 28.0104 0.181461 28.0124 0.207532C 28.0167 0.264671 28.0218 0.340185 28.0275 0.44762C 28.0394 0.672956 28.0506 0.977285 28.0504 1.37502C 28.0508 2.19313 28.0076 3.25386 27.8179 4.47191L 30.783 4.92809C 30.9933 3.54614 31.0501 2.25688 31.0504 1.37498C 31.0501 0.922719 31.0364 0.539548 31.0233 0.289885C 31.0164 0.15982 31.0091 0.0509597 31.004 -0.0169014C 31.0012 -0.05333 30.9987 -0.0848582 30.9971 -0.103396C 30.9962 -0.113884 30.9953 -0.123643 30.9948 -0.12892C 30.9946 -0.13216 30.9942 -0.135503 30.9941 -0.137125C 30.994 -0.138235 30.9939 -0.139518 30.9938 -0.140073C 30.9938 -0.140499 30.9937 -0.141043 30.9937 -0.141256C 30.9937 -0.141437 30.9937 -0.141685 30.9937 -0.141775C 30.9936 -0.142014 30.9936 -0.142245 29.5004 3.05176e-06ZM 27.8226 4.44299C 27.448 6.6254 26.6718 8.96566 24.7713 10.8831C 22.9907 12.7273 20.1495 14.2 15.5004 14.2L 15.5004 17.2C 20.8512 17.2 24.5101 15.4727 26.9295 12.9669C 29.229 10.5343 30.3529 7.3746 30.7782 4.95701L 27.8226 4.44299ZM 15.4909 14.2C 8.24394 14.2459 4.85838 10.7215 3.17632 7.23562C 2.29027 5.42067 1.89296 3.6679 1.68425 2.24782C 1.58129 1.55697 1.53767 1.01065 1.51629 0.600125C 1.50585 0.403647 1.50221 0.262508 1.50071 0.155899C 1.49998 0.106746 1.49991 0.0752965 1.49999 0.0496126C 1.50002 0.0387847 1.50007 0.0335984 1.50013 0.0280305C 1.50015 0.0262381 1.50017 0.0245352 1.50016 0.0254546C 1.50016 0.0254224 1.50015 0.0262732 1.50015 0.0262609C 1.50014 0.026512 1.50013 0.027068 1.50013 0.0271928C 1.50012 0.0278059 1.50011 0.028479 0.000377133 3.05176e-06C -1.49935 -0.0284729 -1.49937 -0.0276792 -1.49938 -0.0268255C -1.49939 -0.0264601 -1.49941 -0.0255434 -1.49942 -0.0248121C -1.49943 -0.0238393 -1.49947 -0.0216383 -1.4995 -0.0196926C -1.49954 -0.0167847 -1.49962 -0.0109232 -1.49969 -0.00512174C -1.49979 0.00449821 -1.49994 0.0219727 -1.5 0.0410368C -1.50009 0.0751368 -1.49991 0.132396 -1.49898 0.198941C -1.49716 0.323729 -1.49182 0.521945 -1.47959 0.757303C -1.45567 1.21045 -1.39929 1.89772 -1.2835 2.68656C -1.0547 4.22586 -0.539514 6.41683 0.474434 8.53939C 2.59237 12.9285 6.95682 17.2541 15.5099 17.2L 15.4909 14.2Z"/>
<path id="path20_fill" d="M 24.4506 3.05176e-06L 0.0505557 3.05176e-06C 0.0505557 3.05176e-06 -1.54943 15.8 13.2506 15.8C 27.9506 15.8 24.4506 3.05176e-06 24.4506 3.05176e-06Z"/>
<path id="path21_stroke" d="M 24.4506 3.05176e-06L 25.9151 -0.32441C 25.7629 -1.01119 25.154 -1.5 24.4506 -1.5L 24.4506 3.05176e-06ZM 0.0505557 3.05176e-06L 0.0505557 -1.5C -0.719352 -1.5 -1.36424 -0.917112 -1.44181 -0.151122L 0.0505557 3.05176e-06ZM 24.4506 -1.5L 0.0505557 -1.5L 0.0505557 1.5L 24.4506 1.5L 24.4506 -1.5ZM 0.0505557 3.05176e-06C -1.44181 -0.151122 -1.44189 -0.150384 -1.44197 -0.149587C -1.442 -0.14924 -1.44209 -0.14838 -1.44216 -0.147686C -1.44225 -0.146751 -1.44246 -0.144663 -1.44264 -0.142793C -1.44291 -0.139961 -1.44346 -0.134326 -1.44399 -0.128676C -1.44487 -0.119208 -1.44642 -0.102191 -1.44805 -0.0834306C -1.45095 -0.0496357 -1.45549 0.0066999 -1.46013 0.0726389C -1.46881 0.196823 -1.48025 0.393196 -1.4884 0.627403C -1.5038 1.07949 -1.5084 1.76353 -1.46594 2.55091C -1.38039 4.09 -1.08074 6.28444 -0.30756 8.41691C 0.472671 10.5228 1.89423 12.8491 4.03143 14.5215C 6.26061 16.2312 9.26893 17.3 13.2506 17.3L 13.2506 14.3C 9.8322 14.3 7.49052 13.3938 5.8572 12.141C 4.1319 10.8509 3.17845 9.22717 2.50868 7.38309C 1.83186 5.56557 1.60651 3.81 1.52956 2.3866C 1.49076 1.69273 1.49554 1.14239 1.50983 0.730415C 1.51651 0.532591 1.525 0.389511 1.53253 0.28225C 1.536 0.232466 1.53864 0.200081 1.54088 0.174086C 1.54184 0.162951 1.54235 0.157306 1.54289 0.151586C 1.54307 0.149642 1.54308 0.14955 1.54318 0.148555C 1.54318 0.148512 1.54313 0.14911 1.54312 0.149135C 1.5431 0.149349 1.54305 0.149848 1.54304 0.149954C 1.54299 0.150511 1.54292 0.151128 0.0505557 3.05176e-06ZM 13.2506 17.3C 17.2052 17.3 20.1111 16.2309 22.1748 14.4732C 24.1309 12.7636 25.2951 10.3777 25.8204 8.25512C 26.3326 6.11208 26.3656 3.90855 26.2645 2.36929C 26.2115 1.58275 26.1244 0.900424 26.0545 0.449062C 26.0182 0.21564 25.9834 0.0204952 25.9598 -0.103265C 25.9473 -0.168777 25.9361 -0.224462 25.9292 -0.258039C 25.9253 -0.276581 25.9218 -0.293268 25.9198 -0.302626C 25.9186 -0.308167 25.9174 -0.313636 25.9168 -0.316413C 25.9164 -0.318228 25.916 -0.320233 25.9158 -0.321141C 25.9157 -0.321807 25.9155 -0.322625 25.9154 -0.322958C 25.9152 -0.323714 25.9151 -0.32441 24.4506 3.05176e-06C 22.9861 0.324416 22.986 0.323841 22.9858 0.323326C 22.9858 0.323233 22.9857 0.322775 22.9857 0.322589C 22.9857 0.322536 22.9856 0.322076 22.9856 0.322175C 22.9858 0.323225 22.9859 0.323482 22.9863 0.325536C 22.9876 0.331366 22.9888 0.337341 22.9912 0.348695C 22.9966 0.374908 23.0033 0.407943 23.0128 0.458154C 23.0333 0.565839 23.0593 0.710147 23.09 0.908756C 23.1541 1.32146 23.2256 1.8735 23.2711 2.56822C 23.3668 3.99146 23.356 5.73792 22.9057 7.54488C 22.4686 9.3723 21.7515 10.9364 20.2295 12.1893C 18.8151 13.3941 16.6459 14.3 13.2506 14.3L 13.2506 17.3Z"/>
<path id="path22_fill" d="M 5.4 2.7C 5.4 4.2 4.19999 5.4 2.69999 5.4C 1.19999 5.4 -2.44141e-05 4.2 -2.44141e-05 2.7C -2.44141e-05 1.2 1.19999 -3.05176e-06 2.69999 -3.05176e-06C 4.19999 -3.05176e-06 5.4 1.2 5.4 2.7Z"/>
<path id="path23_stroke" d="M 4.15 2.7C 4.15 3.50964 3.50964 4.15 2.69999 4.15L 2.69999 6.65C 4.89033 6.65 6.65 4.89037 6.65 2.7L 4.15 2.7ZM 2.69999 4.15C 1.89033 4.15 1.24998 3.50964 1.24998 2.7L -1.25002 2.7C -1.25002 4.89037 0.509641 6.65 2.69999 6.65L 2.69999 4.15ZM 1.24998 2.7C 1.24998 1.89036 1.89034 1.25 2.69999 1.25L 2.69999 -1.25C 0.509637 -1.25 -1.25002 0.509641 -1.25002 2.7L 1.24998 2.7ZM 2.69999 1.25C 3.50964 1.25 4.15 1.89036 4.15 2.7L 6.65 2.7C 6.65 0.509641 4.89034 -1.25 2.69999 -1.25L 2.69999 1.25Z"/>
<path id="path24_stroke" d="M -2.44141e-05 1.5L 12.6 1.5L 12.6 -1.5L -2.44141e-05 -1.5L -2.44141e-05 1.5Z"/>
<path id="path25_stroke" d="M 4.79998 -1.5L -1.2207e-05 -1.5L -1.2207e-05 1.5L 4.79998 1.5L 4.79998 -1.5Z"/>
<path id="path26_fill" d="M 91.6 3.05176e-06C 91.6 3.05176e-06 92 13.5 57.7 13.5C 23.4 13.5 16.6 3.05176e-06 16.6 3.05176e-06L 1.2207e-05 3.05176e-06C 1.2207e-05 3.05176e-06 3.00002 26.9 57.7 26.9C 105.1 26.9 106 3.05176e-06 106 3.05176e-06L 91.6 3.05176e-06Z"/>
<path id="path27_stroke" d="M 91.6 3.05176e-06L 91.6 -1.5L 90.0549 -1.5L 90.1006 0.0444316L 91.6 3.05176e-06ZM 16.6 3.05176e-06L 17.9396 -0.674787L 17.524 -1.5L 16.6 -1.5L 16.6 3.05176e-06ZM 1.2207e-05 3.05176e-06L 1.2207e-05 -1.5L -1.67657 -1.5L -1.49075 0.166259L 1.2207e-05 3.05176e-06ZM 106 3.05176e-06L 107.499 0.0501603L 107.551 -1.5L 106 -1.5L 106 3.05176e-06ZM 91.6 3.05176e-06C 90.1006 0.0444316 90.1006 0.0426208 90.1005 0.0408613C 90.1005 0.0403416 90.1005 0.0386258 90.1005 0.0375834C 90.1005 0.038424 90.1003 0.0302054 90.1003 0.0319001C 90.1004 0.0327908 90.1002 0.0221396 90.1002 0.0239882C 90.1002 0.0226475 90.1003 0.0194 90.1002 0.0217094C 90.1001 0.0365673 90.1 0.0417425 90.0984 0.0691502C 90.0944 0.145091 90.0887 0.218665 90.0672 0.354888C 90.0199 0.67221 89.9419 1.03618 89.7309 1.55973C 89.3266 2.58633 88.46 4.0598 86.5712 5.58211C 82.7682 8.64723 74.698 12 57.7 12L 57.7 15C 75.0021 15 83.8818 11.6028 88.4538 7.9179C 90.7525 6.06521 91.9297 4.16368 92.5222 2.65903C 92.8097 1.91695 92.9683 1.22623 93.0332 0.805274C 93.0678 0.572357 93.087 0.355892 93.0938 0.234079C 93.0976 0.162609 93.0995 0.0919788 93.1 0.0557503C 93.1002 0.0325165 93.1002 0.00722414 93.1001 -0.00441271C 93.1 -0.0127501 93.0998 -0.022815 93.0998 -0.0269759C 93.0997 -0.0303055 93.0996 -0.0346833 93.0996 -0.0363446C 93.0995 -0.0377973 93.0995 -0.0398213 93.0994 -0.0405466C 93.0994 -0.0425117 93.0993 -0.0444255 91.6 3.05176e-06ZM 57.7 12C 40.745 12 30.7376 8.66385 25.0241 5.4433C 22.1615 3.839 20.4181 2.30009 19.2984 1.08953C 18.7609 0.512488 18.4289 0.0720761 18.1966 -0.267768C 18.0894 -0.423467 18.0271 -0.524735 17.9775 -0.609072C 17.9568 -0.644137 17.9478 -0.660411 17.9378 -0.678768C 17.9347 -0.684402 17.9322 -0.68921 17.9338 -0.686287C 17.9336 -0.686596 17.9356 -0.682811 17.9355 -0.682952C 17.935 -0.683906 17.9375 -0.679002 17.9373 -0.679478C 17.9376 -0.678798 17.9382 -0.677624 17.9384 -0.677285C 17.939 -0.676062 17.9396 -0.674787 16.6 3.05176e-06C 15.2603 0.674793 15.261 0.676171 15.2618 0.6776C 15.262 0.678145 15.2628 0.679626 15.2633 0.680716C 15.264 0.682013 15.2657 0.685286 15.267 0.687876C 15.2688 0.691286 15.2728 0.699065 15.2763 0.705862C 15.2816 0.715917 15.2925 0.736318 15.3033 0.756228C 15.3211 0.788957 15.3545 0.848489 15.3919 0.912301C 15.4588 1.02572 15.576 1.21449 15.7218 1.42793C 15.9953 1.82637 16.4626 2.44064 17.0985 3.12922C 18.3257 4.44992 20.426 6.286 23.5509 8.05671C 29.8124 11.5862 40.355 15 57.7 15L 57.7 12ZM 16.6 -1.5L 1.2207e-05 -1.5L 1.2207e-05 1.5L 16.6 1.5L 16.6 -1.5ZM 1.2207e-05 3.05176e-06C -1.49075 0.166259 -1.49057 0.167826 -1.49038 0.169495C -1.4903 0.170189 -1.4901 0.171966 -1.48994 0.173354C -1.48973 0.175154 -1.48924 0.179332 -1.48881 0.182931C -1.48819 0.188168 -1.48686 0.199005 -1.48553 0.209453C -1.48336 0.226401 -1.47915 0.25785 -1.47433 0.291433C -1.46577 0.350609 -1.45 0.451384 -1.42939 0.56684C -1.39082 0.781393 -1.32044 1.1246 -1.21711 1.52892C -1.01771 2.30334 -0.646169 3.47639 -0.0442086 4.81917C 1.13523 7.4297 3.39675 11.0541 7.34258 14.5725C 15.2878 21.6146 30.1126 28.4 57.7 28.4L 57.7 25.4C 30.5874 25.4 16.5622 18.7354 9.33246 12.3275C 5.69079 9.12089 3.78355 6.0203 2.69111 3.58709C 2.15713 2.40799 1.86695 1.47948 1.68862 0.782807C 1.60309 0.451575 1.55559 0.216855 1.52351 0.0373649C 1.50879 -0.0441998 1.50103 -0.0944748 1.49491 -0.137094C 1.49238 -0.154408 1.49145 -0.161542 1.49032 -0.170453C 1.49 -0.172935 1.48983 -0.174404 1.48998 -0.173125C 1.48994 -0.173467 1.49026 -0.170728 1.49024 -0.170892C 1.49031 -0.170321 1.49044 -0.169159 1.49048 -0.168874C 1.49062 -0.167615 1.49077 -0.166253 1.2207e-05 3.05176e-06ZM 57.7 28.4C 81.6874 28.4 94.2186 21.5846 100.732 14.4623C 103.945 10.9241 105.687 7.28053 106.544 4.66951C 106.98 3.32987 107.227 2.16339 107.35 1.39187C 107.414 0.990762 107.452 0.652605 107.472 0.439808C 107.482 0.326135 107.49 0.228072 107.493 0.169809C 107.495 0.13714 107.497 0.10707 107.497 0.0905825C 107.498 0.0805957 107.498 0.070451 107.499 0.0654449C 107.499 0.0620765 107.499 0.0582457 107.499 0.0565615C 107.499 0.0552883 107.499 0.0536856 107.499 0.0530494C 107.499 0.0515538 107.499 0.0501603 106 3.05176e-06C 104.501 -0.0501542 104.501 -0.0513424 104.501 -0.0524284C 104.501 -0.052655 104.501 -0.0536436 104.501 -0.054099C 104.501 -0.0540503 104.501 -0.0557494 104.501 -0.055639C 104.501 -0.057149 104.501 -0.0545253 104.501 -0.0515826C 104.5 -0.0422106 104.5 -0.033698 104.499 -0.0154694C 104.496 0.028062 104.492 0.0810486 104.485 0.164397C 104.468 0.345643 104.441 0.585416 104.387 0.919859C 104.276 1.61942 104.082 2.55451 103.693 3.73674C 102.9 6.16947 101.455 9.25085 98.5181 12.4377C 92.7314 18.7654 81.1127 25.4 57.7 25.4L 57.7 28.4ZM 106 -1.5L 91.6 -1.5L 91.6 1.5L 106 1.5L 106 -1.5Z"/>
<path id="path28_stroke" d="M -1.2207e-05 -1.5C -0.828439 -1.5 -1.50001 -0.82843 -1.50001 -3.05176e-06C -1.50001 0.828424 -0.828439 1.5 -1.2207e-05 1.5L -1.2207e-05 -1.5ZM 16.9 1.5C 17.7284 1.5 18.4 0.828424 18.4 -3.05176e-06C 18.4 -0.82843 17.7284 -1.5 16.9 -1.5L 16.9 1.5ZM -1.2207e-05 1.5L 16.9 1.5L 16.9 -1.5L -1.2207e-05 -1.5L -1.2207e-05 1.5Z"/>
<path id="path29_fill" d="M 5.40002 2.7C 5.40002 4.2 4.20001 5.4 2.70001 5.4C 1.20001 5.4 1.13687e-13 4.2 1.13687e-13 2.7C 1.13687e-13 1.2 1.20001 -3.05176e-06 2.70001 -3.05176e-06C 4.20001 -3.05176e-06 5.40002 1.2 5.40002 2.7Z"/>
<path id="path30_stroke" d="M 4.15002 2.7C 4.15002 3.50964 3.50967 4.15 2.70001 4.15L 2.70001 6.65C 4.89036 6.65 6.65002 4.89037 6.65002 2.7L 4.15002 2.7ZM 2.70001 4.15C 1.89036 4.15 1.25 3.50964 1.25 2.7L -1.25 2.7C -1.25 4.89037 0.509665 6.65 2.70001 6.65L 2.70001 4.15ZM 1.25 2.7C 1.25 1.89036 1.89036 1.25 2.70001 1.25L 2.70001 -1.25C 0.509661 -1.25 -1.25 0.509641 -1.25 2.7L 1.25 2.7ZM 2.70001 1.25C 3.50966 1.25 4.15002 1.89036 4.15002 2.7L 6.65002 2.7C 6.65002 0.509641 4.89036 -1.25 2.70001 -1.25L 2.70001 1.25Z"/>
<path id="path31_stroke" d="M -2.44141e-05 -1.5C -0.828452 -1.5 -1.50002 -0.828427 -1.50002 0C -1.50002 0.828427 -0.828452 1.5 -2.44141e-05 1.5L -2.44141e-05 -1.5ZM 13.2 1.5C 14.0284 1.5 14.7 0.828427 14.7 0C 14.7 -0.828427 14.0284 -1.5 13.2 -1.5L 13.2 1.5ZM -2.44141e-05 1.5L 13.2 1.5L 13.2 -1.5L -2.44141e-05 -1.5L -2.44141e-05 1.5Z"/>
<path id="path32_stroke" d="M -1.22392 26.046C -1.36421 26.7219 -0.929971 27.3836 -0.254021 27.5239C 0.42193 27.6642 1.08363 27.23 1.22392 26.554L -1.22392 26.046ZM 22.9033 1.18313C 23.5568 0.960375 23.9059 0.250083 23.6831 -0.403345C 23.4604 -1.05677 22.7501 -1.4059 22.0967 -1.18314L 22.9033 1.18313ZM 1.22392 26.554C 2.3095 21.3156 4.56847 14.0487 9.98386 8.68388L 8.21609 6.91612C 2.43148 12.7513 -0.109497 20.6844 -1.22392 26.046L 1.22392 26.554ZM 9.98386 8.68388C 13.7187 4.92268 18.5685 2.65887 22.9033 1.18313L 22.0967 -1.18314C 17.6315 0.341122 12.2812 2.87732 8.21609 6.91612L 9.98386 8.68388Z"/>
<path id="path33_stroke" d="M 20.146 12.4239C 20.8219 12.5642 21.4836 12.13 21.6239 11.454C 21.7642 10.7781 21.33 10.1164 20.654 9.97608L 20.146 12.4239ZM 0.949059 -0.813486C 0.499781 -1.33764 -0.289344 -1.39835 -0.813501 -0.949068C -1.33766 -0.49979 -1.39836 0.289335 -0.949083 0.813492L 0.949059 -0.813486ZM 20.654 9.97608C 15.4156 8.8905 8.14872 6.6315 2.7839 1.21611L 1.01613 2.98388C 6.85131 8.76849 14.7844 11.3095 20.146 12.4239L 20.654 9.97608ZM 2.7839 1.21611C 2.11715 0.55067 1.54905 -0.113499 0.949059 -0.813486L -0.949083 0.813492C -0.349072 1.5135 0.282871 2.24932 1.01613 2.98388L 2.7839 1.21611Z"/>
<path id="path34_stroke" d="M 11.4946 89.3427C 11.9047 89.898 12.6874 90.0156 13.2427 89.6055C 13.798 89.1953 13.9156 88.4126 13.5055 87.8573L 11.4946 89.3427ZM 11.4 10L 10.4823 9.15118L 10.4767 9.15738L 11.4 10ZM 25.3677 1.11363C 25.9828 0.800081 26.2272 0.0473077 25.9136 -0.567735C 25.6001 -1.18278 24.8473 -1.42718 24.2323 -1.11363L 25.3677 1.11363ZM 13.5055 87.8573C 7.17236 79.2833 1.25001 65.7466 1.25001 44.7L -1.24999 44.7C -1.24999 66.2534 4.82766 80.3167 11.4946 89.3427L 13.5055 87.8573ZM 1.25001 44.7C 1.25001 34.7037 3.24082 20.7947 12.3233 10.8426L 10.4767 9.15738C 0.759136 19.8053 -1.24999 34.4963 -1.24999 44.7L 1.25001 44.7ZM 12.3176 10.8488C 15.934 6.93112 20.3576 3.66304 25.3677 1.11363L 24.2323 -1.11363C 19.0424 1.53695 14.266 5.06889 10.4824 9.1512L 12.3176 10.8488Z"/>
<path id="path35_stroke" d="M 4.34998 5.4C 4.90226 5.81422 5.68576 5.70229 6.09998 5.15C 6.51419 4.59772 6.40226 3.81422 5.84998 3.4L 4.34998 5.4ZM 0.883883 -0.883883C 0.395728 -1.37204 -0.395728 -1.37204 -0.883883 -0.883883C -1.37204 -0.395728 -1.37204 0.395728 -0.883883 0.883883L 0.883883 -0.883883ZM 5.84998 3.4C 4.2725 2.21729 2.64024 0.874529 0.883883 -0.883883L -0.883883 0.883883C 0.95976 2.72547 2.72746 4.18271 4.34998 5.4L 5.84998 3.4Z"/>
<path id="path36_stroke" d="M 1.89999 31.3C 1.89999 32.1284 2.57156 32.8 3.39999 32.8C 4.22841 32.8 4.89999 32.1284 4.89999 31.3L 1.89999 31.3ZM 1.06068 -1.06066C 0.474898 -1.64645 -0.474849 -1.64645 -1.06064 -1.06066C -1.64642 -0.474873 -1.64642 0.474874 -1.06064 1.06066L 1.06068 -1.06066ZM 4.89999 31.3C 4.89802 25.3768 5.54866 19.0383 5.44976 13.3731C 5.34936 7.77481 4.5153 2.39396 1.06068 -1.06066L -1.06064 1.06066C 1.48475 3.60604 2.35067 7.87519 2.45025 13.4269C 2.55133 18.9117 1.90195 25.2232 1.89999 31.3L 4.89999 31.3Z"/>
</defs>
</svg>
