<svg width="149" height="148" viewBox="0 0 149 148" version="1.1" xmlns="http://www.w3.org/2000/svg" xmlns:xlink="http://www.w3.org/1999/xlink"><title>daphne</title><desc>Created using Figma</desc><use xlink:href="#a" fill="#fff"/><g transform="translate(38.33 81.84)"><use xlink:href="#b" fill="#828282"/><use xlink:href="#c" fill="#333"/></g><g transform="translate(84.87 81.84)"><use xlink:href="#d" fill="#828282"/><use xlink:href="#e" fill="#333"/></g><g transform="translate(51.34 67.55)"><use xlink:href="#f" fill="#FFF"/><use xlink:href="#g" fill="#333"/></g><g transform="translate(-7450 -2677)"><use xlink:href="#h" transform="translate(7502.69 2714.51)" fill="#FFF"/><mask id="i"><use xlink:href="#h" fill="#fff" transform="translate(7502.69 2714.51)"/></mask><use xlink:href="#j" transform="translate(7502.69 2714.51)" fill="#333" mask="url(#i)"/></g><g transform="translate(52.69 37.51)"><use xlink:href="#h" fill="#FFF"/><use xlink:href="#k" fill="#333"/></g><g transform="translate(83.91 63.39)"><use xlink:href="#l" fill="#FFF"/><use xlink:href="#m" fill="#333"/></g><g transform="translate(74.55 79.41)"><use xlink:href="#n" fill="#FFF"/><use xlink:href="#o" fill="#333"/></g><g transform="translate(77.69 79.41)"><use xlink:href="#p" fill="#FFF"/><use xlink:href="#q" fill="#333"/></g><g transform="translate(39.04 12.52)"><use xlink:href="#r" fill="#828282"/><use xlink:href="#s" fill="#333"/></g><g transform="translate(62.95 54.68)"><use xlink:href="#t" fill="#FFF"/><use xlink:href="#u" fill="#333"/></g><g transform="translate(89.96 54.68)"><use xlink:href="#v" fill="#FFF"/><use xlink:href="#w" fill="#333"/></g><g transform="translate(71.92 58.14)"><use xlink:href="#x" fill="#FFF"/><use xlink:href="#y" fill="#333"/></g><use xlink:href="#z" transform="translate(81.86 54.68)" fill="#333"/><use xlink:href="#A" transform="translate(59.87 54.68)" fill="#333"/><g transform="translate(40.58 116.5)"><use xlink:href="#B" fill="#FFF"/><use xlink:href="#C" fill="#333"/></g><use xlink:href="#D" transform="translate(67.88 58.14)" fill="#333"/><g transform="translate(97.5 58.14)"><use xlink:href="#E" fill="#FFF"/><use xlink:href="#F" fill="#333"/></g><use xlink:href="#G" transform="translate(95 58.01)" fill="#333"/><use xlink:href="#H" transform="translate(42.05 86.33)" fill="#333"/><use xlink:href="#I" transform="translate(93.2 96)" fill="#333"/><use xlink:href="#J" transform="translate(42.18 19.18)" fill="#333"/><use xlink:href="#K" transform="translate(53.27 79.47)" fill="#333"/><use xlink:href="#L" transform="translate(88.46 17.71)" fill="#333"/><defs><path id="a" d="M148.1 74c0 40.869-33.153 74-74.05 74S0 114.869 0 74C0 33.13 33.153 0 74.05 0s74.05 33.13 74.05 74z"/><path id="b" d="M17.82 17.811C10.897 24.731 0 25.051 0 25.051S.32 14.16 7.243 7.24C14.166.32 25.063 0 25.063 0s-.32 10.892-7.243 17.811z"/><path id="c" d="M0 25.051l-1-.03a1 1 0 0 0 1.03 1.03l-.03-1zM25.063 0l1 .03A1 1 0 0 0 25.033-1l.03 1zm-7.95 17.104c-3.288 3.286-7.554 5.034-11.054 5.955a33.149 33.149 0 0 1-4.37.841 25.754 25.754 0 0 1-1.614.147l-.083.004H-.03l.03 1 .03 1h.012l.029-.002.103-.004c.088-.005.216-.012.38-.024a27.84 27.84 0 0 0 1.378-.136 35.146 35.146 0 0 0 4.636-.892c3.68-.969 8.324-2.841 11.959-6.474l-1.414-1.415zM0 25.051l1 .03v-.004a4.29 4.29 0 0 1 .004-.1c.004-.075.01-.188.02-.336.022-.296.06-.732.127-1.278.134-1.094.383-2.626.842-4.368.921-3.498 2.67-7.762 5.957-11.048L6.536 6.533C2.901 10.166 1.028 14.808.06 18.485a35.119 35.119 0 0 0-.893 4.635 27.742 27.742 0 0 0-.16 1.758A10.013 10.013 0 0 0-1 25.02c0 .001 0 .002 1 .031zM7.95 7.947c3.288-3.286 7.554-5.033 11.054-5.955a33.158 33.158 0 0 1 4.37-.841 25.781 25.781 0 0 1 1.614-.147A8.417 8.417 0 0 1 25.09 1h.004l-.03-1-.03-1h-.001a.516.516 0 0 0-.04.002 17.493 17.493 0 0 0-.482.028c-.327.023-.796.064-1.38.136-1.164.142-2.788.406-4.635.892-3.68.969-8.324 2.841-11.959 6.475L7.95 7.947zM25.063 0l-1-.03v.022a10.367 10.367 0 0 1-.025.418c-.02.296-.059.732-.126 1.278a33.125 33.125 0 0 1-.841 4.368c-.922 3.498-2.67 7.762-5.958 11.048l1.414 1.415c3.635-3.634 5.508-8.276 6.477-11.953.487-1.847.75-3.47.893-4.635a27.816 27.816 0 0 0 .16-1.757L26.06.07l.001-.029a.49.49 0 0 1 0-.008V.03c0-.001 0-.002-.999-.031z"/><path id="d" d="M7.243 17.811c6.923 6.92 17.82 7.24 17.82 7.24S24.743 14.16 17.82 7.24C10.897.32 0 0 0 0s.32 10.892 7.243 17.811z"/><path id="e" d="M25.063 25.051l-.03 1a1 1 0 0 0 1.03-1.03l-1 .03zM17.82 7.24l-.707.707.707-.707zM0 0l.03-1A1 1 0 0 0-1 .03L0 0zm6.536 18.518c3.635 3.634 8.28 5.506 11.959 6.475 1.847.486 3.47.75 4.636.893a27.838 27.838 0 0 0 1.759.159l.102.004.029.001h.012l.03-.999.03-1h-.022l-.083-.004c-.074-.004-.187-.01-.335-.02-.297-.022-.733-.06-1.28-.127a33.153 33.153 0 0 1-4.37-.841c-3.5-.922-7.765-2.669-11.053-5.955l-1.414 1.415zm18.527 6.533l1-.03v-.001-.003-.008l-.002-.029-.004-.102a27.574 27.574 0 0 0-.16-1.758 35.114 35.114 0 0 0-.893-4.635c-.969-3.677-2.842-8.319-6.477-11.952l-1.414 1.414c3.288 3.286 5.036 7.55 5.957 11.048.46 1.742.708 3.274.842 4.368a25.735 25.735 0 0 1 .147 1.614l.004.082a1.023 1.023 0 0 1 0 .022l1-.03zM18.527 6.533C14.892 2.899 10.247 1.027 6.568.058a35.161 35.161 0 0 0-4.636-.892 27.779 27.779 0 0 0-1.758-.16 10.117 10.117 0 0 0-.14-.005H.03C.03-1 .028-1 0 0l-.03 1a1.33 1.33 0 0 1 .022 0l.083.004c.074.004.187.01.335.02.297.022.733.06 1.28.127a33.16 33.16 0 0 1 4.37.841c3.5.922 7.765 2.669 11.053 5.955l1.414-1.414zM0 0l-1 .03v.004a3.575 3.575 0 0 0 .007.14 27.742 27.742 0 0 0 .16 1.758c.141 1.164.405 2.787.892 4.634.969 3.677 2.842 8.32 6.477 11.953l1.414-1.415c-3.287-3.286-5.036-7.55-5.957-11.048a33.115 33.115 0 0 1-.842-4.368A25.752 25.752 0 0 1 1.004.075 8.147 8.147 0 0 1 1-.03L0 0z"/><path id="f" d="M48.075 48.949a8.451 8.451 0 0 1-8.461-8.457V0H8.46v40.492A8.451 8.451 0 0 1 0 48.949s4.423 14.416 26.345 14.416c21.922 0 21.73-14.416 21.73-14.416z"/><path id="g" d="M48.075 48.949l1-.013a1 1 0 0 0-1-.987v1zM39.614 0h1a1 1 0 0 0-1-1v1zM8.46 0v-1a1 1 0 0 0-1 1h1zM0 48.949v-1a1 1 0 0 0-.956 1.293L0 48.95zm48.075-1a7.451 7.451 0 0 1-7.461-7.457h-2c0 5.23 4.23 9.457 9.46 9.457v-2zm-7.461-7.457V0h-2v40.492h2zM39.614-1H8.46v2h31.153v-2zM7.46 0v40.492h2V0h-2zm0 40.492A7.451 7.451 0 0 1 0 47.949v2a9.451 9.451 0 0 0 9.461-9.457h-2zM0 48.949c-.956.293-.956.294-.956.295l.001.002.001.004.005.013a4.08 4.08 0 0 0 .062.184c.044.121.108.292.196.505.178.427.453 1.025.852 1.738.799 1.426 2.097 3.313 4.107 5.196 4.04 3.785 10.873 7.479 22.077 7.479v-2c-10.718 0-17.057-3.515-20.71-6.938-1.836-1.72-3.013-3.437-3.729-4.714-.358-.639-.6-1.166-.75-1.528a8.856 8.856 0 0 1-.2-.531c0 .001 0 .002-.956.295zm26.345 15.416c11.2 0 16.964-3.697 19.887-7.61a14.604 14.604 0 0 0 2.503-5.32c.174-.727.26-1.337.3-1.772a9.008 9.008 0 0 0 .04-.661v-.044-.014-.005-.002l-1 .012-1 .012v-.001-.001V48.979c0 .019 0 .05-.003.095-.003.087-.01.223-.027.4-.034.353-.105.87-.255 1.494-.3 1.25-.912 2.92-2.16 4.59-2.462 3.295-7.562 6.806-18.285 6.806v2z"/><path id="h" d="M0 0v26.332c0 14.032 8.653 35.88 32.242 35.88 6.154 0 18.461-12.879 18.461-31.267V0H0z"/><path id="j" d="M0 0v-1h-1v1h1zm50.703 0h1v-1h-1v1zM-1 0v26.332h2V0h-2zm0 26.332c0 7.19 2.21 16.37 7.46 23.78 5.277 7.449 13.627 13.1 25.782 13.1v-2c-11.433 0-19.204-5.274-24.15-12.257C3.116 41.934 1 33.175 1 26.334h-2zm33.242 36.88c1.85 0 3.983-.948 6.076-2.497 2.12-1.568 4.308-3.836 6.283-6.67 3.951-5.669 7.102-13.682 7.102-23.1h-2c0 8.97-3.003 16.59-6.743 21.957-1.871 2.684-3.913 4.786-5.832 6.206-1.946 1.44-3.659 2.103-4.886 2.103v2zm19.461-32.267V0h-2v30.945h2zM50.703-1H0v2h50.703v-2z"/><path id="k" d="M0 0v-1h-1v1h1zm50.703 0h1v-1h-1v1zM-1 0v26.332h2V0h-2zm0 26.332c0 7.19 2.21 16.37 7.46 23.78 5.277 7.449 13.627 13.1 25.782 13.1v-2c-11.433 0-19.204-5.274-24.15-12.257C3.116 41.934 1 33.175 1 26.334h-2zm33.242 36.88c1.85 0 3.983-.948 6.076-2.497 2.12-1.568 4.308-3.836 6.283-6.67 3.951-5.669 7.102-13.682 7.102-23.1h-2c0 8.97-3.003 16.59-6.743 21.957-1.871 2.684-3.913 4.786-5.832 6.206-1.946 1.44-3.659 2.103-4.886 2.103v2zm19.461-32.267V0h-2v30.945h2zM50.703-1H0v2h50.703v-2z"/><path id="l" d="M0 6.663h4.038a3.31 3.31 0 0 0 3.333-3.331A3.31 3.31 0 0 0 4.038 0"/><path id="m" d="M0 5.663a1 1 0 1 0 0 2v-2zM4.038-1a1 1 0 1 0 0 2v-2zM0 7.663h4.038v-2H0v2zm4.038 0a4.31 4.31 0 0 0 4.333-4.331h-2a2.31 2.31 0 0 1-2.333 2.331v2zm4.333-4.331A4.31 4.31 0 0 0 4.038-1v2a2.31 2.31 0 0 1 2.333 2.332h2z"/><path id="n" d="M0 0h19.742"/><path id="o" d="M0-1.5a1.5 1.5 0 0 0 0 3v-3zm19.743 3a1.5 1.5 0 0 0 0-3v3zM0 1.5h10.192v-3H0v3zm10.192 0h9.55v-3h-9.55v3z"/><path id="p" d="M0 0h14.102s-1.474 4.87-6.025 4.87C3.526 4.804 0 0 0 0z"/><path id="q" d="M0 0v-1A1 1 0 0 0-.806.592L0 0zm14.102 0l.957.29A1 1 0 0 0 14.102-1v1zM8.077 4.87l-.014 1h.014v-1zM0 1h14.102v-2H0v2zm14.102-1a127.123 127.123 0 0 1-.957-.289 6.892 6.892 0 0 1-.253.633 7.752 7.752 0 0 1-.888 1.48C11.184 2.89 9.94 3.87 8.077 3.87v2c2.686 0 4.456-1.454 5.511-2.824a9.751 9.751 0 0 0 1.38-2.49 5.978 5.978 0 0 0 .09-.261V.292.29S15.06.29 14.103 0zM8.091 3.87c-1.938-.028-3.738-1.076-5.119-2.227A15.234 15.234 0 0 1 .941-.418a7.848 7.848 0 0 1-.135-.174L0 0a144.9 144.9 0 0 0-.806.592l.002.002a2.668 2.668 0 0 0 .05.068l.134.17A17.235 17.235 0 0 0 1.69 3.179c1.52 1.267 3.758 2.653 6.372 2.69l.028-2z"/><path id="r" d="M41.344 1.215C29.294-2.5 15.576 2.753 8.141 10.89 2.115 17.489 0 26.523 0 35.3c0 32.291 20.768 39.98 20.768 39.98V39.72a7.302 7.302 0 0 1 7.308-7.304h16.089c3.974 0 7.243-3.203 7.307-7.112h.192c.129 3.909 3.334 7.112 7.308 7.112h5.448v23.578s12.115-17.62 4.872-35.623C62.497 3.266 49.934 5.764 49.934 5.764s-3.333-2.947-8.59-4.549z"/><path id="s" d="M41.344 1.215l-.294.956.003.001.291-.957zM8.141 10.89l-.739-.675.739.675zm12.627 64.39l-.347.937a1 1 0 0 0 1.347-.938h-1zm30.704-49.975v-1a1 1 0 0 0-1 .984l1 .016zm.192 0l1-.032a1 1 0 0 0-1-.968v1zm12.756 7.112h1a1 1 0 0 0-1-1v1zm0 23.578h-1a1 1 0 0 0 1.824.566l-.824-.566zm4.872-35.623l-.93.37.002.003.928-.373zM49.934 5.764l-.663.75a1 1 0 0 0 .858.231l-.195-.98zM41.639.26C29.157-3.59 15.052 1.844 7.402 10.215l1.477 1.35C16.1 3.661 29.43-1.413 41.049 2.17L41.64.26zM7.402 10.216C1.145 17.068-1 26.386-1 35.3h2c0-8.64 2.085-17.39 7.88-23.736l-1.478-1.348zM-1 35.3c0 16.382 5.276 26.611 10.63 32.756 2.67 3.064 5.344 5.095 7.36 6.364a25.002 25.002 0 0 0 2.452 1.367 15.735 15.735 0 0 0 .9.4c.022.008.04.016.054.02l.016.007.006.002h.002c0 .001.001.001.348-.936l.349-.938-.006-.002-.035-.014a13.687 13.687 0 0 1-.767-.342 23.019 23.019 0 0 1-2.253-1.257c-1.878-1.181-4.396-3.09-6.918-5.985C6.108 60.97 1 51.21 1 35.3h-2zm22.768 39.98v-7.625h-2v7.624h2zm0-7.625V39.721h-2v27.934h2zm0-27.934a6.302 6.302 0 0 1 6.308-6.304v-2a8.302 8.302 0 0 0-8.308 8.304h2zm6.308-6.304h16.089v-2h-16.09v2zm16.089 0c4.512 0 8.234-3.633 8.307-8.095l-2-.033c-.055 3.354-2.87 6.128-6.307 6.128v2zm7.307-7.112h.192v-2h-.192v2zm-.807-.967c.145 4.435 3.78 8.08 8.307 8.08v-2c-3.422 0-6.197-2.764-6.308-6.145l-1.999.065zm8.307 8.08h5.448v-2h-5.448v2zm4.448-1v23.577h2V32.417h-2zm1 23.577c.824.566.825.566.825.565l.003-.005a.93.93 0 0 0 .008-.012l.03-.043.106-.162c.092-.14.224-.346.387-.613.327-.533.783-1.31 1.305-2.297a50.57 50.57 0 0 0 3.441-8.19c2.164-6.781 3.434-15.944-.305-25.24l-1.856.747c3.504 8.709 2.339 17.357.256 23.886a48.573 48.573 0 0 1-3.304 7.862c-.5.946-.934 1.686-1.242 2.186a24.782 24.782 0 0 1-.45.708l-.022.033-.005.007v.001l.823.567zm5.801-35.992C66.73 11.212 61.694 7.34 57.42 5.718a16.453 16.453 0 0 0-5.391-1.077 13.407 13.407 0 0 0-1.64.054 8.989 8.989 0 0 0-.63.085l-.013.002h-.004l-.002.001.194.981.194.981h-.001-.001.001l.016-.002a7.012 7.012 0 0 1 .441-.057c.32-.032.797-.06 1.393-.045 1.194.03 2.862.238 4.733.947 3.706 1.406 8.35 4.838 11.653 13.153l1.858-.738zM49.934 5.764l.662-.75h-.002c0-.002-.002-.003-.003-.004l-.01-.009a4.364 4.364 0 0 0-.164-.138c-.11-.09-.271-.22-.48-.379a24.21 24.21 0 0 0-1.794-1.24A27.297 27.297 0 0 0 41.636.259l-.583 1.913a25.295 25.295 0 0 1 6.025 2.765c.716.45 1.272.851 1.646 1.137a14.175 14.175 0 0 1 .521.417l.023.02a.7.7 0 0 1 .004.003l.662-.75z"/><path id="t" d="M0 0h18.91s.128 1.345-.128 3.011c-.513 2.947-2.436 7.048-8.846 7.048C-.192 10.123 0 0 0 0z"/><path id="u" d="M0 0v-1a1 1 0 0 0-1 .981L0 0zm18.91 0l.995-.095A1 1 0 0 0 18.91-1v1zm-.128 3.011l.985.172c0-.007.002-.013.003-.02l-.988-.152zM9.936 10.06v-1h-.007l.007 1zM0 1h18.91v-2H0v2zm18.91-1l-.996.095V.093a.568.568 0 0 1 .003.042l.01.153a13.187 13.187 0 0 1-.134 2.57l1.977.304a15.189 15.189 0 0 0 .154-2.98 8.951 8.951 0 0 0-.012-.197l-.005-.056-.001-.016v-.006-.001-.001L18.91 0zm-1.114 2.84c-.236 1.358-.786 2.906-1.945 4.105C14.718 8.12 12.907 9.06 9.936 9.06v2c3.438 0 5.794-1.11 7.353-2.724 1.534-1.587 2.201-3.563 2.478-5.152l-1.97-.343zM9.93 9.059c-2.357.015-4.043-.56-5.263-1.376-1.226-.82-2.045-1.925-2.595-3.064-.553-1.144-.823-2.303-.953-3.185A11.319 11.319 0 0 1 1 .1V.032.018.017v.001L0 0l-1-.018v.001a1.25 1.25 0 0 0 0 .043v.102A13.313 13.313 0 0 0-.86 1.727c.15 1.014.465 2.382 1.13 3.761.668 1.384 1.7 2.797 3.286 3.858 1.592 1.064 3.68 1.73 6.387 1.713l-.013-2z"/><path id="v" d="M15.673 0H.033s-1.026 10.123 8.46 10.123c9.423 0 7.18-10.123 7.18-10.123z"/><path id="w" d="M15.673 0l.976-.216A1 1 0 0 0 15.673-1v1zM.033 0v-1a1 1 0 0 0-.996.9l.995.1zm15.64-1H.033v2h15.64v-2zM.033 0l-.996-.1a.427.427 0 0 1 0 .014 3.88 3.88 0 0 0-.011.13C-.98.129-.987.25-.993.4c-.01.301-.013.727.015 1.236.055 1.01.235 2.381.745 3.77.51 1.39 1.367 2.834 2.794 3.928 1.436 1.101 3.373 1.788 5.933 1.788v-2c-2.184 0-3.677-.579-4.716-1.375-1.05-.805-1.715-1.892-2.134-3.031-.42-1.143-.576-2.303-.625-3.19A11.98 11.98 0 0 1 1.02.184a4.31 4.31 0 0 1 .005-.07l.001-.013V.099.1L.032 0zm8.46 11.123c2.543 0 4.415-.687 5.746-1.82 1.32-1.125 2.007-2.602 2.35-4.005.34-1.398.352-2.774.285-3.783a14.337 14.337 0 0 0-.196-1.589 6.724 6.724 0 0 0-.02-.1l-.006-.028-.002-.01v-.002-.001L15.672 0l-.977.216V.214v.002L14.7.23l.013.07c.013.064.03.161.05.287.039.253.086.62.115 1.06.06.89.043 2.045-.233 3.177-.275 1.128-.794 2.181-1.703 2.955-.898.765-2.279 1.343-4.448 1.343v2z"/><path id="x" d="M3.461 1.73c0 .96-.769 1.73-1.73 1.73C.769 3.46 0 2.69 0 1.73 0 .769.77 0 1.73 0c.962 0 1.731.769 1.731 1.73z"/><path id="y" d="M2.461 1.73c0 .408-.32.73-.73.73v2a2.723 2.723 0 0 0 2.73-2.73h-2zm-.73.73A.723.723 0 0 1 1 1.73h-2a2.723 2.723 0 0 0 2.73 2.73v-2zM1 1.73c0-.408.321-.73.73-.73v-2A2.723 2.723 0 0 0-1 1.73h2zM1.73 1c.41 0 .731.322.731.73h2A2.723 2.723 0 0 0 1.731-1v2z"/><path id="z" d="M0 1h8.077v-2H0v2z"/><path id="A" d="M3.077-1H0v2h3.077v-2z"/><path id="B" d="M58.715 0s.257 8.65-21.73 8.65C15 8.65 10.642 0 10.642 0H0s1.923 17.235 36.986 17.235C67.369 17.235 67.946 0 67.946 0h-9.23z"/><path id="C" d="M58.715 0v-1h-1.03l.03 1.03 1-.03zM10.642 0l.893-.45-.278-.55h-.615v1zM0 0v-1h-1.118L-.994.11 0 0zm67.946 0l1 .033L68.98-1h-1.034v1zm-9.23 0c-1 .03-1 .028-1 .027V.025.021.016.013l-.002.03a1.9 1.9 0 0 1-.02.178c-.025.17-.083.435-.212.764-.257.651-.809 1.59-2.014 2.56-2.428 1.957-7.59 4.104-18.482 4.104v2c11.094 0 16.796-2.177 19.737-4.546 1.479-1.19 2.237-2.415 2.62-3.385.19-.482.283-.893.33-1.196a3.872 3.872 0 0 0 .043-.525v-.015-.006-.003c0-.001 0-.003-1 .027zm-21.73 7.65c-10.863 0-17.271-2.137-20.927-4.197-1.828-1.03-2.979-2.046-3.66-2.782a7.678 7.678 0 0 1-.703-.865 3.787 3.787 0 0 1-.166-.264v.002l.002.003v.001c.001.001.002.002-.891.452s-.893.451-.892.452v.002l.003.005a2.18 2.18 0 0 0 .081.145c.049.083.119.195.213.333.189.275.475.652.886 1.095.822.886 2.136 2.032 4.145 3.164 4.021 2.265 10.786 4.453 21.909 4.453v-2zM10.64-1H0v2h10.64v-2zM0 0c-.994.11-.994.112-.994.113v.003a1.544 1.544 0 0 0 .01.076c.007.044.016.104.03.178.027.15.07.359.137.62.134.52.364 1.249.754 2.114.78 1.733 2.197 4.006 4.744 6.262 5.102 4.52 14.615 8.869 32.305 8.869v-2c-17.373 0-26.353-4.269-30.979-8.366C3.691 5.816 2.435 3.78 1.76 2.282c-.338-.75-.532-1.37-.64-1.79a6.648 6.648 0 0 1-.127-.606v-.002.003C.994-.112.994-.11 0 0zm36.986 18.235c15.383 0 23.427-4.37 27.611-8.943 2.082-2.275 3.169-4.56 3.734-6.288.283-.864.436-1.589.518-2.106a9.479 9.479 0 0 0 .092-.787l.003-.051.001-.016V.038.035s0-.002-1-.035c-.998-.033-.998-.034-.998-.035v-.001-.001.002l-.002.023a7.379 7.379 0 0 1-.071.595 11.807 11.807 0 0 1-.443 1.799c-.492 1.503-1.449 3.527-3.31 5.56-3.7 4.044-11.135 8.293-26.135 8.293v2zM67.946-1h-9.23v2h9.23v-2z"/><path id="D" d="M0-1a1 1 0 1 0 0 2v-2zm10.833 2a1 1 0 1 0 0-2v2zM0 1h10.833v-2H0v2z"/><path id="E" d="M3.461 1.73c0 .96-.769 1.73-1.73 1.73C.769 3.46 0 2.69 0 1.73 0 .769.77 0 1.73 0c.962 0 1.731.769 1.731 1.73z"/><path id="F" d="M2.461 1.73c0 .408-.32.73-.73.73v2a2.723 2.723 0 0 0 2.73-2.73h-2zm-.73.73A.723.723 0 0 1 1 1.73h-2a2.723 2.723 0 0 0 2.73 2.73v-2zM1 1.73c0-.408.321-.73.73-.73v-2A2.723 2.723 0 0 0-1 1.73h2zM1.73 1c.41 0 .731.322.731.73h2A2.723 2.723 0 0 0 1.731-1v2z"/><path id="G" d="M0-1a1 1 0 1 0 0 2v-2zm8.461 2a1 1 0 0 0 0-2v2zM0 1h8.461v-2H0v2z"/><path id="H" d="M-.98 16.647a1 1 0 1 0 1.96.407l-1.96-.407zM14.746.947A1 1 0 1 0 14.1-.947l.645 1.894zM.979 17.054c.691-3.329 2.177-7.967 5.561-11.35L5.126 4.29C1.33 8.084-.26 13.184-.979 16.647l1.958.407zM6.54 5.704c2.346-2.344 5.453-3.82 8.205-4.757L14.1-.947C11.21.038 7.78 1.638 5.126 4.29L6.54 5.705z"/><path id="I" d="M12.873 8.155a1 1 0 1 0 .407-1.958l-.407 1.958zM.76-.651A1 1 0 0 0-.759.651L.759-.651zm12.52 6.848C9.95 5.506 5.31 4.02 1.926.638L.51 2.053c3.796 3.793 8.898 5.383 12.362 6.102l.407-1.958zM1.926.638A22.172 22.172 0 0 1 .759-.65L-.759.651c.382.445.79.922 1.27 1.402L1.925.638z"/><path id="J" d="M7.208 57.36a1 1 0 0 0 1.609-1.189L7.208 57.36zm.1-50.953l-.735-.68-.004.006.738.674zM16.35.89a1 1 0 0 0-.908-1.782L16.35.891zm-7.534 55.28C4.784 50.714 1 42.083 1 28.64h-2c0 13.85 3.908 22.902 8.208 28.72l1.609-1.188zM1 28.64c0-6.388 1.275-15.237 7.046-21.558L6.569 5.733C.289 12.61-1 22.085-1 28.639h2zM8.041 7.086c2.285-2.468 5.136-4.578 8.31-6.195l-.908-1.782c-3.365 1.714-6.41 3.962-8.87 6.619l1.468 1.358z"/><path id="K" d="M2.67 3.62a1 1 0 0 0 1.199-1.601l-1.2 1.6zM.706-.708A1 1 0 1 0-.707.707L.707-.707zm3.162 2.726A28.88 28.88 0 0 1 .707-.707L-.707.707A30.878 30.878 0 0 0 2.67 3.62l1.2-1.6z"/><path id="L" d="M1.18 20.054a1 1 0 1 0 2 0h-2zM.706-.707A1 1 0 1 0-.707.707L.707-.707zm2.472 20.76c0-1.891.103-3.838.2-5.786.095-1.936.186-3.875.153-5.7C3.467 4.98 2.933 1.517.707-.707L-.707.707c1.62 1.62 2.175 4.34 2.24 7.896.03 1.747-.056 3.62-.152 5.565-.096 1.932-.202 3.934-.202 5.886h2z"/></defs></svg>
