<svg width="149" height="148" viewBox="0 0 149 148" version="1.1" xmlns="http://www.w3.org/2000/svg" xmlns:xlink="http://www.w3.org/1999/xlink">
<title>daphne</title>
<desc>Created using Figma</desc>
<g id="Canvas" transform="translate(-7450 -2677)">
<g id="daphne">
<g id="Ellipse">
<use xlink:href="#path0_fill" transform="translate(7450 2677)" fill="#F2F2F2"/>
</g>
<g id="Vector">
<use xlink:href="#path1_fill" transform="translate(7488.33 2758.84)" fill="#828282"/>
<use xlink:href="#path2_stroke" transform="translate(7488.33 2758.84)" fill="#333333"/>
</g>
<g id="Vector">
<use xlink:href="#path3_fill" transform="translate(7534.87 2758.84)" fill="#828282"/>
<use xlink:href="#path4_stroke" transform="translate(7534.87 2758.84)" fill="#333333"/>
</g>
<g id="Vector">
<use xlink:href="#path5_fill" transform="translate(7501.34 2744.55)" fill="#FFFFFF"/>
<use xlink:href="#path6_stroke" transform="translate(7501.34 2744.55)" fill="#333333"/>
</g>
<g id="Vector">
<use xlink:href="#path7_fill" transform="translate(7502.69 2714.51)" fill="#FFFFFF"/>
<mask id="mask0_outline_ins">
<use xlink:href="#path7_fill" fill="white" transform="translate(7502.69 2714.51)"/>
</mask>
<g mask="url(#mask0_outline_ins)">
<use xlink:href="#path8_stroke_2x" transform="translate(7502.69 2714.51)" fill="#333333"/>
</g>
</g>
<g id="Vector">
<use xlink:href="#path7_fill" transform="translate(7502.69 2714.51)" fill="#FFFFFF"/>
<use xlink:href="#path9_stroke" transform="translate(7502.69 2714.51)" fill="#333333"/>
</g>
<g id="Vector">
<use xlink:href="#path10_fill" transform="translate(7533.91 2740.39)" fill="#FFFFFF"/>
<use xlink:href="#path11_stroke" transform="translate(7533.91 2740.39)" fill="#333333"/>
</g>
<g id="Vector">
<use xlink:href="#path12_fill" transform="translate(7524.55 2756.41)" fill="#FFFFFF"/>
<use xlink:href="#path13_stroke" transform="translate(7524.55 2756.41)" fill="#333333"/>
</g>
<g id="Vector">
<use xlink:href="#path14_fill" transform="translate(7527.69 2756.41)" fill="#FFFFFF"/>
<use xlink:href="#path15_stroke" transform="translate(7527.69 2756.41)" fill="#333333"/>
</g>
<g id="Vector">
<use xlink:href="#path16_fill" transform="translate(7489.04 2689.52)" fill="#828282"/>
<use xlink:href="#path17_stroke" transform="translate(7489.04 2689.52)" fill="#333333"/>
</g>
<g id="Vector">
<use xlink:href="#path18_fill" transform="translate(7512.95 2731.68)" fill="#FFFFFF"/>
<use xlink:href="#path19_stroke" transform="translate(7512.95 2731.68)" fill="#333333"/>
</g>
<g id="Vector">
<use xlink:href="#path20_fill" transform="translate(7539.96 2731.68)" fill="#FFFFFF"/>
<use xlink:href="#path21_stroke" transform="translate(7539.96 2731.68)" fill="#333333"/>
</g>
<g id="Vector">
<use xlink:href="#path22_fill" transform="translate(7521.92 2735.14)" fill="#FFFFFF"/>
<use xlink:href="#path23_stroke" transform="translate(7521.92 2735.14)" fill="#333333"/>
</g>
<g id="Vector">
<use xlink:href="#path24_stroke" transform="translate(7531.86 2731.68)" fill="#333333"/>
</g>
<g id="Vector">
<use xlink:href="#path25_stroke" transform="translate(7509.87 2731.68)" fill="#333333"/>
</g>
<g id="Vector">
<use xlink:href="#path26_fill" transform="translate(7490.58 2793.5)" fill="#FFFFFF"/>
<use xlink:href="#path27_stroke" transform="translate(7490.58 2793.5)" fill="#333333"/>
</g>
<g id="Vector">
<use xlink:href="#path28_stroke" transform="translate(7517.88 2735.14)" fill="#333333"/>
</g>
<g id="Vector">
<use xlink:href="#path29_fill" transform="translate(7547.5 2735.14)" fill="#FFFFFF"/>
<use xlink:href="#path30_stroke" transform="translate(7547.5 2735.14)" fill="#333333"/>
</g>
<g id="Vector">
<use xlink:href="#path31_stroke" transform="translate(7545 2735.01)" fill="#333333"/>
</g>
<g id="Vector">
<use xlink:href="#path32_stroke" transform="translate(7492.05 2763.33)" fill="#333333"/>
</g>
<g id="Vector">
<use xlink:href="#path33_stroke" transform="translate(7543.2 2773)" fill="#333333"/>
</g>
<g id="Vector">
<use xlink:href="#path34_stroke" transform="translate(7492.18 2696.18)" fill="#333333"/>
</g>
<g id="Vector">
<use xlink:href="#path35_stroke" transform="translate(7503.27 2756.47)" fill="#333333"/>
</g>
<g id="Vector">
<use xlink:href="#path36_stroke" transform="translate(7538.46 2694.71)" fill="#333333"/>
</g>
</g>
</g>
<defs>
<path id="path0_fill" d="M 148.1 74C 148.1 114.869 114.947 148 74.05 148C 33.1533 148 0 114.869 0 74C 0 33.1309 33.1533 0 74.05 0C 114.947 0 148.1 33.1309 148.1 74Z"/>
<path id="path1_fill" d="M 17.8198 17.8113C 10.897 24.7307 7.8247e-06 25.0511 7.8247e-06 25.0511C 7.8247e-06 25.0511 0.3205 14.1593 7.24329 7.23983C 14.1661 0.320346 25.0631 -1.95524e-06 25.0631 -1.95524e-06C 25.0631 -1.95524e-06 24.7426 10.8918 17.8198 17.8113Z"/>
<path id="path2_stroke" d="M 7.8247e-06 25.0511L -0.99956 25.0217C -1.00766 25.297 -0.901858 25.5634 -0.707109 25.7582C -0.51236 25.9529 -0.245908 26.0587 0.029393 26.0507L 7.8247e-06 25.0511ZM 25.0631 -1.95524e-06L 26.0626 0.0294104C 26.0707 -0.245891 25.9649 -0.512345 25.7702 -0.707099C 25.5754 -0.901853 25.309 -1.00766 25.0337 -0.99957L 25.0631 -1.95524e-06ZM 17.1128 17.104C 13.8252 20.3901 9.55933 22.1375 6.05925 23.0589C 4.31671 23.5177 2.78392 23.7665 1.68945 23.9003C 1.14272 23.9672 0.706786 24.0052 0.410431 24.0264C 0.262293 24.0369 0.149154 24.0433 0.074621 24.047C 0.0373584 24.0489 0.00975806 24.05 -0.00772873 24.0507C -0.0164717 24.0511 -0.0226851 24.0513 -0.0263124 24.0514C -0.028126 24.0515 -0.0292929 24.0515 -0.0298062 24.0515C -0.0300628 24.0515 -0.0301559 24.0515 -0.0300848 24.0515C -0.0300494 24.0515 -0.0298721 24.0515 -0.0298547 24.0515C -0.0296367 24.0515 -0.0293774 24.0515 7.8247e-06 25.0511C 0.029393 26.0507 0.0297355 26.0506 0.0301195 26.0506C 0.030303 26.0506 0.0307292 26.0506 0.0310963 26.0506C 0.0318308 26.0506 0.0327317 26.0506 0.0337982 26.0505C 0.0359312 26.0504 0.0387265 26.0504 0.0421769 26.0502C 0.0490777 26.05 0.0585998 26.0497 0.0706862 26.0492C 0.094858 26.0482 0.129292 26.0468 0.173531 26.0446C 0.262002 26.0402 0.389739 26.0329 0.553086 26.0213C 0.879701 25.9979 1.34918 25.9568 1.93221 25.8855C 3.09726 25.7431 4.72138 25.4793 6.56844 24.993C 10.2475 24.0244 14.8916 22.1519 18.5267 18.5185L 17.1128 17.104ZM 7.8247e-06 25.0511C 0.999575 25.0805 0.999568 25.0808 0.999561 25.081C 0.99956 25.081 0.999555 25.0812 0.999554 25.0812C 0.999552 25.0813 0.999555 25.0812 0.999563 25.0809C 0.999579 25.0804 0.999617 25.0793 0.999679 25.0774C 0.999803 25.0738 1.00003 25.0676 1.00037 25.0589C 1.00105 25.0414 1.00223 25.0138 1.00407 24.9766C 1.00776 24.9021 1.01415 24.789 1.02475 24.641C 1.04595 24.3448 1.08396 23.9091 1.15085 23.3626C 1.28474 22.2687 1.53364 20.7367 1.99259 18.9951C 2.91444 15.4968 4.66258 11.2332 7.95023 7.9471L 6.53635 6.53255C 2.90121 10.166 1.02771 14.8079 0.0586137 18.4854C -0.427904 20.3317 -0.691801 21.9551 -0.834339 23.1196C -0.90567 23.7024 -0.94678 24.1717 -0.970148 24.4982C -0.981835 24.6614 -0.989094 24.7891 -0.993477 24.8776C -0.995669 24.9218 -0.997142 24.9562 -0.998091 24.9804C -0.998566 24.9925 -0.998909 25.002 -0.999146 25.0089C -0.999264 25.0123 -0.999356 25.0151 -0.999424 25.0173C -0.999458 25.0183 -0.999486 25.0192 -0.999508 25.02C -0.999519 25.0203 -0.999532 25.0208 -0.999538 25.0209C -0.999549 25.0213 -0.99956 25.0217 7.8247e-06 25.0511ZM 7.95023 7.9471C 11.2379 4.66099 15.5037 2.91361 19.0038 1.99216C 20.7463 1.5334 22.2791 1.28461 23.3736 1.15078C 23.9203 1.08392 24.3563 1.04592 24.6526 1.02473C 24.8008 1.01414 24.9139 1.00775 24.9884 1.00406C 25.0257 1.00222 25.0533 1.00105 25.0708 1.00036C 25.0795 1.00002 25.0857 0.999794 25.0894 0.99967C 25.0912 0.999608 25.0924 0.99957 25.0929 0.999554C 25.0931 0.999546 25.0932 0.999543 25.0931 0.999545C 25.0931 0.999546 25.0929 0.999552 25.0929 0.999552C 25.0927 0.999559 25.0924 0.999566 25.0631 -1.95524e-06C 25.0337 -0.99957 25.0333 -0.99956 25.0329 -0.999549C 25.0328 -0.999543 25.0323 -0.99953 25.032 -0.999519C 25.0312 -0.999496 25.0303 -0.999468 25.0293 -0.999434C 25.0271 -0.999367 25.0243 -0.999275 25.0209 -0.999157C 25.014 -0.99892 25.0045 -0.998577 24.9924 -0.998103C 24.9682 -0.997154 24.9338 -0.995682 24.8895 -0.993491C 24.8011 -0.989111 24.6733 -0.981856 24.51 -0.970175C 24.1834 -0.946819 23.7139 -0.905731 23.1309 -0.834437C 21.9658 -0.691972 20.3417 -0.42821 18.4946 0.0580588C 14.8155 1.02665 10.1715 2.89918 6.53635 6.53255L 7.95023 7.9471ZM 25.0631 -1.95524e-06C 24.0635 -0.0294143 24.0635 -0.029674 24.0635 -0.0298922C 24.0635 -0.0299098 24.0635 -0.0300874 24.0635 -0.0301231C 24.0635 -0.0301948 24.0635 -0.0301023 24.0635 -0.0298464C 24.0635 -0.0293345 24.0634 -0.0281693 24.0634 -0.0263577C 24.0633 -0.0227345 24.063 -0.0165265 24.0627 -0.00779006C 24.062 0.00968361 24.0608 0.0372659 24.059 0.0745057C 24.0553 0.148993 24.0489 0.262068 24.0383 0.410124C 24.0171 0.706316 23.9791 1.14202 23.9122 1.68846C 23.7783 2.78236 23.5294 4.31436 23.0705 6.056C 22.1486 9.55424 20.4005 13.8179 17.1128 17.104L 18.5267 18.5185C 22.1619 14.8851 24.0354 10.2432 25.0044 6.56564C 25.491 4.7194 25.7549 3.09599 25.8974 1.93145C 25.9687 1.34867 26.0098 0.879394 26.0332 0.552913C 26.0449 0.389633 26.0522 0.261947 26.0565 0.173509C 26.0587 0.129285 26.0602 0.094863 26.0612 0.0706979C 26.0616 0.0586149 26.062 0.049095 26.0622 0.0421952C 26.0623 0.0387452 26.0624 0.0359501 26.0625 0.033817C 26.0625 0.0327504 26.0625 0.0318493 26.0626 0.0311146C 26.0626 0.0307474 26.0626 0.030321 26.0626 0.0301374C 26.0626 0.0297532 26.0626 0.0294104 25.0631 -1.95524e-06Z"/>
<path id="path3_fill" d="M 7.24327 17.8113C 14.1661 24.7307 25.0631 25.0511 25.0631 25.0511C 25.0631 25.0511 24.7425 14.1593 17.8198 7.23983C 10.897 0.320346 -7.8247e-06 -1.95524e-06 -7.8247e-06 -1.95524e-06C -7.8247e-06 -1.95524e-06 0.320484 10.8918 7.24327 17.8113Z"/>
<path id="path4_stroke" d="M 25.0631 25.0511L 25.0337 26.0507C 25.309 26.0587 25.5754 25.9529 25.7702 25.7582C 25.9649 25.5634 26.0707 25.297 26.0626 25.0217L 25.0631 25.0511ZM 17.8198 7.23983L 17.1128 7.9471L 17.8198 7.23983ZM -7.8247e-06 -1.95524e-06L 0.0293774 -0.99957C -0.245924 -1.00766 -0.512375 -0.901853 -0.707124 -0.707099C -0.901873 -0.512345 -1.00768 -0.245891 -0.999575 0.0294104L -7.8247e-06 -1.95524e-06ZM 6.53634 18.5185C 10.1714 22.1519 14.8155 24.0244 18.4946 24.993C 20.3417 25.4793 21.9658 25.7431 23.1309 25.8855C 23.7139 25.9568 24.1834 25.9979 24.51 26.0213C 24.6733 26.0329 24.8011 26.0402 24.8896 26.0446C 24.9338 26.0468 24.9682 26.0482 24.9924 26.0492C 25.0045 26.0497 25.014 26.05 25.0209 26.0502C 25.0244 26.0504 25.0272 26.0504 25.0293 26.0505C 25.0304 26.0506 25.0313 26.0506 25.032 26.0506C 25.0324 26.0506 25.0328 26.0506 25.033 26.0506C 25.0334 26.0506 25.0337 26.0507 25.0631 25.0511C 25.0925 24.0515 25.0927 24.0515 25.0929 24.0515C 25.093 24.0515 25.0931 24.0515 25.0932 24.0515C 25.0932 24.0515 25.0932 24.0515 25.0929 24.0515C 25.0924 24.0515 25.0912 24.0515 25.0894 24.0514C 25.0858 24.0513 25.0796 24.0511 25.0708 24.0507C 25.0533 24.05 25.0257 24.0489 24.9885 24.047C 24.9139 24.0433 24.8008 24.0369 24.6527 24.0264C 24.3563 24.0052 23.9204 23.9672 23.3736 23.9003C 22.2792 23.7665 20.7464 23.5177 19.0038 23.0589C 15.5037 22.1375 11.2379 20.3901 7.95021 17.104L 6.53634 18.5185ZM 25.0631 25.0511C 26.0626 25.0217 26.0626 25.0213 26.0626 25.0209C 26.0626 25.0208 26.0626 25.0203 26.0626 25.02C 26.0626 25.0192 26.0625 25.0183 26.0625 25.0173C 26.0624 25.0151 26.0624 25.0123 26.0622 25.0089C 26.062 25.002 26.0617 24.9925 26.0612 24.9804C 26.0602 24.9562 26.0588 24.9218 26.0566 24.8776C 26.0522 24.7891 26.0449 24.6614 26.0332 24.4982C 26.0099 24.1717 25.9688 23.7024 25.8974 23.1196C 25.7549 21.9551 25.491 20.3317 25.0045 18.4854C 24.0354 14.8079 22.1618 10.166 18.5267 6.53255L 17.1128 7.9471C 20.4005 11.2332 22.1486 15.4968 23.0705 18.9951C 23.5294 20.7367 23.7783 22.2687 23.9122 23.3626C 23.9791 23.9091 24.0171 24.3448 24.0383 24.641C 24.0489 24.789 24.0553 24.9021 24.059 24.9766C 24.0609 25.0138 24.062 25.0414 24.0627 25.0589C 24.0631 25.0676 24.0633 25.0738 24.0634 25.0774C 24.0635 25.0793 24.0635 25.0804 24.0635 25.0809C 24.0635 25.0812 24.0635 25.0813 24.0635 25.0812C 24.0635 25.0812 24.0635 25.081 24.0635 25.081C 24.0635 25.0808 24.0635 25.0805 25.0631 25.0511ZM 18.5267 6.53255C 14.8916 2.89918 10.2475 1.02665 6.56842 0.0580588C 4.72137 -0.42821 3.09724 -0.691972 1.93219 -0.834437C 1.34916 -0.905731 0.879686 -0.946819 0.55307 -0.970175C 0.389723 -0.981856 0.261987 -0.989111 0.173516 -0.993491C 0.129276 -0.995682 0.0948424 -0.997154 0.0706705 -0.998103C 0.0585842 -0.998577 0.0490621 -0.99892 0.0421613 -0.999157C 0.0387108 -0.999275 0.0359155 -0.999367 0.0337826 -0.999434C 0.0327161 -0.999468 0.0318151 -0.999496 0.0310807 -0.999519C 0.0307136 -0.99953 0.0302874 -0.999543 0.0301039 -0.999549C 0.0297199 -0.99956 0.0293774 -0.99957 -7.8247e-06 -1.95524e-06C -0.029393 0.999566 -0.0296524 0.999559 -0.0298703 0.999552C -0.0298878 0.999552 -0.030065 0.999546 -0.0301004 0.999545C -0.0301716 0.999543 -0.0300784 0.999546 -0.0298218 0.999554C -0.0293086 0.99957 -0.0281416 0.999608 -0.026328 0.99967C -0.0227007 0.999794 -0.0164874 1.00002 -0.00774439 1.00036C 0.00974241 1.00105 0.0373427 1.00222 0.0746054 1.00406C 0.149138 1.00775 0.262277 1.01414 0.410415 1.02473C 0.70677 1.04592 1.14271 1.08392 1.68944 1.15078C 2.7839 1.28461 4.3167 1.5334 6.05924 1.99216C 9.55931 2.91361 13.8251 4.66099 17.1128 7.9471L 18.5267 6.53255ZM -7.8247e-06 -1.95524e-06C -0.999575 0.0294104 -0.999565 0.0297532 -0.999554 0.0301374C -0.999548 0.030321 -0.999535 0.0307474 -0.999524 0.0311146C -0.999501 0.0318493 -0.999473 0.0327504 -0.999439 0.0338169C -0.999371 0.0359501 -0.99928 0.0387452 -0.999162 0.0421952C -0.998925 0.049095 -0.998581 0.0586149 -0.998107 0.0706979C -0.997158 0.094863 -0.995684 0.129285 -0.993492 0.173508C -0.989109 0.261947 -0.981851 0.389633 -0.970164 0.552913C -0.946795 0.879394 -0.905686 1.34867 -0.834355 1.93145C -0.691817 3.09599 -0.42792 4.7194 0.0585979 6.56564C 1.02769 10.2432 2.90119 14.8851 6.53634 18.5185L 7.95021 17.104C 4.66257 13.8179 2.91443 9.55424 1.99258 6.056C 1.53362 4.31436 1.28472 2.78236 1.15083 1.68846C 1.08395 1.14202 1.04593 0.706316 1.02473 0.410124C 1.01414 0.262068 1.00775 0.148993 1.00406 0.0745058C 1.00221 0.0372659 1.00104 0.00968362 1.00035 -0.00779005C 1.00001 -0.0165265 0.999788 -0.0227345 0.999663 -0.0263577C 0.999601 -0.0281693 0.999563 -0.0293345 0.999547 -0.0298463C 0.999539 -0.0301023 0.999536 -0.0301948 0.999538 -0.0301231C 0.999539 -0.0300874 0.999545 -0.0299098 0.999545 -0.0298922C 0.999552 -0.029674 0.99956 -0.0294143 -7.8247e-06 -1.95524e-06Z"/>
<path id="path5_fill" d="M 48.0749 48.9489C 43.3956 48.9489 39.6137 45.1688 39.6137 40.4918L 39.6137 9.77619e-07L 8.4612 9.77619e-07L 8.4612 40.4918C 8.4612 45.1688 4.67929 48.9489 7.28732e-14 48.9489C 7.28732e-14 48.9489 4.42288 63.3645 26.345 63.3645C 48.2672 63.3645 48.0749 48.9489 48.0749 48.9489Z"/>
<path id="path6_stroke" d="M 48.0749 48.9489L 49.0748 48.9356C 49.0675 48.3886 48.622 47.9489 48.0749 47.9489L 48.0749 48.9489ZM 39.6137 9.77619e-07L 40.6137 9.77619e-07C 40.6137 -0.552284 40.166 -0.999999 39.6137 -0.999999L 39.6137 9.77619e-07ZM 8.4612 9.77619e-07L 8.4612 -0.999999C 7.90891 -0.999999 7.4612 -0.552284 7.4612 9.77619e-07L 8.4612 9.77619e-07ZM 7.28732e-14 48.9489L 7.28732e-14 47.9489C -0.317204 47.9489 -0.615597 48.0994 -0.804151 48.3545C -0.992705 48.6096 -1.04906 48.939 -0.956015 49.2422L 7.28732e-14 48.9489ZM 48.0749 47.9489C 43.9475 47.9489 40.6137 44.6161 40.6137 40.4918L 38.6137 40.4918C 38.6137 45.7216 42.8438 49.9489 48.0749 49.9489L 48.0749 47.9489ZM 40.6137 40.4918L 40.6137 9.77619e-07L 38.6137 9.77619e-07L 38.6137 40.4918L 40.6137 40.4918ZM 39.6137 -0.999999L 8.4612 -0.999999L 8.4612 1L 39.6137 1L 39.6137 -0.999999ZM 7.4612 9.77619e-07L 7.4612 40.4918L 9.4612 40.4918L 9.4612 9.77619e-07L 7.4612 9.77619e-07ZM 7.4612 40.4918C 7.4612 44.6161 4.12746 47.9489 7.28732e-14 47.9489L 7.28732e-14 49.9489C 5.23113 49.9489 9.4612 45.7216 9.4612 40.4918L 7.4612 40.4918ZM 7.28732e-14 48.9489C -0.956015 49.2422 -0.955799 49.2429 -0.955565 49.2437C -0.955464 49.244 -0.955212 49.2448 -0.95501 49.2455C -0.954605 49.2468 -0.954129 49.2483 -0.953583 49.2501C -0.952489 49.2536 -0.951112 49.2579 -0.949444 49.2632C -0.946107 49.2736 -0.941607 49.2876 -0.935893 49.3048C -0.924464 49.3393 -0.908173 49.3871 -0.886611 49.4475C -0.843493 49.5681 -0.779256 49.7386 -0.690618 49.952C -0.513396 50.3786 -0.238259 50.9772 0.161202 51.6901C 0.959954 53.1158 2.25827 55.0033 4.26794 56.8864C 8.30726 60.6715 15.1412 64.3645 26.345 64.3645L 26.345 62.3645C 15.6268 62.3645 9.28815 58.8498 5.63548 55.427C 3.79916 53.7063 2.62162 51.9898 1.90602 50.7126C 1.5483 50.0741 1.30663 49.5465 1.15634 49.1847C 1.08123 49.0039 1.02903 48.8647 0.996657 48.7742C 0.980473 48.7289 0.969253 48.6958 0.962606 48.6758C 0.959283 48.6657 0.957105 48.659 0.956022 48.6556C 0.955481 48.6539 0.955214 48.653 0.955215 48.653C 0.955215 48.653 0.955283 48.6532 0.955416 48.6537C 0.955483 48.6539 0.955633 48.6544 0.955666 48.6545C 0.955832 48.655 0.956015 48.6556 7.28732e-14 48.9489ZM 26.345 64.3645C 37.5445 64.3645 43.3092 60.6678 46.2319 56.7552C 47.6761 54.822 48.3859 52.8881 48.7348 51.4348C 48.9094 50.7077 48.9945 50.0978 49.0359 49.6632C 49.0566 49.4457 49.0664 49.2717 49.071 49.1481C 49.0733 49.0864 49.0744 49.0372 49.0747 49.0015C 49.075 48.9836 49.075 48.9691 49.075 48.9581C 49.075 48.9526 49.075 48.948 49.0749 48.9442C 49.0749 48.9423 49.0749 48.9407 49.0749 48.9392C 49.0749 48.9385 49.0749 48.9376 49.0749 48.9372C 49.0749 48.9364 49.0748 48.9356 48.0749 48.9489C 47.075 48.9623 47.075 48.9616 47.075 48.9609C 47.075 48.9608 47.075 48.9602 47.075 48.9599C 47.075 48.9594 47.075 48.959 47.075 48.9589C 47.075 48.9586 47.075 48.9592 47.075 48.9606C 47.075 48.9635 47.075 48.9697 47.0749 48.9791C 47.0747 48.9979 47.0741 49.0297 47.0724 49.0735C 47.0692 49.1611 47.0617 49.2968 47.0449 49.4735C 47.0112 49.8273 46.94 50.3435 46.7901 50.9679C 46.49 52.2176 45.8777 53.8875 44.6297 55.5582C 42.168 58.8535 37.0678 62.3645 26.345 62.3645L 26.345 64.3645Z"/>
<path id="path7_fill" d="M -1.56494e-05 0L -1.56494e-05 26.3325C -1.56494e-05 40.3636 8.6535 62.2113 32.2423 62.2113C 38.3959 62.2113 50.703 49.3333 50.703 30.9455L 50.703 0L -1.56494e-05 0Z"/>
<path id="path8_stroke_2x" d="M -1.56494e-05 0L -1.56494e-05 -1L -1.00002 -1L -1.00002 0L -1.56494e-05 0ZM 50.703 0L 51.703 0L 51.703 -1L 50.703 -1L 50.703 0ZM -1.00002 0L -1.00002 26.3325L 0.999984 26.3325L 0.999984 0L -1.00002 0ZM -1.00002 26.3325C -1.00002 33.5221 1.20988 42.7017 6.45936 50.1116C 11.7366 57.5607 20.0869 63.2113 32.2423 63.2113L 32.2423 61.2113C 20.8089 61.2113 13.0381 55.938 8.09132 48.9555C 3.11685 41.9338 0.999984 33.174 0.999984 26.3325L -1.00002 26.3325ZM 32.2423 63.2113C 34.0918 63.2113 36.2254 62.2644 38.3178 60.7155C 40.4372 59.1467 42.6256 56.8792 44.6006 54.0456C 48.5521 48.3763 51.703 40.363 51.703 30.9455L 49.703 30.9455C 49.703 39.9158 46.7003 47.5354 42.9599 52.902C 41.0889 55.5863 39.0467 57.6876 37.1279 59.108C 35.182 60.5484 33.4695 61.2113 32.2423 61.2113L 32.2423 63.2113ZM 51.703 30.9455L 51.703 0L 49.703 0L 49.703 30.9455L 51.703 30.9455ZM 50.703 -1L -1.56494e-05 -1L -1.56494e-05 1L 50.703 1L 50.703 -1Z"/>
<path id="path9_stroke" d="M -1.56494e-05 0L -1.56494e-05 -1L -1.00002 -1L -1.00002 0L -1.56494e-05 0ZM 50.703 0L 51.703 0L 51.703 -1L 50.703 -1L 50.703 0ZM -1.00002 0L -1.00002 26.3325L 0.999984 26.3325L 0.999984 0L -1.00002 0ZM -1.00002 26.3325C -1.00002 33.5221 1.20988 42.7017 6.45936 50.1116C 11.7366 57.5607 20.0869 63.2113 32.2423 63.2113L 32.2423 61.2113C 20.8089 61.2113 13.0381 55.938 8.09132 48.9555C 3.11685 41.9338 0.999984 33.174 0.999984 26.3325L -1.00002 26.3325ZM 32.2423 63.2113C 34.0918 63.2113 36.2254 62.2644 38.3178 60.7155C 40.4372 59.1467 42.6256 56.8792 44.6006 54.0456C 48.5521 48.3763 51.703 40.363 51.703 30.9455L 49.703 30.9455C 49.703 39.9158 46.7003 47.5354 42.9599 52.902C 41.0889 55.5863 39.0467 57.6876 37.1279 59.108C 35.182 60.5484 33.4695 61.2113 32.2423 61.2113L 32.2423 63.2113ZM 51.703 30.9455L 51.703 0L 49.703 0L 49.703 30.9455L 51.703 30.9455ZM 50.703 -1L -1.56494e-05 -1L -1.56494e-05 1L 50.703 1L 50.703 -1Z"/>
<path id="path10_fill" d="M -7.8247e-06 6.66321L 4.03828 6.66321C 5.89718 6.66321 7.37148 5.18961 7.37148 3.3316C 7.37148 1.47359 5.89718 9.77619e-07 4.03828 9.77619e-07"/>
<path id="path11_stroke" d="M -7.8247e-06 5.66321C -0.552293 5.66321 -1.00001 6.11092 -1.00001 6.66321C -1.00001 7.21549 -0.552293 7.66321 -7.8247e-06 7.66321L -7.8247e-06 5.66321ZM 4.03828 -0.999999C 3.48599 -0.999999 3.03828 -0.552284 3.03828 9.77619e-07C 3.03828 0.552286 3.48599 1 4.03828 1L 4.03828 -0.999999ZM -7.8247e-06 7.66321L 4.03828 7.66321L 4.03828 5.66321L -7.8247e-06 5.66321L -7.8247e-06 7.66321ZM 4.03828 7.66321C 6.44901 7.66321 8.37148 5.74235 8.37148 3.3316L 6.37148 3.3316C 6.37148 4.63687 5.34534 5.66321 4.03828 5.66321L 4.03828 7.66321ZM 8.37148 3.3316C 8.37148 0.920853 6.44901 -0.999999 4.03828 -0.999999L 4.03828 1C 5.34535 1 6.37148 2.02633 6.37148 3.3316L 8.37148 3.3316Z"/>
<path id="path12_fill" d="M 7.82469e-06 1.52588e-06L 10.1919 1.52588e-06L 19.7428 1.52588e-06"/>
<path id="path13_stroke" d="M 7.82469e-06 -1.5C -0.828419 -1.5 -1.49999 -0.828426 -1.49999 1.52588e-06C -1.49999 0.828429 -0.828419 1.5 7.82469e-06 1.5L 7.82469e-06 -1.5ZM 19.7428 1.5C 20.5712 1.5 21.2428 0.828429 21.2428 1.52588e-06C 21.2428 -0.828426 20.5712 -1.5 19.7428 -1.5L 19.7428 1.5ZM 7.82469e-06 1.5L 10.1919 1.5L 10.1919 -1.5L 7.82469e-06 -1.5L 7.82469e-06 1.5ZM 10.1919 1.5L 19.7428 1.5L 19.7428 -1.5L 10.1919 -1.5L 10.1919 1.5Z"/>
<path id="path14_fill" d="M -1.56494e-05 9.77619e-07L 14.102 9.77619e-07C 14.102 9.77619e-07 12.6277 4.86926 8.0766 4.86926C 3.5255 4.80519 -1.56494e-05 9.77619e-07 -1.56494e-05 9.77619e-07Z"/>
<path id="path15_stroke" d="M -1.56494e-05 9.77619e-07L -1.56494e-05 -0.999999C -0.376893 -0.999999 -0.721762 -0.78811 -0.892078 -0.451912C -1.06239 -0.115713 -1.02923 0.287687 -0.806284 0.591551L -1.56494e-05 9.77619e-07ZM 14.102 9.77619e-07L 15.0591 0.289782C 15.1508 -0.0131893 15.0937 -0.341702 14.905 -0.59591C 14.7164 -0.850118 14.4185 -0.999999 14.102 -0.999999L 14.102 9.77619e-07ZM 8.0766 4.86926L 8.06252 5.86926L 8.0766 5.86926L 8.0766 4.86926ZM -1.56494e-05 1L 14.102 1L 14.102 -0.999999L -1.56494e-05 -0.999999L -1.56494e-05 1ZM 14.102 9.77619e-07C 13.1449 -0.28978 13.145 -0.290162 13.1451 -0.290525C 13.1451 -0.290622 13.1452 -0.290969 13.1453 -0.291163C 13.1454 -0.291552 13.1455 -0.291868 13.1456 -0.292114C 13.1457 -0.292605 13.1458 -0.29281 13.1458 -0.292734C 13.1457 -0.292582 13.1453 -0.291306 13.1446 -0.288944C 13.1431 -0.284219 13.1402 -0.275157 13.1358 -0.262049C 13.127 -0.235816 13.1125 -0.193497 13.0917 -0.137396C 13.0502 -0.0250043 12.9844 0.141521 12.8915 0.344008C 12.7046 0.751554 12.4147 1.29068 12.0036 1.82449C 11.1842 2.88852 9.94124 3.86926 8.0766 3.86926L 8.0766 5.86926C 10.763 5.86926 12.5327 4.41537 13.5882 3.04478C 14.1146 2.36127 14.4777 1.68308 14.7095 1.17764C 14.826 0.923632 14.9109 0.709746 14.9677 0.555851C 14.9962 0.478807 15.0178 0.416513 15.0328 0.371419C 15.0403 0.348864 15.0463 0.330583 15.0506 0.316883C 15.0528 0.310032 15.0546 0.304323 15.056 0.299794C 15.0567 0.29753 15.0573 0.29556 15.0578 0.29389C 15.0581 0.293055 15.0583 0.292294 15.0585 0.291609C 15.0586 0.291267 15.0587 0.29081 15.0588 0.290639C 15.0589 0.290201 15.0591 0.289782 14.102 9.77619e-07ZM 8.09067 3.86936C 6.15277 3.84208 4.35312 2.79419 2.97205 1.64258C 2.29383 1.07705 1.74641 0.511298 1.36912 0.0871674C 1.18103 -0.124272 1.03669 -0.298854 0.941009 -0.418371C 0.893203 -0.478085 0.857651 -0.523917 0.834965 -0.553576C 0.823624 -0.568401 0.815509 -0.579172 0.810696 -0.5856C 0.80829 -0.588813 0.80671 -0.59094 0.805966 -0.591944C 0.805594 -0.592446 0.805431 -0.592667 0.805478 -0.592603C 0.805502 -0.592571 0.805578 -0.592467 0.805707 -0.592292C 0.805771 -0.592204 0.805908 -0.592018 0.80594 -0.591975C 0.80609 -0.591771 0.806253 -0.591549 -1.56494e-05 9.77619e-07C -0.806284 0.591551 -0.806094 0.59181 -0.805891 0.592086C -0.805805 0.592203 -0.805588 0.592499 -0.805416 0.592733C -0.805072 0.5932 -0.804674 0.593741 -0.804221 0.594355C -0.803315 0.595584 -0.802191 0.597104 -0.800852 0.598912C -0.798172 0.602528 -0.794626 0.607294 -0.790223 0.613175C -0.781417 0.624934 -0.76918 0.641154 -0.753587 0.661538C -0.722408 0.702299 -0.677772 0.759766 -0.620288 0.831569C -0.505391 0.975087 -0.33874 1.17641 -0.125201 1.41646C 0.300763 1.8953 0.919164 2.53486 1.69121 3.17863C 3.21067 4.44564 5.44932 5.83238 8.06252 5.86916L 8.09067 3.86936Z"/>
<path id="path16_fill" d="M 41.3444 1.21538C 29.2936 -2.50063 15.5763 2.75305 8.14069 10.8898C 2.1153 17.489 -7.8247e-06 26.5227 -7.8247e-06 35.3002C -7.8247e-06 67.5911 20.7684 75.2795 20.7684 75.2795L 20.7684 67.6552L 20.7684 39.721C 20.7684 35.6846 24.0375 32.4171 28.0757 32.4171L 44.1648 32.4171C 48.139 32.4171 51.4081 29.2137 51.4722 25.3054L 51.6645 25.3054C 51.7927 29.2137 54.9977 32.4171 58.9719 32.4171L 64.4204 32.4171L 64.4204 55.9946C 64.4204 55.9946 76.5353 38.3756 69.292 20.3721C 62.4974 3.2656 49.9338 5.7643 49.9338 5.7643C 49.9338 5.7643 46.6006 2.81712 41.3444 1.21538Z"/>
<path id="path17_stroke" d="M 41.3444 1.21538L 41.0498 2.17099L 41.0529 2.17195L 41.3444 1.21538ZM 8.14069 10.8898L 7.40249 10.2153L 7.40221 10.2156L 8.14069 10.8898ZM 20.7684 75.2795L 20.4212 76.2173C 20.7281 76.3309 21.0711 76.2871 21.3397 76.1002C 21.6083 75.9132 21.7684 75.6067 21.7684 75.2795L 20.7684 75.2795ZM 51.4722 25.3054L 51.4722 24.3054C 50.9263 24.3054 50.4813 24.7432 50.4723 25.289L 51.4722 25.3054ZM 51.6645 25.3054L 52.664 25.2726C 52.6463 24.7334 52.2041 24.3054 51.6645 24.3054L 51.6645 25.3054ZM 64.4204 32.4171L 65.4204 32.4171C 65.4204 31.8648 64.9727 31.4171 64.4204 31.4171L 64.4204 32.4171ZM 64.4204 55.9946L 63.4204 55.9946C 63.4204 56.4326 63.7055 56.8197 64.1238 56.9496C 64.5421 57.0795 64.9962 56.9221 65.2444 56.5612L 64.4204 55.9946ZM 69.292 20.3721L 68.3626 20.7412L 68.3643 20.7453L 69.292 20.3721ZM 49.9338 5.7643L 49.2714 6.51346C 49.5054 6.72033 49.8226 6.80601 50.1289 6.74509L 49.9338 5.7643ZM 41.6391 0.259785C 29.1569 -3.58927 15.0524 1.84392 7.40249 10.2153L 8.87889 11.5644C 16.1001 3.66217 29.4304 -1.412 41.0498 2.17098L 41.6391 0.259785ZM 7.40221 10.2156C 1.14531 17.0683 -1.00001 26.3864 -1.00001 35.3002L 0.999992 35.3002C 0.999992 26.6591 3.08529 17.9097 8.87917 11.5641L 7.40221 10.2156ZM -1.00001 35.3002C -1.00001 51.6815 4.2758 61.9111 9.63026 68.0559C 12.3 71.1196 14.9743 73.151 16.9907 74.42C 17.999 75.0545 18.8436 75.499 19.4423 75.7871C 19.7417 75.9312 19.9798 76.0363 20.1463 76.1065C 20.2296 76.1417 20.295 76.1681 20.3412 76.1864C 20.3643 76.1955 20.3827 76.2026 20.396 76.2078C 20.4027 76.2103 20.4082 76.2124 20.4124 76.214C 20.4145 76.2148 20.4163 76.2154 20.4178 76.216C 20.4185 76.2162 20.4194 76.2166 20.4197 76.2167C 20.4205 76.217 20.4212 76.2173 20.7684 75.2795C 21.1155 74.3417 21.1161 74.3419 21.1166 74.342C 21.1166 74.342 21.117 74.3422 21.1171 74.3422C 21.1173 74.3423 21.1172 74.3423 21.1168 74.3421C 21.116 74.3418 21.1139 74.341 21.1106 74.3398C 21.104 74.3372 21.0926 74.3328 21.0764 74.3264C 21.044 74.3136 20.9928 74.293 20.924 74.2639C 20.7862 74.2058 20.5781 74.1142 20.3096 73.9849C 19.7726 73.7265 18.9947 73.318 18.0559 72.7273C 16.1783 71.5456 13.6605 69.6367 11.1381 66.742C 6.10838 60.9699 0.999992 51.2099 0.999992 35.3002L -1.00001 35.3002ZM 21.7684 75.2795L 21.7684 67.6552L 19.7684 67.6552L 19.7684 75.2795L 21.7684 75.2795ZM 21.7684 67.6552L 21.7684 39.721L 19.7684 39.721L 19.7684 67.6552L 21.7684 67.6552ZM 21.7684 39.721C 21.7684 36.2374 24.5893 33.4171 28.0757 33.4171L 28.0757 31.4171C 23.4856 31.4171 19.7684 35.1319 19.7684 39.721L 21.7684 39.721ZM 28.0757 33.4171L 44.1648 33.4171L 44.1648 31.4171L 28.0757 31.4171L 28.0757 33.4171ZM 44.1648 33.4171C 48.6769 33.4171 52.3989 29.7839 52.4721 25.3218L 50.4723 25.289C 50.4173 28.6434 47.6012 31.4171 44.1648 31.4171L 44.1648 33.4171ZM 51.4722 26.3054L 51.6645 26.3054L 51.6645 24.3054L 51.4722 24.3054L 51.4722 26.3054ZM 50.6651 25.3382C 50.8105 29.7728 54.4454 33.4171 58.9719 33.4171L 58.9719 31.4171C 55.55 31.4171 52.7749 28.6545 52.664 25.2726L 50.6651 25.3382ZM 58.9719 33.4171L 64.4204 33.4171L 64.4204 31.4171L 58.9719 31.4171L 58.9719 33.4171ZM 63.4204 32.4171L 63.4204 55.9946L 65.4204 55.9946L 65.4204 32.4171L 63.4204 32.4171ZM 64.4204 55.9946C 65.2444 56.5612 65.2447 56.5608 65.245 56.5604C 65.2451 56.5601 65.2455 56.5596 65.2458 56.5592C 65.2464 56.5582 65.2473 56.557 65.2483 56.5555C 65.2503 56.5526 65.2531 56.5485 65.2565 56.5434C 65.2635 56.5332 65.2732 56.5187 65.2857 56.5001C 65.3107 56.4628 65.3466 56.4087 65.3925 56.3383C 65.4842 56.1976 65.6157 55.9919 65.7792 55.7253C 66.1062 55.1922 66.5619 54.4151 67.0841 53.4279C 68.1278 51.4549 69.4416 48.6347 70.5251 45.2386C 72.6888 38.457 73.9595 29.294 70.2197 19.9988L 68.3643 20.7453C 71.8679 29.4536 70.7027 38.1019 68.6198 44.6307C 67.5799 47.8898 66.3177 50.5996 65.3162 52.4927C 64.8159 53.4386 64.3816 54.1787 64.0744 54.6795C 63.9209 54.9298 63.7991 55.1202 63.7169 55.2464C 63.6758 55.3094 63.6445 55.3565 63.6241 55.3869C 63.6139 55.4022 63.6064 55.4132 63.6018 55.4201C 63.5994 55.4236 63.5978 55.4259 63.5969 55.4273C 63.5965 55.4279 63.5962 55.4283 63.5961 55.4284C 63.5961 55.4285 63.5961 55.4284 63.5961 55.4284C 63.5962 55.4283 63.5964 55.428 64.4204 55.9946ZM 70.2214 20.003C 66.7295 11.2117 61.6945 7.3399 57.4196 5.71827C 55.3003 4.91434 53.403 4.67686 52.0288 4.6415C 51.3413 4.62381 50.7826 4.65664 50.3896 4.6951C 50.1929 4.71434 50.0374 4.73502 49.9275 4.75159C 49.8725 4.75988 49.829 4.76714 49.7973 4.77269C 49.7815 4.77547 49.7687 4.77781 49.7589 4.77964C 49.754 4.78056 49.7499 4.78135 49.7465 4.78199C 49.7448 4.78232 49.7434 4.78261 49.7421 4.78286C 49.7414 4.78299 49.7406 4.78315 49.7403 4.78321C 49.7395 4.78337 49.7388 4.78351 49.9338 5.7643C 50.1289 6.74509 50.1283 6.74522 50.1277 6.74533C 50.1276 6.74536 50.127 6.74546 50.1268 6.74552C 50.1262 6.74562 50.1259 6.74568 50.1257 6.74571C 50.1254 6.74577 50.1259 6.74569 50.127 6.74547C 50.1294 6.74503 50.1347 6.74405 50.1428 6.74262C 50.1592 6.73976 50.187 6.73508 50.2257 6.72924C 50.3031 6.71756 50.4242 6.70127 50.5843 6.68559C 50.9049 6.65423 51.3808 6.62549 51.9773 6.64084C 53.1711 6.67155 54.8394 6.87855 56.7103 7.58825C 60.4158 8.9939 65.0599 12.426 68.3626 20.7412L 70.2214 20.003ZM 49.9338 5.7643C 50.5962 5.01515 50.596 5.01497 50.5958 5.01478C 50.5957 5.0147 50.5955 5.0145 50.5953 5.01435C 50.595 5.01404 50.5946 5.01368 50.5941 5.01328C 50.5932 5.01248 50.5921 5.0115 50.5908 5.01034C 50.5881 5.00802 50.5847 5.005 50.5804 5.00129C 50.5719 4.99386 50.5601 4.98367 50.5451 4.97085C 50.5151 4.9452 50.4723 4.90902 50.417 4.86336C 50.3064 4.77206 50.1457 4.64277 49.9378 4.48399C 49.5221 4.16656 48.9163 3.73043 48.1425 3.24392C 46.597 2.27225 44.3687 1.09157 41.6359 0.258812L 41.0529 2.17195C 43.5764 2.94093 45.6427 4.0347 47.0779 4.93707C 47.7945 5.38756 48.3505 5.78834 48.724 6.07356C 48.9107 6.21611 49.0515 6.32958 49.1437 6.40571C 49.1898 6.44377 49.2237 6.47247 49.2452 6.49078C 49.2559 6.49993 49.2634 6.50649 49.2678 6.51031C 49.27 6.51222 49.2714 6.51345 49.272 6.51398C 49.2723 6.51425 49.2724 6.51434 49.2723 6.51425C 49.2723 6.51421 49.2722 6.51412 49.272 6.51399C 49.272 6.51392 49.2718 6.51379 49.2718 6.51375C 49.2716 6.51361 49.2714 6.51346 49.9338 5.7643Z"/>
<path id="path18_fill" d="M 0.000241742 1.95524e-06L 18.9097 1.95524e-06C 18.9097 1.95524e-06 19.0379 1.34545 18.7815 3.01126C 18.2687 5.95844 16.3457 10.0589 9.93573 10.0589C -0.192058 10.1229 0.000241742 1.95524e-06 0.000241742 1.95524e-06Z"/>
<path id="path19_stroke" d="M 0.000241742 1.95524e-06L 0.000241742 -0.999998C -0.54464 -0.999998 -0.989229 -0.563774 -0.999578 -0.0189911L 0.000241742 1.95524e-06ZM 18.9097 1.95524e-06L 19.9052 -0.0948752C 19.8563 -0.608081 19.4252 -0.999998 18.9097 -0.999998L 18.9097 1.95524e-06ZM 18.7815 3.01126L 19.7667 3.18268C 19.7679 3.17626 19.7689 3.16982 19.7699 3.16338L 18.7815 3.01126ZM 9.93573 10.0589L 9.93573 9.05885L 9.9294 9.05889L 9.93573 10.0589ZM 0.000241742 1L 18.9097 1L 18.9097 -0.999998L 0.000241742 -0.999998L 0.000241742 1ZM 18.9097 1.95524e-06C 17.9142 0.0948791 17.9142 0.0947355 17.9142 0.094597C 17.9142 0.0945576 17.9142 0.094424 17.9142 0.0943451C 17.9142 0.0941873 17.9141 0.0940497 17.9141 0.0939321C 17.9141 0.093697 17.9141 0.0935422 17.9141 0.0934673C 17.9141 0.0933176 17.9141 0.0934873 17.9141 0.0939726C 17.9142 0.0949432 17.9144 0.0971753 17.9147 0.100638C 17.9153 0.107564 17.9163 0.119405 17.9175 0.135915C 17.92 0.168945 17.9235 0.220584 17.9271 0.28886C 17.9343 0.425537 17.9418 0.628131 17.9418 0.880968C 17.9418 1.38851 17.9118 2.08865 17.7932 2.85913L 19.7699 3.16338C 19.9077 2.26806 19.9418 1.46258 19.9418 0.880939C 19.9418 0.589188 19.9332 0.351306 19.9244 0.183654C 19.9199 0.0997662 19.9155 0.0332777 19.9119 -0.0137789C 19.9102 -0.0373129 19.9086 -0.0560046 19.9075 -0.0696004C 19.9069 -0.0763989 19.9064 -0.0819253 19.906 -0.0861477C 19.9058 -0.088259 19.9057 -0.0900446 19.9055 -0.0915004C 19.9055 -0.0922283 19.9054 -0.0928738 19.9053 -0.0934364C 19.9053 -0.0937178 19.9053 -0.0939783 19.9053 -0.0942181C 19.9053 -0.094338 19.9052 -0.0945024 19.9052 -0.0945623C 19.9052 -0.0947213 19.9052 -0.0948752 18.9097 1.95524e-06ZM 17.7963 2.83983C 17.56 4.19792 17.0098 5.74575 15.8509 6.94549C 14.7177 8.11852 12.907 9.05887 9.93573 9.05887L 9.93573 11.0589C 13.3745 11.0589 15.7302 9.94901 17.2893 8.33503C 18.8226 6.74775 19.4902 4.77178 19.7667 3.18268L 17.7963 2.83983ZM 9.9294 9.05889C 7.572 9.07381 5.88633 8.49836 4.66639 7.68285C 3.44039 6.86329 2.62066 5.75805 2.07061 4.61871C 1.51848 3.47504 1.24814 2.31647 1.11768 1.4344C 1.05282 0.995877 1.02351 0.632406 1.01038 0.382429C 1.00383 0.257618 1.00135 0.161627 1.00045 0.0993173C 1 0.0681782 0.999956 0.0455022 0.999995 0.0318992C 1.00001 0.0250993 1.00006 0.0205724 1.00008 0.0183948C 1.00009 0.0173062 1.0001 0.0168054 1.0001 0.0169021C 1.0001 0.0169504 1.00009 0.0171482 1.00009 0.0174966C 1.00009 0.0176704 1.00008 0.018046 1.00008 0.0181324C 1.00007 0.0185444 1.00006 0.018995 0.000241742 1.95524e-06C -0.999578 -0.0189911 -0.999588 -0.0184633 -0.999598 -0.0178971C -0.999602 -0.0176565 -0.999613 -0.0170498 -0.999621 -0.0165683C -0.999638 -0.0156045 -0.999656 -0.0144848 -0.999675 -0.0132104C -0.999713 -0.0106617 -0.999756 -0.00749404 -0.999798 -0.0037173C -0.999881 0.00383581 -0.999961 0.0138275 -0.999997 0.0261792C -1.00007 0.0508793 -0.999959 0.0850382 -0.999342 0.128026C -0.998108 0.21397 -0.994837 0.335402 -0.986866 0.487265C -0.970942 0.790636 -0.936156 1.21752 -0.860797 1.72702C -0.710824 2.741 -0.396252 4.10916 0.269517 5.48822C 0.937373 6.8716 1.96853 8.28509 3.5549 9.34556C 5.14735 10.4101 7.23556 11.076 9.94205 11.0589L 9.9294 9.05889Z"/>
<path id="path20_fill" d="M 15.6728 1.95524e-06L 0.0324062 1.95524e-06C 0.0324062 1.95524e-06 -0.993185 10.1229 8.4936 10.1229C 17.9163 10.1229 15.6728 1.95524e-06 15.6728 1.95524e-06Z"/>
<path id="path21_stroke" d="M 15.6728 1.95524e-06L 16.6491 -0.216372C 16.5476 -0.674176 16.1417 -0.999998 15.6728 -0.999998L 15.6728 1.95524e-06ZM 0.0324062 1.95524e-06L 0.0324062 -0.999998C -0.480848 -0.999998 -0.910766 -0.611435 -0.962501 -0.100796L 0.0324062 1.95524e-06ZM 15.6728 -0.999998L 0.0324062 -0.999998L 0.0324062 1L 15.6728 1L 15.6728 -0.999998ZM 0.0324062 1.95524e-06C -0.962501 -0.100796 -0.96255 -0.100305 -0.962604 -0.0997767C -0.962626 -0.0995487 -0.962683 -0.0989797 -0.962729 -0.0985233C -0.96282 -0.0976097 -0.962925 -0.0965402 -0.963045 -0.0953162C -0.963284 -0.0928682 -0.963579 -0.0898015 -0.963924 -0.0861259C -0.964614 -0.0787751 -0.965505 -0.0689865 -0.966552 -0.0568385C -0.968646 -0.0325458 -0.971366 0.00120399 -0.974349 0.0437838C -0.980315 0.128911 -0.98735 0.249534 -0.992543 0.400619C -1.00292 0.702408 -1.00602 1.12793 -0.978109 1.63651C -0.922631 2.64742 -0.742999 4.01822 -0.233236 5.40622C 0.277766 6.79759 1.134 8.24096 2.56089 9.33486C 3.99744 10.4361 5.93426 11.1229 8.4936 11.1229L 8.4936 9.12294C 6.30955 9.12294 4.81703 8.54437 3.77771 7.74761C 2.72875 6.94345 2.0626 5.85609 1.64415 4.71672C 1.22447 3.57399 1.06757 2.41405 1.01889 1.52691C 0.994714 1.08646 0.997621 0.721135 1.00628 0.469326C 1.0106 0.343611 1.01633 0.246749 1.02076 0.183591C 1.02297 0.152028 1.02485 0.128935 1.02606 0.114921C 1.02666 0.107915 1.0271 0.103184 1.02732 0.100804C 1.02743 0.0996138 1.02749 0.099012 1.02749 0.0990079C 1.02749 0.0990059 1.02748 0.0991534 1.02745 0.0994516C 1.02743 0.0996003 1.0274 0.0999382 1.02739 0.100012C 1.02735 0.100387 1.02731 0.1008 0.0324062 1.95524e-06ZM 8.4936 11.1229C 11.0356 11.1229 12.9076 10.4359 14.2388 9.30267C 15.5597 8.17808 16.2464 6.7006 16.5883 5.29832C 16.9292 3.8996 16.941 2.52381 16.8739 1.51537C 16.8401 1.00717 16.7856 0.582389 16.739 0.281669C 16.7156 0.131095 16.6941 0.0110165 16.678 -0.073539C 16.67 -0.115834 16.6632 -0.149295 16.6583 -0.173296C 16.6558 -0.185298 16.6537 -0.19494 16.6522 -0.202144C 16.6514 -0.205746 16.6508 -0.208739 16.6503 -0.211114C 16.65 -0.212301 16.6498 -0.213334 16.6496 -0.21421C 16.6495 -0.214648 16.6494 -0.21519 16.6493 -0.215409C 16.6492 -0.21591 16.6491 -0.216372 15.6728 1.95524e-06C 14.6965 0.216376 14.6964 0.215991 14.6963 0.215644C 14.6963 0.215579 14.6962 0.215269 14.6962 0.215139C 14.6962 0.214877 14.6961 0.214767 14.6961 0.214806C 14.6962 0.214883 14.6963 0.215559 14.6966 0.216822C 14.6971 0.21935 14.6982 0.224227 14.6996 0.231378C 14.7026 0.245685 14.7073 0.269066 14.7134 0.300914C 14.7255 0.364643 14.743 0.46205 14.7626 0.588275C 14.8018 0.841154 14.849 1.20722 14.8783 1.64805C 14.9375 2.53767 14.9211 3.69261 14.6452 4.82462C 14.3701 5.95308 13.8508 7.00634 12.9423 7.7798C 12.044 8.54457 10.663 9.12294 8.4936 9.12294L 8.4936 11.1229Z"/>
<path id="path22_fill" d="M 3.4614 1.72987C 3.4614 2.69091 2.69219 3.45974 1.73069 3.45974C 0.769191 3.45974 -1.56494e-05 2.69091 -1.56494e-05 1.72987C -1.56494e-05 0.768832 0.769191 -1.95524e-06 1.73069 -1.95524e-06C 2.69219 -1.95524e-06 3.4614 0.768832 3.4614 1.72987Z"/>
<path id="path23_stroke" d="M 2.4614 1.72987C 2.4614 2.13817 2.14036 2.45974 1.73069 2.45974L 1.73069 4.45974C 3.24401 4.45974 4.4614 3.24365 4.4614 1.72987L 2.4614 1.72987ZM 1.73069 2.45974C 1.32102 2.45974 0.999984 2.13817 0.999984 1.72987L -1.00002 1.72987C -1.00002 3.24365 0.217365 4.45974 1.73069 4.45974L 1.73069 2.45974ZM 0.999984 1.72987C 0.999984 1.32157 1.32102 0.999998 1.73069 0.999998L 1.73069 -1C 0.217361 -1 -1.00002 0.216093 -1.00002 1.72987L 0.999984 1.72987ZM 1.73069 0.999998C 2.14036 0.999998 2.4614 1.32157 2.4614 1.72987L 4.4614 1.72987C 4.4614 0.216093 3.24402 -1 1.73069 -1L 1.73069 0.999998Z"/>
<path id="path24_stroke" d="M -1.56494e-05 1L 8.0766 1L 8.0766 -0.999997L -1.56494e-05 -0.999997L -1.56494e-05 1Z"/>
<path id="path25_stroke" d="M 3.07678 -0.999997L -7.8247e-06 -0.999997L -7.8247e-06 1L 3.07678 1L 3.07678 -0.999997Z"/>
<path id="path26_fill" d="M 58.7155 1.95524e-06C 58.7155 1.95524e-06 58.9719 8.64935 36.9857 8.64935C 14.9994 8.64935 10.6406 1.95524e-06 10.6406 1.95524e-06L 7.8247e-06 1.95524e-06C 7.8247e-06 1.95524e-06 1.92301 17.2346 36.9857 17.2346C 67.369 17.2346 67.9459 1.95524e-06 67.9459 1.95524e-06L 58.7155 1.95524e-06Z"/>
<path id="path27_stroke" d="M 58.7155 1.95524e-06L 58.7155 -0.999998L 57.6854 -0.999998L 57.7159 0.0296351L 58.7155 1.95524e-06ZM 10.6406 1.95524e-06L 11.5336 -0.450029L 11.2564 -0.999998L 10.6406 -0.999998L 10.6406 1.95524e-06ZM 7.8247e-06 1.95524e-06L 7.8247e-06 -0.999998L -1.11778 -0.999998L -0.993825 0.110892L 7.8247e-06 1.95524e-06ZM 67.9459 1.95524e-06L 68.9454 0.0334561L 68.9799 -0.999998L 67.9459 -0.999998L 67.9459 1.95524e-06ZM 58.7155 1.95524e-06C 57.7159 0.0296351 57.7159 0.028426 57.7159 0.0272497C 57.7159 0.0269004 57.7158 0.0257519 57.7158 0.0250513C 57.7158 0.0236478 57.7158 0.0223684 57.7157 0.0212121C 57.7157 0.0188996 57.7157 0.017079 57.7157 0.0157424C 57.7156 0.01307 57.7156 0.0123304 57.7156 0.0134616C 57.7156 0.0157281 57.7155 0.0254509 57.7145 0.0421359C 57.7127 0.0755289 57.7078 0.136599 57.6949 0.221455C 57.6692 0.39102 57.6114 0.655574 57.4817 0.984879C 57.225 1.63635 56.6735 2.57485 55.4681 3.54594C 53.0402 5.5018 47.8775 7.64935 36.9857 7.64935L 36.9857 9.64935C 48.0801 9.64935 53.7823 7.47223 56.7228 5.10342C 58.2015 3.91217 58.9601 2.68833 59.3424 1.71805C 59.5322 1.23648 59.6261 0.825299 59.6722 0.521852C 59.6953 0.370202 59.7064 0.245447 59.7115 0.152141C 59.7141 0.105476 59.7152 0.0666305 59.7155 0.0361663C 59.7157 0.0209321 59.7157 0.00778657 59.7156 -0.00320056C 59.7155 -0.00869441 59.7154 -0.0136495 59.7154 -0.0180572C 59.7153 -0.0202611 59.7153 -0.0223283 59.7152 -0.0242576C 59.7152 -0.0252211 59.7152 -0.0265671 59.7151 -0.0270481C 59.7151 -0.0283561 59.7151 -0.0296312 58.7155 1.95524e-06ZM 36.9857 7.64935C 26.1225 7.64935 19.7145 5.51289 16.0591 3.45344C 14.2307 2.42329 13.0804 1.40672 12.3983 0.671392C 12.0568 0.303173 11.8311 0.0038187 11.6956 -0.193763C 11.6279 -0.292601 11.5826 -0.366105 11.5567 -0.410166C 11.5437 -0.4322 11.5355 -0.446881 11.5318 -0.453694C 11.53 -0.457102 11.5292 -0.458542 11.5295 -0.457953C 11.5297 -0.457658 11.5301 -0.456856 11.5308 -0.455538C 11.5311 -0.454879 11.5315 -0.454091 11.532 -0.453173C 11.5322 -0.452715 11.5326 -0.451928 11.5327 -0.451699C 11.5332 -0.450881 11.5336 -0.450029 10.6406 1.95524e-06C 9.74756 0.450033 9.74803 0.450951 9.74851 0.451901C 9.74869 0.452262 9.74919 0.453246 9.74956 0.453967C 9.75029 0.455411 9.7511 0.456986 9.75197 0.458693C 9.75373 0.462106 9.75577 0.466043 9.7581 0.470495C 9.76277 0.479399 9.76861 0.490364 9.77567 0.503322C 9.78979 0.529239 9.80881 0.563127 9.83313 0.604443C 9.88178 0.68708 9.95163 0.799403 10.046 0.937071C 10.2348 1.2125 10.5214 1.58888 10.932 2.03153C 11.7543 2.91796 13.0679 4.06373 15.0774 5.19592C 19.098 7.46114 25.8626 9.64935 36.9857 9.64935L 36.9857 7.64935ZM 10.6406 -0.999998L 7.8247e-06 -0.999998L 7.8247e-06 1L 10.6406 1L 10.6406 -0.999998ZM 7.8247e-06 1.95524e-06C -0.993825 0.110892 -0.993708 0.111934 -0.993583 0.113042C -0.993531 0.1135 -0.993396 0.114676 -0.993291 0.115592C -0.993079 0.117424 -0.992833 0.119522 -0.99255 0.121883C -0.991986 0.126604 -0.991276 0.132378 -0.990406 0.139188C -0.988667 0.152808 -0.986286 0.170574 -0.983142 0.192351C -0.976853 0.235903 -0.967507 0.295521 -0.954123 0.370128C -0.927359 0.519324 -0.884419 0.728613 -0.817432 0.989368C -0.683474 1.51082 -0.453164 2.23881 -0.0633687 3.10377C 0.717494 4.83652 2.13433 7.10953 4.68123 9.36584C 9.7833 13.8858 19.2962 18.2346 36.9857 18.2346L 36.9857 16.2346C 19.6125 16.2346 10.6325 11.9662 6.00745 7.8688C 3.69077 5.81645 2.43544 3.7808 1.76003 2.28206C 1.42169 1.53127 1.22784 0.912802 1.11967 0.491737C 1.06559 0.281233 1.03298 0.120246 1.01445 0.0169814C 1.00519 -0.034641 0.999459 -0.0718003 0.99633 -0.0934671C 0.994766 -0.104299 0.993854 -0.111254 0.993477 -0.114201C 0.993289 -0.115675 0.993235 -0.116147 0.9933 -0.1156C 0.993333 -0.115327 0.993395 -0.114799 0.993486 -0.114014C 0.993531 -0.113622 0.993621 -0.112839 0.993643 -0.112644C 0.993738 -0.111799 0.993841 -0.110888 7.8247e-06 1.95524e-06ZM 36.9857 18.2346C 52.3688 18.2346 60.4129 13.8658 64.5973 9.29235C 66.6788 7.01732 67.7656 4.73273 68.3314 3.00397C 68.6141 2.14028 68.7669 1.4151 68.8493 0.897961C 68.8905 0.639274 68.9142 0.432219 68.9278 0.285402C 68.9346 0.211977 68.9388 0.153563 68.9414 0.111231C 68.9427 0.090063 68.9436 0.0729096 68.9443 0.0599045C 68.9446 0.0534017 68.9448 0.0479352 68.945 0.0435218C 68.9451 0.0413151 68.9451 0.0393716 68.9452 0.0376933C 68.9452 0.0368549 68.9453 0.0357939 68.9453 0.035375C 68.9453 0.0343828 68.9454 0.0334561 67.9459 1.95524e-06C 66.9465 -0.0334522 66.9465 -0.0342474 66.9465 -0.0349771C 66.9465 -0.0351336 66.9465 -0.0358011 66.9466 -0.0361156C 66.9466 -0.0367461 66.9466 -0.03712 66.9466 -0.0372393C 66.9466 -0.0374779 66.9466 -0.0366986 66.9465 -0.0349175C 66.9463 -0.0313549 66.9459 -0.0237882 66.9452 -0.0123468C 66.9438 0.0105402 66.9411 0.0489025 66.9362 0.101708C 66.9265 0.207351 66.9081 0.370572 66.8742 0.583143C 66.8064 1.00852 66.6768 1.6298 66.4306 2.38186C 65.9388 3.88459 64.9824 5.90866 63.1218 7.94229C 59.4219 11.9862 51.9859 16.2346 36.9857 16.2346L 36.9857 18.2346ZM 67.9459 -0.999998L 58.7155 -0.999998L 58.7155 1L 67.9459 1L 67.9459 -0.999998Z"/>
<path id="path28_stroke" d="M -7.8247e-06 -1C -0.552293 -1 -1.00001 -0.552288 -1.00001 -3.05176e-06C -1.00001 0.552282 -0.552293 0.999997 -7.8247e-06 0.999997L -7.8247e-06 -1ZM 10.8329 0.999997C 11.3852 0.999997 11.8329 0.552282 11.8329 -3.05176e-06C 11.8329 -0.552288 11.3852 -1 10.8329 -1L 10.8329 0.999997ZM -7.8247e-06 0.999997L 10.8329 0.999997L 10.8329 -1L -7.8247e-06 -1L -7.8247e-06 0.999997Z"/>
<path id="path29_fill" d="M 3.46141 1.72987C 3.46141 2.69091 2.6922 3.45974 1.73071 3.45974C 0.769207 3.45974 7.28732e-14 2.69091 7.28732e-14 1.72987C 7.28732e-14 0.768832 0.769207 -1.95524e-06 1.73071 -1.95524e-06C 2.6922 -1.95524e-06 3.46141 0.768832 3.46141 1.72987Z"/>
<path id="path30_stroke" d="M 2.46141 1.72987C 2.46141 2.13817 2.14038 2.45974 1.73071 2.45974L 1.73071 4.45974C 3.24403 4.45974 4.46141 3.24365 4.46141 1.72987L 2.46141 1.72987ZM 1.73071 2.45974C 1.32103 2.45974 1 2.13817 1 1.72987L -1 1.72987C -1 3.24365 0.21738 4.45974 1.73071 4.45974L 1.73071 2.45974ZM 1 1.72987C 1 1.32157 1.32104 0.999998 1.73071 0.999998L 1.73071 -1C 0.217377 -1 -1 0.216093 -1 1.72987L 1 1.72987ZM 1.73071 0.999998C 2.14037 0.999998 2.46141 1.32157 2.46141 1.72987L 4.46141 1.72987C 4.46141 0.216093 3.24403 -1 1.73071 -1L 1.73071 0.999998Z"/>
<path id="path31_stroke" d="M -1.56494e-05 -1C -0.5523 -1 -1.00002 -0.552285 -1.00002 0C -1.00002 0.552285 -0.5523 1 -1.56494e-05 1L -1.56494e-05 -1ZM 8.46118 1C 9.01346 1 9.46118 0.552285 9.46118 0C 9.46118 -0.552285 9.01346 -1 8.46118 -1L 8.46118 1ZM -1.56494e-05 1L 8.46118 1L 8.46118 -1L -1.56494e-05 -1L -1.56494e-05 1Z"/>
<path id="path32_stroke" d="M -0.979114 16.6469C -1.0914 17.1877 -0.74406 17.717 -0.20331 17.8293C 0.33744 17.9416 0.86683 17.5943 0.979114 17.0535L -0.979114 16.6469ZM 14.745 0.946555C 15.2678 0.768424 15.5472 0.200231 15.369 -0.322538C 15.1909 -0.845307 14.6227 -1.12469 14.0999 -0.946559L 14.745 0.946555ZM 0.979114 17.0535C 1.6702 13.7253 3.15646 9.08661 6.54001 5.70468L 5.12614 4.29013C 1.3305 8.08395 -0.260004 13.1838 -0.979114 16.6469L 0.979114 17.0535ZM 6.54001 5.70468C 8.88624 3.35958 11.9927 1.88439 14.745 0.946555L 14.0999 -0.946559C 11.2114 0.0376867 7.77971 1.63783 5.12614 4.29013L 6.54001 5.70468Z"/>
<path id="path33_stroke" d="M 12.8733 8.15491C 13.414 8.26709 13.9434 7.91965 14.0555 7.37888C 14.1677 6.83811 13.8203 6.30879 13.2795 6.1966L 12.8733 8.15491ZM 0.759095 -0.650969C 0.399574 -1.07021 -0.231738 -1.11862 -0.650979 -0.759101C -1.07022 -0.39958 -1.11863 0.231732 -0.759111 0.650973L 0.759095 -0.650969ZM 13.2795 6.1966C 9.94957 5.50582 5.30846 4.02018 1.92484 0.638175L 0.510968 2.05273C 4.30654 5.84648 9.40862 7.43618 12.8733 8.15491L 13.2795 6.1966ZM 1.92484 0.638175C 1.50732 0.220856 1.14652 -0.199194 0.759095 -0.650969L -0.759111 0.650973C -0.377332 1.09617 0.0310886 1.57308 0.510968 2.05273L 1.92484 0.638175Z"/>
<path id="path34_stroke" d="M 7.20827 57.3597C 7.5365 57.8039 8.16265 57.8978 8.60681 57.5696C 9.05098 57.2414 9.14496 56.6152 8.81673 56.1711L 7.20827 57.3597ZM 7.30737 6.40693L 6.57342 5.7277L 6.56889 5.73265L 7.30737 6.40693ZM 16.3508 0.890994C 16.8429 0.640248 17.0385 0.0380671 16.7878 -0.454015C 16.537 -0.946098 15.9348 -1.14174 15.4428 -0.890994L 16.3508 0.890994ZM 8.81673 56.1711C 4.78382 50.7137 1.00001 42.0828 1.00001 28.639L -0.999992 28.639C -0.999992 42.4886 2.90819 51.5408 7.20827 57.3597L 8.81673 56.1711ZM 1.00001 28.639C 1.00001 22.251 2.27462 13.402 8.04585 7.0812L 6.56889 5.73265C 0.289343 12.6101 -0.999992 22.0849 -0.999992 28.639L 1.00001 28.639ZM 8.04131 7.08614C 10.3257 4.61767 13.1769 2.50827 16.3508 0.890994L 15.4428 -0.890994C 12.0784 0.823328 9.0324 3.07064 6.57344 5.72771L 8.04131 7.08614Z"/>
<path id="path35_stroke" d="M 2.66926 3.61919C 3.11117 3.95046 3.73795 3.86077 4.06922 3.41886C 4.40049 2.97696 4.3108 2.35018 3.8689 2.01891L 2.66926 3.61919ZM 0.706938 -0.707276C 0.31632 -1.09771 -0.316845 -1.09756 -0.707276 -0.706938C -1.09771 -0.31632 -1.09756 0.316845 -0.706938 0.707276L 0.706938 -0.707276ZM 3.8689 2.01891C 2.87182 1.27146 1.81993 0.40518 0.706938 -0.707276L -0.706938 0.707276C 0.487671 1.90131 1.61514 2.82897 2.66926 3.61919L 3.8689 2.01891Z"/>
<path id="path36_stroke" d="M 1.17939 20.0537C 1.17939 20.606 1.6271 21.0537 2.17939 21.0537C 2.73167 21.0537 3.17939 20.606 3.17939 20.0537L 1.17939 20.0537ZM 0.706953 -0.707276C 0.316336 -1.09771 -0.316829 -1.09756 -0.70726 -0.706937C -1.09769 -0.31632 -1.09754 0.316845 -0.706922 0.707276L 0.706953 -0.707276ZM 3.17939 20.0537C 3.17939 18.1616 3.28194 16.2148 3.37848 14.2669C 3.47443 12.3309 3.56453 10.3921 3.53179 8.56734C 3.46742 4.97988 2.93318 1.51788 0.706953 -0.707276L -0.706922 0.707276C 0.912849 2.32627 1.4683 5.04696 1.53211 8.60322C 1.56346 10.3503 1.47729 12.2237 1.38093 14.1679C 1.28517 16.1001 1.17939 18.1016 1.17939 20.0537L 3.17939 20.0537Z"/>
</defs>
</svg>
