<svg width="232" height="231" viewBox="0 0 232 231" version="1.1" xmlns="http://www.w3.org/2000/svg" xmlns:xlink="http://www.w3.org/1999/xlink"><title>hector</title><desc>Created using Figma</desc><use xlink:href="#a" fill="#FFF"/><g transform="translate(28 147.62)"><use xlink:href="#b" fill="#FFF"/><use xlink:href="#c" fill="#333"/></g><g transform="translate(118.5 162.87)"><use xlink:href="#d" fill="#FFF"/><use xlink:href="#e" fill="#333"/></g><g transform="translate(39.83 157.65)"><use xlink:href="#f" fill="#BDBDBD"/><use xlink:href="#g" fill="#333"/></g><g transform="translate(165.9 157.45)"><use xlink:href="#h" fill="#BDBDBD"/><use xlink:href="#i" fill="#333"/></g><g><g transform="translate(72.5 53.5)"><use xlink:href="#j" fill="#FFF"/><use xlink:href="#k" fill="#333"/></g><use xlink:href="#l" transform="translate(66.6 77.3)" fill="#FFF"/><use xlink:href="#m" transform="translate(65.1 75.9)" fill="#333"/><g transform="translate(72.6 106.2)"><use xlink:href="#n" fill="#BDBDBD"/><use xlink:href="#o" fill="#333"/></g><g transform="translate(72.2 12)"><use xlink:href="#p" fill="#BDBDBD"/><use xlink:href="#q" fill="#333"/></g><use xlink:href="#r" transform="translate(81.8 71.1)" fill="#333"/><g transform="translate(94 107.31)"><use xlink:href="#s" fill="#BDBDBD"/><use xlink:href="#t" fill="#333"/></g><g transform="translate(90.8 67.28)"><use xlink:href="#u" fill="#FFF"/><use xlink:href="#v" fill="#333"/></g><g transform="translate(-9889 -3908)"><use xlink:href="#w" transform="translate(10004.8 3977.1)" fill="#333"/><mask id="x"><use xlink:href="#w" fill="#fff" transform="translate(10004.8 3977.1)"/></mask><use xlink:href="#y" transform="translate(10004.8 3977.1)" fill="#333" mask="url(#x)"/></g><use xlink:href="#z" transform="translate(123.8 69.1)" fill="#333"/><g transform="translate(128.5 67.28)"><use xlink:href="#A" fill="#FFF"/><use xlink:href="#B" fill="#333"/></g><g transform="translate(-9889 -3908)"><use xlink:href="#C" transform="translate(10018.2 3977.1)" fill="#333"/><mask id="D"><use xlink:href="#C" fill="#fff" transform="translate(10018.2 3977.1)"/></mask><use xlink:href="#E" transform="translate(10018.2 3977.1)" fill="#333" mask="url(#D)"/></g><g transform="translate(125.9 81.7)"><use xlink:href="#F" fill="#FFF"/><use xlink:href="#G" fill="#333"/></g><g transform="translate(142.8 74.2)"><use xlink:href="#H" fill="#FFF"/><use xlink:href="#I" fill="#333"/></g><g transform="translate(137.7 73.06)"><use xlink:href="#J" fill="#FFF"/><use xlink:href="#K" fill="#333"/></g><g transform="translate(101.4 74.2)"><use xlink:href="#L" fill="#FFF"/><use xlink:href="#M" fill="#333"/></g><g transform="translate(96.8 73.06)"><use xlink:href="#N" fill="#FFF"/><use xlink:href="#O" fill="#333"/></g><g><use xlink:href="#P" transform="translate(81.2 37.1)" fill="#333"/><use xlink:href="#Q" transform="translate(165.5 26.7)" fill="#333"/></g></g><g transform="translate(-9889 -3908)"><use xlink:href="#R" transform="translate(10045.2 3979.26)" fill="#333"/></g><defs><path id="a" d="M231.045 115.5c0 63.789-51.721 115.5-115.522 115.5C51.721 231 0 179.289 0 115.5S51.721 0 115.523 0c63.801 0 115.522 51.711 115.522 115.5z"/><path id="b" d="M86.2 0s57.232 8.824 71.865 16.043C172.699 23.263 173 36.498 173 36.498s-24.657 14.137-86.5 14.137S0 36.498 0 36.498s.3-13.236 14.934-20.455C29.67 8.823 86.2 0 86.2 0z"/><path id="c" d="M86.2 0l.228-1.482a1.5 1.5 0 0 0-.46 0L86.199 0zM173 36.498l.746 1.3c.477-.273.766-.785.754-1.334l-1.5.034zm-173 0l-1.5-.034a1.5 1.5 0 0 0 .754 1.335L0 36.498zm14.934-20.455l-.66-1.347-.003.002.663 1.345zM86.2 0a325.46 325.46 0 0 0-.228 1.483h.002l.008.001.03.005.122.019a350.232 350.232 0 0 1 2.317.366c1.591.255 3.879.627 6.672 1.097 5.589.939 13.183 2.264 21.239 3.816 8.057 1.552 16.544 3.324 23.94 5.16 7.429 1.843 13.604 3.716 17.101 5.441l1.327-2.69c-3.82-1.885-10.287-3.822-17.705-5.663-7.451-1.85-16.016-3.637-24.096-5.194A927.87 927.87 0 0 0 95.619.012a903.62 903.62 0 0 0-9.149-1.488l-.031-.005-.008-.001h-.002L86.199 0zm71.203 17.388c6.964 3.436 10.47 8.268 12.252 12.208a21.739 21.739 0 0 1 1.597 5c.12.632.18 1.11.215 1.465.016.168.024.285.03.374l.004.085v.015c0 .001 0 .001 0 0 0 .001 0 0 0 0v-.002l1.5-.035c1.5-.034 1.5-.035 1.5-.036v-.002l-.001-.005v-.014l-.002-.042a11.187 11.187 0 0 0-.046-.63 20.436 20.436 0 0 0-.253-1.732 26.027 26.027 0 0 0-1.811-5.677c-2.027-4.484-5.988-9.879-13.658-13.662l-1.327 2.69zM173 36.498a146.941 146.941 0 0 1-.745-1.302h0l-.008.004-.044.024a27.237 27.237 0 0 1-1.039.532c-.78.38-1.938.91-3.545 1.56-3.246 1.313-8.165 3.048-15.048 4.797-13.831 3.52-35.271 7.027-66.071 7.022v3c31.043-.005 52.853-3.566 66.811-7.115 7.012-1.785 12.123-3.585 15.432-4.923a60.98 60.98 0 0 0 3.733-1.643 33.478 33.478 0 0 0 1.175-.602l.066-.037.019-.01.006-.004.002-.001c.001 0 .002-.001-.744-1.302zM86.5 49.135c-30.8.005-52.24-3.502-66.071-7.022-6.883-1.75-11.802-3.484-15.048-4.797a56.582 56.582 0 0 1-3.545-1.56 27.401 27.401 0 0 1-1.04-.532c-.02-.01-.033-.018-.043-.024l-.008-.004L0 36.498A111.463 111.463 0 0 0-.744 37.8l.002.001.006.004a1.35 1.35 0 0 0 .085.047 31.325 31.325 0 0 0 1.176.602c.81.394 2.061.967 3.732 1.643 3.31 1.338 8.42 3.138 15.432 4.923 13.958 3.55 35.768 7.11 66.811 7.115v-3zM0 36.498a149.112 149.112 0 0 1 1.5.036v.001a1.182 1.182 0 0 1 .004-.1c.006-.09.014-.206.03-.374.035-.355.095-.833.215-1.465a21.681 21.681 0 0 1 1.597-5c1.782-3.94 5.288-8.772 12.252-12.208l-1.327-2.69C6.6 18.48 2.64 23.876.613 28.359a26.053 26.053 0 0 0-1.811 5.678 20.32 20.32 0 0 0-.253 1.732 13.418 13.418 0 0 0-.048.686v.007s0 .002 1.499.036zM15.595 17.39c3.525-1.727 9.68-3.6 17.054-5.444 7.345-1.836 15.754-3.608 23.73-5.16A914.339 914.339 0 0 1 77.388 2.97a888.347 888.347 0 0 1 9.033-1.486l.007-.002h.002L86.2 0l-.233-1.482h-.002l-.008.002c-.007 0-.017.002-.031.005l-.123.019a344.845 344.845 0 0 0-2.302.369c-1.576.255-3.847.629-6.616 1.1a918.67 918.67 0 0 0-21.08 3.829c-7.998 1.556-16.484 3.344-23.883 5.193-7.368 1.842-13.806 3.778-17.648 5.66l1.32 2.695z"/><path id="d" d="M0 0c3.709 0 2.305 22.36 2.305 34.793z"/><path id="e" d="M0 1.5c-.427 0-.427-.344-.179.154.257.5.444 1.21.625 2.286.378 2.205.542 5.274.598 8.818.112 7.102-.238 15.788-.239 22.035h3c0-6.186.351-14.896.238-22.083-.057-3.6-.238-6.898-.64-9.274-.208-1.215-.52-2.348-.896-3.12C2.12-.457 1.354-1.5 0-1.5v3z"/><path id="f" d="M0 7.82v23.263c5.312 1.705 12.529 3.61 21.85 5.214V0C13.933 1.905 7.117 4.01 3.207 5.916 2.105 6.517 1.002 7.219 0 7.82z"/><path id="g" d="M0 7.82l-.772-1.285A1.5 1.5 0 0 0-1.5 7.82H0zm0 23.263h-1.5a1.5 1.5 0 0 0 1.042 1.428L0 31.083zm21.85 5.214l-.254 1.478a1.5 1.5 0 0 0 1.755-1.478h-1.5zM21.85 0h1.5a1.5 1.5 0 0 0-1.85-1.458L21.85 0zM3.207 5.916L2.55 4.567 2.49 4.6l.718 1.317zM-1.5 7.82v23.262h3V7.821h-3zm1.042 24.69c5.35 1.716 12.668 3.647 22.054 5.264l.509-2.956C12.848 33.227 5.733 31.348.458 29.655l-.916 2.856zm23.809 3.786V0h-3v36.297h3zM21.5-1.458C13.535.459 6.565 2.616 2.55 4.567l1.315 2.697C7.668 5.406 14.329 3.352 22.2 1.458L21.5-1.458zM2.489 4.599C1.342 5.226.214 5.943-.772 6.535L.772 9.107c1.02-.612 2.095-1.298 3.154-1.874L2.489 4.599z"/><path id="h" d="M0 0v36.899c9.221-1.605 16.438-3.41 21.85-5.014V7.12c-.5-.3-1.102-.602-1.703-.902C16.137 4.11 8.62 2.005 0 0z"/><path id="i" d="M0 0l.34-1.461A1.5 1.5 0 0 0-1.5 0H0zm0 36.899h-1.5a1.5 1.5 0 0 0 1.757 1.477L0 36.9zm21.85-5.014l.427 1.438a1.5 1.5 0 0 0 1.073-1.438h-1.5zm0-24.766h1.5a1.5 1.5 0 0 0-.728-1.286l-.771 1.286zm-1.703-.902l-.698 1.328a1.5 1.5 0 0 0 .027.013l.67-1.341zM-1.5 0v36.899h3V0h-3zM.257 38.377c9.275-1.615 16.576-3.44 22.02-5.054l-.853-2.876c-5.381 1.596-12.513 3.38-21.681 4.974l.514 2.956zm23.093-6.492V7.12h-3v24.766h3zm-.728-26.052c-.55-.33-1.203-.657-1.804-.958l-1.342 2.683c.6.301 1.151.575 1.603.847l1.543-2.572zm-1.778-.944C16.636 2.679 8.928.537.34-1.461l-.68 2.922C8.312 3.474 15.64 5.543 19.45 7.545l1.394-2.656z"/><path id="j" d="M0 0v86.1c0 22.9 42.7 28 52.7 28s30.2-5.1 30.2-28V0H0z"/><path id="k" d="M82.9 0h1.5v-1.5h-1.5V0zM-1.5 0v86.1h3V0h-3zm0 86.1c0 6.255 2.937 11.25 7.331 15.157 4.319 3.822 10.228 6.746 16.277 8.848 12.097 4.185 25.52 5.493 30.592 5.495v-3c-4.928.002-17.855-1.24-29.608-5.33-5.876-2.035-11.267-4.68-15.267-8.255C3.9 95.525 1.5 91.295 1.5 86.1h-3zm54.2 29.5c5.125-.005 13.098-1.379 19.673-5.659 6.701-4.4 12.027-11.86 12.027-23.841h-3c0 10.92-4.774 17.459-10.673 21.334-6.025 3.995-13.152 5.171-18.027 5.166v3zm31.7-29.5V0h-3v86.1h3zM82.9-1.5H0v3h82.9v-3z"/><path id="l" d="M7.8.1C3.5.1 0 3.6 0 7.9s3.5 7.8 7.8 7.8h4.4V0H7.8v.1z"/><path id="m" d="M13.7 18.6H9.3C4.2 18.6 0 14.4 0 9.3 0 4.2 4.2 0 9.3 0h4.4v3H9.3C5.8 3 3 5.8 3 9.3s2.8 6.3 6.3 6.3h4.4v3z"/><path id="n" d="M55.6 28.703c-4.5 0-5.7 6.5-8.6 7.2-15.4 3.8-38.6 5.2-38.6-14.6v-12.5c0-9.2-8.4-8.8-8.4-8.8v33.5c0 22.9 42.7 28 52.7 28s30.2-5.1 30.2-28v-2.6c-3.8 6.5-9.7 8.8-18.9 5.5-2.6-1.1-3.9-7.7-8.4-7.7z"/><path id="o" d="M47 35.903l-.352-1.459-.007.002.359 1.457zM0 .003l-.071-1.499A1.5 1.5 0 0 0-1.5.003H0zm82.9 30.9h1.5a1.5 1.5 0 0 0-2.795-.758l1.295.758zm-18.9 5.5l-.584 1.381c.025.01.051.021.078.03L64 36.404zm-8.4-9.2c-3.08 0-4.907 2.268-6.12 3.964-.634.888-1.165 1.72-1.697 2.354-.536.643-.894.865-1.135.923l.704 2.917c1.209-.292 2.089-1.144 2.734-1.918.649-.782 1.243-1.706 1.834-2.53 1.237-1.73 2.26-2.71 3.68-2.71v-3zm-8.96 7.243c-7.63 1.883-17.012 3.118-24.402 1.54-3.673-.785-6.735-2.24-8.875-4.537C11.25 29.179 9.9 25.94 9.9 21.303h-3c0 5.262 1.552 9.274 4.268 12.19 2.692 2.89 6.392 4.561 10.444 5.426 8.06 1.722 17.978.357 25.747-1.56l-.718-2.913zM9.9 21.303V16.14 8.803h-3v12.5h3zm0-12.5C9.9 3.62 7.466.908 4.87-.39a11.528 11.528 0 0 0-3.357-1.014c-.448-.06-.853-.085-1.106-.093a8.695 8.695 0 0 0-.47 0h-.005-.002L0 .003.07 1.5H.069a.191.191 0 0 1-.005 0h.047a7.175 7.175 0 0 1 1 .07c.723.095 1.534.27 2.418.723C5.134 3.097 6.9 4.786 6.9 8.803h3zM-1.5.003v33.5h3V.003h-3zm0 33.5c0 6.255 2.937 11.249 7.331 15.156 4.319 3.822 10.228 6.746 16.277 8.848 12.097 4.186 25.52 5.494 30.592 5.496v-3c-4.928.001-17.855-1.24-29.608-5.33-5.876-2.036-11.267-4.68-15.267-8.256C3.9 42.928 1.5 38.697 1.5 33.503h-3zm54.2 29.5c5.125-.006 13.098-1.38 19.673-5.66 6.701-4.4 12.027-11.86 12.027-23.84h-3c0 10.919-4.774 17.459-10.673 21.333-6.025 3.995-13.152 5.172-18.027 5.167v3zm31.7-29.5v-2.6h-3v2.6h3zm-2.795-3.358c-1.764 3.019-3.924 4.916-6.58 5.752-2.683.843-6.104.677-10.519-.906l-1.012 2.824c4.785 1.716 8.914 2.05 12.431.943 3.544-1.114 6.234-3.617 8.27-7.098l-2.59-1.515zm-17.02 4.876c-.241-.102-.606-.415-1.145-1.163-.519-.716-1.054-1.626-1.686-2.56-1.214-1.789-3.06-4.095-6.154-4.095v3c1.406 0 2.46.993 3.671 2.78.58.853 1.139 1.8 1.736 2.63.576.799 1.35 1.723 2.409 2.171l1.169-2.763z"/><path id="p" d="M99.1 0s-5.6 5-13.6 5h-54C8.6 5 0 18.6 0 41.5v21.6s10.3.7 12-9.2v-5.7c1.1-6 6.3-6.7 8.2-6.8h62.7C102.3 41.5 99.1 0 99.1 0z"/><path id="q" d="M99.1 0l1.496-.115a1.5 1.5 0 0 0-2.495-1.004L99.1 0zM0 63.1h-1.5a1.5 1.5 0 0 0 1.398 1.497L0 63.1zm12-9.2l1.478.254a1.5 1.5 0 0 0 .022-.254H12zm0-5.7l-1.475-.27c-.017.089-.025.18-.025.27H12zm8.2-6.8v-1.5c-.026 0-.053 0-.079.002L20.2 41.4zm62.7 0l.008-1.5H82.9v1.5zM99.1 0c-.999-1.119-.999-1.12-.998-1.12h.001s0-.001 0 0l-.006.004-.035.03a14.639 14.639 0 0 1-.84.65 20.764 20.764 0 0 1-2.615 1.606c-2.314 1.208-5.37 2.353-9.107 2.33v3c4.263-.023 8.007-1.378 10.493-2.67a25.158 25.158 0 0 0 2.984-1.832 19.015 19.015 0 0 0 1.031-.8l.062-.054.019-.016.006-.005.002-.002.001-.001c.001 0 .001-.001-.998-1.12zM85.5 3.5h-54v3h54v-3zm-54 0c-11.758 0-20.13 3.506-25.509 10.225C.668 20.376-1.5 29.91-1.5 41.5h3c0-11.309 2.132-20.026 6.834-25.9C12.98 9.794 20.358 6.5 31.5 6.5v-3zm-33 38v9.3h3v-9.3h-3zm0 9.3v12.3h3V50.8h-3zM0 63.1a141.199 141.199 0 0 0-.1 1.497h.017l.034.003c.024 0 .065.003.112.005.084.002.223.006.384.006.305 0 .78-.014 1.323-.062a16.35 16.35 0 0 0 4.127-.935c3.173-1.21 6.623-3.881 7.581-9.46l-2.956-.508c-.742 4.321-3.292 6.25-5.694 7.165-1.25.485-2.39.667-3.326.75a11.356 11.356 0 0 1-1.394.043h-.01H.1c.001 0 .002 0-.1 1.496zm13.5-9.2v-3.2h-3v3.2h3zm0-3.2v-.2h-3v.2h3zm0-.2v-2.3h-3v2.3h3zm-.025-2.03c.464-2.529 1.744-3.838 3.058-4.574 1.401-.818 2.84-.951 3.746-.998l-.158-2.996c-.994.053-3.105.32-5.054 1.377-2.036 1.14-3.906 3.18-4.542 6.65l2.95.541zM20.2 42.9h.7v-3h-.7v3zm.7 0h62v-3h-62v3zm61.992 0c5.507.028 9.372-2.944 11.995-7.13 2.53-4.07 4.042-9.536 4.87-14.8.823-5.267 1.036-10.568 1.04-14.486.001-1.968-.049-3.622-.099-4.767a74.086 74.086 0 0 0-.093-1.702l-.007-.095-.002-.025v-.007-.002L99.1 0l-1.496.115V.12l.002.02a22.723 22.723 0 0 1 .028.418c.019.3.043.732.067 1.29.05 1.125.098 2.712.096 4.634-.003 3.86-.202 8.928-1.004 14.023-.797 5.099-2.123 9.99-4.449 13.672-2.233 3.567-5.243 5.745-9.436 5.723l-.016 3z"/><path id="r" d="M8.7-1.5H0v3h8.7v-3z"/><path id="s" d="M33.2 11.387c4.1 9.5 16.9 7.4 26.2 3.4 2.8-1.2 5.2-2.6 7.1-3.9-8.7 6.2-19.1-12.3-32.9-10.8h-.7c-13.8-1.5-24.1 17.1-32.9 10.8 1.8 1.3 4.3 2.7 7.1 3.9 9.2 4 22 6 26.1-3.4z"/><path id="t" d="M33.2 11.387l1.377-.595a1.5 1.5 0 0 0-2.752-.005l1.375.6zm26.2 3.4l-.59-1.379h-.003l.593 1.379zm7.1-3.9l.87 1.221a1.5 1.5 0 0 0-1.717-2.46l.847 1.239zM33.6.087v1.5a1.5 1.5 0 0 0 .162-.009L33.6.087zm-.7 0l-.162 1.491a1.5 1.5 0 0 0 .162.009v-1.5zM0 10.887l.873-1.22a1.5 1.5 0 0 0-1.751 2.436L0 10.887zm7.1 3.9l.598-1.376-.007-.003-.591 1.379zm24.723-2.806c2.356 5.46 7.243 7.493 12.477 7.668 5.102.152 10.947-1.447 15.693-3.484l-1.186-2.756c-4.554 1.963-9.759 3.413-14.407 3.241-4.517-.15-8.08-1.818-9.823-5.857l-2.754 1.188zm28.168 4.185a44.073 44.073 0 0 0 7.356-4.041l-1.694-2.476a39.728 39.728 0 0 1-6.844 3.76l1.182 2.757zm5.638-6.5c-1.67 1.19-3.409 1.25-5.507.521-2.241-.766-4.62-2.353-7.319-4.18-5.276-3.57-11.812-8.232-19.365-7.411l.324 2.982C40.01.9 45.573 4.738 51.122 8.492c2.713 1.835 5.428 3.617 8.015 4.529 2.73.949 5.554.997 8.234-.913l-1.742-2.443zM33.6-1.415h-.7v3h.7v-3zm-.538.01c-7.557-.822-14.07 3.87-19.33 7.45-2.694 1.833-5.065 3.421-7.309 4.182-2.095.723-3.849.657-5.55-.56l-1.746 2.439c2.699 1.932 5.532 1.903 8.275.957 2.594-.907 5.31-2.695 8.017-4.537C20.959 4.757 26.495.9 32.738 1.578l.324-2.982zM-.878 12.103c1.871 1.348 4.515 2.83 7.387 4.063l1.182-2.758C4.963 12.241 2.607 10.922.878 9.671l-1.756 2.432zm7.38 4.06c4.7 2.039 10.526 3.614 15.614 3.448 5.216-.188 10.1-2.217 12.459-7.624l-2.75-1.2c-1.741 3.993-5.307 5.664-9.816 5.826-4.637.184-9.811-1.241-14.31-3.202l-1.197 2.752z"/><path id="u" d="M3.2.02c8.5.6 28.1 1.7 30.1 1.8 0 0-3 1.1-4.3 9.7-1.4 9.3-4.9 10.6-8.6 10.3-3.7-.2-13-.9-13-.9s-6.4-.3-7-9.3c-.3-4.7-.4-7.5-.4-9.2C0 .12 1.8-.08 3.2.02z"/><path id="v" d="M3.2.02l-.107 1.496h.001L3.2.02zm30.1 1.8l.516 1.408a1.5 1.5 0 0 0-.441-2.906L33.3 1.82zm-4.3 9.7l-1.483-.224L29 11.52zm-8.6 10.3l.121-1.495a1.356 1.356 0 0 0-.04-.003L20.4 21.82zm-13-.9l.113-1.496a1.198 1.198 0 0 0-.043-.002L7.4 20.92zm-7-9.3l-1.497.096v.004l1.497-.1zM0 2.42h1.5H0zm3.094-.904c8.511.6 28.127 1.702 30.131 1.802l.15-2.996c-1.995-.1-21.58-1.2-30.07-1.798l-.21 2.992zM33.3 1.82C32.784.412 32.782.412 32.78.413l-.003.001-.007.003-.015.005a2.979 2.979 0 0 0-.111.047c-.04.019-.126.06-.203.103-.119.067-.343.209-.558.376-.363.289-.94.86-1.488 1.657-1.072 1.586-2.205 4.24-2.878 8.69l2.966.45c.627-4.15 1.644-6.346 2.397-7.46.365-.554.62-.794.859-.98.086-.07.107-.082.157-.11l-.008.004a12.39 12.39 0 0 0-.047.02l-.012.005-.006.002a.078.078 0 0 1-.003.001c-.002 0-.004.001-.52-1.407zm-5.783 9.477c-.683 4.534-1.838 6.783-2.993 7.89-1.076 1.032-2.368 1.27-4.003 1.138l-.242 2.99c2.065.167 4.373-.094 6.322-1.962 1.87-1.794 3.165-4.844 3.882-9.61l-2.966-.446zm-7.036 9.025c-1.839-.1-5.076-.323-7.861-.523a1676.828 1676.828 0 0 1-4.701-.344l-.301-.023-.079-.006a1.79 1.79 0 0 0-.02-.001h-.005-.001L7.4 20.92l-.112 1.496h.006l.02.002.08.006.301.022a1260.77 1260.77 0 0 0 4.71.345c2.79.2 6.053.426 7.914.527l.162-2.996zM7.4 20.92a110.604 110.604 0 0 1 .074-1.498h.003a.13.13 0 0 0 .009 0l-.018-.001a3.954 3.954 0 0 1-.677-.134 5.109 5.109 0 0 1-1.792-.861c-1.273-.912-2.829-2.805-3.102-6.906l-2.994.2c.327 4.9 2.271 7.656 4.348 9.144a9.45 9.45 0 0 0 2.74 1.314c.367.1.711.165.916.196a6.404 6.404 0 0 0 .37.041l.032.002h.011l.005.001h.003s.002 0 .072-1.498zm-5.503-9.396C1.598 6.845 1.5 4.094 1.5 2.42h-3c0 1.727.102 4.574.403 9.296l2.994-.192zM1.5 2.42c0-.38.074-.559.112-.627.05-.131 0-.074.155-.142.236-.123.677-.181 1.326-.135l.214-2.992c-.751-.054-1.91-.062-2.924.465C-.81-.39-1.5.796-1.5 2.42h3z"/><path id="w" d="M0 .7c3.8.3 4.3.8 3.1 6.8L7.6 0 0 .7z"/><path id="y" d="M0 .7l-.092-.996.013 1.993L0 .7zm3.1 6.8l-.98-.196 1.837.71L3.1 7.5zM7.6 0l.857.514 1.015-1.69-1.964.18L7.6 0zM-.079 1.697c.931.073 1.559.142 2.026.3.39.126.51.262.581.408.105.213.19.628.13 1.474-.057.847-.242 1.94-.539 3.425l1.962.392c.303-1.515.506-2.735.573-3.678.066-.945.013-1.798-.332-2.498C3.944.754 3.302.333 2.565.094 1.908-.114 1.048-.22.08-.296L-.08 1.696zm4.036 6.317l4.5-7.5L6.743-.515l-4.5 7.5 1.715 1.03zm3.551-9.01l-7.6.7.184 1.992 7.6-.7-.184-1.992z"/><path id="z" d="M5.4-1.5H0v3h5.4v-3z"/><path id="A" d="M30.1.02C21.6.62 2 1.72 0 1.82c0 0 3 1.1 4.3 9.7 1.4 9.3 4.9 10.6 8.6 10.3 3.7-.2 13-.9 13-.9s6.4-.3 7-9.3c.3-4.7.4-7.5.4-9.2-.1-2.3-1.9-2.5-3.2-2.4z"/><path id="B" d="M30.1.02l.106 1.496h.009L30.1.02zM0 1.82L-.075.322a1.5 1.5 0 0 0-.441 2.906L0 1.82zm4.3 9.7l1.483-.223v-.001L4.3 11.52zm8.6 10.3l-.081-1.498-.04.003.121 1.495zm13-.9l-.07-1.498a1.19 1.19 0 0 0-.043.002l.113 1.496zm7-9.3l1.497.1v-.005L32.9 11.62zm.4-9.2h1.5l-.001-.065-1.499.065zm-3.306-3.896C21.505-.877 1.921.222-.075.322l.15 2.996c2.004-.1 21.62-1.201 30.13-1.802l-.21-2.992zM0 1.82c-.516 1.408-.518 1.408-.52 1.407l-.003-.001a2.314 2.314 0 0 1-.065-.027c-.005-.002-.015-.008-.008-.003.05.027.07.038.157.109.24.186.494.426.859.98.753 1.114 1.77 3.31 2.397 7.46l2.966-.45c-.673-4.45-1.806-7.104-2.878-8.69C2.358 1.809 1.78 1.237 1.417.948A5.015 5.015 0 0 0 .86.572 3.791 3.791 0 0 0 .578.435 2.928 2.928 0 0 0 .52.413C.518.413.516.412 0 1.82zm2.817 9.923c.717 4.766 2.012 7.816 3.882 9.61 1.949 1.868 4.257 2.13 6.322 1.962l-.242-2.99c-1.635.132-2.927-.106-4.003-1.138-1.155-1.107-2.31-3.356-2.993-7.89l-2.966.446zM12.98 23.318c1.861-.1 5.124-.327 7.914-.527a1673.091 1673.091 0 0 0 4.71-.345l.302-.022.079-.006.02-.002h.006L25.9 20.92l-.113-1.496h-.006l-.02.002-.078.006-.302.023a1436.747 1436.747 0 0 1-4.7.344c-2.787.2-6.023.424-7.862.523l.162 2.996zM25.9 20.92c.07 1.498.071 1.498.072 1.498h.019l.031-.003a5.595 5.595 0 0 0 .371-.041c.205-.03.55-.096.917-.196a9.45 9.45 0 0 0 2.739-1.314c2.077-1.488 4.021-4.245 4.348-9.144l-2.994-.2c-.273 4.1-1.829 5.994-3.102 6.906-.678.5-1.255.714-1.792.86a3.958 3.958 0 0 1-.677.135l-.018.001a.084.084 0 0 1 .009 0h.005s.002 0 .072 1.498zm8.497-9.205c.301-4.72.403-7.568.403-9.295h-3c0 1.673-.098 4.425-.397 9.104l2.994.192zm.402-9.36c-.07-1.616-.797-2.763-1.957-3.366-1.009-.525-2.135-.52-2.857-.465l.23 2.992c.578-.045 1.002.01 1.243.135.163.073.13.033.194.178.051.085.133.275.15.656l2.997-.13z"/><path id="C" d="M7.6.7c-3.8.3-4.3.8-3.1 6.8L0 0l7.6.7z"/><path id="E" d="M7.6.7l.079.997.013-1.993L7.6.7zM4.5 7.5l-.857.514 1.838-.71L4.5 7.5zM0 0l.092-.996-1.964-.18L-.857.513 0 0zm7.521-.297c-.969.077-1.829.183-2.486.391-.736.24-1.379.66-1.757 1.426-.345.7-.398 1.553-.332 2.498.067.943.27 2.163.573 3.678l1.962-.392c-.297-1.485-.482-2.578-.54-3.425-.059-.846.026-1.261.13-1.474.073-.146.193-.282.582-.409.467-.157 1.095-.226 2.026-.3L7.52-.296zM5.357 6.985l-4.5-7.5L-.857.515l4.5 7.5 1.714-1.03zM-.092.995l7.6.7.184-1.99-7.6-.7-.184 1.99z"/><path id="F" d="M0 21.6h6.6c3 0 5.4-2.4 5.4-5.4 0-3-2.4-5.4-5.4-5.4H4L2 0"/><path id="G" d="M0 20.1a1.5 1.5 0 0 0 0 3v-3zm4-9.3l-1.475.273A1.5 1.5 0 0 0 4 12.3v-1.5zM3.475-.273a1.5 1.5 0 1 0-2.95.546l2.95-.546zM0 23.1h6.6v-3H0v3zm6.6 0c3.828 0 6.9-3.072 6.9-6.9h-3c0 2.172-1.728 3.9-3.9 3.9v3zm6.9-6.9c0-3.828-3.072-6.9-6.9-6.9v3c2.172 0 3.9 1.728 3.9 3.9h3zM6.6 9.3H4v3h2.6v-3zm-1.125 1.227l-2-10.8-2.95.546 2 10.8 2.95-.546z"/><path id="H" d="M0 3.2c0 1.7 1.4 3.2 3.2 3.2 1.7 0 3.2-1.4 3.2-3.2C6.4 1.5 5 0 3.2 0 1.4.1 0 1.5 0 3.2z"/><path id="I" d="M3.2 0v-1.5c-.028 0-.056 0-.083.002L3.2 0zm-4.7 3.2c0 2.498 2.041 4.7 4.7 4.7v-3c-.941 0-1.7-.798-1.7-1.7h-3zm4.7 4.7c2.498 0 4.7-2.041 4.7-4.7h-3c0 .941-.798 1.7-1.7 1.7v3zm4.7-4.7c0-2.498-2.041-4.7-4.7-4.7v3c.941 0 1.7.798 1.7 1.7h3zM3.117-1.498C.599-1.358-1.5.63-1.5 3.2h3c0-.829.7-1.642 1.783-1.702l-.166-2.996z"/><path id="J" d="M17.2 1.244c-9.5-2.8-17.2 0-17.2 0z"/><path id="K" d="M16.776 2.683a1.5 1.5 0 1 0 .848-2.877l-.848 2.877zM-.513-.165a1.5 1.5 0 1 0 1.026 2.82L-.513-.166zm18.137-.03C12.664-1.64 8.066-1.652 4.87-1.295a30.336 30.336 0 0 0-3.884.692 21.407 21.407 0 0 0-1.377.396 8.288 8.288 0 0 0-.116.04l-.003.002h-.002L0 1.244l.512 1.41H.51v.001c-.001 0-.001 0 0 0a.966.966 0 0 1 .058-.02 17.026 17.026 0 0 1 1.149-.33c.84-.211 2-.454 3.487-.62 3.029-.343 7.03-.356 11.57.998l.85-2.877z"/><path id="L" d="M6.4 3.2c0 1.7-1.4 3.2-3.2 3.2C1.5 6.4 0 5 0 3.2 0 1.5 1.4 0 3.2 0 5 .1 6.4 1.5 6.4 3.2z"/><path id="M" d="M3.2 0l.083-1.498A1.5 1.5 0 0 0 3.2-1.5V0zm1.7 3.2c0 .902-.759 1.7-1.7 1.7v3c2.659 0 4.7-2.202 4.7-4.7h-3zM3.2 4.9c-.902 0-1.7-.759-1.7-1.7h-3c0 2.659 2.202 4.7 4.7 4.7v-3zM1.5 3.2c0-.902.759-1.7 1.7-1.7v-3C.541-1.5-1.5.702-1.5 3.2h3zm1.617-1.702C4.199 1.558 4.9 2.37 4.9 3.2h3c0-2.571-2.1-4.558-4.617-4.698l-.166 2.996z"/><path id="N" d="M0 1.244c9.5-2.8 17.2 0 17.2 0z"/><path id="O" d="M-.424-.194a1.5 1.5 0 1 0 .848 2.877L-.424-.194zm17.111 2.848a1.5 1.5 0 1 0 1.026-2.82l-1.026 2.82zm-16.263.03c4.54-1.355 8.542-1.342 11.57-.999 1.488.166 2.648.409 3.489.62a17.03 17.03 0 0 1 1.198.347l.009.003h-.001c-.001 0-.002 0 .511-1.41l.512-1.41-.002-.001-.003-.001L17.7-.17l-.025-.009a7.882 7.882 0 0 0-.379-.124 21.367 21.367 0 0 0-1.08-.301c-.9-.226-2.26-.508-3.885-.692C9.134-1.653 4.536-1.64-.424-.194l.848 2.877z"/><path id="P" d="M84.507.324a1.25 1.25 0 1 0-2.414-.648l2.414.648zM79 9.1l-.907-.86-.007.007L79 9.1zm-67.9 2.2v-1.25c-.02 0-.042 0-.062.002L11.1 11.3zm-12.156 5.33a1.25 1.25 0 1 0 2.112 1.34l-2.112-1.34zM82.093-.323c-1.084 4.038-2.417 6.893-4 8.564l1.814 1.72c2.017-2.13 3.484-5.474 4.6-9.636l-2.414-.648zm-4.007 8.571C76.918 9.5 75.646 10.05 74 10.05v2.5c2.354 0 4.282-.85 5.914-2.597l-1.828-1.706zM74 10.05H11.2v2.5H74v-2.5zm-62.8 0h-.1v2.5h.1v-2.5zm-.162.002c-4.267.213-9.211 2.033-12.094 6.579l2.112 1.338c2.317-3.654 6.373-5.234 10.106-5.42l-.124-2.497z"/><path id="Q" d="M1.944.124A1.25 1.25 0 1 0-.544-.124l2.488.248zm-3.175 5.259a1.25 1.25 0 0 0 2.462.434l-2.462-.434zm.687-5.507c-.2 1.996-.394 3.85-.687 5.507l2.462.434c.307-1.743.512-3.69.713-5.693L-.544-.124z"/><path id="R" d="M5.713-1.5H0v3h5.713v-3z"/></defs></svg>