<svg width="232" height="231" viewBox="0 0 232 231" version="1.1" xmlns="http://www.w3.org/2000/svg" xmlns:xlink="http://www.w3.org/1999/xlink">
<title>hector</title>
<desc>Created using Figma</desc>
<g id="Canvas" transform="translate(-9889 -3908)">
<g id="hector">
<g id="Group 2">
<g id="Ellipse">
<use xlink:href="#path0_fill" transform="translate(9889 3908)" fill="#FFFFFF"/>
</g>
<g id="Vector">
<use xlink:href="#path1_fill" transform="translate(9917 4055.62)" fill="#FFFFFF"/>
<use xlink:href="#path2_stroke" transform="translate(9917 4055.62)" fill="#333333"/>
</g>
<g id="Vector">
<use xlink:href="#path3_fill" transform="translate(10007.5 4070.87)" fill="#FFFFFF"/>
<use xlink:href="#path4_stroke" transform="translate(10007.5 4070.87)" fill="#333333"/>
</g>
<g id="Vector">
<use xlink:href="#path5_fill" transform="translate(9928.83 4065.65)" fill="#BDBDBD"/>
<use xlink:href="#path6_stroke" transform="translate(9928.83 4065.65)" fill="#333333"/>
</g>
<g id="Vector">
<use xlink:href="#path7_fill" transform="translate(10054.9 4065.45)" fill="#BDBDBD"/>
<use xlink:href="#path8_stroke" transform="translate(10054.9 4065.45)" fill="#333333"/>
</g>
</g>
<g id="Group 2.1">
<g id="Vector">
<use xlink:href="#path9_fill" transform="translate(9961.5 3961.5)" fill="#FFFFFF"/>
<use xlink:href="#path10_stroke" transform="translate(9961.5 3961.5)" fill="#333333"/>
</g>
<g id="Group">
<g id="Vector">
<use xlink:href="#path11_fill" transform="translate(9955.6 3985.3)" fill="#FFFFFF"/>
</g>
<g id="Vector">
<use xlink:href="#path12_fill" transform="translate(9954.1 3983.9)" fill="#333333"/>
</g>
</g>
<g id="Vector">
<use xlink:href="#path13_fill" transform="translate(9961.6 4014.2)" fill="#BDBDBD"/>
<use xlink:href="#path14_stroke" transform="translate(9961.6 4014.2)" fill="#333333"/>
</g>
<g id="Vector">
<use xlink:href="#path15_fill" transform="translate(9961.2 3920)" fill="#BDBDBD"/>
<use xlink:href="#path16_stroke" transform="translate(9961.2 3920)" fill="#333333"/>
</g>
<g id="Vector">
<use xlink:href="#path17_stroke" transform="translate(9970.8 3979.1)" fill="#333333"/>
</g>
<g id="Vector">
<use xlink:href="#path18_fill" transform="translate(9983 4015.31)" fill="#BDBDBD"/>
<use xlink:href="#path19_stroke" transform="translate(9983 4015.31)" fill="#333333"/>
</g>
<g id="Group">
<g id="Vector">
<use xlink:href="#path20_fill" transform="translate(9979.8 3975.28)" fill="#FFFFFF"/>
<use xlink:href="#path21_stroke" transform="translate(9979.8 3975.28)" fill="#333333"/>
</g>
<g id="Vector">
<use xlink:href="#path22_fill" transform="translate(10004.8 3977.1)" fill="#333333"/>
<mask id="mask0_outline_ins">
<use xlink:href="#path22_fill" fill="white" transform="translate(10004.8 3977.1)"/>
</mask>
<g mask="url(#mask0_outline_ins)">
<use xlink:href="#path23_stroke_2x" transform="translate(10004.8 3977.1)" fill="#333333"/>
</g>
</g>
<g id="Group">
<g id="Vector">
<use xlink:href="#path24_stroke" transform="translate(10012.8 3977.1)" fill="#333333"/>
</g>
<g id="Vector">
<use xlink:href="#path25_fill" transform="translate(10017.5 3975.28)" fill="#FFFFFF"/>
<use xlink:href="#path26_stroke" transform="translate(10017.5 3975.28)" fill="#333333"/>
</g>
<g id="Vector">
<use xlink:href="#path27_fill" transform="translate(10018.2 3977.1)" fill="#333333"/>
<mask id="mask1_outline_ins">
<use xlink:href="#path27_fill" fill="white" transform="translate(10018.2 3977.1)"/>
</mask>
<g mask="url(#mask1_outline_ins)">
<use xlink:href="#path28_stroke_2x" transform="translate(10018.2 3977.1)" fill="#333333"/>
</g>
</g>
</g>
</g>
<g id="Vector">
<use xlink:href="#path29_fill" transform="translate(10014.9 3989.7)" fill="#FFFFFF"/>
<use xlink:href="#path30_stroke" transform="translate(10014.9 3989.7)" fill="#333333"/>
</g>
<g id="Vector">
<use xlink:href="#path31_fill" transform="translate(10031.8 3982.2)" fill="#FFFFFF"/>
<use xlink:href="#path32_stroke" transform="translate(10031.8 3982.2)" fill="#333333"/>
</g>
<g id="Vector">
<use xlink:href="#path33_fill" transform="translate(10026.7 3981.06)" fill="#FFFFFF"/>
<use xlink:href="#path34_stroke" transform="translate(10026.7 3981.06)" fill="#333333"/>
</g>
<g id="Vector">
<use xlink:href="#path35_fill" transform="translate(9990.4 3982.2)" fill="#FFFFFF"/>
<use xlink:href="#path36_stroke" transform="translate(9990.4 3982.2)" fill="#333333"/>
</g>
<g id="Vector">
<use xlink:href="#path37_fill" transform="translate(9985.8 3981.06)" fill="#FFFFFF"/>
<use xlink:href="#path38_stroke" transform="translate(9985.8 3981.06)" fill="#333333"/>
</g>
<g id="Group">
<g id="Vector">
<use xlink:href="#path39_stroke" transform="translate(9970.2 3945.1)" fill="#333333"/>
</g>
<g id="Vector">
<use xlink:href="#path40_stroke" transform="translate(10054.5 3934.7)" fill="#333333"/>
</g>
</g>
</g>
<g id="Vector">
<use xlink:href="#path41_stroke" transform="translate(10045.2 3979.26)" fill="#333333"/>
</g>
</g>
</g>
<defs>
<path id="path0_fill" d="M 231.045 115.5C 231.045 179.289 179.324 231 115.523 231C 51.7213 231 0 179.289 0 115.5C 0 51.7111 51.7213 0 115.523 0C 179.324 0 231.045 51.7111 231.045 115.5Z"/>
<path id="path1_fill" d="M 86.1993 -1.22398e-05C 86.1993 -1.22398e-05 143.432 8.82359 158.065 16.0429C 172.699 23.2622 173 36.4976 173 36.4976C 173 36.4976 148.343 50.6354 86.5 50.6354C 24.657 50.6354 -2.38971e-08 36.4976 -2.38971e-08 36.4976C -2.38971e-08 36.4976 0.300694 23.2622 14.9345 16.0429C 29.6686 8.82359 86.1993 -1.22398e-05 86.1993 -1.22398e-05Z"/>
<path id="path2_stroke" d="M 86.1993 -1.22398e-05L 86.4279 -1.4825C 86.2755 -1.50599 86.1203 -1.50585 85.968 -1.48207L 86.1993 -1.22398e-05ZM 173 36.4976L 173.746 37.7989C 174.223 37.5255 174.512 37.0131 174.5 36.4636L 173 36.4976ZM -2.38971e-08 36.4976L -1.49961 36.4636C -1.5121 37.0131 -1.22299 37.5255 -0.74612 37.7989L -2.38971e-08 36.4976ZM 14.9345 16.0429L 14.2745 14.6959L 14.2709 14.6977L 14.9345 16.0429ZM 86.1993 -1.22398e-05C 85.9707 1.48247 85.9709 1.4825 85.9713 1.48255C 85.9717 1.48262 85.9723 1.48271 85.9731 1.48284C 85.9748 1.4831 85.9773 1.48348 85.9807 1.48401C 85.9875 1.48507 85.9977 1.48663 86.0113 1.48874C 86.0387 1.49298 86.0793 1.49929 86.1334 1.50769C 86.2417 1.52455 86.4023 1.5496 86.6129 1.58268C 87.0349 1.64895 87.6545 1.7469 88.4497 1.87433C 90.0415 2.12942 92.3287 2.50138 95.1219 2.97074C 100.711 3.90996 108.305 5.23539 116.361 6.78713C 124.418 8.33904 132.905 10.1105 140.301 11.9464C 147.73 13.7901 153.905 15.6632 157.402 17.3881L 158.729 14.6977C 154.909 12.8129 148.442 10.8759 141.024 9.03472C 133.573 7.18577 125.008 5.39768 116.928 3.84128C 108.847 2.2847 101.218 0.953024 95.6191 0.0122159C 92.8181 -0.45844 90.5197 -0.832229 88.9244 -1.08787C 88.1261 -1.21581 87.5018 -1.31449 87.0783 -1.381C 86.8662 -1.4143 86.7036 -1.43968 86.5945 -1.45665C 86.5398 -1.46516 86.4981 -1.47163 86.4704 -1.47592C 86.4564 -1.47808 86.4458 -1.47973 86.4388 -1.48081C 86.4352 -1.48136 86.4325 -1.48178 86.4307 -1.48206C 86.4298 -1.4822 86.4291 -1.48231 86.4286 -1.48238C 86.4281 -1.48245 86.4279 -1.4825 86.1993 -1.22398e-05ZM 157.402 17.3881C 164.366 20.8238 167.872 25.6562 169.654 29.5956C 170.559 31.5849 171.004 33.2941 171.251 34.5964C 171.371 35.2276 171.431 35.7059 171.466 36.061C 171.482 36.2292 171.49 36.3456 171.496 36.4349C 171.498 36.475 171.499 36.4989 171.5 36.5197C 171.5 36.5279 171.5 36.5308 171.5 36.535C 171.5 36.5361 171.5 36.5363 171.5 36.5357C 171.5 36.536 171.5 36.5342 171.5 36.5343C 171.5 36.534 171.5 36.5333 171.5 36.5332C 171.5 36.5325 171.5 36.5317 173 36.4976C 174.5 36.4636 174.5 36.4627 174.5 36.4618C 174.5 36.4615 174.5 36.4605 174.5 36.4598C 174.499 36.4588 174.499 36.4566 174.499 36.4547C 174.499 36.452 174.499 36.4464 174.499 36.441C 174.499 36.4324 174.498 36.4163 174.497 36.3992C 174.496 36.3694 174.494 36.3182 174.49 36.2596C 174.484 36.1515 174.472 35.9765 174.451 35.7687C 174.412 35.3717 174.334 34.7596 174.198 34.0372C 173.931 32.6322 173.386 30.5814 172.387 28.3595C 170.36 23.8763 166.399 18.4813 158.729 14.6977L 157.402 17.3881ZM 173 36.4976C 172.254 35.1964 172.254 35.196 172.255 35.1957C 172.255 35.1957 172.255 35.1955 172.256 35.1954C 172.256 35.1953 172.255 35.1955 172.255 35.1958C 172.253 35.197 172.251 35.198 172.247 35.2004C 172.237 35.2061 172.224 35.2132 172.203 35.2245C 172.159 35.2492 172.097 35.2828 172.006 35.3306C 171.818 35.4302 171.546 35.5704 171.164 35.7562C 170.384 36.1354 169.226 36.6665 167.619 37.3161C 164.373 38.6291 159.454 40.3637 152.571 42.1128C 138.74 45.6326 117.3 49.1404 86.5 49.1354L 86.5 52.1354C 117.543 52.1305 139.353 48.5694 153.311 45.0202C 160.323 43.235 165.434 41.4351 168.743 40.0973C 170.414 39.4214 171.665 38.8481 172.476 38.4541C 172.888 38.2533 173.206 38.0898 173.41 37.9822C 173.515 37.9265 173.599 37.8807 173.651 37.8519C 173.679 37.8365 173.703 37.8233 173.717 37.8154C 173.725 37.811 173.732 37.8069 173.736 37.8046C 173.739 37.8033 173.741 37.8018 173.742 37.8011C 173.743 37.8007 173.744 37.8001 173.744 37.7999C 173.745 37.7994 173.746 37.7989 173 36.4976ZM 86.5 49.1354C 55.6999 49.1404 34.2597 45.6326 20.4287 42.1128C 13.5462 40.3637 8.62741 38.6291 5.38125 37.3161C 3.77384 36.6665 2.61582 36.1354 1.83622 35.7562C 1.45402 35.5704 1.18172 35.4302 0.993558 35.3306C 0.903213 35.2828 0.841413 35.2492 0.796592 35.2245C 0.776031 35.2132 0.763429 35.2061 0.753189 35.2004C 0.748989 35.198 0.747226 35.197 0.745131 35.1958C 0.744542 35.1955 0.744203 35.1953 0.744497 35.1954C 0.744579 35.1955 0.744985 35.1957 0.745027 35.1957C 0.745526 35.196 0.74612 35.1964 -2.38971e-08 36.4976C -0.74612 37.7989 -0.745338 37.7994 -0.744462 37.7999C -0.744045 37.8001 -0.743074 37.8007 -0.742238 37.8011C -0.741025 37.8018 -0.738517 37.8033 -0.736089 37.8046C -0.732153 37.8069 -0.724863 37.811 -0.716974 37.8154C -0.70304 37.8233 -0.679333 37.8365 -0.651353 37.8519C -0.599093 37.8807 -0.514888 37.9265 -0.409542 37.9822C -0.206316 38.0898 0.111516 38.2533 0.524313 38.4541C 1.33472 38.8481 2.58617 39.4214 4.25666 40.0973C 7.56628 41.4351 12.677 43.235 19.6891 45.0202C 33.6473 48.5694 55.4571 52.1305 86.5 52.1354L 86.5 49.1354ZM -2.38971e-08 36.4976C 1.49961 36.5317 1.4996 36.5325 1.49958 36.5332C 1.49958 36.5333 1.49956 36.534 1.49955 36.5343C 1.49955 36.5342 1.49951 36.536 1.49951 36.5357C 1.4995 36.5363 1.4995 36.5361 1.49954 36.535C 1.49967 36.5308 1.49976 36.5279 1.5001 36.5197C 1.50093 36.4989 1.50201 36.475 1.50439 36.4349C 1.50958 36.3456 1.51777 36.2292 1.53437 36.061C 1.56897 35.7059 1.62886 35.2276 1.74934 34.5964C 1.99552 33.2941 2.44098 31.5849 3.34632 29.5956C 5.12776 25.6562 8.63393 20.8238 15.5982 17.3881L 14.2709 14.6977C 6.60129 18.4813 2.6402 23.8763 0.61283 28.3594C -0.386233 30.5814 -0.930557 32.6322 -1.19807 34.0372C -1.33442 34.7596 -1.41235 35.3717 -1.45136 35.7687C -1.47157 35.9765 -1.48413 36.1515 -1.49049 36.2596C -1.49389 36.3182 -1.49628 36.3694 -1.49748 36.3992C -1.49816 36.4163 -1.49872 36.4324 -1.49899 36.441C -1.49916 36.4464 -1.49932 36.452 -1.49939 36.4547C -1.49944 36.4566 -1.4995 36.4588 -1.49952 36.4598C -1.49954 36.4605 -1.49956 36.4615 -1.49957 36.4618C -1.49959 36.4627 -1.49961 36.4636 -2.38971e-08 36.4976ZM 15.5945 17.3899C 19.1197 15.6627 25.2741 13.7891 32.6493 11.9458C 39.9938 10.1099 48.4028 8.33849 56.3787 6.78659C 64.353 5.23488 71.8622 3.90948 77.3875 2.97026C 80.1486 2.50091 82.4088 2.12897 83.9816 1.87388C 84.7673 1.74645 85.3794 1.64851 85.7963 1.58224C 86.0044 1.54916 86.163 1.52412 86.27 1.50726C 86.3234 1.49885 86.3635 1.49255 86.3906 1.48831C 86.404 1.4862 86.414 1.48464 86.4208 1.48358C 86.4242 1.48305 86.4266 1.48267 86.4283 1.48241C 86.4291 1.48228 86.4297 1.48219 86.4301 1.48212C 86.4305 1.48207 86.4306 1.48204 86.1993 -1.22398e-05C 85.968 -1.48207 85.9677 -1.48202 85.9672 -1.48195C 85.9668 -1.48188 85.966 -1.48177 85.9651 -1.48163C 85.9634 -1.48135 85.9607 -1.48093 85.9572 -1.48038C 85.9502 -1.47929 85.9397 -1.47765 85.9259 -1.47549C 85.8986 -1.47119 85.8574 -1.46473 85.8033 -1.45622C 85.6956 -1.43925 85.5349 -1.41387 85.3254 -1.38056C 84.907 -1.31405 84.2902 -1.21537 83.5013 -1.08743C 81.9251 -0.831775 79.6537 -0.457975 76.8848 0.0126901C 71.3501 0.953508 63.8058 2.28521 55.8057 3.84182C 47.8071 5.39823 39.3208 7.18636 31.9219 9.03531C 24.5536 10.8769 18.1164 12.8135 14.2745 14.6959L 15.5945 17.3899Z"/>
<path id="path3_fill" d="M -3.05883e-06 0C 3.70857 0 2.30533 22.3598 2.30533 34.7931Z"/>
<path id="path4_stroke" d="M -3.05883e-06 1.5C -0.426894 1.5 -0.426853 1.15579 -0.178908 1.6537C 0.0781739 2.15351 0.264766 2.86483 0.446038 3.93975C 0.824014 6.14517 0.987913 9.21439 1.04357 12.7577C 1.15625 19.8598 0.805635 28.5462 0.80533 34.7931L 3.80533 34.7931C 3.80503 28.6067 4.15603 19.8966 4.04319 12.7104C 3.98608 9.10964 3.80544 5.81182 3.40348 3.43624C 3.19479 2.22065 2.88257 1.08798 2.50655 0.316418C 2.12139 -0.457042 1.35403 -1.5 -3.05883e-06 -1.5L -3.05883e-06 1.5Z"/>
<path id="path5_fill" d="M -1.91177e-07 7.82093L -1.91177e-07 31.0831C 5.31228 32.7877 12.529 34.6928 21.8505 36.2971L 21.8505 -1.22398e-05C 13.9322 1.90508 7.11645 4.01074 3.20742 5.91584C 2.10487 6.51745 1.00232 7.21932 -1.91177e-07 7.82093Z"/>
<path id="path6_stroke" d="M -1.91177e-07 7.82093L -0.77195 6.53481C -1.22364 6.80592 -1.5 7.29412 -1.5 7.82093L -1.91177e-07 7.82093ZM -1.91177e-07 31.0831L -1.5 31.0831C -1.5 31.735 -1.07899 32.3122 -0.458293 32.5114L -1.91177e-07 31.0831ZM 21.8505 36.2971L 21.5961 37.7754C 22.032 37.8504 22.4788 37.7292 22.8171 37.4442C 23.1553 37.1592 23.3505 36.7394 23.3505 36.2971L 21.8505 36.2971ZM 21.8505 -1.22398e-05L 23.3505 -1.22398e-05C 23.3505 -0.459579 23.1398 -0.893786 22.7789 -1.17821C 22.4179 -1.46264 21.9465 -1.5659 21.4996 -1.4584L 21.8505 -1.22398e-05ZM 3.20742 5.91584L 2.55027 4.56745C 2.52958 4.57753 2.50913 4.58808 2.48894 4.5991L 3.20742 5.91584ZM -1.5 7.82093L -1.5 31.0831L 1.5 31.0831L 1.5 7.82093L -1.5 7.82093ZM -0.458293 32.5114C 4.89156 34.2275 12.21 36.1585 21.5961 37.7754L 22.1049 34.8188C 12.8479 33.2271 5.733 31.3479 0.458292 29.6549L -0.458293 32.5114ZM 23.3505 36.2971L 23.3505 -1.22398e-05L 20.3505 -1.22398e-05L 20.3505 36.2971L 23.3505 36.2971ZM 21.4996 -1.4584C 13.5352 0.458579 6.56487 2.61584 2.55027 4.56745L 3.86456 7.26423C 7.66804 5.40564 14.3292 3.35159 22.2014 1.45837L 21.4996 -1.4584ZM 2.48894 4.5991C 1.34244 5.22567 0.213515 5.94347 -0.77195 6.53481L 0.77195 9.10704C 1.79112 8.49517 2.8673 7.80923 3.92589 7.23257L 2.48894 4.5991Z"/>
<path id="path7_fill" d="M 0 6.11989e-06L 0 36.8987C 9.22132 35.2944 16.438 33.4896 21.8505 31.8853L 21.8505 7.11906C 21.3494 6.81825 20.748 6.51742 20.1466 6.21662C 16.1373 4.11098 8.61993 2.00537 0 6.11989e-06Z"/>
<path id="path8_stroke" d="M 0 6.11989e-06L 0.339888 -1.46098C -0.105796 -1.56466 -0.574433 -1.45924 -0.932783 -1.17469C -1.29113 -0.89014 -1.5 -0.45758 -1.5 6.11989e-06L 0 6.11989e-06ZM 0 36.8987L -1.5 36.8987C -1.5 37.3415 -1.30436 37.7617 -0.965491 38.0467C -0.626618 38.3317 -0.179136 38.4524 0.257103 38.3765L 0 36.8987ZM 21.8505 31.8853L 22.2768 33.3234C 22.9137 33.1347 23.3505 32.5495 23.3505 31.8853L 21.8505 31.8853ZM 21.8505 7.11906L 23.3505 7.11906C 23.3505 6.59225 23.0742 6.10405 22.6225 5.83294L 21.8505 7.11906ZM 20.1466 6.21662L 19.4491 7.54461C 19.4579 7.54921 19.4667 7.55373 19.4756 7.55816L 20.1466 6.21662ZM -1.5 6.11989e-06L -1.5 36.8987L 1.5 36.8987L 1.5 6.11989e-06L -1.5 6.11989e-06ZM 0.257103 38.3765C 9.53204 36.7619 16.8332 34.9366 22.2768 33.3234L 21.4242 30.4471C 16.0428 32.0426 8.9106 33.8269 -0.257103 35.4209L 0.257103 38.3765ZM 23.3505 31.8853L 23.3505 7.11906L 20.3505 7.11906L 20.3505 31.8853L 23.3505 31.8853ZM 22.6225 5.83294C 22.0714 5.50346 21.419 5.17589 20.8176 4.87507L 19.4756 7.55816C 20.0769 7.85895 20.6273 8.13304 21.0786 8.40517L 22.6225 5.83294ZM 20.844 4.88862C 16.6362 2.6787 8.92761 0.536892 0.339888 -1.46098L -0.339888 1.46099C 8.31226 3.47385 15.6385 5.54327 19.4491 7.54461L 20.844 4.88862Z"/>
<path id="path9_fill" d="M 1.52588e-06 1.2207e-05L 1.52588e-06 86.1C 1.52588e-06 109 42.7 114.1 52.7 114.1C 62.7 114.1 82.9 109 82.9 86.1L 82.9 1.2207e-05L 1.52588e-06 1.2207e-05L 1.52588e-06 1.2207e-05Z"/>
<path id="path10_stroke" d="M 82.9 1.2207e-05L 84.4 1.2207e-05L 84.4 -1.49999L 82.9 -1.49999L 82.9 1.2207e-05ZM -1.5 1.2207e-05L -1.5 86.1L 1.5 86.1L 1.5 1.2207e-05L -1.5 1.2207e-05ZM -1.5 86.1C -1.5 92.3549 1.43658 97.3491 5.8314 101.257C 10.15 105.079 16.059 108.003 22.1083 110.105C 34.2047 114.29 47.6277 115.598 52.7 115.6L 52.7 112.6C 47.7723 112.602 34.8453 111.36 23.0917 107.27C 17.216 105.235 11.825 102.59 7.82485 99.015C 3.90092 95.5259 1.5 91.295 1.5 86.1L -1.5 86.1ZM 52.7 115.6C 57.8253 115.595 65.7983 114.221 72.3734 109.941C 79.074 105.541 84.4 98.0806 84.4 86.1L 81.4 86.1C 81.4 97.0194 76.626 103.559 70.7266 107.434C 64.7017 111.429 57.5747 112.605 52.7 112.6L 52.7 115.6ZM 84.4 86.1L 84.4 1.2207e-05L 81.4 1.2207e-05L 81.4 86.1L 84.4 86.1ZM 82.9 -1.49999L 1.52588e-06 -1.49999L 1.52588e-06 1.50001L 82.9 1.50001L 82.9 -1.49999Z"/>
<path id="path11_fill" d="M 7.8 0.100006C 3.5 0.100006 0 3.59999 0 7.89999C 0 12.2 3.5 15.7 7.8 15.7L 12.2 15.7L 12.2 -5.68434e-14L 7.8 -5.68434e-14L 7.8 0.100006Z"/>
<path id="path12_fill" d="M 13.7 18.6L 9.3 18.6C 4.2 18.6 0 14.4 0 9.29999C 0 4.19999 4.2 6.10352e-06 9.3 6.10352e-06L 13.7 6.10352e-06L 13.7 3.00001L 9.3 3.00001C 5.8 3.00001 3 5.79999 3 9.29999C 3 12.8 5.8 15.6 9.3 15.6L 13.7 15.6L 13.7 18.6L 13.7 18.6Z"/>
<path id="path13_fill" d="M 55.6 28.7026C 51.1 28.7026 49.9 35.2025 47 35.9025C 31.6 39.7025 8.4 41.1026 8.4 21.3026C 8.4 15.1026 8.4 17.9026 8.4 8.80257C 8.4 -0.397428 0 0.0025539 0 0.0025539L 0 33.5026C 0 56.4026 42.7 61.5026 52.7 61.5026C 62.7 61.5026 82.9 56.4026 82.9 33.5026L 82.9 30.9025C 79.1 37.4025 73.2 39.7025 64 36.4025C 61.4 35.3025 60.1 28.7026 55.6 28.7026Z"/>
<path id="path14_stroke" d="M 47 35.9025L 46.648 34.4444L 46.6406 34.4462L 47 35.9025ZM 0 0.0025539L -0.0713444 -1.49575C -0.871128 -1.45767 -1.5 -0.798136 -1.5 0.0025539L 0 0.0025539ZM 82.9 30.9025L 84.4 30.9025C 84.4 30.2252 83.946 29.6318 83.2922 29.4547C 82.6383 29.2776 81.9469 29.5607 81.6051 30.1455L 82.9 30.9025ZM 64 36.4025L 63.4155 37.784C 63.4413 37.7949 63.4673 37.805 63.4936 37.8145L 64 36.4025ZM 55.6 27.2026C 52.5195 27.2026 50.6931 29.4715 49.48 31.1674C 48.8456 32.0551 48.3152 32.8876 47.7827 33.5212C 47.2466 34.1636 46.8893 34.3862 46.648 34.4444L 47.352 37.3607C 48.5607 37.0689 49.4409 36.2165 50.0861 35.4433C 50.7348 34.6612 51.3294 33.7375 51.92 32.9128C 53.1569 31.1837 54.1805 30.2026 55.6 30.2026L 55.6 27.2026ZM 46.6406 34.4462C 39.0105 36.329 29.6276 37.5639 22.2383 35.9856C 18.5646 35.201 15.5028 33.7463 13.3633 31.449C 11.2485 29.1782 9.9 25.9401 9.9 21.3026L 6.9 21.3026C 6.9 26.5651 8.45153 30.5769 11.1679 33.4936C 13.8597 36.3839 17.5604 38.0541 21.6117 38.9195C 29.6724 40.6412 39.5895 39.2761 47.3594 37.3589L 46.6406 34.4462ZM 9.9 21.3026C 9.9 18.2026 9.9 17.3526 9.9 16.1401C 9.9 14.9276 9.9 13.3526 9.9 8.80257L 6.9 8.80257C 6.9 13.3526 6.9 14.9276 6.9 16.1401C 6.9 17.3526 6.9 18.2026 6.9 21.3026L 9.9 21.3026ZM 9.9 8.80257C 9.9 3.61953 7.46554 0.908289 4.87082 -0.389077C 3.65454 -0.985039 2.36601 -1.28617 1.51307 -1.40272C 1.06547 -1.46213 0.659925 -1.48803 0.406838 -1.49596C 0.270671 -1.49998 0.149153 -1.50036 0.0776736 -1.4996C 0.0373921 -1.49912 -0.000314083 -1.49825 -0.0208107 -1.49764C -0.0332606 -1.49726 -0.0460022 -1.49681 -0.0522543 -1.49657C -0.0564637 -1.4964 -0.0612627 -1.4962 -0.0633664 -1.49611C -0.0649556 -1.49604 -0.0669567 -1.49595 -0.06775 -1.49592C -0.0684143 -1.49589 -0.0693145 -1.49584 -0.0696462 -1.49583C -0.0705113 -1.49579 -0.0713444 -1.49575 0 0.0025539C 0.0713444 1.50086 0.0705754 1.50089 0.0698383 1.50093C 0.0696345 1.50094 0.068926 1.50097 0.0685171 1.50099C 0.0687998 1.50098 0.0658547 1.50111 0.0664266 1.50108C 0.0664955 1.50108 0.0642589 1.50117 0.0644308 1.50116C 0.0626079 1.50124 0.0655604 1.50111 0.0690041 1.50101C 0.0802946 1.50067 0.0897563 1.50042 0.110998 1.50022C 0.162566 1.49961 0.221516 1.49962 0.315037 1.50263C 0.521325 1.50877 0.772029 1.52349 1.11193 1.57034C 1.83399 1.66628 2.64546 1.84016 3.52918 2.2942C 5.13446 3.09685 6.9 4.78562 6.9 8.80257L 9.9 8.80257ZM -1.5 0.0025539L -1.5 33.5026L 1.5 33.5026L 1.5 0.0025539L -1.5 0.0025539ZM -1.5 33.5026C -1.5 39.7575 1.43658 44.7517 5.8314 48.6594C 10.15 52.4814 16.059 55.4053 22.1083 57.5072C 34.2047 61.6929 47.6277 63.0008 52.7 63.0026L 52.7 60.0026C 47.7723 60.0043 34.8453 58.7622 23.0917 54.6729C 17.216 52.6373 11.825 49.9925 7.82485 46.4175C 3.90092 42.9284 1.5 38.6976 1.5 33.5026L -1.5 33.5026ZM 52.7 63.0026C 57.8253 62.9973 65.7983 61.6238 72.3734 57.3438C 79.074 52.9432 84.4 45.4831 84.4 33.5026L 81.4 33.5026C 81.4 44.422 76.626 50.9619 70.7266 54.8363C 64.7017 58.8314 57.5747 60.0078 52.7 60.0026L 52.7 63.0026ZM 84.4 33.5026L 84.4 30.9025L 81.4 30.9025L 81.4 33.5026L 84.4 33.5026ZM 81.6051 30.1455C 79.8405 33.1638 77.681 35.0613 75.025 35.8967C 72.3424 36.7404 68.9211 36.5741 64.5064 34.9906L 63.4936 37.8145C 68.2789 39.5309 72.4076 39.8647 75.925 38.7584C 79.469 37.6438 82.1595 35.1413 84.1949 31.6596L 81.6051 30.1455ZM 64.5845 35.0211C 64.3435 34.9191 63.9793 34.6057 63.44 33.8579C 62.9214 33.1416 62.3862 32.2316 61.7539 31.298C 60.5404 29.5092 58.6938 27.2026 55.6 27.2026L 55.6 30.2026C 57.0062 30.2026 58.0596 31.196 59.2711 32.9821C 59.8513 33.836 60.4098 34.7823 61.0068 35.6128C 61.5832 36.4119 62.3565 37.3359 63.4155 37.784L 64.5845 35.0211Z"/>
<path id="path15_fill" d="M 99.1 1.2207e-05C 99.1 1.2207e-05 93.5 5.00001 85.5 5.00001C 67 5.00001 35.8 5.00001 31.5 5.00001C 8.6 5.00001 -1.52588e-06 18.6 -1.52588e-06 41.5L -1.52588e-06 50.8L -1.52588e-06 63.1C -1.52588e-06 63.1 10.3 63.8 12 53.9L 12 50.7L 12 50.5L 12 48.2C 13.1 42.2 18.3 41.5 20.2 41.4C 20.4 41.4 20.6 41.4 20.9 41.4C 41.3 41.4 70.8 41.4 82.9 41.4C 102.3 41.5 99.1 1.2207e-05 99.1 1.2207e-05Z"/>
<path id="path16_stroke" d="M 99.1 1.2207e-05L 100.596 -0.115308C 100.552 -0.684048 100.189 -1.17869 99.6598 -1.39159C 99.1306 -1.6045 98.5265 -1.49881 98.101 -1.11889L 99.1 1.2207e-05ZM -1.52588e-06 63.1L -1.5 63.1C -1.5 63.8889 -0.888846 64.543 -0.101711 64.5965L -1.52588e-06 63.1ZM 12 53.9L 13.4784 54.1539C 13.4928 54.07 13.5 53.9851 13.5 53.9L 12 53.9ZM 12 48.2L 10.5246 47.9295C 10.5082 48.0187 10.5 48.1093 10.5 48.2L 12 48.2ZM 20.2 41.4L 20.2 39.9C 20.1737 39.9 20.1474 39.9007 20.1212 39.9021L 20.2 41.4ZM 82.9 41.4L 82.9077 39.9L 82.9 39.9L 82.9 41.4ZM 99.1 1.2207e-05C 98.101 -1.11889 98.1013 -1.11922 98.1017 -1.11953C 98.1018 -1.11961 98.1021 -1.1199 98.1023 -1.12005C 98.1022 -1.11997 98.1033 -1.12092 98.1031 -1.12076C 98.1032 -1.1209 98.1035 -1.12111 98.1032 -1.12084C 98.1015 -1.11938 98.1006 -1.11862 98.0974 -1.11577C 98.0887 -1.10821 98.0792 -1.09993 98.0622 -1.08546C 98.0238 -1.05276 97.9741 -1.01102 97.8995 -0.950634C 97.7411 -0.822234 97.5244 -0.65267 97.2226 -0.435373C 96.5989 0.0148484 95.7404 0.581591 94.6071 1.16964C 92.2935 2.37809 89.2371 3.52323 85.5 3.50001L 85.5 6.50001C 89.7629 6.4768 93.5065 5.12193 95.9929 3.83038C 97.2596 3.16843 98.3011 2.48518 98.9774 1.9979C 99.3256 1.74644 99.6089 1.52538 99.788 1.38035C 99.8821 1.30401 99.9605 1.23834 100.008 1.19779C 100.034 1.17564 100.057 1.15584 100.07 1.14448C 100.078 1.13787 100.085 1.13146 100.089 1.12812C 100.091 1.12598 100.094 1.12368 100.095 1.12261C 100.096 1.12184 100.097 1.12092 100.097 1.12053C 100.098 1.12023 100.098 1.11982 100.098 1.11967C 100.099 1.11928 100.099 1.11892 99.1 1.2207e-05ZM 85.5 3.50001C 67 3.50001 35.8 3.50001 31.5 3.50001L 31.5 6.50001C 35.8 6.50001 67 6.50001 85.5 6.50001L 85.5 3.50001ZM 31.5 3.50001C 19.7425 3.50001 11.3697 7.00563 5.99142 13.7252C 0.668079 20.376 -1.5 29.9087 -1.5 41.5L 1.5 41.5C 1.5 30.1913 3.63192 21.474 8.33357 15.5998C 12.9802 9.79439 20.3575 6.50001 31.5 6.50001L 31.5 3.50001ZM -1.5 41.5L -1.5 50.8L 1.5 50.8L 1.5 41.5L -1.5 41.5ZM -1.5 50.8L -1.5 63.1L 1.5 63.1L 1.5 50.8L -1.5 50.8ZM -1.52588e-06 63.1C -0.101711 64.5965 -0.100963 64.5966 -0.100176 64.5966C -0.099861 64.5967 -0.0990321 64.5967 -0.098401 64.5968C -0.0976121 64.5968 -0.0957122 64.5969 -0.094133 64.597C -0.0919248 64.5972 -0.0871626 64.5975 -0.0827496 64.5977C -0.0758383 64.5982 -0.0625159 64.5989 -0.0487768 64.5996C -0.0251857 64.6009 0.0162444 64.6028 0.0625302 64.6045C 0.147098 64.6075 0.285863 64.6107 0.446922 64.6107C 0.752137 64.6104 1.2277 64.5966 1.77004 64.5487C 2.81777 64.4536 4.36029 64.1917 5.89675 63.6141C 9.06992 62.4046 12.5204 59.7327 13.4784 54.1539L 10.5216 53.6461C 9.77961 57.9673 7.23008 59.8954 4.82825 60.8109C 3.5772 61.2957 2.43848 61.4777 1.50183 61.5607C 1.05198 61.6018 0.709579 61.6107 0.444871 61.6107C 0.320969 61.6109 0.236786 61.6088 0.169644 61.6064C 0.140076 61.6054 0.123461 61.6046 0.107972 61.6037C 0.10217 61.6034 0.100693 61.6034 0.0976902 61.6032C 0.0971461 61.6031 0.0975954 61.6032 0.0978839 61.6032C 0.097553 61.6032 0.0995012 61.6033 0.0993387 61.6033C 0.0996566 61.6033 0.10025 61.6033 0.100409 61.6034C 0.101039 61.6034 0.101708 61.6034 -1.52588e-06 63.1ZM 13.5 53.9L 13.5 50.7L 10.5 50.7L 10.5 53.9L 13.5 53.9ZM 13.5 50.7L 13.5 50.5L 10.5 50.5L 10.5 50.7L 13.5 50.7ZM 13.5 50.5L 13.5 48.2L 10.5 48.2L 10.5 50.5L 13.5 50.5ZM 13.4754 48.4705C 13.9391 45.9412 15.219 44.6317 16.5326 43.8964C 17.9343 43.0779 19.3735 42.9449 20.2788 42.8979L 20.1212 39.9021C 19.1266 39.9551 17.0157 40.2221 15.0674 41.2786C 13.031 42.4183 11.1609 44.4588 10.5246 47.9295L 13.4754 48.4705ZM 20.2 42.9C 20.4 42.9 20.6 42.9 20.9 42.9L 20.9 39.9C 20.6 39.9 20.4 39.9 20.2 39.9L 20.2 42.9ZM 20.9 42.9C 41.3 42.9 70.8 42.9 82.9 42.9L 82.9 39.9C 70.8 39.9 41.3 39.9 20.9 39.9L 20.9 42.9ZM 82.8923 42.9C 88.3986 42.9284 92.2644 39.9564 94.8868 35.7697C 97.4173 31.6996 98.9291 26.2336 99.7569 20.9699C 100.58 15.7025 100.793 10.4023 100.797 6.48403C 100.798 4.51613 100.748 2.86206 100.698 1.71749C 100.673 1.14114 100.647 0.682087 100.628 0.37393C 100.619 0.217925 100.611 0.095424 100.605 0.0149528C 100.602 -0.0262167 100.6 -0.0588276 100.598 -0.0797137C 100.597 -0.0906163 100.597 -0.0995261 100.596 -0.105013C 100.596 -0.107985 100.596 -0.110561 100.596 -0.112051C 100.596 -0.11291 100.596 -0.113725 100.596 -0.114154C 100.596 -0.11481 100.596 -0.115308 99.1 1.2207e-05C 97.6044 0.115333 97.6044 0.115151 97.6044 0.115127C 97.6044 0.11533 97.6044 0.115462 97.6045 0.115865C 97.6046 0.116898 97.6046 0.118101 97.6048 0.120156C 97.6051 0.124722 97.6056 0.130851 97.6063 0.139895C 97.6077 0.158902 97.6096 0.185814 97.6122 0.223164C 97.6175 0.29973 97.6249 0.410249 97.634 0.558175C 97.6525 0.857879 97.6767 1.29033 97.701 1.84855C 97.7502 2.97312 97.7986 4.56046 97.7969 6.48162C 97.7941 10.3415 97.5946 15.41 96.7931 20.5051C 95.9959 25.6039 94.6702 30.4942 92.3444 34.1772C 90.1106 37.7436 87.1014 39.9216 82.9077 39.9L 82.8923 42.9Z"/>
<path id="path17_stroke" d="M 8.7 -1.50001L 0 -1.50001L 0 1.49999L 8.7 1.49999L 8.7 -1.50001Z"/>
<path id="path18_fill" d="M 33.2 11.3869C 37.3 20.8869 50.1 18.7869 59.4 14.7869C 62.2 13.5869 64.6 12.1869 66.5 10.8869C 57.8 17.0869 47.4 -1.4131 33.6 0.0869003L 32.9 0.0869003C 19.1 -1.4131 8.8 17.1869 1.52588e-06 10.8869C 1.8 12.1869 4.3 13.5869 7.1 14.7869C 16.3 18.7869 29.1 20.7869 33.2 11.3869Z"/>
<path id="path19_stroke" d="M 33.2 11.3869L 34.5772 10.7925C 34.3404 10.2438 33.8005 9.88805 33.2029 9.88689C 32.6053 9.88574 32.064 10.2394 31.8251 10.7872L 33.2 11.3869ZM 59.4 14.7869L 58.8091 13.4082L 58.8073 13.4089L 59.4 14.7869ZM 66.5 10.8869L 67.3705 12.1084C 68.0406 11.6309 68.2009 10.7027 67.7298 10.0281C 67.2587 9.35345 66.3321 9.18429 65.653 9.64893L 66.5 10.8869ZM 33.6 0.0869003L 33.6 1.5869C 33.6541 1.5869 33.7083 1.58397 33.7621 1.57812L 33.6 0.0869003ZM 32.9 0.0869003L 32.7379 1.57812C 32.7917 1.58397 32.8459 1.5869 32.9 1.5869L 32.9 0.0869003ZM 1.52588e-06 10.8869L 0.873169 9.66723C 0.200559 9.1857 -0.734916 9.33958 -1.21784 10.0112C -1.70077 10.6828 -1.54884 11.6186 -0.878234 12.1029L 1.52588e-06 10.8869ZM 7.1 14.7869L 7.6981 13.4113L 7.69088 13.4082L 7.1 14.7869ZM 31.8228 11.9813C 34.1794 17.4416 39.0665 19.4741 44.3 19.6486C 49.4016 19.8015 55.2471 18.2021 59.9927 16.1648L 58.8073 13.4089C 54.253 15.3716 49.0484 16.8223 44.4 16.6502C 39.8835 16.4997 36.3206 14.8322 34.5772 10.7925L 31.8228 11.9813ZM 59.9909 16.1656C 62.8746 14.9266 65.4019 13.4545 67.347 12.1248L 65.653 9.64893C 63.7981 10.9193 61.5254 12.2471 58.8091 13.4082L 59.9909 16.1656ZM 65.6295 9.66534C 63.9594 10.8555 62.2201 10.9164 60.1221 10.1872C 57.8807 9.42055 55.5028 7.8339 52.8031 6.00709C 47.5267 2.43669 40.9911 -2.22531 33.4379 -1.40432L 33.7621 1.57812C 40.0089 0.899111 45.5733 4.73711 51.1219 8.4917C 53.8347 10.3274 56.5505 12.1095 59.1372 13.0209C 61.8673 13.9698 64.6906 14.0183 67.3705 12.1084L 65.6295 9.66534ZM 33.6 -1.4131L 32.9 -1.4131L 32.9 1.5869L 33.6 1.5869L 33.6 -1.4131ZM 33.0621 -1.40432C 25.5053 -2.22571 18.9918 2.46658 13.7311 6.04682C 11.0384 7.87936 8.66673 9.46712 6.42335 10.2283C 4.32841 10.9509 2.57422 10.885 0.873169 9.66723L -0.873166 12.1066C 1.82578 14.0388 4.65909 14.0103 7.40166 13.0643C 9.99577 12.1567 12.7116 10.3694 15.4189 8.52696C 20.9582 4.75721 26.4947 0.899507 32.7379 1.57812L 33.0621 -1.40432ZM -0.878234 12.1029C 0.993099 13.4514 3.63719 14.9325 6.50912 16.1656L 7.69088 13.4082C 4.96281 12.2413 2.6069 10.9224 0.878237 9.67087L -0.878234 12.1029ZM 6.50191 16.1625C 11.2023 18.2019 17.0277 19.777 22.1164 19.6109C 27.3318 19.4232 32.2165 17.3937 34.5749 11.9866L 31.8251 10.7872C 30.0835 14.7801 26.5182 16.4506 22.0085 16.6129C 17.3723 16.7968 12.1977 15.3718 7.69809 13.4113L 6.50191 16.1625Z"/>
<path id="path20_fill" d="M 3.2 0.0199359C 11.7 0.619936 31.3 1.71992 33.3 1.81992C 33.3 1.81992 30.3 2.91994 29 11.5199C 27.6 20.8199 24.1 22.1199 20.4 21.8199C 16.7 21.6199 7.4 20.9199 7.4 20.9199C 7.4 20.9199 0.999999 20.6199 0.399998 11.6199C 0.0999985 6.91994 7.62939e-07 4.11993 7.62939e-07 2.41993C 7.62939e-07 0.11993 1.8 -0.0800641 3.2 0.0199359Z"/>
<path id="path21_stroke" d="M 3.2 0.0199359L 3.09313 1.51612L 3.09438 1.51621L 3.2 0.0199359ZM 33.3 1.81992L 33.8164 3.22824C 34.486 2.98273 34.8901 2.29973 34.783 1.59466C 34.6759 0.889593 34.0872 0.357408 33.3749 0.321795L 33.3 1.81992ZM 29 11.5199L 27.5168 11.2957L 27.5167 11.2966L 29 11.5199ZM 20.4 21.8199L 20.5212 20.3248C 20.5078 20.3237 20.4944 20.3228 20.481 20.3221L 20.4 21.8199ZM 7.4 20.9199L 7.51258 19.4242C 7.49848 19.4231 7.48436 19.4222 7.47023 19.4216L 7.4 20.9199ZM 0.399998 11.6199L -1.09696 11.7155L -1.09668 11.7197L 0.399998 11.6199ZM 7.62939e-07 2.41993L 1.5 2.41993L 7.62939e-07 2.41993ZM 3.09438 1.51621C 11.6052 2.11693 31.2205 3.21782 33.2251 3.31805L 33.3749 0.321795C 31.3795 0.222031 11.7948 -0.877063 3.30562 -1.47634L 3.09438 1.51621ZM 33.3 1.81992C 32.7836 0.411611 32.782 0.412218 32.7803 0.412832C 32.7797 0.413042 32.778 0.413664 32.7769 0.414087C 32.7757 0.414529 32.7723 0.415811 32.7699 0.416704C 32.7674 0.417671 32.7602 0.420393 32.7551 0.422368C 32.7493 0.424644 32.7339 0.430741 32.7223 0.435484C 32.7077 0.441477 32.6728 0.456442 32.644 0.469393C 32.6041 0.487736 32.5184 0.529923 32.4414 0.572039C 32.3221 0.638773 32.0984 0.780785 31.8829 0.94776C 31.5197 1.23652 30.9422 1.80867 30.3948 2.60493C 29.3228 4.19078 28.1896 6.84542 27.5168 11.2957L 30.4831 11.7441C 31.1104 7.59445 32.1272 5.39908 32.8802 4.28493C 33.2453 3.73119 33.4991 3.49084 33.739 3.30459C 33.8251 3.23406 33.8459 3.22295 33.8957 3.19593C 33.9033 3.19117 33.8926 3.19739 33.8879 3.19936C 33.8944 3.19657 33.8573 3.21251 33.8604 3.2112C 33.8664 3.2088 33.8376 3.22029 33.8405 3.21914C 33.8442 3.21773 33.8272 3.22424 33.829 3.22355C 33.831 3.2228 33.8218 3.22624 33.8228 3.22586C 33.8218 3.22625 33.8202 3.22685 33.8196 3.22704C 33.818 3.22764 33.8164 3.22824 33.3 1.81992ZM 27.5167 11.2966C 26.8342 15.8307 25.679 18.0803 24.5244 19.1871C 23.448 20.2191 22.1564 20.4574 20.5212 20.3248L 20.2788 23.315C 22.3436 23.4824 24.652 23.2208 26.6005 21.3527C 28.471 19.5595 29.7658 16.5092 30.4833 11.7432L 27.5167 11.2966ZM 20.481 20.3221C 18.6423 20.2228 15.4055 19.9986 12.6198 19.7988C 11.2273 19.6989 9.9508 19.6052 9.02156 19.5365C 8.55709 19.5022 8.1799 19.4741 7.91855 19.4546C 7.78794 19.4448 7.68646 19.4372 7.61752 19.432C 7.58308 19.4295 7.55685 19.4275 7.53917 19.4262C 7.53035 19.4255 7.52371 19.425 7.51924 19.4247C 7.51701 19.4245 7.51535 19.4244 7.51423 19.4243C 7.51367 19.4242 7.51326 19.4242 7.51298 19.4242C 7.51285 19.4242 7.51275 19.4242 7.51268 19.4242C 7.51261 19.4242 7.51258 19.4242 7.4 20.9199C 7.28741 22.4157 7.28746 22.4157 7.28753 22.4157C 7.28761 22.4157 7.28772 22.4157 7.28786 22.4157C 7.28815 22.4158 7.28859 22.4158 7.28916 22.4158C 7.2903 22.4159 7.29201 22.416 7.29427 22.4162C 7.29877 22.4166 7.30552 22.4171 7.31441 22.4177C 7.33215 22.4191 7.35859 22.421 7.39317 22.4236C 7.46227 22.4288 7.56421 22.4365 7.69512 22.4462C 7.95681 22.4658 8.33509 22.4939 8.80031 22.5283C 9.73045 22.5971 11.0102 22.691 12.4052 22.7911C 15.1945 22.9912 18.4577 23.2171 20.319 23.3177L 20.481 20.3221ZM 7.4 20.9199C 7.47023 19.4216 7.47123 19.4216 7.47221 19.4217C 7.4725 19.4217 7.47346 19.4217 7.47405 19.4218C 7.47355 19.4217 7.4783 19.422 7.47731 19.4219C 7.4767 19.4219 7.48345 19.4223 7.4822 19.4222C 7.48246 19.4222 7.48589 19.4224 7.48554 19.4224C 7.47925 19.422 7.47907 19.422 7.46755 19.4209C 7.43299 19.4177 7.40278 19.4145 7.34102 19.4053C 7.19327 19.3839 7.03276 19.3553 6.79094 19.2868C 6.2541 19.1402 5.67697 18.926 4.99858 18.4256C 3.72565 17.5136 2.17004 15.6206 1.89668 11.5202L -1.09668 11.7197C -0.770042 16.6193 1.17435 19.3763 3.25142 20.8643C 4.24803 21.5638 5.3084 21.9872 5.99031 22.178C 6.35786 22.2784 6.70204 22.3434 6.90663 22.3737C 7.02104 22.3902 7.12892 22.4022 7.1884 22.4079C 7.2239 22.4111 7.25974 22.4139 7.2777 22.4152C 7.28948 22.416 7.30262 22.4168 7.30852 22.4172C 7.31285 22.4174 7.31819 22.4177 7.32035 22.4178C 7.32212 22.4179 7.32448 22.418 7.32537 22.4181C 7.32615 22.4181 7.32725 22.4182 7.32764 22.4182C 7.32872 22.4182 7.32977 22.4183 7.4 20.9199ZM 1.89695 11.5244C 1.59814 6.84539 1.49976 4.09316 1.5 2.41993L -1.5 2.41993C -1.49976 4.1467 -1.39815 6.99449 -1.09696 11.7155L 1.89695 11.5244ZM 1.5 2.41993C 1.5 2.03918 1.57397 1.86121 1.61209 1.7931C 1.6614 1.66152 1.61148 1.71905 1.76703 1.65076C 2.00253 1.5283 2.44414 1.46977 3.09313 1.51612L 3.30687 -1.47625C 2.55586 -1.5299 1.39747 -1.53843 0.382975 -1.01089C -0.809892 -0.390606 -1.5 0.795635 -1.5 2.41993L 1.5 2.41993Z"/>
<path id="path22_fill" d="M -3.05176e-06 0.7C 3.8 1 4.3 1.49999 3.1 7.49999L 7.6 -1.2207e-05L -3.05176e-06 0.7Z"/>
<path id="path23_stroke_2x" d="M -3.05176e-06 0.7L -0.0917216 -0.295785L -0.0787055 1.6969L -3.05176e-06 0.7ZM 3.1 7.49999L 2.11942 7.30387L 3.9575 8.01448L 3.1 7.49999ZM 7.6 -1.2207e-05L 8.4575 0.514484L 9.4722 -1.17669L 7.50828 -0.995797L 7.6 -1.2207e-05ZM -0.0787055 1.6969C 0.852208 1.77021 1.47975 1.83933 1.94716 1.99635C 2.33611 2.12275 2.45617 2.25886 2.52813 2.40479C 2.63317 2.61777 2.71771 3.03319 2.65868 3.87879C 2.60069 4.72615 2.41647 5.81928 2.11942 7.30387L 4.08058 7.6961C 4.38354 6.1807 4.58682 4.96133 4.65382 4.01807C 4.71979 3.07304 4.66684 2.21971 4.32187 1.5202C 3.94383 0.753628 3.30139 0.333493 2.56533 0.0942758C 1.90775 -0.114334 1.04779 -0.220207 0.0786994 -0.296898L -0.0787055 1.6969ZM 3.9575 8.01448L 8.4575 0.514484L 6.74251 -0.514508L 2.24251 6.98549L 3.9575 8.01448ZM 7.50828 -0.995797L -0.0917216 -0.295785L 0.0917155 1.69578L 7.69172 0.995773L 7.50828 -0.995797Z"/>
<path id="path24_stroke" d="M 5.4 -1.50001L -3.05176e-06 -1.50001L -3.05176e-06 1.49999L 5.4 1.49999L 5.4 -1.50001Z"/>
<path id="path25_fill" d="M 30.1 0.0199359C 21.6 0.619936 2 1.71992 1.52588e-06 1.81992C 1.52588e-06 1.81992 3 2.91994 4.3 11.5199C 5.7 20.8199 9.2 22.1199 12.9 21.8199C 16.6 21.6199 25.9 20.9199 25.9 20.9199C 25.9 20.9199 32.3 20.6199 32.9 11.6199C 33.2 6.91994 33.3 4.11993 33.3 2.41993C 33.2 0.11993 31.4 -0.0800641 30.1 0.0199359Z"/>
<path id="path26_stroke" d="M 30.1 0.0199359L 30.2056 1.51624L 30.215 1.51552L 30.1 0.0199359ZM 1.52588e-06 1.81992L -0.0749049 0.321795C -0.787172 0.357408 -1.37589 0.889592 -1.48299 1.59466C -1.59009 2.29973 -1.18595 2.98273 -0.516386 3.22824L 1.52588e-06 1.81992ZM 4.3 11.5199L 5.78328 11.2966L 5.78315 11.2957L 4.3 11.5199ZM 12.9 21.8199L 12.819 20.3221C 12.8056 20.3228 12.7922 20.3237 12.7788 20.3248L 12.9 21.8199ZM 25.9 20.9199L 25.8298 19.4216C 25.8156 19.4222 25.8015 19.4231 25.7874 19.4242L 25.9 20.9199ZM 32.9 11.6199L 34.3967 11.7197L 34.397 11.7155L 32.9 11.6199ZM 33.3 2.41993L 34.8 2.41993C 34.8 2.3982 34.7995 2.37648 34.7986 2.35477L 33.3 2.41993ZM 29.9944 -1.47634C 21.5052 -0.877063 1.92052 0.222031 -0.0749049 0.321795L 0.074908 3.31805C 2.07948 3.21782 21.6948 2.11693 30.2056 1.51621L 29.9944 -1.47634ZM 1.52588e-06 1.81992C -0.516386 3.22824 -0.518017 3.22764 -0.519635 3.22704C -0.52016 3.22685 -0.521768 3.22625 -0.522817 3.22586C -0.521813 3.22624 -0.530991 3.2228 -0.528982 3.22355C -0.527152 3.22424 -0.544179 3.21772 -0.540515 3.21914C -0.537566 3.22029 -0.566361 3.2088 -0.560432 3.2112C -0.557329 3.2125 -0.59437 3.19657 -0.587938 3.19936C -0.592565 3.19739 -0.603253 3.19117 -0.595736 3.19593C -0.545894 3.22295 -0.525059 3.23406 -0.43902 3.30459C -0.199077 3.49084 0.054739 3.73119 0.419759 4.28493C 1.17284 5.39908 2.18957 7.59445 2.81685 11.7441L 5.78315 11.2957C 5.11043 6.84542 3.97715 4.19078 2.90524 2.60493C 2.35776 1.80867 1.78033 1.23652 1.41715 0.947761C 1.20162 0.780786 0.977928 0.638774 0.858629 0.572039C 0.781576 0.529924 0.695912 0.487737 0.655959 0.469393C 0.627237 0.456442 0.592262 0.441477 0.577727 0.435484C 0.566082 0.430742 0.55072 0.424644 0.544877 0.422369C 0.539767 0.420393 0.532637 0.417672 0.530079 0.416705C 0.527706 0.415811 0.524281 0.41453 0.523095 0.414088C 0.521954 0.413664 0.520277 0.413043 0.519707 0.412832C 0.518043 0.412219 0.516389 0.411611 1.52588e-06 1.81992ZM 2.81671 11.7432C 3.53417 16.5092 4.82896 19.5595 6.69945 21.3527C 8.64804 23.2208 10.9564 23.4824 13.0212 23.315L 12.7788 20.3248C 11.1436 20.4574 9.85196 20.2191 8.77555 19.1871C 7.62104 18.0803 6.46583 15.8307 5.78328 11.2966L 2.81671 11.7432ZM 12.981 23.3177C 14.8423 23.2171 18.1055 22.9912 20.8949 22.7911C 22.2898 22.691 23.5696 22.5971 24.4997 22.5283C 24.9649 22.4939 25.3432 22.4658 25.6049 22.4462C 25.7358 22.4365 25.8377 22.4288 25.9068 22.4236C 25.9414 22.421 25.9679 22.4191 25.9856 22.4177C 25.9945 22.4171 26.0012 22.4166 26.0057 22.4162C 26.008 22.416 26.0097 22.4159 26.0108 22.4158C 26.0114 22.4158 26.0119 22.4158 26.0121 22.4157C 26.0123 22.4157 26.0124 22.4157 26.0125 22.4157C 26.0125 22.4157 26.0126 22.4157 25.9 20.9199C 25.7874 19.4242 25.7874 19.4242 25.7873 19.4242C 25.7873 19.4242 25.7872 19.4242 25.787 19.4242C 25.7867 19.4242 25.7863 19.4242 25.7858 19.4243C 25.7847 19.4244 25.783 19.4245 25.7808 19.4247C 25.7763 19.425 25.7697 19.4255 25.7608 19.4262C 25.7432 19.4275 25.7169 19.4295 25.6825 19.432C 25.6135 19.4372 25.5121 19.4448 25.3815 19.4546C 25.1201 19.4741 24.7429 19.5022 24.2784 19.5365C 23.3492 19.6052 22.0727 19.6989 20.6802 19.7988C 17.8945 19.9986 14.6577 20.2228 12.819 20.3221L 12.981 23.3177ZM 25.9 20.9199C 25.9702 22.4183 25.9713 22.4182 25.9724 22.4182C 25.9728 22.4182 25.9739 22.4181 25.9746 22.4181C 25.9755 22.418 25.9779 22.4179 25.9796 22.4178C 25.9818 22.4177 25.9872 22.4174 25.9915 22.4172C 25.9974 22.4168 26.0105 22.416 26.0223 22.4152C 26.0403 22.4139 26.0761 22.4111 26.1116 22.4079C 26.1711 22.4022 26.279 22.3902 26.3934 22.3737C 26.598 22.3434 26.9421 22.2784 27.3097 22.178C 27.9916 21.9872 29.052 21.5638 30.0486 20.8643C 32.1257 19.3763 34.07 16.6193 34.3967 11.7197L 31.4033 11.5202C 31.13 15.6206 29.5744 17.5136 28.3014 18.4256C 27.623 18.926 27.0459 19.1402 26.5091 19.2868C 26.2672 19.3553 26.1067 19.3839 25.959 19.4053C 25.8972 19.4145 25.867 19.4177 25.8324 19.4209C 25.8209 19.422 25.8208 19.422 25.8145 19.4224C 25.8141 19.4224 25.8175 19.4222 25.8178 19.4222C 25.8165 19.4223 25.8233 19.4219 25.8227 19.4219C 25.8217 19.422 25.8264 19.4217 25.826 19.4218C 25.8265 19.4217 25.8275 19.4217 25.8278 19.4217C 25.8288 19.4216 25.8298 19.4216 25.9 20.9199ZM 34.397 11.7155C 34.6981 6.99449 34.7998 4.1467 34.8 2.41993L 31.8 2.41993C 31.8002 4.09316 31.7019 6.84539 31.403 11.5244L 34.397 11.7155ZM 34.7986 2.35477C 34.7283 0.739206 34.002 -0.407722 32.842 -1.01089C 31.833 -1.53561 30.7069 -1.53118 29.985 -1.47565L 30.215 1.51552C 30.7931 1.47105 31.217 1.52548 31.458 1.65076C 31.6206 1.72387 31.5884 1.68405 31.6523 1.82882C 31.7032 1.91414 31.7849 2.10437 31.8014 2.48509L 34.7986 2.35477Z"/>
<path id="path27_fill" d="M 7.6 0.7C 3.8 1 3.3 1.49999 4.5 7.49999L -1.52588e-06 -1.2207e-05L 7.6 0.7Z"/>
<path id="path28_stroke_2x" d="M 7.6 0.7L 7.6787 1.6969L 7.69172 -0.295785L 7.6 0.7ZM 4.5 7.49999L 3.64251 8.01448L 5.48058 7.30387L 4.5 7.49999ZM -1.52588e-06 -1.2207e-05L 0.0917171 -0.995797L -1.8722 -1.17669L -0.857494 0.514484L -1.52588e-06 -1.2207e-05ZM 7.52129 -0.296898C 6.55221 -0.220207 5.69225 -0.114334 5.03466 0.0942759C 4.2986 0.333493 3.65616 0.753629 3.27813 1.5202C 2.93316 2.21971 2.88021 3.07304 2.94618 4.01807C 3.01319 4.96133 3.21646 6.1807 3.51942 7.6961L 5.48058 7.30387C 5.18353 5.81928 4.99931 4.72615 4.94132 3.87879C 4.88229 3.03319 4.96683 2.61777 5.07187 2.40479C 5.14383 2.25886 5.26389 2.12275 5.65283 1.99635C 6.12025 1.83933 6.74779 1.77021 7.6787 1.6969L 7.52129 -0.296898ZM 5.35749 6.98549L 0.857491 -0.514508L -0.857494 0.514484L 3.64251 8.01448L 5.35749 6.98549ZM -0.0917202 0.995773L 7.50828 1.69578L 7.69172 -0.295785L 0.0917171 -0.995797L -0.0917202 0.995773Z"/>
<path id="path29_fill" d="M 3.05176e-06 21.6L 6.6 21.6C 9.6 21.6 12 19.2 12 16.2C 12 13.2 9.6 10.8 6.6 10.8L 4 10.8L 2 -6.10352e-06"/>
<path id="path30_stroke" d="M 3.05176e-06 20.1C -0.828424 20.1 -1.5 20.7716 -1.5 21.6C -1.5 22.4284 -0.828424 23.1 3.05176e-06 23.1L 3.05176e-06 20.1ZM 4 10.8L 2.52508 11.0731C 2.65675 11.7841 3.27692 12.3 4 12.3L 4 10.8ZM 3.47493 -0.27314C 3.32408 -1.08772 2.54145 -1.62578 1.72687 -1.47493C 0.912292 -1.32408 0.374233 -0.54145 0.52508 0.273127L 3.47493 -0.27314ZM 3.05176e-06 23.1L 6.6 23.1L 6.6 20.1L 3.05176e-06 20.1L 3.05176e-06 23.1ZM 6.6 23.1C 10.4284 23.1 13.5 20.0284 13.5 16.2L 10.5 16.2C 10.5 18.3716 8.77158 20.1 6.6 20.1L 6.6 23.1ZM 13.5 16.2C 13.5 12.3716 10.4284 9.30001 6.6 9.30001L 6.6 12.3C 8.77158 12.3 10.5 14.0284 10.5 16.2L 13.5 16.2ZM 6.6 9.30001L 4 9.30001L 4 12.3L 6.6 12.3L 6.6 9.30001ZM 5.47493 10.5269L 3.47493 -0.27314L 0.52508 0.273127L 2.52508 11.0731L 5.47493 10.5269Z"/>
<path id="path31_fill" d="M -3.05176e-06 3.20001C -3.05176e-06 4.90001 1.4 6.39999 3.2 6.39999C 4.9 6.39999 6.4 5.00001 6.4 3.20001C 6.4 1.50001 5 -6.10352e-06 3.2 -6.10352e-06C 1.4 0.0999939 -3.05176e-06 1.50001 -3.05176e-06 3.20001Z"/>
<path id="path32_stroke" d="M 3.2 -6.10352e-06L 3.2 -1.50001C 3.17225 -1.50001 3.1445 -1.49924 3.1168 -1.4977L 3.2 -6.10352e-06ZM -1.5 3.20001C -1.5 5.69787 0.54134 7.89999 3.2 7.89999L 3.2 4.89999C 2.25866 4.89999 1.5 4.10214 1.5 3.20001L -1.5 3.20001ZM 3.2 7.89999C 5.69784 7.89999 7.9 5.85869 7.9 3.20001L 4.9 3.20001C 4.9 4.14132 4.10216 4.89999 3.2 4.89999L 3.2 7.89999ZM 7.9 3.20001C 7.9 0.702163 5.85869 -1.50001 3.2 -1.50001L 3.2 1.49999C 4.14132 1.49999 4.9 2.29785 4.9 3.20001L 7.9 3.20001ZM 3.1168 -1.4977C 0.599305 -1.35784 -1.5 0.628644 -1.5 3.20001L 1.5 3.20001C 1.5 2.37137 2.2007 1.55782 3.28321 1.49768L 3.1168 -1.4977Z"/>
<path id="path33_fill" d="M 17.2 1.24444C 7.7 -1.55556 -1.52588e-06 1.24444 -1.52588e-06 1.24444Z"/>
<path id="path34_stroke" d="M 16.7759 2.68325C 17.5706 2.91746 18.4046 2.46314 18.6388 1.66851C 18.873 0.873883 18.4187 0.0398447 17.6241 -0.194362L 16.7759 2.68325ZM -0.512616 -0.165246C -1.29117 0.117863 -1.6928 0.978508 -1.40969 1.75706C -1.12658 2.53561 -0.265938 2.93724 0.512613 2.65413L -0.512616 -0.165246ZM 17.6241 -0.194362C 12.6642 -1.64018 8.06606 -1.6532 4.86988 -1.29616C 3.24414 -1.1117 1.88594 -0.829955 0.985915 -0.604057C 0.523738 -0.487623 0.146442 -0.377917 -0.0951475 -0.303007C -0.221616 -0.263708 -0.326594 -0.229246 -0.391041 -0.2075C -0.425999 -0.195684 -0.45654 -0.185114 -0.474145 -0.178941C -0.48429 -0.175379 -0.493944 -0.171953 -0.499026 -0.170138C -0.502231 -0.168992 -0.505638 -0.167769 -0.50724 -0.167191C -0.508372 -0.166783 -0.509718 -0.166296 -0.510284 -0.166092C -0.510732 -0.16593 -0.511315 -0.165718 -0.511539 -0.165637C -0.512092 -0.165436 -0.512616 -0.165246 -1.52588e-06 1.24444C 0.512613 2.65413 0.512148 2.6543 0.511712 2.65446C 0.511606 2.6545 0.511198 2.65465 0.510985 2.65473C 0.511082 2.65469 0.509857 2.65513 0.510051 2.65506C 0.50978 2.65516 0.509725 2.65518 0.510257 2.65499C 0.512649 2.65413 0.514185 2.65359 0.518899 2.65194C 0.531012 2.64768 0.544869 2.64287 0.568626 2.63487C 0.621611 2.61696 0.691339 2.594 0.793973 2.56221C 1.01059 2.49493 1.30907 2.40776 1.71721 2.30545C 2.55781 2.09384 3.71836 1.85059 5.20512 1.68505C 8.23394 1.34209 12.2358 1.32907 16.7759 2.68325L 17.6241 -0.194362Z"/>
<path id="path35_fill" d="M 6.4 3.20001C 6.4 4.90001 5 6.39999 3.2 6.39999C 1.5 6.39999 3.05176e-06 5.00001 3.05176e-06 3.20001C 3.05176e-06 1.50001 1.4 -6.10352e-06 3.2 -6.10352e-06C 5 0.0999939 6.4 1.50001 6.4 3.20001Z"/>
<path id="path36_stroke" d="M 3.2 -6.10352e-06L 3.28321 -1.4977C 3.2555 -1.49924 3.22775 -1.50001 3.2 -1.50001L 3.2 -6.10352e-06ZM 4.9 3.20001C 4.9 4.10214 4.14133 4.89999 3.2 4.89999L 3.2 7.89999C 5.85867 7.89999 7.9 5.69787 7.9 3.20001L 4.9 3.20001ZM 3.2 4.89999C 2.29784 4.89999 1.5 4.14132 1.5 3.20001L -1.5 3.20001C -1.5 5.85869 0.702157 7.89999 3.2 7.89999L 3.2 4.89999ZM 1.5 3.20001C 1.5 2.29785 2.25868 1.49999 3.2 1.49999L 3.2 -1.50001C 0.541316 -1.50001 -1.5 0.702163 -1.5 3.20001L 1.5 3.20001ZM 3.1168 1.49768C 4.1993 1.55782 4.9 2.37136 4.9 3.20001L 7.9 3.20001C 7.9 0.628648 5.8007 -1.35784 3.28321 -1.4977L 3.1168 1.49768Z"/>
<path id="path37_fill" d="M -3.05176e-06 1.24444C 9.5 -1.55556 17.2 1.24444 17.2 1.24444Z"/>
<path id="path38_stroke" d="M -0.424072 -0.194362C -1.2187 0.0398447 -1.67302 0.873883 -1.43881 1.66851C -1.2046 2.46314 -0.370565 2.91746 0.424066 2.68325L -0.424072 -0.194362ZM 16.6874 2.65413C 17.4659 2.93724 18.3266 2.53561 18.6097 1.75706C 18.8928 0.978508 18.4912 0.117863 17.7126 -0.165246L 16.6874 2.65413ZM 0.424066 2.68325C 4.96423 1.32907 8.96606 1.34209 11.9949 1.68505C 13.4816 1.85059 14.6422 2.09384 15.4828 2.30545C 15.8909 2.40776 16.1894 2.49493 16.406 2.56221C 16.5087 2.594 16.5784 2.61696 16.6314 2.63487C 16.6551 2.64287 16.669 2.64768 16.6811 2.65194C 16.6858 2.65359 16.6873 2.65413 16.6897 2.65499C 16.6903 2.65518 16.6902 2.65516 16.6899 2.65506C 16.6901 2.65513 16.6889 2.65469 16.689 2.65473C 16.6888 2.65465 16.6884 2.6545 16.6883 2.65446C 16.6879 2.6543 16.6874 2.65413 17.2 1.24444C 17.7126 -0.165246 17.7121 -0.165436 17.7115 -0.165637C 17.7113 -0.165718 17.7107 -0.16593 17.7103 -0.166092C 17.7097 -0.166296 17.7084 -0.166783 17.7072 -0.167191C 17.7056 -0.167769 17.7022 -0.168992 17.699 -0.170138C 17.6939 -0.171953 17.6843 -0.175379 17.6741 -0.178941C 17.6565 -0.185114 17.626 -0.195684 17.591 -0.2075C 17.5266 -0.229246 17.4216 -0.263708 17.2951 -0.303007C 17.0536 -0.377917 16.6763 -0.487623 16.2141 -0.604057C 15.3141 -0.829955 13.9559 -1.1117 12.3301 -1.29616C 9.13394 -1.6532 4.53577 -1.64018 -0.424072 -0.194362L 0.424066 2.68325Z"/>
<path id="path39_stroke" d="M 84.5073 0.323899C 84.6862 -0.342877 84.2907 -1.02842 83.6239 -1.20732C 82.9571 -1.38621 82.2716 -0.990698 82.0927 -0.323923L 84.5073 0.323899ZM 79 9.09999L 78.0925 8.24029L 78.0862 8.2471L 79 9.09999ZM 11.1 11.3L 11.1 10.05C 11.0792 10.05 11.0584 10.0505 11.0376 10.0516L 11.1 11.3ZM -1.05564 16.6306C -1.42535 17.2136 -1.25244 17.9859 -0.669429 18.3556C -0.0864175 18.7254 0.68592 18.5524 1.05563 17.9694L -1.05564 16.6306ZM 82.0927 -0.323923C 81.0093 3.71428 79.6757 6.56926 78.0926 8.24031L 79.9074 9.95967C 81.9243 7.83072 83.3907 4.48569 84.5073 0.323899L 82.0927 -0.323923ZM 78.0862 8.2471C 76.9175 9.49923 75.6462 10.05 74 10.05L 74 12.55C 76.3538 12.55 78.2825 11.7008 79.9138 9.95289L 78.0862 8.2471ZM 74 10.05L 11.2 10.05L 11.2 12.55L 74 12.55L 74 10.05ZM 11.2 10.05L 11.1 10.05L 11.1 12.55L 11.2 12.55L 11.2 10.05ZM 11.0376 10.0516C 6.77061 10.2649 1.82671 12.0853 -1.05564 16.6306L 1.05563 17.9694C 3.37329 14.3147 7.42939 12.7351 11.1624 12.5484L 11.0376 10.0516Z"/>
<path id="path40_stroke" d="M 1.9438 0.124374C 2.0125 -0.562556 1.51132 -1.17511 0.824386 -1.2438C 0.137456 -1.3125 -0.475097 -0.811316 -0.54379 -0.124386L 1.9438 0.124374ZM -1.23099 5.38277C -1.35096 6.06262 -0.897089 6.71101 -0.217238 6.83098C 0.462613 6.95095 1.111 6.49708 1.23097 5.81723L -1.23099 5.38277ZM -0.54379 -0.124386C -0.743462 1.87237 -0.937815 3.72585 -1.23099 5.38277L 1.23097 5.81723C 1.5378 4.07415 1.74347 2.12762 1.9438 0.124374L -0.54379 -0.124386Z"/>
<path id="path41_stroke" d="M 5.71321 -1.50001L 3.05883e-06 -1.50001L 3.05883e-06 1.49999L 5.71321 1.49999L 5.71321 -1.50001Z"/>
</defs>
</svg>
