<svg width="232" height="231" viewBox="0 0 232 231" version="1.1" xmlns="http://www.w3.org/2000/svg" xmlns:xlink="http://www.w3.org/1999/xlink">
<title>jackie</title>
<desc>Created using Figma</desc>
<g id="Canvas" transform="translate(-10163 -4173)">
<g id="jackie">
<g id="Ellipse">
<use xlink:href="#path0_fill" transform="translate(10163 4173)" fill="#FFFFFF"/>
</g>
<g id="Vector">
<use xlink:href="#path1_fill" transform="translate(10194.2 4182.34)" fill="#333333"/>
</g>
<g id="Vector">
<use xlink:href="#path2_fill" transform="translate(10208.4 4192.94)" fill="#333333"/>
</g>
<g id="Vector">
<use xlink:href="#path3_stroke" transform="translate(10235.5 4277.64)" fill="#BDBDBD"/>
</g>
<g id="Vector">
<use xlink:href="#path4_fill" transform="translate(10235.6 4192.94)" fill="#333333"/>
<mask id="mask0_outline_ins">
<use xlink:href="#path4_fill" fill="white" transform="translate(10235.6 4192.94)"/>
</mask>
<g mask="url(#mask0_outline_ins)">
<use xlink:href="#path5_stroke_2x" transform="translate(10235.6 4192.94)" fill="#333333"/>
</g>
</g>
<g id="Vector">
<use xlink:href="#path6_stroke" transform="translate(10321.3 4277.64)" fill="#E0E0E0"/>
</g>
<g id="Group">
<g id="Vector">
<use xlink:href="#path7_fill" transform="translate(10240.5 4284.54)" fill="#FFFFFF"/>
<use xlink:href="#path8_stroke" transform="translate(10240.5 4284.54)" fill="#333333"/>
</g>
<g id="Vector">
<use xlink:href="#path9_fill" transform="translate(10244 4237.64)" fill="#FFFFFF"/>
<use xlink:href="#path10_stroke" transform="translate(10244 4237.64)" fill="#333333"/>
</g>
<g id="Vector">
<use xlink:href="#path9_fill" transform="translate(10244 4237.64)" fill="#FFFFFF"/>
<use xlink:href="#path11_stroke" transform="translate(10244 4237.64)" fill="#333333"/>
</g>
<g id="Vector">
<use xlink:href="#path12_fill" transform="translate(10274 4266.44)" fill="#FFFFFF"/>
<use xlink:href="#path13_stroke" transform="translate(10274 4266.44)" fill="#333333"/>
</g>
<g id="Vector">
<use xlink:href="#path14_stroke" transform="translate(10263.1 4266.34)" fill="#333333"/>
</g>
<g id="Vector">
<use xlink:href="#path15_fill" transform="translate(10313.3 4266.44)" fill="#FFFFFF"/>
<use xlink:href="#path16_stroke" transform="translate(10313.3 4266.44)" fill="#333333"/>
</g>
<g id="Vector">
<use xlink:href="#path17_fill" transform="translate(10263.2 4256.74)" fill="#FFFFFF"/>
<use xlink:href="#path18_stroke" transform="translate(10263.2 4256.74)" fill="#333333"/>
</g>
<g id="Vector">
<use xlink:href="#path19_fill" transform="translate(10304.2 4256.54)" fill="#FFFFFF"/>
<use xlink:href="#path20_stroke" transform="translate(10304.2 4256.54)" fill="#333333"/>
</g>
<g id="Vector">
<use xlink:href="#path21_stroke" transform="translate(10305 4266.34)" fill="#333333"/>
</g>
<g id="Vector">
<use xlink:href="#path22_fill" transform="translate(10278.1 4305.94)" fill="#FFFFFF"/>
<use xlink:href="#path23_stroke" transform="translate(10278.1 4305.94)" fill="#333333"/>
</g>
<g id="Vector">
<use xlink:href="#path24_fill" transform="translate(10283 4306.94)" fill="#FFFFFF"/>
<use xlink:href="#path25_stroke" transform="translate(10283 4306.94)" fill="#333333"/>
</g>
<g id="Vector">
<use xlink:href="#path26_fill" transform="translate(10283 4299.34)" fill="#FFFFFF"/>
<use xlink:href="#path27_stroke" transform="translate(10283 4299.34)" fill="#333333"/>
</g>
<g id="Vector">
<use xlink:href="#path28_fill" transform="translate(10223.7 4362.94)" fill="#FFFFFF"/>
<use xlink:href="#path29_stroke" transform="translate(10223.7 4362.94)" fill="#333333"/>
</g>
<g id="Vector">
<use xlink:href="#path30_fill" transform="translate(10292.5 4270.24)" fill="#FFFFFF"/>
<use xlink:href="#path31_stroke" transform="translate(10292.5 4270.24)" fill="#333333"/>
</g>
</g>
<g id="Vector">
<use xlink:href="#path32_fill" transform="translate(10225.3 4221.63)" fill="#333333"/>
<mask id="mask1_outline_ins">
<use xlink:href="#path32_fill" fill="white" transform="translate(10225.3 4221.63)"/>
</mask>
<g mask="url(#mask1_outline_ins)">
<use xlink:href="#path33_stroke_2x" transform="translate(10225.3 4221.63)" fill="#333333"/>
</g>
</g>
<g id="Group">
<g id="Vector">
<use xlink:href="#path34_fill" transform="translate(10235.8 4266.04)" fill="#FFFFFF"/>
</g>
<g id="Vector">
<use xlink:href="#path35_fill" transform="translate(10234 4264.54)" fill="#333333"/>
</g>
</g>
<g id="Group">
<g id="Vector">
<use xlink:href="#path36_fill" transform="translate(10282 4231.84)" fill="#FFFFFF"/>
</g>
<g id="Vector">
<use xlink:href="#path37_fill" transform="translate(10250.1 4230.44)" fill="#333333"/>
</g>
</g>
<g id="Vector">
<use xlink:href="#path38_fill" transform="translate(10244.5 4277.64)" fill="#FFFFFF"/>
<use xlink:href="#path39_stroke" transform="translate(10244.5 4277.64)" fill="#BDBDBD"/>
</g>
<g id="Vector">
<use xlink:href="#path40_fill" transform="translate(10250.9 4280.34)" fill="#FFFFFF"/>
<use xlink:href="#path41_stroke" transform="translate(10250.9 4280.34)" fill="#BDBDBD"/>
</g>
<g id="Vector">
<use xlink:href="#path42_fill" transform="translate(10244.5 4287.14)" fill="#FFFFFF"/>
<use xlink:href="#path43_stroke" transform="translate(10244.5 4287.14)" fill="#BDBDBD"/>
</g>
</g>
</g>
<defs>
<path id="path0_fill" d="M 231.045 115.5C 231.045 179.289 179.324 231 115.523 231C 51.7213 231 0 179.289 0 115.5C 0 51.7111 51.7213 0 115.523 0C 179.324 0 231.045 51.7111 231.045 115.5Z"/>
<path id="path1_fill" d="M 164.21 114.1C 163.91 111.8 163.31 109.8 162.21 108C 162.21 108 162.21 107.9 162.11 107.9C 161.11 106.3 159.81 105 158.41 103.9C 158.91 103.6 159.41 103.2 159.81 102.8C 160.91 101.8 161.71 100.5 162.41 98.9C 162.71 98.1 163.01 97.3 163.11 96.5C 163.21 95.7 163.31 94.9 163.31 94.1C 163.21 90.8 161.91 87.8 159.71 85.7C 158.41 84.5 156.91 83.7 155.21 83.2C 157.01 82.4 158.51 81.2 159.71 79.6C 160.71 78.2 161.41 76.7 161.81 75.2C 162.21 73.5 162.21 71.8 161.91 70.1C 161.71 68.4 161.01 66.8 160.01 65.2C 159.11 63.8 157.91 62.6 156.61 61.7C 154.91 60.6 153.01 60 151.01 59.9C 152.41 58.9 153.61 57.5 154.31 55.8C 155.01 54.3 155.31 52.7 155.31 51.2C 155.31 49.6 155.01 47.9 154.31 46.3C 152.91 43.1 150.41 40.7 147.41 39.7C 145.21 38.9 142.91 38.9 140.81 39.6C 141.31 39.1 141.81 38.5 142.21 37.9C 143.11 36.6 143.61 35.1 143.81 33.6C 144.01 32 143.81 30.4 143.41 28.8C 142.81 27.1 142.01 25.6 140.81 24.3C 139.51 22.9 138.11 21.9 136.71 21.2C 135.21 20.5 133.61 20.2 132.01 20.1C 131.01 20.1 130.01 20.3 129.11 20.5C 129.51 18.7 129.41 16.8 129.01 14.9C 128.51 13 127.61 11.1 126.41 9.60002C 126.41 9.60002 126.41 9.49999 126.31 9.49999C 124.81 7.69999 123.21 6.40002 121.51 5.60002C 120.61 5.10002 119.61 4.70001 118.51 4.40001C 117.61 4.10001 116.61 4.00001 115.51 3.90001C 113.51 3.70001 111.51 4 109.61 4.7C 107.41 5.5 105.41 6.89998 104.01 8.79998C 103.81 7.69998 103.41 6.69998 102.81 5.79998C 101.31 3.49998 98.7096 1.7 95.5096 1.2C 92.3096 0.7 89.3096 1.59998 87.1096 3.29998C 85.0096 4.99998 83.7096 7.60001 83.8096 10.4C 83.8096 7.20001 82.3096 4.30001 79.9096 2.40001C 77.9096 0.800012 75.3096 -1.2207e-05 72.7096 -1.2207e-05C 72.0096 -1.2207e-05 71.3096 0.1 70.6096 0.2C 67.3096 0.7 64.3096 2.70001 62.5096 5.40001C 61.9096 6.40001 61.4096 7.49999 61.2096 8.49999C 59.9096 7.19999 58.3096 6.20002 56.6096 5.60002C 53.0096 4.30002 48.8096 4.60002 45.0096 6.60002C 43.2096 7.60002 41.6096 9.00002 40.4096 10.6C 39.2096 12.2 38.4096 13.9 38.0096 15.8C 37.6096 17.7 37.6096 19.6 38.0096 21.4C 37.0096 21 35.9096 20.9 34.8096 20.9L 34.6096 20.9C 33.0096 20.9 31.4096 21.3 29.9096 22C 28.3096 22.8 26.9096 23.9 25.8096 25.2C 24.6096 26.7 23.8096 28.2 23.3096 29.7C 22.9096 31.3 22.7096 32.9 22.9096 34.4C 23.2096 36.9 24.5096 39.2 26.4096 40.8C 24.1096 39.9 21.7096 39.9 19.3096 40.7C 18.5096 41 17.8096 41.3 17.2096 41.7C 16.6096 42.1 16.0096 42.6 15.4096 43.2C 14.1096 44.5 13.2096 45.9 12.6096 47.3C 12.0096 48.9 11.6096 50.5 11.7096 52.1C 11.8096 53.7 12.1096 55.2 12.7096 56.5C 13.4096 58 14.4096 59.2 15.6096 60.2C 13.6096 60.4 11.6096 61 9.90961 62.2C 6.90961 64.3 4.90961 67.4 4.40961 70.9C 4.10961 72.8 4.20962 74.6 4.60962 76.3C 5.00962 78 5.8096 79.5 6.8096 80.8C 7.1096 81.1 7.30962 81.4 7.60962 81.8C 6.60962 82.4 5.6096 83 4.8096 83.9C 1.8096 86.6 0.109613 90.5 0.00961331 94.9C -0.0903867 97.5 0.609595 99.9 1.20959 101.3C 2.10959 103.4 3.3096 105.1 4.8096 106.5C 6.2096 107.8 7.70961 108.7 9.40961 109.4C 9.00961 109.9 8.6096 110.4 8.3096 110.9C 7.5096 112.2 7.10961 113.8 6.90961 115.6C 6.80961 117.3 7.00962 119.1 7.60962 120.9C 8.40962 122.8 9.30961 124.3 10.5096 125.5C 11.9096 126.8 13.2096 127.7 14.6096 128.3C 15.7096 128.7 16.9096 128.9 18.0096 128.9C 18.8096 128.9 19.5096 128.8 20.2096 128.6C 18.9096 130.4 18.2096 132.5 18.3096 134.7C 18.3096 138.2 20.1096 141.9 23.3096 144.5C 25.7096 146.4 28.6096 147.5 31.5096 147.5C 32.3096 147.5 33.1096 147.4 33.8096 147.3C 35.9096 146.9 37.8096 145.8 39.3096 144.3C 39.2096 146.1 39.6096 147.9 40.4096 149.7C 41.9096 152.6 44.8096 154.8 48.1096 155.6C 49.1096 155.9 50.2096 156 51.2096 156C 53.5096 156 55.6096 155.4 57.5096 154.1C 58.6096 153.4 59.5096 152.4 60.3096 151.4C 60.8096 153.1 61.7096 154.7 62.9096 156.1C 65.3096 158.8 68.8096 160.4 72.5096 160.6C 72.7096 160.6 72.8096 160.6 73.0096 160.6C 76.6096 160.6 79.9096 159.2 82.4096 156.8C 83.5096 155.6 84.4096 154.3 85.1096 152.8C 85.6096 153.8 86.3096 154.7 87.1096 155.5C 89.2096 157.6 92.1096 158.8 95.2096 158.8C 95.4096 158.8 95.5096 158.8 95.7096 158.8C 98.9096 158.7 102.01 157.2 104.01 154.9C 105.01 153.8 105.81 152.4 106.21 151C 107.11 152.7 108.41 154.1 110.01 155.1C 112.01 156.4 114.41 157.1 116.91 157.1C 118.11 157.1 119.31 156.9 120.41 156.6C 122.21 156.2 123.91 155.3 125.51 154C 127.01 152.7 128.11 151.4 128.81 149.9C 129.91 147.7 130.31 145.3 129.91 143C 131.21 144.2 132.71 145 134.51 145.4C 135.01 145.5 135.61 145.6 136.21 145.6C 137.11 145.6 138.11 145.5 139.11 145.2C 139.81 145 140.61 144.7 141.41 144.3C 142.31 143.8 143.01 143.4 143.61 142.8C 144.31 142.2 144.91 141.6 145.51 140.9C 146.01 140.3 146.41 139.6 146.81 138.7C 147.51 137.3 147.91 135.8 147.91 134.1C 147.91 133.3 147.81 132.6 147.61 131.9C 148.21 132 148.81 132 149.41 132C 151.11 132 152.71 131.7 154.31 131.1L 154.41 131.1C 156.41 130.3 158.21 129 159.81 127.4C 159.91 127.3 159.91 127.3 160.01 127.2C 161.61 125.3 162.81 123.3 163.51 121.2C 163.81 120.1 164.11 119 164.21 118C 164.41 116.4 164.41 115.2 164.21 114.1ZM 104.91 141.5C 104.21 140.4 103.41 139.4 102.41 138.5C 100.31 136.6 97.8096 135.7 95.1096 135.7C 94.9096 135.7 94.8096 135.7 94.6096 135.7C 90.4096 135.9 86.8096 138.4 84.9096 142.1C 82.9096 137.5 78.5096 134.2 73.3096 134C 70.0096 133.9 66.8096 135 64.3096 137.3C 63.2096 138.3 62.2096 139.5 61.5096 140.8C 61.2096 139.8 60.7096 138.9 60.1096 138C 58.6096 135.6 56.3096 133.9 53.7096 133.2C 51.1096 132.6 48.5096 132.9 46.0096 134.3C 44.7096 135 43.6096 135.9 42.6096 136.9C 42.8096 135.1 42.7096 133.4 42.4096 132.1C 41.8096 129.1 40.5096 126.8 38.6096 125.3C 37.6096 124.4 36.3096 123.9 35.1096 123.5C 34.5096 123.3 33.8096 123.2 33.0096 123.1C 32.4096 123 31.8096 123 31.1096 123C 29.6096 123.1 28.1096 123.3 26.7096 123.8C 27.5096 122.7 28.2096 121.5 28.7096 120.3C 29.2096 118.9 29.5096 117.7 29.6096 116.6C 29.6096 115.6 29.6096 114.2 29.1096 113C 28.7096 111.8 28.1096 110.7 27.2096 109.8C 26.4096 108.9 25.4096 108 24.1096 107.4C 24.0096 107.3 23.8096 107.3 23.7096 107.2C 24.6096 106.6 25.5096 105.8 26.2096 105C 27.5096 103.6 28.5096 102.2 29.1096 100.7C 29.8096 99.1 30.2096 97.4 30.3096 95.3C 30.4096 91.6 29.0096 87.9 26.2096 84.8C 25.6096 84.2 24.9096 83.6 24.3096 83.1C 24.4096 83 24.6096 82.9 24.7096 82.8C 26.0096 81.8 27.0096 80.7 27.8096 79.4C 28.7096 78 29.3096 76.5 29.5096 74.9C 29.9096 71.7 29.2096 68.6 27.4096 66.1C 26.4096 64.6 25.2096 63.4 23.8096 62.5C 25.1096 62.4 26.4096 62 27.7096 61.4C 29.0096 60.8 30.1096 60 31.0096 59.1C 32.1096 58.1 32.8096 57 33.3096 55.8C 33.7096 54.7 34.1096 53.4 34.0096 52C 34.0096 51.4 33.9096 50.7 33.8096 50C 33.7096 49.3 33.5096 48.7 33.3096 48.1C 32.6096 46.1 31.3096 44.3 29.7096 42.9C 31.2096 43.5 32.8096 43.8 34.4096 43.8C 35.0096 43.8 35.6096 43.8 36.1096 43.7C 37.5096 43.5 38.8096 43.1 39.9096 42.6C 41.3096 41.9 42.3096 41.1 43.0096 40.2C 43.9096 39.1 44.6096 38 44.9096 36.8C 45.3096 35.5 45.5096 34.2 45.4096 32.9C 45.4096 32.1 45.3096 31.4 45.2096 30.7C 46.3096 31.3 47.5096 31.7 48.7096 32C 49.9096 32.3 51.0096 32.4 52.1096 32.4C 52.6096 32.4 53.0096 32.4 53.5096 32.3C 55.2096 32.1 56.7096 31.7 58.0096 30.9C 60.7096 29.5 62.8096 27 64.0096 23.6C 64.4096 22.4 64.7096 21.1 64.8096 19.8C 65.4096 20.3 66.0096 20.8 66.6096 21.2C 68.5096 22.4 70.5096 23.1 72.6096 23.1C 73.1096 23.1 73.7096 23.1 74.3096 23C 76.9096 22.6 79.2096 21.1 81.0096 18.8C 82.8096 16.5 83.8096 13.6 83.8096 10.8C 83.8096 13.6 84.9096 16.1 86.4096 18C 87.9096 19.9 89.9096 21.2 92.3096 21.6C 94.7096 22 97.0096 21.3 99.1096 20C 99.8096 19.5 100.41 19 101.01 18.4C 101.01 20.1 101.41 21.8 102.01 23.6C 102.51 25.1 103.31 26.5 104.41 27.8C 104.91 28.4 105.51 29 106.21 29.6C 106.91 30.2 107.61 30.7 108.41 31.1C 108.41 31.1 108.51 31.1 108.51 31.2C 109.71 31.8 111.31 32.4 113.21 32.5C 113.61 32.5 114.01 32.5 114.41 32.5C 115.61 32.5 116.81 32.3 118.01 32C 119.21 31.7 120.31 31.3 121.31 30.8C 121.21 31.3 121.21 31.9 121.21 32.4C 121.21 33.8 121.41 35.2 121.81 36.3C 122.31 37.7 122.91 38.8 123.71 39.7C 124.61 40.7 125.71 41.6 126.81 42.1C 128.01 42.7 129.31 43.1 130.61 43.2C 131.11 43.3 131.61 43.3 132.11 43.3C 133.01 43.3 133.91 43.2 134.71 43C 135.31 42.9 135.81 42.7 136.41 42.5C 135.01 43.9 133.91 45.6 133.21 47.5C 132.21 50.4 132.31 53.1 133.31 55.4C 133.81 56.7 134.61 57.8 135.61 58.8C 136.71 59.8 137.81 60.6 138.91 61.1C 140.21 61.7 141.61 62 143.01 62.2C 143.11 62.2 143.21 62.2 143.31 62.2C 141.91 63.2 140.61 64.4 139.71 65.8C 138.81 67.1 138.21 68.5 137.91 69.9C 137.61 71.3 137.51 72.7 137.81 74.3C 138.01 75.8 138.61 77.2 139.51 78.5C 140.31 79.8 141.31 80.9 142.51 81.7C 143.91 82.8 145.51 83.5 147.21 83.9C 145.81 84.5 144.51 85.5 143.41 86.7C 141.41 88.9 140.31 91.7 140.31 94.5C 140.31 95.2 140.41 96 140.61 96.7C 140.71 97.4 141.01 98 141.21 98.6C 141.71 99.7 142.51 100.9 143.51 101.9C 143.61 102 143.81 102.2 143.91 102.3C 142.91 102.7 141.91 103.1 141.01 103.7C 139.41 104.7 138.01 105.8 137.01 107L 136.91 107.1C 136.51 107.6 136.11 108.2 135.61 108.8C 135.61 108.8 135.61 108.9 135.51 108.9C 135.01 109.7 134.61 110.6 134.31 111.5C 133.71 113.3 133.51 115 133.71 116.7C 133.81 118.3 134.21 119.9 134.91 121.4C 135.31 122.4 135.81 123.4 136.41 124.3C 136.21 124.3 136.11 124.3 135.91 124.3L 135.71 124.3C 134.71 124.3 133.61 124.4 132.41 124.7C 131.91 124.8 131.41 125 130.91 125.3C 130.41 125.5 129.91 125.9 129.51 126.2L 129.41 126.3C 129.01 126.6 128.71 127 128.31 127.4C 127.91 127.8 127.71 128.4 127.41 128.8C 126.91 129.7 126.61 130.7 126.31 132.2C 126.01 133.6 126.01 135 126.21 136.4C 125.01 135 123.51 133.8 121.81 133C 120.41 132.3 119.01 131.8 117.71 131.7C 116.31 131.5 114.81 131.5 113.21 132C 110.31 132.8 107.81 134.7 106.11 137.3C 105.81 138.5 105.21 140 104.91 141.5Z"/>
<path id="path2_fill" d="M 68.7 2.44141e-05C 68.6 2.44141e-05 68.5 2.44141e-05 68.4 2.44141e-05C 68.3 2.44141e-05 68.2 2.44141e-05 68.1 2.44141e-05C 50.8 2.44141e-05 -1.2207e-05 8.60001 -1.2207e-05 85.8C -1.2207e-05 136.7 46.4 136.7 68.2 136.7L 68.4 129.3L 68.6 136.7C 90.4 136.7 136.8 136.7 136.8 85.8C 136.8 8.60001 86 2.44141e-05 68.7 2.44141e-05Z"/>
<path id="path3_stroke" d="M 8.99999 1.24998C 9.69035 1.24998 10.25 0.690332 10.25 -2.44141e-05C 10.25 -0.69038 9.69035 -1.25002 8.99999 -1.25002L 8.99999 1.24998ZM 8.99999 19.25C 9.69035 19.25 10.25 18.6903 10.25 18C 10.25 17.3096 9.69035 16.75 8.99999 16.75L 8.99999 19.25ZM 8.99999 -1.25002C 3.30964 -1.25002 -1.25001 3.30962 -1.25001 8.99998L 1.24999 8.99998C 1.24999 4.69033 4.69035 1.24998 8.99999 1.24998L 8.99999 -1.25002ZM -1.25001 8.99998C -1.25001 14.6903 3.30964 19.25 8.99999 19.25L 8.99999 16.75C 4.69035 16.75 1.24999 13.3096 1.24999 8.99998L -1.25001 8.99998Z"/>
<path id="path4_fill" d="M 44 85.8C 68.3005 85.8 88 66.593 88 42.9C 88 19.207 68.3005 2.44141e-05 44 2.44141e-05C 19.6995 2.44141e-05 0 19.207 0 42.9C 0 66.593 19.6995 85.8 44 85.8Z"/>
<path id="path5_stroke_2x" d="M 87 42.9C 87 66.017 67.7723 84.8 44 84.8L 44 86.8C 68.8288 86.8 89 67.169 89 42.9L 87 42.9ZM 44 84.8C 20.2277 84.8 1 66.017 1 42.9L -1 42.9C -1 67.169 19.1712 86.8 44 86.8L 44 84.8ZM 1 42.9C 1 19.783 20.2277 1.00002 44 1.00002L 44 -0.999976C 19.1712 -0.999976 -1 18.631 -1 42.9L 1 42.9ZM 44 1.00002C 67.7723 1.00002 87 19.783 87 42.9L 89 42.9C 89 18.631 68.8288 -0.999976 44 -0.999976L 44 1.00002Z"/>
<path id="path6_stroke" d="M 1.2207e-05 16.75C -0.690344 16.75 -1.24999 17.3096 -1.24999 18C -1.24999 18.6903 -0.690344 19.25 1.2207e-05 19.25L 1.2207e-05 16.75ZM 1.2207e-05 -1.25002C -0.690344 -1.25002 -1.24999 -0.69038 -1.24999 -2.44141e-05C -1.24999 0.690332 -0.690344 1.24998 1.2207e-05 1.24998L 1.2207e-05 -1.25002ZM 1.2207e-05 19.25C 5.69037 19.25 10.25 14.6903 10.25 8.99998L 7.75001 8.99998C 7.75001 13.3096 4.30966 16.75 1.2207e-05 16.75L 1.2207e-05 19.25ZM 10.25 8.99998C 10.25 3.30962 5.69037 -1.25002 1.2207e-05 -1.25002L 1.2207e-05 1.24998C 4.30966 1.24998 7.75001 4.69033 7.75001 8.99998L 10.25 8.99998Z"/>
<path id="path7_fill" d="M 75 78.3C 67.7 78.3 61.8 72.4 61.8 65.1L 61.8 0L 13.2 0L 13.2 65.2C 13.2 72.5 7.29999 78.4 -6.10352e-06 78.4C -6.10352e-06 78.4 6.9 91.9 41.1 91.9C 75.4 91.8 75 78.3 75 78.3Z"/>
<path id="path8_stroke" d="M 75 78.3L 76.4993 78.2556C 76.4753 77.4448 75.8111 76.8 75 76.8L 75 78.3ZM 61.8 0L 63.3 0C 63.3 -0.828427 62.6284 -1.5 61.8 -1.5L 61.8 0ZM 13.2 0L 13.2 -1.5C 12.3716 -1.5 11.7 -0.828427 11.7 3.33067e-16L 13.2 0ZM -6.10352e-06 78.4L -6.10352e-06 76.9C -0.522235 76.9 -1.00688 77.1716 -1.27946 77.6171C -1.55204 78.0625 -1.57333 78.6177 -1.33566 79.0827L -6.10352e-06 78.4ZM 41.1 91.9L 41.1 93.4L 41.1044 93.4L 41.1 91.9ZM 75 76.8C 68.5284 76.8 63.3 71.5716 63.3 65.1L 60.3 65.1C 60.3 73.2284 66.8716 79.8 75 79.8L 75 76.8ZM 63.3 65.1L 63.3 0L 60.3 0L 60.3 65.1L 63.3 65.1ZM 61.8 -1.5L 13.2 -1.5L 13.2 1.5L 61.8 1.5L 61.8 -1.5ZM 11.7 0L 11.7 65.2L 14.7 65.2L 14.7 0L 11.7 0ZM 11.7 65.2C 11.7 71.6716 6.47157 76.9 -6.10352e-06 76.9L -6.10352e-06 79.9C 8.12842 79.9 14.7 73.3284 14.7 65.2L 11.7 65.2ZM -6.10352e-06 78.4C -1.33566 79.0827 -1.33496 79.0841 -1.33424 79.0855C -1.33396 79.086 -1.3332 79.0875 -1.33265 79.0886C -1.33198 79.0898 -1.3303 79.0931 -1.32897 79.0956C -1.3272 79.099 -1.32315 79.1068 -1.31957 79.1135C -1.31424 79.1235 -1.30332 79.1438 -1.2924 79.1636C -1.27436 79.1963 -1.24072 79.2555 -1.20293 79.3192C -1.13538 79.4324 -1.01714 79.6206 -0.870154 79.8337C -0.594153 80.2318 -0.123647 80.845 0.515912 81.5329C 1.75061 82.8529 3.85923 84.6875 6.9896 86.4574C 13.2623 89.9858 23.804 93.4 41.1 93.4L 41.1 90.4C 24.196 90.4 14.1877 87.0643 8.46039 83.8427C 5.59076 82.2376 3.83688 80.6971 2.70908 79.4859C 2.16739 78.9082 1.83164 78.4667 1.5967 78.1265C 1.48822 77.9704 1.42482 77.8686 1.37459 77.7841C 1.3535 77.7489 1.34422 77.7323 1.33406 77.7139C 1.33088 77.7082 1.32825 77.7031 1.32982 77.7061C 1.32968 77.7058 1.33156 77.7094 1.3315 77.7093C 1.33102 77.7084 1.33351 77.7132 1.33327 77.7127C 1.33361 77.7134 1.33421 77.7146 1.33438 77.7149C 1.335 77.7161 1.33565 77.7174 -6.10352e-06 78.4ZM 41.1044 93.4C 58.4069 93.3496 67.2855 89.926 71.8559 86.2287C 74.1537 84.3699 75.3302 82.4657 75.9225 80.96C 76.2098 80.2173 76.3684 79.5264 76.4332 79.1053C 76.4678 78.8724 76.487 78.6559 76.4938 78.5341C 76.4976 78.4626 76.4995 78.392 76.5 78.3557C 76.5002 78.3325 76.5002 78.3072 76.5001 78.2956C 76.5 78.2872 76.4998 78.2772 76.4998 78.273C 76.4997 78.2697 76.4996 78.2653 76.4996 78.2636C 76.4995 78.2622 76.4995 78.2602 76.4994 78.2594C 76.4994 78.2575 76.4993 78.2556 75 78.3C 73.5007 78.3444 73.5006 78.3426 73.5005 78.3408C 73.5005 78.3403 73.5005 78.3386 73.5005 78.3376C 73.5005 78.3384 73.5003 78.3302 73.5003 78.3319C 73.5004 78.3328 73.5002 78.3221 73.5002 78.324C 73.5002 78.3226 73.5003 78.3194 73.5002 78.3217C 73.5001 78.3366 73.5001 78.3418 73.4984 78.3692C 73.4944 78.4452 73.4887 78.5188 73.4672 78.6552C 73.4199 78.9728 73.3417 79.3374 73.1307 79.8619C 72.726 80.8905 71.8588 82.3676 69.9691 83.8963C 66.1645 86.974 58.0931 90.3505 41.0956 90.4L 41.1044 93.4Z"/>
<path id="path9_fill" d="M -6.10352e-06 -2.44141e-05L -6.10352e-06 41.1C -6.10352e-06 63 13.5 97.1 50.3 97.1C 59.9 97.1 79.1 77 79.1 48.3L 79.1 -2.44141e-05L -6.10352e-06 -2.44141e-05L -6.10352e-06 -2.44141e-05Z"/>
<path id="path10_stroke" d="M 79.1 -2.44141e-05L 80.6 -2.44141e-05C 80.6 -0.828452 79.9284 -1.50002 79.1 -1.50002L 79.1 -2.44141e-05ZM -6.10352e-06 -1.50002C -0.828433 -1.50002 -1.50001 -0.828452 -1.50001 -2.44141e-05C -1.50001 0.828403 -0.828433 1.49998 -6.10352e-06 1.49998L -6.10352e-06 -1.50002ZM -1.50001 -2.44141e-05L -1.50001 41.1L 1.49999 41.1L 1.49999 -2.44141e-05L -1.50001 -2.44141e-05ZM -1.50001 41.1C -1.48953 52.227 2.00928 66.6703 10.1258 78.1794C 18.3486 89.7917 31.3582 98.6 50.3 98.6L 50.3 95.6C 32.4418 95.6 20.3015 87.3583 12.5742 76.4457C 4.74072 65.4297 1.48951 51.873 1.49999 41.1L -1.50001 41.1ZM 50.3 98.6C 53.1669 98.6 56.4829 97.1305 59.7427 94.7164C 62.9886 92.3063 66.458 88.7222 69.5308 84.32C 75.6223 75.5582 80.5737 62.9295 80.6 48.3L 77.6 48.3C 77.6263 62.3705 72.9777 74.1419 67.0692 82.6051C 64.142 86.8154 61.0114 90.05 57.9573 92.3055C 54.9171 94.557 52.2331 95.6 50.3 95.6L 50.3 98.6ZM 80.6 48.3L 80.6 -2.44141e-05L 77.6 -2.44141e-05L 77.6 48.3L 80.6 48.3ZM 79.1 -1.50002L -6.10352e-06 -1.50002L -6.10352e-06 1.49998L 79.1 1.49998L 79.1 -1.50002Z"/>
<path id="path11_stroke" d="M 79.1 -2.44141e-05L 80.6 -2.44141e-05L 80.6 -1.50002L 79.1 -1.50002L 79.1 -2.44141e-05ZM -1.50001 -2.44141e-05L -1.50001 41.1L 1.49999 41.1L 1.49999 -2.44141e-05L -1.50001 -2.44141e-05ZM -1.50001 41.1C -1.48953 52.227 2.00928 66.6703 10.1258 78.1794C 18.3486 89.7917 31.3582 98.6 50.3 98.6L 50.3 95.6C 32.4418 95.6 20.3015 87.3583 12.5742 76.4457C 4.74072 65.4297 1.48951 51.873 1.49999 41.1L -1.50001 41.1ZM 50.3 98.6C 53.1669 98.6 56.4829 97.1305 59.7427 94.7164C 62.9886 92.3063 66.458 88.7222 69.5308 84.32C 75.6223 75.5582 80.5737 62.9295 80.6 48.3L 77.6 48.3C 77.6263 62.3705 72.9777 74.1419 67.0692 82.6051C 64.142 86.8154 61.0114 90.05 57.9573 92.3055C 54.9171 94.557 52.2331 95.6 50.3 95.6L 50.3 98.6ZM 80.6 48.3L 80.6 -2.44141e-05L 77.6 -2.44141e-05L 77.6 48.3L 80.6 48.3ZM 79.1 -1.50002L -6.10352e-06 -1.50002L -6.10352e-06 1.49998L 79.1 1.49998L 79.1 -1.50002Z"/>
<path id="path12_fill" d="M 5.39999 2.69998C 5.39999 4.19998 4.20001 5.39999 2.70001 5.39999C 1.20001 5.39999 -6.10352e-06 4.19998 -6.10352e-06 2.69998C -6.10352e-06 1.19998 1.20001 2.44141e-05 2.70001 2.44141e-05C 4.20001 2.44141e-05 5.39999 1.19998 5.39999 2.69998Z"/>
<path id="path13_stroke" d="M 3.89999 2.69998C 3.89999 3.37157 3.37156 3.89999 2.70001 3.89999L 2.70001 6.89999C 5.02846 6.89999 6.89999 5.02838 6.89999 2.69998L 3.89999 2.69998ZM 2.70001 3.89999C 2.02843 3.89999 1.49999 3.37155 1.49999 2.69998L -1.50001 2.69998C -1.50001 5.0284 0.371579 6.89999 2.70001 6.89999L 2.70001 3.89999ZM 1.49999 2.69998C 1.49999 2.02845 2.02839 1.50002 2.70001 1.50002L 2.70001 -1.49998C 0.371623 -1.49998 -1.50001 0.371504 -1.50001 2.69998L 1.49999 2.69998ZM 2.70001 1.50002C 3.3716 1.50002 3.89999 2.02842 3.89999 2.69998L 6.89999 2.69998C 6.89999 0.371526 5.02841 -1.49998 2.70001 -1.49998L 2.70001 1.50002Z"/>
<path id="path14_stroke" d="M 0 -1.50001C -0.828427 -1.50001 -1.5 -0.828439 -1.5 -1.2207e-05C -1.5 0.828415 -0.828427 1.49999 0 1.49999L 0 -1.50001ZM 24.1 1.49999C 24.9284 1.49999 25.6 0.828415 25.6 -1.2207e-05C 25.6 -0.828439 24.9284 -1.50001 24.1 -1.50001L 24.1 1.49999ZM 0 1.49999L 24.1 1.49999L 24.1 -1.50001L 0 -1.50001L 0 1.49999Z"/>
<path id="path15_fill" d="M 5.40001 2.69998C 5.40001 4.19998 4.19999 5.39999 2.69999 5.39999C 1.19999 5.39999 1.2207e-05 4.19998 1.2207e-05 2.69998C 1.2207e-05 1.19998 1.19999 2.44141e-05 2.69999 2.44141e-05C 4.19999 2.44141e-05 5.40001 1.19998 5.40001 2.69998Z"/>
<path id="path16_stroke" d="M 3.90001 2.69998C 3.90001 3.37155 3.37157 3.89999 2.69999 3.89999L 2.69999 6.89999C 5.02842 6.89999 6.90001 5.0284 6.90001 2.69998L 3.90001 2.69998ZM 2.69999 3.89999C 2.02844 3.89999 1.50001 3.37157 1.50001 2.69998L -1.49999 2.69998C -1.49999 5.02838 0.371545 6.89999 2.69999 6.89999L 2.69999 3.89999ZM 1.50001 2.69998C 1.50001 2.02842 2.0284 1.50002 2.69999 1.50002L 2.69999 -1.49998C 0.371589 -1.49998 -1.49999 0.371526 -1.49999 2.69998L 1.50001 2.69998ZM 2.69999 1.50002C 3.37161 1.50002 3.90001 2.02845 3.90001 2.69998L 6.90001 2.69998C 6.90001 0.371504 5.02838 -1.49998 2.69999 -1.49998L 2.69999 1.50002Z"/>
<path id="path17_fill" d="M 24 4.20002C 24 4.20002 19.2 1.2207e-05 12 1.2207e-05C 4.70001 1.2207e-05 6.10352e-06 4.20002 6.10352e-06 4.20002"/>
<path id="path18_stroke" d="M 23.0122 5.32889C 23.6357 5.87441 24.5833 5.81124 25.1289 5.18778C 25.6744 4.56433 25.6112 3.61668 24.9878 3.07116L 23.0122 5.32889ZM -0.999492 3.08154C -1.61721 3.63355 -1.67048 4.5818 -1.11848 5.19952C -0.566469 5.81724 0.381783 5.87051 0.999504 5.31851L -0.999492 3.08154ZM 24 4.20002C 24.9878 3.07116 24.9873 3.07079 24.9869 3.0704C 24.9867 3.07024 24.9862 3.06984 24.9859 3.06953C 24.9855 3.06917 24.9844 3.06825 24.9836 3.06752C 24.9825 3.06653 24.9799 3.06432 24.9776 3.06235C 24.9742 3.05936 24.9673 3.05343 24.9604 3.04751C 24.9487 3.0376 24.9278 3.01987 24.9046 3.00053C 24.8628 2.96573 24.7927 2.90832 24.7098 2.84272C 24.5536 2.71937 24.3032 2.52912 23.9977 2.31493C 23.408 1.90255 22.4891 1.31972 21.3708 0.758378C 19.1844 -0.331481 15.8513 -1.47878 12 -1.49999L 12 1.50001C 15.3487 1.47881 18.0157 2.43151 20.0292 3.44166C 21.011 3.93032 21.742 4.39749 22.2773 4.77262C 22.5343 4.95218 22.7152 5.09005 22.8496 5.19639C 22.912 5.24563 22.952 5.27846 22.9841 5.30519C 22.9978 5.31661 23.0047 5.32246 23.0117 5.32844C 23.0141 5.33047 23.0142 5.33056 23.0154 5.33161C 23.0154 5.33166 23.0147 5.33103 23.0147 5.331C 23.0149 5.33123 23.0135 5.33002 23.0137 5.33013C 23.0135 5.32996 23.0131 5.32965 23.013 5.32956C 23.0126 5.32923 23.0122 5.32889 24 4.20002ZM 12 -1.49999C 8.09869 -1.47878 4.764 -0.330781 2.58848 0.759987C 1.47476 1.32253 0.562844 1.90748 -0.0198266 2.32062C -0.32209 2.53557 -0.569998 2.72701 -0.723944 2.85075C -0.805889 2.91675 -0.875445 2.97474 -0.916657 3.00974C -0.939628 3.02927 -0.960495 3.0473 -0.971982 3.05731C -0.978878 3.06333 -0.985795 3.0694 -0.989236 3.07244C -0.991525 3.07446 -0.994099 3.07674 -0.995241 3.07776C -0.996095 3.07851 -0.99716 3.07946 -0.997586 3.07984C -0.99794 3.08016 -0.998417 3.08058 -0.998594 3.08074C -0.999052 3.08115 -0.999492 3.08154 6.10352e-06 4.20002C 0.999504 5.31851 0.9991 5.31887 0.998714 5.31921C 0.998609 5.31931 0.998239 5.31964 0.998029 5.31982C 0.998168 5.3197 0.996691 5.32101 0.996973 5.32076C 0.996969 5.32077 0.996114 5.32153 0.996117 5.32152C 0.994984 5.32252 0.997186 5.32057 0.999405 5.31864C 1.00615 5.31276 1.01256 5.3072 1.0258 5.29597C 1.057 5.26945 1.09555 5.23721 1.15638 5.18836C 1.28798 5.08241 1.46429 4.94573 1.71671 4.76693C 2.24342 4.39257 2.96275 3.92751 3.93654 3.44005C 5.93601 2.43081 8.60132 1.47881 12 1.50001L 12 -1.49999Z"/>
<path id="path19_fill" d="M 18.9 4.59998L 18.9 2.09998C 17 0.999976 14.3 0 11.1 0C 4.40001 0 6.10352e-06 4.59998 6.10352e-06 4.59998"/>
<path id="path20_stroke" d="M 17.4 4.59998C 17.4 5.4284 18.0716 6.09998 18.9 6.09998C 19.7284 6.09998 20.4 5.4284 20.4 4.59998L 17.4 4.59998ZM 18.9 2.09998L 20.4 2.09998L 20.4 1.23515L 19.6516 0.801836L 18.9 2.09998ZM -1.08395 3.56314C -1.65658 4.16179 -1.63549 5.11131 -1.03683 5.68393C -0.438177 6.25656 0.511336 6.23547 1.08397 5.63681L -1.08395 3.56314ZM 20.4 4.59998L 20.4 2.09998L 17.4 2.09998L 17.4 4.59998L 20.4 4.59998ZM 19.6516 0.801836C 17.6386 -0.357313 14.5646 -1.47647 11.1 -1.5L 11.1 1.5C 14.0354 1.47647 16.3614 2.35726 18.1484 3.39812L 19.6516 0.801836ZM 11.1 -1.5C 7.45725 -1.47115 4.30336 -0.191233 2.2719 1.01009C 1.23188 1.63014 0.376069 2.27571 -0.168421 2.72918C -0.450879 2.96513 -0.682971 3.17535 -0.826885 3.31096C -0.903444 3.38323 -0.968413 3.44669 -1.00691 3.48497C -1.02834 3.50631 -1.04776 3.52595 -1.05848 3.53688C -1.06489 3.54342 -1.0713 3.55001 -1.0745 3.55332C -1.07662 3.55551 -1.07899 3.55797 -1.08005 3.55907C -1.08084 3.55989 -1.08181 3.56091 -1.08221 3.56131C -1.08253 3.56165 -1.08297 3.56211 -1.08313 3.56228C -1.08355 3.56272 -1.08395 3.56314 6.10352e-06 4.59998C 1.08397 5.63681 1.0836 5.6372 1.08324 5.63757C 1.08315 5.63767 1.08281 5.63802 1.08262 5.63822C 1.08275 5.63809 1.08142 5.63947 1.08167 5.63921C 1.08165 5.63922 1.08092 5.63999 1.08094 5.63997C 1.08202 5.63885 1.08202 5.63884 1.08414 5.63668C 1.09049 5.6302 1.09659 5.62401 1.10903 5.61166C 1.13825 5.58256 1.17435 5.54719 1.23119 5.49369C 1.35408 5.37772 1.51808 5.22858 1.75281 5.03328C 2.2427 4.62426 2.90564 4.11983 3.80312 3.58989C 5.64666 2.49122 8.04277 1.47115 11.1 1.5L 11.1 -1.5Z"/>
<path id="path21_stroke" d="M -6.10352e-06 -1.50001C -0.828433 -1.50001 -1.50001 -0.828439 -1.50001 -1.2207e-05C -1.50001 0.828415 -0.828433 1.49999 -6.10352e-06 1.49999L -6.10352e-06 -1.50001ZM 18.1 1.49999C 18.9284 1.49999 19.6 0.828415 19.6 -1.2207e-05C 19.6 -0.828439 18.9284 -1.50001 18.1 -1.50001L 18.1 1.49999ZM -6.10352e-06 1.49999L 18.1 1.49999L 18.1 -1.50001L -6.10352e-06 -1.50001L -6.10352e-06 1.49999Z"/>
<path id="path22_fill" d="M 0 2.44141e-05L 15.9 3.00002L 30.8 2.44141e-05"/>
<path id="path23_stroke" d="M 0.278112 -1.47397C -0.535952 -1.62757 -1.3204 -1.09215 -1.47399 -0.278087C -1.62759 0.535976 -1.09218 1.32042 -0.278112 1.47402L 0.278112 -1.47397ZM 15.9 3.00002L 15.6219 4.47402L 15.9093 4.52825L 16.1961 4.47051L 15.9 3.00002ZM 31.0961 1.47051C 31.9082 1.307 32.434 0.516082 32.2705 -0.296048C 32.107 -1.10818 31.316 -1.63398 30.5039 -1.47047L 31.0961 1.47051ZM -0.278112 1.47402L 15.6219 4.47402L 16.1781 1.52603L 0.278112 -1.47397L -0.278112 1.47402ZM 16.1961 4.47051L 31.0961 1.47051L 30.5039 -1.47047L 15.6039 1.52953L 16.1961 4.47051Z"/>
<path id="path24_fill" d="M -6.10352e-06 2.44141e-05L 22 2.44141e-05C 22 2.44141e-05 19.7 7.6 12.6 7.6C 5.4 7.6 -6.10352e-06 2.44141e-05 -6.10352e-06 2.44141e-05Z"/>
<path id="path25_stroke" d="M -6.10352e-06 2.44141e-05L -6.10352e-06 -1.49998C -0.561215 -1.49998 -1.07548 -1.1867 -1.3329 -0.688009C -1.59032 -0.18932 -1.54783 0.411352 -1.22277 0.868838L -6.10352e-06 2.44141e-05ZM 22 2.44141e-05L 23.4357 0.434511C 23.5732 -0.0199301 23.4875 -0.512652 23.2045 -0.893919C 22.9216 -1.27519 22.4748 -1.49998 22 -1.49998L 22 2.44141e-05ZM -6.10352e-06 1.50002L 22 1.50002L 22 -1.49998L -6.10352e-06 -1.49998L -6.10352e-06 1.50002ZM 22 2.44141e-05C 20.5643 -0.434463 20.5645 -0.435035 20.5646 -0.435578C 20.5647 -0.43572 20.5648 -0.436236 20.5649 -0.436523C 20.5649 -0.436351 20.5655 -0.438256 20.5653 -0.437908C 20.5654 -0.438017 20.5656 -0.438869 20.5656 -0.438676C 20.565 -0.436671 20.5648 -0.436207 20.5636 -0.432354C 20.5601 -0.42137 20.5566 -0.410399 20.5496 -0.389528C 20.5334 -0.341082 20.5131 -0.281874 20.4802 -0.193137C 20.4096 -0.00166884 20.3134 0.242407 20.1661 0.562538C 19.8597 1.23279 19.4342 2.0354 18.7739 2.88507C 17.4883 4.5552 15.5333 6.1 12.6 6.1L 12.6 9.1C 16.7667 9.1 19.5117 6.84482 21.1511 4.71496C 21.9533 3.66463 22.5466 2.56724 22.8933 1.8125C 23.0725 1.42014 23.2115 1.07046 23.2944 0.846309C 23.3383 0.727234 23.3743 0.623161 23.3953 0.560279C 23.4069 0.525486 23.4171 0.493782 23.4228 0.476006C 23.4261 0.465479 23.4294 0.455042 23.431 0.449741C 23.4321 0.446281 23.4333 0.442458 23.4338 0.440726C 23.4342 0.439457 23.4347 0.4379 23.4349 0.437266C 23.435 0.436748 23.4352 0.436059 23.4353 0.4358C 23.4355 0.435141 23.4357 0.434511 22 2.44141e-05ZM 12.6 6.1C 9.51893 6.1 6.70735 4.46072 4.56777 2.65397C 3.50493 1.7595 2.68599 0.892206 2.08879 0.203988C 1.79749 -0.131055 1.58389 -0.39664 1.42987 -0.594636C 1.35612 -0.689334 1.30495 -0.757295 1.26694 -0.808529C 1.24946 -0.832067 1.23856 -0.846996 1.22965 -0.859269C 1.22594 -0.864385 1.22425 -0.866732 1.22236 -0.869357C 1.22178 -0.870164 1.2213 -0.87084 1.2216 -0.870427C 1.22156 -0.870472 1.22195 -0.869928 1.22194 -0.869949C 1.22203 -0.869813 1.22224 -0.869523 1.22229 -0.869455C 1.22252 -0.869136 1.22276 -0.868789 -6.10352e-06 2.44141e-05C -1.22277 0.868838 -1.22249 0.869243 -1.22218 0.869677C -1.22205 0.869861 -1.22172 0.870325 -1.22146 0.870692C -1.22111 0.871175 -1.22032 0.872279 -1.21963 0.873245C -1.21861 0.874673 -1.21654 0.877577 -1.21449 0.880423C -1.21113 0.885103 -1.20497 0.893657 -1.19824 0.902922C -1.18628 0.919408 -1.16598 0.947154 -1.14215 0.979281C -1.09754 1.03937 -1.02567 1.13469 -0.937699 1.24781C -0.768275 1.46544 -0.503751 1.7936 -0.176303 2.17105C 0.463998 2.90783 1.44506 3.94053 2.63223 4.94606C 4.99264 6.93929 8.48107 9.1 12.6 9.1L 12.6 6.1Z"/>
<path id="path26_fill" d="M -6.10352e-06 7.60002L 22 7.60002C 22 7.60002 19.7 -1.2207e-05 12.6 -1.2207e-05C 5.4 0.0999878 -6.10352e-06 7.60002 -6.10352e-06 7.60002Z"/>
<path id="path27_stroke" d="M -6.10352e-06 7.60002L -1.21731 6.72357C -1.54621 7.18038 -1.59168 7.78288 -1.33505 8.28388C -1.07842 8.78488 -0.562905 9.10002 -6.10352e-06 9.10002L -6.10352e-06 7.60002ZM 22 7.60002L 22 9.10002C 22.4748 9.10002 22.9216 8.87524 23.2045 8.49397C 23.4875 8.1127 23.5732 7.61998 23.4357 7.16554L 22 7.60002ZM 12.6 -1.2207e-05L 12.6 -1.50001C 12.5931 -1.50001 12.5861 -1.49996 12.5792 -1.49987L 12.6 -1.2207e-05ZM -6.10352e-06 9.10002L 22 9.10002L 22 6.10002L -6.10352e-06 6.10002L -6.10352e-06 9.10002ZM 22 7.60002C 23.4357 7.16554 23.4355 7.16491 23.4353 7.16425C 23.4352 7.16399 23.435 7.1633 23.4349 7.16279C 23.4347 7.16215 23.4342 7.16059 23.4338 7.15933C 23.4333 7.15759 23.4321 7.15377 23.431 7.15031C 23.4294 7.14501 23.4261 7.13457 23.4228 7.12405C 23.4171 7.10627 23.4069 7.07457 23.3953 7.03977C 23.3743 6.97689 23.3383 6.87282 23.2944 6.75374C 23.2115 6.52958 23.0725 6.17991 22.8933 5.78754C 22.5466 5.0328 21.9533 3.9354 21.1511 2.88507C 19.5117 0.755192 16.7667 -1.50001 12.6 -1.50001L 12.6 1.49999C 15.5333 1.49999 17.4883 3.0448 18.7738 4.71495C 19.4342 5.56462 19.8597 6.36723 20.1661 7.0375C 20.3134 7.35763 20.4096 7.60171 20.4802 7.79318C 20.5131 7.88192 20.5334 7.94113 20.5496 7.98957C 20.5566 8.01044 20.5601 8.02142 20.5636 8.0324C 20.5648 8.03625 20.565 8.03672 20.5656 8.03872C 20.5656 8.03891 20.5654 8.03806 20.5653 8.03795C 20.5655 8.0383 20.5649 8.0364 20.5649 8.03657C 20.5648 8.03628 20.5647 8.03577 20.5646 8.03562C 20.5645 8.03508 20.5643 8.03451 22 7.60002ZM 12.5792 -1.49987C 8.4747 -1.44286 4.99556 0.708867 2.63596 2.68832C 1.44954 3.68653 0.469257 4.70831 -0.170917 5.43688C -0.498304 5.81012 -0.762768 6.13434 -0.932184 6.3493C -1.02015 6.46103 -1.09203 6.55516 -1.13665 6.6145C -1.16048 6.64622 -1.18078 6.67362 -1.19276 6.6899C -1.19948 6.69905 -1.20565 6.7075 -1.20901 6.71212C -1.21106 6.71493 -1.21314 6.7178 -1.21416 6.71921C -1.21485 6.72017 -1.21564 6.72126 -1.21599 6.72173C -1.21625 6.7221 -1.21658 6.72256 -1.21671 6.72274C -1.21702 6.72317 -1.21731 6.72357 -6.10352e-06 7.60002C 1.2173 8.47648 1.21705 8.47682 1.21682 8.47714C 1.21677 8.47721 1.21657 8.47749 1.21647 8.47763C 1.21648 8.47761 1.21609 8.47815 1.21612 8.4781C 1.21583 8.47851 1.21631 8.47785 1.21689 8.47706C 1.21877 8.47447 1.22045 8.47216 1.22416 8.46711C 1.23307 8.455 1.24396 8.44028 1.26144 8.41705C 1.29944 8.36647 1.35061 8.29937 1.42436 8.20583C 1.57838 8.01024 1.79204 7.74773 2.08341 7.41628C 2.68073 6.73547 3.50046 5.87599 4.56404 4.98669C 6.70444 3.19113 9.5253 1.54284 12.6208 1.49984L 12.5792 -1.49987Z"/>
<path id="path28_fill" d="M 91.6 2.44141e-05C 91.6 2.44141e-05 92 13.5 57.7 13.5C 23.4 13.5 16.6 2.44141e-05 16.6 2.44141e-05L 6.10352e-06 2.44141e-05C 6.10352e-06 2.44141e-05 2.99999 26.9 57.7 26.9C 105.1 26.9 106 2.44141e-05 106 2.44141e-05L 91.6 2.44141e-05Z"/>
<path id="path29_stroke" d="M 91.6 2.44141e-05L 91.6 -1.49998C 91.1945 -1.49998 90.8062 -1.33578 90.5238 -1.04481C 90.2413 -0.753845 90.0887 -0.360904 90.1007 0.0444466L 91.6 2.44141e-05ZM 16.6 2.44141e-05L 17.9397 -0.674761C 17.6848 -1.18076 17.1666 -1.49998 16.6 -1.49998L 16.6 2.44141e-05ZM 6.10352e-06 2.44141e-05L 6.10352e-06 -1.49998C -0.426765 -1.49998 -0.833332 -1.31819 -1.11789 -1.00013C -1.40245 -0.682073 -1.53805 -0.257863 -1.49075 0.166279L 6.10352e-06 2.44141e-05ZM 106 2.44141e-05L 107.499 0.0501832C 107.513 -0.356114 107.361 -0.750529 107.078 -1.04275C 106.796 -1.33497 106.407 -1.49998 106 -1.49998L 106 2.44141e-05ZM 91.6 2.44141e-05C 90.1007 0.0444466 90.1006 0.0426358 90.1006 0.0408763C 90.1006 0.0403566 90.1005 0.0386408 90.1005 0.0375984C 90.1005 0.038439 90.1003 0.0302205 90.1004 0.0319151C 90.1004 0.0328058 90.1002 0.0221546 90.1002 0.0240032C 90.1002 0.0226625 90.1003 0.019415 90.1002 0.0217244C 90.1001 0.0365823 90.1001 0.0417575 90.0984 0.0691653C 90.0944 0.145106 90.0887 0.21868 90.0672 0.354904C 90.02 0.672225 89.9419 1.0362 89.7309 1.55975C 89.3266 2.58634 88.46 4.05982 86.5712 5.58213C 82.7682 8.64725 74.6979 12 57.7 12L 57.7 15C 75.002 15 83.8818 11.6028 88.4538 7.91792C 90.7525 6.06523 91.9297 4.16371 92.5222 2.65905C 92.8097 1.91697 92.9684 1.22626 93.0332 0.805301C 93.0678 0.572384 93.087 0.35592 93.0939 0.234106C 93.0976 0.162637 93.0996 0.0920065 93.1 0.055778C 93.1002 0.0325442 93.1002 0.00725186 93.1001 -0.00438499C 93.1 -0.0127224 93.0999 -0.0227873 93.0998 -0.0269481C 93.0997 -0.0302778 93.0996 -0.0346556 93.0996 -0.0363169C 93.0995 -0.0377696 93.0995 -0.0397936 93.0995 -0.0405189C 93.0994 -0.042484 93.0994 -0.0443977 91.6 2.44141e-05ZM 57.7 12C 40.745 12 30.7376 8.66388 25.0241 5.44332C 22.1615 3.83903 20.4181 2.30011 19.2984 1.08956C 18.7609 0.512512 18.4289 0.072101 18.1966 -0.267743C 18.0894 -0.423442 18.0271 -0.524709 17.9776 -0.609046C 17.9568 -0.644112 17.9478 -0.660385 17.9378 -0.678742C 17.9347 -0.684376 17.9323 -0.689184 17.9338 -0.686261C 17.9336 -0.68657 17.9356 -0.682785 17.9355 -0.682926C 17.935 -0.68388 17.9375 -0.678976 17.9373 -0.679452C 17.9376 -0.678772 17.9382 -0.677598 17.9384 -0.677259C 17.939 -0.676036 17.9397 -0.674761 16.6 2.44141e-05C 15.2604 0.674809 15.2611 0.676188 15.2618 0.677616C 15.2621 0.678161 15.2628 0.679643 15.2634 0.680733C 15.264 0.682029 15.2657 0.685303 15.267 0.687893C 15.2688 0.691303 15.2728 0.699082 15.2764 0.705879C 15.2816 0.715934 15.2925 0.736335 15.3033 0.756245C 15.3211 0.788974 15.3545 0.848506 15.3919 0.912318C 15.4588 1.02573 15.576 1.21451 15.7218 1.42795C 15.9953 1.82639 16.4626 2.44066 17.0985 3.12924C 18.3257 4.44994 20.426 6.28602 23.5509 8.05673C 29.8124 11.5862 40.355 15 57.7 15L 57.7 12ZM 16.6 -1.49998L 6.10352e-06 -1.49998L 6.10352e-06 1.50002L 16.6 1.50002L 16.6 -1.49998ZM 6.10352e-06 2.44141e-05C -1.49075 0.166279 -1.49058 0.167846 -1.49039 0.169515C -1.49031 0.170209 -1.49011 0.171986 -1.48995 0.173374C -1.48974 0.175174 -1.48925 0.179352 -1.48882 0.182951C -1.48819 0.188188 -1.48686 0.199025 -1.48554 0.209473C -1.48337 0.226421 -1.47916 0.25787 -1.47434 0.291453C -1.46577 0.350629 -1.45 0.451403 -1.4294 0.56686C -1.39082 0.781413 -1.32045 1.12462 -1.21712 1.52894C -1.01772 2.30335 -0.646179 3.47641 -0.0442193 4.81918C 1.13522 7.42972 3.39673 11.0541 7.34256 14.5725C 15.2878 21.6146 30.1126 28.4 57.7 28.4L 57.7 25.4C 30.5874 25.4 16.5622 18.7354 9.33243 12.3275C 5.69077 9.1209 3.78354 6.02031 2.6911 3.5871C 2.15712 2.40801 1.86694 1.4795 1.68862 0.782828C 1.60308 0.451597 1.55558 0.216877 1.52351 0.0373872C 1.50878 -0.0441775 1.50103 -0.0944523 1.4949 -0.137071C 1.49238 -0.154385 1.49145 -0.161519 1.49031 -0.17043C 1.48999 -0.172912 1.48983 -0.174381 1.48998 -0.173103C 1.48994 -0.173444 1.49026 -0.170705 1.49024 -0.170869C 1.4903 -0.170298 1.49044 -0.169136 1.49047 -0.168852C 1.49061 -0.167592 1.49076 -0.16623 6.10352e-06 2.44141e-05ZM 57.7 28.4C 81.6874 28.4 94.2186 21.5846 100.732 14.4623C 103.945 10.9242 105.687 7.28055 106.544 4.66953C 106.98 3.32989 107.227 2.16341 107.35 1.39189C 107.414 0.990784 107.452 0.652628 107.472 0.439831C 107.482 0.326158 107.489 0.228095 107.493 0.169832C 107.495 0.137163 107.497 0.107092 107.497 0.0906054C 107.498 0.0806186 107.498 0.0704739 107.499 0.0654678C 107.499 0.0620994 107.499 0.0582686 107.499 0.0565844C 107.499 0.0553112 107.499 0.0537085 107.499 0.0530723C 107.499 0.0515767 107.499 0.0501832 106 2.44141e-05C 104.501 -0.0501344 104.501 -0.0513226 104.501 -0.0524086C 104.501 -0.0526351 104.501 -0.0536238 104.501 -0.0540792C 104.501 -0.0540304 104.501 -0.0557296 104.501 -0.0556192C 104.501 -0.0571292 104.501 -0.0545055 104.501 -0.0515628C 104.5 -0.0421908 104.5 -0.0336783 104.499 -0.0154497C 104.496 0.0280816 104.492 0.0810681 104.485 0.164417C 104.468 0.345662 104.441 0.585435 104.387 0.919877C 104.276 1.61944 104.082 2.55453 103.693 3.73676C 102.9 6.16948 101.455 9.25086 98.5181 12.4377C 92.7314 18.7654 81.1126 25.4 57.7 25.4L 57.7 28.4ZM 106 -1.49998L 91.6 -1.49998L 91.6 1.50002L 106 1.50002L 106 -1.49998Z"/>
<path id="path30_fill" d="M -6.10352e-06 16.7L 6.30001 16.7C 9.20001 16.7 11.5 14.4 11.5 11.5C 11.5 8.60001 9.20001 6.3 6.30001 6.3L 3.80001 6.3L 3.80001 1.2207e-05"/>
<path id="path31_stroke" d="M -6.10352e-06 15.2C -0.828433 15.2 -1.50001 15.8716 -1.50001 16.7C -1.50001 17.5285 -0.828433 18.2 -6.10352e-06 18.2L -6.10352e-06 15.2ZM 3.80001 6.3L 2.30001 6.3L 2.30001 7.8L 3.80001 7.8L 3.80001 6.3ZM 5.30001 1.2207e-05C 5.30001 -0.828415 4.62844 -1.49999 3.80001 -1.49999C 2.97158 -1.49999 2.30001 -0.828415 2.30001 1.2207e-05L 5.30001 1.2207e-05ZM -6.10352e-06 18.2L 6.30001 18.2L 6.30001 15.2L -6.10352e-06 15.2L -6.10352e-06 18.2ZM 6.30001 18.2C 10.0285 18.2 13 15.2284 13 11.5L 9.99999 11.5C 9.99999 13.5716 8.37157 15.2 6.30001 15.2L 6.30001 18.2ZM 13 11.5C 13 7.7716 10.0285 4.8 6.30001 4.8L 6.30001 7.8C 8.37157 7.8 9.99999 9.42843 9.99999 11.5L 13 11.5ZM 6.30001 4.8L 3.80001 4.8L 3.80001 7.8L 6.30001 7.8L 6.30001 4.8ZM 5.30001 6.3L 5.30001 1.2207e-05L 2.30001 1.2207e-05L 2.30001 6.3L 5.30001 6.3Z"/>
<path id="path32_fill" d="M 4.00001 59.1128C 8.70001 59.0128 13.3 45.0128 18.6 45.0128C 24 45.0128 29.3 43.7128 29.3 17.7128C 29.3 -8.28722 34 2.01277 34 2.01277C 34 2.01277 10.1 7.91277 10.3 9.01277C 10.5 10.1128 1.2207e-05 31.4128 1.2207e-05 33.0128C 1.2207e-05 34.6128 3.69999 57.3128 3.69999 57.3128L 4.00001 59.1128Z"/>
<path id="path33_stroke_2x" d="M 4.00001 59.1128L 3.01362 59.2772L 3.15593 60.131L 4.02128 60.1126L 4.00001 59.1128ZM 34 2.01277L 34.2397 2.98363L 35.4103 2.69463L 34.9098 1.59764L 34 2.01277ZM 3.69999 57.3128L 2.71301 57.4737L 2.7136 57.4772L 3.69999 57.3128ZM 4.02128 60.1126C 5.66117 60.0777 7.08479 58.8656 8.26734 57.5305C 9.48493 56.1525 10.703 54.3423 11.9007 52.5894C 13.0984 50.8365 14.2688 49.1478 15.4683 47.8911C 16.6822 46.615 17.711 46.0128 18.6 46.0128L 18.6 44.0128C 16.839 44.0128 15.3053 45.1606 14.0192 46.5126C 12.7187 47.884 11.4516 49.7016 10.2493 51.4611C 9.04705 53.2208 7.90259 54.9293 6.77018 56.2044C 5.60273 57.5225 4.68885 58.0979 3.97874 58.113L 4.02128 60.1126ZM 18.6 46.0128C 19.9802 46.0123 21.5209 45.9054 22.9375 45.3253C 24.4234 44.7006 25.7523 43.559 26.8477 41.601C 28.9864 37.7781 30.3 30.7152 30.3 17.7128L 28.3 17.7128C 28.3 30.7103 26.9636 37.2975 25.1023 40.6245C 24.1977 42.2415 23.1891 43.0499 22.1624 43.4815C 21.0666 43.9577 19.9198 44.0132 18.6 44.0128L 18.6 46.0128ZM 30.3 17.7128C 30.2994 11.2474 30.5871 7.09709 31.0212 4.45252C 31.2323 3.15595 31.4588 2.30647 31.7112 1.70153C 31.8266 1.41852 31.9106 1.26402 32.0183 1.12068C 32.1017 0.998914 32.2018 0.956151 32.1481 0.979883C 32.1514 1.03617 31.9394 0.932946 32.0433 1.00776C 32.1922 1.07428 32.2967 1.19294 32.4801 1.42844C 32.6649 1.66025 32.8057 1.89392 32.9243 2.10737C 32.9809 2.20875 33.0208 2.28642 33.0522 2.3494C 33.0666 2.37837 33.0758 2.3975 33.0835 2.41358C 33.0867 2.42042 33.0884 2.42389 33.0901 2.42753C 33.0906 2.42877 33.0907 2.42883 33.091 2.42948C 33.091 2.42952 33.0908 2.42917 33.0908 2.42914C 33.0908 2.42901 33.0906 2.4287 33.0906 2.42864C 33.0904 2.42829 33.0903 2.42791 34 2.01277C 34.9098 1.59764 34.9096 1.59717 34.9093 1.59667C 34.9092 1.59645 34.909 1.5959 34.9088 1.59546C 34.9085 1.59486 34.9079 1.59353 34.9073 1.59233C 34.9065 1.59051 34.9048 1.5869 34.9031 1.58328C 34.9003 1.57722 34.8952 1.56631 34.8896 1.55446C 34.8794 1.53315 34.8623 1.49762 34.8423 1.4575C 34.8048 1.38228 34.7437 1.26406 34.6718 1.13458C 34.5334 0.886315 34.307 0.518425 34.0512 0.190857C 33.794 -0.133014 33.3844 -0.53154 32.9825 -0.757989C 32.4831 -1.02363 31.8148 -1.13513 31.1519 -0.754327C 30.5726 -0.421553 30.1692 0.196752 29.863 0.937308C 29.5647 1.6644 29.2771 2.73523 29.0475 4.1293C 28.6004 6.86597 28.3006 11.1781 28.3 17.7128L 30.3 17.7128ZM 34 2.01277C 33.7603 1.04192 33.7602 1.04194 33.76 1.04199C 33.7598 1.04204 33.7595 1.04211 33.7592 1.04221C 33.7584 1.04239 33.7573 1.04267 33.7558 1.04303C 33.7529 1.04376 33.7485 1.04485 33.7427 1.04628C 33.7311 1.04914 33.7138 1.05342 33.6911 1.05905C 33.6457 1.07028 33.5783 1.087 33.4905 1.10881C 33.3153 1.15236 33.0578 1.21648 32.7306 1.29836C 32.0769 1.462 31.142 1.69729 30.0218 1.98282C 27.7824 2.5536 24.7939 3.32737 21.8134 4.13509C 18.833 4.94283 15.8426 5.7897 13.614 6.50251C 12.4951 6.86058 11.5364 7.1962 10.8735 7.47427C 10.5313 7.61847 10.211 7.77546 9.99914 7.90744C 9.87645 7.98636 9.70971 8.11931 9.60943 8.22436C 9.50943 8.3347 9.22411 8.68553 9.31613 9.19166L 11.2839 8.83389C 11.3634 9.27126 11.1126 9.54397 11.0914 9.56746C 11.0419 9.62206 11.0158 9.63086 11.0673 9.59833C 11.1836 9.52303 11.3562 9.44047 11.6484 9.31807C 12.2542 9.06294 13.1299 8.75715 14.2235 8.40741C 16.4199 7.70459 19.367 6.87021 22.3366 6.06546C 25.3061 5.26067 28.2801 4.4907 30.5158 3.92085C 31.633 3.63607 32.5638 3.40183 33.2163 3.23851C 33.5422 3.15691 33.7981 3.09321 33.9728 3.04979C 34.06 3.02811 34.1267 3.01158 34.1718 3.00041C 34.1943 2.99484 34.2113 2.99065 34.2227 2.98782C 34.2284 2.98642 34.2326 2.98537 34.2355 2.98466C 34.2369 2.98431 34.238 2.98405 34.2387 2.98388C 34.239 2.98379 34.2393 2.98373 34.2394 2.98368C 34.2396 2.98364 34.2397 2.98363 34 2.01277ZM 9.31613 9.19166C 9.2865 9.02867 9.31788 8.92364 9.30614 8.98452C 9.29881 9.0253 9.28791 9.06572 9.26052 9.15513C 9.20204 9.34854 9.11193 9.5992 8.98253 9.93257C 8.72029 10.609 8.33502 11.5172 7.85946 12.5996C 6.90662 14.7685 5.61628 17.5766 4.31623 20.408C 3.01617 23.2394 1.70633 26.0942 0.721602 28.3411C 0.228432 29.4665 -0.189108 30.4536 -0.481281 31.205C -0.628822 31.5848 -0.752559 31.9271 -0.835979 32.1914C -0.907851 32.4197 -0.999988 32.7371 -0.999988 33.0128L 1.00001 33.0128C 1.00001 33.0884 0.989906 33.0519 1.07175 32.7919C 1.14204 32.5678 1.24369 32.2874 1.38287 31.9295C 1.66413 31.2056 2.06534 30.2575 2.55342 29.1438C 3.53119 26.9126 4.83384 24.0737 6.13379 21.2425C 7.43373 18.4114 8.73089 15.5883 9.69054 13.4041C 10.1712 12.3099 10.5735 11.3611 10.8472 10.6559C 10.9857 10.2984 11.1007 9.97711 11.174 9.73687C 11.2126 9.60946 11.2493 9.46763 11.27 9.3632C 11.2862 9.27886 11.326 9.06562 11.2839 8.83389L 9.31613 9.19166ZM -0.999988 33.0128C -0.999988 33.2937 -0.929957 33.901 -0.832566 34.6459C -0.730664 35.4252 -0.584996 36.4513 -0.411175 37.6305C -0.0637674 39.9872 0.399475 42.9795 0.862172 45.9183C 1.32488 48.8571 1.78766 51.7464 2.1346 53.9C 2.3081 54.9769 2.45271 55.8704 2.55391 56.4944C 2.60452 56.8064 2.6443 57.0513 2.67141 57.218C 2.68497 57.3014 2.69537 57.3653 2.70238 57.4083C 2.70588 57.4299 2.70854 57.4462 2.71032 57.4571C 2.71121 57.4626 2.71189 57.4668 2.71234 57.4695C 2.71256 57.4709 2.71273 57.4719 2.71285 57.4726C 2.7129 57.473 2.71295 57.4732 2.71297 57.4734C 2.713 57.4736 2.71302 57.4737 3.69999 57.3128C 4.68697 57.1519 4.68696 57.1519 4.68693 57.1517C 4.6869 57.1515 4.68686 57.1513 4.6868 57.1509C 4.68669 57.1502 4.68653 57.1492 4.6863 57.1479C 4.68586 57.1451 4.68519 57.141 4.6843 57.1356C 4.68253 57.1247 4.67988 57.1084 4.67638 57.087C 4.66939 57.044 4.65902 56.9803 4.64548 56.897C 4.61839 56.7304 4.57868 56.486 4.52811 56.1742C 4.42697 55.5505 4.28252 54.6581 4.10914 53.5819C 3.76234 51.4292 3.30012 48.5435 2.83783 45.6073C 2.37554 42.671 1.91378 39.6884 1.56744 37.3388C 1.39439 36.1649 1.251 35.155 1.15056 34.3867C 1.04561 33.5839 1.00001 33.1318 1.00001 33.0128L -0.999988 33.0128ZM 2.7136 57.4772L 3.01362 59.2772L 4.9864 58.9484L 4.68639 57.1484L 2.7136 57.4772Z"/>
<path id="path34_fill" d="M 8.09999 0C 3.59999 0 1.2207e-05 3.59998 1.2207e-05 8.09998C 1.2207e-05 12.6 3.59999 16.2 8.09999 16.2L 12.7 16.2L 12.7 0L 8.09999 0Z"/>
<path id="path35_fill" d="M 14.1 19.2L 9.6 19.2C 4.3 19.2 -6.10352e-06 14.9 -6.10352e-06 9.59998C -6.10352e-06 4.29998 4.3 0 9.6 0L 14.2 0C 15 0 15.7 0.7 15.7 1.5C 15.7 2.3 15 3 14.2 3L 9.6 3C 6 3 2.99999 5.99998 2.99999 9.59998C 2.99999 13.2 6 16.2 9.6 16.2L 14.2 16.2C 15 16.2 15.7 16.9 15.7 17.7C 15.6 18.6 14.9 19.2 14.1 19.2Z"/>
<path id="path36_fill" d="M 13.1 -1.2207e-05C 13.1 -1.2207e-05 8.99999 8.2 -6.10352e-06 8.2L 26.2 8.2C 17.5 8 13.1 -1.2207e-05 13.1 -1.2207e-05Z"/>
<path id="path37_fill" d="M 75.4 11.1L 58.1 11.1C 51.4 11 47.1 6.7 45.1 4.1C 43.1 6.8 38.9 11.1 32 11.1L 1.5 11.1C 0.7 11.1 5.68434e-14 10.4 5.68434e-14 9.6C 5.68434e-14 8.8 0.7 8.1 1.5 8.1L 32 8.1C 39.9 8.1 43.6 1.10001 43.7 0.800012C 44 0.300012 44.5 2.44141e-05 45 2.44141e-05C 45.5 2.44141e-05 46.1 0.300012 46.3 0.800012C 46.3 0.900012 50.4 7.99998 58.1 8.19998L 75.4 8.19998C 76.2 8.19998 76.9 8.89998 76.9 9.69998C 76.9 10.4 76.2 11.1 75.4 11.1Z"/>
<path id="path38_fill" d="M 6.39999 2.69999C 4.79999 0.999988 2.49999 -2.44141e-05 -6.10352e-06 -2.44141e-05Z"/>
<path id="path39_stroke" d="M 5.48974 3.55669C 5.96288 4.05941 6.75398 4.08338 7.25669 3.61024C 7.75941 3.13709 7.78338 2.346 7.31024 1.84328L 5.48974 3.55669ZM -6.10352e-06 -1.25002C -0.690362 -1.25002 -1.25001 -0.69038 -1.25001 -2.44141e-05C -1.25001 0.690332 -0.690362 1.24998 -6.10352e-06 1.24998L -6.10352e-06 -1.25002ZM 7.31024 1.84328C 5.46694 -0.115225 2.83419 -1.25002 -6.10352e-06 -1.25002L -6.10352e-06 1.24998C 2.1658 1.24998 4.13304 2.1152 5.48974 3.55669L 7.31024 1.84328Z"/>
<path id="path40_fill" d="M 2.59999 6.79998C 2.59999 6.59998 2.59999 6.49998 2.59999 6.29998C 2.59999 3.79998 1.59999 1.59999 -1.2207e-05 -1.2207e-05"/>
<path id="path41_stroke" d="M 1.34999 6.79998C 1.34999 7.49033 1.90964 8.04998 2.59999 8.04998C 3.29035 8.04998 3.84999 7.49033 3.84999 6.79998L 1.34999 6.79998ZM 0.883871 -0.883896C 0.395716 -1.37205 -0.39574 -1.37205 -0.883896 -0.883896C -1.37205 -0.39574 -1.37205 0.395716 -0.883896 0.883871L 0.883871 -0.883896ZM 3.84999 6.79998C 3.84999 6.59998 3.84999 6.49998 3.84999 6.29998L 1.34999 6.29998C 1.34999 6.49998 1.34999 6.59998 1.34999 6.79998L 3.84999 6.79998ZM 3.84999 6.29998C 3.84999 3.45429 2.70808 0.940316 0.883871 -0.883896L -0.883896 0.883871C 0.491893 2.25966 1.34999 4.14566 1.34999 6.29998L 3.84999 6.29998Z"/>
<path id="path42_fill" d="M -6.10352e-06 8.49998C 4.79999 8.49998 8.69999 4.69998 8.99999 -2.44141e-05Z"/>
<path id="path43_stroke" d="M -6.10352e-06 7.24998C -0.690362 7.24998 -1.25001 7.80962 -1.25001 8.49998C -1.25001 9.19033 -0.690362 9.74998 -6.10352e-06 9.74998L -6.10352e-06 7.24998ZM 10.2475 0.0796008C 10.2914 -0.609353 9.76857 -1.20351 9.07962 -1.24749C 8.39067 -1.29146 7.79651 -0.768603 7.75253 -0.0796496L 10.2475 0.0796008ZM -6.10352e-06 9.74998C 5.47779 9.74998 9.90663 5.41923 10.2475 0.0796008L 7.75253 -0.0796496C 7.49336 3.98073 4.1222 7.24998 -6.10352e-06 7.24998L -6.10352e-06 9.74998Z"/>
</defs>
</svg>
