<svg width="232" height="231" viewBox="0 0 232 231" version="1.1" xmlns="http://www.w3.org/2000/svg" xmlns:xlink="http://www.w3.org/1999/xlink"><title>jackie</title><desc>Created using Figma</desc><use xlink:href="#a" fill="#FFF"/><use xlink:href="#b" transform="translate(31.2 9.34)" fill="#333"/><use xlink:href="#c" transform="translate(45.4 19.94)" fill="#333"/><use xlink:href="#d" transform="translate(72.5 104.64)" fill="#BDBDBD"/><g transform="translate(-10163 -4173)"><use xlink:href="#e" transform="translate(10235.6 4192.94)" fill="#333"/><mask id="f"><use xlink:href="#e" fill="#fff" transform="translate(10235.6 4192.94)"/></mask><use xlink:href="#g" transform="translate(10235.6 4192.94)" fill="#333" mask="url(#f)"/></g><use xlink:href="#h" transform="translate(158.3 104.64)" fill="#E0E0E0"/><g transform="translate(77.5 111.54)"><use xlink:href="#i" fill="#FFF"/><use xlink:href="#j" fill="#333"/></g><g transform="translate(81 64.64)"><use xlink:href="#k" fill="#FFF"/><use xlink:href="#l" fill="#333"/></g><g transform="translate(81 64.64)"><use xlink:href="#k" fill="#FFF"/><use xlink:href="#m" fill="#333"/></g><g transform="translate(111 93.44)"><use xlink:href="#n" fill="#FFF"/><use xlink:href="#o" fill="#333"/></g><use xlink:href="#p" transform="translate(100.1 93.34)" fill="#333"/><g transform="translate(150.3 93.44)"><use xlink:href="#q" fill="#FFF"/><use xlink:href="#r" fill="#333"/></g><g transform="translate(100.2 83.74)"><use xlink:href="#s" fill="#FFF"/><use xlink:href="#t" fill="#333"/></g><g transform="translate(141.2 83.54)"><use xlink:href="#u" fill="#FFF"/><use xlink:href="#v" fill="#333"/></g><use xlink:href="#w" transform="translate(142 93.34)" fill="#333"/><g transform="translate(115.1 132.94)"><use xlink:href="#x" fill="#FFF"/><use xlink:href="#y" fill="#333"/></g><g transform="translate(120 133.94)"><use xlink:href="#z" fill="#FFF"/><use xlink:href="#A" fill="#333"/></g><g transform="translate(120 126.34)"><use xlink:href="#B" fill="#FFF"/><use xlink:href="#C" fill="#333"/></g><g transform="translate(60.7 189.94)"><use xlink:href="#D" fill="#FFF"/><use xlink:href="#E" fill="#333"/></g><g transform="translate(129.5 97.24)"><use xlink:href="#F" fill="#FFF"/><use xlink:href="#G" fill="#333"/></g><g transform="translate(-10163 -4173)"><use xlink:href="#H" transform="translate(10225.3 4221.63)" fill="#333"/><mask id="I"><use xlink:href="#H" fill="#fff" transform="translate(10225.3 4221.63)"/></mask><use xlink:href="#J" transform="translate(10225.3 4221.63)" fill="#333" mask="url(#I)"/></g><g><use xlink:href="#K" transform="translate(72.8 93.04)" fill="#FFF"/><use xlink:href="#L" transform="translate(71 91.54)" fill="#333"/></g><g><use xlink:href="#M" transform="translate(119 58.84)" fill="#FFF"/><use xlink:href="#N" transform="translate(87.1 57.44)" fill="#333"/></g><g transform="translate(81.5 104.64)"><use xlink:href="#O" fill="#FFF"/><use xlink:href="#P" fill="#BDBDBD"/></g><g transform="translate(87.9 107.34)"><use xlink:href="#Q" fill="#FFF"/><use xlink:href="#R" fill="#BDBDBD"/></g><g transform="translate(81.5 114.14)"><use xlink:href="#S" fill="#FFF"/><use xlink:href="#T" fill="#BDBDBD"/></g><defs><path id="a" d="M231.045 115.5c0 63.789-51.721 115.5-115.522 115.5C51.721 231 0 179.289 0 115.5S51.721 0 115.523 0c63.801 0 115.522 51.711 115.522 115.5z"/><path id="b" d="M164.21 114.1c-.3-2.3-.9-4.3-2-6.1 0 0 0-.1-.1-.1-1-1.6-2.3-2.9-3.7-4 .5-.3 1-.7 1.4-1.1 1.1-1 1.9-2.3 2.6-3.9.3-.8.6-1.6.7-2.4.1-.8.2-1.6.2-2.4-.1-3.3-1.4-6.3-3.6-8.4-1.3-1.2-2.8-2-4.5-2.5 1.8-.8 3.3-2 4.5-3.6 1-1.4 1.7-2.9 2.1-4.4.4-1.7.4-3.4.1-5.1-.2-1.7-.9-3.3-1.9-4.9-.9-1.4-2.1-2.6-3.4-3.5-1.7-1.1-3.6-1.7-5.6-1.8 1.4-1 2.6-2.4 3.3-4.1.7-1.5 1-3.1 1-4.6 0-1.6-.3-3.3-1-4.9-1.4-3.2-3.9-5.6-6.9-6.6-2.2-.8-4.5-.8-6.6-.1.5-.5 1-1.1 1.4-1.7.9-1.3 1.4-2.8 1.6-4.3.2-1.6 0-3.2-.4-4.8-.6-1.7-1.4-3.2-2.6-4.5-1.3-1.4-2.7-2.4-4.1-3.1-1.5-.7-3.1-1-4.7-1.1-1 0-2 .2-2.9.4.4-1.8.3-3.7-.1-5.6-.5-1.9-1.4-3.8-2.6-5.3 0 0 0-.1-.1-.1-1.5-1.8-3.1-3.1-4.8-3.9-.9-.5-1.9-.9-3-1.2-.9-.3-1.9-.4-3-.5-2-.2-4 .1-5.9.8-2.2.8-4.2 2.2-5.6 4.1-.2-1.1-.6-2.1-1.2-3-1.5-2.3-4.1-4.1-7.3-4.6s-6.2.4-8.4 2.1c-2.1 1.7-3.4 4.3-3.3 7.1 0-3.2-1.5-6.1-3.9-8-2-1.6-4.6-2.4-7.2-2.4-.7 0-1.4.1-2.1.2-3.3.5-6.3 2.5-8.1 5.2-.6 1-1.1 2.1-1.3 3.1-1.3-1.3-2.9-2.3-4.6-2.9-3.6-1.3-7.8-1-11.6 1-1.8 1-3.4 2.4-4.6 4-1.2 1.6-2 3.3-2.4 5.2-.4 1.9-.4 3.8 0 5.6-1-.4-2.1-.5-3.2-.5h-.2c-1.6 0-3.2.4-4.7 1.1-1.6.8-3 1.9-4.1 3.2-1.2 1.5-2 3-2.5 4.5-.4 1.6-.6 3.2-.4 4.7.3 2.5 1.6 4.8 3.5 6.4-2.3-.9-4.7-.9-7.1-.1-.8.3-1.5.6-2.1 1-.6.4-1.2.9-1.8 1.5-1.3 1.3-2.2 2.7-2.8 4.1-.6 1.6-1 3.2-.9 4.8.1 1.6.4 3.1 1 4.4.7 1.5 1.7 2.7 2.9 3.7-2 .2-4 .8-5.7 2-3 2.1-5 5.2-5.5 8.7-.3 1.9-.2 3.7.2 5.4.4 1.7 1.2 3.2 2.2 4.5.3.3.5.6.8 1-1 .6-2 1.2-2.8 2.1-3 2.7-4.7 6.6-4.8 11-.1 2.6.6 5 1.2 6.4.9 2.1 2.1 3.8 3.6 5.2 1.4 1.3 2.9 2.2 4.6 2.9-.4.5-.8 1-1.1 1.5-.8 1.3-1.2 2.9-1.4 4.7-.1 1.7.1 3.5.7 5.3.8 1.9 1.7 3.4 2.9 4.6 1.4 1.3 2.7 2.2 4.1 2.8 1.1.4 2.3.6 3.4.6.8 0 1.5-.1 2.2-.3-1.3 1.8-2 3.9-1.9 6.1 0 3.5 1.8 7.2 5 9.8 2.4 1.9 5.3 3 8.2 3 .8 0 1.6-.1 2.3-.2 2.1-.4 4-1.5 5.5-3-.1 1.8.3 3.6 1.1 5.4 1.5 2.9 4.4 5.1 7.7 5.9 1 .3 2.1.4 3.1.4 2.3 0 4.4-.6 6.3-1.9 1.1-.7 2-1.7 2.8-2.7.5 1.7 1.4 3.3 2.6 4.7 2.4 2.7 5.9 4.3 9.6 4.5h.5c3.6 0 6.9-1.4 9.4-3.8 1.1-1.2 2-2.5 2.7-4 .5 1 1.2 1.9 2 2.7 2.1 2.1 5 3.3 8.1 3.3h.5c3.2-.1 6.3-1.6 8.3-3.9 1-1.1 1.8-2.5 2.2-3.9.9 1.7 2.2 3.1 3.8 4.1 2 1.3 4.4 2 6.9 2 1.2 0 2.4-.2 3.5-.5 1.8-.4 3.5-1.3 5.1-2.6 1.5-1.3 2.6-2.6 3.3-4.1 1.1-2.2 1.5-4.6 1.1-6.9 1.3 1.2 2.8 2 4.6 2.4.5.1 1.1.2 1.7.2.9 0 1.9-.1 2.9-.4.7-.2 1.5-.5 2.3-.9.9-.5 1.6-.9 2.2-1.5.7-.6 1.3-1.2 1.9-1.9.5-.6.9-1.3 1.3-2.2.7-1.4 1.1-2.9 1.1-4.6 0-.8-.1-1.5-.3-2.2.6.1 1.2.1 1.8.1 1.7 0 3.3-.3 4.9-.9h.1c2-.8 3.8-2.1 5.4-3.7l.2-.2c1.6-1.9 2.8-3.9 3.5-6 .3-1.1.6-2.2.7-3.2.2-1.6.2-2.8 0-3.9zm-59.3 27.4c-.7-1.1-1.5-2.1-2.5-3-2.1-1.9-4.6-2.8-7.3-2.8h-.5c-4.2.2-7.8 2.7-9.7 6.4-2-4.6-6.4-7.9-11.6-8.1-3.3-.1-6.5 1-9 3.3-1.1 1-2.1 2.2-2.8 3.5-.3-1-.8-1.9-1.4-2.8-1.5-2.4-3.8-4.1-6.4-4.8-2.6-.6-5.2-.3-7.7 1.1-1.3.7-2.4 1.6-3.4 2.6.2-1.8.1-3.5-.2-4.8-.6-3-1.9-5.3-3.8-6.8-1-.9-2.3-1.4-3.5-1.8-.6-.2-1.3-.3-2.1-.4-.6-.1-1.2-.1-1.9-.1-1.5.1-3 .3-4.4.8.8-1.1 1.5-2.3 2-3.5.5-1.4.8-2.6.9-3.7 0-1 0-2.4-.5-3.6-.4-1.2-1-2.3-1.9-3.2-.8-.9-1.8-1.8-3.1-2.4-.1-.1-.3-.1-.4-.2.9-.6 1.8-1.4 2.5-2.2 1.3-1.4 2.3-2.8 2.9-4.3.7-1.6 1.1-3.3 1.2-5.4.1-3.7-1.3-7.4-4.1-10.5-.6-.6-1.3-1.2-1.9-1.7.1-.1.3-.2.4-.3 1.3-1 2.3-2.1 3.1-3.4.9-1.4 1.5-2.9 1.7-4.5.4-3.2-.3-6.3-2.1-8.8-1-1.5-2.2-2.7-3.6-3.6 1.3-.1 2.6-.5 3.9-1.1 1.3-.6 2.4-1.4 3.3-2.3 1.1-1 1.8-2.1 2.3-3.3.4-1.1.8-2.4.7-3.8 0-.6-.1-1.3-.2-2s-.3-1.3-.5-1.9c-.7-2-2-3.8-3.6-5.2 1.5.6 3.1.9 4.7.9.6 0 1.2 0 1.7-.1 1.4-.2 2.7-.6 3.8-1.1 1.4-.7 2.4-1.5 3.1-2.4.9-1.1 1.6-2.2 1.9-3.4.4-1.3.6-2.6.5-3.9 0-.8-.1-1.5-.2-2.2 1.1.6 2.3 1 3.5 1.3 1.2.3 2.3.4 3.4.4.5 0 .9 0 1.4-.1 1.7-.2 3.2-.6 4.5-1.4 2.7-1.4 4.8-3.9 6-7.3.4-1.2.7-2.5.8-3.8.6.5 1.2 1 1.8 1.4 1.9 1.2 3.9 1.9 6 1.9.5 0 1.1 0 1.7-.1 2.6-.4 4.9-1.9 6.7-4.2 1.8-2.3 2.8-5.2 2.8-8 0 2.8 1.1 5.3 2.6 7.2 1.5 1.9 3.5 3.2 5.9 3.6 2.4.4 4.7-.3 6.8-1.6.7-.5 1.3-1 1.9-1.6 0 1.7.4 3.4 1 5.2.5 1.5 1.3 2.9 2.4 4.2.5.6 1.1 1.2 1.8 1.8.7.6 1.4 1.1 2.2 1.5 0 0 .1 0 .1.1 1.2.6 2.8 1.2 4.7 1.3h1.2c1.2 0 2.4-.2 3.6-.5 1.2-.3 2.3-.7 3.3-1.2-.1.5-.1 1.1-.1 1.6 0 1.4.2 2.8.6 3.9.5 1.4 1.1 2.5 1.9 3.4.9 1 2 1.9 3.1 2.4 1.2.6 2.5 1 3.8 1.1.5.1 1 .1 1.5.1.9 0 1.8-.1 2.6-.3.6-.1 1.1-.3 1.7-.5-1.4 1.4-2.5 3.1-3.2 5-1 2.9-.9 5.6.1 7.9.5 1.3 1.3 2.4 2.3 3.4 1.1 1 2.2 1.8 3.3 2.3 1.3.6 2.7.9 4.1 1.1h.3c-1.4 1-2.7 2.2-3.6 3.6-.9 1.3-1.5 2.7-1.8 4.1-.3 1.4-.4 2.8-.1 4.4.2 1.5.8 2.9 1.7 4.2.8 1.3 1.8 2.4 3 3.2 1.4 1.1 3 1.8 4.7 2.2-1.4.6-2.7 1.6-3.8 2.8-2 2.2-3.1 5-3.1 7.8 0 .7.1 1.5.3 2.2.1.7.4 1.3.6 1.9.5 1.1 1.3 2.3 2.3 3.3l.4.4c-1 .4-2 .8-2.9 1.4-1.6 1-3 2.1-4 3.3l-.1.1c-.4.5-.8 1.1-1.3 1.7 0 0 0 .1-.1.1-.5.8-.9 1.7-1.2 2.6-.6 1.8-.8 3.5-.6 5.2.1 1.6.5 3.2 1.2 4.7.4 1 .9 2 1.5 2.9h-.7c-1 0-2.1.1-3.3.4-.5.1-1 .3-1.5.6-.5.2-1 .6-1.4.9l-.1.1c-.4.3-.7.7-1.1 1.1-.4.4-.6 1-.9 1.4-.5.9-.8 1.9-1.1 3.4-.3 1.4-.3 2.8-.1 4.2-1.2-1.4-2.7-2.6-4.4-3.4-1.4-.7-2.8-1.2-4.1-1.3-1.4-.2-2.9-.2-4.5.3-2.9.8-5.4 2.7-7.1 5.3-.3 1.2-.9 2.7-1.2 4.2z"/><path id="c" d="M68.7 0h-.6C50.8 0 0 8.6 0 85.8c0 50.9 46.4 50.9 68.2 50.9l.2-7.4.2 7.4c21.8 0 68.2 0 68.2-50.9C136.8 8.6 86 0 68.7 0z"/><path id="d" d="M9 1.25a1.25 1.25 0 1 0 0-2.5v2.5zm0 18a1.25 1.25 0 0 0 0-2.5v2.5zm0-20.5C3.31-1.25-1.25 3.31-1.25 9h2.5c0-4.31 3.44-7.75 7.75-7.75v-2.5zM-1.25 9c0 5.69 4.56 10.25 10.25 10.25v-2.5c-4.31 0-7.75-3.44-7.75-7.75h-2.5z"/><path id="e" d="M44 85.8c24.3 0 44-19.207 44-42.9C88 19.207 68.3 0 44 0S0 19.207 0 42.9c0 23.693 19.7 42.9 44 42.9z"/><path id="g" d="M87 42.9c0 23.117-19.228 41.9-43 41.9v2c24.829 0 45-19.631 45-43.9h-2zM44 84.8c-23.772 0-43-18.783-43-41.9h-2c0 24.269 20.171 43.9 45 43.9v-2zM1 42.9C1 19.783 20.228 1 44 1v-2C19.171-1-1 18.631-1 42.9h2zM44 1c23.772 0 43 18.783 43 41.9h2C89 18.631 68.829-1 44-1v2z"/><path id="h" d="M0 16.75a1.25 1.25 0 1 0 0 2.5v-2.5zm0-18a1.25 1.25 0 1 0 0 2.5v-2.5zm0 20.5c5.69 0 10.25-4.56 10.25-10.25h-2.5c0 4.31-3.44 7.75-7.75 7.75v2.5zM10.25 9C10.25 3.31 5.69-1.25 0-1.25v2.5c4.31 0 7.75 3.44 7.75 7.75h2.5z"/><path id="i" d="M75 78.3c-7.3 0-13.2-5.9-13.2-13.2V0H13.2v65.2c0 7.3-5.9 13.2-13.2 13.2 0 0 6.9 13.5 41.1 13.5C75.4 91.8 75 78.3 75 78.3z"/><path id="j" d="M75 78.3l1.5-.044A1.5 1.5 0 0 0 75 76.8v1.5zM61.8 0h1.5a1.5 1.5 0 0 0-1.5-1.5V0zM13.2 0v-1.5A1.5 1.5 0 0 0 11.7 0h1.5zM0 78.4v-1.5a1.5 1.5 0 0 0-1.336 2.183L0 78.4zm41.1 13.5v1.5h.004l-.004-1.5zM75 76.8c-6.472 0-11.7-5.228-11.7-11.7h-3c0 8.128 6.572 14.7 14.7 14.7v-3zM63.3 65.1V0h-3v65.1h3zM61.8-1.5H13.2v3h48.6v-3zM11.7 0v65.2h3V0h-3zm0 65.2c0 6.472-5.228 11.7-11.7 11.7v3c8.128 0 14.7-6.572 14.7-14.7h-3zM0 78.4a69.618 69.618 0 0 0-1.334.685l.001.004.004.007.01.017a4.375 4.375 0 0 0 .116.206c.068.113.186.302.333.515.276.398.746 1.011 1.386 1.699 1.235 1.32 3.343 3.154 6.474 4.924C13.262 89.986 23.804 93.4 41.1 93.4v-3c-16.904 0-26.912-3.336-32.64-6.557-2.87-1.605-4.623-3.146-5.75-4.357a11.531 11.531 0 0 1-1.113-1.36 5.45 5.45 0 0 1-.263-.412l-.004-.008a.196.196 0 0 1 .004.009c.001.001.002.002-1.334.685zm41.104 15c17.303-.05 26.181-3.474 30.752-7.171 2.298-1.86 3.474-3.763 4.067-5.269a9.38 9.38 0 0 0 .51-1.855c.035-.233.054-.45.06-.57a5.006 5.006 0 0 0 .007-.24v-.022a.44.44 0 0 1 0-.01v-.004c0-.002 0-.003-1.5.041-1.5.044-1.5.043-1.5.04v-.002-.006-.008-.002l-.002.047a2.48 2.48 0 0 1-.03.286 5.034 5.034 0 0 1-.337 1.207c-.405 1.029-1.272 2.506-3.162 4.034-3.804 3.078-11.876 6.454-28.873 6.504l.008 3z"/><path id="k" d="M0 0v41.1c0 21.9 13.5 56 50.3 56 9.6 0 28.8-20.1 28.8-48.8V0H0z"/><path id="l" d="M79.1 0h1.5a1.5 1.5 0 0 0-1.5-1.5V0zM0-1.5a1.5 1.5 0 1 0 0 3v-3zM-1.5 0v41.1h3V0h-3zm0 41.1c.01 11.127 3.51 25.57 11.626 37.08C18.349 89.791 31.358 98.6 50.3 98.6v-3c-17.858 0-29.998-8.242-37.726-19.154C4.741 65.43 1.49 51.873 1.5 41.1h-3zm51.8 57.5c2.867 0 6.183-1.47 9.443-3.884 3.246-2.41 6.715-5.994 9.788-10.396C75.622 75.558 80.574 62.93 80.6 48.3h-3c.026 14.07-4.622 25.842-10.53 34.305-2.928 4.21-6.059 7.445-9.113 9.7-3.04 2.252-5.724 3.295-7.657 3.295v3zm30.3-50.3V0h-3v48.3h3zM79.1-1.5H0v3h79.1v-3z"/><path id="m" d="M79.1 0h1.5v-1.5h-1.5V0zM-1.5 0v41.1h3V0h-3zm0 41.1c.01 11.127 3.51 25.57 11.626 37.08C18.349 89.791 31.358 98.6 50.3 98.6v-3c-17.858 0-29.998-8.242-37.726-19.154C4.741 65.43 1.49 51.873 1.5 41.1h-3zm51.8 57.5c2.867 0 6.183-1.47 9.443-3.884 3.246-2.41 6.715-5.994 9.788-10.396C75.622 75.558 80.574 62.93 80.6 48.3h-3c.026 14.07-4.622 25.842-10.53 34.305-2.928 4.21-6.059 7.445-9.113 9.7-3.04 2.252-5.724 3.295-7.657 3.295v3zm30.3-50.3V0h-3v48.3h3zM79.1-1.5H0v3h79.1v-3z"/><path id="n" d="M5.4 2.7c0 1.5-1.2 2.7-2.7 2.7C1.2 5.4 0 4.2 0 2.7 0 1.2 1.2 0 2.7 0c1.5 0 2.7 1.2 2.7 2.7z"/><path id="o" d="M3.9 2.7c0 .672-.528 1.2-1.2 1.2v3c2.328 0 4.2-1.872 4.2-4.2h-3zM2.7 3.9c-.672 0-1.2-.528-1.2-1.2h-3c0 2.328 1.872 4.2 4.2 4.2v-3zM1.5 2.7c0-.672.528-1.2 1.2-1.2v-3a4.189 4.189 0 0 0-4.2 4.2h3zm1.2-1.2c.672 0 1.2.528 1.2 1.2h3c0-2.328-1.872-4.2-4.2-4.2v3z"/><path id="p" d="M0-1.5a1.5 1.5 0 1 0 0 3v-3zm24.1 3a1.5 1.5 0 0 0 0-3v3zM0 1.5h24.1v-3H0v3z"/><path id="q" d="M5.4 2.7c0 1.5-1.2 2.7-2.7 2.7C1.2 5.4 0 4.2 0 2.7 0 1.2 1.2 0 2.7 0c1.5 0 2.7 1.2 2.7 2.7z"/><path id="r" d="M3.9 2.7c0 .672-.528 1.2-1.2 1.2v3c2.328 0 4.2-1.872 4.2-4.2h-3zM2.7 3.9c-.672 0-1.2-.528-1.2-1.2h-3c0 2.328 1.872 4.2 4.2 4.2v-3zM1.5 2.7c0-.672.528-1.2 1.2-1.2v-3a4.189 4.189 0 0 0-4.2 4.2h3zm1.2-1.2c.672 0 1.2.528 1.2 1.2h3c0-2.328-1.872-4.2-4.2-4.2v3z"/><path id="s" d="M24 4.2S19.2 0 12 0C4.7 0 0 4.2 0 4.2"/><path id="t" d="M23.012 5.329a1.5 1.5 0 0 0 1.976-2.258L23.012 5.33zM-.999 3.082A1.5 1.5 0 0 0 1 5.319l-2-2.237zM24 4.2c.988-1.129.987-1.13.987-1.13h-.001l-.002-.002-.006-.006a2.474 2.474 0 0 0-.018-.014L24.905 3a16.095 16.095 0 0 0-.907-.686A21.646 21.646 0 0 0 21.37.758C19.184-.332 15.85-1.479 12-1.5v3c3.349-.021 6.016.932 8.03 1.942.981.488 1.712.955 2.247 1.33a11.711 11.711 0 0 1 .735.556l.003.004V5.33h-.001l-.001-.001L24 4.2zM12-1.5C8.099-1.479 4.764-.33 2.588.76A20.979 20.979 0 0 0-.02 2.32a15.502 15.502 0 0 0-.897.69 6.451 6.451 0 0 0-.078.068l-.003.002C-1 3.082-1 3.083 0 4.2a209.012 209.012 0 0 1 .998 1.12H.997v.002c-.002 0 0-.001.002-.003l.027-.023.13-.108c.132-.106.308-.242.56-.421a16.6 16.6 0 0 1 2.22-1.327c2-1.01 4.665-1.961 8.064-1.94v-3z"/><path id="u" d="M18.9 4.6V2.1C17 1 14.3 0 11.1 0 4.4 0 0 4.6 0 4.6"/><path id="v" d="M17.4 4.6a1.5 1.5 0 0 0 3 0h-3zm1.5-2.5h1.5v-.865l-.748-.433L18.9 2.1zM-1.084 3.563a1.5 1.5 0 1 0 2.168 2.074l-2.168-2.074zM20.4 4.6V2.1h-3v2.5h3zM19.652.802C17.639-.358 14.565-1.476 11.1-1.5v3c2.935-.024 5.261.857 7.048 1.898L19.652.802zM11.1-1.5c-3.643.029-6.797 1.309-8.828 2.51a19.621 19.621 0 0 0-2.44 1.72 15.235 15.235 0 0 0-.839.755 6.673 6.673 0 0 0-.068.068l-.005.006-.002.002-.001.001S-1.084 3.563 0 4.6a208.992 208.992 0 0 1 1.083 1.038l-.001.001-.001.001.003-.003.025-.025c.03-.03.065-.065.122-.118.123-.116.287-.265.522-.46a15.24 15.24 0 0 1 2.05-1.444C5.647 2.49 8.043 1.47 11.1 1.5v-3z"/><path id="w" d="M0-1.5a1.5 1.5 0 1 0 0 3v-3zm18.1 3a1.5 1.5 0 0 0 0-3v3zM0 1.5h18.1v-3H0v3z"/><path id="x" d="M0 0l15.9 3 14.9-3"/><path id="y" d="M.278-1.474a1.5 1.5 0 1 0-.556 2.948l.556-2.948zM15.9 3l-.278 1.474.287.054.287-.057L15.9 3zm15.196-1.53a1.5 1.5 0 0 0-.592-2.94l.592 2.94zm-31.374.004l15.9 3 .556-2.948-15.9-3-.556 2.948zm16.474 2.997l14.9-3-.592-2.941-14.9 3 .592 2.94z"/><path id="z" d="M0 0h22s-2.3 7.6-9.4 7.6C5.4 7.6 0 0 0 0z"/><path id="A" d="M0 0v-1.5A1.5 1.5 0 0 0-1.223.869L0 0zm22 0l1.436.435A1.5 1.5 0 0 0 22-1.5V0zM0 1.5h22v-3H0v3zM22 0c-1.436-.434-1.436-.435-1.435-.436v-.002l-.001.006a10.223 10.223 0 0 1-.398.995c-.306.67-.732 1.472-1.392 2.322C17.488 4.555 15.534 6.1 12.6 6.1v3c4.167 0 6.912-2.255 8.551-4.385a15.88 15.88 0 0 0 1.742-2.902c.18-.393.319-.743.401-.967a10.33 10.33 0 0 0 .129-.37L23.43.45a.481.481 0 0 0 .003-.01V.438l.001-.001L22 0zm-9.4 6.1c-3.081 0-5.893-1.64-8.032-3.446A22.218 22.218 0 0 1 1.267-.809a5.475 5.475 0 0 1-.045-.06L0 0c-1.223.869-1.222.87-1.222.87l.002.003.006.007a5.29 5.29 0 0 0 .072.1 23.138 23.138 0 0 0 .966 1.192 26.61 26.61 0 0 0 2.808 2.774C4.992 6.94 8.482 9.1 12.6 9.1v-3z"/><path id="B" d="M0 7.6h22S19.7 0 12.6 0C5.4.1 0 7.6 0 7.6z"/><path id="C" d="M0 7.6l-1.217-.876A1.5 1.5 0 0 0 0 9.1V7.6zm22 0v1.5a1.5 1.5 0 0 0 1.436-1.934L22 7.6zM12.6 0v-1.5h-.02L12.6 0zM0 9.1h22v-3H0v3zm22-1.5c1.436-.434 1.436-.435 1.435-.436v-.001l-.001-.004a.461.461 0 0 0-.003-.009l-.008-.026a7.769 7.769 0 0 0-.129-.37 14.643 14.643 0 0 0-.4-.966 15.88 15.88 0 0 0-1.743-2.903C19.511.755 16.767-1.5 12.6-1.5v3c2.933 0 4.888 1.545 6.174 3.215.66.85 1.086 1.652 1.392 2.322a10.222 10.222 0 0 1 .384.953l.014.042c0 .004.001.005.002.007v-.001l-.001-.001v-.001L22 7.6zm-9.42-9.1C8.474-1.443 4.995.71 2.635 2.688A26.849 26.849 0 0 0-.171 5.437a23.193 23.193 0 0 0-.966 1.177 9.947 9.947 0 0 0-.08.109L0 7.6l1.217.877v.001c-.001 0 0 0 0 0a1.856 1.856 0 0 1 .044-.061l.163-.211a22.458 22.458 0 0 1 3.14-3.22c2.14-1.795 4.961-3.443 8.057-3.486l-.042-3z"/><path id="D" d="M91.6 0s.4 13.5-33.9 13.5S16.6 0 16.6 0H0s3 26.9 57.7 26.9C105.1 26.9 106 0 106 0H91.6z"/><path id="E" d="M91.6 0v-1.5A1.5 1.5 0 0 0 90.1.044L91.6 0zm-75 0l1.34-.675A1.5 1.5 0 0 0 16.6-1.5V0zM0 0v-1.5A1.5 1.5 0 0 0-1.49.166L0 0zm106 0l1.499.05A1.497 1.497 0 0 0 106-1.5V0zM91.6 0c-1.5.044-1.5.043-1.5.04V.039.032.024.022l-.002.047c-.004.076-.01.15-.03.286a5.01 5.01 0 0 1-.337 1.205c-.404 1.026-1.271 2.5-3.16 4.022C82.768 8.647 74.698 12 57.7 12v3c17.302 0 26.182-3.397 30.754-7.082 2.299-1.853 3.476-3.754 4.068-5.259a9.356 9.356 0 0 0 .511-1.854 4.958 4.958 0 0 0 .067-.81v-.022-.01-.004c0-.001 0-.003-1.5.041zM57.7 12c-16.955 0-26.962-3.336-32.676-6.557C22.161 3.84 20.418 2.3 19.298 1.09a11.362 11.362 0 0 1-1.101-1.358 5.315 5.315 0 0 1-.26-.41l-.003-.008.002.003a.109.109 0 0 0 .002.006c.001.001.002.002-1.338.677s-1.339.676-1.338.678l.001.003.004.007.01.018a3.58 3.58 0 0 0 .115.206c.067.114.184.303.33.516.273.398.74 1.013 1.377 1.701 1.227 1.32 3.327 3.157 6.452 4.928C29.812 11.587 40.355 15 57.7 15v-3zM16.6-1.5H0v3h16.6v-3zM0 0c-1.49.166-1.49.168-1.49.17v.003a3.956 3.956 0 0 0 .016.118c.008.06.024.16.045.276.038.214.109.558.212.962.2.774.57 1.947 1.173 3.29 1.18 2.61 3.44 6.235 7.387 9.753C15.288 21.615 30.113 28.4 57.7 28.4v-3c-27.113 0-41.138-6.665-48.368-13.072-3.641-3.207-5.548-6.308-6.64-8.74A16.812 16.812 0 0 1 1.688.782 9.778 9.778 0 0 1 1.49-.17v-.003.004c0 .001 0 .003-1.49.169zm57.7 28.4c23.987 0 36.519-6.815 43.032-13.938 3.213-3.538 4.955-7.181 5.812-9.792.436-1.34.683-2.507.806-3.278.064-.401.102-.74.122-.952.01-.114.017-.212.021-.27l.004-.08.002-.025V.057.053c0-.001 0-.003-1.499-.053-1.499-.05-1.499-.051-1.499-.052v-.002-.002.004l-.002.037-.014.18c-.017.18-.044.42-.098.755-.111.7-.305 1.635-.694 2.817-.793 2.432-2.238 5.514-5.175 8.7C92.731 18.766 81.113 25.4 57.7 25.4v3zM106-1.5H91.6v3H106v-3z"/><path id="F" d="M0 16.7h6.3c2.9 0 5.2-2.3 5.2-5.2 0-2.9-2.3-5.2-5.2-5.2H3.8V0"/><path id="G" d="M0 15.2a1.5 1.5 0 0 0 0 3v-3zm3.8-8.9H2.3v1.5h1.5V6.3zM5.3 0a1.5 1.5 0 1 0-3 0h3zM0 18.2h6.3v-3H0v3zm6.3 0c3.728 0 6.7-2.972 6.7-6.7h-3c0 2.072-1.628 3.7-3.7 3.7v3zm6.7-6.7c0-3.728-2.972-6.7-6.7-6.7v3c2.072 0 3.7 1.628 3.7 3.7h3zM6.3 4.8H3.8v3h2.5v-3zm-1 1.5V0h-3v6.3h3z"/><path id="H" d="M4 59.113c4.7-.1 9.3-14.1 14.6-14.1 5.4 0 10.7-1.3 10.7-27.3s4.7-15.7 4.7-15.7-23.9 5.9-23.7 7c.2 1.1-10.3 22.4-10.3 24 0 1.6 3.7 24.3 3.7 24.3l.3 1.8z"/><path id="J" d="M4 59.113l-.986.164.142.854.865-.018-.021-1zm30-57.1l.24.97 1.17-.288-.5-1.097-.91.415zm-30.3 55.3l-.987.16v.004l.987-.164zm.321 2.8c1.64-.035 3.064-1.247 4.246-2.582 1.218-1.378 2.436-3.189 3.634-4.942 1.197-1.752 2.368-3.441 3.567-4.698 1.214-1.276 2.243-1.878 3.132-1.878v-2c-1.761 0-3.295 1.148-4.58 2.5-1.301 1.371-2.568 3.189-3.77 4.948-1.203 1.76-2.347 3.468-3.48 4.743-1.167 1.319-2.081 1.894-2.791 1.909l.042 2zm14.579-14.1c1.38 0 2.92-.108 4.337-.688 1.486-.624 2.815-1.766 3.91-3.724 2.14-3.823 3.453-10.886 3.453-23.888h-2c0 12.997-1.336 19.584-3.198 22.911-.904 1.617-1.913 2.426-2.94 2.857-1.095.477-2.242.532-3.562.532v2zm11.7-28.3c0-6.466.287-10.616.721-13.26.211-1.297.438-2.147.69-2.751.116-.283.2-.438.307-.581.084-.122.184-.165.13-.141.003.056-.209-.047-.105.028.15.066.254.185.437.42.185.232.326.466.444.68a5.667 5.667 0 0 1 .16.306l.006.014.001.001.909-.416.91-.416-.001-.002-.002-.003-.004-.009a4.148 4.148 0 0 0-.06-.125A7.752 7.752 0 0 0 34.051.19c-.258-.324-.668-.723-1.07-.949-.499-.266-1.167-.377-1.83.004-.58.332-.983.95-1.289 1.691-.298.727-.586 1.798-.816 3.192-.447 2.737-.746 7.05-.747 13.584h2zm3.7-15.7l-.24-.971-.004.001a3.126 3.126 0 0 1-.065.016 229.07 229.07 0 0 0-.96.24 579.48 579.48 0 0 0-10.917 2.837c-2.981.807-5.971 1.654-8.2 2.367-1.119.358-2.078.693-2.74.971a6.715 6.715 0 0 0-.875.433 2.45 2.45 0 0 0-.39.317c-.1.11-.385.462-.293.968l1.968-.358c.08.437-.171.71-.193.733-.05.055-.075.064-.024.031.117-.075.29-.158.581-.28.606-.255 1.482-.56 2.575-.91 2.197-.703 5.144-1.538 8.114-2.343a576.556 576.556 0 0 1 10.88-2.826A442.885 442.885 0 0 1 34.171 3l.05-.012.014-.003.003-.001L34 2.013zM9.316 9.192c-.03-.163.002-.268-.01-.207-.007.04-.018.08-.045.17-.059.194-.15.444-.278.778A70.493 70.493 0 0 1 7.859 12.6c-.952 2.168-2.243 4.977-3.543 7.808-1.3 2.831-2.61 5.686-3.594 7.933a78.624 78.624 0 0 0-1.203 2.864c-.148.38-.272.722-.355.986-.072.229-.164.546-.164.822h2c0 .075-.01.039.072-.221.07-.224.172-.505.31-.863a75.82 75.82 0 0 1 1.171-2.785c.978-2.231 2.28-5.07 3.58-7.901 1.3-2.832 2.598-5.655 3.558-7.839.48-1.094.882-2.043 1.156-2.748.139-.358.254-.679.327-.92a4.26 4.26 0 0 0 .096-.373c.016-.084.056-.297.014-.53l-1.968.359zM-1 33.012c0 .282.07.889.167 1.634.102.78.248 1.805.422 2.984.347 2.357.81 5.35 1.273 8.288a2331.305 2331.305 0 0 0 1.85 11.555h.001l.987-.16.987-.161v-.001a.153.153 0 0 0-.003-.015l-.008-.049-.03-.19a1807.205 1807.205 0 0 1-.537-3.315 2325.13 2325.13 0 0 1-1.271-7.975 911.86 911.86 0 0 1-1.27-8.268 193.059 193.059 0 0 1-.417-2.952C1.046 33.584 1 33.132 1 33.013h-2zm3.714 24.465l.3 1.8 1.972-.329-.3-1.8-1.972.33z"/><path id="K" d="M8.1 0C3.6 0 0 3.6 0 8.1s3.6 8.1 8.1 8.1h4.6V0H8.1z"/><path id="L" d="M14.1 19.2H9.6C4.3 19.2 0 14.9 0 9.6S4.3 0 9.6 0h4.6c.8 0 1.5.7 1.5 1.5S15 3 14.2 3H9.6C6 3 3 6 3 9.6c0 3.6 3 6.6 6.6 6.6h4.6c.8 0 1.5.7 1.5 1.5-.1.9-.8 1.5-1.6 1.5z"/><path id="M" d="M13.1 0S9 8.2 0 8.2h26.2C17.5 8 13.1 0 13.1 0z"/><path id="N" d="M75.4 11.1H58.1c-6.7-.1-11-4.4-13-7-2 2.7-6.2 7-13.1 7H1.5c-.8 0-1.5-.7-1.5-1.5s.7-1.5 1.5-1.5H32c7.9 0 11.6-7 11.7-7.3.3-.5.8-.8 1.3-.8s1.1.3 1.3.8c0 .1 4.1 7.2 11.8 7.4h17.3c.8 0 1.5.7 1.5 1.5 0 .7-.7 1.4-1.5 1.4z"/><path id="O" d="M6.4 2.7C4.8 1 2.5 0 0 0z"/><path id="P" d="M5.49 3.557a1.25 1.25 0 1 0 1.82-1.714L5.49 3.557zM0-1.25a1.25 1.25 0 1 0 0 2.5v-2.5zm7.31 3.093C5.467-.115 2.834-1.25 0-1.25v2.5c2.166 0 4.133.865 5.49 2.307l1.82-1.714z"/><path id="Q" d="M2.6 6.8v-.5c0-2.5-1-4.7-2.6-6.3"/><path id="R" d="M1.35 6.8a1.25 1.25 0 0 0 2.5 0h-2.5zM.884-.884A1.25 1.25 0 0 0-.884.884L.884-.884zM3.85 6.8v-.5h-2.5v.5h2.5zm0-.5C3.85 3.454 2.708.94.884-.884L-.884.884A7.584 7.584 0 0 1 1.35 6.3h2.5z"/><path id="S" d="M0 8.5c4.8 0 8.7-3.8 9-8.5z"/><path id="T" d="M0 7.25a1.25 1.25 0 1 0 0 2.5v-2.5zM10.248.08a1.25 1.25 0 0 0-2.495-.16l2.495.16zM0 9.75c5.478 0 9.907-4.33 10.248-9.67L7.753-.08C7.493 3.98 4.123 7.25 0 7.25v2.5z"/></defs></svg>