<svg width="232" height="231" viewBox="0 0 232 231" version="1.1" xmlns="http://www.w3.org/2000/svg" xmlns:xlink="http://www.w3.org/1999/xlink"><title>janice</title><desc>Created using Figma</desc><use xlink:href="#a" fill="#FFF"/><g transform="translate(63.8 106.54)"><use xlink:href="#b" fill="#FFF"/><use xlink:href="#c" fill="#333"/></g><use xlink:href="#d" transform="translate(80.4 183.04)" fill="#333"/><g transform="translate(122.8 192.74)"><use xlink:href="#e" fill="#FFF"/><use xlink:href="#f" fill="#333"/></g><g transform="translate(138.1 190.04)"><use xlink:href="#g" fill="#FFF"/><use xlink:href="#h" fill="#333"/></g><g transform="translate(105 191.94)"><use xlink:href="#i" fill="#FFF"/><use xlink:href="#j" fill="#333"/></g><g transform="translate(89.7 188.14)"><use xlink:href="#k" fill="#FFF"/><use xlink:href="#l" fill="#333"/></g><g transform="translate(76.7 180.04)"><use xlink:href="#m" fill="#FFF"/><use xlink:href="#n" fill="#333"/></g><g transform="translate(149.6 180.04)"><use xlink:href="#o" fill="#FFF"/><use xlink:href="#p" fill="#333"/></g><g transform="translate(-10163 -3612)"><use xlink:href="#q" transform="translate(10245.5 3671.74)" fill="#FFF"/><mask id="r"><use xlink:href="#q" fill="#fff" transform="translate(10245.5 3671.74)"/></mask><use xlink:href="#s" transform="translate(10245.5 3671.74)" fill="#333" mask="url(#r)"/></g><g transform="translate(82.5 59.74)"><use xlink:href="#q" fill="#FFF"/><use xlink:href="#t" fill="#333"/></g><g transform="translate(131.2 88.04)"><use xlink:href="#u" fill="#FFF"/><use xlink:href="#v" fill="#333"/></g><g transform="translate(112.6 85.94)"><use xlink:href="#w" fill="#FFF"/><use xlink:href="#x" fill="#333"/></g><use xlink:href="#y" transform="translate(104.7 85.74)" fill="#333"/><g transform="translate(151.9 85.94)"><use xlink:href="#z" fill="#FFF"/><use xlink:href="#A" fill="#333"/></g><g transform="translate(102.7 77.88)"><use xlink:href="#B" fill="#FFF"/><use xlink:href="#C" fill="#333"/></g><use xlink:href="#D" transform="translate(145.9 85.74)" fill="#333"/><g transform="translate(116.6 125.14)"><use xlink:href="#E" fill="#FFF"/><use xlink:href="#F" fill="#333"/></g><g transform="translate(121.5 125.14)"><use xlink:href="#G" fill="#FFF"/><use xlink:href="#H" fill="#333"/></g><g transform="translate(62.4 20.56)"><use xlink:href="#I" fill="#F2F2F2"/><use xlink:href="#J" fill="#333"/></g><use xlink:href="#K" transform="translate(67 37.1)" fill="#333"/><g transform="translate(162.8 52.6)"><use xlink:href="#L" fill="#FFF"/><use xlink:href="#M" fill="#333"/></g><use xlink:href="#N" transform="translate(109.2 25)" fill="#333"/><g transform="translate(145.3 78.44)"><use xlink:href="#O" fill="#FFF"/><use xlink:href="#P" fill="#333"/></g><use xlink:href="#Q" transform="translate(84.1 29.87)" fill="#333"/><defs><path id="a" d="M231.045 115.5c0 63.789-51.721 115.5-115.522 115.5C51.721 231 0 179.289 0 115.5S51.721 0 115.523 0c63.801 0 115.522 51.711 115.522 115.5z"/><path id="b" d="M91.6 76.5c-7.3 0-13.2-6-13.2-13.3V0H29.8v63.2c0 7.3-5.9 13.2-13.2 13.2H0s3 26.9 57.7 26.9c47.4 0 48.3-26.9 48.3-26.9H91.6v.1z"/><path id="c" d="M91.6 76.5V78a1.5 1.5 0 0 0 1.5-1.5h-1.5zM78.4 0h1.5a1.5 1.5 0 0 0-1.5-1.5V0zM29.8 0v-1.5A1.5 1.5 0 0 0 28.3 0h1.5zM0 76.4v-1.5a1.5 1.5 0 0 0-1.49 1.666L0 76.4zm106 0l1.499.05A1.497 1.497 0 0 0 106 74.9v1.5zm-14.4 0v-1.5a1.5 1.5 0 0 0-1.5 1.5h1.5zm0-1.4c-6.457 0-11.7-5.314-11.7-11.8h-3c0 8.114 6.557 14.8 14.7 14.8v-3zM79.9 63.2V0h-3v63.2h3zM78.4-1.5H29.8v3h48.6v-3zM28.3 0v63.2h3V0h-3zm0 63.2c0 6.472-5.228 11.7-11.7 11.7v3c8.128 0 14.7-6.572 14.7-14.7h-3zM16.6 74.9H0v3h16.6v-3zM0 76.4c-1.49.166-1.49.168-1.49.17v.003a3.783 3.783 0 0 0 .016.118c.008.06.024.16.045.276.038.214.109.558.212.962.2.774.57 1.947 1.173 3.29 1.18 2.61 3.44 6.235 7.387 9.754C15.288 98.014 30.113 104.8 57.7 104.8v-3c-27.113 0-41.138-6.665-48.368-13.072-3.641-3.207-5.548-6.308-6.64-8.74a16.813 16.813 0 0 1-1.003-2.805 9.794 9.794 0 0 1-.199-.954v-.002.004c0 .001 0 .003-1.49.169zm57.7 28.4c23.987 0 36.519-6.815 43.032-13.938 3.213-3.538 4.955-7.181 5.812-9.792.436-1.34.683-2.507.806-3.278.064-.401.102-.74.122-.952.01-.114.017-.212.021-.27l.004-.08.002-.025v-.008-.004c0-.002 0-.003-1.499-.053-1.499-.05-1.499-.051-1.499-.052v-.002-.002.004l-.002.037-.014.18c-.017.18-.044.42-.098.755-.111.7-.305 1.635-.694 2.817-.793 2.433-2.238 5.514-5.175 8.7C92.731 95.166 81.113 101.8 57.7 101.8v3zM106 74.9H91.6v3H106v-3zm-15.9 1.5v.1h3v-.1h-3z"/><path id="d" d="M0 0a69.704 69.704 0 0 0-1.334.685l.001.004a1.554 1.554 0 0 0 .04.075c.019.032.052.092.09.155.068.113.186.302.333.515.276.398.746 1.011 1.386 1.699C1.75 4.453 3.859 6.287 6.99 8.057 13.262 11.586 23.804 15 41.1 15v-3C24.196 12 14.188 8.664 8.46 5.443 5.59 3.838 3.837 2.297 2.71 1.086a11.533 11.533 0 0 1-1.113-1.36 5.428 5.428 0 0 1-.263-.412L1.33-.694l.001.003.002.004.001.002C1.335-.684 1.336-.683 0 0zm41.1 15c17.302 0 26.182-3.397 30.754-7.082 2.299-1.853 3.476-3.754 4.068-5.259a9.363 9.363 0 0 0 .511-1.854 5.006 5.006 0 0 0 .067-.81v-.022-.01-.004c0-.002 0-.003-1.5.041-1.5.044-1.5.043-1.5.04V.039.032.024.022l-.002.047c-.004.076-.01.15-.03.286a5.014 5.014 0 0 1-.337 1.205c-.404 1.026-1.271 2.5-3.16 4.022C66.168 8.647 58.098 12 41.1 12v3z"/><path id="e" d="M9 4.503c0 2.5-2 4.5-4.5 4.5s-4.5-2-4.5-4.5 2-4.5 4.5-4.5c2.5-.1 4.5 2 4.5 4.5z"/><path id="f" d="M4.5.003v1.5h.06L4.5.002zm3 4.5c0 1.672-1.328 3-3 3v3c3.328 0 6-2.671 6-6h-3zm-3 3c-1.672 0-3-1.328-3-3h-3c0 3.329 2.672 6 6 6v-3zm-3-3c0-1.671 1.328-3 3-3v-3c-3.328 0-6 2.672-6 6h3zm3.06-3c1.57-.064 2.94 1.272 2.94 3h3c0-3.27-2.63-6.136-6.06-5.998l.12 2.997z"/><path id="g" d="M9 4.5C9 7 7 9 4.5 9S0 7 0 4.5 2 0 4.5 0 9 2 9 4.5z"/><path id="h" d="M7.5 4.5c0 1.672-1.328 3-3 3v3c3.328 0 6-2.672 6-6h-3zm-3 3c-1.672 0-3-1.328-3-3h-3c0 3.328 2.672 6 6 6v-3zm-3-3c0-1.672 1.328-3 3-3v-3c-3.328 0-6 2.672-6 6h3zm3-3c1.672 0 3 1.328 3 3h3c0-3.328-2.672-6-6-6v3z"/><path id="i" d="M9 4.503c0 2.5-2 4.5-4.5 4.5s-4.5-2-4.5-4.5 2-4.5 4.5-4.5c2.5-.1 4.5 2 4.5 4.5z"/><path id="j" d="M4.5.003v1.5h.06L4.5.002zm3 4.5c0 1.672-1.328 3-3 3v3c3.328 0 6-2.671 6-6h-3zm-3 3c-1.672 0-3-1.328-3-3h-3c0 3.329 2.672 6 6 6v-3zm-3-3c0-1.671 1.328-3 3-3v-3c-3.328 0-6 2.672-6 6h3zm3.06-3c1.57-.064 2.94 1.272 2.94 3h3c0-3.27-2.63-6.136-6.06-5.998l.12 2.997z"/><path id="k" d="M9 4.5C9 7 7 9 4.5 9S0 7 0 4.5 2 0 4.5 0 9 2 9 4.5z"/><path id="l" d="M7.5 4.5c0 1.672-1.328 3-3 3v3c3.328 0 6-2.672 6-6h-3zm-3 3c-1.672 0-3-1.328-3-3h-3c0 3.328 2.672 6 6 6v-3zm-3-3c0-1.672 1.328-3 3-3v-3c-3.328 0-6 2.672-6 6h3zm3-3c1.672 0 3 1.328 3 3h3c0-3.328-2.672-6-6-6v3z"/><path id="m" d="M9 4.503c0 2.5-2 4.5-4.5 4.5s-4.5-2-4.5-4.5 2-4.5 4.5-4.5c2.5-.1 4.5 2 4.5 4.5z"/><path id="n" d="M4.5.003v1.5h.06L4.5.002zm3 4.5c0 1.672-1.328 3-3 3v3c3.328 0 6-2.671 6-6h-3zm-3 3c-1.672 0-3-1.328-3-3h-3c0 3.329 2.672 6 6 6v-3zm-3-3c0-1.671 1.328-3 3-3v-3c-3.328 0-6 2.672-6 6h3zm3.06-3c1.57-.064 2.94 1.272 2.94 3h3c0-3.27-2.63-6.136-6.06-5.998l.12 2.997z"/><path id="o" d="M9 4.503c0 2.5-2 4.5-4.5 4.5s-4.5-2-4.5-4.5 2-4.5 4.5-4.5c2.4-.1 4.5 2 4.5 4.5z"/><path id="p" d="M4.5.003v1.5h.062L4.5.002zm3 4.5c0 1.672-1.328 3-3 3v3c3.328 0 6-2.671 6-6h-3zm-3 3c-1.672 0-3-1.328-3-3h-3c0 3.329 2.672 6 6 6v-3zm-3-3c0-1.671 1.328-3 3-3v-3c-3.328 0-6 2.672-6 6h3zm3.062-3c1.489-.063 2.938 1.293 2.938 3h3c0-3.292-2.75-6.136-6.062-5.998l.124 2.997z"/><path id="q" d="M0 0v41.1c0 21.9 13.5 56 50.3 56 9.6 0 28.8-20.1 28.8-48.8V0H0z"/><path id="s" d="M0 0v-1h-1v1h1zm79.1 0h1v-1h-1v1zM-1 0v41.1h2V0h-2zm0 41.1c.007 11.068 3.465 25.364 11.534 36.79C18.674 89.386 31.539 98.1 50.3 98.1v-2c-18.039 0-30.324-8.336-38.134-19.365C4.286 65.636.993 51.932 1 41.1h-2zm51.3 57c2.711 0 5.922-1.398 9.145-3.785 3.214-2.385 6.627-5.91 9.676-10.28C75.18 75.321 80.083 62.835 80.1 48.3h-2c.018 14.164-4.681 26.078-10.62 34.59-2.952 4.243-6.14 7.536-9.225 9.817-3.077 2.279-5.866 3.393-7.955 3.393v2zm29.8-49.8V0h-2v48.3h2zM79.1-1H0v2h79.1v-2z"/><path id="t" d="M0 0v-1.5h-1.5V0H0zm79.1 0h1.5v-1.5h-1.5V0zM-1.5 0v41.1h3V0h-3zm0 41.1c.01 11.127 3.51 25.57 11.626 37.08C18.349 89.791 31.358 98.6 50.3 98.6v-3c-17.858 0-29.998-8.242-37.726-19.154C4.741 65.43 1.49 51.873 1.5 41.1h-3zm51.8 57.5c2.867 0 6.183-1.47 9.443-3.884 3.246-2.41 6.715-5.994 9.788-10.396C75.622 75.558 80.574 62.93 80.6 48.3h-3c.026 14.07-4.622 25.842-10.53 34.305-2.928 4.21-6.059 7.445-9.113 9.7-3.04 2.252-5.724 3.295-7.657 3.295v3zm30.3-50.3V0h-3v48.3h3zM79.1-1.5H0v3h79.1v-3z"/><path id="u" d="M0 22.5h6.3c2.9 0 5.2-2.3 5.2-5.2 0-2.9-2.3-5.2-5.2-5.2L3.8 0"/><path id="v" d="M0 21a1.5 1.5 0 0 0 0 3v-3zm6.3-8.9l-1.469.303A1.5 1.5 0 0 0 6.3 13.6v-1.5zM5.269-.304a1.5 1.5 0 1 0-2.938.608l2.938-.608zM0 24h6.3v-3H0v3zm6.3 0c3.728 0 6.7-2.972 6.7-6.7h-3c0 2.072-1.628 3.7-3.7 3.7v3zm6.7-6.7c0-3.728-2.972-6.7-6.7-6.7v3c2.072 0 3.7 1.628 3.7 3.7h3zm-5.231-5.504l-2.5-12.1-2.938.608 2.5 12.1 2.938-.607z"/><path id="w" d="M5.4 2.7c0 1.5-1.2 2.7-2.7 2.7C1.2 5.4 0 4.2 0 2.7 0 1.2 1.2 0 2.7 0c1.5 0 2.7 1.2 2.7 2.7z"/><path id="x" d="M2.7 0v-1.25V0zm1.45 2.7c0 .81-.64 1.45-1.45 1.45v2.5c2.19 0 3.95-1.76 3.95-3.95h-2.5zM2.7 4.15c-.81 0-1.45-.64-1.45-1.45h-2.5c0 2.19 1.76 3.95 3.95 3.95v-2.5zM1.25 2.7c0-.81.64-1.45 1.45-1.45v-2.5C.51-1.25-1.25.51-1.25 2.7h2.5zM2.7 1.25c.81 0 1.45.64 1.45 1.45h2.5c0-2.19-1.76-3.95-3.95-3.95v2.5z"/><path id="y" d="M0-1.5a1.5 1.5 0 1 0 0 3v-3zm19.9 3a1.5 1.5 0 0 0 0-3v3zM0 1.5h19.9v-3H0v3z"/><path id="z" d="M5.4 2.7c0 1.5-1.2 2.7-2.7 2.7C1.2 5.4 0 4.2 0 2.7 0 1.2 1.2 0 2.7 0c1.5 0 2.7 1.2 2.7 2.7z"/><path id="A" d="M2.7 0v-1.25V0zm1.45 2.7c0 .81-.64 1.45-1.45 1.45v2.5c2.19 0 3.95-1.76 3.95-3.95h-2.5zM2.7 4.15c-.81 0-1.45-.64-1.45-1.45h-2.5c0 2.19 1.76 3.95 3.95 3.95v-2.5zM1.25 2.7c0-.81.64-1.45 1.45-1.45v-2.5C.51-1.25-1.25.51-1.25 2.7h2.5zM2.7 1.25c.81 0 1.45.64 1.45 1.45h2.5c0-2.19-1.76-3.95-3.95-3.95v2.5z"/><path id="B" d="M24 2.457s-2.1-3.4-12-2.2c-7.2.8-12 2.2-12 2.2"/><path id="C" d="M22.724 3.245a1.5 1.5 0 1 0 2.552-1.577l-2.552 1.577zM12 .256l.166 1.491.014-.001L12 .256zm-12.42.76a1.5 1.5 0 1 0 .84 2.88l-.84-2.88zM24 2.457c1.276-.788 1.275-.79 1.274-.79l-.001-.004-.004-.006a1.714 1.714 0 0 1-.028-.043 3.255 3.255 0 0 0-.206-.27 5.564 5.564 0 0 0-.544-.54c-.416-.352-1.196-.872-2.225-1.29-2.057-.818-5.323-1.367-10.446-.746l.36 2.979c4.777-.58 7.511-.028 8.979.555.733.281 1.098.536 1.385.784.115.095.151.136.202.197l.013.016-.012-.018a2.201 2.201 0 0 0-.01-.015l-.006-.01c0 .002-.004-.006-.004-.005l-.002-.002c0-.002-.001-.003 1.275-.792zm-12.166-3.69C8.182-.828 5.108-.264 2.986.19 1.916.42 1.063.626.49.772a40.67 40.67 0 0 0-.909.244h-.001L0 2.456a722.751 722.751 0 0 1 .42 1.44c.003 0 .005 0 .008-.002l.036-.01.153-.043c.141-.038.344-.093.617-.162a62.35 62.35 0 0 1 2.38-.556 86.426 86.426 0 0 1 8.552-1.376l-.332-2.981z"/><path id="D" d="M0-1.5a1.5 1.5 0 1 0 0 3v-3zm15.8 3a1.5 1.5 0 0 0 0-3v3zM0 1.5h15.8v-3H0v3z"/><path id="E" d="M0 0h30.9"/><path id="F" d="M0-1.5a1.5 1.5 0 1 0 0 3v-3zm30.9 3a1.5 1.5 0 0 0 0-3v3zM0 1.5h15.9v-3H0v3zm15.9 0h15v-3h-15v3z"/><path id="G" d="M0 0h22s-2.3 6.6-9.4 6.6C5.5 6.5 0 0 0 0z"/><path id="H" d="M0 0v-1.5A1.5 1.5 0 0 0-1.145.969L0 0zm22 0l1.416.494A1.5 1.5 0 0 0 22-1.5V0zm-9.4 6.6l-.021 1.5h.021V6.6zM0 1.5h22v-3H0v3zM22 0l-1.416-.495v-.001l.001-.002V-.5v.004l-.013.032a7.888 7.888 0 0 1-.37.795 9.503 9.503 0 0 1-1.362 1.974C17.588 3.718 15.62 5.1 12.6 5.1v3c4.08 0 6.812-1.918 8.485-3.805a13.88 13.88 0 0 0 1.771-2.564c.183-.348.327-.662.412-.86a8.904 8.904 0 0 0 .143-.362L23.414.5l.001-.003.001-.002L22 0zm-9.379 5.1C9.42 5.096 6.69 3.625 4.517 2.047A21.952 21.952 0 0 1 1.352-.738a10.223 10.223 0 0 1-.2-.224L1.143-.97S1.146-.969 0 0a213.14 213.14 0 0 0-1.144.97l.002.003a2.594 2.594 0 0 0 .08.092 21.994 21.994 0 0 0 .985 1.026c.65.633 1.641 1.52 2.835 2.387C5.11 6.175 8.681 8.004 12.578 8.1l.043-3z"/><path id="I" d="M59.7.08C23.5-1.72 0 27.38 0 53.18v75.7s11.4 9.6 31.1 9.6V62.18c0-6.3 5.1-11.4 11.4-11.4h1c6.2 0 11.3-5 11.4-11.1.2 6.1 5.2 11.1 11.4 11.1h32.8v36.8c0 20.9-10.2 37.3-19.5 44.6v5.8c19.2 0 28.5-6.9 28.5-6.9v-80.8c.2-26.5-17.4-48.7-48.4-50.2z"/><path id="J" d="M59.7.08l-.075 1.498h.002L59.7.08zM0 128.88h-1.5c0 .442.195.862.534 1.147L0 128.88zm31.1 9.6v1.5a1.5 1.5 0 0 0 1.5-1.5h-1.5zm23.8-98.8l1.5-.05a1.5 1.5 0 0 0-3 .025l1.5.024zm44.2 11.1h1.5a1.5 1.5 0 0 0-1.5-1.5v1.5zm-19.5 81.4l-.926-1.18a1.5 1.5 0 0 0-.574 1.18h1.5zm0 5.8h-1.5a1.5 1.5 0 0 0 1.5 1.5v-1.5zm28.5-6.9l.894 1.204a1.5 1.5 0 0 0 .606-1.204h-1.5zm0-80.8l-1.5-.012v.011h1.5zM59.775-1.42C22.664-3.264-1.5 26.577-1.5 53.18h3C1.5 28.182 24.336-.177 59.626 1.578l.149-2.997zM-1.5 53.18V128.88l1.5.001 1.5-.001v-.001-.005-.019-.077-.303-1.186-4.541-16.53-53.038h-3zM0 128.88c-.966 1.147-.966 1.147-.965 1.148l.001.001.004.003a1.185 1.185 0 0 0 .043.035l.115.094c.094.075.244.191.43.331a31.7 31.7 0 0 0 1.64 1.143c1.407.919 3.548 2.176 6.277 3.411 5.399 2.436 13.481 4.917 23.555 4.934v-3c-9.626.016-17.094-2.303-22.32-4.667-2.584-1.165-4.524-2.308-5.87-3.189a28.077 28.077 0 0 1-1.482-1.032 16.593 16.593 0 0 1-.36-.278l-.084-.067-.017-.014-.003-.002h.001c0 .001.001.001-.965 1.149zm32.6 9.6v-32.6h-3v32.6h3zm0-32.6v-43.7h-3v43.7h3zm0-43.7c0-5.472 4.428-9.9 9.9-9.9v-3c-7.128 0-12.9 5.771-12.9 12.9h3zm9.9-9.9h1v-3h-1v3zm1 0c7.007 0 12.786-5.646 12.9-12.576l-3-.05c-.086 5.27-4.507 9.625-9.9 9.625v3zm9.9-12.551c.227 6.889 5.87 12.55 12.9 12.55v-3c-5.37 0-9.727-4.338-9.9-9.649l-3 .099zm12.9 12.55h32.8v-3H66.3v3zm31.3-1.5v36.8h3v-36.8h-3zm0 36.8c0 20.439-9.988 36.404-18.926 43.421l1.852 2.359c9.662-7.583 20.074-24.418 20.074-45.78h-3zM78.1 132.18v5.8h3v-5.8h-3zm1.5 7.3c9.778-.011 17.16-1.79 21.964-3.541 2.436-.892 4.303-1.804 5.508-2.468a25.124 25.124 0 0 0 1.405-.835c.16-.104.29-.192.369-.247l.102-.071a1.688 1.688 0 0 1 .039-.029l.004-.003.001-.001c.001 0 .002-.001-.892-1.205-.894-1.205-.893-1.206-.893-1.206l.001-.001h.001c.001-.001 0-.001 0 0l-.011.008-.063.044a19.663 19.663 0 0 1-1.513.919c-1.139.63-2.797 1.443-5.086 2.276-4.645 1.699-11.514 3.37-20.936 3.36v3zm28.5-8.4l1.5-.001v-.001-.006-.021-.085-.337-1.315-5.009-18.025-56h-3v80.799l1.5.001zm1.5-80.79C109.806 23.038 91.626.124 59.773-1.418l-.146 2.997c30.147 1.458 47.167 22.944 46.973 48.69l3 .023z"/><path id="K" d="M-1.25 111.8a1.25 1.25 0 0 0 2.5 0h-2.5zM20.465.988a1.25 1.25 0 0 0-1.53-1.976l1.53 1.976zM1.25 111.8V38.1h-2.5v73.7h2.5zm0-73.7c0-13.58 7.094-27.727 19.215-37.112l-1.53-1.976C6.256 8.827-1.25 23.68-1.25 38.1h2.5z"/><path id="L" d="M0 0c.6 1.5 1.1 3 1.6 4.6z"/><path id="M" d="M1.16-.464a1.25 1.25 0 1 0-2.32.928l2.32-.928zM.408 4.973a1.25 1.25 0 0 0 2.386-.746l-2.386.746zM-1.161.464C-.574 1.93-.09 3.384.407 4.973l2.386-.746C2.29 2.616 1.773 1.07 1.161-.464l-2.322.928z"/><path id="N" d="M-.205-.433a1.25 1.25 0 1 0 .41 2.466l-.41-2.466zM12.4.1l-.124 1.244.058.004L12.4.1zm37.13 21.847a1.25 1.25 0 0 0 2.14-1.294l-2.14 1.294zM.205 2.033C3.163 1.539 6.16 1.249 9.4 1.25v-2.5c-3.36.001-6.563.31-9.605.817l.41 2.466zM9.4 1.25c1 0 1.938-.002 2.876.094l.248-2.488C11.462-1.248 10.4-1.25 9.4-1.25v2.5zm2.934.098c16.74.881 29.937 8.597 37.196 20.599l2.14-1.294C43.929 7.855 29.925-.229 12.466-1.148l-.132 2.496z"/><path id="O" d="M0 2.457s2.1-3.4 12-2.2c1.4.2 2.8.4 4 .5"/><path id="P" d="M-1.276 1.668a1.5 1.5 0 0 0 2.552 1.577l-2.552-1.577zM12 .256l.212-1.484a1.465 1.465 0 0 0-.031-.005L12 .257zm3.875 1.995a1.5 1.5 0 0 0 .25-2.99l-.25 2.99zM0 2.457c1.276.788 1.275.79 1.274.79l-.001.003-.003.005a1.719 1.719 0 0 0-.029.043c-.006.009 0 0 .013-.016.05-.06.087-.102.202-.197.287-.248.652-.503 1.385-.784 1.468-.583 4.202-1.134 8.979-.555l.36-2.979c-5.123-.62-8.389-.072-10.446.745C.704-.069-.075.451-.491.803c-.236.205-.441.42-.544.54a4.133 4.133 0 0 0-.206.27 3.046 3.046 0 0 0-.033.052c-.001.002-.002.003 1.274.792zm11.788-.716c1.4.2 2.844.406 4.087.51l.25-2.99c-1.157-.095-2.513-.29-3.913-.49l-.424 2.97z"/><path id="Q" d="M31.4 30.83a1.5 1.5 0 0 0 3 0h-3zm-2.9-18.4l-1.36.633c.024.05.05.1.08.147l1.28-.78zM-.657 1.28A1.5 1.5 0 1 0 .657 3.979L-.657 1.28zM34.4 30.83c0-4.384-.801-12.924-4.62-19.182l-2.56 1.563c3.381 5.542 4.18 13.402 4.18 17.618h3zm-5.9-18.4a120.185 120.185 0 0 0 1.358-.638l-.003-.006a1.123 1.123 0 0 0-.033-.068c-.02-.04-.051-.106-.09-.183a19.794 19.794 0 0 0-.347-.648 27.724 27.724 0 0 0-1.362-2.178c-1.184-1.71-3.07-3.998-5.54-5.927C17.395-1.165 9.664-3.748-.658 1.28L.657 3.978C9.835-.494 16.354 1.823 20.643 5.152c2.217 1.708 3.8 3.652 4.912 5.263.547.789.937 1.444 1.21 1.934a15.464 15.464 0 0 1 .374.711l.002.005c0-.001 0-.002 1.359-.636z"/></defs></svg>