<svg width="232" height="231" viewBox="0 0 232 231" version="1.1" xmlns="http://www.w3.org/2000/svg" xmlns:xlink="http://www.w3.org/1999/xlink">
<title>janice</title>
<desc>Created using Figma</desc>
<g id="Canvas" transform="translate(-10163 -3612)">
<g id="janice">
<g id="Ellipse">
<use xlink:href="#path0_fill" transform="translate(10163 3612)" fill="#FFFFFF"/>
</g>
<g id="Vector">
<use xlink:href="#path1_fill" transform="translate(10226.8 3718.54)" fill="#FFFFFF"/>
<use xlink:href="#path2_stroke" transform="translate(10226.8 3718.54)" fill="#333333"/>
</g>
<g id="Vector">
<use xlink:href="#path3_stroke" transform="translate(10243.4 3795.04)" fill="#333333"/>
</g>
<g id="Vector">
<use xlink:href="#path4_fill" transform="translate(10285.8 3804.74)" fill="#FFFFFF"/>
<use xlink:href="#path5_stroke" transform="translate(10285.8 3804.74)" fill="#333333"/>
</g>
<g id="Vector">
<use xlink:href="#path6_fill" transform="translate(10301.1 3802.04)" fill="#FFFFFF"/>
<use xlink:href="#path7_stroke" transform="translate(10301.1 3802.04)" fill="#333333"/>
</g>
<g id="Vector">
<use xlink:href="#path8_fill" transform="translate(10268 3803.94)" fill="#FFFFFF"/>
<use xlink:href="#path9_stroke" transform="translate(10268 3803.94)" fill="#333333"/>
</g>
<g id="Vector">
<use xlink:href="#path10_fill" transform="translate(10252.7 3800.14)" fill="#FFFFFF"/>
<use xlink:href="#path11_stroke" transform="translate(10252.7 3800.14)" fill="#333333"/>
</g>
<g id="Vector">
<use xlink:href="#path12_fill" transform="translate(10239.7 3792.04)" fill="#FFFFFF"/>
<use xlink:href="#path13_stroke" transform="translate(10239.7 3792.04)" fill="#333333"/>
</g>
<g id="Vector">
<use xlink:href="#path14_fill" transform="translate(10312.6 3792.04)" fill="#FFFFFF"/>
<use xlink:href="#path15_stroke" transform="translate(10312.6 3792.04)" fill="#333333"/>
</g>
<g id="Vector">
<use xlink:href="#path16_fill" transform="translate(10245.5 3671.74)" fill="#FFFFFF"/>
<mask id="mask0_outline_ins">
<use xlink:href="#path16_fill" fill="white" transform="translate(10245.5 3671.74)"/>
</mask>
<g mask="url(#mask0_outline_ins)">
<use xlink:href="#path17_stroke_2x" transform="translate(10245.5 3671.74)" fill="#333333"/>
</g>
</g>
<g id="Vector">
<use xlink:href="#path16_fill" transform="translate(10245.5 3671.74)" fill="#FFFFFF"/>
<use xlink:href="#path18_stroke" transform="translate(10245.5 3671.74)" fill="#333333"/>
</g>
<g id="Vector">
<use xlink:href="#path19_fill" transform="translate(10294.2 3700.04)" fill="#FFFFFF"/>
<use xlink:href="#path20_stroke" transform="translate(10294.2 3700.04)" fill="#333333"/>
</g>
<g id="Vector">
<use xlink:href="#path21_fill" transform="translate(10275.6 3697.94)" fill="#FFFFFF"/>
<use xlink:href="#path22_stroke" transform="translate(10275.6 3697.94)" fill="#333333"/>
</g>
<g id="Vector">
<use xlink:href="#path23_stroke" transform="translate(10267.7 3697.74)" fill="#333333"/>
</g>
<g id="Vector">
<use xlink:href="#path24_fill" transform="translate(10314.9 3697.94)" fill="#FFFFFF"/>
<use xlink:href="#path25_stroke" transform="translate(10314.9 3697.94)" fill="#333333"/>
</g>
<g id="Vector">
<use xlink:href="#path26_fill" transform="translate(10265.7 3689.88)" fill="#FFFFFF"/>
<use xlink:href="#path27_stroke" transform="translate(10265.7 3689.88)" fill="#333333"/>
</g>
<g id="Vector">
<use xlink:href="#path28_stroke" transform="translate(10308.9 3697.74)" fill="#333333"/>
</g>
<g id="Vector">
<use xlink:href="#path29_fill" transform="translate(10279.6 3737.14)" fill="#FFFFFF"/>
<use xlink:href="#path30_stroke" transform="translate(10279.6 3737.14)" fill="#333333"/>
</g>
<g id="Vector">
<use xlink:href="#path31_fill" transform="translate(10284.5 3737.14)" fill="#FFFFFF"/>
<use xlink:href="#path32_stroke" transform="translate(10284.5 3737.14)" fill="#333333"/>
</g>
<g id="Vector">
<use xlink:href="#path33_fill" transform="translate(10225.4 3632.56)" fill="#F2F2F2"/>
<use xlink:href="#path34_stroke" transform="translate(10225.4 3632.56)" fill="#333333"/>
</g>
<g id="Vector">
<use xlink:href="#path35_stroke" transform="translate(10230 3649.1)" fill="#333333"/>
</g>
<g id="Vector">
<use xlink:href="#path36_fill" transform="translate(10325.8 3664.6)" fill="#FFFFFF"/>
<use xlink:href="#path37_stroke" transform="translate(10325.8 3664.6)" fill="#333333"/>
</g>
<g id="Vector">
<use xlink:href="#path38_stroke" transform="translate(10272.2 3637)" fill="#333333"/>
</g>
<g id="Vector">
<use xlink:href="#path39_fill" transform="translate(10308.3 3690.44)" fill="#FFFFFF"/>
<use xlink:href="#path40_stroke" transform="translate(10308.3 3690.44)" fill="#333333"/>
</g>
<g id="Vector">
<use xlink:href="#path41_stroke" transform="translate(10247.1 3641.87)" fill="#333333"/>
</g>
</g>
</g>
<defs>
<path id="path0_fill" d="M 231.045 115.5C 231.045 179.289 179.324 231 115.523 231C 51.7213 231 0 179.289 0 115.5C 0 51.7111 51.7213 0 115.523 0C 179.324 0 231.045 51.7111 231.045 115.5Z"/>
<path id="path1_fill" d="M 91.6 76.5C 84.3 76.5 78.4 70.5 78.4 63.2L 78.4 1.42109e-14L 29.8 1.42109e-14L 29.8 63.2C 29.8 70.5 23.9 76.4 16.6 76.4L 1.2207e-05 76.4C 1.2207e-05 76.4 2.99999 103.3 57.7 103.3C 105.1 103.3 106 76.4 106 76.4L 91.6 76.4L 91.6 76.5Z"/>
<path id="path2_stroke" d="M 91.6 76.5L 91.6 78C 92.4284 78 93.1 77.3284 93.1 76.5L 91.6 76.5ZM 78.4 1.42109e-14L 79.9 1.42109e-14C 79.9 -0.828427 79.2284 -1.5 78.4 -1.5L 78.4 1.42109e-14ZM 29.8 1.42109e-14L 29.8 -1.5C 28.9716 -1.5 28.3 -0.828427 28.3 1.45439e-14L 29.8 1.42109e-14ZM 1.2207e-05 76.4L 1.2207e-05 74.9C -0.426759 74.9 -0.833325 75.0818 -1.11788 75.3998C -1.40244 75.7179 -1.53805 76.1421 -1.49075 76.5662L 1.2207e-05 76.4ZM 106 76.4L 107.499 76.4502C 107.513 76.0439 107.361 75.6494 107.078 75.3572C 106.796 75.065 106.407 74.9 106 74.9L 106 76.4ZM 91.6 76.4L 91.6 74.9C 90.7716 74.9 90.1 75.5716 90.1 76.4L 91.6 76.4ZM 91.6 75C 85.1431 75 79.9 69.6863 79.9 63.2L 76.9 63.2C 76.9 71.3137 83.4569 78 91.6 78L 91.6 75ZM 79.9 63.2L 79.9 1.42109e-14L 76.9 1.42109e-14L 76.9 63.2L 79.9 63.2ZM 78.4 -1.5L 29.8 -1.5L 29.8 1.5L 78.4 1.5L 78.4 -1.5ZM 28.3 1.42109e-14L 28.3 63.2L 31.3 63.2L 31.3 1.42109e-14L 28.3 1.42109e-14ZM 28.3 63.2C 28.3 69.6716 23.0716 74.9 16.6 74.9L 16.6 77.9C 24.7284 77.9 31.3 71.3284 31.3 63.2L 28.3 63.2ZM 16.6 74.9L 1.2207e-05 74.9L 1.2207e-05 77.9L 16.6 77.9L 16.6 74.9ZM 1.2207e-05 76.4C -1.49075 76.5662 -1.49057 76.5678 -1.49038 76.5695C -1.4903 76.5702 -1.4901 76.572 -1.48994 76.5733C -1.48973 76.5751 -1.48924 76.5793 -1.48881 76.5829C -1.48819 76.5882 -1.48686 76.599 -1.48553 76.6094C -1.48336 76.6264 -1.47916 76.6578 -1.47433 76.6914C -1.46577 76.7506 -1.45 76.8514 -1.4294 76.9668C -1.39082 77.1814 -1.32045 77.5246 -1.21712 77.9289C -1.01771 78.7033 -0.646173 79.8764 -0.044214 81.2192C 1.13522 83.8297 3.39673 87.4541 7.34256 90.9725C 15.2878 98.0146 30.1126 104.8 57.7 104.8L 57.7 101.8C 30.5874 101.8 16.5622 95.1354 9.33244 88.7275C 5.69078 85.5209 3.78354 82.4203 2.69111 79.9871C 2.15713 78.808 1.86695 77.8795 1.68862 77.1828C 1.60309 76.8516 1.55559 76.6168 1.52351 76.4374C 1.50879 76.3558 1.50103 76.3055 1.49491 76.2629C 1.49238 76.2456 1.49145 76.2385 1.49032 76.2295C 1.49 76.2271 1.48983 76.2256 1.48998 76.2269C 1.48994 76.2265 1.49026 76.2293 1.49024 76.2291C 1.49031 76.2297 1.49044 76.2308 1.49048 76.2311C 1.49062 76.2324 1.49077 76.2337 1.2207e-05 76.4ZM 57.7 104.8C 81.6874 104.8 94.2186 97.9846 100.732 90.8623C 103.945 87.3241 105.687 83.6805 106.544 81.0695C 106.98 79.7299 107.227 78.5634 107.35 77.7919C 107.414 77.3908 107.452 77.0526 107.472 76.8398C 107.482 76.7261 107.489 76.6281 107.493 76.5698C 107.495 76.5371 107.497 76.5071 107.497 76.4906C 107.498 76.4806 107.498 76.4704 107.499 76.4654C 107.499 76.4621 107.499 76.4582 107.499 76.4566C 107.499 76.4553 107.499 76.4537 107.499 76.453C 107.499 76.4515 107.499 76.4502 106 76.4C 104.501 76.3498 104.501 76.3486 104.501 76.3476C 104.501 76.3473 104.501 76.3463 104.501 76.3459C 104.501 76.3459 104.501 76.3442 104.501 76.3444C 104.501 76.3428 104.501 76.3455 104.501 76.3484C 104.5 76.3578 104.5 76.3663 104.499 76.3845C 104.496 76.4281 104.492 76.481 104.485 76.5644C 104.468 76.7456 104.441 76.9854 104.387 77.3198C 104.276 78.0194 104.082 78.9545 103.693 80.1367C 102.9 82.5695 101.455 85.6508 98.5181 88.8377C 92.7314 95.1654 81.1126 101.8 57.7 101.8L 57.7 104.8ZM 106 74.9L 91.6 74.9L 91.6 77.9L 106 77.9L 106 74.9ZM 90.1 76.4L 90.1 76.5L 93.1 76.5L 93.1 76.4L 90.1 76.4Z"/>
<path id="path3_stroke" d="M -1.2207e-05 0C -1.33566 0.682667 -1.33497 0.684029 -1.33424 0.685442C -1.33396 0.685982 -1.33321 0.687448 -1.33265 0.688528C -1.33199 0.689814 -1.33031 0.693056 -1.32897 0.695624C -1.32721 0.699014 -1.32315 0.706729 -1.31957 0.713484C -1.31425 0.723496 -1.30332 0.743768 -1.2924 0.763592C -1.27436 0.796234 -1.24073 0.855503 -1.20293 0.91914C -1.13538 1.03238 -1.01715 1.22061 -0.87016 1.43369C -0.594159 1.83176 -0.123653 2.44496 0.515906 3.13285C 1.75061 4.4529 3.85923 6.28743 6.9896 8.05736C 13.2623 11.5858 23.804 15 41.1 15L 41.1 12C 24.196 12 14.1877 8.66424 8.46038 5.44264C 5.59075 3.83757 3.83687 2.2971 2.70907 1.0859C 2.16738 0.508166 1.83164 0.0666766 1.5967 -0.273534C 1.48822 -0.429591 1.42481 -0.531401 1.37459 -0.615917C 1.35349 -0.651158 1.34421 -0.667694 1.33405 -0.686139C 1.33087 -0.691858 1.32824 -0.69688 1.32981 -0.693914C 1.32968 -0.694181 1.33156 -0.690587 1.33149 -0.690706C 1.33101 -0.69164 1.3335 -0.68683 1.33326 -0.687295C 1.33361 -0.686626 1.3342 -0.685468 1.33438 -0.685134C 1.335 -0.683926 1.33564 -0.682667 -1.2207e-05 0ZM 41.1 15C 58.4021 15 67.2818 11.6028 71.8538 7.91789C 74.1525 6.0652 75.3296 4.16368 75.9222 2.65903C 76.2097 1.91695 76.3683 1.22623 76.4332 0.805273C 76.4677 0.572356 76.487 0.355891 76.4938 0.234078C 76.4976 0.162609 76.4995 0.0919783 76.5 0.0557498C 76.5002 0.032516 76.5002 0.00722363 76.5001 -0.00441321C 76.5 -0.0127506 76.4998 -0.0228155 76.4998 -0.0269764C 76.4997 -0.0303061 76.4996 -0.0346838 76.4995 -0.0363451C 76.4995 -0.0377978 76.4995 -0.0398218 76.4994 -0.0405471C 76.4994 -0.0425122 76.4993 -0.044426 75 0C 73.5006 0.044426 73.5006 0.0426152 73.5005 0.0408557C 73.5005 0.040336 73.5005 0.0386202 73.5005 0.0375778C 73.5005 0.0384184 73.5003 0.0301999 73.5003 0.0318945C 73.5003 0.0327852 73.5002 0.022134 73.5002 0.0239826C 73.5002 0.0226419 73.5002 0.0193944 73.5002 0.0217038C 73.5001 0.0365617 73.5 0.0417369 73.4984 0.0691447C 73.4944 0.145085 73.4887 0.218659 73.4672 0.354883C 73.4199 0.672204 73.3419 1.03618 73.1309 1.55972C 72.7266 2.58632 71.86 4.0598 69.9712 5.58211C 66.1682 8.64723 58.0979 12 41.1 12L 41.1 15Z"/>
<path id="path4_fill" d="M 9.00001 4.50343C 9.00001 7.00343 7.00001 9.00343 4.50001 9.00343C 2.00001 9.00343 1.2207e-05 7.00343 1.2207e-05 4.50343C 1.2207e-05 2.00343 2.00001 0.00342747 4.50001 0.00342747C 7.00001 -0.0965725 9.00001 2.00343 9.00001 4.50343Z"/>
<path id="path5_stroke" d="M 4.50001 0.00342747L 4.50001 1.50343L 4.53 1.50343L 4.55996 1.50223L 4.50001 0.00342747ZM 7.50001 4.50343C 7.50001 6.175 6.17159 7.50343 4.50001 7.50343L 4.50001 10.5034C 7.82844 10.5034 10.5 7.83185 10.5 4.50343L 7.50001 4.50343ZM 4.50001 7.50343C 2.82844 7.50343 1.50001 6.175 1.50001 4.50343L -1.49999 4.50343C -1.49999 7.83185 1.17159 10.5034 4.50001 10.5034L 4.50001 7.50343ZM 1.50001 4.50343C 1.50001 2.83185 2.82844 1.50343 4.50001 1.50343L 4.50001 -1.49657C 1.17159 -1.49657 -1.49999 1.175 -1.49999 4.50343L 1.50001 4.50343ZM 4.55996 1.50223C 6.13009 1.43942 7.50001 2.77459 7.50001 4.50343L 10.5 4.50343C 10.5 1.23227 7.86993 -1.63257 4.44006 -1.49537L 4.55996 1.50223Z"/>
<path id="path6_fill" d="M 9 4.5C 9 7 7 9 4.5 9C 2 9 0 7 0 4.5C 0 2 2 0 4.5 0C 7 0 9 2 9 4.5Z"/>
<path id="path7_stroke" d="M 7.5 4.5C 7.5 6.17157 6.17157 7.5 4.5 7.5L 4.5 10.5C 7.82843 10.5 10.5 7.82843 10.5 4.5L 7.5 4.5ZM 4.5 7.5C 2.82843 7.5 1.5 6.17157 1.5 4.5L -1.5 4.5C -1.5 7.82843 1.17157 10.5 4.5 10.5L 4.5 7.5ZM 1.5 4.5C 1.5 2.82843 2.82843 1.5 4.5 1.5L 4.5 -1.5C 1.17157 -1.5 -1.5 1.17157 -1.5 4.5L 1.5 4.5ZM 4.5 1.5C 6.17157 1.5 7.5 2.82843 7.5 4.5L 10.5 4.5C 10.5 1.17157 7.82843 -1.5 4.5 -1.5L 4.5 1.5Z"/>
<path id="path8_fill" d="M 8.99999 4.50342C 8.99999 7.00342 6.99999 9.00342 4.49999 9.00342C 1.99999 9.00342 -6.10352e-06 7.00342 -6.10352e-06 4.50342C -6.10352e-06 2.00342 1.99999 0.00342442 4.49999 0.00342442C 6.99999 -0.0965756 8.99999 2.00342 8.99999 4.50342Z"/>
<path id="path9_stroke" d="M 4.49999 0.00342442L 4.49999 1.50342L 4.52998 1.50342L 4.55995 1.50223L 4.49999 0.00342442ZM 7.49999 4.50342C 7.49999 6.175 6.17157 7.50342 4.49999 7.50342L 4.49999 10.5034C 7.82842 10.5034 10.5 7.83185 10.5 4.50342L 7.49999 4.50342ZM 4.49999 7.50342C 2.82842 7.50342 1.49999 6.175 1.49999 4.50342L -1.50001 4.50342C -1.50001 7.83185 1.17157 10.5034 4.49999 10.5034L 4.49999 7.50342ZM 1.49999 4.50342C 1.49999 2.83185 2.82842 1.50342 4.49999 1.50342L 4.49999 -1.49658C 1.17157 -1.49658 -1.50001 1.175 -1.50001 4.50342L 1.49999 4.50342ZM 4.55995 1.50223C 6.13007 1.43942 7.49999 2.77458 7.49999 4.50342L 10.5 4.50342C 10.5 1.23227 7.86991 -1.63257 4.44004 -1.49538L 4.55995 1.50223Z"/>
<path id="path10_fill" d="M 9.00001 4.50001C 9.00001 7.00001 7.00001 9.00001 4.50001 9.00001C 2.00001 9.00001 6.10352e-06 7.00001 6.10352e-06 4.50001C 6.10352e-06 2.00001 2.00001 6.10352e-06 4.50001 6.10352e-06C 7.00001 6.10352e-06 9.00001 2.00001 9.00001 4.50001Z"/>
<path id="path11_stroke" d="M 7.50001 4.50001C 7.50001 6.17158 6.17158 7.50001 4.50001 7.50001L 4.50001 10.5C 7.82843 10.5 10.5 7.82843 10.5 4.50001L 7.50001 4.50001ZM 4.50001 7.50001C 2.82843 7.50001 1.50001 6.17158 1.50001 4.50001L -1.49999 4.50001C -1.49999 7.82843 1.17158 10.5 4.50001 10.5L 4.50001 7.50001ZM 1.50001 4.50001C 1.50001 2.82843 2.82843 1.50001 4.50001 1.50001L 4.50001 -1.49999C 1.17158 -1.49999 -1.49999 1.17158 -1.49999 4.50001L 1.50001 4.50001ZM 4.50001 1.50001C 6.17158 1.50001 7.50001 2.82843 7.50001 4.50001L 10.5 4.50001C 10.5 1.17158 7.82843 -1.49999 4.50001 -1.49999L 4.50001 1.50001Z"/>
<path id="path12_fill" d="M 9.00001 4.50343C 9.00001 7.00343 7.00001 9.00343 4.50001 9.00343C 2.00001 9.00343 6.10352e-06 7.00343 6.10352e-06 4.50343C 6.10352e-06 2.00343 2.00001 0.00343052 4.50001 0.00343052C 7.00001 -0.0965695 9.00001 2.00343 9.00001 4.50343Z"/>
<path id="path13_stroke" d="M 4.50001 0.00343052L 4.50001 1.50343L 4.52999 1.50343L 4.55996 1.50223L 4.50001 0.00343052ZM 7.50001 4.50343C 7.50001 6.175 6.17158 7.50343 4.50001 7.50343L 4.50001 10.5034C 7.82843 10.5034 10.5 7.83186 10.5 4.50343L 7.50001 4.50343ZM 4.50001 7.50343C 2.82843 7.50343 1.50001 6.175 1.50001 4.50343L -1.49999 4.50343C -1.49999 7.83186 1.17158 10.5034 4.50001 10.5034L 4.50001 7.50343ZM 1.50001 4.50343C 1.50001 2.83186 2.82843 1.50343 4.50001 1.50343L 4.50001 -1.49657C 1.17158 -1.49657 -1.49999 1.175 -1.49999 4.50343L 1.50001 4.50343ZM 4.55996 1.50223C 6.13009 1.43943 7.50001 2.77459 7.50001 4.50343L 10.5 4.50343C 10.5 1.23227 7.86993 -1.63257 4.44005 -1.49537L 4.55996 1.50223Z"/>
<path id="path14_fill" d="M 9 4.50343C 9 7.00343 7 9.00343 4.5 9.00343C 2 9.00343 0 7.00343 0 4.50343C 0 2.00343 2 0.00343052 4.5 0.00343052C 6.9 -0.0965695 9 2.00343 9 4.50343Z"/>
<path id="path15_stroke" d="M 4.5 0.00343052L 4.5 1.50343L 4.53124 1.50343L 4.56245 1.50213L 4.5 0.00343052ZM 7.5 4.50343C 7.5 6.175 6.17157 7.50343 4.5 7.50343L 4.5 10.5034C 7.82843 10.5034 10.5 7.83186 10.5 4.50343L 7.5 4.50343ZM 4.5 7.50343C 2.82843 7.50343 1.5 6.175 1.5 4.50343L -1.5 4.50343C -1.5 7.83186 1.17157 10.5034 4.5 10.5034L 4.5 7.50343ZM 1.5 4.50343C 1.5 2.83186 2.82843 1.50343 4.5 1.50343L 4.5 -1.49657C 1.17157 -1.49657 -1.5 1.175 -1.5 4.50343L 1.5 4.50343ZM 4.56245 1.50213C 6.05076 1.44012 7.5 2.7956 7.5 4.50343L 10.5 4.50343C 10.5 1.21126 7.74924 -1.63326 4.43755 -1.49527L 4.56245 1.50213Z"/>
<path id="path16_fill" d="M -6.10352e-06 7.62939e-07L -6.10352e-06 41.1C -6.10352e-06 63 13.5 97.1 50.3 97.1C 59.9 97.1 79.1 77 79.1 48.3L 79.1 7.62939e-07L -6.10352e-06 7.62939e-07Z"/>
<path id="path17_stroke_2x" d="M -6.10352e-06 7.62939e-07L -6.10352e-06 -0.999999L -1.00001 -0.999999L -1.00001 7.62939e-07L -6.10352e-06 7.62939e-07ZM 79.1 7.62939e-07L 80.1 7.62939e-07L 80.1 -0.999999L 79.1 -0.999999L 79.1 7.62939e-07ZM -1.00001 7.62939e-07L -1.00001 41.1L 0.999994 41.1L 0.999994 7.62939e-07L -1.00001 7.62939e-07ZM -1.00001 41.1C -0.993019 52.168 2.46452 66.4636 10.5339 77.8904C 18.674 89.3861 31.5388 98.1 50.3 98.1L 50.3 96.1C 32.2612 96.1 19.976 87.7639 12.1661 76.7346C 4.28548 65.6365 0.993007 51.932 0.999994 41.1L -1.00001 41.1ZM 50.3 98.1C 53.0113 98.1 56.2219 96.7016 59.4452 94.3146C 62.6591 91.9302 66.072 88.4044 69.1205 84.0341C 75.1816 75.3221 80.0825 62.8363 80.1 48.3L 78.1 48.3C 78.1175 62.4637 73.4185 74.3779 67.4795 82.8909C 64.528 87.1332 61.3409 90.426 58.2549 92.7073C 55.1781 94.9859 52.3887 96.1 50.3 96.1L 50.3 98.1ZM 80.1 48.3L 80.1 7.62939e-07L 78.1 7.62939e-07L 78.1 48.3L 80.1 48.3ZM 79.1 -0.999999L -6.10352e-06 -0.999999L -6.10352e-06 1L 79.1 1L 79.1 -0.999999Z"/>
<path id="path18_stroke" d="M -6.10352e-06 7.62939e-07L -6.10352e-06 -1.5L -1.50001 -1.5L -1.50001 7.62939e-07L -6.10352e-06 7.62939e-07ZM 79.1 7.62939e-07L 80.6 7.62939e-07L 80.6 -1.5L 79.1 -1.5L 79.1 7.62939e-07ZM -1.50001 7.62939e-07L -1.50001 41.1L 1.49999 41.1L 1.49999 7.62939e-07L -1.50001 7.62939e-07ZM -1.50001 41.1C -1.48953 52.227 2.00928 66.6703 10.1258 78.1793C 18.3486 89.7917 31.3582 98.6 50.3 98.6L 50.3 95.6C 32.4418 95.6 20.3015 87.3583 12.5742 76.4457C 4.74072 65.4297 1.48951 51.873 1.49999 41.1L -1.50001 41.1ZM 50.3 98.6C 53.1669 98.6 56.4829 97.1305 59.7427 94.7164C 62.9886 92.3063 66.458 88.7222 69.5308 84.3199C 75.6223 75.5581 80.5737 62.9295 80.6 48.3L 77.6 48.3C 77.6263 62.3705 72.9777 74.1419 67.0692 82.6051C 64.142 86.8153 61.0114 90.05 57.9573 92.3055C 54.9171 94.557 52.2331 95.6 50.3 95.6L 50.3 98.6ZM 80.6 48.3L 80.6 7.62939e-07L 77.6 7.62939e-07L 77.6 48.3L 80.6 48.3ZM 79.1 -1.5L -6.10352e-06 -1.5L -6.10352e-06 1.5L 79.1 1.5L 79.1 -1.5Z"/>
<path id="path19_fill" d="M 6.10352e-06 22.5L 6.29999 22.5C 9.19999 22.5 11.5 20.2 11.5 17.3C 11.5 14.4 9.19999 12.1 6.29999 12.1L 3.79999 0"/>
<path id="path20_stroke" d="M 6.10352e-06 21C -0.828421 21 -1.49999 21.6716 -1.49999 22.5C -1.49999 23.3284 -0.828421 24 6.10352e-06 24L 6.10352e-06 21ZM 6.29999 12.1L 4.83102 12.4035C 4.97497 13.1002 5.58855 13.6 6.29999 13.6L 6.29999 12.1ZM 5.26897 -0.303507C 5.10135 -1.1148 4.30778 -1.6366 3.49649 -1.46897C 2.6852 -1.30135 2.1634 -0.507785 2.33102 0.303507L 5.26897 -0.303507ZM 6.10352e-06 24L 6.29999 24L 6.29999 21L 6.10352e-06 21L 6.10352e-06 24ZM 6.29999 24C 10.0284 24 13 21.0284 13 17.3L 10 17.3C 10 19.3716 8.37157 21 6.29999 21L 6.29999 24ZM 13 17.3C 13 13.5716 10.0284 10.6 6.29999 10.6L 6.29999 13.6C 8.37157 13.6 10 15.2284 10 17.3L 13 17.3ZM 7.76897 11.7965L 5.26897 -0.303507L 2.33102 0.303507L 4.83102 12.4035L 7.76897 11.7965Z"/>
<path id="path21_fill" d="M 5.39999 2.7C 5.39999 4.2 4.20001 5.4 2.70001 5.4C 1.20001 5.4 0 4.2 0 2.7C 0 1.2 1.20001 1.52588e-06 2.70001 1.52588e-06C 4.20001 1.52588e-06 5.39999 1.2 5.39999 2.7Z"/>
<path id="path22_stroke" d="M 2.70001 1.52588e-06L 2.70001 -1.25L 2.70001 1.52588e-06ZM 4.14999 2.7C 4.14999 3.50966 3.50964 4.15 2.70001 4.15L 2.70001 6.65C 4.89038 6.65 6.64999 4.89034 6.64999 2.7L 4.14999 2.7ZM 2.70001 4.15C 1.89036 4.15 1.25 3.50964 1.25 2.7L -1.25 2.7C -1.25 4.89036 0.509661 6.65 2.70001 6.65L 2.70001 4.15ZM 1.25 2.7C 1.25 1.89036 1.89036 1.25 2.70001 1.25L 2.70001 -1.25C 0.509666 -1.25 -1.25 0.509633 -1.25 2.7L 1.25 2.7ZM 2.70001 1.25C 3.50965 1.25 4.14999 1.89035 4.14999 2.7L 6.64999 2.7C 6.64999 0.509652 4.89038 -1.25 2.70001 -1.25L 2.70001 1.25Z"/>
<path id="path23_stroke" d="M 6.10352e-06 -1.5C -0.828421 -1.5 -1.49999 -0.82843 -1.49999 -3.05176e-06C -1.49999 0.828424 -0.828421 1.5 6.10352e-06 1.5L 6.10352e-06 -1.5ZM 19.9 1.5C 20.7284 1.5 21.4 0.828424 21.4 -3.05176e-06C 21.4 -0.82843 20.7284 -1.5 19.9 -1.5L 19.9 1.5ZM 6.10352e-06 1.5L 19.9 1.5L 19.9 -1.5L 6.10352e-06 -1.5L 6.10352e-06 1.5Z"/>
<path id="path24_fill" d="M 5.40001 2.7C 5.40001 4.2 4.2 5.4 2.7 5.4C 1.2 5.4 -1.2207e-05 4.2 -1.2207e-05 2.7C -1.2207e-05 1.2 1.2 1.52588e-06 2.7 1.52588e-06C 4.2 1.52588e-06 5.40001 1.2 5.40001 2.7Z"/>
<path id="path25_stroke" d="M 2.7 1.52588e-06L 2.7 -1.25L 2.7 1.52588e-06ZM 4.15001 2.7C 4.15001 3.50964 3.50965 4.15 2.7 4.15L 2.7 6.65C 4.89035 6.65 6.65001 4.89036 6.65001 2.7L 4.15001 2.7ZM 2.7 4.15C 1.89035 4.15 1.24999 3.50964 1.24999 2.7L -1.25001 2.7C -1.25001 4.89036 0.509649 6.65 2.7 6.65L 2.7 4.15ZM 1.24999 2.7C 1.24999 1.89036 1.89035 1.25 2.7 1.25L 2.7 -1.25C 0.509653 -1.25 -1.25001 0.509633 -1.25001 2.7L 1.24999 2.7ZM 2.7 1.25C 3.50965 1.25 4.15001 1.89036 4.15001 2.7L 6.65001 2.7C 6.65001 0.509633 4.89035 -1.25 2.7 -1.25L 2.7 1.25Z"/>
<path id="path26_fill" d="M 24 2.4565C 24 2.4565 21.9 -0.943502 12 0.256498C 4.80001 1.0565 6.10352e-06 2.4565 6.10352e-06 2.4565"/>
<path id="path27_stroke" d="M 22.7238 3.24474C 23.1591 3.94957 24.0834 4.16803 24.7882 3.7327C 25.4931 3.29737 25.7115 2.37309 25.2762 1.66826L 22.7238 3.24474ZM 12 0.256498L 12.1657 1.74732C 12.1706 1.74677 12.1756 1.7462 12.1805 1.7456L 12 0.256498ZM -0.419995 1.0165C -1.21529 1.24846 -1.67195 2.08121 -1.43999 2.8765C -1.20803 3.67179 -0.375282 4.12846 0.420007 3.8965L -0.419995 1.0165ZM 24 2.4565C 25.2762 1.66826 25.2753 1.66684 25.2744 1.6654C 25.2741 1.6649 25.2732 1.66345 25.2726 1.66246C 25.2719 1.66141 25.2701 1.65843 25.2688 1.65634C 25.2673 1.65404 25.2633 1.64776 25.2604 1.64318C 25.2569 1.63776 25.2479 1.62398 25.2407 1.61323C 25.2314 1.59924 25.2091 1.56698 25.1895 1.53959C 25.1605 1.49976 25.098 1.41837 25.035 1.34329C 24.9323 1.22276 24.7272 1.0076 24.4909 0.802973C 24.0746 0.450766 23.2954 -0.0692535 22.2662 -0.487573C 20.2089 -1.30465 16.9426 -1.85359 11.8195 -1.2326L 12.1805 1.7456C 16.9574 1.16658 19.6911 1.71765 21.1588 2.30058C 21.8921 2.58226 22.2567 2.83724 22.5435 3.08503C 22.6587 3.18041 22.6951 3.22149 22.7458 3.28222C 22.7596 3.29776 22.7652 3.30704 22.7586 3.29764C 22.7604 3.30043 22.7458 3.27915 22.7466 3.28035C 22.7495 3.2847 22.7351 3.26276 22.7365 3.26491C 22.7384 3.26787 22.7295 3.25395 22.7305 3.25543C 22.7315 3.25711 22.7267 3.2494 22.7272 3.25024C 22.7267 3.24935 22.7258 3.24797 22.7255 3.24753C 22.7247 3.24614 22.7238 3.24474 24 2.4565ZM 11.8344 -1.23433C 8.1818 -0.827545 5.10758 -0.26472 2.98571 0.189797C 1.91613 0.419131 1.0626 0.62594 0.491108 0.771959C 0.201323 0.846042 -0.0269237 0.907218 -0.176333 0.948179C -0.252983 0.969202 -0.31401 0.986293 -0.352881 0.997295C -0.373272 1.00307 -0.390077 1.00787 -0.400336 1.01082C -0.405938 1.01243 -0.410859 1.01385 -0.413667 1.01467C -0.415306 1.01514 -0.41689 1.0156 -0.41771 1.01584C -0.418237 1.01599 -0.418809 1.01616 -0.419073 1.01623C -0.419263 1.01629 -0.419494 1.01636 -0.419589 1.01639C -0.419801 1.01645 -0.419995 1.0165 6.10352e-06 2.4565C 0.420007 3.8965 0.41985 3.89655 0.419711 3.89659C 0.419689 3.8966 0.419568 3.89663 0.419524 3.89664C 0.419495 3.89665 0.41942 3.89667 0.419478 3.89666C 0.419827 3.89656 0.419997 3.89651 0.420692 3.8963C 0.422554 3.89577 0.424627 3.89517 0.428327 3.8941C 0.436671 3.89171 0.447698 3.88855 0.464222 3.88387C 0.499178 3.87398 0.548308 3.86021 0.61697 3.84139C 0.758186 3.80266 0.961189 3.74821 1.2339 3.67855C 1.78741 3.53706 2.58388 3.34387 3.6143 3.1232C 5.69243 2.67772 8.61821 2.14054 12.1657 1.74732L 11.8344 -1.23433Z"/>
<path id="path28_stroke" d="M -1.2207e-05 -1.5C -0.828439 -1.5 -1.50001 -0.82843 -1.50001 -3.05176e-06C -1.50001 0.828424 -0.828439 1.5 -1.2207e-05 1.5L -1.2207e-05 -1.5ZM 15.8 1.5C 16.6284 1.5 17.3 0.828424 17.3 -3.05176e-06C 17.3 -0.82843 16.6284 -1.5 15.8 -1.5L 15.8 1.5ZM -1.2207e-05 1.5L 15.8 1.5L 15.8 -1.5L -1.2207e-05 -1.5L -1.2207e-05 1.5Z"/>
<path id="path29_fill" d="M 0 -1.52588e-06L 15.9 -1.52588e-06L 30.9 -1.52588e-06"/>
<path id="path30_stroke" d="M 0 -1.5C -0.828427 -1.5 -1.5 -0.828429 -1.5 -1.52588e-06C -1.5 0.828426 -0.828427 1.5 0 1.5L 0 -1.5ZM 30.9 1.5C 31.7284 1.5 32.4 0.828426 32.4 -1.52588e-06C 32.4 -0.828429 31.7284 -1.5 30.9 -1.5L 30.9 1.5ZM 0 1.5L 15.9 1.5L 15.9 -1.5L 0 -1.5L 0 1.5ZM 15.9 1.5L 30.9 1.5L 30.9 -1.5L 15.9 -1.5L 15.9 1.5Z"/>
<path id="path31_fill" d="M -6.10352e-06 -1.52588e-06L 22 -1.52588e-06C 22 -1.52588e-06 19.7 6.6 12.6 6.6C 5.5 6.5 -6.10352e-06 -1.52588e-06 -6.10352e-06 -1.52588e-06Z"/>
<path id="path32_stroke" d="M -6.10352e-06 -1.52588e-06L -6.10352e-06 -1.5C -0.584072 -1.5 -1.11503 -1.16097 -1.36077 -0.631123C -1.60652 -0.101271 -1.52236 0.523045 -1.14508 0.968913L -6.10352e-06 -1.52588e-06ZM 22 -1.52588e-06L 23.4165 0.493611C 23.5763 0.0349083 23.5041 -0.472803 23.2228 -0.868789C 22.9414 -1.26477 22.4858 -1.5 22 -1.5L 22 -1.52588e-06ZM 12.6 6.6L 12.5789 8.09985C 12.5859 8.09995 12.593 8.1 12.6 8.1L 12.6 6.6ZM -6.10352e-06 1.5L 22 1.5L 22 -1.5L -6.10352e-06 -1.5L -6.10352e-06 1.5ZM 22 -1.52588e-06C 20.5835 -0.493614 20.5838 -0.494253 20.584 -0.494867C 20.584 -0.495039 20.5842 -0.49563 20.5844 -0.495974C 20.5843 -0.495729 20.5852 -0.498244 20.585 -0.49775C 20.585 -0.497653 20.5857 -0.499788 20.5856 -0.499571C 20.5861 -0.500924 20.5854 -0.498983 20.5845 -0.496417C 20.5813 -0.48767 20.5787 -0.480539 20.5723 -0.464016C 20.5568 -0.423587 20.5384 -0.377197 20.507 -0.303497C 20.4379 -0.140742 20.3467 0.0603207 20.2031 0.331111C 19.9009 0.905489 19.4899 1.58019 18.84 2.30504C 17.5877 3.71781 15.6201 5.1 12.6 5.1L 12.6 8.1C 16.6799 8.1 19.4122 6.18219 21.085 4.29496C 21.8976 3.36981 22.5053 2.39451 22.8563 1.73139C 23.0392 1.38343 23.1832 1.06886 23.2676 0.870682C 23.3129 0.763913 23.3509 0.668505 23.3726 0.612255C 23.3848 0.580438 23.3959 0.550508 23.4019 0.534281C 23.4055 0.524359 23.4092 0.514126 23.411 0.509135C 23.4122 0.505745 23.4136 0.501848 23.4142 0.500152C 23.4146 0.498859 23.4152 0.49722 23.4154 0.496574C 23.4156 0.496029 23.4159 0.495287 23.416 0.495015C 23.4162 0.4943 23.4165 0.493611 22 -1.52588e-06ZM 12.6211 5.10015C 9.41863 5.096 6.68978 3.62475 4.51696 2.04736C 3.44803 1.27626 2.62145 0.532573 2.01749 -0.0567816C 1.72348 -0.343118 1.50825 -0.569028 1.35235 -0.737981C 1.27798 -0.818473 1.22677 -0.875728 1.18839 -0.91926C 1.17088 -0.93909 1.16019 -0.95139 1.15127 -0.961731C 1.14762 -0.965949 1.14611 -0.967717 1.14426 -0.969883C 1.14373 -0.970494 1.14341 -0.970871 1.14368 -0.970558C 1.14361 -0.970637 1.14416 -0.969991 1.14413 -0.970029C 1.14425 -0.969892 1.14448 -0.969614 1.14454 -0.969546C 1.1448 -0.969243 1.14507 -0.968916 -6.10352e-06 -1.52588e-06C -1.14508 0.968913 -1.14477 0.96929 -1.14443 0.969691C -1.14428 0.969858 -1.14392 0.970285 -1.14364 0.970619C -1.14327 0.971053 -1.14242 0.972057 -1.14168 0.972923C -1.14061 0.974184 -1.13839 0.976789 -1.13624 0.979303C -1.13275 0.983387 -1.12627 0.990943 -1.11929 0.999027C -1.10697 1.01329 -1.08591 1.0375 -1.0614 1.0653C -1.01575 1.11703 -0.941859 1.19952 -0.851969 1.29696C -0.679355 1.48387 -0.409427 1.76655 -0.0768765 2.09115C 0.572288 2.72367 1.56446 3.61124 2.75804 4.47763C 5.11022 6.17524 8.68137 8.004 12.5789 8.09985L 12.6211 5.10015Z"/>
<path id="path33_fill" d="M 59.7 0.0795073C 23.5 -1.72049 -1.2207e-05 27.3795 -1.2207e-05 53.1795C -1.2207e-05 93.6795 -1.2207e-05 128.88 -1.2207e-05 128.88C -1.2207e-05 128.88 11.4 138.48 31.1 138.48L 31.1 105.88L 31.1 62.1795C 31.1 55.8795 36.2 50.7795 42.5 50.7795L 43.5 50.7795C 49.7 50.7795 54.8 45.7795 54.9 39.6795C 55.1 45.7795 60.1 50.7795 66.3 50.7795L 99.1 50.7795L 99.1 87.5795C 99.1 108.48 88.9 124.88 79.6 132.18L 79.6 137.98C 98.8 137.98 108.1 131.08 108.1 131.08C 108.1 131.08 108.1 91.8795 108.1 50.2795C 108.3 23.7795 90.7 1.57951 59.7 0.0795073Z"/>
<path id="path34_stroke" d="M 59.7 0.0795073L 59.6255 1.57766L 59.6275 1.57775L 59.7 0.0795073ZM -1.2207e-05 128.88L -1.50001 128.88C -1.50001 129.322 -1.30466 129.742 -0.966216 130.027L -1.2207e-05 128.88ZM 31.1 138.48L 31.1 139.98C 31.9284 139.98 32.6 139.308 32.6 138.48L 31.1 138.48ZM 54.9 39.6795L 56.3992 39.6304C 56.3725 38.8167 55.7018 38.1729 54.8877 38.1796C 54.0737 38.1862 53.4136 38.841 53.4002 39.6549L 54.9 39.6795ZM 99.1 50.7795L 100.6 50.7795C 100.6 49.9511 99.9284 49.2795 99.1 49.2795L 99.1 50.7795ZM 79.6 132.18L 78.6738 131C 78.3116 131.284 78.1 131.719 78.1 132.18L 79.6 132.18ZM 79.6 137.98L 78.1 137.98C 78.1 138.808 78.7716 139.48 79.6 139.48L 79.6 137.98ZM 108.1 131.08L 108.994 132.284C 109.375 132.001 109.6 131.554 109.6 131.08L 108.1 131.08ZM 108.1 50.2795L 106.6 50.2682L 106.6 50.2795L 108.1 50.2795ZM 59.7745 -1.41864C 22.6639 -3.26392 -1.50001 26.5768 -1.50001 53.1795L 1.49999 53.1795C 1.49999 28.1822 24.3361 -0.177065 59.6255 1.57766L 59.7745 -1.41864ZM -1.50001 53.1795C -1.50001 73.4295 -1.50001 92.3545 -1.50001 106.217C -1.50001 113.148 -1.50001 118.814 -1.50001 122.747C -1.50001 124.713 -1.50001 126.246 -1.50001 127.288C -1.50001 127.809 -1.50001 128.207 -1.50001 128.474C -1.50001 128.608 -1.50001 128.709 -1.50001 128.777C -1.50001 128.811 -1.50001 128.837 -1.50001 128.854C -1.50001 128.862 -1.50001 128.869 -1.50001 128.873C -1.50001 128.875 -1.50001 128.877 -1.50001 128.878C -1.50001 128.878 -1.50001 128.879 -1.50001 128.879C -1.50001 128.879 -1.50001 128.88 -1.2207e-05 128.88C 1.49999 128.88 1.49999 128.879 1.49999 128.879C 1.49999 128.879 1.49999 128.878 1.49999 128.878C 1.49999 128.877 1.49999 128.875 1.49999 128.873C 1.49999 128.869 1.49999 128.862 1.49999 128.854C 1.49999 128.837 1.49999 128.811 1.49999 128.777C 1.49999 128.709 1.49999 128.608 1.49999 128.474C 1.49999 128.207 1.49999 127.809 1.49999 127.288C 1.49999 126.246 1.49999 124.713 1.49999 122.747C 1.49999 118.814 1.49999 113.148 1.49999 106.217C 1.49999 92.3545 1.49999 73.4295 1.49999 53.1795L -1.50001 53.1795ZM -1.2207e-05 128.88C -0.966216 130.027 -0.965695 130.027 -0.96513 130.028C -0.964884 130.028 -0.964274 130.029 -0.963781 130.029C -0.963114 130.029 -0.961631 130.031 -0.960294 130.032C -0.95826 130.034 -0.954238 130.037 -0.950165 130.04C -0.943307 130.046 -0.931045 130.056 -0.917322 130.067C -0.892481 130.088 -0.851147 130.121 -0.801525 130.161C -0.707614 130.236 -0.558232 130.352 -0.37137 130.492C -0.00881816 130.764 0.552714 131.167 1.26822 131.635C 2.6748 132.554 4.81629 133.811 7.54494 135.046C 12.944 137.482 21.0263 139.963 31.1 139.98L 31.1 136.98C 21.4737 136.996 14.006 134.677 8.78004 132.313C 6.19619 131.148 4.25643 130.005 2.90989 129.124C 2.24883 128.692 1.76583 128.345 1.42799 128.092C 1.26465 127.969 1.14988 127.88 1.06717 127.814C 1.02849 127.783 1.00341 127.763 0.983905 127.747C 0.975457 127.74 0.971068 127.736 0.966816 127.733C 0.965334 127.731 0.965188 127.731 0.964441 127.731C 0.964388 127.731 0.964772 127.731 0.9648 127.731C 0.964946 127.731 0.965294 127.731 0.965367 127.731C 0.965757 127.732 0.966191 127.732 -1.2207e-05 128.88ZM 32.6 138.48L 32.6 105.88L 29.6 105.88L 29.6 138.48L 32.6 138.48ZM 32.6 105.88L 32.6 62.1795L 29.6 62.1795L 29.6 105.88L 32.6 105.88ZM 32.6 62.1795C 32.6 56.7079 37.0284 52.2795 42.5 52.2795L 42.5 49.2795C 35.3716 49.2795 29.6 55.0511 29.6 62.1795L 32.6 62.1795ZM 42.5 52.2795L 43.5 52.2795L 43.5 49.2795L 42.5 49.2795L 42.5 52.2795ZM 43.5 52.2795C 50.5074 52.2795 56.2862 46.6342 56.3998 39.7041L 53.4002 39.6549C 53.3138 44.9248 48.8926 49.2795 43.5 49.2795L 43.5 52.2795ZM 53.4008 39.7287C 53.6267 46.6175 59.2709 52.2795 66.3 52.2795L 66.3 49.2795C 60.9291 49.2795 56.5733 44.9415 56.3992 39.6304L 53.4008 39.7287ZM 66.3 52.2795L 99.1 52.2795L 99.1 49.2795L 66.3 49.2795L 66.3 52.2795ZM 97.6 50.7795L 97.6 87.5795L 100.6 87.5795L 100.6 50.7795L 97.6 50.7795ZM 97.6 87.5795C 97.6 108.018 87.6123 123.983 78.6738 131L 80.5262 133.359C 90.1876 125.776 100.6 108.941 100.6 87.5795L 97.6 87.5795ZM 78.1 132.18L 78.1 137.98L 81.1 137.98L 81.1 132.18L 78.1 132.18ZM 79.6 139.48C 89.3777 139.469 96.7594 137.69 101.564 135.939C 104 135.047 105.867 134.135 107.072 133.471C 107.688 133.13 108.171 132.833 108.477 132.636C 108.637 132.532 108.767 132.444 108.846 132.389C 108.889 132.359 108.926 132.333 108.948 132.318C 108.96 132.309 108.971 132.301 108.978 132.296C 108.981 132.293 108.985 132.29 108.987 132.289C 108.989 132.288 108.99 132.287 108.991 132.286C 108.992 132.286 108.992 132.285 108.992 132.285C 108.993 132.285 108.994 132.284 108.1 131.08C 107.206 129.875 107.207 129.874 107.207 129.874C 107.207 129.874 107.208 129.874 107.208 129.873C 107.208 129.874 107.209 129.873 107.209 129.873C 107.21 129.872 107.209 129.872 107.209 129.873C 107.206 129.875 107.204 129.877 107.198 129.881C 107.183 129.892 107.165 129.904 107.135 129.925C 107.069 129.971 106.98 130.031 106.848 130.116C 106.571 130.296 106.177 130.538 105.622 130.844C 104.483 131.474 102.825 132.287 100.536 133.12C 95.8906 134.819 89.0223 136.49 79.6 136.48L 79.6 139.48ZM 108.1 131.08C 109.6 131.08 109.6 131.079 109.6 131.079C 109.6 131.079 109.6 131.078 109.6 131.078C 109.6 131.077 109.6 131.075 109.6 131.072C 109.6 131.068 109.6 131.06 109.6 131.051C 109.6 131.032 109.6 131.004 109.6 130.966C 109.6 130.89 109.6 130.778 109.6 130.629C 109.6 130.332 109.6 129.89 109.6 129.314C 109.6 128.161 109.6 126.467 109.6 124.305C 109.6 119.98 109.6 113.78 109.6 106.28C 109.6 91.2795 109.6 71.0795 109.6 50.2795L 106.6 50.2795C 106.6 71.0795 106.6 91.2795 106.6 106.28C 106.6 113.78 106.6 119.98 106.6 124.305C 106.6 126.467 106.6 128.161 106.6 129.314C 106.6 129.89 106.6 130.332 106.6 130.629C 106.6 130.778 106.6 130.89 106.6 130.966C 106.6 131.004 106.6 131.032 106.6 131.051C 106.6 131.06 106.6 131.068 106.6 131.072C 106.6 131.075 106.6 131.077 106.6 131.078C 106.6 131.078 106.6 131.079 106.6 131.079C 106.6 131.079 106.6 131.08 108.1 131.08ZM 109.6 50.2908C 109.806 23.0373 91.6263 0.122572 59.7725 -1.41874L 59.6275 1.57775C 89.7737 3.03644 106.794 24.5217 106.6 50.2682L 109.6 50.2908Z"/>
<path id="path35_stroke" d="M -1.25001 111.8C -1.25001 112.49 -0.690368 113.05 -1.2207e-05 113.05C 0.690344 113.05 1.24999 112.49 1.24999 111.8L -1.25001 111.8ZM 20.4652 0.988405C 21.0111 0.565787 21.111 -0.219336 20.6884 -0.765217C 20.2658 -1.3111 19.4807 -1.41102 18.9348 -0.988405L 20.4652 0.988405ZM 1.24999 111.8L 1.24999 38.1L -1.25001 38.1L -1.25001 111.8L 1.24999 111.8ZM 1.24999 38.1C 1.24999 24.52 8.34373 10.3728 20.4652 0.988405L 18.9348 -0.988405C 6.25627 8.82722 -1.25001 23.68 -1.25001 38.1L 1.24999 38.1Z"/>
<path id="path36_fill" d="M 6.10352e-06 0C 0.600006 1.5 1.10001 3 1.60001 4.6Z"/>
<path id="path37_stroke" d="M 1.1606 -0.464238C 0.90421 -1.10522 0.176747 -1.41699 -0.464232 -1.1606C -1.10521 -0.904204 -1.41698 -0.176741 -1.16059 0.464238L 1.1606 -0.464238ZM 0.406912 4.97284C 0.612828 5.63177 1.31392 5.99901 1.97286 5.7931C 2.63179 5.58718 2.99903 4.88609 2.79311 4.22715L 0.406912 4.97284ZM -1.16059 0.464238C -0.573724 1.92995 -0.089517 3.38408 0.406912 4.97284L 2.79311 4.22715C 2.28954 2.61591 1.77374 1.07005 1.1606 -0.464238L -1.16059 0.464238Z"/>
<path id="path38_stroke" d="M -0.205499 -0.432992C -0.886462 -0.319498 -1.34649 0.324537 -1.23299 1.0055C -1.1195 1.68646 -0.475464 2.14649 0.205499 2.03299L -0.205499 -0.432992ZM 12.4 0.1L 12.2756 1.3438C 12.2951 1.34575 12.3147 1.34724 12.3343 1.34827L 12.4 0.1ZM 49.5304 21.9469C 49.8877 22.5376 50.6562 22.7269 51.2469 22.3696C 51.8376 22.0123 52.0269 21.2438 51.6696 20.6531L 49.5304 21.9469ZM 0.205499 2.03299C 3.16305 1.53932 6.16027 1.24855 9.39999 1.25L 9.39999 -1.25C 6.03972 -1.24855 2.83695 -0.93932 -0.205499 -0.432992L 0.205499 2.03299ZM 9.39999 1.25C 10.4 1.25 11.3377 1.24845 12.2756 1.3438L 12.5244 -1.1438C 11.4623 -1.24845 10.4 -1.25 9.39999 -1.25L 9.39999 1.25ZM 12.3343 1.34827C 29.0746 2.22934 42.2713 9.94508 49.5304 21.9469L 51.6696 20.6531C 43.9288 7.85492 29.9254 -0.229339 12.4657 -1.14827L 12.3343 1.34827Z"/>
<path id="path39_fill" d="M 6.10352e-06 2.4565C 6.10352e-06 2.4565 2.10001 -0.943502 12 0.256498C 13.4 0.456498 14.8 0.656498 16 0.756498"/>
<path id="path40_stroke" d="M -1.27619 1.66826C -1.71152 2.37309 -1.49306 3.29737 -0.788232 3.7327C -0.083408 4.16803 0.840871 3.94957 1.2762 3.24474L -1.27619 1.66826ZM 12 0.256498L 12.2121 -1.22843C 12.2016 -1.22993 12.1911 -1.23132 12.1805 -1.2326L 12 0.256498ZM 15.8754 2.25132C 16.701 2.32011 17.426 1.70663 17.4948 0.881067C 17.5636 0.0555011 16.9501 -0.669523 16.1246 -0.73832L 15.8754 2.25132ZM 6.10352e-06 2.4565C 1.2762 3.24474 1.27534 3.24614 1.27448 3.24753C 1.2742 3.24797 1.27335 3.24935 1.27279 3.25024C 1.27332 3.2494 1.26848 3.25711 1.26954 3.25543C 1.27047 3.25395 1.26161 3.26787 1.26351 3.26491C 1.2649 3.26276 1.25052 3.2847 1.2534 3.28035C 1.25423 3.27915 1.23958 3.30043 1.24145 3.29764C 1.2348 3.30704 1.24037 3.29776 1.25419 3.28222C 1.30494 3.22149 1.34131 3.18041 1.4565 3.08503C 1.74333 2.83724 2.10795 2.58226 2.84118 2.30058C 4.30889 1.71765 7.04264 1.16658 11.8195 1.7456L 12.1805 -1.2326C 7.05738 -1.85359 3.79112 -1.30465 1.73383 -0.487573C 0.704562 -0.0692535 -0.0745672 0.450766 -0.490861 0.802973C -0.727238 1.0076 -0.932268 1.22276 -1.03504 1.34329C -1.09798 1.41837 -1.16049 1.49976 -1.18944 1.53959C -1.20911 1.56698 -1.23135 1.59924 -1.24074 1.61323C -1.24789 1.62398 -1.25689 1.63776 -1.26038 1.64318C -1.26331 1.64776 -1.2673 1.65404 -1.26875 1.65634C -1.27007 1.65843 -1.27194 1.66141 -1.27259 1.66246C -1.27321 1.66345 -1.27411 1.6649 -1.27442 1.6654C -1.27531 1.66684 -1.27619 1.66826 6.10352e-06 2.4565ZM 11.7879 1.74142C 13.1879 1.94142 14.6316 2.14701 15.8754 2.25132L 16.1246 -0.73832C 14.9684 -0.834016 13.6121 -1.02843 12.2121 -1.22843L 11.7879 1.74142Z"/>
<path id="path41_stroke" d="M 31.4 30.8292C 31.4 31.6576 32.0716 32.3292 32.9 32.3292C 33.7284 32.3292 34.4 31.6576 34.4 30.8292L 31.4 30.8292ZM 28.5 12.4292L 27.1405 13.0631C 27.1641 13.1137 27.1905 13.1628 27.2195 13.2105L 28.5 12.4292ZM -0.65696 1.28067C -1.40171 1.6435 -1.71132 2.54137 -1.34849 3.28611C -0.985665 4.03086 -0.0877996 4.34047 0.656948 3.97764L -0.65696 1.28067ZM 34.4 30.8292C 34.4 26.4455 33.5989 17.9058 29.7805 11.6479L 27.2195 13.2105C 30.6011 18.7525 31.4 26.6128 31.4 30.8292L 34.4 30.8292ZM 28.5 12.4292C 29.8594 11.7952 29.8591 11.7945 29.8587 11.7936C 29.8585 11.7933 29.8581 11.7924 29.8578 11.7916C 29.8573 11.7906 29.8562 11.7883 29.8552 11.7863C 29.8537 11.783 29.8508 11.7768 29.8477 11.7703C 29.8424 11.7592 29.8331 11.7398 29.8224 11.7179C 29.8029 11.6778 29.7706 11.6124 29.7313 11.535C 29.6564 11.3877 29.5366 11.1593 29.385 10.8874C 29.0901 10.3593 28.6249 9.58112 28.0228 8.70888C 26.8385 6.99825 24.9526 4.71065 22.4821 2.78161C 17.3963 -1.16494 9.66468 -3.74781 -0.65696 1.28067L 0.656948 3.97764C 9.83531 -0.493867 16.3537 1.82326 20.6429 5.15171C 22.8599 6.86017 24.4427 8.80382 25.5553 10.4151C 26.1016 11.2038 26.4919 11.8592 26.7654 12.3494C 26.8979 12.5867 26.9906 12.7637 27.057 12.8945C 27.0884 12.9561 27.109 12.9979 27.1247 13.0303C 27.1317 13.0446 27.1356 13.0527 27.1391 13.0601C 27.1404 13.0629 27.1408 13.0636 27.1414 13.065C 27.1416 13.0653 27.1415 13.0651 27.1414 13.0649C 27.1413 13.0648 27.1411 13.0643 27.1411 13.0642C 27.1408 13.0637 27.1405 13.0631 28.5 12.4292Z"/>
</defs>
</svg>
