<svg width="149" height="148" viewBox="0 0 149 148" version="1.1" xmlns="http://www.w3.org/2000/svg" xmlns:xlink="http://www.w3.org/1999/xlink"><title>mal</title><desc>Created using Figma</desc><use xlink:href="#a" fill="#F2F2F2"/><use xlink:href="#b" transform="translate(76.92 120.2)" fill="#333"/><g transform="translate(50.13 99.72)"><use xlink:href="#c" fill="#FFF"/><use xlink:href="#d" fill="#333"/></g><g transform="translate(76.34 99.72)"><use xlink:href="#e" fill="#FFF"/><use xlink:href="#f" fill="#333"/></g><g transform="translate(56.67 62.5)"><use xlink:href="#g" fill="#FFF"/><use xlink:href="#h" fill="#333"/></g><g transform="translate(52.18 33.54)"><use xlink:href="#i" fill="#FFF"/><use xlink:href="#j" fill="#333"/></g><g transform="translate(50.83 16.81)"><use xlink:href="#k" fill="#BDBDBD"/><use xlink:href="#l" fill="#333"/></g><use xlink:href="#m" transform="translate(48.59 54.81)" fill="#FFF"/><use xlink:href="#n" transform="translate(47.63 53.85)" fill="#333"/><g transform="translate(76.86 76.85)"><use xlink:href="#o" fill="#FFF"/><use xlink:href="#p" fill="#333"/></g><g transform="translate(55.13 78.55)"><use xlink:href="#q" fill="#BDBDBD"/><use xlink:href="#r" fill="#333"/></g><g transform="translate(86.02 54.81)"><use xlink:href="#s" fill="#FFF"/><use xlink:href="#t" fill="#333"/></g><g transform="translate(55.83 54.81)"><use xlink:href="#u" fill="#FFF"/><use xlink:href="#v" fill="#333"/></g><g transform="translate(95.51 58.14)"><use xlink:href="#w" fill="#FFF"/><use xlink:href="#x" fill="#333"/></g><use xlink:href="#y" transform="translate(91.6 58.14)" fill="#333"/><g transform="translate(61.79 54.81)"><use xlink:href="#z" fill="#FFF"/><use xlink:href="#A" fill="#333"/></g><g transform="translate(83.33 55.49)"><use xlink:href="#B" fill="#FFF"/><use xlink:href="#C" fill="#333"/></g><g transform="translate(69.87 58.14)"><use xlink:href="#D" fill="#FFF"/><use xlink:href="#E" fill="#333"/></g><use xlink:href="#F" transform="translate(65.96 58.14)" fill="#333"/><g transform="translate(101.6 34.11)"><use xlink:href="#G" fill="#FFF"/><use xlink:href="#H" fill="#333"/></g><use xlink:href="#I" transform="translate(76.28 19.95)" fill="#333"/><g transform="translate(57.75 27.96)"><use xlink:href="#J" fill="#FFF"/><use xlink:href="#K" fill="#333"/></g><defs><path id="a" d="M148.1 74c0 40.869-33.153 74-74.05 74S0 114.869 0 74C0 33.13 33.153 0 74.05 0s74.05 33.13 74.05 74z"/><path id="b" d="M1 0a1 1 0 1 0-2 0h2zm-2 10.251a1 1 0 1 0 2 0h-2zM-1 0v10.251h2V0h-2z"/><path id="c" d="M8.59 0C4.422.833 2.755 2.499 0 4.229c0 0 .641 6.022 7.243 13.646 4.872 5.638 11.218 9.61 11.218 9.61l7.692-7.24L8.589 0z"/><path id="d" d="M8.59 0l.755-.655a1 1 0 0 0-.952-.326L8.59 0zM0 4.229l-.532-.847a1 1 0 0 0-.462.952L0 4.23zm7.243 13.646L8 17.221l-.757.654zm11.218 9.61l-.53.848a1 1 0 0 0 1.215-.12l-.685-.727zm7.692-7.24l.685.73a1 1 0 0 0 .07-1.384l-.755.655zM8.393-.98c-4.4.88-6.292 2.71-8.925 4.363L.532 5.076C3.412 3.268 4.853 1.766 8.785.98L8.393-.981zM0 4.23l-.994.106v.004a1.834 1.834 0 0 0 .012.095l.036.235c.034.2.09.488.177.852.174.728.475 1.766.987 3.044 1.024 2.556 2.892 6.065 6.27 9.965l1.511-1.31c-3.225-3.723-4.979-7.038-5.925-9.4a19.967 19.967 0 0 1-.898-2.764A11.183 11.183 0 0 1 1 4.162a2.49 2.49 0 0 1-.005-.037L.994 4.12v.001c0 .001 0 .002-.994.108zm6.487 14.3c2.495 2.888 5.355 5.336 7.58 7.057a60.731 60.731 0 0 0 2.76 2.016 43.655 43.655 0 0 0 1.023.68l.058.037.016.01.004.003h.001v.001l.532-.847.53-.848-.002-.002-.012-.007a36.314 36.314 0 0 1-.251-.162 41.211 41.211 0 0 1-.767-.515 58.686 58.686 0 0 1-2.668-1.948C13.125 22.329 10.377 19.972 8 17.22L6.487 18.53zm12.66 9.685l7.691-7.24-1.37-1.456-7.693 7.24 1.371 1.456zm7.761-8.623L9.345-.655 7.834.655l17.563 20.246 1.511-1.31z"/><path id="e" d="M17.563 0c4.167.833 5.834 2.499 8.59 4.229 0 0-.641 6.022-7.243 13.646-4.872 5.638-11.218 9.61-11.218 9.61L0 20.246 17.563 0z"/><path id="f" d="M17.563 0l.196-.98a1 1 0 0 0-.951.325l.755.655zm8.59 4.229l.994.105a1 1 0 0 0-.463-.952l-.531.847zM18.91 17.875l-.756-.654h-.001l.757.654zm-11.218 9.61l-.685.729a1 1 0 0 0 1.216.12l-.531-.848zM0 20.246l-.755-.654a1 1 0 0 0 .07 1.383L0 20.246zM17.367.982c3.932.786 5.374 2.287 8.254 4.095l1.063-1.694C24.052 1.73 22.16-.101 17.76-.981L17.367.981zm8.786 3.248a114.44 114.44 0 0 1-.994-.107V4.12l-.001.005-.005.037a11.213 11.213 0 0 1-.176.894 19.978 19.978 0 0 1-.898 2.765c-.947 2.36-2.7 5.676-5.925 9.4l1.511 1.309c3.378-3.9 5.245-7.409 6.27-9.965.512-1.278.813-2.316.987-3.044a13.149 13.149 0 0 0 .213-1.087 4.787 4.787 0 0 0 .01-.088l.002-.007a.12.12 0 0 1 0-.002v-.002l-.994-.106zm-8 12.992c-2.377 2.751-5.125 5.108-7.29 6.783a58.676 58.676 0 0 1-2.67 1.948 41.174 41.174 0 0 1-.967.645l-.05.032-.012.007-.002.002a458.487 458.487 0 0 1 1.06 1.695h.001l.002-.001.004-.003a1.45 1.45 0 0 0 .074-.047l.218-.14c.19-.124.462-.306.804-.54a60.725 60.725 0 0 0 2.76-2.016c2.226-1.721 5.086-4.17 7.581-7.057l-1.513-1.308zm-9.776 9.537l-7.692-7.24-1.37 1.456 7.692 7.24 1.37-1.456zM.755 20.9L18.32.655l-1.511-1.31L-.755 19.59l1.51 1.31z"/><path id="g" d="M37.563 38.57c0 8.585-16.923 18.516-16.923 18.516S0 47.476 0 38.57V0h37.563v38.57z"/><path id="h" d="M20.64 57.086l-.422.906a1 1 0 0 0 .928-.044l-.506-.862zM0 0v-1a1 1 0 0 0-1 1h1zm37.563 0v1a1 1 0 0 0 1-1h-1zm-1 38.57c0 1.831-.913 3.85-2.448 5.919-1.522 2.051-3.572 4.04-5.657 5.793a67.813 67.813 0 0 1-5.731 4.288 66.691 66.691 0 0 1-2.414 1.546 26.416 26.416 0 0 1-.17.102l-.007.004-.002.001.506.863.507.862.004-.002.01-.007.04-.023a30.909 30.909 0 0 0 .695-.425 68.714 68.714 0 0 0 1.946-1.26 69.808 69.808 0 0 0 5.903-4.418c2.146-1.804 4.325-3.907 5.976-6.132 1.639-2.208 2.842-4.65 2.842-7.111h-2zM20.64 57.086l.422-.907-.002-.001-.01-.005-.042-.02-.167-.079a81.08 81.08 0 0 1-2.953-1.51c-1.915-1.03-4.463-2.491-7.005-4.223-2.549-1.737-5.055-3.721-6.914-5.79C2.088 42.459 1 40.423 1 38.57h-2c0 2.6 1.492 5.105 3.481 7.318 2.011 2.239 4.665 4.327 7.276 6.106 2.618 1.783 5.23 3.281 7.185 4.332a83.088 83.088 0 0 0 3.034 1.551 34.624 34.624 0 0 0 .225.107l.012.006c.002 0 .003.001.003.002h.002l.422-.906zM1 38.57v-.053-.053-.053-.054-.054-.055-.055-.056-.056-.056-.057-.058-.058-.058-.06-.059-.06-.06-.06-.06-.062-.062-.063-.062-.063-.064-.064-.064-.065-.065-.066-.066-.066-.067-.068-.067-.068-.069-.068-.07-.07-.07-.07-.07-.071-.072-.072-.072-.072-.073-.074-.073-.074-.075-.074-.075-.076-.076-.076-.076-.077-.077-.078-.078-.078-.078-.079-.079-.08-.08-.08-.08-.08-.081-.082-.081-.082-.082-.083-.083-.083-.083-.084-.084-.084-.085-.085-.085-.085-.086-.086-.086-.087-.086-.087-.088-.087-.088-.088-.088-.089-.089-.089-.089-.09-.09-.09-.09-.09-.09-.092-.09-.092-.092-.092-.092-.092-.092-.093-.093-.093-.093-.094-.093-.094-.094-.094-.095-.095-.094-.095-.095-.096-.095-.096-.096-.096-.096-.097-.096-.097-.097-.097-.097-.097-.098-.097-.098-.098-.098-.098-.098-.099-.098-.099-.099-.099-.099-.099-.1-.099-.1-.099-.1-.1-.1-.1-.1-.1-.1-.1-.1-.101-.101-.101-.1-.102-.1-.102-.101-.101-.102-.1-.102-.102-.101-.102-.101-.102-.102-.102-.102-.102-.101-.102-.102-.102-.102-.103-.102-.102-.102-.102-.102-.103-.102-.102-.102-.102-.103-.102-.102-.102-.103-.102-.102-.102-.103-.102-.102-.102-.102-.102-.102-.103-.101-.102-.102-.102-.102-.102-.102-.101-.102-.102-.101-.102-.101-.102-.101-.101-.101-.102-.1-.102-.1-.101-.101-.1-.101-.1-.101-.1-.1-.1-.1-.1-.1-.1-.1-.1-.099-.099-.099-.099-.099-.099-.098-.099-.098-.098-.098-.098-.098-.098-.097-.098-.097-.097-.097-.097-.097-.096-.096-.096-.096-.096-.096-.095-.095-.096-.095-.094-.095-.094-.094-.094-.094-.094-.093-.093-.093-.093-.092-.093-.092-.092-.092-.091-.091-.091-.091-.09-.091-.09-.09-.09-.09-.089-.088-.09-.088-.088-.088-.087-.088-.087-.087-.087-.086-.086-.086-.085-.086-.085-.084-.085V8.3v-.084-.083-.084-.083-.082V7.8v-.082-.082-.081-.081-.081-.08-.081-.08-.08-.079-.079-.079-.078-.078-.078-.077-.077-.077-.076-.076-.076-.075-.075-.074-.075-.073-.074-.073-.073-.072-.072-.072-.071-.071-.07-.071-.07-.07-.068-.069-.068-.068-.067-.067-.067-.066-.066-.066-.065-.064-.065-.063-.064-.063-.062-.062-.062-.061-.061-.06-.06-.06-.06-.058-.058-.058-.057-.057-.056-.056-.056-.055-.054-.054-.054-.053-.053-.052-.052-.051-.05-.051-.05-.05-.048-.048-.048-.048-.047-.046-.046-.045-.045-.044-.044-.043-.043-.042-.042-.041-.041-.04-.04-.039-.039-.038-.037-.037-.036-.036-.036V1 .964.931.898.865.833.802.77.74.71.68.654.625.598.57.545.519.494.47.446.422.4.378.356v-.02-.021-.02-.019-.018V.24.223.206.19.175.16.146.133.12.108.096v-.01-.01-.01-.01-.008-.007-.007-.007-.005-.005-.005-.004-.003-.002-.002L0 0h-1V38.57h2zM0 1h37.563v-2H0v2zm38.563-1h-2V38.57h2v-.05-.052-.051-.053-.053-.053-.054-.054-.055-.055-.056-.056-.056-.058-.057-.058-.058-.06-.058-.06-.06-.061-.061-.062-.062-.062-.063-.063-.063-.065-.064-.065-.065-.066-.066-.067-.066-.068-.067-.069-.068-.069-.07-.069-.07-.07-.071-.072-.071-.072-.072-.073-.073-.074-.074-.074-.074-.075-.075-.076-.076-.076-.077-.077-.077-.078-.078-.078-.079-.079-.08-.079-.08-.08-.08-.082-.08-.082-.082-.082-.083-.083-.083-.083-.084-.084-.084-.084-.085-.085-.086-.085-.086-.086-.087-.087-.086-.088-.087-.088-.088-.088-.09-.088-.089-.09-.089-.09-.09-.09-.09-.091-.091-.091-.092-.091-.092-.092-.093-.092-.093-.093-.093-.093-.094-.094-.094-.094-.094-.095-.094-.095-.095-.096-.095-.096-.096-.096-.096-.096-.097-.096-.097-.097-.097-.097-.098-.098-.097-.098-.098-.098-.099-.098-.099-.098-.1-.098-.1-.099-.099-.1-.099-.1-.1-.1-.1-.1-.1-.1-.1-.101-.1-.101-.101-.101-.101-.101-.101-.101-.102-.101-.101-.102-.101-.102-.102-.102-.101-.102-.102-.102-.102-.102-.102-.102-.102-.103-.102-.102-.102-.103-.102-.102-.103-.102-.103-.102-.102-.103-.102-.103-.102-.103-.102-.103-.102-.103-.102-.102-.103-.102-.103-.102-.102-.103-.102-.102-.102-.102-.102-.103-.102-.102-.102-.101-.102-.102-.102-.101-.102-.101-.102-.101-.102-.1-.102-.101-.101-.101-.1-.102-.1-.1-.101-.1-.1-.101-.1-.1-.1-.1-.1-.099-.1-.099-.099-.099-.099-.098-.1-.098-.098-.098-.098-.098-.098-.098-.097-.098-.097-.097-.097-.097-.096-.097-.096-.096-.096-.096-.095-.095-.096-.095-.095-.094-.095-.094-.094-.094-.093-.094-.093-.093-.093-.093-.092-.092-.092-.092-.091-.092-.09-.092-.09-.09-.09-.09-.09-.09-.09-.088-.089-.088-.088-.088-.088-.087-.087-.087-.087-.086-.086-.086-.086-.085-.085-.084-.085-.084-.084-.083-.083-.083-.083-.082-.082-.082-.081-.081-.081-.08-.08-.08-.08-.08-.078-.078-.079-.077-.078-.077-.077-.076-.076-.076-.076-.075-.074-.075-.074-.073-.074-.072-.073-.072-.072-.071-.071-.071-.07-.07-.07-.069-.069-.068-.068-.067-.067-.067-.066-.066-.066-.065-.065-.064-.064-.063-.063-.063-.062-.061-.062-.06-.061-.06-.06-.059-.058-.058V3.1v-.057-.057-.056-.056-.056-.055-.054-.054V2.6v-.053-.053-.052-.051-.051-.051-.05-.05-.05-.048-.048-.048-.047-.047-.046-.046-.045-.045-.044-.043-.043-.043-.042-.042-.04-.041-.04-.04-.038-.039-.037-.038-.036-.037-.035-.035-.035-.034-.033-.033V.84.808v-.03-.031-.03-.03V.66.63.603.576.549.523.498.474.449.426.403.381.359.34.317v-.02-.02V.26.242.225.208.192.176.162.147.134.12.109.097v-.01-.011-.01-.009-.008V.04.034.027.022.017.012.01.005.003.001l-2-.001h2z"/><path id="i" d="M0 0v29.408c0 24.666 15.192 33.06 21.153 34.853 6.025 1.794 12.884 2.179 18.204-1.73 4.551-3.331 11.41-16.017 11.41-28.51V0H0z"/><path id="j" d="M21.153 64.261l-.288.958h.003l.285-.957zm18.204-1.73l-.59-.806h-.002l.592.807zM50.767 0h1v-1h-1v1zM-1 0v29.408h2V0h-2zm0 29.408c0 25.203 15.58 33.92 21.865 35.811l.576-1.915C15.804 61.607 1 53.538 1 29.408h-2zM20.868 65.22c6.136 1.827 13.384 2.303 19.081-1.883l-1.184-1.611c-4.943 3.63-11.413 3.338-17.327 1.577l-.57 1.917zm19.08-1.881c2.486-1.82 5.427-6.016 7.735-11.222 2.325-5.244 4.084-11.678 4.084-18.096h-2c0 6.075-1.67 12.23-3.912 17.285-2.259 5.094-5.024 8.907-7.088 10.419l1.181 1.614zm11.82-29.318V0h-2v34.02h2zM50.767-1H0v2h50.767v-2z"/><path id="k" d="M8.59 19.925c1.09 6.087 7.37 5.639 7.37 5.639.77 0-1.858-5.703-.832-5.703.769 0 7.82 5.703 17.691 5.703 4.167 0 19.23-.128 19.23-.128s6.346-8.01-1.538-16.594C45.895 3.844 39.037 0 26.666 0c-5.385 0-13.205 2.435-15 8.457C6.09 6.727 0 10.635 0 16.337V38.57s7.564.448 8.653-5.638V29.535l-.064-9.61z"/><path id="l" d="M8.59 19.925l.984-.176a1 1 0 0 0-1.985.183l1-.006zm7.37 5.639v-1c-.023 0-.047 0-.07.002l.07.998zm36.09-.128l.008 1a1 1 0 0 0 .775-.38l-.784-.62zM50.51 8.841l.737-.677-.002-.002-.734.679zm-38.844-.385l-.296.955a1 1 0 0 0 1.255-.67l-.959-.285zM0 38.57h-1a1 1 0 0 0 .94.998L0 38.57zm8.653-5.638l.985.176a.998.998 0 0 0 .015-.176h-1zm0-3.396h1v-.007l-1 .007zm-1.048-9.434c.619 3.457 2.758 5.113 4.723 5.86a9.592 9.592 0 0 0 3.67.601l.022-.001h.011l-.07-.998-.07-.998h.001s.001 0 0 0h-.005l-.036.002a7.206 7.206 0 0 1-.802-.026 7.596 7.596 0 0 1-2.01-.45c-1.448-.55-2.995-1.713-3.465-4.343l-1.969.353zm8.356 6.462a1.117 1.117 0 0 0 .98-.578c.141-.254.16-.51.163-.643.006-.29-.055-.617-.118-.893-.133-.579-.372-1.34-.581-2.028-.22-.726-.408-1.376-.486-1.836-.042-.248-.03-.327-.034-.304-.003.016-.028.159-.163.31a.808.808 0 0 1-.594.27v-2c-.326 0-.656.127-.898.398-.209.234-.283.5-.314.671-.06.335-.017.702.031.988.103.609.332 1.384.544 2.084.224.738.433 1.402.545 1.892.027.118.045.214.056.289.012.079.012.112.012.11 0-.001 0-.027.009-.068a.74.74 0 0 1 .08-.213.884.884 0 0 1 .768-.45v2zm-.833-5.703c-.181 0-.28-.06-.181-.018.054.024.143.068.278.141.27.148.627.359 1.102.634.933.54 2.226 1.27 3.814 2.003 3.174 1.462 7.55 2.943 12.678 2.943v-2c-4.744 0-8.828-1.371-11.84-2.76a43.363 43.363 0 0 1-3.65-1.917c-.448-.26-.846-.494-1.146-.658a5.636 5.636 0 0 0-.44-.22 1.574 1.574 0 0 0-.615-.148v2zm17.691 5.703c2.088 0 6.9-.032 11.185-.064a8731.94 8731.94 0 0 0 7.883-.063l.127-.001H52.057l-.008-1-.008-1h-.001H51.997l-.127.001-.485.004a8473.374 8473.374 0 0 1-7.396.059c-4.288.032-9.091.064-11.17.064v2zm19.23-1.128a79.178 79.178 0 0 0 .786.618l.002-.002.006-.008a4.028 4.028 0 0 0 .082-.11c.052-.07.125-.172.212-.302.174-.26.41-.636.663-1.112a14.37 14.37 0 0 0 1.418-3.97c.656-3.36.204-7.838-3.97-12.385l-1.474 1.353c3.71 4.039 4.026 7.857 3.481 10.648a12.372 12.372 0 0 1-1.22 3.414c-.218.409-.417.726-.56.938a6.878 6.878 0 0 1-.203.287c-.004.006-.006.01-.008.01v.001c.001-.001.001-.002.785.62zm-.804-17.273C46.421 2.94 39.285-1 26.665-1v2C38.79 1 45.37 4.75 49.777 9.52l1.47-1.357zM26.665-1c-2.822 0-6.273.634-9.276 2.068-3 1.432-5.674 3.725-6.681 7.104l1.916.57c.788-2.643 2.922-4.578 5.626-5.87C20.953 1.584 24.104 1 26.666 1v-2zM11.964 7.502C5.849 5.606-1 9.854-1 16.338h2c0-4.92 5.33-8.49 10.37-6.926l.593-1.91zM-1 16.338V25.37h2v-.024-.024-.024-.024-.023-.024-.023-.023-.023-.022-.023-.022-.022-.022-.022-.021-.022-.02-.022-.02-.021-.021-.02-.02-.02-.02-.02-.02-.019-.02-.018-.02-.018-.018-.019-.018-.018-.018-.018-.017-.018-.017-.017-.017-.017-.017-.016-.017-.016-.016-.016-.016-.016-.015-.016-.015-.015-.015-.015-.015-.015-.014-.015-.014-.014-.014-.014-.014-.013-.014-.013-.013-.013-.013-.013-.013-.013-.012-.013-.012-.012-.012-.012-.012-.012-.011-.012-.011-.011-.011-.012-.01-.012-.01-.011-.01-.011-.01-.01-.01-.011-.01-.01-.01-.01-.01-.009-.01-.009-.009-.01-.008-.01-.008-.01-.008-.009-.008-.009-.008-.009-.008-.008-.008-.009-.008-.008-.008-.008-.007-.008-.008-.007-.008-.007-.008-.007-.007-.008-.007-.007-.007-.007-.007-.007-.006-.007-.007-.007-.006-.007-.007-.006-.007-.006-.006-.007-.006-.006-.007-.006-.006-.006-.006-.006-.006-.006-.006-.006-.006-.006-.006-.006-.006-.005-.006-.006-.006-.005-.006-.006-.005-.006-.005-.006-.006-.005-.006-.005-.006-.006-.005-.006-.005-.006-.005-.006-.005-.006-.005-.006-.005-.006V23v-.006-.005-.006-.006-.005-.006-.005-.006-.006-.005-.006-.006-.005-.006-.006-.005-.006-.006-.006-.005-.006-.006-.006-.006-.006-.006-.006-.006-.006-.006-.006-.007-.006-.006-.006-.007-.006-.007-.006-.007-.006-.007-.006-.007-.007-.007-.007-.006-.007-.007-.007-.008-.007-.007-.007-.008-.007-.007-.008-.007-.008-.008-.008-.007-.008-.008-.008-.008-.009-.008-.008-.009-.008-.009-.008-.009-.009-.009-.008-.01-.009-.009-.01-.008-.01-.01-.01-.009-.01-.01-.01-.01-.01-.01-.01-.01-.012-.01-.01-.012-.01-.012-.011-.011-.012-.011-.012-.011-.012-.012-.012-.012-.013-.012-.012-.013-.013-.013-.013-.013-.013-.013-.014-.013-.014-.014-.014-.014-.014-.015-.014-.015-.014-.015-.015-.015-.016-.015-.015-.016-.016-.016-.016-.016-.017-.016-.017-.017-.017-.017-.017-.018-.017-.018-.018-.018-.018-.019-.018-.019-.019-.019-.019-.02-.019-.02-.02-.02-.02-.02-.02-.02-.022-.02-.022-.021-.022-.021-.022-.022-.023-.022-.023-.022-.023-.023-.024-.023-.024-.024-.024-.024-.025-.024-.025-.025-.026-.025-.026-.025-.026-.027-.026-.027-.026-.027-.028-.027-.028-.028-.028-.028-.028-.03-.028-.03-.028-.03-.03-.03-.03-.03-.03-.032-.03-.032-.032-.031-.032-.032-.033-.033-.032-.034-.033-.033-.034-.034-.034-.035-.035-.035-.035-.035-.036-.036-.036-.037-.036-.037-.037-.038-.037-.038-.038-.039-.038-.04-.038-.04-.04-.04-.04-.04-.04-.042-.041-.041-.042-.042-.043-.042-.043-.043-.043-.044-.044-.044-.044-.045-.045-.045-.046-.046-.046-.046-.047-.047-.047-.048-.047-.048-.049-.048V17v-.049-.05-.049-.05-.05-.051-.051-.051-.052-.052-.052-.053-.052h-2zm0 9.033v5.703h2V25.37h-2zm0 5.703v7.496h2v-7.496h-2zm1 7.496c-.06.998-.059.998-.058.998h.011l.023.002.077.003a12.78 12.78 0 0 0 1.219-.03 12.9 12.9 0 0 0 2.95-.557c2.229-.713 4.782-2.336 5.416-5.878l-1.969-.353c-.455 2.545-2.23 3.741-4.056 4.326-.916.293-1.813.417-2.487.466a10.79 10.79 0 0 1-1.008.027l-.05-.002h-.01L0 38.57zm9.653-5.638v-1.923h-2v1.923h2zm0-1.923v-.064h-2v.064h2zm0-.064v-1.41h-2v1.41h2zm0-1.416l-.064-9.61-2 .013.065 9.61 2-.013z"/><path id="m" d="M4.808 0A4.8 4.8 0 0 0 0 4.805 4.8 4.8 0 0 0 4.808 9.61H7.5V0H4.808z"/><path id="n" d="M8.461 11.533H5.77C2.629 11.533 0 8.97 0 5.766 0 2.626 2.564 0 5.769 0h2.692v1.922H5.77a3.856 3.856 0 0 0-3.846 3.844A3.856 3.856 0 0 0 5.769 9.61h2.692v1.923z"/><path id="o" d="M0 0h14.102s-1.474 4.87-6.025 4.87C3.526 4.804 0 0 0 0z"/><path id="p" d="M0 0v-1h-1.974L-.806.592 0 0zm14.102 0l.957.29.39-1.29h-1.347v1zM8.077 4.87l-.014 1h.014v-1zM0 1h14.102v-2H0v2zm14.102-1a126.911 126.911 0 0 1-.957-.289 6.891 6.891 0 0 1-.253.633 7.756 7.756 0 0 1-.888 1.48C11.184 2.89 9.94 3.87 8.077 3.87v2c2.686 0 4.456-1.454 5.511-2.824a9.751 9.751 0 0 0 1.38-2.49 5.979 5.979 0 0 0 .09-.261V.292.29S15.06.29 14.103 0zM8.091 3.87c-1.938-.028-3.738-1.076-5.119-2.227A15.236 15.236 0 0 1 .941-.418a7.848 7.848 0 0 1-.135-.174L0 0a144.814 144.814 0 0 0-.805.593 1.115 1.115 0 0 0 .051.069l.134.17a17.234 17.234 0 0 0 2.312 2.347c1.519 1.267 3.757 2.653 6.37 2.69l.029-2z"/><path id="q" d="M29.351 20.823C16.341 21.463 1.282 10.892 0 0c1.602 3.524 11.576 11.291 15.063 13.454 9.295 5.767 11.854.641 14.288-4.484 1.413 4.805 3.793 7.714 6.545 5.125 5.448-5.125 7.367-7.688 9.29-10.571-1.484 8.363-7.371 14.415-15.835 17.299z"/><path id="r" d="M0 0l.91-.414a1 1 0 0 0-1.903.53L0 0zm29.351 20.823l.05.998c.092-.004.184-.022.273-.052l-.323-.946zm15.835-17.3l.985.176a1 1 0 0 0-1.817-.73l.832.555zm-9.29 10.572l.685.729-.685-.729zM29.351 8.97l.96-.282a1 1 0 0 0-1.863-.147l.903.429zm-14.287 4.484l-.528.85.527-.85zM-.993.117C-.306 5.955 4.027 11.542 9.7 15.552c5.693 4.024 12.926 6.603 19.7 6.27l-.098-1.998c-6.236.307-13.037-2.08-18.447-5.905C5.425 10.081 1.588 4.937.993-.117L-.993.117zm30.666 21.652c8.748-2.98 14.939-9.289 16.498-18.07l-1.97-.35c-1.41 7.946-6.993 13.74-15.172 16.527l.645 1.893zm14.681-18.8c-1.878 2.815-3.746 5.32-9.143 10.398l1.37 1.457c5.5-5.174 7.468-7.794 9.437-10.745l-1.664-1.11zm-9.143 10.398c-.573.538-1.014.688-1.326.696-.306.008-.667-.116-1.095-.5-.9-.812-1.785-2.514-2.48-4.875l-1.918.564c.718 2.444 1.73 4.599 3.06 5.796.688.62 1.526 1.039 2.485 1.014.953-.024 1.84-.482 2.644-1.238l-1.37-1.457zM28.448 8.54c-.613 1.29-1.202 2.51-1.886 3.555-.682 1.042-1.415 1.84-2.277 2.332-1.624.926-4.156.992-8.694-1.823l-1.055 1.7c4.757 2.95 8.151 3.337 10.74 1.86 1.243-.71 2.187-1.793 2.96-2.974.77-1.177 1.414-2.52 2.018-3.792l-1.806-.858zM15.59 12.605c-1.688-1.047-5.012-3.496-8.12-6.13-1.55-1.315-3.029-2.66-4.213-3.885C2.05 1.338 1.234.298.91-.414L-.91.414C-.433 1.464.6 2.716 1.82 3.979 3.066 5.27 4.599 6.662 6.178 8c3.152 2.671 6.558 5.188 8.358 6.304l1.055-1.7z"/><path id="s" d="M.002 0h19.87s.45 12.11-9.935 12.11C-.383 12.11.002 0 .002 0z"/><path id="t" d="M.002 0v-1a1 1 0 0 0-1 .968l1 .032zm19.87 0l1-.037a1 1 0 0 0-1-.963v1zM9.938 12.11v-1 1zM.002 1h19.87v-2H.003v2zm19.87-1l-.998.036v.022l.001.086a16.063 16.063 0 0 1-.09 1.642c-.113 1.08-.367 2.5-.917 3.904s-1.38 2.752-2.622 3.746c-1.228.983-2.922 1.673-5.309 1.673v2c2.806 0 4.95-.823 6.559-2.111 1.593-1.276 2.599-2.956 3.234-4.579.636-1.623.919-3.23 1.045-4.422a18.065 18.065 0 0 0 .1-1.87 8.181 8.181 0 0 0-.003-.158v-.004-.001l-1 .036zM9.938 11.11c-2.368 0-4.055-.69-5.28-1.673-1.24-.995-2.073-2.344-2.627-3.75-.554-1.405-.814-2.825-.933-3.905A16.195 16.195 0 0 1 1 .14a6.083 6.083 0 0 1 .001-.108L.001 0c-.999-.032-.999-.031-.999-.03a2.103 2.103 0 0 0 0 .047L-1 .133c0 .098 0 .24.006.416.01.354.037.854.103 1.453.131 1.19.42 2.797 1.06 4.42.64 1.621 1.647 3.3 3.236 4.575 1.605 1.287 3.741 2.112 6.532 2.112v-2z"/><path id="u" d="M0 0h49.357"/><path id="v" d="M0 1h5.961v-2H0v2zm5.961 0h20.576v-2H5.961v2zm20.576 0h5.898v-2h-5.898v2zm5.898 0h16.922v-2H32.435v2z"/><path id="w" d="M3.846 1.922c0 1.09-.833 1.922-1.923 1.922A1.928 1.928 0 0 1 0 1.922C0 .832.897 0 1.923 0s1.923.833 1.923 1.922z"/><path id="x" d="M2.846 1.922c0 .537-.385.922-.923.922v2a2.888 2.888 0 0 0 2.923-2.922h-2zm-.923.922A.928.928 0 0 1 1 1.922h-2C-1 3.478.26 4.844 1.923 4.844v-2zM1 1.922C1 1.407 1.427 1 1.923 1v-2C.367-1-1 .259-1 1.922h2zM1.923 1c.496 0 .923.407.923.922h2C4.846.26 3.479-1 1.923-1v2z"/><path id="y" d="M0-1a1 1 0 1 0 0 2v-2zm10.256 2a1 1 0 1 0 0-2v2zM0 1h10.256v-2H0v2z"/><path id="z" d="M.003 0h19.87s.45 12.11-9.935 12.11C-.446 12.11.003 0 .003 0z"/><path id="A" d="M.003 0v-1a1 1 0 0 0-1 .963l1 .037zm19.87 0l1-.037a1 1 0 0 0-1-.963v1zM9.939 12.11v-1 1zM.003 1h19.87v-2H.004v2zm19.87-1l-.998.036v.022l.001.086a16.11 16.11 0 0 1-.09 1.642c-.113 1.08-.367 2.5-.917 3.904s-1.38 2.752-2.622 3.746c-1.228.983-2.922 1.673-5.309 1.673v2c2.806 0 4.95-.823 6.559-2.111 1.593-1.276 2.599-2.956 3.234-4.579.636-1.623.919-3.23 1.045-4.422a18.065 18.065 0 0 0 .1-1.87 8.181 8.181 0 0 0-.003-.158v-.004-.001l-1 .036zM9.939 11.11c-2.386 0-4.08-.69-5.308-1.674-1.243-.994-2.072-2.342-2.622-3.746-.55-1.405-.804-2.824-.919-3.903A16.076 16.076 0 0 1 1 .144 5.923 5.923 0 0 1 1.002.04V.036L.002 0c-.998-.037-.999-.037-.999-.036v.001a2.031 2.031 0 0 0 0 .047C-1 .039-1 .078-1 .128a18.07 18.07 0 0 0 .1 1.87c.127 1.19.41 2.798 1.045 4.421.636 1.623 1.641 3.303 3.235 4.579 1.609 1.288 3.753 2.111 6.558 2.111v-2z"/><path id="B" d="M0 13.839h4.23a3.446 3.446 0 0 0 3.462-3.46 3.446 3.446 0 0 0-3.461-3.46H2.564L1.282 0"/><path id="C" d="M0 12.839a1 1 0 1 0 0 2v-2zm2.564-5.92l-.983.183a1 1 0 0 0 .983.817v-1zM2.265-.182A1 1 0 0 0 .3.182l1.966-.364zM0 14.839h4.23v-2H0v2zm4.23 0a4.446 4.446 0 0 0 4.462-4.46h-2c0 1.37-1.09 2.46-2.461 2.46v2zm4.462-4.46a4.446 4.446 0 0 0-4.461-4.46v2a2.446 2.446 0 0 1 2.461 2.46h2zM4.231 5.92H2.564v2h1.667v-2zm-.684.818L2.265-.183.3.183l1.282 6.92 1.966-.365z"/><path id="D" d="M1.923 3.844a1.923 1.923 0 1 0 0-3.845 1.923 1.923 0 0 0 0 3.845z"/><path id="E" d="M2.846 1.922a.923.923 0 0 1-.923.922v2a2.923 2.923 0 0 0 2.923-2.922h-2zm-.923.922A.923.923 0 0 1 1 1.922h-2a2.923 2.923 0 0 0 2.923 2.922v-2zM1 1.922C1 1.413 1.413 1 1.923 1v-2A2.923 2.923 0 0 0-1 1.922h2zM1.923 1c.51 0 .923.413.923.922h2A2.923 2.923 0 0 0 1.923-1v2z"/><path id="F" d="M0-1a1 1 0 1 0 0 2v-2zm11.538 2a1 1 0 1 0 0-2v2zM0 1h11.538v-2H0v2z"/><path id="G" d="M.449 0C.577 1.345.32 2.563 0 3.524L.449 0z"/><path id="H" d="M1.444-.095a1 1 0 1 0-1.99.19l1.99-.19zM-.949 3.207A1 1 0 1 0 .95 3.84L-.95 3.207zM-.547.095c.111 1.164-.11 2.236-.402 3.112L.95 3.84c.348-1.045.64-2.408.495-3.935l-1.99.19z"/><path id="I" d="M-.141-.926a1 1 0 0 0 .282 1.98L-.14-.926zM22.69 7.816l.748-.664-.013-.014-.735.678zm1.32 3.713a1 1 0 0 0 1.849-.762l-1.85.762zM.14 1.054A7.23 7.23 0 0 1 1.218 1v-2c-.382 0-.832-.001-1.36.074l.283 1.98zM1.218 1c6.291 0 10.745 1.1 13.976 2.57 3.226 1.466 5.285 3.325 6.763 4.925l1.469-1.357c-1.6-1.732-3.867-3.781-7.404-5.39C12.491.144 7.747-1 1.218-1v2zm20.726 7.481c.99 1.114 1.678 2.106 2.066 3.048l1.85-.762c-.51-1.236-1.36-2.422-2.421-3.615L21.944 8.48z"/><path id="J" d="M0 .384A5.555 5.555 0 0 1 2.051 0c.577 0 1.218.064 1.795.256"/><path id="K" d="M-.371-.544A1 1 0 1 0 .37 1.313L-.37-.544zm3.9 1.749a1 1 0 0 0 .633-1.897L3.53 1.205zm-3.158.108A4.555 4.555 0 0 1 2.051 1v-2C1.228-1 .396-.85-.37-.544L.37 1.313zM2.051 1c.514 0 1.039.058 1.479.205l.632-1.897C3.448-.93 2.692-1 2.052-1v2z"/></defs></svg>