<svg width="232" height="231" viewBox="0 0 232 231" version="1.1" xmlns="http://www.w3.org/2000/svg" xmlns:xlink="http://www.w3.org/1999/xlink">
<title>mal</title>
<desc>Created using Figma</desc>
<g id="Canvas" transform="translate(-10437 -3908)">
<g id="mal">
<g id="Ellipse">
<use xlink:href="#path0_fill" transform="translate(10437 3908)" fill="#FFFFFF"/>
</g>
<g id="Vector">
<use xlink:href="#path1_fill" transform="translate(10468.3 4055.2)" fill="#FFFFFF"/>
<use xlink:href="#path2_stroke" transform="translate(10468.3 4055.2)" fill="#333333"/>
</g>
<g id="Vector">
<use xlink:href="#path3_stroke" transform="translate(10557 4089.36)" fill="#333333"/>
</g>
<g id="Vector">
<use xlink:href="#path4_fill" transform="translate(10515.2 4057.4)" fill="#FFFFFF"/>
<use xlink:href="#path5_stroke" transform="translate(10515.2 4057.4)" fill="#333333"/>
</g>
<g id="Vector">
<use xlink:href="#path6_fill" transform="translate(10556.1 4057.4)" fill="#FFFFFF"/>
<use xlink:href="#path7_stroke" transform="translate(10556.1 4057.4)" fill="#333333"/>
</g>
<g id="Vector">
<use xlink:href="#path8_fill" transform="translate(10525.4 3999.3)" fill="#FFFFFF"/>
<use xlink:href="#path9_stroke" transform="translate(10525.4 3999.3)" fill="#333333"/>
</g>
<g id="Vector">
<use xlink:href="#path10_fill" transform="translate(10518.4 3954.1)" fill="#FFFFFF"/>
<use xlink:href="#path11_stroke" transform="translate(10518.4 3954.1)" fill="#333333"/>
</g>
<g id="Vector">
<use xlink:href="#path12_fill" transform="translate(10516.3 3928)" fill="#BDBDBD"/>
<use xlink:href="#path13_stroke" transform="translate(10516.3 3928)" fill="#333333"/>
</g>
<g id="Vector">
<use xlink:href="#path14_fill" transform="translate(10512.8 3987.3)" fill="#FFFFFF"/>
</g>
<g id="Vector">
<use xlink:href="#path15_fill" transform="translate(10511.3 3985.8)" fill="#333333"/>
</g>
<g id="Vector">
<use xlink:href="#path16_fill" transform="translate(10556.9 4021.7)" fill="#FFFFFF"/>
<use xlink:href="#path17_stroke" transform="translate(10556.9 4021.7)" fill="#333333"/>
</g>
<g id="Vector">
<use xlink:href="#path18_fill" transform="translate(10523 4024.36)" fill="#BDBDBD"/>
<use xlink:href="#path19_stroke" transform="translate(10523 4024.36)" fill="#333333"/>
</g>
<g id="Vector">
<use xlink:href="#path20_fill" transform="translate(10571.2 3987.3)" fill="#FFFFFF"/>
<use xlink:href="#path21_stroke" transform="translate(10571.2 3987.3)" fill="#333333"/>
</g>
<g id="Vector">
<use xlink:href="#path22_fill" transform="translate(10524.1 3987.3)" fill="#FFFFFF"/>
<use xlink:href="#path23_stroke" transform="translate(10524.1 3987.3)" fill="#333333"/>
</g>
<g id="Vector">
<use xlink:href="#path24_fill" transform="translate(10586 3992.5)" fill="#FFFFFF"/>
<use xlink:href="#path25_stroke" transform="translate(10586 3992.5)" fill="#333333"/>
</g>
<g id="Vector">
<use xlink:href="#path26_stroke" transform="translate(10579.9 3992.5)" fill="#333333"/>
</g>
<g id="Vector">
<use xlink:href="#path27_fill" transform="translate(10533.4 3987.3)" fill="#FFFFFF"/>
<use xlink:href="#path28_stroke" transform="translate(10533.4 3987.3)" fill="#333333"/>
</g>
<g id="Vector">
<use xlink:href="#path29_fill" transform="translate(10567 3988.36)" fill="#FFFFFF"/>
<use xlink:href="#path30_stroke" transform="translate(10567 3988.36)" fill="#333333"/>
</g>
<g id="Vector">
<use xlink:href="#path31_fill" transform="translate(10546 3992.5)" fill="#FFFFFF"/>
<use xlink:href="#path32_stroke" transform="translate(10546 3992.5)" fill="#333333"/>
</g>
<g id="Vector">
<use xlink:href="#path33_stroke" transform="translate(10539.9 3992.5)" fill="#333333"/>
</g>
<g id="Vector">
<use xlink:href="#path34_fill" transform="translate(10595.5 3955)" fill="#FFFFFF"/>
<use xlink:href="#path35_stroke" transform="translate(10595.5 3955)" fill="#333333"/>
</g>
<g id="Vector">
<use xlink:href="#path36_stroke" transform="translate(10556 3932.9)" fill="#333333"/>
</g>
<g id="Vector">
<use xlink:href="#path37_fill" transform="translate(10527.1 3945.4)" fill="#FFFFFF"/>
<use xlink:href="#path38_stroke" transform="translate(10527.1 3945.4)" fill="#333333"/>
</g>
</g>
</g>
<defs>
<path id="path0_fill" d="M 231.045 115.5C 231.045 179.289 179.324 231 115.523 231C 51.7213 231 0 179.289 0 115.5C 0 51.7111 51.7213 0 115.523 0C 179.324 0 231.045 51.7111 231.045 115.5Z"/>
<path id="path1_fill" d="M 86 -1.2207e-05C 86 -1.2207e-05 143.1 8.79999 157.7 16C 172.3 23.2 172.6 36.4 172.6 36.4C 172.6 36.4 148 50.5 86.3 50.5C 24.6 50.5 1.2207e-05 36.4 1.2207e-05 36.4C 1.2207e-05 36.4 0.299975 23.2 14.9 16C 29.6 8.79999 86 -1.2207e-05 86 -1.2207e-05Z"/>
<path id="path2_stroke" d="M 86 -1.2207e-05L 86.2285 -1.48251C 86.0761 -1.50599 85.9211 -1.50584 85.7688 -1.48208L 86 -1.2207e-05ZM 172.6 36.4L 173.346 37.7014C 173.823 37.428 174.112 36.9156 174.1 36.3659L 172.6 36.4ZM 1.2207e-05 36.4L -1.4996 36.3659C -1.51209 36.9156 -1.22289 37.428 -0.745904 37.7014L 1.2207e-05 36.4ZM 14.9 16L 14.2402 14.6529L 14.2365 14.6547L 14.9 16ZM 86 -1.2207e-05C 85.7715 1.48249 85.7717 1.48251 85.7721 1.48257C 85.7725 1.48263 85.7731 1.48272 85.7739 1.48285C 85.7756 1.48311 85.7781 1.48349 85.7815 1.48402C 85.7883 1.48507 85.7984 1.48663 85.812 1.48874C 85.8393 1.49297 85.8799 1.49926 85.9338 1.50764C 86.0419 1.52445 86.202 1.54943 86.4122 1.58243C 86.8333 1.64852 87.4514 1.7462 88.2448 1.87329C 89.8329 2.1277 92.1148 2.49866 94.9015 2.96676C 100.478 3.90347 108.054 5.22535 116.091 6.77293C 124.13 8.32069 132.597 10.0874 139.976 11.9183C 147.388 13.7571 153.549 15.6252 157.037 17.3453L 158.363 14.6547C 154.551 12.7748 148.1 10.8429 140.699 9.00663C 133.265 7.16261 124.72 5.37929 116.659 3.82704C 108.596 2.27462 100.984 0.946505 95.3985 0.00821149C 92.604 -0.461187 90.3109 -0.833977 88.7193 -1.08894C 87.9228 -1.21654 87.3 -1.31495 86.8775 -1.38128C 86.6659 -1.4145 86.5036 -1.43981 86.3948 -1.45673C 86.3402 -1.46522 86.2986 -1.47167 86.2709 -1.47595C 86.257 -1.4781 86.2464 -1.47975 86.2394 -1.48083C 86.2358 -1.48137 86.2331 -1.4818 86.2313 -1.48207C 86.2304 -1.48221 86.2297 -1.48232 86.2293 -1.48239C 86.2288 -1.48247 86.2285 -1.48251 86 -1.2207e-05ZM 157.037 17.3453C 163.984 20.7714 167.481 25.5902 169.258 29.5182C 170.161 31.5019 170.606 33.2061 170.851 34.5047C 170.971 35.1341 171.031 35.6109 171.066 35.9649C 171.082 36.1326 171.09 36.2487 171.096 36.3377C 171.098 36.3777 171.099 36.4015 171.1 36.4222C 171.1 36.4304 171.1 36.4333 171.1 36.4374C 171.1 36.4385 171.1 36.4386 171.1 36.4381C 171.1 36.4384 171.1 36.4366 171.1 36.4367C 171.1 36.4364 171.1 36.4357 171.1 36.4355C 171.1 36.4348 171.1 36.4341 172.6 36.4C 174.1 36.3659 174.1 36.3651 174.1 36.3642C 174.1 36.3638 174.1 36.3629 174.1 36.3621C 174.099 36.3612 174.099 36.359 174.099 36.3571C 174.099 36.3544 174.099 36.3488 174.099 36.3434C 174.099 36.3348 174.098 36.3187 174.097 36.3017C 174.096 36.272 174.094 36.2208 174.09 36.1624C 174.084 36.0545 174.072 35.8799 174.051 35.6726C 174.013 35.2766 173.935 34.666 173.799 33.9453C 173.532 32.544 172.989 30.4981 171.992 28.2818C 169.969 23.8097 166.016 18.4286 158.363 14.6547L 157.037 17.3453ZM 172.6 36.4C 171.854 35.0986 171.855 35.0983 171.855 35.098C 171.855 35.098 171.856 35.0977 171.856 35.0977C 171.856 35.0975 171.856 35.0977 171.855 35.0981C 171.853 35.0992 171.851 35.1002 171.847 35.1026C 171.837 35.1083 171.824 35.1153 171.804 35.1266C 171.759 35.1513 171.697 35.1848 171.607 35.2324C 171.42 35.3317 171.148 35.4716 170.767 35.6568C 169.989 36.035 168.834 36.5647 167.23 37.2124C 163.991 38.5219 159.084 40.2518 152.218 41.9963C 138.419 45.5065 117.029 49.0049 86.3 49L 86.3 52C 117.271 51.9951 139.031 48.4434 152.957 44.9037C 159.953 43.1232 165.052 41.3281 168.354 39.9938C 170.021 39.3197 171.27 38.7479 172.078 38.3549C 172.49 38.1546 172.807 37.9915 173.01 37.8843C 173.115 37.8287 173.199 37.783 173.251 37.7543C 173.279 37.7389 173.303 37.7257 173.317 37.7179C 173.325 37.7135 173.332 37.7093 173.336 37.7071C 173.338 37.7057 173.341 37.7043 173.342 37.7036C 173.343 37.7031 173.344 37.7026 173.344 37.7023C 173.345 37.7018 173.346 37.7014 172.6 36.4ZM 86.3 49C 55.5713 49.0049 34.1811 45.5065 20.3822 41.9963C 13.5157 40.2518 8.60853 38.5219 5.36995 37.2124C 3.76632 36.5647 2.61107 36.035 1.83331 35.6568C 1.45202 35.4716 1.1804 35.3317 0.992696 35.2324C 0.902576 35.1848 0.840944 35.1513 0.796234 35.1266C 0.77573 35.1153 0.763169 35.1083 0.752956 35.1026C 0.748771 35.1002 0.747018 35.0992 0.744929 35.0981C 0.744344 35.0977 0.74401 35.0975 0.744303 35.0977C 0.744386 35.0977 0.744793 35.098 0.744834 35.098C 0.745334 35.0983 0.745928 35.0986 1.2207e-05 36.4C -0.745904 37.7014 -0.745122 37.7018 -0.744247 37.7023C -0.743829 37.7026 -0.742859 37.7031 -0.742024 37.7036C -0.740814 37.7043 -0.738308 37.7057 -0.735884 37.7071C -0.731955 37.7093 -0.724675 37.7135 -0.716801 37.7179C -0.702895 37.7257 -0.67923 37.7389 -0.651306 37.7543C -0.599159 37.783 -0.515125 37.8287 -0.410006 37.8843C -0.207233 37.9915 0.109914 38.1546 0.521789 38.3549C 1.33035 38.7479 2.57901 39.3197 4.2457 39.9938C 7.54774 41.3281 12.6468 43.1232 19.6428 44.9037C 33.569 48.4434 55.3287 51.9951 86.3 52L 86.3 49ZM 1.2207e-05 36.4C 1.49963 36.4341 1.49961 36.4348 1.49959 36.4355C 1.49959 36.4357 1.49957 36.4364 1.49956 36.4367C 1.49957 36.4366 1.49952 36.4384 1.49953 36.4381C 1.49951 36.4386 1.49951 36.4385 1.49955 36.4374C 1.49968 36.4333 1.49977 36.4304 1.50011 36.4222C 1.50093 36.4015 1.50201 36.3777 1.50438 36.3377C 1.50956 36.2487 1.51772 36.1326 1.53428 35.9649C 1.56879 35.6109 1.62851 35.1341 1.74869 34.5047C 1.99427 33.2061 2.43855 31.5019 3.34166 29.5182C 5.1186 25.5902 8.61606 20.7714 15.5634 17.3453L 14.2365 14.6547C 6.58389 18.4286 2.63137 23.8097 0.60833 28.2818C -0.388554 30.4981 -0.931759 32.544 -1.19868 33.9453C -1.33474 34.666 -1.41252 35.2766 -1.45144 35.6726C -1.47161 35.8799 -1.48415 36.0545 -1.49049 36.1624C -1.49388 36.2208 -1.49627 36.272 -1.49747 36.3017C -1.49815 36.3187 -1.49871 36.3348 -1.49898 36.3434C -1.49914 36.3488 -1.49931 36.3544 -1.49938 36.3571C -1.49943 36.359 -1.49949 36.3612 -1.49951 36.3621C -1.49953 36.3629 -1.49955 36.3638 -1.49956 36.3642C -1.49958 36.3651 -1.4996 36.3659 1.2207e-05 36.4ZM 15.5598 17.3471C 19.0764 15.6246 25.2163 13.7561 32.5745 11.9178C 39.902 10.0868 48.2915 8.32014 56.2489 6.77239C 64.2048 5.22484 71.6966 3.90299 77.2091 2.96629C 79.9638 2.4982 82.2187 2.12725 83.7879 1.87284C 84.5718 1.74575 85.1825 1.64808 85.5984 1.58199C 85.806 1.549 85.9642 1.52402 86.071 1.5072C 86.1243 1.49882 86.1643 1.49254 86.1913 1.48831C 86.2047 1.4862 86.2147 1.48464 86.2215 1.48358C 86.2248 1.48306 86.2273 1.48268 86.2289 1.48242C 86.2297 1.48229 86.2303 1.4822 86.2307 1.48214C 86.2311 1.48208 86.2313 1.48206 86 -1.2207e-05C 85.7688 -1.48208 85.7685 -1.48204 85.768 -1.48196C 85.7676 -1.48189 85.7668 -1.48178 85.7659 -1.48164C 85.7642 -1.48137 85.7615 -1.48094 85.758 -1.4804C 85.7511 -1.47931 85.7406 -1.47767 85.7268 -1.47552C 85.6995 -1.47124 85.6584 -1.46479 85.6045 -1.4563C 85.497 -1.43937 85.3367 -1.41406 85.1276 -1.38084C 84.7102 -1.31451 84.0948 -1.21609 83.3078 -1.08849C 81.7352 -0.833524 79.469 -0.460722 76.7065 0.00868531C 71.1847 0.946988 63.6577 2.27514 55.6761 3.82758C 47.696 5.37984 39.2292 7.1632 31.8473 9.00722C 24.4961 10.8438 18.0735 12.7753 14.2402 14.6529L 15.5598 17.3471Z"/>
<path id="path3_stroke" d="M 1.50002 6.10352e-06C 1.50002 -0.828421 0.828452 -1.49999 2.44141e-05 -1.49999C -0.828403 -1.49999 -1.49998 -0.828421 -1.49998 6.10352e-06L 1.50002 6.10352e-06ZM -1.49998 16C -1.49998 16.8284 -0.828403 17.5 2.44141e-05 17.5C 0.828452 17.5 1.50002 16.8284 1.50002 16L -1.49998 16ZM -1.49998 6.10352e-06L -1.49998 16L 1.50002 16L 1.50002 6.10352e-06L -1.49998 6.10352e-06Z"/>
<path id="path4_fill" d="M 13.4 0C 6.9 1.3 4.29998 3.90001 -2.44141e-05 6.60001C -2.44141e-05 6.60001 1.00002 16 11.3 27.9C 18.9 36.7 28.8 42.9 28.8 42.9L 40.8 31.6L 13.4 0Z"/>
<path id="path5_stroke" d="M 13.4 0L 14.5333 -0.982669C 14.1799 -1.39026 13.6348 -1.57667 13.1058 -1.47087L 13.4 0ZM -2.44141e-05 6.60001L -0.797677 5.32967C -1.28294 5.63437 -1.55223 6.18891 -1.49161 6.75869L -2.44141e-05 6.60001ZM 11.3 27.9L 12.4353 26.9196L 12.4342 26.9183L 11.3 27.9ZM 28.8 42.9L 28.0039 44.1713C 28.582 44.5334 29.3317 44.4597 29.8284 43.992L 28.8 42.9ZM 40.8 31.6L 41.8284 32.692C 42.414 32.1405 42.4604 31.2252 41.9333 30.6173L 40.8 31.6ZM 13.1058 -1.47087C 6.25395 -0.100496 3.31609 2.74661 -0.797677 5.32967L 0.797628 7.87034C 5.28386 5.0534 7.54605 2.7005 13.6942 1.47087L 13.1058 -1.47087ZM -2.44141e-05 6.60001C -1.49161 6.75869 -1.49153 6.75942 -1.49145 6.76019C -1.49141 6.76049 -1.49133 6.76129 -1.49126 6.76189C -1.49118 6.76264 -1.49098 6.76446 -1.49082 6.76596C -1.49059 6.76803 -1.49009 6.77253 -1.48962 6.77668C -1.48888 6.7831 -1.48743 6.79555 -1.48588 6.80837C -1.48321 6.83029 -1.47831 6.86878 -1.47237 6.91226C -1.46146 6.99171 -1.44217 7.12184 -1.41588 7.2776C -1.36562 7.57387 -1.27665 8.03648 -1.14185 8.6029C -0.878584 9.70424 -0.399758 11.3565 0.395099 13.3454C 1.96434 17.2563 4.91253 22.7977 10.1659 28.8817L 12.4342 26.9183C 7.38751 21.1023 4.68569 15.9937 3.1799 12.2296C 2.43725 10.3811 2.02231 8.93951 1.77619 7.90648C 1.65629 7.40572 1.58667 7.04099 1.54201 6.77671C 1.52084 6.6522 1.50858 6.56875 1.49981 6.50469C 1.49592 6.47642 1.49394 6.46068 1.49219 6.4463C 1.49154 6.44097 1.4914 6.43975 1.4911 6.43705C 1.49105 6.43663 1.49112 6.43727 1.49114 6.43749C 1.49111 6.43713 1.49133 6.43915 1.49131 6.43898C 1.49134 6.4393 1.4914 6.43988 1.49142 6.44004C 1.49149 6.44066 1.49156 6.44132 -2.44141e-05 6.60001ZM 10.1648 28.8804C 14.0413 33.3626 18.5277 37.213 21.9821 39.8863C 23.7184 41.2294 25.228 42.3043 26.2854 43.0303C 26.8184 43.3962 27.2488 43.6822 27.5389 43.8718C 27.6859 43.968 27.8024 44.043 27.8788 44.0919C 27.9181 44.117 27.9494 44.1369 27.9693 44.1495C 27.9798 44.1561 27.9885 44.1616 27.9937 44.1649C 27.9966 44.1667 27.9992 44.1683 28.0006 44.1692C 28.0014 44.1698 28.0023 44.1703 28.0027 44.1705C 28.003 44.1707 28.0033 44.1709 28.0034 44.171C 28.0037 44.1711 28.0039 44.1713 28.8 42.9C 29.5962 41.6287 29.5963 41.6288 29.5964 41.6289C 29.5964 41.6289 29.5965 41.6289 29.5965 41.6289C 29.5963 41.6288 29.5962 41.6287 29.5958 41.6285C 29.5949 41.6279 29.5938 41.6272 29.5919 41.626C 29.5876 41.6233 29.5819 41.6198 29.5735 41.6144C 29.5555 41.603 29.5303 41.587 29.4951 41.5645C 29.4229 41.5183 29.3192 41.4515 29.1807 41.361C 28.8997 41.1772 28.4973 40.91 27.9834 40.5571C 26.947 39.8456 25.5066 38.8206 23.8179 37.5136C 20.4224 34.887 16.1587 31.2374 12.4353 26.9196L 10.1648 28.8804ZM 29.8284 43.992L 41.8284 32.692L 39.7717 30.508L 27.7717 41.808L 29.8284 43.992ZM 41.9333 30.6173L 14.5333 -0.982669L 12.2667 0.982669L 39.6667 32.5827L 41.9333 30.6173Z"/>
<path id="path6_fill" d="M 27.4 0C 33.9 1.3 36.5 3.90001 40.8 6.60001C 40.8 6.60001 39.8 16 29.5 27.9C 21.9 36.7 12 42.9 12 42.9L 0 31.6L 27.4 0Z"/>
<path id="path7_stroke" d="M 27.4 0L 27.6942 -1.47087C 27.1652 -1.57667 26.6201 -1.39026 26.2667 -0.982669L 27.4 0ZM 40.8 6.60001L 42.2916 6.75868C 42.3522 6.1889 42.0829 5.63437 41.5976 5.32967L 40.8 6.60001ZM 29.5 27.9L 28.3658 26.9183L 28.3648 26.9196L 29.5 27.9ZM 12 42.9L 10.9717 43.992C 11.4683 44.4597 12.218 44.5334 12.7962 44.1713L 12 42.9ZM 0 31.6L -1.1333 30.6173C -1.66033 31.2252 -1.61402 32.1405 -1.02833 32.692L 0 31.6ZM 27.1059 1.47087C 33.254 2.7005 35.5161 5.0534 40.0023 7.87034L 41.5976 5.32967C 37.4839 2.74662 34.5461 -0.100495 27.6942 -1.47087L 27.1059 1.47087ZM 40.8 6.60001C 39.3084 6.44133 39.3085 6.44067 39.3085 6.44005C 39.3086 6.43989 39.3086 6.43931 39.3087 6.43899C 39.3086 6.43916 39.3089 6.43714 39.3088 6.4375C 39.3088 6.43728 39.3089 6.43664 39.3089 6.43706C 39.3086 6.43976 39.3084 6.44098 39.3078 6.44631C 39.306 6.46069 39.304 6.47643 39.3001 6.5047C 39.2914 6.56876 39.2791 6.65221 39.258 6.77671C 39.2133 7.041 39.1437 7.40572 39.0238 7.90649C 38.7777 8.93952 38.3627 10.3811 37.6201 12.2296C 36.1143 15.9937 33.4125 21.1023 28.3658 26.9183L 30.6342 28.8817C 35.8875 22.7977 38.8357 17.2563 40.4049 13.3454C 41.1997 11.3564 41.6786 9.70424 41.9418 8.60289C 42.0766 8.03647 42.1656 7.57386 42.2158 7.27759C 42.2421 7.12183 42.2614 6.9917 42.2723 6.91225C 42.2783 6.86877 42.2832 6.83028 42.2858 6.80836C 42.2874 6.79554 42.2888 6.7831 42.2896 6.77667C 42.2901 6.77252 42.2906 6.76802 42.2908 6.76595C 42.2909 6.76445 42.2911 6.76263 42.2912 6.76188C 42.2913 6.76128 42.2914 6.76048 42.2914 6.76018C 42.2915 6.75941 42.2916 6.75868 40.8 6.60001ZM 28.3648 26.9196C 24.6413 31.2374 20.3777 34.887 16.9821 37.5136C 15.2934 38.8206 13.853 39.8456 12.8166 40.5571C 12.3027 40.91 11.9004 41.1772 11.6193 41.361C 11.4808 41.4515 11.3772 41.5183 11.3049 41.5645C 11.2697 41.587 11.2445 41.603 11.2266 41.6144C 11.2181 41.6198 11.2124 41.6233 11.2081 41.626C 11.2062 41.6272 11.2052 41.6279 11.2042 41.6285C 11.2038 41.6287 11.2038 41.6288 11.2036 41.6289C 11.2035 41.6289 11.2036 41.6289 11.2036 41.6289C 11.2037 41.6288 11.2038 41.6287 12 42.9C 12.7962 44.1713 12.7964 44.1711 12.7966 44.171C 12.7968 44.1709 12.7971 44.1707 12.7973 44.1705C 12.7978 44.1703 12.7986 44.1698 12.7994 44.1692C 12.8009 44.1683 12.8034 44.1667 12.8063 44.1649C 12.8116 44.1616 12.8202 44.1561 12.8307 44.1495C 12.8507 44.1369 12.882 44.117 12.9212 44.0919C 12.9976 44.043 13.1141 43.968 13.2612 43.8718C 13.5512 43.6822 13.9817 43.3962 14.5146 43.0303C 15.572 42.3043 17.0816 41.2294 18.8179 39.8863C 22.2723 37.213 26.7587 33.3626 30.6352 28.8804L 28.3648 26.9196ZM 13.0283 41.808L 1.02833 30.508L -1.02833 32.692L 10.9717 43.992L 13.0283 41.808ZM 1.1333 32.5827L 28.5333 0.982669L 26.2667 -0.982669L -1.1333 30.6173L 1.1333 32.5827Z"/>
<path id="path8_fill" d="M 58.6 60.2C 58.6 73.6 32.2 89.1 32.2 89.1C 32.2 89.1 -1.2207e-05 74.1 -1.2207e-05 60.2C -1.2207e-05 46.3 -1.2207e-05 -6.10352e-06 -1.2207e-05 -6.10352e-06L 58.6 -6.10352e-06C 58.6 -6.10352e-06 58.6 46.7 58.6 60.2Z"/>
<path id="path9_stroke" d="M 32.2 89.1L 31.5666 90.4597C 32.0135 90.6679 32.5343 90.6432 32.9595 90.3935L 32.2 89.1ZM -1.2207e-05 -6.10352e-06L -1.2207e-05 -1.50001C -0.828439 -1.50001 -1.50001 -0.828433 -1.50001 -6.10352e-06L -1.2207e-05 -6.10352e-06ZM 58.6 -6.10352e-06L 58.6 1.49999C 59.4285 1.49999 60.1 0.828421 60.1 -6.10352e-06L 58.6 -6.10352e-06ZM 57.1 60.2C 57.1 63.0784 55.6678 66.2421 53.2702 69.4753C 50.8722 72.7173 47.6951 75.7864 44.4346 78.527C 41.1808 81.2647 37.9459 83.5732 35.4886 85.2236C 34.2659 86.045 33.2561 86.689 32.5409 87.1349C 32.186 87.3561 31.9114 87.5237 31.7209 87.6387C 31.627 87.6954 31.557 87.7373 31.5084 87.7662C 31.4848 87.7803 31.4678 87.7903 31.4558 87.7975C 31.4501 87.8008 31.4463 87.8031 31.4434 87.8048C 31.4422 87.8055 31.4414 87.8059 31.4408 87.8063C 31.4405 87.8065 31.4405 87.8065 31.4404 87.8066C 31.4404 87.8065 31.4405 87.8065 32.2 89.1C 32.9595 90.3935 32.9598 90.3933 32.9602 90.3931C 32.9605 90.3929 32.9611 90.3926 32.9616 90.3923C 32.9626 90.3917 32.9643 90.3907 32.9662 90.3896C 32.9697 90.3875 32.9755 90.3841 32.9825 90.38C 32.9958 90.3721 33.0167 90.3597 33.043 90.344C 33.0943 90.3135 33.1726 90.2667 33.272 90.2066C 33.4683 90.0881 33.7609 89.9095 34.1279 89.6807C 34.8564 89.2266 35.9091 88.555 37.1614 87.7139C 39.6541 86.0393 43.0192 83.6353 46.3654 80.823C 49.7049 78.0136 53.1278 74.6952 55.6799 71.2622C 58.2323 67.8204 60.1 64.0216 60.1 60.2L 57.1 60.2ZM 32.2 89.1C 32.8334 87.7403 32.8335 87.7403 32.8335 87.7403C 32.8333 87.7403 32.8332 87.7402 32.8329 87.74C 32.8321 87.7397 32.8311 87.7392 32.8294 87.7384C 32.8259 87.7368 32.821 87.7345 32.8139 87.7312C 32.7991 87.7242 32.7779 87.7143 32.7488 87.7005C 32.6892 87.6723 32.6029 87.6313 32.4877 87.576C 32.2548 87.4641 31.9178 87.3005 31.4836 87.0849C 30.6098 86.6509 29.3736 86.0218 27.8792 85.218C 24.8785 83.6044 20.9213 81.3351 16.9449 78.6231C 12.9628 75.9097 9.07647 72.8469 6.14719 69.5774C 3.20976 66.307 1.49999 63.1152 1.49999 60.2L -1.50001 60.2C -1.50001 64.2348 0.815213 68.1305 3.91529 71.582C 7.02351 75.0344 11.1872 78.3278 15.2551 81.1019C 19.3287 83.8774 23.4215 86.2268 26.4583 87.8601C 27.9826 88.6798 29.2621 89.3311 30.1492 89.7717C 30.5955 89.9934 30.9503 90.1657 31.189 90.2803C 31.3097 90.3383 31.4042 90.3832 31.4665 90.4126C 31.4983 90.4276 31.5233 90.4394 31.5394 90.447C 31.5478 90.4509 31.5546 90.4541 31.5588 90.4561C 31.5611 90.4571 31.563 90.458 31.5642 90.4586C 31.5648 90.4589 31.5654 90.4592 31.5658 90.4593C 31.5662 90.4595 31.5666 90.4597 32.2 89.1ZM 1.49999 60.2C 1.49999 53.25 1.49999 38.2 1.49999 24.8875C 1.49999 18.2312 1.49999 12.0094 1.49999 7.45156C 1.49999 5.17265 1.49999 3.30976 1.49999 2.0166C 1.49999 1.37001 1.49999 0.865863 1.49999 0.523358C 1.49999 0.352106 1.49999 0.221265 1.49999 0.133237C 1.49999 0.0892227 1.49999 0.055912 1.49999 0.0336048C 1.49999 0.0224512 1.49999 0.0140485 1.49999 0.00843415C 1.49999 0.00562699 1.49999 0.00351693 1.49999 0.00210865C 1.49999 0.00140452 1.49999 0.000875826 1.49999 0.000523172C 1.49999 0.000170517 1.49999 -6.10352e-06 -1.2207e-05 -6.10352e-06C -1.50001 -6.10352e-06 -1.50001 0.000170517 -1.50001 0.000523172C -1.50001 0.000875826 -1.50001 0.00140452 -1.50001 0.00210865C -1.50001 0.00351693 -1.50001 0.00562699 -1.50001 0.00843415C -1.50001 0.0140485 -1.50001 0.0224512 -1.50001 0.0336048C -1.50001 0.055912 -1.50001 0.0892227 -1.50001 0.133237C -1.50001 0.221265 -1.50001 0.352106 -1.50001 0.523358C -1.50001 0.865863 -1.50001 1.37001 -1.50001 2.0166C -1.50001 3.30976 -1.50001 5.17265 -1.50001 7.45156C -1.50001 12.0094 -1.50001 18.2312 -1.50001 24.8875C -1.50001 38.2 -1.50001 53.25 -1.50001 60.2L 1.49999 60.2ZM -1.2207e-05 1.49999L 58.6 1.49999L 58.6 -1.50001L -1.2207e-05 -1.50001L -1.2207e-05 1.49999ZM 60.1 -6.10352e-06C 58.6 -6.10352e-06 57.1 0.000172043 57.1 0.00052774C 57.1 0.000883438 57.1 0.00141669 57.1 0.00212689C 57.1 0.0035473 57.1 0.00567553 57.1 0.00850682C 57.1 0.0141694 57.1 0.0226442 57.1 0.0338932C 57.1 0.0563912 57.1 0.0899857 57.1 0.134372C 57.1 0.223145 57.1 0.355084 57.1 0.527753C 57.1 0.87309 57.1 1.38134 57.1 2.033C 57.1 3.33632 57.1 5.21328 57.1 7.50781C 57.1 12.0969 57.1 18.3562 57.1 25.0375C 57.1 38.4 57.1 53.45 57.1 60.2L 60.1 60.2C 60.1 53.45 60.1 38.4 60.1 25.0375C 60.1 18.3562 60.1 12.0969 60.1 7.50781C 60.1 5.21328 60.1 3.33632 60.1 2.033C 60.1 1.38134 60.1 0.87309 60.1 0.527753C 60.1 0.355084 60.1 0.223145 60.1 0.134372C 60.1 0.0899857 60.1 0.0563912 60.1 0.0338932C 60.1 0.0226442 60.1 0.0141694 60.1 0.00850682C 60.1 0.00567553 60.1 0.0035473 60.1 0.00212689C 60.1 0.00141669 60.1 0.000883438 60.1 0.00052774C 60.1 0.000172043 58.6 -6.10352e-06 57.1 -6.10352e-06L 60.1 -6.10352e-06Z"/>
<path id="path10_fill" d="M -1.2207e-05 1.2207e-05L -1.2207e-05 45.9C -1.2207e-05 84.4 23.7 97.5 33 100.3C 42.4 103.1 53.1 103.7 61.4 97.6C 68.5 92.4 79.2 72.6 79.2 53.1L 79.2 1.2207e-05L -1.2207e-05 1.2207e-05L -1.2207e-05 1.2207e-05Z"/>
<path id="path11_stroke" d="M 33 100.3L 32.5675 101.736L 32.5718 101.738L 33 100.3ZM 61.4 97.6L 60.5137 96.3898L 60.5117 96.3913L 61.4 97.6ZM 79.2 1.2207e-05L 80.7 1.2207e-05L 80.7 -1.49999L 79.2 -1.49999L 79.2 1.2207e-05ZM -1.50001 1.2207e-05L -1.50001 45.9L 1.49999 45.9L 1.49999 1.2207e-05L -1.50001 1.2207e-05ZM -1.50001 45.9C -1.50001 85.2041 22.7813 98.7899 32.5676 101.736L 33.4324 98.8637C 24.6187 96.2101 1.49999 83.5959 1.49999 45.9L -1.50001 45.9ZM 32.5718 101.738C 42.139 104.587 53.4222 105.325 62.2883 98.8087L 60.5117 96.3913C 52.7779 102.075 42.661 101.613 33.4282 98.8624L 32.5718 101.738ZM 62.2863 98.8101C 66.1525 95.9786 70.7342 89.4417 74.3338 81.3203C 77.9384 73.1774 80.6868 63.0488 80.7 53.1L 77.7 53.1C 77.7132 62.6512 75.1116 72.1726 71.5912 80.1047C 68.0658 88.0583 63.7476 94.0214 60.5137 96.3898L 62.2863 98.8101ZM 80.7 53.1L 80.7 1.2207e-05L 77.7 1.2207e-05L 77.7 53.1L 80.7 53.1ZM 79.2 -1.49999L -1.2207e-05 -1.49999L -1.2207e-05 1.50001L 79.2 1.50001L 79.2 -1.49999Z"/>
<path id="path12_fill" d="M 13.4 31.1C 15.1 40.6 24.9 39.9 24.9 39.9C 26.1 39.9 22 31 23.6 31C 24.8 31 35.8 39.9 51.2 39.9C 57.7 39.9 81.2 39.7 81.2 39.7C 81.2 39.7 91.1 27.2 78.8 13.8C 71.6 5.99999 60.9 6.10352e-06 41.6 6.10352e-06C 33.2 6.10352e-06 21 3.79999 18.2 13.2C 9.50002 10.5 1.2207e-05 16.6 1.2207e-05 25.5C 1.2207e-05 39.6 1.2207e-05 33.1 1.2207e-05 39.6L 1.2207e-05 48.5L 1.2207e-05 60.2C 1.2207e-05 60.2 11.8 60.9 13.5 51.4L 13.5 48.4L 13.5 48.3L 13.5 46.1L 13.4 31.1Z"/>
<path id="path13_stroke" d="M 13.4 31.1L 14.8765 30.8358C 14.7393 30.069 14.038 29.5349 13.2624 29.6063C 12.4867 29.6778 11.8948 30.3311 11.9 31.11L 13.4 31.1ZM 24.9 39.9L 24.9 38.4C 24.8643 38.4 24.8287 38.4013 24.7931 38.4038L 24.9 39.9ZM 81.2 39.7L 81.2128 41.1999C 81.6666 41.1961 82.0942 40.987 82.3759 40.6313L 81.2 39.7ZM 78.8 13.8L 79.9051 12.7857L 79.9022 12.7826L 78.8 13.8ZM 18.2 13.2L 17.7554 14.6326C 18.1382 14.7514 18.5526 14.712 18.9062 14.5234C 19.2598 14.3347 19.5232 14.0123 19.6376 13.6282L 18.2 13.2ZM 1.2207e-05 60.2L -1.49999 60.2C -1.49999 60.9939 -0.881349 61.6503 -0.0888162 61.6974L 1.2207e-05 60.2ZM 13.5 51.4L 14.9766 51.6642C 14.9922 51.577 15 51.4886 15 51.4L 13.5 51.4ZM 13.5 46.1L 15 46.1L 15 46.09L 13.5 46.1ZM 11.9234 31.3642C 12.8844 36.7345 16.2041 39.3046 19.2543 40.4646C 20.7289 41.0172 22.21 41.2664 23.2113 41.3552C 23.7305 41.4 24.1871 41.412 24.4788 41.4115C 24.6332 41.4111 24.7668 41.4075 24.8478 41.4044C 24.8923 41.4027 24.9325 41.4007 24.9551 41.3994C 24.9684 41.3987 24.9815 41.3979 24.9881 41.3974C 24.9925 41.3972 24.9972 41.3969 24.9993 41.3967C 25.0009 41.3966 25.0028 41.3965 25.0035 41.3964C 25.0042 41.3964 25.005 41.3963 25.0053 41.3963C 25.0061 41.3962 25.0068 41.3962 24.9 39.9C 24.7931 38.4038 24.7938 38.4038 24.7944 38.4037C 24.7946 38.4037 24.7952 38.4037 24.7955 38.4036C 24.7953 38.4037 24.7974 38.4035 24.7971 38.4035C 24.7973 38.4035 24.798 38.4035 24.7976 38.4035C 24.7948 38.4037 24.7938 38.4037 24.7885 38.404C 24.774 38.4048 24.7589 38.4056 24.7312 38.4067C 24.6678 38.4092 24.5892 38.4114 24.4723 38.4115C 24.2215 38.4122 23.8991 38.4047 23.4731 38.3667C 22.5837 38.2898 21.5085 38.1203 20.3206 37.6605C 18.0458 36.7954 15.6155 34.9656 14.8765 30.8358L 11.9234 31.3642ZM 24.9 41.4C 25.561 41.4 26.0961 41.0328 26.3762 40.5295C 26.5896 40.1461 26.6177 39.7584 26.6226 39.5537C 26.6333 39.1097 26.5387 38.6056 26.4404 38.1753C 26.2352 37.2826 25.8706 36.1197 25.5354 35.0145C 25.2001 33.9095 24.8995 32.8895 24.776 32.1413C 24.7161 31.7965 24.7447 31.5853 24.7224 31.6455C 24.719 31.6646 24.6831 31.8747 24.4834 32.0985C 24.2348 32.3772 23.893 32.5 23.6 32.5L 23.6 29.5C 23.1069 29.5 22.6097 29.6924 22.2448 30.1014C 21.9288 30.4556 21.8157 30.8569 21.7689 31.1193C 21.6777 31.6314 21.7426 32.1945 21.8177 32.6399C 21.9755 33.5605 22.3249 34.7655 22.6646 35.8855C 23.0043 37.0053 23.3397 38.0674 23.5158 38.8435C 23.6008 39.2119 23.6147 39.5882 23.6235 39.4815C 23.6226 39.4754 23.6395 39.3584 23.636 39.3854C 23.6473 39.3289 23.6766 39.2112 23.7549 39.0706C 23.9624 38.6977 24.389 38.4 24.9 38.4L 24.9 41.4ZM 23.6 32.5C 23.3316 32.5 23.1877 32.4093 23.3415 32.476C 23.4488 32.5218 23.5754 32.5871 23.78 32.699C 24.2034 32.9299 24.7753 33.2681 25.5013 33.6886C 26.9489 34.527 28.9789 35.6727 31.4469 36.8121C 36.3456 39.0688 43.2572 41.3802 51.2 41.4L 51.2 38.4C 43.7428 38.4198 37.4545 36.2812 32.7031 34.0879C 30.3461 33.0023 28.4386 31.923 27.0049 31.0926C 26.2903 30.6787 25.6856 30.3217 25.2177 30.0659C 24.9766 29.9344 24.7287 29.8085 24.5355 29.7239C 24.3888 29.6602 24.0184 29.5 23.6 29.5L 23.6 32.5ZM 51.2 41.4C 54.455 41.4 61.9606 41.35 68.6487 41.3C 71.9929 41.2749 75.134 41.2499 77.4388 41.2312C 78.5912 41.2218 79.5348 41.214 80.1901 41.2085C 80.5178 41.2058 80.7734 41.2036 80.9472 41.2022C 81.034 41.2014 81.1005 41.2009 81.1451 41.2005C 81.1675 41.2003 81.1844 41.2002 81.1957 41.2001C 81.2014 41.2 81.2056 41.2 81.2085 41.2C 81.2099 41.2 81.211 41.2 81.2117 41.1999C 81.2121 41.1999 81.2123 41.1999 81.2125 41.1999C 81.2127 41.1999 81.2128 41.1999 81.2 39.7C 81.1873 38.2 81.1872 38.2 81.187 38.2C 81.1868 38.2 81.1866 38.2 81.1862 38.2001C 81.1855 38.2001 81.1844 38.2001 81.183 38.2001C 81.1801 38.2001 81.1759 38.2001 81.1702 38.2002C 81.1589 38.2003 81.142 38.2004 81.1197 38.2006C 81.0751 38.201 81.0087 38.2016 80.9219 38.2023C 80.7482 38.2038 80.4926 38.2059 80.165 38.2086C 79.5098 38.2141 78.5666 38.2219 77.4144 38.2313C 75.1098 38.25 71.9697 38.275 68.6263 38.3C 61.9394 38.35 54.445 38.4 51.2 38.4L 51.2 41.4ZM 81.2 39.7C 82.3759 40.6313 82.3765 40.6306 82.377 40.6298C 82.3773 40.6295 82.3779 40.6287 82.3784 40.6281C 82.3791 40.6273 82.3805 40.6254 82.3818 40.6238C 82.3837 40.6214 82.3876 40.6164 82.3913 40.6116C 82.3974 40.6038 82.4086 40.5893 82.4206 40.5736C 82.4418 40.5458 82.4775 40.4983 82.518 40.4431C 82.5934 40.3402 82.7119 40.1736 82.8473 39.972C 83.1068 39.5846 83.485 38.9794 83.8785 38.2428C 84.6426 36.8061 85.5769 34.6179 86.0847 32.0625C 87.1055 26.836 86.4046 19.8665 79.905 12.7857L 77.695 14.8143C 83.4954 21.1335 83.9945 27.114 83.1403 31.4875C 82.7106 33.7321 81.9387 35.5064 81.2309 36.8322C 80.8885 37.4768 80.5894 37.9529 80.3555 38.3015C 80.2442 38.4678 80.162 38.5829 80.0984 38.6695C 80.0694 38.7092 80.051 38.7336 80.0355 38.7539C 80.0291 38.7622 80.0263 38.7659 80.023 38.7701C 80.022 38.7714 80.0213 38.7723 80.0218 38.7716C 80.0217 38.7717 80.0226 38.7707 80.0225 38.7707C 80.0227 38.7705 80.0231 38.77 80.0232 38.7698C 80.0237 38.7693 80.0241 38.7687 81.2 39.7ZM 79.9022 12.7826C 72.3883 4.6425 61.2723 -1.49999 41.6 -1.49999L 41.6 1.50001C 60.5276 1.50001 70.8117 7.35749 77.6978 14.8174L 79.9022 12.7826ZM 41.6 -1.49999C 37.2634 -1.49376 31.7868 -0.476675 27.1536 1.72141C 22.4819 3.9523 18.3265 7.52112 16.7624 12.7718L 19.6376 13.6282C 20.8736 9.47885 24.2181 6.44768 28.4464 4.42858C 32.7132 2.37668 37.5366 1.49377 41.6 1.50001L 41.6 -1.49999ZM 18.6446 11.7674C 9.13858 8.81724 -1.49999 15.4284 -1.49999 25.5L 1.50001 25.5C 1.50001 17.7716 9.86147 12.1827 17.7554 14.6326L 18.6446 11.7674ZM -1.49999 25.5C -1.49999 32.55 -1.49999 34.45 -1.49999 35.4C -1.49999 36.35 -1.49999 36.35 -1.49999 39.6L 1.50001 39.6C 1.50001 36.35 1.50001 36.35 1.50001 35.4C 1.50001 34.45 1.50001 32.55 1.50001 25.5L -1.49999 25.5ZM -1.49999 39.6L -1.49999 48.5L 1.50001 48.5L 1.50001 39.6L -1.49999 39.6ZM -1.49999 48.5L -1.49999 60.2L 1.50001 60.2L 1.50001 48.5L -1.49999 48.5ZM 1.2207e-05 60.2C -0.0888162 61.6974 -0.0881773 61.6974 -0.0874935 61.6974C -0.0872052 61.6975 -0.0864743 61.6975 -0.0858973 61.6975C -0.0851398 61.6976 -0.0834031 61.6977 -0.0818877 61.6978C -0.0796533 61.6979 -0.075088 61.6981 -0.0706277 61.6984C -0.0633119 61.6988 -0.0498728 61.6994 -0.0353574 61.7001C -0.00958411 61.7013 0.0340488 61.7031 0.0844746 61.7047C 0.17862 61.7078 0.329095 61.7111 0.507666 61.7115C 0.850652 61.712 1.37428 61.7007 1.97969 61.6569C 3.15971 61.5699 4.863 61.3316 6.56988 60.7911C 10.0338 59.6821 13.9927 57.162 14.9766 51.6642L 12.0235 51.1358C 11.3073 55.138 8.51618 57.0179 5.65515 57.9339C 4.19952 58.4059 2.84657 58.5863 1.76096 58.6649C 1.23355 58.704 0.822028 58.7122 0.513062 58.7115C 0.365656 58.7113 0.260955 58.7089 0.181419 58.7063C 0.145004 58.7052 0.12217 58.7042 0.103186 58.7033C 0.0953227 58.7029 0.0918107 58.7028 0.0877702 58.7026C 0.0865523 58.7025 0.085587 58.7024 0.0862126 58.7025C 0.0861272 58.7025 0.0870393 58.7025 0.0869994 58.7025C 0.0872177 58.7025 0.0876791 58.7026 0.0877877 58.7026C 0.0882918 58.7026 0.0888406 58.7026 1.2207e-05 60.2ZM 15 51.4L 15 48.4L 12 48.4L 12 51.4L 15 51.4ZM 15 48.4L 15 48.3L 12 48.3L 12 48.4L 15 48.4ZM 15 48.3L 15 46.1L 12 46.1L 12 48.3L 15 48.3ZM 15 46.09L 14.8999 31.09L 11.9 31.11L 12 46.11L 15 46.09Z"/>
<path id="path14_fill" d="M 7.50001 -6.10352e-06C 3.40001 -6.10352e-06 1.2207e-05 3.29999 1.2207e-05 7.49999C 1.2207e-05 11.6 3.30001 15 7.50001 15L 11.7 15L 11.7 -6.10352e-06L 7.50001 -6.10352e-06Z"/>
<path id="path15_fill" d="M 13.2 18L 9.00001 18C 4.10001 18 1.2207e-05 14 1.2207e-05 8.99999C 1.2207e-05 4.09999 4.00001 -6.10352e-06 9.00001 -6.10352e-06L 13.2 -6.10352e-06L 13.2 2.99999L 9.00001 2.99999C 5.70001 2.99999 3.00001 5.69999 3.00001 8.99999C 3.00001 12.3 5.70001 15 9.00001 15L 13.2 15L 13.2 18Z"/>
<path id="path16_fill" d="M -1.2207e-05 -1.2207e-05L 22 -1.2207e-05C 22 -1.2207e-05 19.7 7.59999 12.6 7.59999C 5.50002 7.49999 -1.2207e-05 -1.2207e-05 -1.2207e-05 -1.2207e-05Z"/>
<path id="path17_stroke" d="M -1.2207e-05 -1.2207e-05L -1.2207e-05 -1.50001L -2.96013 -1.50001L -1.20962 0.887037L -1.2207e-05 -1.2207e-05ZM 22 -1.2207e-05L 23.4357 0.434468L 24.0211 -1.50001L 22 -1.50001L 22 -1.2207e-05ZM 12.6 7.59999L 12.5789 9.09984L 12.5895 9.09999L 12.6 9.09999L 12.6 7.59999ZM -1.2207e-05 1.49999L 22 1.49999L 22 -1.50001L -1.2207e-05 -1.50001L -1.2207e-05 1.49999ZM 22 -1.2207e-05C 20.5643 -0.434493 20.5645 -0.435064 20.5646 -0.435607C 20.5647 -0.43575 20.5648 -0.436266 20.5649 -0.436553C 20.5649 -0.436381 20.5654 -0.438286 20.5653 -0.437938C 20.5654 -0.438047 20.5656 -0.438898 20.5656 -0.438706C 20.565 -0.436701 20.5648 -0.436237 20.5636 -0.432383C 20.5601 -0.4214 20.5566 -0.410428 20.5496 -0.389558C 20.5334 -0.341111 20.5131 -0.281903 20.4802 -0.193166C 20.4096 -0.00169669 20.3134 0.242381 20.1661 0.562512C 19.8597 1.23277 19.4342 2.03538 18.7739 2.88505C 17.4883 4.55519 15.5334 6.09999 12.6 6.09999L 12.6 9.09999C 16.7667 9.09999 19.5117 6.8448 21.1512 4.71493C 21.9533 3.6646 22.5466 2.56721 22.8933 1.81247C 23.0725 1.4201 23.2115 1.07042 23.2944 0.846267C 23.3383 0.727191 23.3743 0.623118 23.3953 0.560236C 23.4069 0.525443 23.4171 0.493739 23.4228 0.475962C 23.4261 0.465436 23.4294 0.454999 23.431 0.449698C 23.4321 0.446238 23.4333 0.442415 23.4338 0.440682C 23.4342 0.439414 23.4347 0.437856 23.4348 0.437222C 23.435 0.436705 23.4352 0.436015 23.4353 0.435757C 23.4355 0.435098 23.4357 0.434468 22 -1.2207e-05ZM 12.6211 6.10014C 9.57786 6.05728 6.75718 4.41164 4.59841 2.61068C 3.52737 1.71996 2.69681 0.858242 2.09128 0.176724C 1.79568 -0.155367 1.57807 -0.41884 1.42138 -0.614733C 1.34624 -0.708566 1.29388 -0.7761 1.25511 -0.82682C 1.23723 -0.850189 1.22599 -0.865121 1.21688 -0.877299C 1.21305 -0.882411 1.21126 -0.88482 1.20932 -0.887442C 1.20871 -0.888269 1.20816 -0.889011 1.20847 -0.888588C 1.20845 -0.888618 1.20879 -0.888148 1.20878 -0.888162C 1.20888 -0.888035 1.20908 -0.887759 1.20913 -0.887696C 1.20935 -0.887393 1.20959 -0.887061 -1.2207e-05 -1.2207e-05C -1.20962 0.887037 -1.20933 0.887426 -1.20903 0.887843C -1.2089 0.88802 -1.20857 0.888467 -1.20831 0.888822C -1.20796 0.889292 -1.20718 0.890358 -1.20648 0.891296C -1.20546 0.89269 -1.20337 0.895512 -1.20132 0.89829C -1.19792 0.902879 -1.19171 0.911228 -1.18491 0.920311C -1.17278 0.93652 -1.15227 0.963715 -1.12814 0.995301C -1.08287 1.05449 -1.01013 1.14819 -0.921007 1.25963C -0.74918 1.47428 -0.481637 1.79753 -0.150669 2.17013C 0.496935 2.89799 1.48513 3.91752 2.67661 4.9143C 5.04285 6.88834 8.52219 9.04271 12.5789 9.09984L 12.6211 6.10014Z"/>
<path id="path18_fill" d="M 45.7896 32.5C 25.4931 33.5 2 17 0 0C 2.49968 5.5 18.0596 17.6232 23.5 21C 38 30 41.9931 22 45.7896 14C 47.9931 21.5 51.7064 26.0411 56 22C 64.5 14 67.493 10 70.493 5.5C 68.1773 18.5539 58.9931 28 45.7896 32.5Z"/>
<path id="path19_stroke" d="M 0 0L 1.36558 -0.620638C 1.05974 -1.29357 0.309265 -1.64339 -0.402762 -1.44492C -1.11479 -1.24644 -1.57609 -0.558846 -1.48973 0.175262L 0 0ZM 45.7896 32.5L 45.8634 33.9982C 46.0031 33.9913 46.1411 33.9649 46.2735 33.9198L 45.7896 32.5ZM 70.493 5.5L 71.9699 5.762C 72.094 5.06287 71.7108 4.37255 71.0519 4.108C 70.3929 3.84345 69.6388 4.07715 69.2449 4.66795L 70.493 5.5ZM 56 22L 57.028 23.0923L 57.028 23.0923L 56 22ZM 45.7896 14L 47.2288 13.5772C 47.0534 12.9802 46.5277 12.5535 45.9075 12.5046C 45.2872 12.4557 44.7012 12.7948 44.4344 13.3569L 45.7896 14ZM 23.5 21L 22.709 22.2745L 22.709 22.2745L 23.5 21ZM -1.48973 0.175262C -0.420594 9.26288 6.32402 17.9702 15.1675 24.2247C 24.0395 30.4994 35.3112 34.5181 45.8634 33.9982L 45.7158 31.0018C 35.9715 31.4819 25.3484 27.7506 16.8997 21.7753C 8.4225 15.7798 2.42059 7.73712 1.48973 -0.175262L -1.48973 0.175262ZM 46.2735 33.9198C 59.903 29.2746 69.5431 19.4425 71.9699 5.762L 69.0161 5.238C 66.8115 17.6654 58.0831 26.7254 45.3057 31.0802L 46.2735 33.9198ZM 69.2449 4.66795C 66.268 9.13433 63.3813 13.0008 54.972 20.9077L 57.028 23.0923C 65.6187 14.9992 68.718 10.8657 71.7411 6.33205L 69.2449 4.66795ZM 54.972 20.9077C 54.0718 21.7549 53.3695 21.997 52.8645 22.01C 52.3682 22.0228 51.7897 21.8212 51.1149 21.2133C 49.6962 19.9356 48.3123 17.2654 47.2288 13.5772L 44.3504 14.4228C 45.4703 18.2346 47.0448 21.585 49.1071 23.4425C 50.1727 24.4023 51.4653 25.047 52.9417 25.009C 54.4094 24.9713 55.7814 24.2656 57.028 23.0923L 54.972 20.9077ZM 44.4344 13.3569C 42.4769 17.4819 40.7107 20.9767 37.9151 22.5722C 35.3539 24.0339 31.3777 24.1241 24.291 19.7255L 22.709 22.2745C 30.1223 26.8759 35.3926 27.4661 39.4021 25.1778C 43.1771 23.0233 45.3058 18.5181 47.1447 14.6431L 44.4344 13.3569ZM 24.291 19.7255C 21.6214 18.0699 16.4607 14.2605 11.6174 10.1522C 9.19583 8.09896 6.90133 6.01305 5.04042 4.08476C 3.15334 2.13048 1.87497 0.500176 1.36558 -0.620638L -1.36558 0.620638C -0.625137 2.24982 0.978876 4.19743 2.88233 6.16865C 4.81197 8.16586 7.21617 10.3531 9.6771 12.4402C 14.5988 16.6127 19.9382 20.5533 22.709 22.2745L 24.291 19.7255Z"/>
<path id="path20_fill" d="M 0.00286242 -6.10352e-06L 31.0029 -6.10352e-06C 31.0029 -6.10352e-06 31.7029 18.9 15.5029 18.9C -0.597138 18.9 0.00286242 -6.10352e-06 0.00286242 -6.10352e-06Z"/>
<path id="path21_stroke" d="M 0.00286242 -6.10352e-06L 0.00286242 -1.50001C -0.807035 -1.50001 -1.47068 -0.857091 -1.49638 -0.0476013L 0.00286242 -6.10352e-06ZM 31.0029 -6.10352e-06L 32.5018 -0.0555236C 32.472 -0.861794 31.8097 -1.50001 31.0029 -1.50001L 31.0029 -6.10352e-06ZM 15.5029 18.9L 15.5029 17.4L 15.5029 18.9ZM 0.00286242 1.49999L 31.0029 1.49999L 31.0029 -1.50001L 0.00286242 -1.50001L 0.00286242 1.49999ZM 31.0029 -6.10352e-06C 29.5039 0.0555114 29.5039 0.0549557 29.5039 0.0544719C 29.5039 0.054406 29.5038 0.0539914 29.5038 0.0538582C 29.5038 0.0537053 29.5038 0.0536037 29.5038 0.0539017C 29.5039 0.0553397 29.5039 0.0561971 29.504 0.0590232C 29.5042 0.0663729 29.5045 0.0746664 29.5048 0.0890203C 29.5055 0.121177 29.5063 0.163185 29.5068 0.224948C 29.5079 0.355583 29.5077 0.534125 29.5017 0.775832C 29.4898 1.2743 29.4573 1.95175 29.3674 2.79527C 29.1864 4.51504 28.8089 6.68117 27.9311 8.90311C 27.0581 11.148 25.844 13.1858 23.8215 14.776C 21.8948 16.319 19.2382 17.4 15.5029 17.4L 15.5029 20.4C 19.8676 20.4 23.1985 19.1184 25.6968 17.1177C 28.0992 15.1642 29.7476 12.477 30.7246 9.99687C 31.6968 7.49381 32.1568 4.93494 32.3508 3.11097C 32.4484 2.18262 32.4878 1.3835 32.5009 0.848374C 32.5074 0.573284 32.5079 0.345771 32.5067 0.199552C 32.506 0.122886 32.5049 0.0587671 32.504 0.0194026C 32.5035 -0.00200408 32.5029 -0.0208193 32.5026 -0.0316383C 32.5024 -0.0378965 32.5022 -0.0438883 32.5021 -0.0470285C 32.5021 -0.0490197 32.502 -0.0511485 32.502 -0.0521446C 32.5019 -0.0528523 32.5019 -0.0536983 32.5019 -0.0540521C 32.5019 -0.0548237 32.5018 -0.0555236 31.0029 -6.10352e-06ZM 15.5029 17.4C 11.7949 17.4 9.15084 16.3205 7.22766 14.777C 5.20862 13.1858 3.99031 11.1458 3.11086 8.89991C 2.22678 6.67674 1.84035 4.50895 1.65164 2.78877C 1.55803 1.94494 1.52229 1.26706 1.50789 0.768471C 1.50076 0.526656 1.49959 0.34796 1.50005 0.217276C 1.50024 0.155469 1.50081 0.113394 1.50139 0.0812168C 1.50164 0.0668425 1.50184 0.0585185 1.50202 0.0511588C 1.50209 0.0483229 1.50212 0.0474507 1.50216 0.0460079C 1.50216 0.0457051 1.50216 0.0457948 1.50216 0.0459501C 1.50215 0.0460809 1.50214 0.0464919 1.50214 0.0465566C 1.50212 0.0470369 1.50211 0.047589 0.00286242 -6.10352e-06C -1.49638 -0.0476013 -1.4964 -0.0469049 -1.49643 -0.0461368C -1.49644 -0.0457843 -1.49646 -0.0449418 -1.49649 -0.0442365C -1.49652 -0.0432427 -1.49658 -0.0411211 -1.49663 -0.0391348C -1.49672 -0.0359994 -1.49689 -0.0300223 -1.49704 -0.0237739C -1.49731 -0.0129649 -1.49774 0.00581987 -1.49812 0.027206C -1.49883 0.0665493 -1.49966 0.130603 -1.49994 0.207223C -1.50041 0.353395 -1.49875 0.580753 -1.49084 0.855735C -1.47516 1.39074 -1.43199 2.18943 -1.33029 3.11747C -1.12837 4.94103 -0.658554 7.49824 0.319864 10.0001C 1.30291 12.4792 2.95336 15.1642 5.34994 17.1167C 7.84239 19.117 11.1608 20.4 15.5029 20.4L 15.5029 17.4Z"/>
<path id="path22_fill" d="M 0 -6.10352e-06L 9.29999 -6.10352e-06L 41.4 -6.10352e-06L 50.6 -6.10352e-06L 77 -6.10352e-06"/>
<path id="path23_stroke" d="M 0 1.49999L 9.29999 1.49999L 9.29999 -1.50001L 0 -1.50001L 0 1.49999ZM 9.29999 1.49999L 41.4 1.49999L 41.4 -1.50001L 9.29999 -1.50001L 9.29999 1.49999ZM 41.4 1.49999L 50.6 1.49999L 50.6 -1.50001L 41.4 -1.50001L 41.4 1.49999ZM 50.6 1.49999L 77 1.49999L 77 -1.50001L 50.6 -1.50001L 50.6 1.49999Z"/>
<path id="path24_fill" d="M 6.00002 3.00001C 6.00002 4.70001 4.70002 6.00001 3.00002 6.00001C 1.30002 6.00001 2.44141e-05 4.60001 2.44141e-05 3.00001C 2.44141e-05 1.30001 1.40002 6.10352e-06 3.00002 6.10352e-06C 4.60002 6.10352e-06 6.00002 1.30001 6.00002 3.00001Z"/>
<path id="path25_stroke" d="M 4.50002 3.00001C 4.50002 3.87158 3.8716 4.50001 3.00002 4.50001L 3.00002 7.50001C 5.52845 7.50001 7.50002 5.52843 7.50002 3.00001L 4.50002 3.00001ZM 3.00002 4.50001C 2.16077 4.50001 1.50002 3.80427 1.50002 3.00001L -1.49998 3.00001C -1.49998 5.39574 0.439275 7.50001 3.00002 7.50001L 3.00002 4.50001ZM 1.50002 3.00001C 1.50002 2.16075 2.19576 1.50001 3.00002 1.50001L 3.00002 -1.49999C 0.604292 -1.49999 -1.49998 0.439257 -1.49998 3.00001L 1.50002 3.00001ZM 3.00002 1.50001C 3.80429 1.50001 4.50002 2.16075 4.50002 3.00001L 7.50002 3.00001C 7.50002 0.439257 5.39576 -1.49999 3.00002 -1.49999L 3.00002 1.50001Z"/>
<path id="path26_stroke" d="M -1.2207e-05 -1.49999C -0.828439 -1.49999 -1.50001 -0.828421 -1.50001 6.10352e-06C -1.50001 0.828433 -0.828439 1.50001 -1.2207e-05 1.50001L -1.2207e-05 -1.49999ZM 16 1.50001C 16.8284 1.50001 17.5 0.828433 17.5 6.10352e-06C 17.5 -0.828421 16.8284 -1.49999 16 -1.49999L 16 1.50001ZM -1.2207e-05 1.50001L 16 1.50001L 16 -1.49999L -1.2207e-05 -1.49999L -1.2207e-05 1.50001Z"/>
<path id="path27_fill" d="M 0.00441703 -6.10352e-06L 31.0044 -6.10352e-06C 31.0044 -6.10352e-06 31.7044 18.9 15.5044 18.9C -0.695583 18.9 0.00441703 -6.10352e-06 0.00441703 -6.10352e-06Z"/>
<path id="path28_stroke" d="M 0.00441703 -6.10352e-06L 0.00441703 -1.50001C -0.802406 -1.50001 -1.46469 -0.861794 -1.49456 -0.0555236L 0.00441703 -6.10352e-06ZM 31.0044 -6.10352e-06L 32.5034 -0.0555237C 32.4735 -0.861794 31.8112 -1.50001 31.0044 -1.50001L 31.0044 -6.10352e-06ZM 15.5044 18.9L 15.5044 17.4L 15.5044 18.9ZM 0.00441703 1.49999L 31.0044 1.49999L 31.0044 -1.50001L 0.00441703 -1.50001L 0.00441703 1.49999ZM 31.0044 -6.10352e-06C 29.5054 0.0555115 29.5054 0.0549558 29.5054 0.054472C 29.5054 0.0544061 29.5054 0.0539915 29.5054 0.0538583C 29.5054 0.0537054 29.5054 0.0536038 29.5054 0.0539017C 29.5054 0.0553397 29.5055 0.0561972 29.5055 0.0590233C 29.5058 0.066373 29.506 0.0746665 29.5063 0.0890203C 29.5071 0.121177 29.5079 0.163185 29.5084 0.224948C 29.5095 0.355583 29.5092 0.534125 29.5033 0.775832C 29.4913 1.2743 29.4589 1.95175 29.369 2.79527C 29.1879 4.51504 28.8105 6.68117 27.9327 8.90311C 27.0596 11.148 25.8456 13.1858 23.823 14.776C 21.8963 16.319 19.2397 17.4 15.5044 17.4L 15.5044 20.4C 19.8691 20.4 23.2 19.1184 25.6983 17.1177C 28.1008 15.1642 29.7492 12.477 30.7262 9.99687C 31.6983 7.49381 32.1584 4.93494 32.3523 3.11097C 32.45 2.18262 32.4894 1.3835 32.5024 0.848374C 32.509 0.573284 32.5095 0.345771 32.5083 0.199552C 32.5076 0.122886 32.5064 0.058767 32.5055 0.0194025C 32.505 -0.00200415 32.5045 -0.0208194 32.5042 -0.0316384C 32.504 -0.0378966 32.5038 -0.0438884 32.5037 -0.0470286C 32.5036 -0.0490197 32.5035 -0.0511486 32.5035 -0.0521447C 32.5035 -0.0528524 32.5035 -0.0536984 32.5034 -0.0540521C 32.5034 -0.0548238 32.5034 -0.0555237 31.0044 -6.10352e-06ZM 15.5044 17.4C 11.7691 17.4 9.11252 16.319 7.18581 14.776C 5.16326 13.1858 3.9492 11.148 3.07617 8.90311C 2.19834 6.68117 1.8209 4.51504 1.63984 2.79527C 1.54997 1.95175 1.51749 1.2743 1.50554 0.775832C 1.4996 0.534125 1.49933 0.355583 1.50046 0.224948C 1.50096 0.163185 1.50175 0.121177 1.5025 0.0890203C 1.50283 0.0746665 1.50306 0.066373 1.50329 0.0590233C 1.50337 0.0561972 1.5034 0.0553397 1.50345 0.0539017C 1.50346 0.0536037 1.50345 0.0537054 1.50345 0.0538583C 1.50344 0.0539915 1.50343 0.054406 1.50343 0.0544719C 1.50341 0.0549558 1.50339 0.0555114 0.00441703 -6.10352e-06C -1.49456 -0.0555236 -1.49458 -0.0548238 -1.49461 -0.0540521C -1.49462 -0.0536984 -1.49465 -0.0528524 -1.49468 -0.0521447C -1.49471 -0.0511485 -1.49479 -0.0490197 -1.49485 -0.0470286C -1.49496 -0.0438884 -1.49515 -0.0378966 -1.49534 -0.0316383C -1.49567 -0.0208194 -1.49619 -0.00200412 -1.49669 0.0194025C -1.4976 0.0587671 -1.49877 0.122886 -1.49944 0.199552C -1.50065 0.345771 -1.50014 0.573284 -1.49358 0.848374C -1.48053 1.3835 -1.44113 2.18262 -1.3435 3.11097C -1.14957 4.93494 -0.689503 7.49381 0.282662 9.99687C 1.25963 12.477 2.90807 15.1642 5.31052 17.1177C 7.80881 19.1184 11.1397 20.4 15.5044 20.4L 15.5044 17.4Z"/>
<path id="path29_fill" d="M 3.05176e-06 21.6L 6.6 21.6C 9.6 21.6 12 19.2 12 16.2C 12 13.2 9.6 10.8 6.6 10.8L 4 10.8L 2 -6.10352e-06"/>
<path id="path30_stroke" d="M 3.05176e-06 20.1C -0.828424 20.1 -1.5 20.7716 -1.5 21.6C -1.5 22.4284 -0.828424 23.1 3.05176e-06 23.1L 3.05176e-06 20.1ZM 4 10.8L 2.52508 11.0731C 2.65675 11.7841 3.27692 12.3 4 12.3L 4 10.8ZM 3.47493 -0.27314C 3.32408 -1.08772 2.54145 -1.62578 1.72687 -1.47493C 0.912292 -1.32408 0.374233 -0.54145 0.52508 0.273127L 3.47493 -0.27314ZM 3.05176e-06 23.1L 6.6 23.1L 6.6 20.1L 3.05176e-06 20.1L 3.05176e-06 23.1ZM 6.6 23.1C 10.4284 23.1 13.5 20.0284 13.5 16.2L 10.5 16.2C 10.5 18.3716 8.77158 20.1 6.6 20.1L 6.6 23.1ZM 13.5 16.2C 13.5 12.3716 10.4284 9.30001 6.6 9.30001L 6.6 12.3C 8.77158 12.3 10.5 14.0284 10.5 16.2L 13.5 16.2ZM 6.6 9.30001L 4 9.30001L 4 12.3L 6.6 12.3L 6.6 9.30001ZM 5.47493 10.5269L 3.47493 -0.27314L 0.52508 0.273127L 2.52508 11.0731L 5.47493 10.5269Z"/>
<path id="path31_fill" d="M 3.00002 6.00001C 4.65688 6.00001 6.00002 4.65686 6.00002 3.00001C 6.00002 1.34315 4.65688 6.10352e-06 3.00002 6.10352e-06C 1.34317 6.10352e-06 2.44141e-05 1.34315 2.44141e-05 3.00001C 2.44141e-05 4.65686 1.34317 6.00001 3.00002 6.00001Z"/>
<path id="path32_stroke" d="M 4.50002 3.00001C 4.50002 3.82843 3.82845 4.50001 3.00002 4.50001L 3.00002 7.50001C 5.48531 7.50001 7.50002 5.48529 7.50002 3.00001L 4.50002 3.00001ZM 3.00002 4.50001C 2.1716 4.50001 1.50002 3.82843 1.50002 3.00001L -1.49998 3.00001C -1.49998 5.48529 0.514743 7.50001 3.00002 7.50001L 3.00002 4.50001ZM 1.50002 3.00001C 1.50002 2.17158 2.1716 1.50001 3.00002 1.50001L 3.00002 -1.49999C 0.514743 -1.49999 -1.49998 0.514725 -1.49998 3.00001L 1.50002 3.00001ZM 3.00002 1.50001C 3.82845 1.50001 4.50002 2.17158 4.50002 3.00001L 7.50002 3.00001C 7.50002 0.514725 5.48531 -1.49999 3.00002 -1.49999L 3.00002 1.50001Z"/>
<path id="path33_stroke" d="M -1.2207e-05 -1.49999C -0.828439 -1.49999 -1.50001 -0.828421 -1.50001 6.10352e-06C -1.50001 0.828433 -0.828439 1.50001 -1.2207e-05 1.50001L -1.2207e-05 -1.49999ZM 18 1.50001C 18.8284 1.50001 19.5 0.828433 19.5 6.10352e-06C 19.5 -0.828421 18.8284 -1.49999 18 -1.49999L 18 1.50001ZM -1.2207e-05 1.50001L 18 1.50001L 18 -1.49999L -1.2207e-05 -1.49999L -1.2207e-05 1.50001Z"/>
<path id="path34_fill" d="M 0.699976 6.10352e-06C 0.899976 2.10001 0.500024 4.00001 2.44141e-05 5.50001Z"/>
<path id="path35_stroke" d="M 1.94434 -0.118505C 1.87889 -0.805751 1.26871 -1.30982 0.581464 -1.24436C -0.105782 -1.17891 -0.609846 -0.568729 -0.544394 0.118517L 1.94434 -0.118505ZM -1.18583 5.10472C -1.40414 5.75965 -1.05019 6.46755 -0.39526 6.68586C 0.259669 6.90417 0.967569 6.55022 1.18588 5.89529L -1.18583 5.10472ZM -0.544394 0.118517C -0.348047 2.02972 -0.706468 3.67309 -1.18583 5.10472L 1.18588 5.89529C 1.70652 4.32692 2.148 2.17029 1.94434 -0.118505L -0.544394 0.118517Z"/>
<path id="path36_stroke" d="M -0.176752 -1.13743C -0.86017 -1.0398 -1.33504 -0.406635 -1.23741 0.276783C -1.13978 0.9602 -0.506616 1.43507 0.176801 1.33744L -0.176752 -1.13743ZM 35.4 12.2L 36.3342 11.3696C 36.3291 11.3637 36.3238 11.3579 36.3185 11.3522L 35.4 12.2ZM 37.7441 17.8759C 38.007 18.5143 38.7376 18.8187 39.3759 18.5558C 40.0143 18.293 40.3187 17.5624 40.0558 16.9241L 37.7441 17.8759ZM 0.176801 1.33744C 0.788642 1.24686 1.29999 1.25 1.89999 1.25L 1.89999 -1.25C 1.29998 -1.25 0.611407 -1.24685 -0.176752 -1.13743L 0.176801 1.33744ZM 1.89999 1.25C 21.5255 1.25 29.9002 8.08479 34.4815 13.0479L 36.3185 11.3522C 31.2998 5.91523 22.2744 -1.25 1.89999 -1.25L 1.89999 1.25ZM 34.4657 13.0305C 36.0207 14.7769 37.1046 16.3022 37.7441 17.8759L 40.0558 16.9241C 39.2954 15.0978 37.9793 13.2231 36.3342 11.3696L 34.4657 13.0305Z"/>
<path id="path37_fill" d="M 0 0.600006C 1 0.200006 2.10001 0 3.20001 0C 4.10001 0 5.1 0.0999939 6 0.399994"/>
<path id="path38_stroke" d="M -0.464238 -0.56059C -1.10522 -0.304198 -1.41699 0.423265 -1.1606 1.06424C -0.904204 1.70522 -0.176741 2.01699 0.464238 1.7606L -0.464238 -0.56059ZM 5.60472 1.58585C 6.25964 1.80416 6.96754 1.45021 7.18585 0.795279C 7.40416 0.140349 7.05021 -0.56755 6.39528 -0.78586L 5.60472 1.58585ZM 0.464238 1.7606C 1.34566 1.40126 2.21227 1.24495 3.20001 1.25L 3.20001 -1.25C 1.98775 -1.24495 0.654337 -1.00125 -0.464238 -0.56059L 0.464238 1.7606ZM 3.20001 1.25C 4.03775 1.24845 4.83856 1.32235 5.60472 1.58585L 6.39528 -0.78586C 5.36144 -1.12236 4.16228 -1.24845 3.20001 -1.25L 3.20001 1.25Z"/>
</defs>
</svg>
