<svg width="232" height="231" viewBox="0 0 232 231" version="1.1" xmlns="http://www.w3.org/2000/svg" xmlns:xlink="http://www.w3.org/1999/xlink"><title>mal</title><desc>Created using Figma</desc><use xlink:href="#a" fill="#FFF"/><g transform="translate(31.3 147.2)"><use xlink:href="#b" fill="#FFF"/><use xlink:href="#c" fill="#333"/></g><use xlink:href="#d" transform="translate(120 181.36)" fill="#333"/><g transform="translate(78.2 149.4)"><use xlink:href="#e" fill="#FFF"/><use xlink:href="#f" fill="#333"/></g><g transform="translate(119.1 149.4)"><use xlink:href="#g" fill="#FFF"/><use xlink:href="#h" fill="#333"/></g><g transform="translate(88.4 91.3)"><use xlink:href="#i" fill="#FFF"/><use xlink:href="#j" fill="#333"/></g><g transform="translate(81.4 46.1)"><use xlink:href="#k" fill="#FFF"/><use xlink:href="#l" fill="#333"/></g><g transform="translate(79.3 20)"><use xlink:href="#m" fill="#BDBDBD"/><use xlink:href="#n" fill="#333"/></g><use xlink:href="#o" transform="translate(75.8 79.3)" fill="#FFF"/><use xlink:href="#p" transform="translate(74.3 77.8)" fill="#333"/><g transform="translate(119.9 113.7)"><use xlink:href="#q" fill="#FFF"/><use xlink:href="#r" fill="#333"/></g><g transform="translate(86 116.36)"><use xlink:href="#s" fill="#BDBDBD"/><use xlink:href="#t" fill="#333"/></g><g transform="translate(134.2 79.3)"><use xlink:href="#u" fill="#FFF"/><use xlink:href="#v" fill="#333"/></g><g transform="translate(87.1 79.3)"><use xlink:href="#w" fill="#FFF"/><use xlink:href="#x" fill="#333"/></g><g transform="translate(149 84.5)"><use xlink:href="#y" fill="#FFF"/><use xlink:href="#z" fill="#333"/></g><use xlink:href="#A" transform="translate(142.9 84.5)" fill="#333"/><g transform="translate(96.4 79.3)"><use xlink:href="#B" fill="#FFF"/><use xlink:href="#C" fill="#333"/></g><g transform="translate(130 80.36)"><use xlink:href="#D" fill="#FFF"/><use xlink:href="#E" fill="#333"/></g><g transform="translate(109 84.5)"><use xlink:href="#F" fill="#FFF"/><use xlink:href="#G" fill="#333"/></g><use xlink:href="#H" transform="translate(102.9 84.5)" fill="#333"/><g transform="translate(158.5 47)"><use xlink:href="#I" fill="#FFF"/><use xlink:href="#J" fill="#333"/></g><use xlink:href="#K" transform="translate(119 24.9)" fill="#333"/><g transform="translate(90.1 37.4)"><use xlink:href="#L" fill="#FFF"/><use xlink:href="#M" fill="#333"/></g><defs><path id="a" d="M231.045 115.5c0 63.789-51.721 115.5-115.522 115.5C51.721 231 0 179.289 0 115.5S51.721 0 115.523 0c63.801 0 115.522 51.711 115.522 115.5z"/><path id="b" d="M86 0s57.1 8.8 71.7 16c14.6 7.2 14.9 20.4 14.9 20.4S148 50.5 86.3 50.5C24.6 50.5 0 36.4 0 36.4S.3 23.2 14.9 16C29.6 8.8 86 0 86 0z"/><path id="c" d="M86 0l.228-1.483a1.5 1.5 0 0 0-.46 0L86 0zm86.6 36.4l.746 1.301c.477-.273.766-.785.754-1.335l-1.5.034zM0 36.4l-1.5-.034A1.5 1.5 0 0 0-.746 37.7L0 36.4zM14.9 16l-.66-1.347-.004.002L14.9 16zM86 0l-.228 1.483h.002l.007.001.031.005.122.019a337.546 337.546 0 0 1 2.31.365c1.589.255 3.87.626 6.657 1.094a922.149 922.149 0 0 1 21.19 3.806c8.039 1.548 16.506 3.314 23.885 5.145 7.412 1.84 13.573 3.707 17.061 5.427l1.326-2.69c-3.812-1.88-10.263-3.812-17.664-5.648-7.434-1.844-15.979-3.628-24.04-5.18A927.112 927.112 0 0 0 95.399.008a902.061 902.061 0 0 0-9.128-1.484l-.032-.005-.008-.001h-.002L86 0zm71.037 17.345c6.947 3.426 10.444 8.245 12.221 12.173a21.591 21.591 0 0 1 1.593 4.987c.12.63.18 1.106.215 1.46.016.168.024.284.03.373l.004.084v.013l1.5-.035c1.5-.034 1.5-.035 1.5-.036v-.002l-.001-.005v-.014l-.002-.041a11.128 11.128 0 0 0-.046-.63 19.863 19.863 0 0 0-.252-1.727 25.98 25.98 0 0 0-1.807-5.663c-2.023-4.472-5.976-9.853-13.629-13.627l-1.326 2.69zM172.6 36.4c-.746-1.301-.745-1.302-.745-1.302h0l-.008.005-.043.024-.197.105c-.187.1-.459.24-.84.425-.778.378-1.933.908-3.537 1.555-3.239 1.31-8.146 3.04-15.012 4.784-13.799 3.51-35.189 7.009-65.918 7.004v3c30.971-.005 52.731-3.557 66.657-7.096 6.996-1.78 12.095-3.576 15.397-4.91a60.5 60.5 0 0 0 3.724-1.64 31.864 31.864 0 0 0 1.173-.6l.066-.036.019-.01.006-.004.002-.002c.001 0 .002 0-.744-1.302zM86.3 49c-30.729.005-52.119-3.493-65.918-7.004-6.866-1.744-11.773-3.474-15.012-4.784a56.361 56.361 0 0 1-3.537-1.555 27.184 27.184 0 0 1-1.088-.559s-.001 0 0 0L0 36.4c-.746 1.301-.745 1.302-.744 1.302l.002.002.006.003c.004.002.011.007.02.01a10.939 10.939 0 0 0 .306.167c.203.108.52.27.932.47.808.394 2.057.966 3.724 1.64 3.302 1.334 8.4 3.13 15.397 4.91C33.569 48.444 55.329 51.995 86.3 52v-3zM0 36.4l1.5.035V36.422l.004-.084c.006-.09.014-.205.03-.373.035-.354.095-.83.215-1.46.245-1.299.69-3.003 1.593-4.987 1.777-3.928 5.274-8.747 12.221-12.173l-1.327-2.69C6.584 18.429 2.631 23.81.608 28.282a25.982 25.982 0 0 0-1.807 5.663c-.136.721-.214 1.332-.252 1.728a13.353 13.353 0 0 0-.048.67V36.364c0 .001 0 .002 1.499.036zm15.56-19.053c3.516-1.722 9.656-3.59 17.014-5.43 7.328-1.83 15.718-3.597 23.675-5.145a912.582 912.582 0 0 1 20.96-3.806 886.59 886.59 0 0 1 9.013-1.482l.007-.002h.002L86 0a249.471 249.471 0 0 0-.232-1.482h-.002l-.008.002a17.015 17.015 0 0 1-.153.024 358.575 358.575 0 0 0-2.297.368 916.992 916.992 0 0 0-27.632 4.916c-7.98 1.552-16.447 3.335-23.829 5.18-7.35 1.836-13.774 3.767-17.607 5.645l1.32 2.694z"/><path id="d" d="M1.5 0a1.5 1.5 0 1 0-3 0h3zm-3 16a1.5 1.5 0 0 0 3 0h-3zm0-16v16h3V0h-3z"/><path id="e" d="M13.4 0C6.9 1.3 4.3 3.9 0 6.6c0 0 1 9.4 11.3 21.3 7.6 8.8 17.5 15 17.5 15l12-11.3L13.4 0z"/><path id="f" d="M13.4 0l1.133-.983a1.5 1.5 0 0 0-1.427-.488L13.4 0zM0 6.6l-.798-1.27a1.5 1.5 0 0 0-.694 1.429L0 6.6zm11.3 21.3l1.135-.98v-.002L11.3 27.9zm17.5 15l-.796 1.271a1.5 1.5 0 0 0 1.824-.179L28.8 42.9zm12-11.3l1.028 1.092a1.5 1.5 0 0 0 .105-2.075L40.8 31.6zM13.106-1.47C6.254-.1 3.316 2.746-.798 5.33L.798 7.87c4.486-2.817 6.748-5.17 12.896-6.4l-.588-2.94zM0 6.6c-1.492.159-1.492.16-1.491.16v.006a5.332 5.332 0 0 0 .019.146c.01.08.03.21.056.366.05.296.14.758.274 1.325.263 1.101.742 2.754 1.537 4.742 1.57 3.911 4.518 9.453 9.77 15.537l2.27-1.964C7.387 21.102 4.684 15.994 3.18 12.23c-.743-1.849-1.158-3.29-1.404-4.324A16.842 16.842 0 0 1 1.5 6.505a3.447 3.447 0 0 1-.009-.068.064.064 0 0 1 0 .003L0 6.6zm10.165 22.28c3.876 4.483 8.363 8.333 11.817 11.006a95.252 95.252 0 0 0 4.303 3.144 67.605 67.605 0 0 0 1.709 1.135l.007.004.002.002.797-1.271.796-1.271a.2.2 0 0 0-.004-.003l-.018-.012a21.76 21.76 0 0 1-.393-.253 64.157 64.157 0 0 1-1.198-.804 90.919 90.919 0 0 1-4.165-3.043c-3.396-2.627-7.66-6.277-11.383-10.594l-2.27 1.96zm19.663 15.112l12-11.3-2.056-2.184-12 11.3 2.056 2.184zm12.105-13.375l-27.4-31.6L12.267.983l27.4 31.6 2.266-1.966z"/><path id="g" d="M27.4 0c6.5 1.3 9.1 3.9 13.4 6.6 0 0-1 9.4-11.3 21.3-7.6 8.8-17.5 15-17.5 15L0 31.6 27.4 0z"/><path id="h" d="M27.4 0l.294-1.47a1.5 1.5 0 0 0-1.427.487L27.4 0zm13.4 6.6l1.492.159a1.5 1.5 0 0 0-.694-1.43L40.8 6.6zM29.5 27.9l-1.134-.982-.001.002 1.135.98zM12 42.9l-1.028 1.092a1.5 1.5 0 0 0 1.824.18L12 42.9zM0 31.6l-1.133-.983a1.5 1.5 0 0 0 .105 2.075L0 31.6zM27.106 1.47c6.148 1.23 8.41 3.583 12.896 6.4l1.596-2.54c-4.114-2.583-7.052-5.43-13.904-6.8l-.588 2.94zM40.8 6.6c-1.492-.159-1.491-.16-1.491-.16v-.001-.002l-.001.01-.008.058a16.87 16.87 0 0 1-.276 1.402c-.246 1.033-.661 2.474-1.404 4.323-1.506 3.764-4.207 8.872-9.254 14.688l2.268 1.964c5.254-6.084 8.202-11.626 9.77-15.537.796-1.989 1.275-3.64 1.538-4.742.135-.567.224-1.03.274-1.325a12.491 12.491 0 0 0 .07-.47l.004-.031a.569.569 0 0 0 .001-.017L40.8 6.6zM28.365 26.92c-3.724 4.317-7.987 7.967-11.383 10.594a90.919 90.919 0 0 1-4.165 3.043 63.821 63.821 0 0 1-1.512 1.008l-.078.05-.019.011-.004.003L12 42.9l.797 1.271.002-.002.007-.004.025-.015.09-.058.34-.22c.29-.19.72-.476 1.254-.842a95.252 95.252 0 0 0 4.303-3.144c3.454-2.673 7.94-6.523 11.817-11.006l-2.27-1.96zM13.028 41.808l-12-11.3-2.056 2.184 12 11.3 2.056-2.184zM1.133 32.583l27.4-31.6-2.266-1.966-27.4 31.6 2.266 1.966z"/><path id="i" d="M58.6 60.2c0 13.4-26.4 28.9-26.4 28.9S0 74.1 0 60.2V0h58.6v60.2z"/><path id="j" d="M32.2 89.1l-.633 1.36a1.5 1.5 0 0 0 1.392-.066L32.2 89.1zM0 0v-1.5A1.5 1.5 0 0 0-1.5 0H0zm58.6 0v1.5A1.5 1.5 0 0 0 60.1 0h-1.5zm-1.5 60.2c0 2.878-1.432 6.042-3.83 9.275-2.398 3.242-5.575 6.311-8.835 9.052-3.254 2.738-6.49 5.046-8.946 6.697a103.688 103.688 0 0 1-2.948 1.91 68.14 68.14 0 0 1-1.033.632l-.052.031-.013.008-.002.001.759 1.294.76 1.293h.002a.381.381 0 0 1 .02-.013l.061-.036.229-.137c.196-.119.489-.297.856-.526.728-.454 1.781-1.126 3.033-1.967 2.493-1.675 5.858-4.079 9.204-6.891 3.34-2.81 6.763-6.128 9.315-9.56 2.552-3.443 4.42-7.241 4.42-11.063h-3zM32.2 89.1l.633-1.36-.004-.002-.015-.007-.065-.03-.261-.125c-.233-.112-.57-.275-1.004-.491a125.64 125.64 0 0 1-3.605-1.867c-3-1.614-6.958-3.883-10.934-6.595-3.982-2.713-7.869-5.776-10.798-9.046C3.21 66.307 1.5 63.115 1.5 60.2h-3c0 4.035 2.315 7.93 5.415 11.382 3.109 3.452 7.272 6.746 11.34 9.52 4.074 2.775 8.167 5.125 11.203 6.758 1.525.82 2.804 1.471 3.691 1.912a87.436 87.436 0 0 0 1.415.687h.002L32.2 89.1zM1.5 60.2V24.887 7.453 2.017.523v-.39-.1-.025-.006-.001L0 0h-1.5v60.2h3zM0 1.5h58.6v-3H0v3zM60.1 0h-3v60.2h3V25.037 7.508 2.034.528.134v-.1-.025-.007-.001L57.1 0h3z"/><path id="k" d="M0 0v45.9c0 38.5 23.7 51.6 33 54.4 9.4 2.8 20.1 3.4 28.4-2.7 7.1-5.2 17.8-25 17.8-44.5V0H0z"/><path id="l" d="M33 100.3l-.432 1.436.004.002L33 100.3zm28.4-2.7l-.886-1.21-.002.001.888 1.209zM79.2 0h1.5v-1.5h-1.5V0zM-1.5 0v45.9h3V0h-3zm0 45.9c0 39.304 24.281 52.89 34.068 55.836l.864-2.872C24.62 96.21 1.5 83.596 1.5 45.9h-3zm34.072 55.838c9.567 2.849 20.85 3.587 29.716-2.93l-1.776-2.417c-7.734 5.684-17.851 5.222-27.084 2.471l-.856 2.876zm29.714-2.928c3.867-2.831 8.448-9.368 12.048-17.49 3.604-8.143 6.353-18.271 6.366-28.22h-3c.013 9.551-2.588 19.073-6.109 27.005-3.525 7.953-7.843 13.916-11.077 16.285l1.772 2.42zM80.7 53.1V0h-3v53.1h3zM79.2-1.5H0v3h79.2v-3z"/><path id="m" d="M13.4 31.1c1.7 9.5 11.5 8.8 11.5 8.8 1.2 0-2.9-8.9-1.3-8.9 1.2 0 12.2 8.9 27.6 8.9 6.5 0 30-.2 30-.2s9.9-12.5-2.4-25.9C71.6 6 60.9 0 41.6 0 33.2 0 21 3.8 18.2 13.2 9.5 10.5 0 16.6 0 25.5v34.7s11.8.7 13.5-8.8V46.1l-.1-15z"/><path id="n" d="M13.4 31.1l1.476-.264a1.5 1.5 0 0 0-2.976.274l1.5-.01zm11.5 8.8v-1.5c-.036 0-.071.001-.107.004L24.9 39.9zm56.3-.2l.013 1.5a1.5 1.5 0 0 0 1.163-.569L81.2 39.7zm-2.4-25.9l1.105-1.014-.003-.003L78.8 13.8zm-60.6-.6l-.445 1.433a1.5 1.5 0 0 0 1.883-1.005L18.2 13.2zM0 60.2h-1.5a1.5 1.5 0 0 0 1.411 1.497L0 60.2zm13.5-8.8l1.477.264A1.5 1.5 0 0 0 15 51.4h-1.5zm0-5.3H15v-.01l-1.5.01zm-1.577-14.736c.961 5.37 4.281 7.94 7.331 9.1 1.475.553 2.956.802 3.957.891.52.045.976.057 1.268.056a10.799 10.799 0 0 0 .52-.014h.006c.001 0 .002 0-.105-1.497l-.106-1.496h.003s.001 0 0 0h-.009l-.057.003a10.638 10.638 0 0 1-1.258-.04 11.254 11.254 0 0 1-3.152-.706c-2.275-.866-4.706-2.695-5.445-6.825l-2.953.528zM24.9 41.4c.661 0 1.196-.367 1.476-.87.214-.384.242-.772.247-.976.01-.444-.084-.948-.183-1.379-.205-.892-.57-2.055-.905-3.16-.335-1.105-.636-2.126-.759-2.874-.06-.344-.031-.556-.054-.495-.003.019-.039.229-.239.453-.248.278-.59.401-.883.401v-3a1.8 1.8 0 0 0-1.355.601c-.316.355-.43.756-.476 1.018-.091.512-.026 1.075.049 1.52.157.921.507 2.127.847 3.246.34 1.12.675 2.182.85 2.959.086.368.1.744.108.637l.013-.096c.011-.056.04-.174.119-.314.207-.373.634-.671 1.145-.671v3zm-1.3-8.9c-.268 0-.412-.09-.259-.024.108.046.234.111.439.223.423.23.995.57 1.721.99 1.448.838 3.478 1.984 5.946 3.123C36.346 39.07 43.257 41.38 51.2 41.4v-3c-7.457.02-13.745-2.119-18.497-4.312-2.357-1.086-4.264-2.165-5.698-2.995-.715-.414-1.32-.771-1.787-1.027a9.454 9.454 0 0 0-.683-.342c-.146-.064-.517-.224-.935-.224v3zm27.6 8.9c3.255 0 10.76-.05 17.449-.1a14726.005 14726.005 0 0 0 11.541-.091l.757-.007.198-.002h.067l-.012-1.5-.013-1.5h-.067l-.198.002-.757.007a12280.249 12280.249 0 0 1-11.539.091c-6.687.05-14.181.1-17.426.1v3zm30-1.7c1.176.931 1.176.93 1.177.93l.001-.002.004-.004a1.436 1.436 0 0 0 .039-.05 14.606 14.606 0 0 0 .427-.602c.259-.387.637-.993 1.03-1.73a23.081 23.081 0 0 0 2.207-6.18c1.02-5.226.32-12.195-6.18-19.276l-2.21 2.028c5.8 6.32 6.3 12.3 5.445 16.674a18.718 18.718 0 0 1-1.91 5.344 16.43 16.43 0 0 1-.874 1.47 10.022 10.022 0 0 1-.32.452l-.013.016-.001.002v-.001l.001-.001s.001-.001 1.177.93zm-1.298-26.917C72.388 4.643 61.272-1.5 41.6-1.5v3c18.928 0 29.212 5.857 36.098 13.317l2.204-2.034zM41.6-1.5c-4.337.006-9.813 1.023-14.446 3.221-4.672 2.231-8.828 5.8-10.392 11.05l2.876.857c1.236-4.15 4.58-7.18 8.808-9.2C32.713 2.378 37.536 1.495 41.6 1.5v-3zM18.645 11.767C9.139 8.817-1.5 15.428-1.5 25.5h3c0-7.728 8.361-13.317 16.255-10.867l.89-2.866zM-1.5 25.5V39.6h3v-4.2-9.9h-3zm0 14.1v8.9h3v-8.9h-3zm0 8.9v11.7h3V48.5h-3zM0 60.2c-.089 1.497-.088 1.497-.087 1.497h.005l.011.001.036.002.12.005c.094.003.244.006.423.007.343 0 .866-.011 1.472-.055 1.18-.087 2.883-.325 4.59-.866 3.464-1.109 7.423-3.629 8.407-9.127l-2.954-.528c-.716 4.002-3.507 5.882-6.368 6.798-1.455.472-2.808.652-3.894.73a16.159 16.159 0 0 1-1.658.04l-.015-.001H.086h.001c.001 0 .002 0-.087 1.497zm15-8.8v-3h-3v3h3zm0-3v-.1h-3v.1h3zm0-.1v-2.2h-3v2.2h3zm0-2.21l-.1-15-3 .02.1 15 3-.02z"/><path id="o" d="M7.5 0C3.4 0 0 3.3 0 7.5 0 11.6 3.3 15 7.5 15h4.2V0H7.5z"/><path id="p" d="M13.2 18H9c-4.9 0-9-4-9-9 0-4.9 4-9 9-9h4.2v3H9C5.7 3 3 5.7 3 9s2.7 6 6 6h4.2v3z"/><path id="q" d="M0 0h22s-2.3 7.6-9.4 7.6C5.5 7.5 0 0 0 0z"/><path id="r" d="M0 0v-1.5h-2.96L-1.21.887 0 0zm22 0l1.436.434.585-1.934H22V0zm-9.4 7.6l-.021 1.5H12.6V7.6zM0 1.5h22v-3H0v3zM22 0c-1.436-.434-1.436-.435-1.435-.436v-.002l-.001.006a10.223 10.223 0 0 1-.398.995c-.306.67-.732 1.472-1.392 2.322C17.488 4.555 15.534 6.1 12.6 6.1v3c4.167 0 6.912-2.255 8.551-4.385a15.885 15.885 0 0 0 1.742-2.903c.18-.392.319-.742.401-.966a10.33 10.33 0 0 0 .129-.37L23.43.45a.478.478 0 0 0 .003-.01V.438l.001-.001S23.435.434 22 0zm-9.379 6.1c-3.043-.043-5.864-1.688-8.023-3.49A23.156 23.156 0 0 1 1.255-.826a5.53 5.53 0 0 1-.047-.062l.001.001L0 0c-1.21.887-1.21.887-1.209.888l.003.003a5.993 5.993 0 0 0 .078.104A23.874 23.874 0 0 0-.151 2.17a27.545 27.545 0 0 0 2.828 2.744C5.043 6.888 8.522 9.043 12.579 9.1l.042-3z"/><path id="s" d="M45.79 32.5C25.493 33.5 2 17 0 0c2.5 5.5 18.06 17.623 23.5 21 14.5 9 18.493 1 22.29-7 2.203 7.5 5.916 12.041 10.21 8 8.5-8 11.493-12 14.493-16.5-2.316 13.054-11.5 22.5-24.703 27z"/><path id="t" d="M0 0l1.366-.62A1.5 1.5 0 0 0-1.49.174L0 0zm45.79 32.5l.073 1.498c.14-.007.278-.033.41-.078l-.483-1.42zm24.703-27l1.477.262a1.5 1.5 0 0 0-2.725-1.094l1.248.832zM56 22l1.028 1.092L56 22zm-10.21-8l1.439-.423a1.5 1.5 0 0 0-2.795-.22L45.79 14zM23.5 21l-.791 1.274L23.5 21zM-1.49.175c1.07 9.088 7.814 17.795 16.657 24.05 8.873 6.274 20.144 10.293 30.696 9.773l-.147-2.996c-9.745.48-20.368-3.251-28.816-9.227C8.423 15.78 2.42 7.737 1.49-.175l-2.98.35zM46.274 33.92c13.629-4.645 23.27-14.478 25.696-28.158l-2.954-.524c-2.205 12.427-10.933 21.487-23.71 25.842l.968 2.84zm22.97-29.252c-2.976 4.466-5.863 8.333-14.272 16.24l2.056 2.184c8.59-8.093 11.69-12.226 14.713-16.76l-2.496-1.664zm-14.272 16.24c-.9.847-1.602 1.089-2.108 1.102-.496.013-1.074-.189-1.75-.797-1.418-1.277-2.802-3.948-3.885-7.636l-2.879.846c1.12 3.812 2.695 7.162 4.757 9.02 1.066.96 2.358 1.604 3.835 1.566 1.467-.038 2.84-.743 4.086-1.917l-2.056-2.184zm-10.538-7.551c-1.957 4.125-3.723 7.62-6.519 9.215-2.561 1.462-6.537 1.552-13.624-2.846l-1.582 2.549c7.413 4.6 12.684 5.191 16.693 2.903 3.775-2.155 5.904-6.66 7.743-10.535l-2.71-1.286zm-20.143 6.369c-2.67-1.656-7.83-5.465-12.674-9.574C9.196 8.1 6.901 6.013 5.04 4.085 3.153 2.13 1.875.5 1.366-.621L-1.366.621C-.626 2.25.98 4.197 2.882 6.169c1.93 1.997 4.334 4.184 6.795 6.271 4.922 4.173 10.261 8.113 13.032 9.835l1.582-2.55z"/><path id="u" d="M.003 0h31s.7 18.9-15.5 18.9C-.597 18.9.003 0 .003 0z"/><path id="v" d="M.003 0v-1.5a1.5 1.5 0 0 0-1.5 1.452L.004 0zm31 0l1.499-.056a1.5 1.5 0 0 0-1.5-1.444V0zm-15.5 18.9v-1.5 1.5zM.003 1.5h31v-3h-31v3zm31-1.5c-1.5.056-1.5.055-1.5.054l.001.005v.03c.002.032.002.074.003.136 0 .13 0 .31-.005.55a24.45 24.45 0 0 1-.135 2.02c-.18 1.72-.558 3.886-1.436 6.108-.873 2.245-2.087 4.283-4.11 5.873-1.926 1.543-4.583 2.624-8.318 2.624v3c4.365 0 7.695-1.282 10.194-3.282 2.402-1.954 4.05-4.641 5.028-7.121.972-2.503 1.432-5.062 1.626-6.886.097-.928.137-1.728.15-2.263a20.958 20.958 0 0 0 .003-.829l-.001-.05v-.016l-.001-.005v-.002s0-.002-1.5.054zm-15.5 17.4c-3.708 0-6.352-1.08-8.275-2.623C5.208 13.186 3.99 11.146 3.11 8.9c-.884-2.223-1.27-4.391-1.46-6.111a24.676 24.676 0 0 1-.143-2.02A16.473 16.473 0 0 1 1.502.05V.046c0 .001 0 .002-1.5-.046-1.498-.048-1.498-.047-1.498-.046v.002a1.175 1.175 0 0 0-.002.071l-.002.18c0 .146.001.374.01.649.015.535.058 1.333.16 2.261C-1.128 4.941-.66 7.498.32 10c.983 2.48 2.633 5.164 5.03 7.117 2.492 2 5.81 3.283 10.153 3.283v-3z"/><path id="w" d="M0 0h77"/><path id="x" d="M0 1.5h9.3v-3H0v3zm9.3 0h32.1v-3H9.3v3zm32.1 0h9.2v-3h-9.2v3zm9.2 0H77v-3H50.6v3z"/><path id="y" d="M6 3c0 1.7-1.3 3-3 3S0 4.6 0 3c0-1.7 1.4-3 3-3s3 1.3 3 3z"/><path id="z" d="M4.5 3c0 .872-.628 1.5-1.5 1.5v3c2.528 0 4.5-1.972 4.5-4.5h-3zM3 4.5c-.84 0-1.5-.696-1.5-1.5h-3C-1.5 5.396.44 7.5 3 7.5v-3zM1.5 3c0-.84.696-1.5 1.5-1.5v-3C.604-1.5-1.5.44-1.5 3h3zM3 1.5c.804 0 1.5.66 1.5 1.5h3C7.5.44 5.396-1.5 3-1.5v3z"/><path id="A" d="M0-1.5a1.5 1.5 0 1 0 0 3v-3zm16 3a1.5 1.5 0 0 0 0-3v3zm-16 0h16v-3H0v3z"/><path id="B" d="M.004 0h31s.7 18.9-15.5 18.9S.004 0 .004 0z"/><path id="C" d="M.004 0v-1.5A1.5 1.5 0 0 0-1.495-.056L.005 0zm31 0l1.5-.056a1.5 1.5 0 0 0-1.5-1.444V0zm-15.5 18.9v-1.5 1.5zM.004 1.5h31v-3h-31v3zm31-1.5c-1.499.056-1.499.055-1.499.054v.005l.001.03.002.136c.002.13.001.31-.005.55a24.494 24.494 0 0 1-.134 2.02c-.181 1.72-.558 3.886-1.436 6.108-.873 2.245-2.087 4.283-4.11 5.873-1.927 1.543-4.583 2.624-8.319 2.624v3c4.365 0 7.696-1.282 10.194-3.282 2.403-1.954 4.051-4.641 5.028-7.121.972-2.503 1.432-5.062 1.626-6.886a28.81 28.81 0 0 0 .15-2.263 20.705 20.705 0 0 0 .002-.88v-.015a.14.14 0 0 1 0-.005v-.002s0-.002-1.5.054zm-15.5 17.4c-3.735 0-6.391-1.081-8.318-2.624-2.023-1.59-3.237-3.628-4.11-5.873-.878-2.222-1.255-4.388-1.436-6.108a24.486 24.486 0 0 1-.134-2.02A16.352 16.352 0 0 1 1.503.06V.054c0 .001 0 .002-1.499-.054s-1.499-.055-1.499-.054v.007a4.008 4.008 0 0 0-.002.066l-.002.18c-.002.147-.001.374.005.65.013.534.053 1.334.15 2.262.194 1.824.654 4.383 1.627 6.886.977 2.48 2.625 5.167 5.028 7.12C7.809 19.119 11.14 20.4 15.504 20.4v-3z"/><path id="D" d="M0 21.6h6.6c3 0 5.4-2.4 5.4-5.4 0-3-2.4-5.4-5.4-5.4H4L2 0"/><path id="E" d="M0 20.1a1.5 1.5 0 0 0 0 3v-3zm4-9.3l-1.475.273A1.5 1.5 0 0 0 4 12.3v-1.5zM3.475-.273a1.5 1.5 0 1 0-2.95.546l2.95-.546zM0 23.1h6.6v-3H0v3zm6.6 0c3.828 0 6.9-3.072 6.9-6.9h-3c0 2.172-1.728 3.9-3.9 3.9v3zm6.9-6.9c0-3.828-3.072-6.9-6.9-6.9v3c2.172 0 3.9 1.728 3.9 3.9h3zM6.6 9.3H4v3h2.6v-3zm-1.125 1.227l-2-10.8-2.95.546 2 10.8 2.95-.546z"/><path id="F" d="M3 6a3 3 0 1 0 0-6 3 3 0 0 0 0 6z"/><path id="G" d="M4.5 3A1.5 1.5 0 0 1 3 4.5v3A4.5 4.5 0 0 0 7.5 3h-3zM3 4.5A1.5 1.5 0 0 1 1.5 3h-3A4.5 4.5 0 0 0 3 7.5v-3zM1.5 3A1.5 1.5 0 0 1 3 1.5v-3A4.5 4.5 0 0 0-1.5 3h3zM3 1.5A1.5 1.5 0 0 1 4.5 3h3A4.5 4.5 0 0 0 3-1.5v3z"/><path id="H" d="M0-1.5a1.5 1.5 0 1 0 0 3v-3zm18 3a1.5 1.5 0 0 0 0-3v3zm-18 0h18v-3H0v3z"/><path id="I" d="M.7 0C.9 2.1.5 4 0 5.5z"/><path id="J" d="M1.944-.119A1.25 1.25 0 1 0-.544.12L1.944-.12zm-3.13 5.224a1.25 1.25 0 1 0 2.372.79l-2.372-.79zM-.544.119c.196 1.91-.162 3.554-.642 4.986l2.372.79c.52-1.568.962-3.725.758-6.014L-.544.12z"/><path id="K" d="M-.177-1.137a1.25 1.25 0 1 0 .354 2.474l-.354-2.474zM35.4 12.2l.934-.83a.648.648 0 0 0-.016-.018l-.918.848zm2.344 5.676a1.25 1.25 0 0 0 2.312-.952l-2.312.952zM.177 1.337C.789 1.247 1.3 1.25 1.9 1.25v-2.5c-.6 0-1.289.003-2.077.113l.354 2.474zM1.9 1.25c19.626 0 28 6.835 32.581 11.798l1.837-1.696C31.3 5.915 22.274-1.25 1.9-1.25v2.5zm32.566 11.78c1.555 1.747 2.639 3.272 3.278 4.846l2.312-.952c-.76-1.826-2.077-3.7-3.722-5.554l-1.868 1.66z"/><path id="L" d="M0 .6C1 .2 2.1 0 3.2 0c.9 0 1.9.1 2.8.4"/><path id="M" d="M-.464-.56a1.25 1.25 0 1 0 .928 2.32L-.464-.56zm6.069 2.146a1.25 1.25 0 1 0 .79-2.372l-.79 2.372zm-5.14.175c.88-.36 1.747-.516 2.735-.511v-2.5a10.487 10.487 0 0 0-3.664.69l.928 2.32zM3.2 1.25c.838-.002 1.639.072 2.405.336l.79-2.372C5.361-1.122 4.162-1.248 3.2-1.25v2.5z"/></defs></svg>