<svg width="1109" height="527" viewBox="0 0 1109 527" version="1.1" xmlns="http://www.w3.org/2000/svg" xmlns:xlink="http://www.w3.org/1999/xlink"><title>matrix-pattern2</title><desc>Created using Figma</desc><g opacity=".2"><use xlink:href="#a" transform="translate(0 119.1)" fill="#FFF"/><use xlink:href="#b" transform="translate(0 88)" fill="#FFF"/><use xlink:href="#c" transform="translate(156.6 212.01)" fill="#FFF"/><use xlink:href="#d" transform="translate(113.9 209.29)" fill="#FFF"/><use xlink:href="#e" transform="translate(271.6 394.36)" fill="#FFF"/><use xlink:href="#f" transform="matrix(.77125 .63649 -.63675 .77103 919.2 132.17)" fill="#FFF"/><use xlink:href="#g" transform="matrix(.77125 .63649 -.63675 .77103 1.4 286.29)" fill="#FFF"/><use xlink:href="#h" transform="matrix(-.39528 .91853 -.9184 -.3956 1072.3 56.92)" fill="#FFF"/><use xlink:href="#i" transform="translate(495.4 139.09)" fill="#FFF"/><use xlink:href="#j" transform="translate(905.9 48.76)" fill="#FFF"/><use xlink:href="#k" transform="matrix(.44388 -.89606 .89594 .44412 738.1 213.83)" fill="#FFF"/><use xlink:href="#l" transform="translate(676.6 270.12)" fill="#FFF"/><use xlink:href="#m" transform="matrix(.50367 -.86388 .86372 .50393 617.2 486.47)" fill="#FFF"/><use xlink:href="#n" transform="translate(527.8 324.16)" fill="#FFF"/><use xlink:href="#o" transform="matrix(.42658 -.90446 .90434 .42682 196 169.19)" fill="#FFF"/><use xlink:href="#p" transform="matrix(.16065 -.987 .987 .16075 186.6 173.22)" fill="#FFF"/><use xlink:href="#q" transform="matrix(.15915 -.9872 .9872 .15925 23.5 126.67)" fill="#FFF"/><use xlink:href="#r" transform="translate(24.5 305.94)" fill="#FFF"/><use xlink:href="#s" transform="matrix(.70698 -.70722 .70698 .70722 147.6 464.57)" fill="#FFF"/><use xlink:href="#t" transform="matrix(.70698 -.70722 .70698 .70722 230.5 320.19)" fill="#FFF"/><use xlink:href="#u" transform="rotate(-76.66 435.452 -28.589) skewX(-.009)" fill="#FFF"/><use xlink:href="#v" transform="translate(438.1 475.24)" fill="#FFF"/><use xlink:href="#v" transform="translate(258 512)" fill="#FFF"/><use xlink:href="#w" transform="translate(523.8 416.86)" fill="#FFF"/><use xlink:href="#x" transform="rotate(-76.66 616.106 -139.303) skewX(-.009)" fill="#FFF"/><use xlink:href="#y" transform="matrix(.70698 -.70722 .70698 .70722 713.6 475.23)" fill="#FFF"/><use xlink:href="#z" transform="matrix(.70698 -.70722 .70698 .70722 792.7 435.56)" fill="#FFF"/><use xlink:href="#A" transform="matrix(.70698 -.70722 .70698 .70722 904.4 501.27)" fill="#FFF"/><use xlink:href="#B" transform="translate(950.2 314.1)" fill="#FFF"/><use xlink:href="#B" transform="translate(995 397)" fill="#FFF"/><use xlink:href="#B" transform="translate(996 202)" fill="#FFF"/><use xlink:href="#B" transform="translate(974 256)" fill="#FFF"/><use xlink:href="#C" transform="matrix(.22972 -.97322 .97318 .22988 852.4 280.86)" fill="#FFF"/><use xlink:href="#D" transform="translate(704.3 318.11)" fill="#FFF"/><use xlink:href="#E" transform="matrix(.20813 -.97811 .97808 .20827 669 291.49)" fill="#FFF"/><use xlink:href="#F" transform="matrix(.22972 -.97322 .97318 .22988 729.6 220.87)" fill="#FFF"/><use xlink:href="#G" transform="rotate(-76.66 382.227 -251.241) skewX(-.009)" fill="#FFF"/><use xlink:href="#H" transform="matrix(.18844 -.98211 .98209 .18856 487 247.89)" fill="#FFF"/><use xlink:href="#I" transform="translate(284.7 207.05)" fill="#FFF"/><use xlink:href="#J" transform="matrix(.16015 -.9871 .9871 .16025 900.3 190.24)" fill="#FFF"/><use xlink:href="#K" transform="translate(899.2 131.95)" fill="#FFF"/><use xlink:href="#L" transform="matrix(.70698 -.70722 .70698 .70722 161.9 366.98)" fill="#FFF"/><use xlink:href="#M" transform="translate(106.4 199.78)" fill="#FFF"/><use xlink:href="#J" transform="matrix(.16015 -.9871 .9871 .16025 1089 397.09)" fill="#FFF"/><use xlink:href="#J" transform="matrix(.16015 -.9871 .9871 .16025 1062 55.09)" fill="#FFF"/><use xlink:href="#J" transform="matrix(.16015 -.9871 .9871 .16025 1014 169.09)" fill="#FFF"/><use xlink:href="#N" transform="matrix(.66995 .74237 -.7426 .6697 1070.7 46.63)" fill="#FFF"/><use xlink:href="#A" transform="matrix(.70698 -.70722 .70698 .70722 1038 483.09)" fill="#FFF"/><use xlink:href="#O" transform="matrix(.57574 -.8176 .8174 .57602 -7.7 367.05)" fill="#FFF"/><use xlink:href="#P" transform="matrix(.51251 -.85865 .85847 .5128 1039 484.84)" fill="#FFF"/><g transform="translate(-10666 -1097)"><use xlink:href="#Q" transform="matrix(.9697 .24416 -.2445 .96962 11689.1 1257.12)" fill="#FFF"/></g><g transform="translate(-10666 -1097)"><use xlink:href="#R" transform="matrix(.9697 .24416 -.2445 .96962 10666.7 1275.85)" fill="#FFF"/></g></g><defs><path id="a" d="M157.758 345.473l-.34-.068L0 277.903v-2l157.69 67.463 212.111-66.945-129.087-73.741-68.62 51.721-141.997-60.013 80.986-106.704 82.412-38.332L26.5 1.903 27.044 0l172.294 48.876-86.964 40.44-79.083 104.256 138.531 58.382 68.688-51.789 134.387 76.8-217.139 68.508z"/><path id="b" d="M241.529 232.961l-1.834-.883 50.548-105.821-178.956-5.641-.34-.272L0 2.5V0l112.17 118.645 181.266 5.641-51.907 108.675z"/><path id="c" d="M106.939 309.986L0 252.08l14.403-95.354 2.039.34L2.31 250.992l104.289 56.411L214.693 183.64 133.572 0l205.52 28.613 2.31-2.854-.815 4.01 33.699 182.28-.544.408-86.692 60.216 50.616-239.03L216.935 183.98 106.939 309.986zM339.5 34.934l-49.393 233.185 81.937-56.954L339.5 34.934zM136.901 2.514l79.083 179.359L337.598 30.448 136.901 2.515z"/><path id="d" d="M60.885 156.26L1.98.621C1.776.078 1.165-.126.62.078.078.28-.126.893.078 1.437l59.108 156.182.204.544 197.979 29.428.34-2.039L60.884 156.26z"/><path id="e" d="M.408 127.297L0 125.326 171.55 87.47 99.126 1.427 100.552 0l75.143 88.626L.408 127.297z"/><path id="f" d="M244.825 0L0 12.314v2.039l246.098-12.81L244.825 0z"/><path id="g" d="M43.543 0L0 2.224l1.316 1.594L41.61 1.596 43.543 0z"/><path id="h" d="M283.083 0L0 5.344v2.039l284.356-5.84L283.083 0z"/><path id="i" d="M33.223 287.082L50.48 36.632 1.63 103.17 0 101.947l50.412-68.644-2.31-1.971 3.261.68 1.699-2.312-.204 2.651 190.37 40.37L411.993 0l1.155 42.138.883-.136-.068.136 109.68-18.53v2.303L412.74 44.381l-46.471 91.208h-.612l-183.168 10.127L33.223 287.082zM52.654 35.274L35.67 281.984l144.918-137.22L52.654 35.274zM243.84 74.76l-59.448 68.848 180.587-9.991 45.316-88.83-166.455 29.973zM55.439 35L181.946 143.27l58.701-68.032-5.911 1.087 5.232-2.243L55.44 35.001zM410.024 3.059L251.857 71.227l159.185-28.681-1.019-39.488z"/><path id="j" d="M190.578 340.236L0 133.618 162.311 0l1.29 1.631L2.989 133.822l189.016 204.987-1.427 1.427z"/><path id="k" d="M2.039 0H0l.155 412.75 1.884-.933V0z"/><path id="l" d="M374.044 218.896l-94.536-165.68-40.56 184.184L184.12 7.136l-57.546 160.328L0 14.409l1.563-1.36 124.263 150.337L184.527 0l54.353 228.292 39.813-180.717 97.185 170.301-1.834 1.02z"/><path id="m" d="M186.614 0H0v2.038h186.614V0z"/><path id="n" d="M387.942 180.106l-112.986-67.557-79.966 40.099-.068-.476L89.954 163.93l-.34-.204L0 99.364 185.139 0l11.617 149.454 78.268-39.216 112.51 67.285 87.44-97.19 1.495 1.36-88.527 98.413zM3.872 99.568l86.625 62.187 104.221-11.69-11.414-146.87L3.873 99.567z"/><path id="o" d="M2.039 0H0v105.519h2.039V0z"/><path id="p" d="M7.136 14.268A7.135 7.135 0 1 0 7.136 0a7.135 7.135 0 1 0 0 14.268z"/><path id="q" d="M7.136 14.268A7.135 7.135 0 1 0 7.136 0a7.135 7.135 0 1 0 0 14.268z"/><path id="r" d="M7.134 14.273a7.135 7.135 0 0 0 7.134-7.137A7.135 7.135 0 1 0 0 7.136a7.135 7.135 0 0 0 7.134 7.137z"/><path id="s" d="M7.135 14.27a7.135 7.135 0 1 0 0-14.27 7.135 7.135 0 0 0 0 14.27z"/><path id="t" d="M7.135 14.27a7.135 7.135 0 1 0 0-14.27 7.135 7.135 0 0 0 0 14.27z"/><path id="u" d="M7.136 14.268A7.135 7.135 0 1 0 7.136 0a7.135 7.135 0 1 0 0 14.268z"/><path id="v" d="M7.134 14.273a7.135 7.135 0 0 0 7.134-7.137A7.135 7.135 0 1 0 0 7.136a7.135 7.135 0 0 0 7.134 7.137z"/><path id="w" d="M7.134 14.273a7.135 7.135 0 0 0 7.134-7.137A7.135 7.135 0 1 0 0 7.136a7.135 7.135 0 0 0 7.134 7.137z"/><path id="x" d="M7.136 14.268A7.135 7.135 0 1 0 7.136 0a7.135 7.135 0 1 0 0 14.268z"/><path id="y" d="M7.135 14.27a7.135 7.135 0 1 0 0-14.27 7.135 7.135 0 0 0 0 14.27z"/><path id="z" d="M7.135 14.27a7.135 7.135 0 1 0 0-14.27 7.135 7.135 0 0 0 0 14.27z"/><path id="A" d="M7.135 14.27a7.135 7.135 0 1 0 0-14.27 7.135 7.135 0 0 0 0 14.27z"/><path id="B" d="M7.134 14.273a7.135 7.135 0 0 0 7.134-7.137A7.135 7.135 0 1 0 0 7.136a7.135 7.135 0 0 0 7.134 7.137z"/><path id="C" d="M7.136 14.268A7.135 7.135 0 1 0 7.136 0a7.135 7.135 0 1 0 0 14.268z"/><path id="D" d="M7.134 14.273a7.135 7.135 0 0 0 7.133-7.137A7.135 7.135 0 1 0 0 7.136a7.135 7.135 0 0 0 7.134 7.137z"/><path id="E" d="M7.136 14.268A7.135 7.135 0 1 0 7.136 0a7.135 7.135 0 1 0 0 14.268z"/><path id="F" d="M7.136 14.268A7.135 7.135 0 1 0 7.136 0a7.135 7.135 0 1 0 0 14.268z"/><path id="G" d="M7.136 14.268A7.135 7.135 0 1 0 7.136 0a7.135 7.135 0 1 0 0 14.268z"/><path id="H" d="M7.136 14.268A7.135 7.135 0 1 0 7.136 0a7.135 7.135 0 1 0 0 14.268z"/><path id="I" d="M7.134 14.273a7.135 7.135 0 0 0 7.134-7.137A7.135 7.135 0 1 0 0 7.136a7.135 7.135 0 0 0 7.134 7.137z"/><path id="J" d="M7.136 14.268A7.135 7.135 0 1 0 7.136 0a7.135 7.135 0 1 0 0 14.268z"/><path id="K" d="M7.134 14.273a7.135 7.135 0 0 0 7.134-7.137A7.135 7.135 0 1 0 0 7.136a7.135 7.135 0 0 0 7.134 7.137z"/><path id="L" d="M7.135 14.27a7.135 7.135 0 1 0 0-14.27 7.135 7.135 0 0 0 0 14.27z"/><path id="M" d="M7.134 14.273a7.135 7.135 0 0 0 7.134-7.137A7.135 7.135 0 1 0 0 7.136a7.135 7.135 0 0 0 7.134 7.137z"/><path id="N" d="M55.732 0L0 .865v2.038l57.589-1.228L55.732 0z"/><path id="O" d="M61.21 0L2.86 7.454 0 9.47l64.86-7.76L61.21 0z"/><path id="P" d="M134.327 0L0 6.075v2.038l131.441-6.39L134.327 0z"/><path id="Q" d="M87.553 0L0 2.452l.489 1.94 87.553-2.453L87.552 0z"/><path id="R" d="M110.309 0L0 2.734l.489 1.94L110.765 1.81 110.309 0z"/></defs></svg>