<svg width="1195" height="583" viewBox="0 0 1195 583" version="1.1" xmlns="http://www.w3.org/2000/svg" xmlns:xlink="http://www.w3.org/1999/xlink"><title>Matrix pattern</title><desc>Created using Figma</desc><g opacity=".2"><use xlink:href="#a" transform="translate(-26.44 106.72)" fill="#FFF"/><use xlink:href="#b" transform="translate(-27 79.175)" fill="#FFF"/><use xlink:href="#c" transform="translate(157.59 223.787)" fill="#FFF"/><use xlink:href="#d" transform="translate(107.21 220.573)" fill="#FFF"/><use xlink:href="#e" transform="translate(293.09 438.623)" fill="#FFF"/><use xlink:href="#f" transform="matrix(.65664 -.75416 .75424 .65656 1040.37 138.928)" fill="#FFF"/><use xlink:href="#g" transform="translate(556.88 137.869)" fill="#FFF"/><use xlink:href="#h" transform="translate(1040.81 31.452)" fill="#FFF"/><use xlink:href="#i" transform="matrix(.44404 -.89598 .89602 .44396 843.04 225.923)" fill="#FFF"/><use xlink:href="#j" transform="translate(770.54 292.25)" fill="#FFF"/><use xlink:href="#k" transform="matrix(.50384 -.86378 .86382 .50376 700.46 547.144)" fill="#FFF"/><use xlink:href="#l" transform="translate(595.16 355.908)" fill="#FFF"/><use xlink:href="#m" transform="matrix(.42674 -.90438 .90442 .42666 204.03 173.332)" fill="#FFF"/><use xlink:href="#n" transform="matrix(.16072 -.987 .987 .16068 192.94 178.083)" fill="#FFF"/><use xlink:href="#o" transform="matrix(.15922 -.9872 .9872 .15918 .7 123.238)" fill="#FFF"/><use xlink:href="#p" transform="translate(1.91 334.448)" fill="#FFF"/><use xlink:href="#q" transform="matrix(.70714 -.70706 .70714 .70706 146.98 521.342)" fill="#FFF"/><use xlink:href="#r" transform="matrix(.70714 -.70706 .70714 .70706 244.75 351.238)" fill="#FFF"/><use xlink:href="#s" transform="rotate(-76.654 483.222 -29.761) skewX(.003)" fill="#FFF"/><use xlink:href="#t" transform="translate(489.37 533.91)" fill="#FFF"/><use xlink:href="#u" transform="translate(590.35 465.127)" fill="#FFF"/><use xlink:href="#v" transform="rotate(-76.654 696.105 -160.27) skewX(.003)" fill="#FFF"/><use xlink:href="#w" transform="matrix(.70714 -.70706 .70714 .70706 814.1 533.893)" fill="#FFF"/><use xlink:href="#x" transform="matrix(.70714 -.70706 .70714 .70706 907.36 487.165)" fill="#FFF"/><use xlink:href="#y" transform="matrix(.70714 -.70706 .70714 .70706 1038.98 564.574)" fill="#FFF"/><use xlink:href="#z" transform="translate(1092.94 344.057)" fill="#FFF"/><use xlink:href="#A" transform="matrix(.22982 -.9732 .9732 .22978 977.73 304.903)" fill="#FFF"/><use xlink:href="#B" transform="translate(803.21 348.781)" fill="#FFF"/><use xlink:href="#C" transform="matrix(.20822 -.9781 .9781 .20818 761.52 317.426)" fill="#FFF"/><use xlink:href="#D" transform="matrix(.22982 -.9732 .9732 .22978 832.99 234.225)" fill="#FFF"/><use xlink:href="#E" transform="rotate(-76.654 420.542 -292.149) skewX(.003)" fill="#FFF"/><use xlink:href="#F" transform="matrix(.18852 -.9821 .9821 .18848 547.01 266.049)" fill="#FFF"/><use xlink:href="#G" transform="translate(308.62 217.942)" fill="#FFF"/><use xlink:href="#H" transform="matrix(.16022 -.9871 .9871 .16018 1034.14 198.132)" fill="#FFF"/><use xlink:href="#I" transform="translate(1032.88 129.461)" fill="#FFF"/><use xlink:href="#J" transform="matrix(.70714 -.70706 .70714 .70706 163.78 406.366)" fill="#FFF"/><use xlink:href="#K" transform="translate(98.41 209.374)" fill="#FFF"/></g><defs><path id="a" d="M185.389 414.618l-.4-.08L0 366.814l.64-2.322 184.669 47.644 250.016-78.872-152.156-86.879-80.882 60.935-167.371-70.704 95.457-125.715 97.139-45.161L0 2.242.64 0 234.4 65.18l-102.504 47.643-93.216 122.832 163.287 68.783 80.963-61.016 158.402 90.482-255.942 80.714z"/><path id="b" d="M284.691 272.969l-2.162-1.041 59.581-124.674-210.936-6.646-.4-.32L0 1.682 1.762 0l130.453 138.286 213.658 6.646-61.182 128.037z"/><path id="c" d="M126.049 365.213L0 296.991l16.977-112.343 2.403.401L2.723 295.71l122.925 66.46 127.411-145.813L157.441 0l242.247 33.71 2.723-3.362-.961 4.724 39.721 214.756-.641.48-102.184 70.945 59.661-281.617-142.306 177.122-129.652 148.455zm274.12-324.056l-58.22 274.731 96.579-67.101-38.359-207.63zM161.365 2.963l93.215 211.312L397.927 35.873 161.365 2.963z"/><path id="d" d="M71.765 184.099L2.334.732c-.24-.64-.961-.88-1.602-.64-.64.24-.88.96-.64 1.6l69.67 184.009.24.64 233.359 34.672.401-2.402-231.997-34.512z"/><path id="e" d="M.48 149.977L0 147.655l202.207-44.601L116.839 1.682 118.521 0l88.571 104.415L.48 149.977z"/><path id="f" d="M218.69 0H0v2.402h218.69V0z"/><path id="g" d="M39.16 338.228L59.5 43.159 1.923 121.551 0 120.109l59.42-80.873-2.722-2.322 3.844.8 2.002-2.722-.24 3.123 224.389 47.563L485.616 0l1.362 49.645 1.041-.16-.08.16L642.416 33.07l.241 2.402-156.16 16.816-54.776 107.458H431l-215.9 11.93L39.16 338.228zm22.903-296.67l-20.02 290.665 170.814-161.668L62.063 41.558zM287.414 88.08l-70.072 81.114L430.2 157.423l53.414-104.655-196.2 35.312zM65.347 41.238l149.112 127.556 69.191-80.153-6.967 1.281 6.166-2.642L65.347 41.238zM483.294 3.603L296.863 83.917l187.632-33.791-1.201-46.523z"/><path id="h" d="M157.601 321.013L0 157.423 191.316 0l1.521 1.922L3.524 157.664l155.759 161.667-1.682 1.682z"/><path id="i" d="M2.402 0H0v485.365h2.402V0z"/><path id="j" d="M461.271 295.79L329.457 62.697l-47.809 216.998L217.022 8.408 149.192 197.3 0 16.975l1.842-1.601 146.47 177.121L217.502 0l64.066 268.965 46.928-212.914L463.433 294.59l-2.162 1.201z"/><path id="k" d="M219.887 0H0v2.402h219.887V0z"/><path id="l" d="M457.267 212.193l-133.176-79.592-94.256 47.243-.08-.561-123.727 13.853-.4-.24L0 117.067 218.223 0l13.694 176.081 92.254-46.203 132.616 79.273L559.852 94.646l1.762 1.602-104.347 115.945zM4.565 117.307l102.104 73.267 122.845-13.773L216.061 3.763 4.565 117.307z"/><path id="m" d="M2.402 0H0v124.365h2.402V0z"/><path id="n" d="M8.408 16.817a8.408 8.408 0 0 0 8.407-8.408A8.408 8.408 0 1 0 0 8.409a8.408 8.408 0 0 0 8.408 8.408z"/><path id="o" d="M8.408 16.817a8.408 8.408 0 0 0 8.407-8.408A8.408 8.408 0 1 0 0 8.409a8.408 8.408 0 0 0 8.408 8.408z"/><path id="p" d="M8.409 16.815A8.408 8.408 0 1 0 8.409 0a8.408 8.408 0 1 0 0 16.815z"/><path id="q" d="M8.408 16.816A8.408 8.408 0 1 0 8.408 0a8.408 8.408 0 0 0 0 16.816z"/><path id="r" d="M8.408 16.816A8.408 8.408 0 1 0 8.408 0a8.408 8.408 0 0 0 0 16.816z"/><path id="s" d="M8.408 16.817a8.408 8.408 0 0 0 8.407-8.408A8.408 8.408 0 1 0 0 8.409a8.408 8.408 0 0 0 8.408 8.408z"/><path id="t" d="M8.409 16.815A8.408 8.408 0 1 0 8.409 0a8.408 8.408 0 1 0 0 16.815z"/><path id="u" d="M8.409 16.815A8.408 8.408 0 1 0 8.409 0a8.408 8.408 0 1 0 0 16.815z"/><path id="v" d="M8.408 16.817a8.408 8.408 0 0 0 8.407-8.408A8.408 8.408 0 1 0 0 8.409a8.408 8.408 0 0 0 8.408 8.408z"/><path id="w" d="M8.408 16.816A8.408 8.408 0 1 0 8.408 0a8.408 8.408 0 0 0 0 16.816z"/><path id="x" d="M8.408 16.816A8.408 8.408 0 1 0 8.408 0a8.408 8.408 0 0 0 0 16.816z"/><path id="y" d="M8.408 16.816A8.408 8.408 0 1 0 8.408 0a8.408 8.408 0 0 0 0 16.816z"/><path id="z" d="M8.409 16.815A8.408 8.408 0 1 0 8.409 0a8.408 8.408 0 1 0 0 16.815z"/><path id="A" d="M8.408 16.817a8.408 8.408 0 0 0 8.407-8.408A8.408 8.408 0 1 0 0 8.409a8.408 8.408 0 0 0 8.408 8.408z"/><path id="B" d="M8.409 16.815A8.408 8.408 0 1 0 8.409 0a8.408 8.408 0 1 0 0 16.815z"/><path id="C" d="M8.408 16.817a8.408 8.408 0 0 0 8.407-8.408A8.408 8.408 0 1 0 0 8.409a8.408 8.408 0 0 0 8.408 8.408z"/><path id="D" d="M8.408 16.817a8.408 8.408 0 0 0 8.407-8.408A8.408 8.408 0 1 0 0 8.409a8.408 8.408 0 0 0 8.408 8.408z"/><path id="E" d="M8.408 16.817a8.408 8.408 0 0 0 8.407-8.408A8.408 8.408 0 1 0 0 8.409a8.408 8.408 0 0 0 8.408 8.408z"/><path id="F" d="M8.408 16.817a8.408 8.408 0 0 0 8.407-8.408A8.408 8.408 0 1 0 0 8.409a8.408 8.408 0 0 0 8.408 8.408z"/><path id="G" d="M8.409 16.815A8.408 8.408 0 1 0 8.409 0a8.408 8.408 0 1 0 0 16.815z"/><path id="H" d="M8.408 16.817a8.408 8.408 0 0 0 8.407-8.408A8.408 8.408 0 1 0 0 8.409a8.408 8.408 0 0 0 8.408 8.408z"/><path id="I" d="M8.409 16.815A8.408 8.408 0 1 0 8.409 0a8.408 8.408 0 1 0 0 16.815z"/><path id="J" d="M8.408 16.816A8.408 8.408 0 1 0 8.408 0a8.408 8.408 0 0 0 0 16.816z"/><path id="K" d="M8.409 16.815A8.408 8.408 0 1 0 8.409 0a8.408 8.408 0 1 0 0 16.815z"/></defs></svg>