<svg width="232" height="231" viewBox="0 0 232 231" version="1.1" xmlns="http://www.w3.org/2000/svg" xmlns:xlink="http://www.w3.org/1999/xlink"><title>meg</title><desc>Created using Figma</desc><use xlink:href="#a" fill="#FFF"/><g transform="translate(66 109)"><use xlink:href="#b" fill="#FFF"/><use xlink:href="#c" fill="#333"/></g><g transform="translate(50.66 40.18)"><use xlink:href="#d" fill="#FFF"/><use xlink:href="#e" fill="#333"/></g><g transform="translate(65.9 109.04)"><use xlink:href="#f" fill="#FFF"/><use xlink:href="#g" fill="#333"/></g><g transform="translate(-9889 -3612)"><use xlink:href="#h" transform="translate(9973.6 3674.34)" fill="#FFF"/><mask id="i"><use xlink:href="#h" fill="#fff" transform="translate(9973.6 3674.34)"/></mask><use xlink:href="#j" transform="translate(9973.6 3674.34)" fill="#333" mask="url(#i)"/></g><g transform="translate(84.6 62.34)"><use xlink:href="#h" fill="#FFF"/><use xlink:href="#k" fill="#333"/></g><g transform="translate(133.3 102.64)"><use xlink:href="#l" fill="#FFF"/><use xlink:href="#m" fill="#333"/></g><g transform="translate(114.7 88.44)"><use xlink:href="#n" fill="#FFF"/><use xlink:href="#o" fill="#333"/></g><use xlink:href="#p" transform="translate(104.8 88.24)" fill="#333"/><g transform="translate(154 88.44)"><use xlink:href="#q" fill="#FFF"/><use xlink:href="#r" fill="#333"/></g><g transform="translate(103.8 78.64)"><use xlink:href="#s" fill="#FFF"/><use xlink:href="#t" fill="#333"/></g><g transform="translate(144.9 78.54)"><use xlink:href="#u" fill="#FFF"/><use xlink:href="#v" fill="#333"/></g><use xlink:href="#w" transform="translate(148 88.24)" fill="#333"/><g transform="translate(118.7 127.64)"><use xlink:href="#x" fill="#FFF"/><use xlink:href="#y" fill="#333"/></g><g transform="translate(123.6 127.64)"><use xlink:href="#z" fill="#FFF"/><use xlink:href="#A" fill="#333"/></g><g transform="translate(65.8 185.54)"><use xlink:href="#B" fill="#BDBDBD"/><use xlink:href="#C" fill="#333"/></g><g transform="translate(43.2 23.14)"><use xlink:href="#D" fill="#E0E0E0"/><use xlink:href="#E" fill="#333"/></g><g transform="translate(67.56 10)"><use xlink:href="#F" fill="#FFF"/><use xlink:href="#G" fill="#333"/></g><g transform="translate(50.66 40.21)"><use xlink:href="#H" fill="#FFF"/><use xlink:href="#I" fill="#333"/></g><use xlink:href="#J" transform="translate(107.8 15.14)" fill="#333"/><use xlink:href="#K" transform="translate(73.6 16.44)" fill="#333"/><g><g transform="translate(64.3 73.04)"><use xlink:href="#L" fill="#FFF"/><use xlink:href="#M" fill="#333"/></g><use xlink:href="#N" transform="translate(64.3 95.64)" fill="#333"/><g transform="translate(70.2 201.54)"><use xlink:href="#O" fill="#FFF"/><use xlink:href="#P" fill="#333"/></g><use xlink:href="#Q" transform="translate(81.6 76.74)" fill="#333"/><g transform="translate(98.1 70.14)"><use xlink:href="#R" fill="#FFF"/><use xlink:href="#S" fill="#333"/></g><use xlink:href="#T" transform="translate(104 59.44)" fill="#333"/></g><defs><path id="a" d="M231.045 115.5c0 63.789-51.721 115.5-115.522 115.5C51.721 231 0 179.289 0 115.5S51.721 0 115.523 0c63.801 0 115.522 51.711 115.522 115.5z"/><path id="b" d="M91.6 76.5c-7.3 0-13.2-6-13.2-13.3V0H29.8v63.2c0 7.3-5.9 13.2-13.2 13.2H0s3 26.9 57.7 26.9c47.4 0 48.3-26.9 48.3-26.9H91.6v.1z"/><path id="c" d="M91.6 76.5V78a1.5 1.5 0 0 0 1.5-1.5h-1.5zM78.4 0h1.5a1.5 1.5 0 0 0-1.5-1.5V0zM29.8 0v-1.5A1.5 1.5 0 0 0 28.3 0h1.5zM0 76.4v-1.5a1.5 1.5 0 0 0-1.49 1.666L0 76.4zm106 0l1.499.05A1.497 1.497 0 0 0 106 74.9v1.5zm-14.4 0v-1.5a1.5 1.5 0 0 0-1.5 1.5h1.5zm0-1.4c-6.457 0-11.7-5.314-11.7-11.8h-3c0 8.114 6.557 14.8 14.7 14.8v-3zM79.9 63.2V0h-3v63.2h3zM78.4-1.5H29.8v3h48.6v-3zM28.3 0v63.2h3V0h-3zm0 63.2c0 6.472-5.228 11.7-11.7 11.7v3c8.128 0 14.7-6.572 14.7-14.7h-3zM16.6 74.9H0v3h16.6v-3zM0 76.4c-1.49.166-1.49.168-1.49.17v.003a3.783 3.783 0 0 0 .016.118c.008.06.024.16.045.276.038.214.109.558.212.962.2.774.57 1.947 1.173 3.29 1.18 2.61 3.44 6.235 7.387 9.754C15.288 98.014 30.113 104.8 57.7 104.8v-3c-27.113 0-41.138-6.665-48.368-13.072-3.641-3.207-5.548-6.308-6.64-8.74a16.813 16.813 0 0 1-1.003-2.805 9.794 9.794 0 0 1-.199-.954v-.002.004c0 .001 0 .003-1.49.169zm57.7 28.4c23.987 0 36.519-6.815 43.032-13.938 3.213-3.538 4.955-7.181 5.812-9.792.436-1.34.683-2.507.806-3.278.064-.401.102-.74.122-.952.01-.114.017-.212.021-.27l.004-.08.002-.025v-.008-.004c0-.002 0-.003-1.499-.053-1.499-.05-1.499-.051-1.499-.052v-.002-.002.004l-.002.037-.014.18c-.017.18-.044.42-.098.755-.111.7-.305 1.635-.694 2.817-.793 2.433-2.238 5.514-5.175 8.7C92.731 95.166 81.113 101.8 57.7 101.8v3zM106 74.9H91.6v3H106v-3zm-15.9 1.5v.1h3v-.1h-3z"/><path id="d" d="M129.137 23.556c1.2 15.5-26.7 30.3-62.4 33-35.7 2.8-65.5-7.6-66.7-23.1-1.2-15.5 26.7-30.3 62.4-33 35.6-2.8 65.5 7.6 66.7 23.1z"/><path id="e" d="M66.737 56.556l-.113-1.496h-.004l.117 1.496zm-4.3-56.1l.113 1.495h.005L62.437.456zm65.205 23.215c.261 3.378-1.047 6.836-3.881 10.24-2.887 3.484-7.148 6.691-12.688 9.619-11.139 5.906-26.742 10.198-44.449 11.53l.226 2.991c17.994-1.367 34.19-5.826 45.627-11.87 5.747-3.047 10.467-6.615 13.59-10.35 3.175-3.814 4.904-8.019 4.566-12.391l-2.991.231zM66.62 55.061c-17.705 1.395-33.773-.468-45.678-4.61-5.92-2.05-10.619-4.573-14.004-7.577-3.32-2.935-5.144-6.156-5.405-9.534l-2.991.231c.338 4.372 2.69 8.264 6.41 11.55 3.656 3.218 8.863 6.027 15.006 8.164 12.22 4.233 28.901 6.17 46.897 4.766l-.235-2.99zM1.533 33.34c-.262-3.378 1.046-6.836 3.88-10.24 2.887-3.484 7.148-6.691 12.689-9.619C29.24 7.575 44.844 3.283 62.55 1.951l-.226-2.991C44.331.328 28.134 4.786 16.698 10.83c-5.747 3.047-10.468 6.615-13.59 10.35-3.175 3.815-4.905 8.019-4.566 12.391l2.99-.231zM62.555 1.95c17.655-1.396 33.723.467 45.641 4.61 5.926 2.05 10.635 4.573 14.027 7.578 3.329 2.935 5.157 6.155 5.419 9.532l2.991-.231c-.339-4.373-2.698-8.265-6.426-11.552-3.663-3.217-8.88-6.025-15.028-8.162-12.233-4.233-28.914-6.17-46.86-4.766l.236 2.991z"/><path id="f" d="M91.6 76.5c-7.3 0-13.2-6-13.2-13.3V0H29.8v63.2c0 7.3-5.9 13.2-13.2 13.2H0s3 26.9 57.7 26.9c47.4 0 48.3-26.9 48.3-26.9H91.6v.1z"/><path id="g" d="M91.6 76.5V78a1.5 1.5 0 0 0 1.5-1.5h-1.5zM78.4 0h1.5a1.5 1.5 0 0 0-1.5-1.5V0zM29.8 0v-1.5A1.5 1.5 0 0 0 28.3 0h1.5zM0 76.4v-1.5a1.5 1.5 0 0 0-1.49 1.666L0 76.4zm106 0l1.499.05A1.497 1.497 0 0 0 106 74.9v1.5zm-14.4 0v-1.5a1.5 1.5 0 0 0-1.5 1.5h1.5zm0-1.4c-6.457 0-11.7-5.314-11.7-11.8h-3c0 8.114 6.557 14.8 14.7 14.8v-3zM79.9 63.2V0h-3v63.2h3zM78.4-1.5H29.8v3h48.6v-3zM28.3 0v63.2h3V0h-3zm0 63.2c0 6.472-5.228 11.7-11.7 11.7v3c8.128 0 14.7-6.572 14.7-14.7h-3zM16.6 74.9H0v3h16.6v-3zM0 76.4c-1.49.166-1.49.168-1.49.17v.003l.001.01a3.51 3.51 0 0 0 .015.108c.008.06.024.16.045.276.038.214.109.558.212.962.2.774.57 1.947 1.173 3.29 1.18 2.61 3.44 6.235 7.387 9.754C15.288 98.014 30.113 104.8 57.7 104.8v-3c-27.113 0-41.138-6.665-48.368-13.072-3.641-3.207-5.548-6.308-6.64-8.74a16.813 16.813 0 0 1-1.003-2.805 9.784 9.784 0 0 1-.199-.954v-.002.004c0 .001 0 .003-1.49.169zm57.7 28.4c23.987 0 36.519-6.815 43.032-13.938 3.213-3.538 4.955-7.181 5.812-9.792.436-1.34.683-2.507.806-3.278.064-.401.102-.74.122-.952.01-.114.017-.212.021-.27l.004-.08.002-.025v-.008-.004c0-.002 0-.003-1.499-.053-1.499-.05-1.499-.051-1.499-.052v-.002-.002.004l-.002.037-.014.18c-.017.18-.044.42-.098.755-.111.7-.305 1.635-.694 2.817-.793 2.433-2.238 5.514-5.175 8.7C92.731 95.166 81.113 101.8 57.7 101.8v3zM106 74.9H91.6v3H106v-3zm-15.9 1.5v.1h3v-.1h-3z"/><path id="h" d="M0 0v41.1c0 21.9 13.5 56 50.3 56 9.6 0 28.8-20.1 28.8-48.8V0H0z"/><path id="j" d="M0 0v-1h-1v1h1zm79.1 0h1v-1h-1v1zM-1 0v41.1h2V0h-2zm0 41.1c.007 11.068 3.465 25.364 11.534 36.79C18.674 89.386 31.539 98.1 50.3 98.1v-2c-18.039 0-30.324-8.336-38.134-19.365C4.286 65.636.993 51.932 1 41.1h-2zm51.3 57c2.711 0 5.922-1.398 9.145-3.785 3.214-2.385 6.627-5.91 9.676-10.28C75.18 75.321 80.083 62.835 80.1 48.3h-2c.018 14.164-4.681 26.078-10.62 34.59-2.952 4.243-6.14 7.536-9.225 9.817-3.077 2.279-5.866 3.393-7.955 3.393v2zm29.8-49.8V0h-2v48.3h2zM79.1-1H0v2h79.1v-2z"/><path id="k" d="M0 0v-1.5h-1.5V0H0zm79.1 0h1.5v-1.5h-1.5V0zM-1.5 0v41.1h3V0h-3zm0 41.1c.01 11.127 3.51 25.57 11.626 37.08C18.349 89.791 31.358 98.6 50.3 98.6v-3c-17.858 0-29.998-8.242-37.726-19.154C4.741 65.43 1.49 51.873 1.5 41.1h-3zm51.8 57.5c2.867 0 6.183-1.47 9.443-3.884 3.246-2.41 6.715-5.994 9.788-10.396C75.622 75.558 80.574 62.93 80.6 48.3h-3c.026 14.07-4.622 25.842-10.53 34.305-2.928 4.21-6.059 7.445-9.113 9.7-3.04 2.252-5.724 3.295-7.657 3.295v3zm30.3-50.3V0h-3v48.3h3zM79.1-1.5H0v3h79.1v-3z"/><path id="l" d="M0 10.4h6.3c2.9 0 5.2-2.3 5.2-5.2C11.5 2.3 9.2 0 6.3 0"/><path id="m" d="M0 8.9a1.5 1.5 0 1 0 0 3v-3zM6.3-1.5a1.5 1.5 0 1 0 0 3v-3zM0 11.9h6.3v-3H0v3zm6.3 0c3.728 0 6.7-2.972 6.7-6.7h-3c0 2.072-1.628 3.7-3.7 3.7v3zM13 5.2c0-3.728-2.972-6.7-6.7-6.7v3c2.072 0 3.7 1.628 3.7 3.7h3z"/><path id="n" d="M5.4 2.7c0 1.5-1.2 2.7-2.7 2.7C1.2 5.4 0 4.2 0 2.7 0 1.2 1.2 0 2.7 0c1.5 0 2.7 1.2 2.7 2.7z"/><path id="o" d="M2.7 0v-1.25V0zm1.45 2.7c0 .81-.64 1.45-1.45 1.45v2.5c2.19 0 3.95-1.76 3.95-3.95h-2.5zM2.7 4.15c-.81 0-1.45-.64-1.45-1.45h-2.5c0 2.19 1.76 3.95 3.95 3.95v-2.5zM1.25 2.7c0-.81.64-1.45 1.45-1.45v-2.5C.51-1.25-1.25.51-1.25 2.7h2.5zM2.7 1.25c.81 0 1.45.64 1.45 1.45h2.5c0-2.19-1.76-3.95-3.95-3.95v2.5z"/><path id="p" d="M0-1.5a1.5 1.5 0 1 0 0 3v-3zm21.9 3a1.5 1.5 0 0 0 0-3v3zM0 1.5h21.9v-3H0v3z"/><path id="q" d="M5.4 2.7c0 1.5-1.2 2.7-2.7 2.7C1.2 5.4 0 4.2 0 2.7 0 1.2 1.2 0 2.7 0c1.5 0 2.7 1.2 2.7 2.7z"/><path id="r" d="M2.7 0v-1.25V0zm1.45 2.7c0 .81-.64 1.45-1.45 1.45v2.5c2.19 0 3.95-1.76 3.95-3.95h-2.5zM2.7 4.15c-.81 0-1.45-.64-1.45-1.45h-2.5c0 2.19 1.76 3.95 3.95 3.95v-2.5zM1.25 2.7c0-.81.64-1.45 1.45-1.45v-2.5C.51-1.25-1.25.51-1.25 2.7h2.5zM2.7 1.25c.81 0 1.45.64 1.45 1.45h2.5c0-2.19-1.76-3.95-3.95-3.95v2.5z"/><path id="s" d="M24 4.2S19.2 0 12 0C4.7 0 0 4.2 0 4.2"/><path id="t" d="M23.012 5.329a1.5 1.5 0 0 0 1.976-2.258L23.012 5.33zM-1 3.082a1.5 1.5 0 0 0 2 2.236l-2-2.236zM24 4.2c.988-1.129.987-1.13.987-1.13h-.001l-.002-.002-.006-.006a1.41 1.41 0 0 0-.073-.061 16.087 16.087 0 0 0-.907-.686A21.654 21.654 0 0 0 21.37.758C19.184-.332 15.85-1.479 12-1.5v3c3.349-.021 6.016.932 8.03 1.942a17.28 17.28 0 0 1 2.247 1.33 11.761 11.761 0 0 1 .735.556l.003.004V5.33h-.001l-.001-.001L24 4.2zM12-1.5C8.099-1.479 4.764-.33 2.588.76A20.98 20.98 0 0 0-.02 2.32a15.502 15.502 0 0 0-.897.69 6.451 6.451 0 0 0-.072.062l-.006.006-.003.002C-1 3.082-1 3.083 0 4.2a209.011 209.011 0 0 1 .998 1.12H.997v.002c-.002 0 0-.001.002-.003l.027-.023.13-.108c.132-.106.308-.242.56-.421a16.6 16.6 0 0 1 2.22-1.327c2-1.01 4.665-1.961 8.064-1.94v-3z"/><path id="u" d="M18.9 4.6V2.1C17 1 14.3 0 11.1 0 4.4 0 0 4.6 0 4.6"/><path id="v" d="M17.4 4.6a1.5 1.5 0 0 0 3 0h-3zm1.5-2.5h1.5a1.5 1.5 0 0 0-.748-1.298L18.9 2.1zM-1.084 3.563a1.5 1.5 0 1 0 2.168 2.074l-2.168-2.074zM20.4 4.6V2.1h-3v2.5h3zM19.652.802C17.639-.358 14.565-1.476 11.1-1.5v3c2.935-.024 5.261.857 7.048 1.898L19.652.802zM11.1-1.5c-3.643.029-6.797 1.309-8.828 2.51a19.623 19.623 0 0 0-2.44 1.72 15.242 15.242 0 0 0-.839.755 6.668 6.668 0 0 0-.068.068l-.005.006a.72.72 0 0 0-.003.003S-1.084 3.563 0 4.6a212.826 212.826 0 0 1 1.083 1.038l-.001.001-.001.001.003-.003.025-.025c.03-.03.065-.065.122-.118.123-.116.287-.265.522-.46.49-.41 1.153-.914 2.05-1.444C5.647 2.49 8.043 1.47 11.1 1.5v-3z"/><path id="w" d="M0-1.5a1.5 1.5 0 1 0 0 3v-3zm15.8 3a1.5 1.5 0 0 0 0-3v3zM0 1.5h15.8v-3H0v3z"/><path id="x" d="M0 0h30.9"/><path id="y" d="M0-1.5a1.5 1.5 0 1 0 0 3v-3zm30.9 3a1.5 1.5 0 0 0 0-3v3zM0 1.5h15.9v-3H0v3zm15.9 0h15v-3h-15v3z"/><path id="z" d="M0 0h22s-2.3 7.6-9.4 7.6C5.5 7.5 0 0 0 0z"/><path id="A" d="M0 0v-1.5A1.5 1.5 0 0 0-1.21.887L0 0zm22 0l1.436.434A1.5 1.5 0 0 0 22-1.5V0zm-9.4 7.6l-.021 1.5h.021V7.6zM0 1.5h22v-3H0v3zM22 0c-1.436-.434-1.436-.435-1.435-.436v-.002l-.001.006a10.223 10.223 0 0 1-.398.995c-.306.67-.732 1.472-1.392 2.322C17.488 4.555 15.534 6.1 12.6 6.1v3c4.167 0 6.912-2.255 8.551-4.385a15.88 15.88 0 0 0 1.742-2.903c.18-.392.319-.742.401-.966a10.332 10.332 0 0 0 .129-.37L23.43.45a.481.481 0 0 0 .003-.01V.438l.001-.001S23.435.434 22 0zm-9.379 6.1c-3.043-.043-5.864-1.688-8.023-3.49A23.155 23.155 0 0 1 1.255-.826a5.589 5.589 0 0 1-.038-.05l-.008-.01V-.89v.001L0 0c-1.21.887-1.21.887-1.209.888l.003.003a5.906 5.906 0 0 0 .078.104A23.873 23.873 0 0 0-.151 2.17a27.548 27.548 0 0 0 2.828 2.744C5.043 6.888 8.522 9.043 12.579 9.1l.042-3z"/><path id="B" d="M91.6 0s.4 13.5-33.9 13.5S16.6 0 16.6 0H0s2 26.9 56.7 26.9C104.1 26.9 106 0 106 0H91.6z"/><path id="C" d="M91.6 0v-1.5A1.5 1.5 0 0 0 90.1.044L91.6 0zm-75 0l1.34-.675A1.5 1.5 0 0 0 16.6-1.5V0zM0 0v-1.5A1.5 1.5 0 0 0-1.496.111L0 0zm106 0l1.496.106A1.496 1.496 0 0 0 106-1.5V0zM91.6 0c-1.5.044-1.5.043-1.5.04V.039.032.024.022l-.002.047c-.004.076-.01.15-.03.286a5.014 5.014 0 0 1-.337 1.205c-.404 1.026-1.271 2.5-3.16 4.022C82.768 8.647 74.698 12 57.7 12v3c17.302 0 26.182-3.397 30.754-7.082 2.299-1.853 3.476-3.754 4.068-5.259a9.363 9.363 0 0 0 .511-1.854 4.958 4.958 0 0 0 .067-.81v-.022-.01-.004c0-.002 0-.003-1.5.041zM57.7 12c-16.955 0-26.962-3.336-32.676-6.557C22.161 3.84 20.418 2.3 19.298 1.09a11.361 11.361 0 0 1-1.101-1.358 5.315 5.315 0 0 1-.263-.418l.002.003a.11.11 0 0 0 .002.006c.001 0 .002.002-1.338.677s-1.339.676-1.338.678l.001.003.004.007.01.018a5.57 5.57 0 0 0 .115.206c.067.114.184.302.33.516.273.398.74 1.013 1.377 1.701 1.227 1.32 3.327 3.157 6.452 4.928C29.812 11.587 40.355 15 57.7 15v-3zM16.6-1.5H0v3h16.6v-3zM0 0c-1.496.111-1.496.113-1.496.114v.004l.001.01a5.059 5.059 0 0 0 .046.385c.03.215.088.56.177.965.17.775.5 1.952 1.053 3.298C.865 7.391 3 11.029 6.824 14.556 14.527 21.616 29.116 28.4 56.7 28.4v-3c-27.116 0-40.877-6.666-47.849-13.056C5.337 9.146 3.554 6.06 2.553 3.63A16.192 16.192 0 0 1 1.658.834a9.536 9.536 0 0 1-.162-.95v-.002.004c0 .001 0 .003-1.496.114zm56.7 28.4c23.99 0 36.755-6.816 43.512-13.916 3.337-3.53 5.207-7.16 6.16-9.767.485-1.338.774-2.501.926-3.272.078-.4.129-.738.157-.95l.031-.27.007-.079a.342.342 0 0 0 .002-.025l.001-.009V.11c0-.002 0-.003-1.496-.109s-1.496-.107-1.496-.108V-.11-.11v.004l-.004.036a11.005 11.005 0 0 1-.146.937 18.36 18.36 0 0 1-.801 2.824c-.884 2.436-2.452 5.53-5.515 8.726C91.995 18.766 80.11 25.4 56.7 25.4v3zM106-1.5H91.6v3H106v-3z"/><path id="D" d="M81 0C27 0 15.8 39.6 15.8 72.6V142c0 24-15.8 21.7-15.8 21.7s.2 20 28.5 20c23.7 0 23.9-18.3 23.9-35.1V62.1c0-6.3 5.1-11.4 11.4-11.4h25.1c6.2 0 11.3-5 11.4-11.1h.3c.2 6.1 5.2 11.1 11.4 11.1h8.5v36.7c0 20.9-10.2 37.3-19.5 44.6v17.1c0 7.3 5.9 13.2 13.2 13.2h10.4l.9-.3c.1.2 29.9-162-44.5-162z"/><path id="E" d="M0 163.7l.216-1.484a1.5 1.5 0 0 0-1.716 1.499L0 163.7zM100.3 39.6v-1.5a1.5 1.5 0 0 0-1.5 1.475l1.5.025zm.3 0l1.499-.05a1.5 1.5 0 0 0-1.499-1.45v1.5zm19.9 11.1h1.5a1.5 1.5 0 0 0-1.5-1.5v1.5zM101 132l-.926-1.18A1.499 1.499 0 0 0 99.5 132h1.5zm23.6 30.3v1.5c.161 0 .321-.026.474-.077l-.474-1.423zm.9-.3l1.342-.671a1.5 1.5 0 0 0-1.816-.752L125.5 162zM81-1.5c-27.423 0-44.221 10.088-54.09 24.58C17.112 37.47 14.3 55.978 14.3 72.6h3c0-16.377 2.788-34.17 12.09-47.83C38.62 11.211 54.423 1.5 81 1.5v-3zM14.3 72.6V142h3V72.6h-3zm0 69.4c0 11.653-3.81 16.5-7.185 18.572-1.76 1.103-3.417 1.474-4.807 1.621a10.467 10.467 0 0 1-1.989.034l-.093-.01-.016-.002h.004c.001 0 .002.001-.214 1.485a90.027 90.027 0 0 0-.214 1.485h.003l.007.001.017.002.052.007.17.018c.13.012.343.029.588.038.465.017 1.19.011 2.006-.075 1.573-.172 3.867-.726 6.056-2.048C13.21 160.35 17.3 154.347 17.3 142h-3zM0 163.7c-1.5.015-1.5.016-1.5.017v.003a1.819 1.819 0 0 1 0 .026 5.69 5.69 0 0 0 .012.264c.009.159.028.414.061.715.064.576.199 1.454.444 2.458a22.235 22.235 0 0 0 3.402 7.391C6.333 180.03 13.949 185.2 28.5 185.2v-3c-13.75 0-20.383-4.83-23.644-9.374a17.895 17.895 0 0 1-2.926-6.359 15.647 15.647 0 0 1-.375-2.073 9.824 9.824 0 0 1-.054-.686l-.001-.025v-.003.003c0 .001 0 .002-1.5.017zm28.5 21.5c6.113 0 10.852-1.18 14.495-3.33 3.573-2.137 6.116-5.3 7.71-8.803 3.171-7.027 3.195-16.158 3.195-24.467h-3c0 8.491-.076 16.91-2.93 23.233-1.418 3.172-3.369 5.634-6.5 7.453-3.06 1.806-7.233 2.914-12.97 2.914v3zm25.4-36.6v-25.55-12.053-3.722-1.019-.265-.068-.017-.005-.001h-3v42.7h3zm0-42.7V62.1h-3v43.8h3zm0-43.8c0-5.472 4.428-9.9 9.9-9.9v-3c-7.128 0-12.9 5.772-12.9 12.9h3zm9.9-9.9h25.1v-3H63.8v3zm25.1 0c7.007 0 12.786-5.645 12.9-12.575l-3-.05c-.086 5.27-4.507 9.625-9.9 9.625v3zm11.4-11.1h.3v-3h-.3v3zm-1.2-1.45c.227 6.888 5.871 12.55 12.9 12.55v-3c-5.371 0-9.727-4.338-9.901-9.65l-2.998.1zM112 52.2h8.5v-3H112v3zm7-1.5v36.7h3V50.7h-3zm0 36.7c0 20.438-9.988 36.404-18.926 43.42l1.852 2.36C111.588 125.596 122 108.762 122 87.4h-3zM99.5 132v17.1h3V132h-3zm0 17.1c0 8.128 6.572 14.7 14.7 14.7v-3c-6.472 0-11.7-5.228-11.7-11.7h-3zm14.7 14.7h10.4v-3h-10.4v3zm10.874-.077l.9-.3-.948-2.846-.9.3.948 2.846zm-.916-1.052c.994.788 2.493.292 2.686-.004a2.64 2.64 0 0 0 .091-.228c.011-.036.025-.09.031-.114l.029-.128a103.517 103.517 0 0 0 .317-1.725c.206-1.183.498-2.93.839-5.148a422.278 422.278 0 0 0 2.392-18.39c1.648-15.207 3.063-35.578 2.143-55.927-.922-20.333-4.182-40.855-11.992-56.342C112.84 9.091 100.303-1.5 81-1.5v3c17.897 0 29.535 9.684 37.015 24.516 7.525 14.92 10.759 34.935 11.674 55.127.917 20.176-.486 40.318-2.129 55.467a418.202 418.202 0 0 1-2.374 18.258 254.035 254.035 0 0 1-.83 5.088 89.485 89.485 0 0 1-.237 1.318l-.062.313-.008.038.021-.074c.01-.033.053-.144.088-.22.193-.294 1.691-.79 2.684-.002l-2.684 1.342z"/><path id="F" d="M.14 51.54c-2-26.3 17.7-49.4 44-51.4s49.4 17.7 51.4 44l-95.4 7.4z"/><path id="G" d="M.14 51.54l-1.496.114a1.5 1.5 0 0 0 1.612 1.381L.14 51.54zm95.4-7.4l.116 1.495a1.5 1.5 0 0 0 1.38-1.609l-1.496.114zM1.635 51.426c-1.937-25.48 17.15-47.854 42.619-49.79l-.228-2.992C16.894.707-3.418 24.534-1.356 51.654l2.991-.228zm42.619-49.79c25.48-1.938 47.853 17.15 49.79 42.617l2.991-.227C94.972 16.894 71.146-3.418 44.026-1.356l.227 2.991zm51.17 41.008l-95.4 7.4.232 2.991 95.4-7.4-.232-2.99z"/><path id="H" d="M65.937 18.23c27.2-2.1 51.1 3.5 61.3 13.1 1.4-2.5 2.1-5.2 1.9-7.8-1.2-15.5-31.1-25.8-66.7-23.1-35.7 2.7-63.6 17.5-62.4 33 .3 3.7 2.2 7 5.4 10 6.7-12.4 30.9-22.9 60.5-25.2z"/><path id="I" d="M65.937 18.23l-.115-1.496.115 1.496zm61.3 13.1l-1.028 1.092a1.5 1.5 0 0 0 2.337-.36l-1.309-.732zm1.9-7.8l1.496-.115v-.001l-1.496.116zM62.437.43l.113 1.495L62.438.43zm-62.4 33l-1.495.115v.006l1.495-.121zm5.4 10l-1.026 1.094a1.5 1.5 0 0 0 2.346-.381l-1.32-.713zm60.616-23.705c13.49-1.045 26.047-.185 36.588 2.132 10.528 2.311 18.75 6.03 23.568 10.565l2.056-2.185c-5.382-5.065-14.209-8.946-24.981-11.31-10.76-2.357-23.753-3.247-37.462-2.193l.23 2.991zm62.493 12.338c1.483-2.674 2.285-5.8 2.087-8.648l-2.991.23c.201 2.352-.397 4.625-1.713 6.952l2.617 1.466zm2.087-8.649c-.339-4.374-2.699-8.26-6.427-11.539-3.664-3.209-8.88-6.007-15.029-8.138-12.231-4.22-28.91-6.157-46.853-4.803l.227 2.991c17.656-1.346 33.728.517 45.646 4.647 5.927 2.045 10.635 4.559 14.028 7.556 3.328 2.927 5.155 6.141 5.417 9.517l2.991-.231zM62.324-1.066C44.331.302 28.134 4.76 16.698 10.804c-5.747 3.048-10.468 6.615-13.59 10.35-3.175 3.815-4.905 8.019-4.566 12.391l2.99-.231c-.26-3.377 1.047-6.836 3.882-10.24 2.886-3.484 7.147-6.691 12.688-9.619C29.24 7.55 44.844 3.259 62.55 1.926l-.226-2.991zM-1.458 33.551c.339 4.176 2.486 7.8 5.87 10.973l2.051-2.189c-3.016-2.827-4.67-5.803-4.93-9.026l-2.99.242zm8.215 10.592c3.107-5.75 10.45-11.303 20.925-15.719 10.472-4.419 23.688-7.562 38.371-8.699l-.232-2.99c-14.916 1.163-28.6 4.42-39.304 8.925-10.699 4.51-18.806 10.407-22.4 17.057l2.64 1.426z"/><path id="J" d="M-.245-.626a1.25 1.25 0 1 0 .49 2.452l-.49-2.452zm4.828 1.873a1.25 1.25 0 1 0-.166-2.494l.166 2.494zm-4.338.579c1.46-.293 2.88-.482 4.338-.579l-.166-2.494a36.493 36.493 0 0 0-4.662.621l.49 2.452z"/><path id="K" d="M-1.226 32.455a1.25 1.25 0 1 0 2.452.49l-2.452-.49zM9.4 13.6l.942.822.003-.004L9.4 13.6zM31.234 1.205a1.25 1.25 0 1 0-.668-2.41l.668 2.41zM1.226 32.945C2.585 26.1 5.642 19.79 10.342 14.422l-1.884-1.644a43.165 43.165 0 0 0-9.684 19.677l2.452.49zm9.12-18.527C16.011 7.851 23.101 3.445 31.233 1.205l-.668-2.41A45.396 45.396 0 0 0 8.455 12.782l1.89 1.636z"/><path id="L" d="M0 22.6C0 14.3.7 6.8 2.1 0z"/><path id="M" d="M-1.5 22.6a1.5 1.5 0 0 0 3 0h-3zM3.57.302A1.5 1.5 0 1 0 .63-.302l2.94.604zM1.5 22.6C1.498 14.37 2.184 7.021 3.57.302L.63-.302C-.783 6.578-1.497 14.23-1.5 22.6h3z"/><path id="N" d="M-1.25 58.4a1.25 1.25 0 1 0 2.5 0h-2.5zM1.25 0a1.25 1.25 0 1 0-2.5 0h2.5zm0 58.4V0h-2.5v58.4h2.5z"/><path id="O" d="M6 0C4.7.2 3.3.2 1.7.2H0"/><path id="P" d="M6.19 1.235a1.25 1.25 0 1 0-.38-2.47l.38 2.47zM0-1.05a1.25 1.25 0 1 0 0 2.5v-2.5zm5.81-.185c-1.205.189-2.51.185-4.11.185v2.5c1.6 0 3.095-.004 4.49-.215l-.38-2.47zM1.7-1.05H0v2.5h1.7v-2.5z"/><path id="Q" d="M12.772.643a1.25 1.25 0 1 0-2.144-1.286L12.772.643zM-.491 122.35a1.25 1.25 0 0 0 .982 2.3l-.982-2.3zM10.63-.643A18.358 18.358 0 0 0 8.05 8.6h2.5c-.014-3.013.791-5.59 2.222-7.957L10.628-.643zM8.05 8.6v43.7h2.5V8.6h-2.5zM9.3 52.3H8.05V95h2.5V69.487 57.411v-3.732-1.021-.267-.068-.017-.005L9.3 52.3zM8.05 95c0 7.863-.28 13.953-1.53 18.493-1.228 4.462-3.35 7.295-7.01 8.857l.98 2.3c4.54-1.938 7.068-5.505 8.44-10.493 1.35-4.91 1.62-11.32 1.62-19.157h-2.5z"/><path id="R" d="M2.8 0C1.8.4.9.9 0 1.5z"/><path id="S" d="M3.264 1.16a1.25 1.25 0 1 0-.928-2.32l.928 2.32zM-.693.46A1.25 1.25 0 0 0 .693 2.54L-.693.46zm3.029-1.62A16.881 16.881 0 0 0-.694.46L.694 2.54c.858-.573 1.644-1.011 2.571-1.38l-.928-2.32z"/><path id="T" d="M35.533-.205a1.25 1.25 0 1 0-2.466.41l2.466-.41zM34.8 3.5l1.248.073c.005-.093 0-.186-.015-.278L34.8 3.5zM-.224 8.57a1.25 1.25 0 1 0 .448 2.46l-.448-2.46zM33.067.206c.193 1.153.293 2.253.5 3.5l2.466-.411c-.193-1.154-.293-2.254-.5-3.5l-2.466.41zm.485 3.22c-.16 2.73-2.404 4.824-5.152 4.824v2.5c4.052 0 7.408-3.106 7.648-7.177l-2.496-.146zM28.4 8.25H3.3v2.5h25.1v-2.5zm-25.1 0a20.222 20.222 0 0 0-3.524.32l.448 2.46a16.64 16.64 0 0 1 3.076-.28v-2.5z"/></defs></svg>