<svg width="232" height="231" viewBox="0 0 232 231" version="1.1" xmlns="http://www.w3.org/2000/svg" xmlns:xlink="http://www.w3.org/1999/xlink">
<title>meg</title>
<desc>Created using Figma</desc>
<g id="Canvas" transform="translate(-9889 -3612)">
<g id="meg">
<g id="Ellipse">
<use xlink:href="#path0_fill" transform="translate(9889 3612)" fill="#FFFFFF"/>
</g>
<g id="Vector">
<use xlink:href="#path1_fill" transform="translate(9955 3721)" fill="#FFFFFF"/>
<use xlink:href="#path2_stroke" transform="translate(9955 3721)" fill="#333333"/>
</g>
<g id="Vector">
<use xlink:href="#path3_fill" transform="translate(9939.66 3652.18)" fill="#FFFFFF"/>
<use xlink:href="#path4_stroke" transform="translate(9939.66 3652.18)" fill="#333333"/>
</g>
<g id="Vector">
<use xlink:href="#path5_fill" transform="translate(9954.9 3721.04)" fill="#FFFFFF"/>
<use xlink:href="#path6_stroke" transform="translate(9954.9 3721.04)" fill="#333333"/>
</g>
<g id="Vector">
<use xlink:href="#path7_fill" transform="translate(9973.6 3674.34)" fill="#FFFFFF"/>
<mask id="mask0_outline_ins">
<use xlink:href="#path7_fill" fill="white" transform="translate(9973.6 3674.34)"/>
</mask>
<g mask="url(#mask0_outline_ins)">
<use xlink:href="#path8_stroke_2x" transform="translate(9973.6 3674.34)" fill="#333333"/>
</g>
</g>
<g id="Vector">
<use xlink:href="#path7_fill" transform="translate(9973.6 3674.34)" fill="#FFFFFF"/>
<use xlink:href="#path9_stroke" transform="translate(9973.6 3674.34)" fill="#333333"/>
</g>
<g id="Vector">
<use xlink:href="#path10_fill" transform="translate(10022.3 3714.64)" fill="#FFFFFF"/>
<use xlink:href="#path11_stroke" transform="translate(10022.3 3714.64)" fill="#333333"/>
</g>
<g id="Vector">
<use xlink:href="#path12_fill" transform="translate(10003.7 3700.44)" fill="#FFFFFF"/>
<use xlink:href="#path13_stroke" transform="translate(10003.7 3700.44)" fill="#333333"/>
</g>
<g id="Vector">
<use xlink:href="#path14_stroke" transform="translate(9993.8 3700.24)" fill="#333333"/>
</g>
<g id="Vector">
<use xlink:href="#path15_fill" transform="translate(10043 3700.44)" fill="#FFFFFF"/>
<use xlink:href="#path16_stroke" transform="translate(10043 3700.44)" fill="#333333"/>
</g>
<g id="Vector">
<use xlink:href="#path17_fill" transform="translate(9992.8 3690.64)" fill="#FFFFFF"/>
<use xlink:href="#path18_stroke" transform="translate(9992.8 3690.64)" fill="#333333"/>
</g>
<g id="Vector">
<use xlink:href="#path19_fill" transform="translate(10033.9 3690.54)" fill="#FFFFFF"/>
<use xlink:href="#path20_stroke" transform="translate(10033.9 3690.54)" fill="#333333"/>
</g>
<g id="Vector">
<use xlink:href="#path21_stroke" transform="translate(10037 3700.24)" fill="#333333"/>
</g>
<g id="Vector">
<use xlink:href="#path22_fill" transform="translate(10007.7 3739.64)" fill="#FFFFFF"/>
<use xlink:href="#path23_stroke" transform="translate(10007.7 3739.64)" fill="#333333"/>
</g>
<g id="Vector">
<use xlink:href="#path24_fill" transform="translate(10012.6 3739.64)" fill="#FFFFFF"/>
<use xlink:href="#path25_stroke" transform="translate(10012.6 3739.64)" fill="#333333"/>
</g>
<g id="Vector">
<use xlink:href="#path26_fill" transform="translate(9954.8 3797.54)" fill="#BDBDBD"/>
<use xlink:href="#path27_stroke" transform="translate(9954.8 3797.54)" fill="#333333"/>
</g>
<g id="Vector">
<use xlink:href="#path28_fill" transform="translate(9932.2 3635.14)" fill="#E0E0E0"/>
<use xlink:href="#path29_stroke" transform="translate(9932.2 3635.14)" fill="#333333"/>
</g>
<g id="Vector">
<use xlink:href="#path30_fill" transform="translate(9956.56 3622)" fill="#FFFFFF"/>
<use xlink:href="#path31_stroke" transform="translate(9956.56 3622)" fill="#333333"/>
</g>
<g id="Vector">
<use xlink:href="#path32_fill" transform="translate(9939.66 3652.21)" fill="#FFFFFF"/>
<use xlink:href="#path33_stroke" transform="translate(9939.66 3652.21)" fill="#333333"/>
</g>
<g id="Group">
<g id="Vector">
<use xlink:href="#path34_stroke" transform="translate(9996.8 3627.14)" fill="#333333"/>
</g>
<g id="Vector">
<use xlink:href="#path35_stroke" transform="translate(9962.6 3628.44)" fill="#333333"/>
</g>
</g>
<g id="Group">
<g id="Vector">
<use xlink:href="#path36_fill" transform="translate(9953.3 3685.04)" fill="#FFFFFF"/>
<use xlink:href="#path37_stroke" transform="translate(9953.3 3685.04)" fill="#333333"/>
</g>
<g id="Vector">
<use xlink:href="#path38_stroke" transform="translate(9953.3 3707.64)" fill="#333333"/>
</g>
<g id="Vector">
<use xlink:href="#path39_fill" transform="translate(9959.2 3813.54)" fill="#FFFFFF"/>
<use xlink:href="#path40_stroke" transform="translate(9959.2 3813.54)" fill="#333333"/>
</g>
<g id="Vector">
<use xlink:href="#path41_stroke" transform="translate(9970.6 3688.74)" fill="#333333"/>
</g>
<g id="Vector">
<use xlink:href="#path42_fill" transform="translate(9987.1 3682.14)" fill="#FFFFFF"/>
<use xlink:href="#path43_stroke" transform="translate(9987.1 3682.14)" fill="#333333"/>
</g>
<g id="Vector">
<use xlink:href="#path44_stroke" transform="translate(9993 3671.44)" fill="#333333"/>
</g>
</g>
</g>
</g>
<defs>
<path id="path0_fill" d="M 231.045 115.5C 231.045 179.289 179.324 231 115.523 231C 51.7213 231 0 179.289 0 115.5C 0 51.7111 51.7213 0 115.523 0C 179.324 0 231.045 51.7111 231.045 115.5Z"/>
<path id="path1_fill" d="M 91.6 76.5C 84.3 76.5 78.4 70.5 78.4 63.2L 78.4 1.42109e-14L 29.8 1.42109e-14L 29.8 63.2C 29.8 70.5 23.9 76.4 16.6 76.4L 1.2207e-05 76.4C 1.2207e-05 76.4 2.99999 103.3 57.7 103.3C 105.1 103.3 106 76.4 106 76.4L 91.6 76.4L 91.6 76.5Z"/>
<path id="path2_stroke" d="M 91.6 76.5L 91.6 78C 92.4284 78 93.1 77.3284 93.1 76.5L 91.6 76.5ZM 78.4 1.42109e-14L 79.9 1.42109e-14C 79.9 -0.828427 79.2284 -1.5 78.4 -1.5L 78.4 1.42109e-14ZM 29.8 1.42109e-14L 29.8 -1.5C 28.9716 -1.5 28.3 -0.828427 28.3 1.45439e-14L 29.8 1.42109e-14ZM 1.2207e-05 76.4L 1.2207e-05 74.9C -0.426759 74.9 -0.833325 75.0818 -1.11788 75.3998C -1.40244 75.7179 -1.53805 76.1421 -1.49075 76.5662L 1.2207e-05 76.4ZM 106 76.4L 107.499 76.4502C 107.513 76.0439 107.361 75.6494 107.078 75.3572C 106.796 75.065 106.407 74.9 106 74.9L 106 76.4ZM 91.6 76.4L 91.6 74.9C 90.7716 74.9 90.1 75.5716 90.1 76.4L 91.6 76.4ZM 91.6 75C 85.1431 75 79.9 69.6863 79.9 63.2L 76.9 63.2C 76.9 71.3137 83.4569 78 91.6 78L 91.6 75ZM 79.9 63.2L 79.9 1.42109e-14L 76.9 1.42109e-14L 76.9 63.2L 79.9 63.2ZM 78.4 -1.5L 29.8 -1.5L 29.8 1.5L 78.4 1.5L 78.4 -1.5ZM 28.3 1.42109e-14L 28.3 63.2L 31.3 63.2L 31.3 1.42109e-14L 28.3 1.42109e-14ZM 28.3 63.2C 28.3 69.6716 23.0716 74.9 16.6 74.9L 16.6 77.9C 24.7284 77.9 31.3 71.3284 31.3 63.2L 28.3 63.2ZM 16.6 74.9L 1.2207e-05 74.9L 1.2207e-05 77.9L 16.6 77.9L 16.6 74.9ZM 1.2207e-05 76.4C -1.49075 76.5662 -1.49057 76.5678 -1.49038 76.5695C -1.4903 76.5702 -1.4901 76.572 -1.48994 76.5733C -1.48973 76.5751 -1.48924 76.5793 -1.48881 76.5829C -1.48819 76.5882 -1.48686 76.599 -1.48553 76.6094C -1.48336 76.6264 -1.47916 76.6578 -1.47433 76.6914C -1.46577 76.7506 -1.45 76.8514 -1.4294 76.9668C -1.39082 77.1814 -1.32045 77.5246 -1.21712 77.9289C -1.01771 78.7033 -0.646173 79.8764 -0.044214 81.2192C 1.13522 83.8297 3.39673 87.4541 7.34256 90.9725C 15.2878 98.0146 30.1126 104.8 57.7 104.8L 57.7 101.8C 30.5874 101.8 16.5622 95.1354 9.33244 88.7275C 5.69078 85.5209 3.78354 82.4203 2.69111 79.9871C 2.15713 78.808 1.86695 77.8795 1.68862 77.1828C 1.60309 76.8516 1.55559 76.6168 1.52351 76.4374C 1.50879 76.3558 1.50103 76.3055 1.49491 76.2629C 1.49238 76.2456 1.49145 76.2385 1.49032 76.2295C 1.49 76.2271 1.48983 76.2256 1.48998 76.2269C 1.48994 76.2265 1.49026 76.2293 1.49024 76.2291C 1.49031 76.2297 1.49044 76.2308 1.49048 76.2311C 1.49062 76.2324 1.49077 76.2337 1.2207e-05 76.4ZM 57.7 104.8C 81.6874 104.8 94.2186 97.9846 100.732 90.8623C 103.945 87.3241 105.687 83.6805 106.544 81.0695C 106.98 79.7299 107.227 78.5634 107.35 77.7919C 107.414 77.3908 107.452 77.0526 107.472 76.8398C 107.482 76.7261 107.489 76.6281 107.493 76.5698C 107.495 76.5371 107.497 76.5071 107.497 76.4906C 107.498 76.4806 107.498 76.4704 107.499 76.4654C 107.499 76.4621 107.499 76.4582 107.499 76.4566C 107.499 76.4553 107.499 76.4537 107.499 76.453C 107.499 76.4515 107.499 76.4502 106 76.4C 104.501 76.3498 104.501 76.3486 104.501 76.3476C 104.501 76.3473 104.501 76.3463 104.501 76.3459C 104.501 76.3459 104.501 76.3442 104.501 76.3444C 104.501 76.3428 104.501 76.3455 104.501 76.3484C 104.5 76.3578 104.5 76.3663 104.499 76.3845C 104.496 76.4281 104.492 76.481 104.485 76.5644C 104.468 76.7456 104.441 76.9854 104.387 77.3198C 104.276 78.0194 104.082 78.9545 103.693 80.1367C 102.9 82.5695 101.455 85.6508 98.5181 88.8377C 92.7314 95.1654 81.1126 101.8 57.7 101.8L 57.7 104.8ZM 106 74.9L 91.6 74.9L 91.6 77.9L 106 77.9L 106 74.9ZM 90.1 76.4L 90.1 76.5L 93.1 76.5L 93.1 76.4L 90.1 76.4Z"/>
<path id="path3_fill" d="M 129.137 23.5556C 130.337 39.0556 102.437 53.8556 66.7373 56.5556C 31.0373 59.3556 1.2373 48.9556 0.0373026 33.4556C -1.1627 17.9556 26.7373 3.15562 62.4373 0.455622C 98.0373 -2.34438 127.937 8.05562 129.137 23.5556Z"/>
<path id="path4_stroke" d="M 66.7373 56.5556L 66.6242 55.0599L 66.62 55.0602L 66.7373 56.5556ZM 62.4373 0.455622L 62.5504 1.95136L 62.5549 1.951L 62.4373 0.455622ZM 127.642 23.6714C 127.903 27.0488 126.595 30.5071 123.761 33.9116C 120.874 37.3948 116.613 40.6025 111.073 43.5299C 99.9342 49.4363 84.3306 53.7278 66.6242 55.0599L 66.8504 58.0514C 84.844 56.6835 101.04 52.2249 112.477 46.1813C 118.224 43.1337 122.944 39.5664 126.067 35.8309C 129.242 32.0166 130.971 27.8125 130.633 23.4398L 127.642 23.6714ZM 66.62 55.0602C 48.9152 56.4559 32.8467 54.5934 20.9417 50.4511C 15.0219 48.401 10.3232 45.8782 6.93841 42.8738C 3.61754 39.9391 1.7944 36.7184 1.53283 33.3398L -1.45822 33.5714C -1.11979 37.9428 1.23207 41.8346 4.95183 45.1218C 8.60769 48.3393 13.8152 51.1477 19.9579 53.2852C 32.1779 57.5179 48.8594 59.4554 66.8546 58.051L 66.62 55.0602ZM 1.53283 33.3398C 1.27136 29.9625 2.57947 26.5041 5.41356 23.0997C 8.30036 19.6164 12.5612 16.4087 18.1016 13.4813C 29.2404 7.57491 44.844 3.28349 62.5504 1.95135L 62.3242 -1.04011C 44.3306 0.327755 28.1342 4.78634 16.698 10.8299C 10.9509 13.8775 6.2305 17.4448 3.10792 21.1803C -0.067363 24.9946 -1.79675 29.1988 -1.45822 33.5714L 1.53283 33.3398ZM 62.5549 1.951C 80.2095 0.555365 96.2781 2.41793 108.196 6.56032C 114.122 8.61053 118.831 11.1339 122.223 14.1385C 125.552 17.0739 127.38 20.2944 127.642 23.6714L 130.633 23.4398C 130.294 19.0668 127.935 15.1748 124.207 11.8883C 120.544 8.67113 115.327 5.86321 109.179 3.72592C 96.9465 -0.506681 80.2651 -2.44412 62.3197 -1.03976L 62.5549 1.951Z"/>
<path id="path5_fill" d="M 91.6 76.5C 84.3 76.5 78.4 70.5 78.4 63.2L 78.4 1.42109e-14L 29.8 1.42109e-14L 29.8 63.2C 29.8 70.5 23.9 76.4 16.6 76.4L -7.62939e-07 76.4C -7.62939e-07 76.4 3 103.3 57.7 103.3C 105.1 103.3 106 76.4 106 76.4L 91.6 76.4L 91.6 76.5Z"/>
<path id="path6_stroke" d="M 91.6 76.5L 91.6 78C 92.4284 78 93.1 77.3284 93.1 76.5L 91.6 76.5ZM 78.4 1.42109e-14L 79.9 1.42109e-14C 79.9 -0.828427 79.2284 -1.5 78.4 -1.5L 78.4 1.42109e-14ZM 29.8 1.42109e-14L 29.8 -1.5C 28.9716 -1.5 28.3 -0.828427 28.3 1.45439e-14L 29.8 1.42109e-14ZM -7.62939e-07 76.4L -7.62939e-07 74.9C -0.426772 74.9 -0.833339 75.0818 -1.1179 75.3998C -1.40245 75.7179 -1.53806 76.1421 -1.49076 76.5662L -7.62939e-07 76.4ZM 106 76.4L 107.499 76.4502C 107.513 76.0439 107.361 75.6494 107.078 75.3572C 106.796 75.065 106.407 74.9 106 74.9L 106 76.4ZM 91.6 76.4L 91.6 74.9C 90.7716 74.9 90.1 75.5716 90.1 76.4L 91.6 76.4ZM 91.6 75C 85.1431 75 79.9 69.6863 79.9 63.2L 76.9 63.2C 76.9 71.3137 83.4569 78 91.6 78L 91.6 75ZM 79.9 63.2L 79.9 1.42109e-14L 76.9 1.42109e-14L 76.9 63.2L 79.9 63.2ZM 78.4 -1.5L 29.8 -1.5L 29.8 1.5L 78.4 1.5L 78.4 -1.5ZM 28.3 1.42109e-14L 28.3 63.2L 31.3 63.2L 31.3 1.42109e-14L 28.3 1.42109e-14ZM 28.3 63.2C 28.3 69.6716 23.0716 74.9 16.6 74.9L 16.6 77.9C 24.7284 77.9 31.3 71.3284 31.3 63.2L 28.3 63.2ZM 16.6 74.9L -7.62939e-07 74.9L -7.62939e-07 77.9L 16.6 77.9L 16.6 74.9ZM -7.62939e-07 76.4C -1.49076 76.5662 -1.49058 76.5678 -1.49039 76.5695C -1.49032 76.5702 -1.49011 76.572 -1.48995 76.5733C -1.48974 76.5751 -1.48926 76.5793 -1.48883 76.5829C -1.4882 76.5882 -1.48687 76.599 -1.48554 76.6094C -1.48337 76.6264 -1.47917 76.6578 -1.47434 76.6914C -1.46578 76.7506 -1.45001 76.8514 -1.42941 76.9668C -1.39083 77.1814 -1.32046 77.5246 -1.21713 77.9289C -1.01772 78.7033 -0.646184 79.8764 -0.0442234 81.2192C 1.13522 83.8297 3.39673 87.4541 7.34256 90.9725C 15.2878 98.0146 30.1126 104.8 57.7 104.8L 57.7 101.8C 30.5874 101.8 16.5622 95.1354 9.33244 88.7275C 5.69077 85.5209 3.78353 82.4203 2.6911 79.9871C 2.15712 78.808 1.86694 77.8795 1.68861 77.1828C 1.60307 76.8516 1.55557 76.6168 1.5235 76.4374C 1.50877 76.3558 1.50102 76.3055 1.49489 76.2629C 1.49237 76.2456 1.49144 76.2384 1.49031 76.2295C 1.48998 76.2271 1.48982 76.2256 1.48997 76.2269C 1.48993 76.2265 1.49025 76.2293 1.49023 76.2291C 1.4903 76.2297 1.49043 76.2308 1.49046 76.2311C 1.4906 76.2324 1.49076 76.2337 -7.62939e-07 76.4ZM 57.7 104.8C 81.6874 104.8 94.2186 97.9846 100.732 90.8623C 103.945 87.3241 105.687 83.6805 106.544 81.0695C 106.98 79.7299 107.227 78.5634 107.35 77.7919C 107.414 77.3908 107.452 77.0526 107.472 76.8398C 107.482 76.7261 107.489 76.6281 107.493 76.5698C 107.495 76.5371 107.497 76.5071 107.497 76.4906C 107.498 76.4806 107.498 76.4704 107.499 76.4654C 107.499 76.4621 107.499 76.4582 107.499 76.4566C 107.499 76.4553 107.499 76.4537 107.499 76.453C 107.499 76.4515 107.499 76.4502 106 76.4C 104.501 76.3498 104.501 76.3486 104.501 76.3476C 104.501 76.3473 104.501 76.3463 104.501 76.3459C 104.501 76.3459 104.501 76.3442 104.501 76.3444C 104.501 76.3428 104.501 76.3455 104.501 76.3484C 104.5 76.3578 104.5 76.3663 104.499 76.3845C 104.496 76.4281 104.492 76.481 104.485 76.5644C 104.468 76.7456 104.441 76.9854 104.387 77.3198C 104.276 78.0194 104.082 78.9545 103.693 80.1367C 102.9 82.5695 101.455 85.6508 98.5181 88.8377C 92.7314 95.1654 81.1126 101.8 57.7 101.8L 57.7 104.8ZM 106 74.9L 91.6 74.9L 91.6 77.9L 106 77.9L 106 74.9ZM 90.1 76.4L 90.1 76.5L 93.1 76.5L 93.1 76.4L 90.1 76.4Z"/>
<path id="path7_fill" d="M 0 -7.62939e-07L 0 41.1C 0 63 13.5 97.1 50.3 97.1C 59.9 97.1 79.1 77 79.1 48.3L 79.1 -7.62939e-07L 0 -7.62939e-07Z"/>
<path id="path8_stroke_2x" d="M 0 -7.62939e-07L 0 -1L -1 -1L -1 -7.62939e-07L 0 -7.62939e-07ZM 79.1 -7.62939e-07L 80.1 -7.62939e-07L 80.1 -1L 79.1 -1L 79.1 -7.62939e-07ZM -1 -7.62939e-07L -1 41.1L 1 41.1L 1 -7.62939e-07L -1 -7.62939e-07ZM -1 41.1C -0.993013 52.168 2.46452 66.4636 10.5339 77.8904C 18.674 89.3861 31.5388 98.1 50.3 98.1L 50.3 96.1C 32.2612 96.1 19.976 87.7639 12.1661 76.7346C 4.28548 65.6364 0.993013 51.932 1 41.1L -1 41.1ZM 50.3 98.1C 53.0113 98.1 56.2219 96.7016 59.4451 94.3146C 62.6591 91.9302 66.072 88.4043 69.1205 84.0341C 75.1816 75.3221 80.0825 62.8363 80.1 48.3L 78.1 48.3C 78.1175 62.4637 73.4185 74.3779 67.4795 82.8909C 64.528 87.1331 61.3409 90.426 58.2549 92.7073C 55.1781 94.9859 52.3887 96.1 50.3 96.1L 50.3 98.1ZM 80.1 48.3L 80.1 -7.62939e-07L 78.1 -7.62939e-07L 78.1 48.3L 80.1 48.3ZM 79.1 -1L 0 -1L 0 0.999999L 79.1 0.999999L 79.1 -1Z"/>
<path id="path9_stroke" d="M 0 -7.62939e-07L 0 -1.5L -1.5 -1.5L -1.5 -7.62939e-07L 0 -7.62939e-07ZM 79.1 -7.62939e-07L 80.6 -7.62939e-07L 80.6 -1.5L 79.1 -1.5L 79.1 -7.62939e-07ZM -1.5 -7.62939e-07L -1.5 41.1L 1.5 41.1L 1.5 -7.62939e-07L -1.5 -7.62939e-07ZM -1.5 41.1C -1.48952 52.227 2.00928 66.6703 10.1258 78.1793C 18.3486 89.7917 31.3582 98.6 50.3 98.6L 50.3 95.6C 32.4418 95.6 20.3015 87.3583 12.5742 76.4457C 4.74072 65.4297 1.48952 51.873 1.5 41.1L -1.5 41.1ZM 50.3 98.6C 53.1669 98.6 56.4829 97.1305 59.7427 94.7164C 62.9886 92.3063 66.458 88.7221 69.5308 84.3199C 75.6223 75.5581 80.5737 62.9295 80.6 48.3L 77.6 48.3C 77.6263 62.3705 72.9777 74.1419 67.0692 82.6051C 64.142 86.8153 61.0114 90.05 57.9573 92.3055C 54.9171 94.557 52.2331 95.6 50.3 95.6L 50.3 98.6ZM 80.6 48.3L 80.6 -7.62939e-07L 77.6 -7.62939e-07L 77.6 48.3L 80.6 48.3ZM 79.1 -1.5L 0 -1.5L 0 1.5L 79.1 1.5L 79.1 -1.5Z"/>
<path id="path10_fill" d="M -3.05176e-06 10.4L 6.3 10.4C 9.2 10.4 11.5 8.1 11.5 5.2C 11.5 2.3 9.2 -1.52588e-06 6.3 -1.52588e-06"/>
<path id="path11_stroke" d="M -3.05176e-06 8.9C -0.82843 8.9 -1.5 9.57157 -1.5 10.4C -1.5 11.2284 -0.82843 11.9 -3.05176e-06 11.9L -3.05176e-06 8.9ZM 6.3 -1.5C 5.47157 -1.5 4.8 -0.828429 4.8 -1.52588e-06C 4.8 0.828426 5.47157 1.5 6.3 1.5L 6.3 -1.5ZM -3.05176e-06 11.9L 6.3 11.9L 6.3 8.9L -3.05176e-06 8.9L -3.05176e-06 11.9ZM 6.3 11.9C 10.0284 11.9 13 8.92843 13 5.2L 10 5.2C 10 7.27158 8.37157 8.9 6.3 8.9L 6.3 11.9ZM 13 5.2C 13 1.47158 10.0284 -1.5 6.3 -1.5L 6.3 1.5C 8.37157 1.5 10 3.12843 10 5.2L 13 5.2Z"/>
<path id="path12_fill" d="M 5.4 2.7C 5.4 4.2 4.2 5.4 2.7 5.4C 1.2 5.4 -1.52588e-06 4.2 -1.52588e-06 2.7C -1.52588e-06 1.2 1.2 1.52588e-06 2.7 1.52588e-06C 4.2 1.52588e-06 5.4 1.2 5.4 2.7Z"/>
<path id="path13_stroke" d="M 2.7 1.52588e-06L 2.7 -1.25L 2.7 1.52588e-06ZM 4.15 2.7C 4.15 3.50965 3.50964 4.15 2.7 4.15L 2.7 6.65C 4.89036 6.65 6.65 4.89035 6.65 2.7L 4.15 2.7ZM 2.7 4.15C 1.89036 4.15 1.25 3.50964 1.25 2.7L -1.25 2.7C -1.25 4.89035 0.509647 6.65 2.7 6.65L 2.7 4.15ZM 1.25 2.7C 1.25 1.89036 1.89035 1.25 2.7 1.25L 2.7 -1.25C 0.509652 -1.25 -1.25 0.509638 -1.25 2.7L 1.25 2.7ZM 2.7 1.25C 3.50965 1.25 4.15 1.89035 4.15 2.7L 6.65 2.7C 6.65 0.509642 4.89036 -1.25 2.7 -1.25L 2.7 1.25Z"/>
<path id="path14_stroke" d="M -3.05176e-06 -1.5C -0.82843 -1.5 -1.5 -0.82843 -1.5 -3.05176e-06C -1.5 0.828424 -0.82843 1.5 -3.05176e-06 1.5L -3.05176e-06 -1.5ZM 21.9 1.5C 22.7284 1.5 23.4 0.828424 23.4 -3.05176e-06C 23.4 -0.82843 22.7284 -1.5 21.9 -1.5L 21.9 1.5ZM -3.05176e-06 1.5L 21.9 1.5L 21.9 -1.5L -3.05176e-06 -1.5L -3.05176e-06 1.5Z"/>
<path id="path15_fill" d="M 5.4 2.7C 5.4 4.2 4.20001 5.4 2.70001 5.4C 1.20001 5.4 1.52588e-06 4.2 1.52588e-06 2.7C 1.52588e-06 1.2 1.20001 1.52588e-06 2.70001 1.52588e-06C 4.20001 1.52588e-06 5.4 1.2 5.4 2.7Z"/>
<path id="path16_stroke" d="M 2.70001 1.52588e-06L 2.70001 -1.25L 2.70001 1.52588e-06ZM 4.15 2.7C 4.15 3.50965 3.50965 4.15 2.70001 4.15L 2.70001 6.65C 4.89037 6.65 6.65 4.89035 6.65 2.7L 4.15 2.7ZM 2.70001 4.15C 1.89036 4.15 1.25 3.50964 1.25 2.7L -1.25 2.7C -1.25 4.89035 0.50965 6.65 2.70001 6.65L 2.70001 4.15ZM 1.25 2.7C 1.25 1.89036 1.89036 1.25 2.70001 1.25L 2.70001 -1.25C 0.509655 -1.25 -1.25 0.509638 -1.25 2.7L 1.25 2.7ZM 2.70001 1.25C 3.50965 1.25 4.15 1.89035 4.15 2.7L 6.65 2.7C 6.65 0.509642 4.89036 -1.25 2.70001 -1.25L 2.70001 1.25Z"/>
<path id="path17_fill" d="M 24 4.2C 24 4.2 19.2 -1.52588e-06 12 -1.52588e-06C 4.7 -1.52588e-06 -3.05176e-06 4.2 -3.05176e-06 4.2"/>
<path id="path18_stroke" d="M 23.0122 5.32887C 23.6357 5.87439 24.5833 5.81122 25.1289 5.18776C 25.6744 4.56431 25.6112 3.61666 24.9878 3.07114L 23.0122 5.32887ZM -0.9995 3.08152C -1.61722 3.63353 -1.67049 4.58178 -1.11849 5.1995C -0.56648 5.81722 0.381773 5.87049 0.999494 5.31849L -0.9995 3.08152ZM 24 4.2C 24.9878 3.07114 24.9873 3.07076 24.9869 3.07037C 24.9867 3.07022 24.9862 3.06981 24.9859 3.06951C 24.9855 3.06914 24.9844 3.06823 24.9836 3.0675C 24.9824 3.06651 24.9799 3.0643 24.9776 3.06233C 24.9742 3.05934 24.9673 3.05341 24.9603 3.04749C 24.9487 3.03758 24.9278 3.01984 24.9046 3.0005C 24.8628 2.9657 24.7927 2.9083 24.7098 2.8427C 24.5536 2.71935 24.3032 2.52909 23.9977 2.31491C 23.408 1.90253 22.489 1.3197 21.3708 0.75836C 19.1843 -0.331497 15.8513 -1.4788 12 -1.5L 12 1.5C 15.3487 1.4788 18.0156 2.4315 20.0292 3.44164C 21.0109 3.9303 21.742 4.39747 22.2773 4.7726C 22.5343 4.95216 22.7151 5.09003 22.8496 5.19637C 22.912 5.24561 22.952 5.27844 22.9841 5.30517C 22.9978 5.31659 23.0047 5.32244 23.0117 5.32842C 23.014 5.33045 23.0142 5.33054 23.0154 5.33159C 23.0154 5.33164 23.0147 5.33101 23.0147 5.33098C 23.0149 5.3312 23.0135 5.33 23.0137 5.33011C 23.0135 5.32994 23.0131 5.32962 23.013 5.32954C 23.0126 5.32921 23.0122 5.32887 24 4.2ZM 12 -1.5C 8.09868 -1.4788 4.76399 -0.330797 2.58847 0.759969C 1.47476 1.32251 0.562836 1.90746 -0.0198345 2.3206C -0.322098 2.53555 -0.570006 2.72699 -0.723952 2.85073C -0.805897 2.91673 -0.875453 2.97472 -0.916665 3.00972C -0.939636 3.02925 -0.960503 3.04728 -0.97199 3.05729C -0.978886 3.0633 -0.985803 3.06938 -0.989244 3.07242C -0.991533 3.07444 -0.994107 3.07672 -0.995249 3.07773C -0.996103 3.07849 -0.997168 3.07944 -0.997594 3.07982C -0.997948 3.08013 -0.998425 3.08056 -0.998602 3.08072C -0.99906 3.08113 -0.9995 3.08152 -3.05176e-06 4.2C 0.999494 5.31849 0.99909 5.31885 0.998704 5.31919C 0.998599 5.31929 0.998229 5.31962 0.998018 5.3198C 0.998158 5.31968 0.996681 5.32099 0.996962 5.32074C 0.996959 5.32075 0.996103 5.32151 0.996106 5.3215C 0.994974 5.3225 0.997176 5.32055 0.999395 5.31862C 1.00614 5.31274 1.01255 5.30718 1.02579 5.29595C 1.05699 5.26942 1.09554 5.23719 1.15637 5.18834C 1.28797 5.08239 1.46428 4.94571 1.7167 4.76691C 2.24341 4.39255 2.96274 3.92749 3.93653 3.44003C 5.936 2.4308 8.60131 1.4788 12 1.5L 12 -1.5Z"/>
<path id="path19_fill" d="M 18.9 4.6L 18.9 2.1C 17 0.999998 14.3 0 11.1 0C 4.39999 0 3.05176e-06 4.6 3.05176e-06 4.6"/>
<path id="path20_stroke" d="M 17.4 4.6C 17.4 5.42843 18.0716 6.1 18.9 6.1C 19.7284 6.1 20.4 5.42843 20.4 4.6L 17.4 4.6ZM 18.9 2.1L 20.4 2.1C 20.4 1.56474 20.1148 1.07004 19.6516 0.801859L 18.9 2.1ZM -1.08396 3.56317C -1.65659 4.16182 -1.63549 5.11134 -1.03683 5.68396C -0.438173 6.25659 0.51134 6.23549 1.08397 5.63683L -1.08396 3.56317ZM 20.4 4.6L 20.4 2.1L 17.4 2.1L 17.4 4.6L 20.4 4.6ZM 19.6516 0.801859C 17.6386 -0.357289 14.5646 -1.47647 11.1 -1.5L 11.1 1.5C 14.0354 1.47647 16.3614 2.35729 18.1484 3.39814L 19.6516 0.801859ZM 11.1 -1.5C 7.45723 -1.47115 4.30335 -0.191226 2.27188 1.0101C 1.23187 1.63016 0.376057 2.27573 -0.168431 2.7292C -0.450888 2.96515 -0.682979 3.17538 -0.826893 3.31098C -0.903452 3.38325 -0.968421 3.44671 -1.00692 3.485C -1.02835 3.50634 -1.04777 3.52598 -1.05848 3.5369C -1.0649 3.54345 -1.0713 3.55004 -1.0745 3.55334C -1.07662 3.55554 -1.079 3.558 -1.08006 3.5591C -1.08084 3.55991 -1.08182 3.56093 -1.08221 3.56134C -1.08254 3.56168 -1.08298 3.56214 -1.08314 3.56231C -1.08356 3.56274 -1.08396 3.56317 3.05176e-06 4.6C 1.08397 5.63683 1.0836 5.63722 1.08325 5.63758C 1.08315 5.63768 1.08281 5.63804 1.08262 5.63823C 1.08275 5.6381 1.08142 5.63949 1.08167 5.63923C 1.08166 5.63924 1.08092 5.64 1.08094 5.63998C 1.08202 5.63887 1.08203 5.63886 1.08414 5.6367C 1.09049 5.63022 1.09659 5.62403 1.10903 5.61168C 1.13825 5.58258 1.17436 5.54721 1.2312 5.4937C 1.35408 5.37774 1.51808 5.22859 1.75281 5.03329C 2.24269 4.62427 2.90563 4.11984 3.80311 3.5899C 5.64665 2.49122 8.04276 1.47115 11.1 1.5L 11.1 -1.5Z"/>
<path id="path21_stroke" d="M 1.52588e-06 -1.5C -0.828426 -1.5 -1.5 -0.82843 -1.5 -3.05176e-06C -1.5 0.828424 -0.828426 1.5 1.52588e-06 1.5L 1.52588e-06 -1.5ZM 15.8 1.5C 16.6284 1.5 17.3 0.828424 17.3 -3.05176e-06C 17.3 -0.82843 16.6284 -1.5 15.8 -1.5L 15.8 1.5ZM 1.52588e-06 1.5L 15.8 1.5L 15.8 -1.5L 1.52588e-06 -1.5L 1.52588e-06 1.5Z"/>
<path id="path22_fill" d="M -1.52588e-06 -1.52588e-06L 15.9 -1.52588e-06L 30.9 -1.52588e-06"/>
<path id="path23_stroke" d="M -1.52588e-06 -1.5C -0.828429 -1.5 -1.5 -0.828429 -1.5 -1.52588e-06C -1.5 0.828426 -0.828429 1.5 -1.52588e-06 1.5L -1.52588e-06 -1.5ZM 30.9 1.5C 31.7284 1.5 32.4 0.828426 32.4 -1.52588e-06C 32.4 -0.828429 31.7284 -1.5 30.9 -1.5L 30.9 1.5ZM -1.52588e-06 1.5L 15.9 1.5L 15.9 -1.5L -1.52588e-06 -1.5L -1.52588e-06 1.5ZM 15.9 1.5L 30.9 1.5L 30.9 -1.5L 15.9 -1.5L 15.9 1.5Z"/>
<path id="path24_fill" d="M 0 -1.52588e-06L 22 -1.52588e-06C 22 -1.52588e-06 19.7 7.6 12.6 7.6C 5.5 7.5 0 -1.52588e-06 0 -1.52588e-06Z"/>
<path id="path25_stroke" d="M 0 -1.52588e-06L 0 -1.5C -0.565254 -1.5 -1.08251 -1.18224 -1.33801 -0.678025C -1.59352 -0.173813 -1.54388 0.43122 -1.20961 0.887044L 0 -1.52588e-06ZM 22 -1.52588e-06L 23.4357 0.434486C 23.5732 -0.019956 23.4875 -0.512678 23.2045 -0.893945C 22.9216 -1.27521 22.4748 -1.5 22 -1.5L 22 -1.52588e-06ZM 12.6 7.6L 12.5789 9.09985C 12.5859 9.09995 12.593 9.1 12.6 9.1L 12.6 7.6ZM 0 1.5L 22 1.5L 22 -1.5L 0 -1.5L 0 1.5ZM 22 -1.52588e-06C 20.5643 -0.434489 20.5645 -0.435061 20.5646 -0.435604C 20.5647 -0.435746 20.5648 -0.436263 20.5649 -0.436549C 20.5649 -0.436377 20.5655 -0.438282 20.5654 -0.437934C 20.5654 -0.438043 20.5656 -0.438895 20.5656 -0.438702C 20.565 -0.436697 20.5648 -0.436233 20.5636 -0.432379C 20.5601 -0.421396 20.5566 -0.410424 20.5496 -0.389554C 20.5334 -0.341107 20.5131 -0.281899 20.4802 -0.193162C 20.4096 -0.00169296 20.3134 0.242384 20.1661 0.562516C 19.8597 1.23277 19.4342 2.03539 18.7739 2.88505C 17.4883 4.55519 15.5333 6.1 12.6 6.1L 12.6 9.1C 16.7667 9.1 19.5117 6.84481 21.1511 4.71494C 21.9533 3.66461 22.5466 2.56722 22.8933 1.81248C 23.0725 1.42011 23.2115 1.07044 23.2944 0.846284C 23.3383 0.727208 23.3743 0.623135 23.3953 0.560254C 23.4069 0.52546 23.4171 0.493756 23.4228 0.47598C 23.4261 0.465453 23.4294 0.455016 23.431 0.449715C 23.4321 0.446255 23.4333 0.442432 23.4338 0.4407C 23.4342 0.439431 23.4347 0.437874 23.4349 0.43724C 23.435 0.436722 23.4352 0.436033 23.4353 0.435774C 23.4355 0.435116 23.4357 0.434486 22 -1.52588e-06ZM 12.6211 6.10015C 9.57783 6.05728 6.75717 4.41165 4.5984 2.61069C 3.52737 1.71997 2.69681 0.858254 2.09129 0.176736C 1.79569 -0.155354 1.57808 -0.418826 1.42139 -0.614719C 1.34625 -0.708552 1.29389 -0.776086 1.25513 -0.826806C 1.23725 -0.850176 1.226 -0.865107 1.21689 -0.877285C 1.21306 -0.882397 1.21128 -0.884806 1.20933 -0.887428C 1.20872 -0.888255 1.20817 -0.888997 1.20849 -0.888574C 1.20846 -0.888604 1.20881 -0.888134 1.2088 -0.888148C 1.20889 -0.888021 1.2091 -0.887745 1.20914 -0.887682C 1.20936 -0.887379 1.20961 -0.887047 0 -1.52588e-06C -1.20961 0.887044 -1.20932 0.887433 -1.20902 0.88785C -1.20889 0.888028 -1.20856 0.888475 -1.2083 0.888829C -1.20795 0.889299 -1.20717 0.890366 -1.20648 0.891304C -1.20545 0.892698 -1.20336 0.895519 -1.20131 0.898297C -1.19791 0.902886 -1.1917 0.911236 -1.1849 0.920318C -1.17277 0.936527 -1.15226 0.963722 -1.12813 0.995309C -1.08286 1.0545 -1.01012 1.1482 -0.920999 1.25964C -0.749173 1.47429 -0.481632 1.79754 -0.150665 2.17014C 0.496935 2.89799 1.48513 3.91752 2.6766 4.91431C 5.04283 6.88835 8.52217 9.04271 12.5789 9.09985L 12.6211 6.10015Z"/>
<path id="path26_fill" d="M 91.6 0C 91.6 0 92 13.5 57.7 13.5C 23.4 13.5 16.6 0 16.6 0L 7.62939e-07 0C 7.62939e-07 0 2 26.9 56.7 26.9C 104.1 26.9 106 0 106 0L 91.6 0Z"/>
<path id="path27_stroke" d="M 91.6 0L 91.6 -1.5C 91.1945 -1.5 90.8062 -1.3358 90.5238 -1.04484C 90.2413 -0.753869 90.0887 -0.360926 90.1007 0.0444243L 91.6 0ZM 16.6 0L 17.9396 -0.674787C 17.6848 -1.18078 17.1666 -1.5 16.6 -1.5L 16.6 0ZM 7.62939e-07 0L 7.62939e-07 -1.5C -0.417147 -1.5 -0.815455 -1.32629 -1.09928 -1.02058C -1.3831 -0.714874 -1.5268 -0.304783 -1.49587 0.111217L 7.62939e-07 0ZM 106 0L 107.496 0.105685C 107.526 -0.309465 107.381 -0.718136 107.097 -1.02261C 106.814 -1.32709 106.416 -1.5 106 -1.5L 106 0ZM 91.6 0C 90.1007 0.0444243 90.1006 0.0426135 90.1006 0.040854C 90.1005 0.0403343 90.1005 0.0386185 90.1005 0.0375761C 90.1005 0.0384167 90.1003 0.0301982 90.1004 0.0318928C 90.1004 0.0327835 90.1002 0.0221323 90.1002 0.0239809C 90.1002 0.0226402 90.1003 0.0193927 90.1002 0.0217021C 90.1001 0.03656 90.1001 0.0417352 90.0984 0.069143C 90.0944 0.145084 90.0887 0.218658 90.0672 0.354881C 90.0199 0.672203 89.9419 1.03618 89.7309 1.55972C 89.3266 2.58632 88.46 4.05979 86.5712 5.58211C 82.7682 8.64723 74.6979 12 57.7 12L 57.7 15C 75.0021 15 83.8818 11.6028 88.4538 7.91789C 90.7525 6.06521 91.9297 4.16368 92.5222 2.65903C 92.8097 1.91695 92.9683 1.22623 93.0332 0.805275C 93.0678 0.572358 93.087 0.355893 93.0939 0.23408C 93.0976 0.162611 93.0996 0.09198 93.1 0.0557515C 93.1002 0.0325177 93.1002 0.00722533 93.1001 -0.00441152C 93.1 -0.012749 93.0999 -0.0228138 93.0998 -0.0269747C 93.0997 -0.0303044 93.0996 -0.0346821 93.0996 -0.0363434C 93.0995 -0.0377961 93.0995 -0.0398202 93.0995 -0.0405454C 93.0994 -0.0425105 93.0993 -0.0444243 91.6 0ZM 57.7 12C 40.745 12 30.7376 8.66385 25.0241 5.44329C 22.1615 3.839 20.4181 2.30008 19.2984 1.08953C 18.7609 0.512486 18.4289 0.0720751 18.1966 -0.267769C 18.0894 -0.423468 18.0271 -0.524736 17.9776 -0.609073C 17.9568 -0.644138 17.9478 -0.660411 17.9378 -0.678769C 17.9347 -0.684402 17.9322 -0.68921 17.9338 -0.686287C 17.9336 -0.686596 17.9356 -0.682812 17.9355 -0.682952C 17.935 -0.683907 17.9375 -0.679003 17.9373 -0.679478C 17.9376 -0.678798 17.9382 -0.677625 17.9384 -0.677285C 17.939 -0.676062 17.9396 -0.674787 16.6 0C 15.2603 0.674787 15.261 0.676165 15.2618 0.677594C 15.262 0.678139 15.2628 0.679621 15.2633 0.680711C 15.264 0.682007 15.2657 0.68528 15.267 0.68787C 15.2688 0.691281 15.2728 0.699059 15.2763 0.705857C 15.2816 0.715911 15.2925 0.736313 15.3033 0.756222C 15.3211 0.788951 15.3545 0.848483 15.3919 0.912295C 15.4588 1.02571 15.576 1.21448 15.7218 1.42793C 15.9953 1.82636 16.4626 2.44064 17.0985 3.12922C 18.3257 4.44992 20.426 6.286 23.5509 8.05671C 29.8124 11.5861 40.355 15 57.7 15L 57.7 12ZM 16.6 -1.5L 7.62939e-07 -1.5L 7.62939e-07 1.5L 16.6 1.5L 16.6 -1.5ZM 7.62939e-07 0C -1.49587 0.111217 -1.49575 0.112799 -1.49562 0.114484C -1.49557 0.115183 -1.49543 0.116975 -1.49532 0.118374C -1.49518 0.120185 -1.49484 0.124395 -1.49455 0.128016C -1.49411 0.133275 -1.49318 0.144182 -1.49224 0.154677C -1.49069 0.171674 -1.48764 0.203281 -1.48406 0.236973C -1.47768 0.296268 -1.46561 0.397438 -1.44926 0.513175C -1.41861 0.728056 -1.36079 1.07242 -1.27232 1.47759C -1.10145 2.25308 -0.772298 3.43021 -0.219099 4.77602C 0.865129 7.39058 3.00076 11.0287 6.824 14.5558C 14.5273 21.616 29.1163 28.4 56.7 28.4L 56.7 25.4C 29.5837 25.4 15.8227 18.734 8.851 12.3442C 5.33674 9.14633 3.55362 6.05941 2.55347 3.63023C 2.06449 2.45417 1.81004 1.52973 1.65786 0.83413C 1.58482 0.503749 1.54625 0.270186 1.52089 0.0910239C 1.50924 0.00974004 1.5034 -0.0401396 1.49887 -0.0826393C 1.497 -0.0998443 1.49635 -0.106821 1.49556 -0.115683C 1.49533 -0.118118 1.49523 -0.119473 1.49533 -0.118216C 1.4953 -0.118579 1.49553 -0.115743 1.49551 -0.115918C 1.49556 -0.115336 1.49565 -0.114159 1.49567 -0.113869C 1.49577 -0.112594 1.49587 -0.111217 7.62939e-07 0ZM 56.7 28.4C 80.6907 28.4 93.4552 21.5836 100.212 14.4841C 103.549 10.9549 105.419 7.32422 106.372 4.71658C 106.857 3.37928 107.146 2.21584 107.298 1.44507C 107.376 1.04454 107.427 0.707139 107.455 0.494548C 107.469 0.381045 107.48 0.283216 107.486 0.225022C 107.489 0.192414 107.492 0.16243 107.493 0.14597C 107.494 0.136008 107.495 0.1259 107.495 0.120905C 107.495 0.117548 107.496 0.113734 107.496 0.112055C 107.496 0.110787 107.496 0.109192 107.496 0.108559C 107.496 0.10707 107.496 0.105685 106 0C 104.504 -0.105685 104.504 -0.106865 104.504 -0.107944C 104.504 -0.108168 104.504 -0.109148 104.504 -0.109599C 104.504 -0.109555 104.504 -0.111205 104.504 -0.111105C 104.504 -0.112627 104.504 -0.109944 104.504 -0.106976C 104.503 -0.0975774 104.502 -0.0889781 104.5 -0.0706886C 104.496 -0.0270886 104.49 0.0261327 104.479 0.109651C 104.456 0.291103 104.42 0.531634 104.354 0.866647C 104.217 1.56697 103.987 2.50509 103.553 3.68967C 102.669 6.12578 101.101 9.22012 98.0384 12.4159C 91.9948 18.7664 80.1093 25.4 56.7 25.4L 56.7 28.4ZM 106 -1.5L 91.6 -1.5L 91.6 1.5L 106 1.5L 106 -1.5Z"/>
<path id="path28_fill" d="M 81 3.8147e-07C 27 3.8147e-07 15.8 39.6 15.8 72.6C 15.8 106.9 15.8 118.7 15.8 142C 15.8 166 3.8147e-07 163.7 3.8147e-07 163.7C 3.8147e-07 163.7 0.199999 183.7 28.5 183.7C 52.2 183.7 52.4 165.4 52.4 148.6C 52.4 137.4 52.4 105.9 52.4 105.9L 52.4 62.1C 52.4 55.8 57.5 50.7 63.8 50.7L 88.9 50.7C 95.1 50.7 100.2 45.7 100.3 39.6L 100.6 39.6C 100.8 45.7 105.8 50.7 112 50.7L 120.5 50.7L 120.5 87.4C 120.5 108.3 110.3 124.7 101 132L 101 149.1C 101 156.4 106.9 162.3 114.2 162.3L 124.6 162.3L 125.5 162C 125.6 162.2 155.4 3.8147e-07 81 3.8147e-07Z"/>
<path id="path29_stroke" d="M 3.8147e-07 163.7L 0.216078 162.216C -0.217504 162.153 -0.657008 162.282 -0.986956 162.57C -1.3169 162.859 -1.50431 163.277 -1.49992 163.715L 3.8147e-07 163.7ZM 100.3 39.6L 100.3 38.1C 99.4812 38.1 98.8136 38.7567 98.8002 39.5754L 100.3 39.6ZM 100.6 39.6L 102.099 39.5508C 102.073 38.742 101.409 38.1 100.6 38.1L 100.6 39.6ZM 120.5 50.7L 122 50.7C 122 49.8716 121.328 49.2 120.5 49.2L 120.5 50.7ZM 101 132L 100.074 130.82C 99.7116 131.104 99.5 131.539 99.5 132L 101 132ZM 124.6 162.3L 124.6 163.8C 124.761 163.8 124.921 163.774 125.074 163.723L 124.6 162.3ZM 125.5 162L 126.842 161.329C 126.508 160.662 125.734 160.341 125.026 160.577L 125.5 162ZM 81 -1.5C 53.5772 -1.5 36.7785 8.58826 26.9101 23.0807C 17.1123 37.4698 14.3 55.9773 14.3 72.6L 17.3 72.6C 17.3 56.2227 20.0877 38.4302 29.3899 24.7693C 38.6215 11.2117 54.4228 1.5 81 1.5L 81 -1.5ZM 14.3 72.6C 14.3 106.9 14.3 118.7 14.3 142L 17.3 142C 17.3 118.7 17.3 106.9 17.3 72.6L 14.3 72.6ZM 14.3 142C 14.3 153.653 10.4899 158.5 7.11521 160.572C 5.35428 161.675 3.69829 162.046 2.30828 162.193C 1.64304 162.266 1.13398 162.268 0.734474 162.253C 0.547918 162.246 0.42128 162.236 0.31921 162.227C 0.274352 162.222 0.249248 162.22 0.225614 162.217C 0.216779 162.216 0.214557 162.215 0.209962 162.215C 0.209129 162.215 0.209807 162.215 0.210252 162.215C 0.209749 162.215 0.212713 162.215 0.212467 162.215C 0.212951 162.215 0.213856 162.215 0.214097 162.215C 0.215058 162.215 0.216078 162.216 3.8147e-07 163.7C -0.216077 165.184 -0.214936 165.185 -0.213735 165.185C -0.213254 165.185 -0.211988 165.185 -0.211024 165.185C -0.209817 165.185 -0.206912 165.186 -0.204495 165.186C -0.201113 165.186 -0.193819 165.187 -0.187058 165.188C -0.176464 165.19 -0.156023 165.192 -0.134963 165.195C -0.0988074 165.199 -0.0351911 165.206 0.0356739 165.213C 0.165049 165.225 0.377864 165.242 0.623339 165.251C 1.0879 165.268 1.81321 165.262 2.62922 165.176C 4.20171 165.004 6.49572 164.45 8.68479 163.128C 13.2101 160.35 17.3 154.347 17.3 142L 14.3 142ZM 3.8147e-07 163.7C -1.49992 163.715 -1.49991 163.716 -1.4999 163.717C -1.49989 163.718 -1.49988 163.719 -1.49987 163.72C -1.49985 163.721 -1.49981 163.724 -1.49977 163.727C -1.49971 163.731 -1.49957 163.739 -1.49941 163.746C -1.49914 163.759 -1.49856 163.782 -1.49775 163.807C -1.49631 163.85 -1.49324 163.925 -1.4884 164.01C -1.47924 164.169 -1.4601 164.424 -1.42696 164.725C -1.36264 165.301 -1.2284 166.179 -0.983193 167.183C -0.500845 169.136 0.517173 171.9 2.41875 174.574C 6.33318 180.03 13.9498 185.2 28.5 185.2L 28.5 182.2C 14.7502 182.2 8.11682 177.37 4.85624 172.826C 3.17033 170.5 2.36959 168.264 1.93007 166.467C 1.71434 165.596 1.61186 164.911 1.5547 164.394C 1.5271 164.148 1.5143 163.973 1.50671 163.839C 1.50317 163.778 1.50167 163.74 1.50063 163.708C 1.50019 163.695 1.50006 163.689 1.49992 163.683C 1.49987 163.681 1.49985 163.679 1.49987 163.68C 1.49987 163.68 1.49989 163.682 1.49989 163.682C 1.49989 163.682 1.4999 163.683 1.49991 163.683C 1.49992 163.684 1.49993 163.685 3.8147e-07 163.7ZM 28.5 185.2C 34.6131 185.2 39.3523 184.02 42.9952 181.87C 46.5678 179.733 49.1108 176.57 50.7047 173.067C 53.8762 166.04 53.9 156.909 53.9 148.6L 50.9 148.6C 50.9 157.091 50.8238 165.51 47.9703 171.833C 46.5517 175.005 44.601 177.467 41.4704 179.286C 38.4102 181.092 34.2369 182.2 28.5 182.2L 28.5 185.2ZM 53.9 148.6C 53.9 143 53.9 132.325 53.9 123.05C 53.9 118.412 53.9 114.125 53.9 110.997C 53.9 109.433 53.9 108.159 53.9 107.275C 53.9 106.834 53.9 106.49 53.9 106.256C 53.9 106.14 53.9 106.051 53.9 105.991C 53.9 105.961 53.9 105.938 53.9 105.923C 53.9 105.915 53.9 105.91 53.9 105.906C 53.9 105.904 53.9 105.902 53.9 105.901C 53.9 105.901 53.9 105.901 53.9 105.9C 53.9 105.9 53.9 105.9 52.4 105.9C 50.9 105.9 50.9 105.9 50.9 105.9C 50.9 105.901 50.9 105.901 50.9 105.901C 50.9 105.902 50.9 105.904 50.9 105.906C 50.9 105.91 50.9 105.915 50.9 105.923C 50.9 105.938 50.9 105.961 50.9 105.991C 50.9 106.051 50.9 106.14 50.9 106.256C 50.9 106.49 50.9 106.834 50.9 107.275C 50.9 108.159 50.9 109.433 50.9 110.997C 50.9 114.125 50.9 118.412 50.9 123.05C 50.9 132.325 50.9 143 50.9 148.6L 53.9 148.6ZM 53.9 105.9L 53.9 62.1L 50.9 62.1L 50.9 105.9L 53.9 105.9ZM 53.9 62.1C 53.9 56.6284 58.3284 52.2 63.8 52.2L 63.8 49.2C 56.6716 49.2 50.9 54.9716 50.9 62.1L 53.9 62.1ZM 63.8 52.2L 88.9 52.2L 88.9 49.2L 63.8 49.2L 63.8 52.2ZM 88.9 52.2C 95.9074 52.2 101.686 46.5547 101.8 39.6246L 98.8002 39.5754C 98.7138 44.8453 94.2926 49.2 88.9 49.2L 88.9 52.2ZM 100.3 41.1L 100.6 41.1L 100.6 38.1L 100.3 38.1L 100.3 41.1ZM 99.1008 39.6492C 99.3267 46.538 104.971 52.2 112 52.2L 112 49.2C 106.629 49.2 102.273 44.862 102.099 39.5508L 99.1008 39.6492ZM 112 52.2L 120.5 52.2L 120.5 49.2L 112 49.2L 112 52.2ZM 119 50.7L 119 87.4L 122 87.4L 122 50.7L 119 50.7ZM 119 87.4C 119 107.838 109.012 123.804 100.074 130.82L 101.926 133.18C 111.588 125.596 122 108.762 122 87.4L 119 87.4ZM 99.5 132L 99.5 149.1L 102.5 149.1L 102.5 132L 99.5 132ZM 99.5 149.1C 99.5 157.228 106.072 163.8 114.2 163.8L 114.2 160.8C 107.728 160.8 102.5 155.572 102.5 149.1L 99.5 149.1ZM 114.2 163.8L 124.6 163.8L 124.6 160.8L 114.2 160.8L 114.2 163.8ZM 125.074 163.723L 125.974 163.423L 125.026 160.577L 124.126 160.877L 125.074 163.723ZM 124.158 162.671C 125.152 163.459 126.651 162.963 126.844 162.667C 126.88 162.59 126.923 162.476 126.935 162.439C 126.946 162.403 126.96 162.349 126.966 162.325C 126.974 162.292 126.985 162.242 126.995 162.197C 127.012 162.114 127.037 161.988 127.066 161.832C 127.124 161.526 127.208 161.066 127.312 160.472C 127.518 159.289 127.81 157.542 128.151 155.324C 128.831 150.898 129.718 144.545 130.543 136.934C 132.191 121.727 133.606 101.356 132.686 81.0071C 131.764 60.6737 128.504 40.1519 120.694 24.6652C 112.84 9.09087 100.303 -1.5 81 -1.5L 81 1.5C 98.8974 1.5 110.535 11.1841 118.015 26.0161C 125.54 40.9356 128.774 60.9513 129.689 81.1429C 130.606 101.319 129.203 121.461 127.56 136.61C 126.74 144.176 125.863 150.463 125.186 154.868C 124.848 157.067 124.561 158.784 124.356 159.956C 124.255 160.539 124.175 160.978 124.119 161.274C 124.091 161.419 124.071 161.52 124.057 161.587C 124.051 161.617 124.048 161.629 124.049 161.625C 124.048 161.632 124.078 161.523 124.07 161.551C 124.08 161.518 124.123 161.407 124.158 161.331C 124.351 161.037 125.849 160.541 126.842 161.329L 124.158 162.671Z"/>
<path id="path30_fill" d="M 0.139762 51.5398C -1.86024 25.2398 17.8398 2.13976 44.1398 0.139763C 70.4398 -1.86024 93.5398 17.8398 95.5398 44.1398L 0.139762 51.5398Z"/>
<path id="path31_stroke" d="M 0.139762 51.5398L -1.35592 51.6535C -1.32572 52.0506 -1.13888 52.4193 -0.836557 52.6785C -0.534237 52.9377 -0.14126 53.0661 0.255766 53.0353L 0.139762 51.5398ZM 95.5398 44.1398L 95.6558 45.6353C 96.4808 45.5713 97.0982 44.8512 97.0354 44.026L 95.5398 44.1398ZM 1.63544 51.426C -0.302188 25.9462 18.7854 3.57218 44.2535 1.63544L 44.026 -1.35592C 16.8941 0.707346 -3.41829 24.5334 -1.35592 51.6535L 1.63544 51.426ZM 44.2535 1.63544C 69.7334 -0.302187 92.1073 18.7854 94.0441 44.2535L 97.0354 44.026C 94.9722 16.8941 71.1462 -3.41829 44.026 -1.35592L 44.2535 1.63544ZM 95.4238 42.6443L 0.023758 50.0443L 0.255766 53.0353L 95.6558 45.6353L 95.4238 42.6443Z"/>
<path id="path32_fill" d="M 65.9373 18.2297C 93.1373 16.1297 117.037 21.7297 127.237 31.3297C 128.637 28.8297 129.337 26.1297 129.137 23.5297C 127.937 8.02975 98.0373 -2.27025 62.4373 0.429746C 26.7373 3.12975 -1.1627 17.9297 0.0373026 33.4297C 0.337303 37.1297 2.2373 40.4297 5.4373 43.4297C 12.1373 31.0297 36.3373 20.5297 65.9373 18.2297Z"/>
<path id="path33_stroke" d="M 65.9373 18.2297L 65.8218 16.7342L 65.8211 16.7343L 65.9373 18.2297ZM 127.237 31.3297L 126.209 32.422C 126.546 32.7386 127.009 32.8825 127.465 32.8123C 127.922 32.7421 128.32 32.4656 128.546 32.0627L 127.237 31.3297ZM 129.137 23.5297L 130.633 23.4147L 130.633 23.414L 129.137 23.5297ZM 62.4373 0.429746L 62.5504 1.92547L 62.5507 1.92545L 62.4373 0.429746ZM 0.0373026 33.4297L -1.45823 33.5455L -1.45779 33.551L 0.0373026 33.4297ZM 5.4373 43.4297L 4.41139 44.5241C 4.75082 44.8423 5.21871 44.985 5.67795 44.9103C 6.1372 44.8357 6.53581 44.5521 6.75698 44.1428L 5.4373 43.4297ZM 66.0528 19.7253C 79.5438 18.6797 92.0997 19.5396 102.641 21.8574C 113.169 24.1681 121.391 27.8875 126.209 32.422L 128.265 30.2374C 122.883 25.172 114.056 21.2914 103.284 18.9271C 92.5249 16.5699 79.5308 15.6798 65.8218 16.7342L 66.0528 19.7253ZM 128.546 32.0627C 130.029 29.389 130.831 26.2623 130.633 23.4147L 127.642 23.6448C 127.843 25.9972 127.245 28.2705 125.929 30.5968L 128.546 32.0627ZM 130.633 23.414C 130.294 19.0403 127.934 15.1541 124.206 11.8753C 120.542 8.66596 115.326 5.86787 109.177 3.73709C 96.9458 -0.482711 80.2672 -2.41996 62.3239 -1.06596L 62.5507 1.92545C 80.2074 0.579449 96.2788 2.4422 108.197 6.5724C 114.124 8.61663 118.832 11.131 122.225 14.128C 125.553 17.0554 127.38 20.2692 127.642 23.6455L 130.633 23.414ZM 62.3242 -1.06598C 44.3306 0.301879 28.1342 4.76046 16.698 10.804C 10.9509 13.8516 6.2305 17.419 3.10792 21.1544C -0.067363 24.9687 -1.79675 29.1729 -1.45822 33.5455L 1.53283 33.314C 1.27136 29.9366 2.57947 26.4783 5.41356 23.0738C 8.30036 19.5905 12.5612 16.3829 18.1016 13.4555C 29.2404 7.54903 44.844 3.25761 62.5504 1.92547L 62.3242 -1.06598ZM -1.45779 33.551C -1.11918 37.7272 1.02758 41.3517 4.41139 44.5241L 6.46321 42.3354C 3.44702 39.5078 1.79378 36.5323 1.5324 33.3085L -1.45779 33.551ZM 6.75698 44.1428C 9.86409 38.3923 17.2064 32.84 27.6824 28.4245C 38.1538 24.0054 51.3697 20.8616 66.0535 19.7252L 65.8211 16.7343C 50.9049 17.8979 37.2208 21.1541 26.5172 25.66C 15.8182 30.1695 7.71051 36.0672 4.11762 42.7167L 6.75698 44.1428Z"/>
<path id="path34_stroke" d="M -0.245145 -0.625726C -0.922095 -0.490336 -1.36112 0.168195 -1.22573 0.845145C -1.09034 1.52209 -0.431805 1.96112 0.245145 1.82573L -0.245145 -0.625726ZM 4.58315 1.24723C 5.27198 1.20131 5.79315 0.605678 5.74723 -0.0831489C 5.70131 -0.771976 5.10568 -1.29315 4.41685 -1.24723L 4.58315 1.24723ZM 0.245145 1.82573C 1.70528 1.53303 3.12424 1.34381 4.58315 1.24723L 4.41685 -1.24723C 2.87576 -1.14381 1.29472 -0.933029 -0.245145 -0.625726L 0.245145 1.82573Z"/>
<path id="path35_stroke" d="M -1.22573 32.4549C -1.36112 33.1318 -0.922096 33.7903 -0.245146 33.9257C 0.431804 34.0611 1.09034 33.6221 1.22573 32.9451L -1.22573 32.4549ZM 9.4 13.6L 10.3418 14.4219L 10.3451 14.4181L 9.4 13.6ZM 31.2338 1.20461C 31.8991 1.02025 32.289 0.331479 32.1046 -0.333806C 31.9202 -0.999091 31.2315 -1.38896 30.5662 -1.2046L 31.2338 1.20461ZM 1.22573 32.9451C 2.58479 26.0985 5.64249 19.7897 10.3418 14.4219L 8.45822 12.7781C 3.55751 18.4103 0.215206 25.3015 -1.22573 32.4549L 1.22573 32.9451ZM 10.3451 14.4181C 16.0117 7.85062 23.102 3.44478 31.2338 1.20461L 30.5662 -1.2046C 22.098 1.15522 14.3883 5.94938 8.45492 12.7819L 10.3451 14.4181Z"/>
<path id="path36_fill" d="M 0 22.6C 0 14.3 0.699998 6.8 2.1 0Z"/>
<path id="path37_stroke" d="M -1.5 22.6C -1.5 23.4284 -0.828427 24.1 0 24.1C 0.828427 24.1 1.5 23.4284 1.5 22.6L -1.5 22.6ZM 3.56918 0.302479C 3.73624 -0.508929 3.21389 -1.30213 2.40248 -1.46919C 1.59107 -1.63624 0.797868 -1.11389 0.630813 -0.302479L 3.56918 0.302479ZM 1.5 22.6C 1.49838 14.3698 2.18359 7.02127 3.56918 0.302479L 0.630813 -0.302479C -0.783591 6.57873 -1.49838 14.2302 -1.5 22.6L 1.5 22.6Z"/>
<path id="path38_stroke" d="M -1.25 58.4C -1.25 59.0904 -0.690356 59.65 0 59.65C 0.690356 59.65 1.25 59.0904 1.25 58.4L -1.25 58.4ZM 1.25 0C 1.25 -0.690356 0.690356 -1.25 0 -1.25C -0.690356 -1.25 -1.25 -0.690356 -1.25 0L 1.25 0ZM 1.25 58.4L 1.25 0L -1.25 0L -1.25 58.4L 1.25 58.4Z"/>
<path id="path39_fill" d="M 6 0C 4.7 0.2 3.3 0.199997 1.7 0.199997C 1.1 0.199997 0.500002 0.199997 1.52588e-06 0.199997"/>
<path id="path40_stroke" d="M 6.19007 1.23546C 6.8724 1.13049 7.34044 0.492257 7.23547 -0.190071C 7.13049 -0.8724 6.49226 -1.34044 5.80993 -1.23546L 6.19007 1.23546ZM 1.52588e-06 -1.05C -0.690354 -1.05 -1.25 -0.490359 -1.25 0.199997C -1.25 0.890353 -0.690354 1.45 1.52588e-06 1.45L 1.52588e-06 -1.05ZM 5.80993 -1.23546C 4.60469 -1.04636 3.3 -1.05 1.7 -1.05L 1.7 1.45C 3.3 1.45 4.79531 1.44636 6.19007 1.23546L 5.80993 -1.23546ZM 1.7 -1.05C 1.1 -1.05 0.500002 -1.05 1.52588e-06 -1.05L 1.52588e-06 1.45C 0.500002 1.45 1.1 1.45 1.7 1.45L 1.7 -1.05Z"/>
<path id="path41_stroke" d="M 12.7719 0.643117C 13.1271 0.0511413 12.9351 -0.716684 12.3431 -1.07187C 11.7511 -1.42705 10.9833 -1.2351 10.6281 -0.643123L 12.7719 0.643117ZM -0.490707 122.35C -1.12564 122.621 -1.42067 123.356 -1.14966 123.991C -0.878646 124.626 -0.144231 124.921 0.490706 124.65L -0.490707 122.35ZM 10.6281 -0.643123C 9.05898 1.98953 8.06412 5.21264 8.05 8.6L 10.55 8.6C 10.5359 5.58737 11.341 3.01046 12.7719 0.643117L 10.6281 -0.643123ZM 8.05 8.6L 8.05 52.3L 10.55 52.3L 10.55 8.6L 8.05 8.6ZM 9.3 52.3C 8.05 52.3 8.05 52.3001 8.05 52.3004C 8.05 52.3006 8.05 52.301 8.05 52.3014C 8.05 52.3024 8.05 52.3038 8.05 52.3058C 8.05 52.3096 8.05 52.3153 8.05 52.3229C 8.05 52.3382 8.05 52.3609 8.05 52.391C 8.05 52.4511 8.05 52.5405 8.05 52.6576C 8.05 52.8917 8.05 53.2366 8.05 53.6795C 8.05 54.5652 8.05 55.843 8.05 57.4109C 8.05 60.5469 8.05 64.8437 8.05 69.4875C 8.05 78.775 8.05 89.45 8.05 95L 10.55 95C 10.55 89.45 10.55 78.775 10.55 69.4875C 10.55 64.8437 10.55 60.5469 10.55 57.4109C 10.55 55.843 10.55 54.5652 10.55 53.6795C 10.55 53.2366 10.55 52.8917 10.55 52.6576C 10.55 52.5405 10.55 52.4511 10.55 52.391C 10.55 52.3609 10.55 52.3382 10.55 52.3229C 10.55 52.3153 10.55 52.3096 10.55 52.3058C 10.55 52.3038 10.55 52.3024 10.55 52.3014C 10.55 52.301 10.55 52.3006 10.55 52.3004C 10.55 52.3001 10.55 52.3 9.3 52.3ZM 8.05 95C 8.05 102.863 7.76911 108.953 6.51978 113.493C 5.29224 117.955 3.17046 120.788 -0.490707 122.35L 0.490706 124.65C 5.02953 122.712 7.55776 119.145 8.93021 114.157C 10.2809 109.247 10.55 102.837 10.55 95L 8.05 95Z"/>
<path id="path42_fill" d="M 2.8 -1.52588e-06C 1.8 0.399998 0.900003 0.899998 3.05176e-06 1.5Z"/>
<path id="path43_stroke" d="M 3.26424 1.16059C 3.90522 0.904203 4.21699 0.17674 3.96059 -0.46424C 3.7042 -1.10522 2.97674 -1.41699 2.33576 -1.1606L 3.26424 1.16059ZM -0.693372 0.459936C -1.26778 0.842876 -1.423 1.61896 -1.04006 2.19337C -0.657119 2.76778 0.118967 2.923 0.693378 2.54006L -0.693372 0.459936ZM 2.33576 -1.1606C 1.26328 -0.728908 0.249255 -0.167254 -0.693372 0.459936L 0.693378 2.54006C 1.55075 1.96725 2.33672 1.5289 3.26424 1.16059L 2.33576 -1.1606Z"/>
<path id="path44_stroke" d="M 35.533 -0.205497C 35.4195 -0.88646 34.7755 -1.34648 34.0945 -1.23299C 33.4135 -1.1195 32.9535 -0.475463 33.067 0.2055L 35.533 -0.205497ZM 34.8 3.5L 36.0478 3.5734C 36.0533 3.48017 36.0483 3.38662 36.033 3.2945L 34.8 3.5ZM -0.22361 8.57016C -0.90283 8.69366 -1.35334 9.34439 -1.22984 10.0236C -1.10635 10.7028 -0.455617 11.1533 0.223604 11.0298L -0.22361 8.57016ZM 33.067 0.2055C 33.2602 1.35945 33.3602 2.45945 33.567 3.7055L 36.033 3.2945C 35.8398 2.14056 35.7398 1.04056 35.533 -0.205497L 33.067 0.2055ZM 33.5522 3.4266C 33.3916 6.15605 31.1481 8.25 28.4 8.25L 28.4 10.75C 32.4519 10.75 35.8084 7.64396 36.0478 3.5734L 33.5522 3.4266ZM 28.4 8.25L 3.3 8.25L 3.3 10.75L 28.4 10.75L 28.4 8.25ZM 3.3 8.25C 2.14336 8.25129 0.931442 8.36142 -0.22361 8.57016L 0.223604 11.0298C 1.26855 10.8386 2.25664 10.7487 3.3 10.75L 3.3 8.25Z"/>
</defs>
</svg>
