<svg width="774" height="670" viewBox="0 0 774 670" xmlns="http://www.w3.org/2000/svg" xmlns:xlink="http://www.w3.org/1999/xlink"><title>path</title><desc>Created using Figma</desc><use xlink:href="#a" fill="#FFF"/><use xlink:href="#b" transform="translate(91 35.55)" fill="#E0E0E0"/><defs><path id="a" d="M0 0h774v670H0V0z"/><path id="b" d="M39.984 25.01c-1.072-.266-2.156.39-2.42 1.46-.265 1.074.39 2.158 1.462 2.422l.958-3.883zm262.52-2.56l-.217-1.99.218 1.99zm131-20l.242 1.985-.24-1.986zm132.5 37.5l-1.642 1.142 1.643-1.14zm-35.5 234.5l1.214 1.59-1.213-1.59zm-236.5-25.5l.306-1.976-.305 1.976zm-182-26v2h.028l.028-.002-.055-2zm-104.5 69l-1.92-.554 1.92.555zm32 188l1.402-1.427-1.4 1.428zm263-14.5l.346 1.97-.345-1.97zm257.75 20.464c.53.968 1.747 1.32 2.715.79.967-.533 1.32-1.75.787-2.717l-3.504 1.927zm-394.25 7.537l.275 1.982-.275-1.98zM40.978 29.366c1.074.256 2.153-.407 2.41-1.48.255-1.076-.41-2.155-1.483-2.41l-.927 3.89zm4.766-3.008c-1.08-.24-2.146.442-2.385 1.52-.24 1.08.442 2.146 1.52 2.385l.865-3.905zm3.05 4.74c1.083.22 2.14-.477 2.36-1.56.222-1.08-.476-2.138-1.558-2.36l-.802 3.92zm4.667-3.162c-1.086-.203-2.13.512-2.335 1.597-.204 1.086.51 2.13 1.597 2.335l.738-3.932zm3.202 4.64c1.09.185 2.122-.547 2.31-1.636.185-1.09-.547-2.123-1.635-2.31l-.675 3.944zm4.563-3.31c-1.09-.17-2.113.578-2.282 1.67-.17 1.09.58 2.113 1.67 2.282l.612-3.953zm3.35 4.534c1.093.15 2.103-.613 2.255-1.707.152-1.094-.61-2.104-1.705-2.256l-.55 3.962zm4.458-3.45c-1.097-.136-2.095.643-2.23 1.74-.137 1.096.642 2.094 1.738 2.23l.493-3.97zm3.48 4.433c1.1.12 2.087-.673 2.207-1.77.12-1.1-.673-2.087-1.77-2.207l-.436 3.977zm4.36-3.575c-1.1-.105-2.077.7-2.182 1.8-.104 1.1.703 2.077 1.802 2.182l.38-3.982zm3.6 4.336c1.1.09 2.067-.727 2.158-1.828.093-1.1-.726-2.067-1.827-2.158l-.33 3.986zm4.267-3.684c-1.102-.078-2.058.752-2.136 1.853-.078 1.102.752 2.06 1.853 2.137l.283-3.99zm3.703 4.25c1.103.066 2.05-.775 2.116-1.877.065-1.103-.775-2.05-1.878-2.116l-.24 3.993zm4.186-3.777c-1.104-.055-2.043.795-2.098 1.898-.055 1.104.795 2.043 1.898 2.098l.2-3.995zm3.787 4.176c1.104.044 2.035-.814 2.08-1.918.045-1.104-.813-2.035-1.916-2.08l-.163 3.997zm4.117-3.852c-1.104-.037-2.03.83-2.065 1.933-.037 1.105.828 2.03 1.932 2.065l.132-3.998zm3.85 4.114c1.106.03 2.024-.843 2.052-1.948.03-1.104-.843-2.022-1.947-2.05l-.105 3.998zm4.063-3.91c-1.105-.02-2.017.857-2.04 1.962-.02 1.104.857 2.017 1.96 2.038l.08-4zm3.903 4.068c1.104.016 2.012-.866 2.028-1.97.016-1.105-.866-2.014-1.97-2.03l-.058 4zm4.02-3.95c-1.104-.012-2.008.874-2.02 1.98-.01 1.103.876 2.007 1.98 2.018l.04-4zm3.94 4.03c1.105.007 2.006-.883 2.013-1.987.007-1.105-.883-2.006-1.987-2.013l-.025 4zm3.993-3.98c-1.104-.005-2.003.888-2.006 1.992-.004 1.105.89 2.003 1.994 2.007l.013-4zm3.964 4.006c1.104 0 2-.893 2-1.998.002-1.104-.893-2-1.997-2.002l-.003 4zm3.968-4c-1.105 0-2 .897-1.998 2.002 0 1.104.898 2 2.002 1.998l-.005-4zm3.975 3.993c1.105-.004 1.998-.9 1.996-2.006-.003-1.104-.9-1.998-2.005-1.995l.01 4zm3.96-4.012c-1.106.003-2 .902-1.995 2.006.003 1.105.902 1.997 2.006 1.994l-.01-4zm3.982 3.986c1.105-.003 1.997-.902 1.993-2.007-.004-1.104-.902-1.996-2.007-1.992l.014 4zm3.958-4.014c-1.104.004-1.996.903-1.993 2.007.004 1.105.903 1.997 2.008 1.993l-.015-4zm3.99 3.987c1.104-.004 1.997-.902 1.993-2.007-.004-1.104-.902-1.997-2.006-1.993l.013 4zm3.968-4.012c-1.105.003-1.998.9-1.995 2.005.003 1.105.9 1.998 2.005 1.995l-.01-4zm3.974 3.99c1.104 0 1.998-.898 1.996-2.002-.002-1.105-.9-2-2.003-1.997l.007 4zm3.96-4.004c-1.104.002-2 .898-1.998 2.003 0 1.104.897 2 2 1.998v-4zm4.044 3.998c1.104-.004 1.997-.902 1.994-2.007-.004-1.103-.902-1.996-2.007-1.992l.013 4zm4.003-4.025c-1.105.01-1.992.914-1.982 2.018.01 1.106.914 1.993 2.02 1.983l-.04-4zm4.074 3.948c1.105-.016 1.986-.926 1.968-2.03-.017-1.104-.927-1.986-2.03-1.968l.062 4zm3.965-4.075c-1.106.024-1.98.94-1.955 2.044.025 1.104.94 1.978 2.044 1.953l-.09-3.998zm4.14 3.893c1.105-.033 1.973-.954 1.94-2.06-.032-1.103-.953-1.97-2.057-1.938l.118 3.998zm3.902-4.132c-1.104.04-1.966.97-1.925 2.072.04 1.104.968 1.966 2.072 1.926l-.148-3.998zm4.192 3.835c1.104-.048 1.96-.982 1.91-2.085-.048-1.104-.982-1.96-2.086-1.91l.176 3.996zm3.838-4.187c-1.103.057-1.95.997-1.894 2.1.056 1.103.996 1.952 2.1 1.895l-.206-3.995zm4.247 3.773c1.102-.065 1.943-1.01 1.878-2.114-.064-1.103-1.01-1.944-2.113-1.88l.234 3.994zm3.775-4.244c-1.102.073-1.936 1.026-1.864 2.128.074 1.102 1.027 1.936 2.13 1.863l-.265-3.99zm4.302 3.71c1.102-.082 1.93-1.04 1.848-2.142-.08-1.102-1.04-1.93-2.14-1.848l.292 3.99zm3.714-4.3c-1.1.09-1.92 1.054-1.83 2.155.088 1.1 1.053 1.922 2.154 1.833l-.323-3.987zm4.357 3.647c1.1-.097 1.914-1.068 1.818-2.168-.097-1.1-1.067-1.914-2.168-1.817l.35 3.984zm3.654-4.35c-1.098.103-1.905 1.08-1.8 2.18.103 1.098 1.08 1.906 2.178 1.802l-.377-3.983zm4.406 3.587c1.1-.11 1.9-1.092 1.79-2.19-.112-1.1-1.093-1.9-2.192-1.79l.402 3.98zm3.6-4.396c-1.1.12-1.894 1.104-1.777 2.203.117 1.098 1.102 1.893 2.2 1.776l-.425-3.98zm4.446 3.537c1.097-.123 1.887-1.113 1.764-2.21-.124-1.098-1.114-1.888-2.21-1.765l.446 3.975zm3.55-4.434c-1.096.128-1.88 1.122-1.752 2.22.128 1.096 1.122 1.88 2.22 1.753l-.467-3.973zm4.48 3.493c1.097-.133 1.878-1.13 1.745-2.226-.133-1.097-1.13-1.878-2.227-1.745l.483 3.97zm3.515-4.463c-1.096.137-1.873 1.136-1.736 2.232.138 1.096 1.137 1.874 2.233 1.737l-.496-3.97zm4.504 3.462c1.097-.14 1.87-1.142 1.73-2.238-.14-1.095-1.14-1.87-2.236-1.73l.507 3.968zm3.49-4.483c-1.095.142-1.867 1.146-1.725 2.24.142 1.096 1.145 1.87 2.24 1.727l-.514-3.968zm4.518 3.444c1.096-.144 1.867-1.148 1.723-2.244-.143-1.095-1.147-1.866-2.242-1.722l.52 3.966zm3.478-4.493c-1.095.145-1.866 1.15-1.72 2.245.143 1.095 1.148 1.865 2.243 1.72l-.524-3.965zm4.523 3.438c1.094-.144 1.864-1.148 1.72-2.244-.145-1.095-1.15-1.865-2.245-1.72l.524 3.965zm3.476-4.492c-1.095.144-1.866 1.15-1.722 2.244.143 1.095 1.148 1.866 2.243 1.722l-.52-3.966zm4.52 3.443c1.095-.142 1.867-1.145 1.724-2.24-.143-1.096-1.146-1.868-2.242-1.726l.517 3.967zm3.487-4.484c-1.095.14-1.87 1.143-1.728 2.238.14 1.096 1.143 1.87 2.24 1.73l-.512-3.968zm4.51 3.456c1.096-.138 1.872-1.14 1.733-2.235-.14-1.096-1.14-1.872-2.235-1.733l.503 3.968zm3.508-4.47c-1.095.135-1.873 1.134-1.737 2.23.136 1.096 1.135 1.875 2.23 1.74l-.492-3.97zm4.497 3.477c1.097-.134 1.878-1.13 1.745-2.227-.133-1.097-1.13-1.878-2.227-1.744l.482 3.97zm3.525-4.452c-1.097.13-1.88 1.125-1.75 2.22.13 1.098 1.123 1.882 2.22 1.753l-.47-3.972zm4.466 3.506c1.097-.126 1.885-1.118 1.758-2.215-.126-1.1-1.118-1.886-2.215-1.76l.458 3.974zm3.555-4.43c-1.098.124-1.888 1.113-1.766 2.21.123 1.1 1.112 1.89 2.21 1.767l-.444-3.975zm4.4 3.537c1.1-.123 1.888-1.113 1.764-2.21-.124-1.1-1.114-1.888-2.212-1.764l.45 3.975zm3.413-4.422c-1.097.13-1.88 1.126-1.75 2.223.13 1.097 1.126 1.88 2.223 1.75l-.474-3.972zm4.354 3.5c1.096-.138 1.874-1.137 1.737-2.234-.137-1.096-1.136-1.873-2.232-1.737l.495 3.97zm3.362-4.462c-1.096.142-1.868 1.146-1.726 2.24.143 1.096 1.146 1.87 2.24 1.727l-.514-3.967zm4.39 3.453c1.095-.148 1.862-1.155 1.715-2.25-.148-1.095-1.155-1.863-2.25-1.715l.535 3.964zm3.318-4.493c-1.094.152-1.857 1.163-1.704 2.257.152 1.094 1.163 1.857 2.257 1.704l-.553-3.96zm4.42 3.413c1.094-.157 1.853-1.17 1.696-2.264-.158-1.093-1.17-1.852-2.265-1.695l.57 3.96zm3.28-4.52c-1.09.162-1.846 1.178-1.685 2.27.16 1.094 1.178 1.85 2.27 1.688l-.584-3.958zm4.448 3.38c1.092-.165 1.844-1.184 1.68-2.276-.167-1.092-1.186-1.844-2.278-1.678l.598 3.955zm3.25-4.542c-1.092.168-1.84 1.19-1.672 2.28.17 1.093 1.19 1.84 2.282 1.673l-.61-3.952zm4.468 3.35c1.09-.17 1.836-1.194 1.664-2.285-.17-1.09-1.195-1.837-2.286-1.665l.622 3.95zm3.223-4.56c-1.092.174-1.835 1.2-1.66 2.29.174 1.09 1.2 1.834 2.29 1.66l-.63-3.95zm4.484 3.328c1.09-.177 1.83-1.204 1.653-2.295-.177-1.09-1.204-1.83-2.294-1.652l.64 3.948zm3.2-4.576c-1.09.18-1.827 1.208-1.648 2.298.18 1.09 1.21 1.828 2.298 1.65l-.65-3.948zm4.5 3.31c1.09-.18 1.825-1.21 1.644-2.3-.18-1.09-1.21-1.827-2.3-1.646l.655 3.946zm3.186-4.587c-1.09.182-1.824 1.214-1.642 2.303.183 1.09 1.214 1.824 2.304 1.642l-.662-3.945zm4.51 3.297c1.088-.184 1.822-1.216 1.638-2.305-.184-1.09-1.216-1.823-2.305-1.64l.666 3.945zm3.175-4.595c-1.09.185-1.822 1.218-1.637 2.307.185 1.09 1.217 1.822 2.306 1.637l-.67-3.945zm4.514 3.29c1.088-.185 1.82-1.218 1.635-2.307-.185-1.09-1.218-1.82-2.307-1.636l.67 3.943zm3.17-4.598c-1.088.186-1.82 1.22-1.635 2.308.186 1.09 1.22 1.82 2.308 1.635l-.672-3.943zm4.516 3.288c1.088-.185 1.82-1.218 1.635-2.307-.184-1.09-1.217-1.82-2.306-1.636l.672 3.943zm3.172-4.597c-1.09.185-1.822 1.218-1.637 2.307.186 1.09 1.22 1.822 2.308 1.637l-.67-3.944zm4.512 3.293c1.09-.184 1.822-1.216 1.638-2.305-.184-1.09-1.216-1.823-2.305-1.638l.667 3.944zm3.18-4.59c-1.09.18-1.825 1.213-1.642 2.302.182 1.09 1.214 1.824 2.303 1.64l-.66-3.943zm4.503 3.302c1.09-.18 1.826-1.21 1.645-2.3-.18-1.09-1.21-1.827-2.3-1.646l.655 3.946zm3.194-4.582c-1.09.18-1.83 1.208-1.65 2.298.18 1.09 1.207 1.828 2.297 1.65l-.647-3.948zm4.49 3.322c1.09-.176 1.83-1.203 1.655-2.294-.176-1.09-1.203-1.83-2.293-1.655l.637 3.95zm3.217-4.566c-1.09.173-1.835 1.197-1.662 2.288.173 1.09 1.197 1.835 2.288 1.663l-.626-3.95zm4.47 3.348c1.092-.17 1.84-1.19 1.67-2.282-.168-1.092-1.19-1.84-2.28-1.67l.61 3.952zm3.25-4.542c-1.092.164-1.844 1.183-1.68 2.275.165 1.092 1.184 1.844 2.276 1.68l-.595-3.955zm4.443 3.385c1.093-.16 1.85-1.174 1.69-2.267-.158-1.093-1.173-1.85-2.266-1.69l.577 3.957zm3.295-4.51c-1.094.152-1.857 1.163-1.703 2.257.152 1.094 1.162 1.856 2.256 1.703l-.554-3.96zm4.405 3.434c1.095-.145 1.864-1.15 1.718-2.246-.146-1.095-1.152-1.864-2.247-1.718l.53 3.965zM431.33.704c-1.096.138-1.873 1.138-1.735 2.234.138 1.096 1.138 1.873 2.234 1.735l-.5-3.97zm4.388 3.496c1.097-.13 1.882-1.123 1.754-2.22-.13-1.097-1.122-1.882-2.22-1.754l.466 3.973zm3.558-4.425c-1.1.118-1.894 1.103-1.776 2.202.117 1.098 1.103 1.893 2.2 1.776l-.424-3.978zm4.41 3.573c1.1-.105 1.906-1.082 1.8-2.18-.105-1.1-1.08-1.907-2.18-1.8l.38 3.98zm3.654-4.344c-1.1.092-1.918 1.06-1.826 2.16.092 1.1 1.06 1.918 2.16 1.826l-.334-3.986zm4.322 3.678c1.102-.08 1.932-1.035 1.854-2.137-.078-1.102-1.034-1.932-2.136-1.854l.282 3.992zm3.763-4.25c-1.103.064-1.946 1.01-1.883 2.11.063 1.104 1.008 1.947 2.11 1.884l-.227-3.993zm4.22 3.795c1.103-.046 1.96-.98 1.912-2.083-.046-1.103-.98-1.96-2.083-1.913l.17 3.997zm3.884-4.137c-1.105.03-1.976.95-1.947 2.053.03 1.104.95 1.975 2.054 1.946l-.108-4zm4.1 3.923c1.104-.01 1.99-.916 1.978-2.02-.012-1.105-.916-1.99-2.02-1.98l.042 4zm4.018-4.008c-1.104-.007-2.006.882-2.013 1.987-.007 1.104.882 2.006 1.987 2.013l.026-4zm3.964 4.063c1.104.027 2.022-.846 2.05-1.95.027-1.104-.846-2.022-1.95-2.05l-.1 4zm4.163-3.86c-1.104-.048-2.038.807-2.086 1.91-.05 1.104.805 2.038 1.908 2.087l.177-3.996zm3.804 4.213c1.1.072 2.053-.763 2.124-1.866.07-1.102-.765-2.053-1.867-2.125l-.258 3.99zm4.314-3.685c-1.1-.095-2.07.72-2.164 1.82-.095 1.1.72 2.07 1.82 2.165l.344-3.985zm3.617 4.372c1.1.12 2.086-.673 2.206-1.77.12-1.1-.673-2.087-1.77-2.207l-.435 3.977zm4.48-3.486c-1.096-.145-2.102.624-2.25 1.718-.145 1.095.624 2.1 1.72 2.248l.53-3.965zm3.402 4.542c1.09.174 2.116-.57 2.29-1.66.174-1.09-.57-2.116-1.66-2.29l-.63 3.95zm4.65-3.254c-1.086-.203-2.13.512-2.334 1.598-.203 1.085.512 2.13 1.598 2.334l.736-3.932zm3.154 4.717c1.08.234 2.145-.45 2.38-1.53.233-1.08-.452-2.145-1.532-2.38l-.848 3.91zm4.828-2.983c-1.072-.267-2.157.386-2.424 1.458-.266 1.072.387 2.157 1.46 2.424l.964-3.882zm2.864 4.898c1.063.3 2.168-.318 2.47-1.38.3-1.064-.32-2.17-1.382-2.47l-1.088 3.85zm5.007-2.67c-1.052-.337-2.177.244-2.513 1.296-.336 1.052.244 2.178 1.297 2.514l1.215-3.81zm2.53 5.08c1.04.372 2.184-.17 2.557-1.208.373-1.04-.167-2.185-1.207-2.558l-1.35 3.765zm5.183-2.31c-1.025-.412-2.19.085-2.6 1.11-.413 1.025.084 2.19 1.11 2.6l1.49-3.71zm2.143 5.253c1.01.45 2.192 0 2.643-1.008.452-1.008 0-2.192-1.008-2.643l-1.634 3.65zm5.35-1.896c-.99-.493-2.19-.09-2.683.898-.492.99-.09 2.19.9 2.682l1.782-3.58zm1.704 5.41c.967.535 2.184.185 2.718-.782.534-.967.184-2.184-.783-2.718l-1.936 3.5zm5.492-1.43c-.942-.577-2.173-.28-2.75.66-.577.943-.28 2.174.66 2.75l2.09-3.41zm1.216 5.54c.914.62 2.158.382 2.778-.533.62-.914.38-2.158-.534-2.777l-2.244 3.31zm5.598-.92c-.884-.662-2.138-.483-2.8.4-.663.885-.483 2.14.4 2.8l2.4-3.2zm.686 5.63c.85.705 2.11.587 2.816-.264.704-.85.585-2.112-.266-2.816l-2.55 3.08zm5.66-.373c-.814-.746-2.08-.69-2.825.125-.745.814-.688 2.08.127 2.825l2.7-2.95zm.132 5.673c.777.785 2.043.792 2.828.015.785-.777.792-2.043.015-2.83l-2.842 2.815zm5.674.195c-.737-.823-2-.893-2.824-.157-.823.737-.893 2-.156 2.824l2.98-2.668zm-.44 5.652c.696.858 1.955.99 2.813.296.86-.695.992-1.955.297-2.813l-3.11 2.517zm5.62.746c-.65-.892-1.903-1.086-2.794-.434-.892.652-1.086 1.904-.434 2.795l3.23-2.36zm-1.024 5.54c.604.926 1.843 1.187 2.768.584.925-.604 1.186-1.843.583-2.768l-3.352 2.185zm5.498 1.316c-.553-.956-1.776-1.284-2.732-.732-.957.553-1.284 1.776-.732 2.733l3.464-2zM569.3 49.36c.507.983 1.714 1.367 2.695.86.98-.507 1.366-1.713.86-2.694L569.3 49.36zm5.335 1.8c-.466-1-1.655-1.435-2.657-.97-1 .466-1.436 1.655-.97 2.657l3.627-1.686zm-2.04 5.28c.426 1.02 1.598 1.498 2.617 1.07 1.02-.427 1.498-1.6 1.07-2.617l-3.688 1.547zm5.175 2.175c-.393-1.032-1.548-1.55-2.58-1.158-1.033.393-1.55 1.548-1.158 2.58l3.738-1.422zm-2.403 5.105c.36 1.044 1.5 1.598 2.544 1.237 1.045-.36 1.6-1.5 1.238-2.543l-3.78 1.306zm5.043 2.525c-.33-1.054-1.454-1.64-2.507-1.31-1.054.332-1.64 1.454-1.31 2.508l3.817-1.198zm-2.696 4.94c.303 1.063 1.41 1.68 2.472 1.376 1.062-.303 1.678-1.41 1.375-2.472l-3.846 1.098zm4.908 2.808c-.276-1.07-1.368-1.712-2.437-1.435-1.07.277-1.712 1.368-1.435 2.438l3.872-1.003zm-2.938 4.79c.252 1.075 1.328 1.742 2.404 1.49 1.075-.253 1.742-1.33 1.49-2.404l-3.894.912zm4.773 3.03c-.228-1.08-1.29-1.77-2.37-1.542-1.08.23-1.772 1.29-1.543 2.372l3.913-.828zm-3.144 4.658c.207 1.086 1.254 1.8 2.34 1.592 1.084-.206 1.796-1.253 1.59-2.338l-3.93.747zm4.644 3.22c-.185-1.09-1.218-1.82-2.307-1.636-1.09.184-1.822 1.217-1.637 2.306l3.944-.67zm-3.325 4.538c.165 1.092 1.184 1.844 2.276 1.68 1.092-.165 1.844-1.184 1.68-2.276l-3.956.596zm4.518 3.388c-.144-1.095-1.15-1.865-2.244-1.72-1.095.144-1.866 1.148-1.72 2.243l3.964-.524zm-3.486 4.417c.125 1.097 1.116 1.885 2.214 1.76 1.097-.126 1.885-1.117 1.76-2.214l-3.974.453zm4.396 3.544c-.107-1.1-1.084-1.905-2.184-1.798-1.1.106-1.904 1.083-1.798 2.183l3.982-.386zm-3.636 4.295c.09 1.1 1.053 1.922 2.154 1.834 1.1-.088 1.922-1.052 1.834-2.153l-3.988.32zm4.276 3.69c-.07-1.103-1.02-1.94-2.123-1.87-1.102.07-1.94 1.022-1.87 2.124l3.993-.255zm-3.773 4.174c.053 1.103.99 1.955 2.094 1.902 1.104-.053 1.956-.99 1.903-2.093l-3.996.19zm4.157 3.824c-.036-1.104-.96-1.97-2.064-1.935-1.104.036-1.97.96-1.934 2.064l3.998-.13zm-3.902 4.054c.018 1.104.928 1.985 2.033 1.966 1.104-.018 1.985-.93 1.966-2.033l-3.998.067zm4.035 3.947c0-1.103-.898-1.998-2.002-1.996-1.105.002-2 .898-1.998 2.003l4-.006zm-4.024 3.938c-.015 1.104.868 2.012 1.973 2.027 1.104.015 2.012-.868 2.027-1.972l-4-.055zm3.915 4.062c.03-1.104-.838-2.025-1.942-2.057-1.104-.03-2.025.838-2.057 1.942l3.998.115zm-4.142 3.82c-.05 1.103.807 2.036 1.91 2.085 1.104.048 2.038-.807 2.086-1.91l-3.996-.176zm3.79 4.174c.065-1.103-.776-2.05-1.878-2.115-1.103-.066-2.05.775-2.115 1.878l3.993.236zm-4.255 3.696c-.08 1.1.746 2.06 1.848 2.142 1.1.082 2.06-.745 2.142-1.846l-3.99-.296zm3.664 4.284c.098-1.1-.714-2.072-1.814-2.17-1.1-.098-2.072.714-2.17 1.814l3.984.356zm-4.366 3.568c-.115 1.1.682 2.083 1.78 2.198 1.1.115 2.083-.682 2.2-1.78l-3.98-.418zm3.53 4.393c.133-1.097-.65-2.093-1.746-2.225-1.096-.132-2.092.65-2.225 1.747l3.972.478zm-4.472 3.432c-.15 1.095.617 2.103 1.71 2.252 1.096.148 2.104-.618 2.253-1.713l-3.964-.54zm3.39 4.5c.168-1.09-.583-2.11-1.675-2.277-1.09-.167-2.11.584-2.277 1.676l3.954.602zm-4.577 3.29c-.185 1.088.55 2.12 1.638 2.304 1.09.185 2.12-.55 2.305-1.638l-3.944-.666zm3.244 4.608c.202-1.086-.515-2.13-1.6-2.33-1.087-.203-2.13.514-2.332 1.6l3.932.73zm-4.682 3.136c-.22 1.083.48 2.14 1.562 2.358 1.083.22 2.138-.48 2.358-1.563l-3.92-.794zm3.09 4.716c.24-1.08-.443-2.146-1.522-2.384-1.08-.237-2.146.444-2.383 1.523l3.906.86zm-4.785 2.975c-.256 1.076.407 2.154 1.482 2.41 1.073.257 2.152-.407 2.408-1.48l-3.89-.93zm2.927 4.82c.275-1.07-.37-2.16-1.44-2.435-1.068-.275-2.16.37-2.434 1.44l3.874.995zm-4.888 2.806c-.294 1.064.33 2.166 1.395 2.46 1.066.295 2.167-.33 2.462-1.394l-3.856-1.066zm2.752 4.92c.314-1.06-.29-2.173-1.35-2.487-1.058-.315-2.17.29-2.485 1.348l3.835 1.137zm-4.99 2.624c-.333 1.053.25 2.177 1.302 2.51 1.053.335 2.177-.248 2.51-1.3l-3.81-1.21zm2.564 5.017c.355-1.046-.206-2.182-1.252-2.536-1.046-.354-2.18.206-2.536 1.252l3.788 1.285zm-5.09 2.43c-.375 1.04.162 2.185 1.2 2.56 1.04.377 2.186-.16 2.562-1.2l-3.76-1.36zm2.36 5.113c.398-1.03-.115-2.188-1.146-2.586-1.03-.397-2.188.117-2.586 1.147l3.733 1.44zm-5.187 2.22c-.42 1.02.07 2.19 1.09 2.61 1.023.418 2.19-.07 2.61-1.092l-3.7-1.52zm2.14 5.208c.44-1.013-.022-2.192-1.034-2.633-1.01-.442-2.19.02-2.632 1.032l3.666 1.6zm-5.283 1.986c-.465 1.002-.03 2.19.972 2.657 1.002.466 2.19.03 2.656-.97l-3.628-1.686zm1.896 5.303c.49-.99.082-2.19-.91-2.678-.99-.49-2.188-.084-2.677.907l3.588 1.77zm-5.37 1.73c-.513.98-.136 2.188.842 2.7.978.515 2.187.138 2.7-.84l-3.54-1.86zm1.63 5.393c.54-.965.193-2.183-.772-2.72-.964-.54-2.182-.194-2.72.77l3.492 1.95zm-5.45 1.45c-.563.95-.25 2.178.7 2.74.95.565 2.177.252 2.74-.698l-3.44-2.04zm1.34 5.473c.59-.934.31-2.17-.623-2.76-.934-.588-2.17-.31-2.76.625l3.384 2.135zm-5.52 1.146c-.616.916-.372 2.158.545 2.775.916.616 2.16.372 2.775-.544l-3.32-2.23zm1.023 5.54c.645-.897.438-2.147-.46-2.79-.898-.643-2.147-.437-2.79.46l3.25 2.33zm-5.576.815c-.67.877-.503 2.133.375 2.803.877.67 2.132.503 2.803-.375l-3.18-2.428zm.68 5.594c.697-.856.57-2.116-.287-2.815-.855-.698-2.115-.57-2.814.286l3.1 2.53zm-5.62.455c-.725.832-.64 2.095.193 2.822.832.726 2.096.64 2.822-.192l-3.015-2.63zm.308 5.627c.754-.806.71-2.072-.095-2.826-.807-.755-2.073-.712-2.827.094l2.922 2.732zm-5.635.07c-.782.78-.785 2.045-.005 2.828.78.782 2.046.784 2.828.005l-2.823-2.834zm-.093 5.635c.81-.75.86-2.016.11-2.827-.752-.81-2.017-.86-2.828-.108l2.718 2.935zm-5.624-.343c-.838.72-.934 1.983-.214 2.82.72.84 1.982.935 2.82.215l-2.606-3.036zm-.514 5.613c.865-.687 1.01-1.945.322-2.81-.687-.865-1.945-1.01-2.81-.322l2.488 3.132zm-5.502-.907c-.932.593-1.206 1.83-.613 2.76.595.933 1.83 1.207 2.763.613l-2.15-3.373zm-1.625 5.41c1.004-.46 1.447-1.646.988-2.65-.46-1.006-1.645-1.45-2.65-.99l1.66 3.64zm-5.21-2.25c-1.046.35-1.61 1.484-1.26 2.532.352 1.047 1.486 1.61 2.533 1.26l-1.272-3.793zm-2.757 4.96c1.072-.267 1.725-1.352 1.458-2.424-.265-1.072-1.35-1.725-2.422-1.458l.965 3.88zm-4.783-3.064c-1.086.2-1.805 1.242-1.606 2.328.2 1.087 1.24 1.806 2.328 1.607l-.722-3.934zm-3.31 4.57c1.094-.147 1.864-1.152 1.72-2.247-.147-1.096-1.152-1.866-2.247-1.72l.526 3.965zm-4.444-3.53c-1.1.1-1.91 1.074-1.81 2.174.102 1.1 1.075 1.91 2.175 1.81l-.364-3.984zm-3.75 4.288c1.103-.064 1.946-1.01 1.883-2.112-.064-1.102-1.01-1.945-2.112-1.882l.228 3.994zm-4.142-3.827c-1.104.032-1.973.953-1.94 2.057.03 1.104.952 1.973 2.056 1.94l-.116-3.997zm-3.97 4.065c1.106-.005 1.997-.904 1.993-2.01-.005-1.103-.904-1.995-2.01-1.99l.018 4zm-3.988-4.026c-1.104-.02-2.015.86-2.034 1.965-.018 1.106.862 2.016 1.966 2.035l.068-4zm-4.114 3.892c1.104.04 2.03-.824 2.07-1.928.04-1.104-.823-2.03-1.927-2.07l-.143 3.998zm-3.86-4.174c-1.103-.058-2.044.79-2.102 1.893-.058 1.103.79 2.044 1.893 2.1l.21-3.993zm-4.225 3.754c1.102.074 2.055-.76 2.13-1.862.073-1.102-.76-2.055-1.863-2.13l-.267 3.992zm-3.745-4.286c-1.102-.088-2.066.733-2.154 1.834-.088 1.1.733 2.065 1.834 2.153l.32-3.988zm-4.317 3.643c1.1.1 2.074-.71 2.175-1.81.1-1.1-.708-2.072-1.808-2.174l-.367 3.985zm-3.642-4.375c-1.098-.113-2.08.686-2.194 1.785-.114 1.1.685 2.08 1.784 2.194l.41-3.98zm-4.395 3.55c1.098.123 2.088-.667 2.212-1.764.124-1.098-.666-2.088-1.763-2.212l-.45 3.975zm-3.55-4.445c-1.096-.133-2.093.647-2.227 1.744-.132 1.095.648 2.092 1.745 2.226l.484-3.97zm-4.463 3.47c1.095.142 2.1-.63 2.24-1.726.144-1.096-.63-2.1-1.724-2.242l-.515 3.966zm-3.47-4.5c-1.093-.152-2.102.613-2.253 1.708-.15 1.094.614 2.103 1.708 2.254l.546-3.963zm-4.523 3.4c1.093.158 2.108-.6 2.266-1.693.158-1.093-.6-2.108-1.693-2.266l-.573 3.96zm-3.397-4.547c-1.093-.165-2.112.586-2.277 1.678-.165 1.093.586 2.112 1.678 2.277l.6-3.955zm-4.577 3.34c1.09.173 2.115-.573 2.287-1.664.17-1.09-.574-2.115-1.665-2.286l-.622 3.95zm-3.336-4.584c-1.09-.178-2.118.562-2.296 1.652-.177 1.09.563 2.118 1.653 2.296l.642-3.948zm-4.62 3.29c1.09.183 2.12-.552 2.303-1.64.183-1.09-.55-2.122-1.64-2.305l-.663 3.944zm-3.285-4.618c-1.088-.188-2.123.542-2.31 1.63-.19 1.088.54 2.123 1.63 2.31l.68-3.94zm-4.656 3.245c1.09.194 2.127-.53 2.32-1.62.193-1.086-.533-2.124-1.62-2.317l-.7 3.938zm-3.24-4.644c-1.087-.198-2.128.524-2.325 1.61-.197 1.087.524 2.128 1.61 2.325l.715-3.934zm-4.682 3.207c1.086.202 2.13-.515 2.33-1.602.202-1.085-.515-2.128-1.6-2.33l-.73 3.933zm-3.208-4.67c-1.085-.205-2.13.51-2.336 1.594-.205 1.086.508 2.132 1.594 2.337l.742-3.93zm-4.698 3.177c1.085.21 2.133-.502 2.342-1.586.208-1.085-.502-2.134-1.587-2.342l-.755 3.928zm-3.184-4.69c-1.084-.213-2.134.494-2.346 1.578-.212 1.084.496 2.135 1.58 2.346l.766-3.925zm-4.714 3.148c1.084.215 2.136-.49 2.35-1.573.215-1.084-.49-2.136-1.572-2.35l-.778 3.923zm-3.16-4.71c-1.082-.216-2.137.486-2.354 1.57-.217 1.08.485 2.136 1.568 2.353l.787-3.92zm-4.73 3.127c1.082.22 2.138-.48 2.358-1.562.22-1.083-.48-2.138-1.562-2.358l-.796 3.92zm-3.135-4.722c-1.083-.222-2.14.475-2.362 1.557-.222 1.082.476 2.14 1.558 2.36l.803-3.917zm-4.748 3.105c1.08.224 2.14-.47 2.364-1.553.223-1.08-.472-2.14-1.554-2.364l-.81 3.918zm-3.113-4.732c-1.082-.226-2.14.468-2.367 1.55-.226 1.08.468 2.14 1.55 2.366l.816-3.916zm-4.763 3.09c1.08.227 2.142-.466 2.37-1.546.226-1.08-.466-2.142-1.547-2.37l-.823 3.915zm-3.1-4.742c-1.08-.228-2.142.463-2.37 1.543-.23 1.08.462 2.142 1.543 2.37l.827-3.913zm-4.766 3.08c1.08.23 2.143-.46 2.372-1.542.23-1.08-.46-2.142-1.54-2.372l-.83 3.913zm-3.095-4.75c-1.08-.23-2.143.46-2.373 1.54-.23 1.08.46 2.143 1.54 2.373l.833-3.912zm-4.764 3.074c1.08.23 2.144-.458 2.374-1.538.23-1.08-.457-2.143-1.538-2.373l-.835 3.91zm-3.097-4.753c-1.08-.23-2.143.458-2.374 1.538-.232 1.08.456 2.143 1.536 2.374l.837-3.912zm-4.757 3.073c1.08.23 2.143-.457 2.374-1.537.23-1.08-.457-2.142-1.537-2.373l-.837 3.91zm-3.105-4.755c-1.08-.23-2.142.458-2.373 1.538-.23 1.08.458 2.144 1.538 2.375l.836-3.912zm-4.746 3.077c1.08.23 2.143-.46 2.373-1.54.23-1.08-.46-2.142-1.54-2.372l-.833 3.912zm-3.12-4.753c-1.08-.23-2.14.46-2.37 1.54-.23 1.082.46 2.144 1.54 2.373l.83-3.913zm-4.733 3.087c1.082.228 2.143-.463 2.37-1.544.23-1.08-.462-2.142-1.543-2.37l-.826 3.914zm-3.136-4.747c-1.08-.227-2.14.466-2.367 1.547-.226 1.082.466 2.14 1.548 2.368l.82-3.915zm-4.72 3.102c1.08.223 2.14-.472 2.363-1.554.224-1.08-.47-2.14-1.552-2.364l-.812 3.917zm-3.16-4.736c-1.08-.22-2.138.476-2.36 1.558-.22 1.082.476 2.14 1.56 2.36l.8-3.918zm-4.71 3.125c1.083.217 2.138-.484 2.356-1.567.218-1.083-.483-2.137-1.566-2.355l-.79 3.92zm-3.18-4.715c-1.084-.214-2.136.49-2.35 1.575-.214 1.083.49 2.135 1.575 2.35l.774-3.925zm-4.7 3.158c1.084.21 2.132-.5 2.342-1.585.21-1.085-.5-2.134-1.586-2.343l-.757 3.928zm-3.2-4.68c-1.087-.203-2.13.512-2.335 1.598-.204 1.087.512 2.132 1.598 2.335l.735-3.932zm-4.692 3.205c1.087.196 2.127-.527 2.322-1.614.196-1.087-.526-2.127-1.614-2.323l-.708 3.938zm-3.214-4.627c-1.09-.186-2.123.546-2.31 1.634-.186 1.09.545 2.123 1.633 2.31l.678-3.943zm-4.67 3.28c1.092.175 2.118-.567 2.293-1.658.177-1.09-.566-2.116-1.656-2.292l-.635 3.95zm-3.263-4.563c-1.09-.175-2.116.568-2.29 1.66-.175 1.09.568 2.115 1.66 2.29l.63-3.95zm-4.605 3.296c1.09.184 2.122-.55 2.306-1.64.184-1.088-.55-2.12-1.638-2.304l-.668 3.943zm-3.27-4.627c-1.087-.193-2.125.532-2.318 1.62-.193 1.087.533 2.126 1.62 2.318l.7-3.938zm-4.653 3.223c1.087.2 2.13-.52 2.33-1.606.2-1.086-.518-2.13-1.604-2.33l-.726 3.935zm-3.194-4.67c-1.086-.206-2.133.506-2.34 1.59-.206 1.086.507 2.133 1.592 2.34l.748-3.93zm-4.69 3.17c1.085.21 2.135-.496 2.347-1.58.212-1.084-.496-2.134-1.58-2.346l-.766 3.926zm-3.157-4.7c-1.084-.217-2.137.487-2.353 1.57-.216 1.083.487 2.136 1.57 2.352l.783-3.923zm-4.722 3.13c1.082.22 2.138-.48 2.357-1.563.22-1.083-.48-2.138-1.562-2.357l-.794 3.92zm-3.12-4.718c-1.083-.222-2.14.475-2.362 1.557-.222 1.08.475 2.138 1.557 2.36l.803-3.918zm-4.728 3.11c1.08.224 2.14-.472 2.363-1.554.223-1.08-.472-2.14-1.554-2.363l-.81 3.917zm-3.112-4.73c-1.082-.226-2.14.47-2.365 1.55-.226 1.08.468 2.14 1.55 2.365l.814-3.916zm-4.744 3.097c1.08.224 2.14-.47 2.366-1.55.226-1.082-.468-2.14-1.55-2.367l-.816 3.916zm-3.1-4.733c-1.08-.226-2.14.468-2.365 1.55-.225 1.08.47 2.14 1.55 2.366l.816-3.916zm-4.734 3.1c1.082.225 2.14-.47 2.365-1.55.226-1.083-.468-2.142-1.55-2.367l-.814 3.917zm-3.114-4.73c-1.08-.225-2.14.47-2.363 1.553-.225 1.08.47 2.14 1.552 2.363l.81-3.917zm-4.73 3.108c1.08.222 2.138-.475 2.36-1.557.222-1.082-.475-2.14-1.557-2.36l-.804 3.917zm-3.122-4.72c-1.082-.22-2.138.48-2.358 1.563-.22 1.082.48 2.138 1.562 2.358l.796-3.92zm-4.72 3.13c1.084.216 2.138-.486 2.355-1.57.217-1.082-.484-2.136-1.567-2.353l-.787 3.922zm-3.15-4.708c-1.085-.214-2.137.49-2.35 1.575-.215 1.083.49 2.135 1.573 2.35l.776-3.925zm-4.696 3.156c1.084.21 2.134-.497 2.345-1.582.21-1.083-.5-2.133-1.583-2.343l-.763 3.926zm-3.178-4.685c-1.085-.206-2.133.506-2.34 1.59-.206 1.086.506 2.133 1.59 2.34l.75-3.93zm-4.682 3.19c1.086.2 2.13-.515 2.333-1.6.202-1.087-.514-2.13-1.6-2.334l-.733 3.933zm-3.21-4.66c-1.088-.197-2.13.524-2.327 1.61-.197 1.087.524 2.128 1.61 2.326l.716-3.936zm-4.65 3.23c1.088.193 2.126-.533 2.318-1.62.192-1.088-.533-2.126-1.62-2.32l-.698 3.94zm-3.263-4.63c-1.088-.185-2.122.546-2.31 1.634-.185 1.09.546 2.123 1.634 2.31l.677-3.943zm-4.61 3.28c1.088.18 2.118-.556 2.3-1.646.18-1.09-.557-2.12-1.647-2.3l-.654 3.946zm-3.312-4.593c-1.09-.174-2.116.57-2.29 1.66-.175 1.09.568 2.116 1.66 2.29l.63-3.95zm-4.58 3.33c1.092.17 2.113-.58 2.28-1.672.168-1.092-.58-2.113-1.673-2.28l-.607 3.953zm-3.364-4.55c-1.093-.16-2.11.596-2.27 1.69-.16 1.092.596 2.108 1.69 2.27l.58-3.96zm-4.532 3.392c1.093.153 2.104-.61 2.257-1.704.152-1.094-.61-2.104-1.705-2.257l-.553 3.96zm-3.433-4.504c-1.096-.145-2.1.625-2.246 1.72-.145 1.095.625 2.1 1.72 2.246l.525-3.967zm-4.48 3.457c1.095.137 2.094-.64 2.23-1.737.137-1.096-.64-2.096-1.736-2.232l-.495 3.97zm-3.5-4.45c-1.097-.13-2.09.657-2.218 1.754-.127 1.098.658 2.09 1.756 2.218l.463-3.973zm-4.428 3.527c1.098.12 2.084-.675 2.203-1.774.12-1.098-.675-2.084-1.773-2.203l-.43 3.977zm-3.57-4.392c-1.1-.11-2.08.694-2.188 1.793-.11 1.1.693 2.078 1.793 2.188l.395-3.98zm-4.366 3.604c1.1.1 2.073-.713 2.172-1.813.1-1.1-.712-2.072-1.812-2.17l-.36 3.982zm-3.65-4.327c-1.102-.09-2.067.73-2.155 1.832-.088 1.1.732 2.066 1.833 2.155l.322-3.987zm-4.296 3.686c1.1.077 2.058-.753 2.136-1.855.078-1.102-.752-2.058-1.854-2.136l-.282 3.99zm-3.736-4.256c-1.102-.067-2.05.773-2.117 1.875-.067 1.102.773 2.05 1.875 2.117l.242-3.993zm-4.22 3.772c1.103.056 2.042-.794 2.097-1.897.057-1.104-.793-2.043-1.896-2.1l-.2 3.996zm-3.823-4.174c-1.103-.044-2.032.816-2.076 1.92-.043 1.103.817 2.033 1.92 2.076l.157-3.996zm-4.137 3.863c1.104.03 2.024-.84 2.055-1.944.03-1.103-.84-2.023-1.944-2.054l-.11 4zm-3.916-4.088c-1.105-.018-2.014.863-2.032 1.967-.018 1.104.862 2.014 1.967 2.032l.065-4zm-4.046 3.958c1.105.005 2.004-.887 2.01-1.99.004-1.106-.888-2.005-1.992-2.01l-.017 4zm-4.014-3.992c-1.104.01-1.992.912-1.983 2.016.01 1.104.91 1.992 2.016 1.983l-.034-4zm-3.946 4.057c1.104-.023 1.98-.937 1.958-2.04-.023-1.105-.937-1.982-2.042-1.96l.084 4zm-4.093-3.94c-1.104.01-1.99.912-1.98 2.017.01 1.104.913 1.99 2.017 1.98l-.037-3.998zm-3.916 4.072c1.105-.03 1.975-.952 1.944-2.056-.03-1.104-.952-1.974-2.056-1.943l.113 4zm-4.18-3.843c-1.103.052-1.954.99-1.9 2.093.053 1.103.99 1.954 2.094 1.9l-.194-3.994zm-3.773 4.228c1.102-.077 1.933-1.033 1.856-2.135-.078-1.1-1.033-1.932-2.135-1.855l.28 3.99zm-4.315-3.66c-1.1.1-1.908 1.075-1.806 2.175.103 1.1 1.077 1.91 2.177 1.806l-.37-3.983zm-3.564 4.395c1.097-.13 1.882-1.123 1.753-2.22-.128-1.097-1.122-1.88-2.22-1.752l.468 3.973zm-4.51-3.443c-1.093.157-1.85 1.17-1.694 2.265.158 1.093 1.172 1.85 2.265 1.694l-.572-3.96zm-3.34 4.578c1.088-.188 1.82-1.223 1.63-2.312-.188-1.088-1.222-1.818-2.31-1.63l.68 3.942zm-4.68-3.19c-1.082.22-1.78 1.275-1.56 2.358.22 1.082 1.275 1.78 2.358 1.56l-.797-3.92zm-3.053 4.765c1.075-.254 1.74-1.332 1.486-2.407-.253-1.075-1.33-1.74-2.406-1.486l.92 3.893zm-4.867-2.89c-1.066.29-1.694 1.39-1.404 2.455.29 1.066 1.39 1.694 2.455 1.404l-1.052-3.86zm-2.737 4.963c1.055-.328 1.644-1.45 1.316-2.504-.328-1.054-1.45-1.643-2.504-1.315l1.19 3.82zm-5.072-2.53c-1.04.368-1.587 1.51-1.22 2.552.37 1.04 1.51 1.587 2.553 1.22l-1.332-3.772zm-2.35 5.156c1.027-.41 1.526-1.574 1.117-2.6-.41-1.025-1.574-1.525-2.6-1.115l1.484 3.715zm-5.255-2.115c-1.008.453-1.457 1.636-1.004 2.644.45 1.008 1.635 1.458 2.643 1.005l-1.64-3.648zm-1.902 5.335c.988-.497 1.384-1.7.887-2.686-.498-.986-1.7-1.383-2.687-.885l1.8 3.572zm-5.42-1.638c-.963.543-1.303 1.763-.76 2.725.543.96 1.763 1.3 2.725.758l-1.966-3.484zm-1.397 5.49c.935-.59 1.215-1.825.626-2.76-.59-.934-1.825-1.214-2.76-.625l2.133 3.383zm-5.555-1.108c-.904.635-1.122 1.883-.487 2.787.636.904 1.883 1.122 2.787.487l-2.3-3.274zm-.842 5.6c.87-.68 1.025-1.936.345-2.806-.68-.87-1.937-1.025-2.807-.345l2.463 3.152zm-5.64-.534c-.832.724-.92 1.987-.197 2.82.723.835 1.986.924 2.82.2l-2.623-3.02zm-.258 5.658c.795-.767.818-2.033.05-2.828-.765-.795-2.03-.818-2.826-.052l2.776 2.88zm-5.664.052c-.754.807-.712 2.073.095 2.827.805.754 2.07.71 2.826-.095l-2.922-2.733zm.325 5.656c.71-.844.604-2.106-.24-2.818-.844-.713-2.106-.606-2.818.24l3.057 2.578zm-5.63.63c-.67.877-.5 2.132.378 2.802.88.67 2.134.5 2.803-.38l-3.18-2.423zm.885 5.594c.626-.91.396-2.155-.514-2.78-.91-.628-2.154-.398-2.78.512l3.295 2.268zm-5.543 1.167c-.583.937-.295 2.17.643 2.754.938.583 2.17.295 2.754-.643l-3.398-2.11zm1.4 5.488c.542-.962.2-2.182-.763-2.723-.964-.54-2.183-.2-2.724.764l3.486 1.958zm-5.417 1.653c-.5.986-.108 2.19.877 2.69s2.19.107 2.69-.877l-3.567-1.812zm1.855 5.354c.46-1.004.02-2.19-.983-2.652-1.004-.46-2.19-.02-2.652.983l3.636 1.67zm-5.27 2.076c-.423 1.02.06 2.19 1.082 2.614 1.02.423 2.19-.06 2.613-1.08l-3.695-1.534zm2.25 5.2c.387-1.034-.138-2.187-1.172-2.574-1.035-.387-2.187.138-2.575 1.172l3.747 1.402zm-5.113 2.44c-.353 1.046.208 2.18 1.255 2.534 1.047.354 2.18-.208 2.535-1.255l-3.79-1.28zm2.583 5.042c.322-1.056-.274-2.174-1.33-2.495-1.058-.32-2.175.275-2.497 1.33l3.827 1.165zm-4.942 2.702c-.292 1.065.336 2.165 1.4 2.456 1.067.292 2.167-.336 2.458-1.4l-3.858-1.056zm2.876 4.845c.263-1.074-.393-2.157-1.466-2.42-1.073-.263-2.156.393-2.42 1.466l3.886.953zm-4.792 2.946c-.237 1.08.445 2.146 1.524 2.384 1.078.237 2.145-.445 2.383-1.524l-3.908-.86zm3.11 4.678c.215-1.084-.49-2.135-1.574-2.35-1.084-.213-2.136.493-2.35 1.576l3.925.774zm-4.656 3.16c-.192 1.087.535 2.124 1.623 2.316 1.087.19 2.124-.536 2.315-1.623l-3.94-.693zm3.296 4.572c.17-1.09-.577-2.114-1.668-2.284-1.09-.17-2.114.576-2.285 1.668l3.952.616zm-4.53 3.317c-.15 1.094.615 2.103 1.71 2.254 1.093.15 2.102-.614 2.253-1.71l-3.963-.544zm3.462 4.436c.132-1.097-.65-2.093-1.747-2.225-1.097-.13-2.093.65-2.224 1.748l3.97.476zm-4.415 3.5c-.115 1.098.684 2.08 1.783 2.194 1.1.114 2.08-.685 2.195-1.784l-3.98-.41zm3.607 4.304c.096-1.1-.718-2.07-1.82-2.167-1.1-.096-2.07.718-2.165 1.82l3.985.347zm-4.3 3.63c-.08 1.102.748 2.06 1.85 2.138 1.102.08 2.06-.75 2.138-1.85l-3.99-.288zm3.736 4.208c.063-1.102-.78-2.047-1.883-2.11-1.103-.063-2.048.78-2.11 1.883l3.993.227zm-4.19 3.747c-.047 1.102.81 2.035 1.913 2.082 1.104.046 2.036-.81 2.083-1.914l-3.998-.17zm3.857 4.1c.03-1.104-.84-2.024-1.943-2.055-1.104-.03-2.024.84-2.055 1.943l3.998.112zm-4.082 3.867c-.015 1.104.868 2.012 1.972 2.027 1.104.016 2.012-.867 2.028-1.97l-4-.057zM2 352.6c0-1.104-.895-2-2-2-1.104 0-2 .896-2 2h4zm-3.973 3.988c.015 1.105.922 1.988 2.027 1.973 1.104-.014 1.987-.92 1.972-2.026l-4 .054zm4.08 3.87c-.03-1.105-.95-1.976-2.054-1.946-1.105.03-1.975.95-1.945 2.054l3.998-.11zm-3.864 4.093c.046 1.104.977 1.962 2.08 1.917 1.104-.045 1.962-.976 1.917-2.08l-3.997.164zm4.184 3.76c-.06-1.104-1.003-1.95-2.106-1.89-1.102.06-1.947 1.004-1.887 2.107l3.994-.218zm-3.75 4.194c.076 1.102 1.03 1.934 2.132 1.86 1.1-.077 1.934-1.03 1.858-2.133l-3.99.274zm4.286 3.645c-.09-1.102-1.056-1.92-2.157-1.83-1.1.09-1.92 1.056-1.83 2.157l3.987-.328zm-3.632 4.295c.107 1.1 1.084 1.904 2.184 1.798 1.1-.106 1.905-1.083 1.8-2.182l-3.983.385zm4.387 3.523c-.12-1.098-1.11-1.89-2.208-1.768-1.1.122-1.89 1.11-1.77 2.208l3.977-.44zm-3.51 4.398c.14 1.096 1.138 1.873 2.234 1.735 1.097-.136 1.875-1.136 1.737-2.232l-3.97.498zm4.487 3.395c-.153-1.093-1.164-1.855-2.258-1.702-1.094.154-1.857 1.165-1.703 2.26l3.96-.557zm-3.378 4.5c.17 1.09 1.192 1.837 2.284 1.668 1.09-.17 1.838-1.193 1.668-2.284l-3.952.615zm4.586 3.26c-.187-1.09-1.22-1.82-2.31-1.634-1.088.187-1.82 1.22-1.632 2.31l3.942-.676zm-3.238 4.597c.203 1.085 1.25 1.8 2.334 1.596 1.086-.204 1.8-1.25 1.597-2.335l-3.93.74zm4.687 3.115c-.22-1.082-1.277-1.78-2.36-1.558-1.082.22-1.78 1.278-1.558 2.36l3.92-.802zm-3.085 4.703c.24 1.078 1.308 1.758 2.386 1.52 1.08-.24 1.76-1.31 1.52-2.388l-3.905.868zm4.788 2.95c-.258-1.073-1.338-1.734-2.412-1.475-1.073.258-1.734 1.338-1.476 2.412l3.89-.936zm-2.92 4.813c.28 1.07 1.37 1.71 2.44 1.433 1.07-.277 1.71-1.37 1.433-2.438l-3.872 1.006zm4.892 2.77c-.298-1.064-1.402-1.684-2.466-1.386-1.064.297-1.685 1.4-1.387 2.465l3.852-1.08zM8.29 427.39c.32 1.058 1.435 1.656 2.492 1.338 1.058-.32 1.657-1.435 1.338-2.493l-3.83 1.155zm4.998 2.58c-.34-1.05-1.47-1.625-2.52-1.285-1.05.34-1.626 1.468-1.285 2.52l3.805-1.234zm-2.533 5.02c.363 1.044 1.503 1.595 2.546 1.232 1.044-.363 1.595-1.503 1.232-2.546l-3.777 1.315zm5.107 2.37c-.387-1.034-1.54-1.56-2.574-1.172-1.034.386-1.56 1.54-1.173 2.573l3.747-1.4zm-2.303 5.13c.41 1.024 1.575 1.522 2.6 1.11 1.025-.41 1.523-1.575 1.11-2.6l-3.71 1.49zm5.21 2.117c-.436-1.014-1.612-1.482-2.627-1.045-1.014.437-1.482 1.614-1.045 2.628l3.673-1.583zm-2.035 5.248c.464 1.002 1.653 1.438 2.655.974 1.002-.465 1.44-1.654.975-2.656l-3.63 1.68zm5.314 1.826c-.494-.988-1.694-1.39-2.683-.898-.99.492-1.39 1.693-.9 2.682l3.582-1.783zm-1.736 5.357c.522.973 1.735 1.34 2.708.817.973-.522 1.34-1.734.817-2.708l-3.526 1.89zm5.42 1.512c-.553-.957-1.776-1.284-2.732-.73-.956.552-1.283 1.776-.73 2.732l3.462-2.003zm-1.393 5.443c.587.937 1.82 1.22 2.757.636.937-.587 1.222-1.82.636-2.757l-3.392 2.12zm5.513 1.137c-.62-.915-1.864-1.154-2.778-.534-.915.62-1.153 1.863-.534 2.777l3.313-2.243zm-.982 5.542c.656.89 1.908 1.08 2.797.424.89-.655 1.08-1.907.425-2.796l-3.22 2.372zm5.578.693c-.69-.86-1.95-1-2.81-.307-.863.692-1 1.95-.308 2.812l3.118-2.505zm-.518 5.6c.73.828 1.993.91 2.822.18.83-.73.91-1.994.18-2.823l-3.002 2.642zm5.625.198c-.77-.794-2.035-.814-2.828-.045-.794.768-.814 2.035-.045 2.828l2.873-2.783zm.095 5.684c.813.75 2.078.696 2.826-.117.748-.812.695-2.078-.117-2.826l-2.71 2.943zm5.73-.34c-.86-.693-2.12-.558-2.814.302-.693.86-.558 2.118.302 2.81l2.51-3.113zm.883 5.67c.904.636 2.15.418 2.786-.486.634-.902.416-2.15-.488-2.785l-2.3 3.273zm5.635-1.09c-.943-.573-2.174-.274-2.748.67-.574.944-.274 2.174.67 2.748l2.078-3.417zm1.62 5.508c.98.513 2.187.134 2.7-.844.512-.978.134-2.186-.845-2.7l-1.855 3.545zm5.45-1.802c-1.007-.45-2.19 0-2.64 1.01-.452 1.008 0 2.19 1.01 2.642l1.63-3.652zm2.286 5.265c1.034.39 2.188-.13 2.58-1.163.39-1.033-.132-2.188-1.165-2.578l-1.416 3.74zm5.203-2.428c-1.053-.334-2.177.25-2.51 1.303-.333 1.053.25 2.177 1.303 2.51l1.207-3.813zm2.85 4.983c1.07.28 2.162-.36 2.44-1.43.28-1.07-.36-2.16-1.43-2.44l-1.01 3.87zm4.93-2.945c-1.08-.23-2.14.46-2.37 1.542-.23 1.08.462 2.142 1.542 2.37l.828-3.912zm3.306 4.695c1.09.183 2.12-.552 2.303-1.642.183-1.088-.552-2.12-1.642-2.302l-.66 3.945zm4.663-3.355c-1.095-.14-2.097.634-2.238 1.73-.14 1.096.634 2.098 1.73 2.238l.508-3.968zm3.658 4.427c1.1.102 2.074-.707 2.176-1.807.102-1.1-.707-2.074-1.806-2.176l-.37 3.983zm4.414-3.672c-1.102-.068-2.05.77-2.118 1.873-.068 1.103.77 2.052 1.873 2.12l.245-3.993zm3.927 4.19c1.104.035 2.03-.83 2.065-1.934.037-1.105-.828-2.03-1.932-2.066l-.133 3.998zm4.202-3.916c-1.104-.01-2.007.88-2.016 1.984-.008 1.105.88 2.008 1.984 2.017l.033-4zm4.133 3.988c1.104-.016 1.987-.924 1.972-2.028-.016-1.105-.924-1.988-2.028-1.972l.056 4zm4.024-4.098c-1.104.037-1.968.962-1.93 2.066.036 1.104.96 1.97 2.065 1.93l-.136-3.996zm4.288 3.82c1.103-.057 1.952-.997 1.895-2.1-.056-1.103-.997-1.952-2.1-1.895l.205 3.995zm3.88-4.237c-1.103.074-1.937 1.027-1.864 2.13.074 1.1 1.027 1.935 2.13 1.86l-.267-3.99zm4.4 3.686c1.1-.088 1.922-1.052 1.833-2.153-.088-1.1-1.052-1.922-2.153-1.834l.32 3.986zm3.76-4.34c-1.1.102-1.91 1.076-1.808 2.176.1 1.1 1.075 1.91 2.175 1.808l-.368-3.984zm4.487 3.582c1.098-.113 1.898-1.095 1.785-2.194-.113-1.1-1.095-1.898-2.194-1.785l.41 3.978zm3.67-4.416c-1.097.122-1.888 1.11-1.766 2.21.122 1.097 1.11 1.888 2.21 1.765l-.444-3.975zm4.55 3.502c1.098-.13 1.88-1.125 1.75-2.222-.13-1.096-1.124-1.88-2.22-1.75l.47 3.972zm3.608-4.47c-1.096.138-1.874 1.137-1.737 2.233.138 1.096 1.137 1.874 2.233 1.737l-.495-3.97zm4.594 3.448c1.095-.143 1.868-1.146 1.726-2.24-.143-1.097-1.146-1.87-2.24-1.727l.514 3.967zm3.564-4.505c-1.094.146-1.863 1.153-1.717 2.247.145 1.095 1.152 1.864 2.246 1.718l-.53-3.965zm4.622 3.412c1.094-.15 1.86-1.16 1.71-2.253-.148-1.095-1.156-1.86-2.25-1.71l.54 3.962zm3.537-4.525c-1.094.15-1.858 1.16-1.707 2.255.15 1.094 1.16 1.86 2.255 1.708l-.548-3.963zm4.63 3.397c1.093-.152 1.857-1.162 1.705-2.256-.152-1.094-1.162-1.858-2.257-1.706l.55 3.962zm3.53-4.53c-1.095.153-1.858 1.163-1.707 2.257.152 1.093 1.162 1.857 2.256 1.705l-.55-3.962zm4.63 3.393c1.094-.156 1.853-1.17 1.697-2.262-.156-1.094-1.17-1.854-2.262-1.697l.565 3.96zm3.474-4.554c-1.093.167-1.844 1.186-1.68 2.278.166 1.092 1.186 1.844 2.278 1.678l-.6-3.955zm4.665 3.325c1.09-.174 1.834-1.2 1.66-2.29-.174-1.09-1.2-1.834-2.29-1.66l.63 3.95zm3.403-4.608c-1.09.182-1.826 1.212-1.644 2.302.182 1.088 1.212 1.824 2.302 1.642l-.658-3.945zm4.713 3.255c1.09-.19 1.818-1.225 1.63-2.313-.19-1.09-1.226-1.82-2.314-1.63l.685 3.942zm3.34-4.654c-1.087.196-1.81 1.236-1.613 2.323.196 1.088 1.236 1.81 2.323 1.614l-.71-3.936zm4.754 3.194c1.086-.202 1.802-1.247 1.6-2.332-.203-1.086-1.248-1.802-2.334-1.6l.734 3.932zm3.284-4.693c-1.085.208-1.795 1.256-1.587 2.34.21 1.086 1.258 1.796 2.343 1.587l-.755-3.928zm4.79 3.14c1.082-.213 1.787-1.265 1.573-2.348-.213-1.084-1.265-1.79-2.348-1.575l.775 3.924zm3.235-4.725c-1.083.22-1.783 1.274-1.564 2.357.218 1.082 1.274 1.782 2.356 1.563l-.793-3.92zm4.818 3.096c1.083-.223 1.778-1.28 1.554-2.363-.223-1.08-1.282-1.777-2.363-1.553l.81 3.917zm3.196-4.753c-1.08.228-1.772 1.29-1.544 2.37.228 1.08 1.29 1.772 2.37 1.544l-.826-3.913zm4.842 3.06c1.08-.233 1.767-1.297 1.535-2.377-.232-1.08-1.295-1.767-2.375-1.535l.84 3.91zm3.16-4.778c-1.08.234-1.764 1.3-1.528 2.38.235 1.078 1.3 1.762 2.38 1.527l-.852-3.908zm4.863 3.026c1.08-.238 1.76-1.306 1.522-2.385-.24-1.077-1.306-1.758-2.385-1.52l.864 3.906zm3.135-4.795c-1.078.242-1.757 1.312-1.515 2.39.24 1.077 1.31 1.756 2.388 1.515l-.873-3.904zm4.877 3.004c1.078-.243 1.754-1.314 1.51-2.39-.243-1.08-1.313-1.755-2.39-1.51l.88 3.9zm3.114-4.808c-1.077.246-1.75 1.317-1.506 2.394.246 1.077 1.317 1.752 2.394 1.507l-.888-3.9zm4.888 2.987c1.077-.247 1.75-1.32 1.503-2.396-.247-1.077-1.32-1.75-2.396-1.503l.894 3.9zm3.1-4.816c-1.076.248-1.747 1.32-1.5 2.397.248 1.077 1.32 1.75 2.398 1.5l-.897-3.897zm4.894 2.978c1.076-.25 1.747-1.322 1.5-2.4-.25-1.075-1.323-1.746-2.4-1.498l.9 3.898zm3.095-4.82c-1.076.25-1.747 1.323-1.5 2.4.25 1.075 1.323 1.747 2.4 1.498l-.9-3.897zm4.893 2.978c1.076-.248 1.748-1.322 1.5-2.398s-1.32-1.748-2.398-1.5l.898 3.898zm3.1-4.817c-1.078.247-1.75 1.32-1.504 2.397.247 1.076 1.32 1.75 2.397 1.502l-.895-3.9zm4.886 2.986c1.077-.246 1.75-1.318 1.506-2.394-.246-1.077-1.318-1.752-2.395-1.506l.89 3.9zm3.112-4.808c-1.077.243-1.753 1.314-1.51 2.39.244 1.08 1.314 1.755 2.392 1.512l-.882-3.902zm4.876 3.004c1.078-.24 1.757-1.31 1.517-2.387s-1.31-1.756-2.388-1.515l.87 3.903zm3.137-4.792c-1.078.237-1.76 1.304-1.523 2.383.237 1.078 1.304 1.76 2.382 1.523l-.86-3.907zm4.858 3.036c1.08-.233 1.766-1.297 1.533-2.377-.233-1.08-1.297-1.766-2.377-1.533l.845 3.91zm3.175-4.768c-1.08.228-1.772 1.29-1.544 2.37.228 1.08 1.29 1.772 2.37 1.544l-.826-3.914zm4.83 3.08c1.08-.22 1.78-1.277 1.557-2.36-.222-1.082-1.28-1.78-2.36-1.557l.802 3.918zm3.23-4.73c-1.084.214-1.788 1.267-1.574 2.35.215 1.084 1.267 1.788 2.35 1.574l-.776-3.924zm4.788 3.145c1.085-.207 1.797-1.254 1.59-2.34-.205-1.084-1.25-1.797-2.337-1.59l.748 3.93zm3.304-4.68c-1.087.195-1.81 1.235-1.613 2.322.195 1.087 1.235 1.81 2.322 1.614l-.71-3.937zm4.78 3.217c1.087-.19 1.814-1.228 1.622-2.316-.19-1.087-1.228-1.814-2.316-1.622l.693 3.94zm3.344-4.653c-1.088.193-1.813 1.23-1.62 2.32.194 1.086 1.232 1.81 2.32 1.618l-.7-3.938zm4.738 3.217c1.087-.194 1.81-1.233 1.616-2.32-.195-1.087-1.234-1.81-2.322-1.616l.706 3.937zm3.362-4.668c-1.087.197-1.81 1.237-1.613 2.324.196 1.087 1.236 1.81 2.323 1.613l-.71-3.938zm4.772 3.202c1.087-.197 1.808-1.238 1.61-2.325-.196-1.088-1.237-1.81-2.323-1.612l.713 3.936zm3.34-4.672c-1.086.197-1.807 1.238-1.61 2.325.197 1.087 1.238 1.808 2.325 1.61l-.714-3.935zm4.765 3.202c1.087-.197 1.808-1.237 1.612-2.324-.197-1.087-1.237-1.81-2.324-1.612l.713 3.936zm3.34-4.665c-1.088.193-1.812 1.232-1.618 2.32.195 1.087 1.234 1.81 2.32 1.616l-.703-3.937zm4.756 3.218c1.087-.19 1.814-1.227 1.624-2.315-.19-1.088-1.227-1.816-2.315-1.625l.69 3.94zm3.387-4.644c-1.09.185-1.822 1.217-1.638 2.306.184 1.09 1.217 1.823 2.306 1.638l-.67-3.944zm4.717 3.273c1.09-.176 1.83-1.203 1.655-2.293-.177-1.09-1.203-1.832-2.294-1.656l.638 3.95zm3.446-4.587c-1.092.165-1.844 1.183-1.68 2.276.165 1.092 1.184 1.844 2.276 1.68l-.596-3.956zm4.65 3.37c1.094-.15 1.86-1.16 1.708-2.255-.15-1.094-1.16-1.86-2.254-1.708l.546 3.962zm3.567-4.5c-1.097.135-1.876 1.133-1.74 2.23.134 1.096 1.132 1.875 2.228 1.74l-.488-3.97zm4.552 3.502c1.097-.118 1.892-1.104 1.774-2.202-.118-1.1-1.104-1.893-2.202-1.775l.427 3.977zm3.694-4.388c-1.1.1-1.91 1.075-1.808 2.175.1 1.1 1.075 1.908 2.175 1.807l-.366-3.983zm4.442 3.638c1.1-.085 1.925-1.047 1.84-2.148-.086-1.1-1.048-1.925-2.15-1.84l.31 3.988zm3.834-4.28c-1.102.07-1.938 1.02-1.867 2.123.07 1.103 1.022 1.94 2.124 1.868l-.257-3.992zm4.35 3.75c1.103-.058 1.95-1 1.89-2.102-.058-1.103-1-1.95-2.102-1.892l.212 3.995zm3.914-4.192c-1.103.048-1.96.98-1.91 2.085.047 1.103.98 1.96 2.084 1.91l-.174-3.995zm4.27 3.835c1.105-.04 1.968-.966 1.93-2.07-.04-1.103-.966-1.967-2.07-1.927l.14 3.997zm3.99-4.13c-1.103.032-1.972.953-1.94 2.057.03 1.104.952 1.974 2.056 1.942l-.115-3.998zm4.23 3.893c1.103-.025 1.978-.94 1.952-2.045-.025-1.104-.94-1.98-2.045-1.954l.093 3.998zm4.05-4.084c-1.104.02-1.983.932-1.962 2.036.02 1.105.93 1.984 2.036 1.963l-.073-4zm4.17 3.932c1.105-.016 1.987-.924 1.97-2.028-.015-1.105-.923-1.987-2.028-1.97l.058 3.998zm4.05-4.052c-1.104.013-1.99.918-1.977 2.023.013 1.104.918 1.99 2.023 1.977l-.045-4zm4.157 3.96c1.106-.01 1.993-.914 1.984-2.018-.01-1.105-.913-1.992-2.017-1.983l.034 4zm4.116-4.032c-1.105.007-1.995.908-1.987 2.013.006 1.104.907 1.994 2.01 1.987l-.024-4zm4.132 3.978c1.105-.005 1.996-.905 1.99-2.01-.004-1.104-.903-1.995-2.008-1.99l.018 4zm4.086-4.015c-1.104.003-1.997.9-1.994 2.006.003 1.105.9 1.998 2.006 1.995l-.012-4zm4.163 3.99c1.105 0 2-.898 1.997-2.003-.002-1.104-.9-1.998-2.003-1.997l.007 4zm4.09-4.004c-1.105.002-2 .897-2 2.002 0 1.105.897 2 2.002 2l-.003-4zm4.03 4.013c1.104.014 2.01-.87 2.025-1.974.014-1.106-.87-2.013-1.974-2.027l-.05 4zm4.05-3.903c-1.104-.038-2.03.825-2.068 1.93-.04 1.103.824 2.03 1.928 2.067l.14-3.997zm3.778 4.17c1.103.058 2.044-.79 2.102-1.892.06-1.103-.788-2.044-1.89-2.103l-.212 3.995zm4.19-3.753c-1.1-.075-2.055.757-2.13 1.86-.076 1.1.756 2.056 1.858 2.13l.273-3.99zm3.648 4.286c1.1.09 2.067-.73 2.157-1.83.09-1.1-.73-2.066-1.83-2.156l-.327 3.986zm4.297-3.636c-1.1-.104-2.075.704-2.18 1.803-.103 1.1.705 2.075 1.805 2.18l.375-3.983zm3.546 4.374c1.098.116 2.083-.68 2.2-1.78.114-1.097-.682-2.082-1.78-2.197l-.42 3.978zm4.366-3.54c-1.097-.128-2.09.66-2.217 1.756-.127 1.097.66 2.09 1.757 2.217l.46-3.974zm3.443 4.444c1.095.137 2.095-.64 2.233-1.736.138-1.096-.64-2.096-1.735-2.233l-.498 3.97zm4.438-3.456c-1.095-.148-2.102.62-2.25 1.715-.147 1.094.62 2.1 1.715 2.25l.535-3.965zm3.368 4.508c1.094.158 2.108-.6 2.266-1.694.157-1.094-.602-2.108-1.695-2.265l-.57 3.96zm4.504-3.375c-1.09-.166-2.112.584-2.28 1.676-.166 1.092.584 2.112 1.676 2.28l.604-3.955zm3.284 4.566c1.09.176 2.117-.566 2.293-1.656.177-1.09-.564-2.117-1.655-2.293l-.637 3.95zm4.556-3.3c-1.09-.185-2.122.548-2.308 1.637-.185 1.088.548 2.12 1.636 2.307l.672-3.944zm3.21 4.62c1.087.196 2.126-.528 2.32-1.615.195-1.087-.53-2.126-1.616-2.32l-.705 3.937zm4.61-3.22c-1.085-.204-2.13.51-2.334 1.596-.204 1.086.51 2.13 1.596 2.335l.74-3.93zm3.13 4.675c1.082.215 2.134-.49 2.347-1.575.215-1.083-.49-2.135-1.574-2.35l-.773 3.926zm4.67-3.138c-1.083-.223-2.14.473-2.364 1.555-.223 1.082.473 2.14 1.554 2.363l.81-3.918zm3.043 4.732c1.08.234 2.144-.452 2.378-1.532.233-1.08-.453-2.144-1.532-2.378l-.846 3.91zm4.725-3.05c-1.078-.245-2.15.43-2.393 1.508-.245 1.077.43 2.148 1.507 2.392l.885-3.9zm2.94 4.79c1.075.255 2.153-.41 2.41-1.484.255-1.075-.41-2.153-1.484-2.408l-.926 3.89zm4.798-2.948c-1.072-.268-2.158.383-2.425 1.455-.268 1.072.383 2.158 1.455 2.426l.97-3.88zm2.842 4.858c1.068.28 2.162-.357 2.443-1.425.28-1.07-.357-2.163-1.425-2.445l-1.018 3.87zm4.864-2.83c-1.064-.294-2.166.33-2.462 1.393-.296 1.064.327 2.167 1.392 2.462l1.07-3.855zm2.702 4.934c1.06.31 2.17-.295 2.483-1.355.313-1.06-.293-2.17-1.353-2.483l-1.13 3.838zm4.943-2.68c-1.053-.33-2.175.256-2.505 1.31-.33 1.055.257 2.177 1.31 2.507l1.196-3.817zm2.526 5.02c1.047.353 2.18-.212 2.532-1.26.35-1.046-.214-2.18-1.26-2.53l-1.272 3.79zm5.048-2.476c-1.04-.376-2.185.16-2.56 1.2-.377 1.038.16 2.185 1.2 2.56l1.36-3.76zm2.285 5.14c1.026.405 2.188-.1 2.594-1.126.406-1.027-.097-2.19-1.125-2.595l-1.47 3.72zm5.196-2.17c-1.01-.445-2.19.015-2.635 1.027-.442 1.01.018 2.19 1.03 2.634l1.606-3.663zm1.897 5.297c.99.493 2.19.09 2.683-.897.493-.988.092-2.19-.896-2.682l-1.787 3.58zm5.39-1.63c-.95-.56-2.177-.246-2.74.704-.562.95-.247 2.178.703 2.74l2.037-3.443zm1.055 5.495c.88.666 2.135.493 2.802-.388.667-.88.493-2.135-.387-2.8l-2.415 3.188zm5.633-.22c-.714-.842-1.976-.945-2.818-.23-.842.714-.945 1.976-.23 2.818l3.05-2.588zM39.027 28.892c.65.16 1.303.32 1.95.473l.928-3.89c-.64-.153-1.277-.308-1.92-.466l-.958 3.882zm5.852 1.37c1.307.29 2.617.57 3.915.834l.802-3.92c-1.283-.26-2.56-.533-3.852-.82l-.865 3.906zm7.844 1.605c1.313.246 2.63.483 3.94.707l.675-3.943c-1.294-.22-2.58-.45-3.877-.695l-.738 3.932zm7.89 1.35c1.32.204 2.644.4 3.962.582l.55-3.963c-1.302-.18-2.596-.37-3.9-.573l-.61 3.953zm7.93 1.103c1.32.163 2.648.318 3.972.463l.435-3.977c-1.312-.143-2.612-.294-3.917-.456l-.492 3.97zm7.95.87c1.32.126 2.652.244 3.98.354l.33-3.986c-1.316-.11-2.622-.225-3.93-.35l-.38 3.982zm7.965.66c1.32.093 2.653.18 3.986.26l.24-3.993c-1.324-.08-2.634-.165-3.943-.257l-.283 3.99zm7.973.478c1.32.066 2.65.126 3.987.18l.164-3.996c-1.327-.054-2.64-.114-3.95-.18l-.2 3.996zm7.972.327c1.317.044 2.647.082 3.983.117l.104-4c-1.33-.033-2.647-.07-3.956-.114l-.132 3.997zm7.966.207c1.315.026 2.644.05 3.982.068l.057-4c-1.332-.02-2.65-.04-3.96-.067l-.08 4zm7.963.116c1.315.014 2.643.024 3.98.032l.026-4c-1.335-.008-2.655-.018-3.966-.03l-.04 3.998zm7.96.05c1.313.005 2.64.007 3.977.008l.003-4c-1.336 0-2.657-.003-3.967-.007l-.012 4zm7.95.008l3.97-.007-.01-4-3.965.006.004 4zm7.94-.018l3.972-.014-.014-4-3.97.014.013 4zm7.945-.028c1.312-.004 2.636-.01 3.975-.013l-.013-4c-1.34.004-2.664.01-3.977.013l.015 4zm7.953-.025l3.964-.01-.007-4-3.967.01.01 4zm7.927-.014h2v-4h-2.002l.002 4zm2 0c.684 0 1.365 0 2.04-.002l-.012-4c-.672.002-1.348.003-2.028.003v4zm6.082-.028c1.36-.012 2.707-.03 4.037-.05l-.063-4c-1.323.02-2.658.038-4.01.05l.037 4zm8.092-.128c1.363-.03 2.716-.067 4.05-.106l-.117-3.998c-1.33.04-2.667.074-4.024.105l.09 3.998zm8.1-.24c1.36-.05 2.71-.105 4.044-.163l-.176-3.995c-1.326.058-2.662.112-4.016.16l.147 4zm8.087-.356c1.36-.07 2.71-.144 4.042-.222l-.235-3.993c-1.327.077-2.66.15-4.013.22l.205 3.995zm8.082-.475c1.355-.09 2.703-.184 4.037-.282l-.293-3.988c-1.327.097-2.66.19-4.01.28l.265 3.99zm8.074-.593c1.352-.11 2.7-.223 4.033-.34l-.35-3.985c-1.328.116-2.66.23-4.006.338l.324 3.987zm8.064-.71c1.35-.126 2.693-.258 4.028-.393l-.402-3.98c-1.33.135-2.66.265-4.003.392l.378 3.982zm8.053-.812c1.344-.143 2.686-.29 4.022-.44l-.447-3.976c-1.33.15-2.662.296-4 .44l.426 3.976zm8.04-.902c1.337-.157 2.676-.317 4.013-.48l-.483-3.97c-1.333.16-2.663.32-3.997.477l.466 3.973zm8.023-.974c1.334-.167 2.67-.336 4.008-.507l-.506-3.968c-1.336.17-2.667.34-3.997.506l.496 3.97zm8.013-1.023l4.002-.524-.52-3.966c-1.34.175-2.67.35-3.997.522l.516 3.967zm8.003-1.05l4-.53-.525-3.965c-1.34.177-2.674.354-4 .528l.524 3.966zm7.997-1.056l3.998-.523-.517-3.966-4.002.524.52 3.966zm7.997-1.04c1.32-.17 2.653-.34 4-.512l-.503-3.968c-1.347.17-2.683.34-4.007.512l.51 3.967zm8-1.013c1.322-.163 2.655-.327 4.003-.49l-.482-3.97c-1.35.162-2.69.327-4.014.49l.494 3.97zm7.998-.97c1.32-.155 2.65-.31 3.996-.466l-.457-3.974c-1.35.156-2.686.312-4.008.468l.47 3.973zm7.995-.92l2.016-.223-.436-3.976-2.024.225.444 3.976zm2.016-.223c.646-.07 1.294-.143 1.94-.216l-.448-3.974c-.644.073-1.286.145-1.928.215l.436 3.977zm5.826-.667c1.29-.154 2.585-.312 3.88-.473l-.495-3.97c-1.29.16-2.574.318-3.86.47l.474 3.973zm7.757-.967c1.29-.168 2.583-.34 3.875-.514l-.535-3.965c-1.287.174-2.57.344-3.855.51l.515 3.968zm7.746-1.045c1.288-.18 2.58-.362 3.867-.547l-.57-3.96c-1.283.186-2.566.367-3.85.547l.553 3.96zm7.732-1.11c1.288-.19 2.576-.383 3.863-.577l-.598-3.954c-1.283.194-2.565.385-3.85.574l.585 3.958zm7.723-1.167c1.286-.198 2.573-.4 3.858-.6l-.622-3.952c-1.282.202-2.563.4-3.847.6l.61 3.953zm7.713-1.213c1.286-.205 2.57-.413 3.854-.62l-.64-3.95c-1.282.21-2.562.415-3.845.62l.63 3.95zm7.704-1.25c1.285-.212 2.57-.424 3.85-.637l-.657-3.946c-1.28.213-2.56.425-3.842.636l.65 3.947zm7.698-1.28c1.285-.215 2.567-.43 3.847-.647l-.667-3.944-3.843.647.662 3.945zm7.692-1.298c1.285-.22 2.567-.437 3.845-.655l-.672-3.943-3.843.653.67 3.944zm7.69-1.31c1.284-.22 2.565-.437 3.842-.655l-.672-3.943-3.843.655.673 3.943zm7.684-1.308c1.286-.22 2.566-.436 3.842-.65l-.667-3.945-3.845.65.67 3.945zm7.683-1.3l3.843-.64-.656-3.946c-1.276.212-2.56.426-3.848.643l.66 3.943zm7.684-1.275c1.29-.21 2.57-.42 3.843-.625l-.638-3.95c-1.277.207-2.562.416-3.853.628l.647 3.947zm7.686-1.24c1.29-.205 2.57-.406 3.844-.603l-.61-3.953c-1.28.2-2.566.4-3.86.606l.626 3.95zm7.69-1.19c1.293-.195 2.574-.385 3.847-.57L419.7 2.29c-1.277.185-2.568.376-3.865.572l.595 3.955zm7.696-1.12c1.297-.18 2.578-.356 3.85-.526l-.528-3.964c-1.28.17-2.573.348-3.876.53l.554 3.96zm7.703-1.025c.642-.08 1.28-.16 1.916-.237l-.482-3.97c-.64.077-1.287.157-1.934.238l.5 3.97zm1.916-.237c.65-.08 1.306-.158 1.972-.236l-.465-3.974c-.67.08-1.336.158-1.99.238l.483 3.97zm5.955-.682c1.307-.14 2.632-.275 3.987-.405l-.382-3.98c-1.366.13-2.714.267-4.03.407l.426 3.978zm7.974-.763c1.313-.11 2.64-.213 3.988-.308l-.282-3.99c-1.363.096-2.715.2-4.04.312l.334 3.986zm7.978-.564c1.32-.075 2.646-.142 3.992-.2l-.17-3.995c-1.36.06-2.716.127-4.05.203l.228 3.993zm7.985-.337c1.324-.037 2.65-.063 3.993-.077l-.043-4c-1.36.015-2.72.04-4.058.077l.107 4zm7.985-.085c1.326.01 2.65.03 3.99.063l.1-4c-1.36-.033-2.72-.054-4.064-.063l-.026 4zm7.976.2c1.327.06 2.647.13 3.98.216l.26-3.99c-1.356-.088-2.717-.162-4.063-.22l-.177 3.995zm7.952.515c1.323.114 2.636.242 3.96.387l.435-3.977c-1.348-.147-2.707-.28-4.05-.395l-.345 3.985zm7.91.866c1.315.175 2.618.366 3.932.576l.63-3.95c-1.34-.214-2.693-.412-4.033-.59l-.53 3.964zm7.846 1.254c1.305.244 2.592.504 3.89.785l.848-3.91c-1.326-.286-2.67-.557-4.002-.807l-.736 3.932zm7.753 1.684c1.286.32 2.552.655 3.828 1.016l1.088-3.85c-1.307-.37-2.635-.72-3.952-1.048l-.965 3.882zm7.62 2.156c1.26.403 2.498.822 3.744 1.27l1.35-3.766c-1.28-.46-2.584-.9-3.88-1.315l-1.215 3.81zm7.437 2.67c1.228.494 2.427 1.002 3.634 1.543l1.635-3.65c-1.243-.557-2.515-1.096-3.777-1.604l-1.49 3.71zm7.2 3.227c1.18.588 2.33 1.192 3.487 1.83l1.935-3.5c-1.196-.66-2.422-1.303-3.64-1.91l-1.784 3.58zm6.89 3.81c1.122.69 2.212 1.39 3.305 2.13l2.244-3.31c-1.133-.768-2.3-1.52-3.46-2.23l-2.09 3.41zm6.504 4.41c1.052.788 2.068 1.588 3.086 2.43l2.55-3.08c-1.056-.875-2.148-1.734-3.236-2.55l-2.4 3.2zm6.047 5.008c.967.884 1.9 1.78 2.83 2.722l2.844-2.814c-.966-.977-1.97-1.942-2.973-2.86l-2.7 2.952zm5.525 5.584c.87.972 1.707 1.954 2.54 2.984l3.11-2.517c-.866-1.07-1.767-2.126-2.67-3.135l-2.98 2.667zm4.932 6.09c.39.534.768 1.064 1.148 1.612l3.286-2.282c-.395-.568-.8-1.138-1.205-1.69l-3.23 2.36zm1.148 1.612c.36.516.706 1.03 1.056 1.57l3.35-2.186c-.366-.562-.745-1.126-1.12-1.666l-3.286 2.282zm3.09 4.885c.635 1.098 1.243 2.213 1.848 3.384l3.554-1.834c-.626-1.212-1.28-2.41-1.938-3.55l-3.464 2zm3.555 6.87c.546 1.174 1.07 2.36 1.587 3.593l3.69-1.547c-.533-1.267-1.087-2.523-1.65-3.732l-3.627 1.687zm3.025 7.19c.46 1.21.9 2.427 1.335 3.683l3.78-1.306c-.443-1.285-.906-2.56-1.377-3.8l-3.738 1.424zm2.562 7.406c.387 1.233.758 2.472 1.12 3.743l3.847-1.098c-.37-1.295-.755-2.585-1.15-3.843l-3.816 1.198zm2.156 7.553c.324 1.25.633 2.505.934 3.786l3.894-.913c-.306-1.305-.626-2.604-.956-3.877l-3.872 1.003zm1.794 7.646c.268 1.266.523 2.536.77 3.83l3.93-.748c-.25-1.313-.514-2.624-.787-3.91l-3.913.828zm1.47 7.718c.217 1.28.422 2.564.618 3.868l3.956-.596c-.2-1.322-.41-2.642-.63-3.942l-3.945.67zm1.17 7.78c.17 1.29.33 2.583.48 3.893l3.974-.454c-.152-1.328-.315-2.655-.488-3.964l-3.965.523zm.894 7.823c.126 1.298.24 2.596.346 3.91l3.988-.32c-.107-1.33-.225-2.66-.352-3.976l-3.982.386zm.63 7.853c.084 1.303.156 2.605.22 3.92l3.995-.19c-.064-1.333-.14-2.666-.223-3.985l-3.992.256zm.378 7.873c.042 1.305.074 2.608.096 3.924l4-.067c-.023-1.33-.056-2.666-.098-3.987l-3.998.13zm.13 7.877c.003 1.31-.005 2.614-.023 3.93l4 .056c.018-1.332.026-2.668.024-3.992l-4 .007zm-.107 7.878c-.04 1.31-.086 2.618-.144 3.934l3.996.175c.06-1.332.107-2.668.146-3.995l-4-.115zm-.347 7.873c-.077 1.31-.164 2.617-.262 3.932l3.99.296c.1-1.33.188-2.666.266-3.992l-3.993-.236zm-.583 7.86c-.117 1.31-.244 2.613-.382 3.924l3.98.417c.138-1.327.267-2.66.386-3.986l-3.984-.356zm-.823 7.84c-.157 1.305-.324 2.604-.5 3.91l3.962.54c.18-1.322.35-2.65.51-3.973l-3.973-.478zm-1.064 7.808c-.198 1.3-.405 2.592-.624 3.89l3.943.666c.22-1.314.434-2.637.634-3.954l-3.954-.602zm-1.31 7.77c-.24 1.293-.49 2.576-.75 3.865l3.92.795c.263-1.305.518-2.62.76-3.93l-3.93-.73zm-1.566 7.72c-.283 1.284-.575 2.557-.88 3.835l3.89.93c.31-1.296.61-2.603.896-3.904l-3.906-.86zm-1.827 7.658c-.327 1.274-.664 2.536-1.014 3.802l3.856 1.066c.354-1.284.7-2.58 1.032-3.872l-3.874-.996zm-2.097 7.584c-.374 1.262-.757 2.51-1.154 3.762l3.81 1.21c.404-1.27.798-2.555 1.178-3.835l-3.835-1.137zm-2.38 7.494c-.422 1.25-.854 2.48-1.3 3.715l3.76 1.36c.455-1.253.9-2.523 1.33-3.79l-3.79-1.285zm-2.673 7.39c-.474 1.23-.956 2.443-1.455 3.657l3.7 1.518c.508-1.235 1.006-2.488 1.488-3.738l-3.733-1.44zm-2.982 7.265c-.528 1.21-1.063 2.397-1.616 3.587l3.628 1.685c.563-1.212 1.117-2.443 1.654-3.672l-3.666-1.6zm-3.307 7.12c-.582 1.18-1.172 2.34-1.78 3.5l3.54 1.86c.62-1.183 1.234-2.387 1.828-3.59l-3.587-1.77zm-3.645 6.944c-.64 1.15-1.288 2.275-1.956 3.4l3.44 2.042c.68-1.148 1.355-2.32 2.008-3.492l-3.493-1.95zm-4 6.738c-.7 1.11-1.407 2.197-2.136 3.28l3.318 2.233c.745-1.108 1.484-2.242 2.2-3.377l-3.382-2.135zM552.14 249c-.764 1.068-1.533 2.108-2.326 3.145l3.18 2.428c.81-1.062 1.616-2.15 2.397-3.243l-3.25-2.33zm-4.747 6.21c-.828 1.016-1.66 2.002-2.518 2.985l3.014 2.63c.88-1.008 1.754-2.045 2.603-3.086l-3.1-2.53zm-5.133 5.88c-.893.956-1.79 1.88-2.713 2.8l2.823 2.835c.95-.946 1.894-1.922 2.812-2.903l-2.922-2.732zm-5.524 5.502c-.958.887-1.917 1.743-2.906 2.592l2.606 3.035c1.018-.875 2.033-1.78 3.018-2.693l-2.718-2.935zm-5.908 5.073c-.51.405-1.017.8-1.536 1.195l2.426 3.18c.534-.407 1.072-.825 1.598-1.243l-2.488-3.132zm-1.536 1.195c-.478.365-.948.693-1.478 1.03l2.15 3.373c.598-.382 1.206-.805 1.754-1.222l-2.426-3.18zm-4.764 2.8c-1.12.513-2.273.962-3.547 1.39l1.273 3.792c1.367-.46 2.713-.986 3.936-1.543l-1.662-3.64zm-7.27 2.468c-1.23.306-2.484.574-3.818.818l.722 3.935c1.392-.255 2.767-.55 4.06-.87l-.964-3.882zm-7.655 1.42c-1.275.17-2.568.315-3.917.438l.365 3.983c1.39-.128 2.762-.28 4.08-.455l-.527-3.966zm-7.895.732c-1.282.073-2.578.13-3.914.167l.116 3.998c1.363-.04 2.715-.096 4.026-.17l-.228-3.995zm-7.9.232c-1.305.006-2.623-.003-3.972-.026l-.068 4c1.37.022 2.73.032 4.057.026l-.017-4zm-7.943-.132c-1.32-.047-2.65-.106-4.003-.176l-.21 3.994c1.37.072 2.734.132 4.07.18l.143-3.998zm-7.96-.413c-1.327-.088-2.66-.187-4.013-.295l-.32 3.987c1.366.11 2.726.21 4.065.298l.267-3.99zm-7.963-.636c-1.326-.12-2.66-.25-4.01-.39l-.408 3.98c1.36.14 2.714.272 4.05.395l.368-3.984zm-7.955-.816c-1.325-.15-2.655-.305-3.998-.47l-.485 3.972c1.352.165 2.7.323 4.033.473l.45-3.976zm-7.946-.966c-1.32-.172-2.647-.35-3.984-.534l-.546 3.963c1.345.185 2.685.365 4.015.537l.516-3.966zm-7.935-1.092c-1.318-.19-2.64-.387-3.97-.588l-.6 3.955c1.338.202 2.672.4 3.997.592l.573-3.96zm-7.925-1.198c-1.316-.207-2.633-.418-3.958-.634l-.643 3.948c1.33.217 2.657.43 3.978.637l.622-3.952zm-7.915-1.29c-1.313-.22-2.628-.444-3.948-.672l-.68 3.94c1.323.23 2.647.456 3.965.678l.663-3.945zm-7.905-1.365c-1.312-.233-2.624-.468-3.94-.707l-.714 3.935c1.32.24 2.64.478 3.955.71l.7-3.937zm-7.893-1.433c-1.31-.243-2.623-.488-3.937-.736l-.742 3.93c1.317.25 2.635.496 3.95.74l.73-3.934zm-7.88-1.488c-1.313-.253-2.625-.507-3.94-.763l-.765 3.924c1.316.258 2.634.513 3.95.766l.755-3.928zm-7.875-1.538c-1.314-.26-2.625-.522-3.937-.785l-.787 3.92c1.314.265 2.63.527 3.946.788l.778-3.924zm-7.872-1.58c-1.312-.265-2.622-.533-3.93-.8l-.804 3.917c1.31.27 2.624.538 3.938.805l.796-3.92zm-7.868-1.613c-1.31-.27-2.617-.542-3.923-.814l-.818 3.916c1.307.272 2.618.545 3.93.816l.81-3.917zm-7.862-1.64c-1.312-.275-2.62-.55-3.923-.826l-.827 3.914c1.305.276 2.615.552 3.927.827l.823-3.914zm-7.86-1.66l-3.925-.835-.834 3.912 3.93.836.83-3.913zm-7.854-1.673l-3.933-.842-.837 3.912c1.305.28 2.617.56 3.935.84l.836-3.91zm-7.853-1.68l-3.942-.844-.835 3.912 3.94.843.838-3.91zm-7.855-1.68l-3.953-.84-.83 3.913 3.95.84.833-3.912zm-7.86-1.667c-1.333-.28-2.655-.56-3.964-.833l-.82 3.915c1.308.274 2.626.55 3.957.832l.827-3.914zm-7.873-1.648c-1.337-.277-2.662-.55-3.97-.818l-.802 3.92c1.306.266 2.625.538 3.96.815l.812-3.918zm-7.89-1.614c-1.34-.27-2.665-.535-3.97-.793l-.776 3.924c1.3.256 2.618.52 3.954.79l.79-3.922zm-7.915-1.563c-1.34-.258-2.66-.51-3.957-.752l-.735 3.932c1.29.24 2.6.49 3.935.748l.757-3.928zm-7.94-1.484c-1.332-.24-2.643-.47-3.922-.69l-.677 3.944c1.272.218 2.567.445 3.892.684l.708-3.937zm-7.956-1.36c-.655-.105-1.305-.207-1.944-.306l-.61 3.953c.632.098 1.27.198 1.92.303l.634-3.95zm-1.944-.306c-.65-.1-1.3-.203-1.955-.307l-.63 3.95c.66.105 1.32.21 1.975.31l.61-3.953zm-5.892-.955c-1.303-.222-2.613-.45-3.937-.684l-.698 3.938c1.332.237 2.657.467 3.968.69l.668-3.945zm-7.865-1.395c-1.298-.24-2.603-.484-3.92-.735l-.748 3.93c1.322.25 2.638.498 3.942.74l.726-3.935zm-7.843-1.49c-1.3-.255-2.607-.513-3.924-.776l-.782 3.922c1.32.263 2.635.523 3.94.778l.766-3.926zm-7.852-1.565c-1.298-.263-2.602-.53-3.915-.798l-.804 3.918c1.314.27 2.623.537 3.924.8l.794-3.92zm-7.832-1.605c-1.3-.27-2.608-.54-3.922-.814l-.815 3.917c1.315.274 2.624.546 3.926.815l.81-3.917zm-7.85-1.632l-3.915-.816-.815 3.916 3.915.816.817-3.917zm-7.836-1.633l-3.928-.814-.81 3.917 3.924.814.814-3.917zm-7.855-1.623c-1.303-.267-2.612-.535-3.925-.8l-.796 3.92c1.31.265 2.616.53 3.917.798l.805-3.918zm-7.857-1.595c-1.308-.263-2.622-.524-3.94-.785l-.775 3.925c1.315.26 2.623.52 3.928.782l.788-3.922zm-7.87-1.555c-1.31-.254-2.625-.508-3.942-.76l-.75 3.93c1.315.25 2.623.503 3.928.756l.763-3.926zm-7.89-1.503c-1.31-.244-2.627-.486-3.945-.726l-.716 3.936c1.314.24 2.62.48 3.927.723l.733-3.933zm-7.897-1.435c-1.315-.233-2.637-.464-3.96-.69l-.676 3.942c1.318.226 2.63.454 3.94.686l.697-3.94zm-7.917-1.36c-1.317-.217-2.64-.433-3.965-.645l-.63 3.95c1.317.21 2.63.425 3.94.643l.655-3.947zm-7.938-1.267c-1.32-.203-2.645-.402-3.97-.597l-.582 3.958c1.32.193 2.632.39 3.945.592l.607-3.953zm-7.95-1.167c-1.325-.186-2.656-.367-3.986-.543l-.526 3.966c1.323.174 2.64.353 3.958.537l.553-3.96zm-7.97-1.055c-1.33-.165-2.663-.325-3.994-.48l-.462 3.972c1.323.155 2.64.314 3.96.478l.496-3.97zm-7.993-.93c-1.33-.144-2.666-.282-4-.415l-.395 3.98c1.325.132 2.643.27 3.965.412l.43-3.977zm-8.006-.794c-1.334-.12-2.674-.235-4.01-.343l-.323 3.987c1.328.107 2.65.22 3.973.34l.36-3.984zm-8.024-.647c-1.336-.096-2.678-.185-4.018-.266l-.242 3.993c1.33.08 2.65.168 3.978.262l.282-3.99zm-8.038-.49c-1.338-.066-2.683-.126-4.023-.178l-.156 3.996c1.33.053 2.652.112 3.98.178l.2-3.995zm-8.05-.314c-1.34-.037-2.686-.067-4.027-.09l-.065 4c1.33.022 2.652.05 3.98.09l.112-4zm-8.056-.13c-1.34-.006-2.69-.004-4.032.007l.033 4c1.33-.01 2.652-.013 3.98-.008l.018-4zm-8.062.065c-.67.015-1.345.03-2.016.05l.11 3.998c.664-.018 1.326-.034 1.99-.048l-.084-4zm-1.96.05c-.686 0-1.372.002-2.05.01l.038 3.998c.668-.006 1.335-.01 2.01-.01v-4zm-6.078.083c-1.37.04-2.732.09-4.068.156l.194 3.994c1.315-.064 2.637-.114 3.987-.152l-.112-4zm-8.12.395c-1.36.095-2.712.206-4.036.33l.37 3.98c1.302-.12 2.61-.226 3.945-.32l-.28-3.99zm-8.067.753c-1.362.16-2.718.34-4.042.53l.57 3.96c1.3-.19 2.603-.36 3.94-.517l-.467-3.972zm-8.063 1.166c-1.35.233-2.69.485-3.998.75l.796 3.92c1.278-.26 2.562-.5 3.882-.728l-.68-3.942zm-7.973 1.624c-1.332.315-2.658.652-3.946 1.003l1.05 3.86c1.256-.342 2.517-.663 3.817-.97l-.92-3.893zm-7.872 2.147c-1.313.408-2.62.842-3.884 1.29l1.333 3.77c1.23-.434 2.464-.844 3.74-1.24l-1.188-3.82zm-7.717 2.73c-1.276.51-2.547 1.05-3.772 1.6l1.64 3.648c1.186-.534 2.38-1.04 3.616-1.533l-1.485-3.715zm-7.475 3.364c-1.227.62-2.448 1.272-3.62 1.934l1.965 3.484c1.133-.64 2.27-1.248 3.456-1.846l-1.8-3.57zm-7.15 4.04c-1.16.73-2.316 1.5-3.422 2.276l2.3 3.274c1.064-.748 2.136-1.462 3.255-2.167l-2.132-3.384zm-6.727 4.725c-1.08.845-2.152 1.728-3.175 2.617l2.622 3.02c.985-.856 1.977-1.673 3.016-2.485l-2.463-3.152zm-6.21 5.395c-.986.95-1.96 1.94-2.89 2.932l2.923 2.733c.893-.956 1.795-1.872 2.742-2.785l-2.777-2.88zm-5.62 6.01c-.88 1.04-1.748 2.123-2.574 3.207l3.18 2.424c.797-1.044 1.602-2.05 2.45-3.052l-3.058-2.58zm-4.983 6.534c-.77 1.12-1.527 2.277-2.247 3.435l3.396 2.11c.695-1.118 1.402-2.198 2.145-3.278l-3.295-2.268zm-4.334 6.965c-.663 1.178-1.313 2.395-1.93 3.61l3.565 1.813c.6-1.18 1.21-2.322 1.852-3.465l-3.486-1.96zm-3.71 7.295c-.564 1.226-1.113 2.486-1.636 3.745l3.695 1.533c.508-1.226 1.028-2.418 1.575-3.61l-3.635-1.668zm-3.133 7.543c-.47 1.26-.93 2.552-1.366 3.842l3.79 1.28c.425-1.26.862-2.49 1.323-3.72l-3.747-1.402zm-2.61 7.72c-.196.647-.39 1.305-.58 1.958l3.844 1.11c.184-.64.37-1.27.563-1.904l-3.827-1.164zm-.58 1.958c-.18.628-.36 1.268-.535 1.908l3.858 1.055c.17-.628.344-1.24.52-1.855l-3.843-1.11zm-1.544 5.8c-.314 1.275-.618 2.584-.908 3.9l3.907.86c.284-1.293.577-2.555.884-3.807l-3.885-.954zM2.32 305c-.256 1.29-.502 2.61-.734 3.934l3.94.693c.228-1.305.467-2.582.717-3.853L2.32 305zm-1.39 7.89c-.203 1.294-.396 2.612-.578 3.933l3.963.545c.18-1.303.367-2.585.567-3.862L.93 312.89zm-1.087 7.893c-.158 1.31-.306 2.643-.444 3.976l3.978.41c.136-1.317.28-2.615.436-3.91l-3.97-.477zm-.82 7.933c-.116 1.314-.222 2.646-.317 3.978l3.99.287c.094-1.316.197-2.617.31-3.916l-3.984-.348zm-.574 7.96c-.075 1.314-.14 2.644-.198 3.973l3.997.168c.054-1.314.12-2.615.193-3.916l-3.994-.227zm-.338 7.962c-.037 1.32-.065 2.65-.084 3.98l4 .055c.018-1.315.046-2.618.082-3.923l-3.998-.112zM-2 352.6c0 1.323.01 2.657.027 3.988l4-.054C2.006 355.217 2 353.91 2 352.6h-4zm.108 7.966c.036 1.323.08 2.656.135 3.985l3.997-.163c-.054-1.314-.098-2.62-.134-3.93l-3.998.11zm.325 7.96c.072 1.323.154 2.653.245 3.978l3.99-.273c-.09-1.31-.17-2.613-.24-3.92l-3.995.217zm.544 7.95c.108 1.32.227 2.648.354 3.97l3.983-.385c-.126-1.305-.242-2.605-.35-3.91l-3.986.327zm.764 7.932c.147 1.318.303 2.642.468 3.958l3.97-.498c-.164-1.3-.317-2.596-.46-3.9l-3.977.44zm.993 7.91c.184 1.313.38 2.632.583 3.94l3.952-.614c-.2-1.294-.392-2.584-.574-3.883l-3.96.557zm1.227 7.877c.224 1.31.46 2.62.704 3.922l3.93-.74c-.24-1.283-.47-2.565-.692-3.857l-3.942.675zm1.472 7.84c.267 1.302.546 2.608.833 3.9l3.904-.868c-.284-1.275-.556-2.55-.82-3.835l-3.918.802zm1.732 7.787c.312 1.296.637 2.594.97 3.876l3.872-1.006c-.33-1.265-.645-2.528-.953-3.806l-3.89.936zm2.01 7.725c.36 1.286.733 2.573 1.116 3.843l3.83-1.155c-.377-1.25-.74-2.5-1.095-3.767l-3.852 1.08zm2.31 7.657c.41 1.27.836 2.538 1.27 3.787l3.778-1.314c-.427-1.228-.84-2.457-1.244-3.705l-3.805 1.234zm2.63 7.557c.468 1.252.952 2.502 1.445 3.73l3.71-1.49c-.482-1.205-.95-2.41-1.408-3.64l-3.747 1.4zm2.984 7.43c.53 1.23 1.08 2.46 1.637 3.665l3.63-1.68c-.546-1.18-1.074-2.36-1.594-3.568L15.1 446.19zm3.37 7.274c.6 1.202 1.22 2.403 1.846 3.573l3.525-1.89c-.614-1.144-1.206-2.29-1.79-3.466l-3.582 1.784zm3.804 7.088c.672 1.16 1.367 2.318 2.07 3.44l3.39-2.12c-.683-1.093-1.343-2.19-1.998-3.323l-3.462 2.002zm4.27 6.82c.755 1.117 1.54 2.228 2.33 3.3l3.22-2.372c-.766-1.04-1.505-2.086-2.24-3.17l-3.31 2.243zm4.788 6.498c.844 1.05 1.72 2.094 2.6 3.094l3.003-2.642c-.85-.966-1.668-1.94-2.485-2.957l-3.118 2.505zm5.352 6.076c.466.48.946.964 1.422 1.432l2.802-2.855c-.458-.45-.902-.897-1.35-1.36l-2.874 2.783zm1.422 1.432c.506.497 1.03.994 1.546 1.47l2.71-2.944c-.494-.453-.97-.906-1.454-1.38l-2.802 2.854zm4.764 4.243c1.102.89 2.252 1.755 3.395 2.558l2.3-3.273c-1.09-.765-2.135-1.55-3.184-2.398l-2.512 3.114zm6.95 4.885c1.205.732 2.457 1.44 3.7 2.09l1.855-3.544c-1.188-.62-2.327-1.263-3.475-1.962l-2.08 3.417zm7.52 3.94c1.277.57 2.6 1.115 3.916 1.613l1.415-3.74c-1.263-.478-2.478-.978-3.7-1.525l-1.633 3.652zm7.913 2.998c1.328.42 2.697.814 4.057 1.17l1.01-3.87c-1.312-.343-2.583-.71-3.86-1.113l-1.206 3.813zm8.16 2.138c1.355.288 2.747.55 4.133.783l.66-3.945c-1.344-.225-2.652-.472-3.965-.75l-.83 3.913zm8.288 1.396c1.37.175 2.77.33 4.166.46l.37-3.984c-1.363-.126-2.694-.273-4.028-.444l-.508 3.968zm8.335.78c1.374.083 2.774.15 4.172.196l.133-3.998c-1.37-.046-2.714-.11-4.06-.19l-.245 3.99zm8.34.28c1.376.013 2.772.008 4.167-.01l-.056-4c-1.374.018-2.725.023-4.077.01l-.033 4zm8.326-.112c1.372-.046 2.762-.106 4.152-.177l-.205-3.995c-1.374.07-2.73.13-4.083.175l.135 3.997zm8.297-.423c1.368-.09 2.75-.192 4.135-.304l-.32-3.987c-1.372.11-2.728.21-4.08.3l.265 3.99zm8.262-.66c1.364-.126 2.74-.26 4.12-.402l-.41-3.98c-1.368.14-2.725.274-4.078.398l.367 3.984zm8.233-.843c1.36-.15 2.733-.31 4.108-.473l-.47-3.972c-1.37.163-2.726.32-4.08.47l.443 3.975zm8.21-.973c1.36-.17 2.728-.344 4.1-.522l-.516-3.967c-1.367.177-2.725.35-4.08.52l.496 3.97zm8.193-1.062c1.36-.182 2.723-.366 4.092-.553l-.54-3.964c-1.367.186-2.727.37-4.082.55l.53 3.966zm8.177-1.114l4.08-.566-.55-3.962c-1.364.19-2.723.378-4.078.565l.548 3.963zm8.16-1.133c.682-.094 1.363-.19 2.046-.283l-.55-3.963c-.682.094-1.365.19-2.045.283l.55 3.962zm2.046-.283c.677-.094 1.357-.19 2.035-.287l-.565-3.96c-.675.097-1.346.19-2.02.284l.55 3.962zm6.108-.886c1.353-.204 2.71-.416 4.067-.63l-.63-3.952c-1.348.215-2.69.424-4.036.627l.598 3.956zm8.128-1.294c1.35-.225 2.704-.456 4.055-.69l-.684-3.94c-1.344.232-2.685.46-4.028.685l.658 3.945zm8.104-1.408c1.347-.243 2.697-.49 4.044-.742l-.734-3.932c-1.34.25-2.68.496-4.02.738l.71 3.936zm8.083-1.507c1.344-.258 2.69-.52 4.034-.786l-.775-3.923c-1.34.264-2.675.525-4.014.782l.755 3.927zm8.063-1.592c1.343-.27 2.686-.547 4.025-.824l-.81-3.916c-1.335.277-2.67.55-4.007.82l.793 3.92zm8.046-1.664c1.34-.282 2.68-.567 4.016-.854l-.84-3.91c-1.333.285-2.666.57-4.002.85l.826 3.915zm8.028-1.723c1.34-.292 2.677-.586 4.01-.88l-.863-3.907c-1.33.295-2.663.587-4 .88l.853 3.907zm8.018-1.772c1.338-.3 2.674-.6 4.004-.9l-.88-3.902c-1.33.3-2.66.6-3.997.898l.873 3.905zm8.006-1.808l4-.914-.893-3.9c-1.327.305-2.658.61-3.994.913l.888 3.9zm7.998-1.832l3.996-.92-.9-3.898-3.993.92.897 3.898zm7.99-1.842l3.994-.92-.898-3.898-3.995.92.9 3.898zm7.987-1.838c1.337-.307 2.668-.61 3.992-.913l-.89-3.9-3.997.914.894 3.9zm7.986-1.82c1.34-.302 2.67-.6 3.994-.897l-.87-3.903c-1.327.296-2.663.596-4.006.9l.882 3.9zm7.99-1.782c1.344-.295 2.675-.586 4-.87l-.845-3.91c-1.326.285-2.666.577-4.013.873l.86 3.907zm8-1.725c1.347-.284 2.68-.56 4.003-.833l-.804-3.918c-1.33.272-2.673.552-4.026.837l.826 3.914zm8.01-1.64c1.353-.268 2.688-.527 4.012-.78l-.747-3.93c-1.33.254-2.68.517-4.04.786l.777 3.924zm8.026-1.522c.67-.12 1.335-.24 1.998-.355l-.69-3.94c-.668.117-1.342.237-2.018.36l.71 3.936zm1.998-.355l2.07-.363-.692-3.94-2.068.363.69 3.94zm6.116-1.078c1.38-.245 2.727-.486 4.038-.72l-.706-3.938c-1.31.235-2.652.475-4.032.72l.7 3.938zm8.11-1.453l4.062-.736-.713-3.936-4.06.734.71 3.937zm8.117-1.472c1.39-.253 2.738-.497 4.05-.734l-.712-3.936-4.05.734.713 3.936zm8.093-1.462c1.39-.248 2.737-.487 4.053-.718l-.69-3.94c-1.322.23-2.676.472-4.068.72l.704 3.938zm8.11-1.418c1.38-.234 2.723-.457 4.048-.67l-.638-3.95c-1.333.215-2.693.44-4.08.676l.67 3.944zm8.09-1.303c1.366-.206 2.71-.4 4.054-.586l-.546-3.963c-1.358.187-2.727.385-4.104.593l.596 3.955zm8.11-1.115c1.347-.166 2.693-.32 4.063-.468l-.428-3.977c-1.386.15-2.763.308-4.125.475l.488 3.97zm8.125-.873c1.335-.123 2.685-.237 4.076-.345l-.31-3.988c-1.404.11-2.783.226-4.132.35l.367 3.983zm8.167-.634c1.33-.086 2.688-.166 4.093-.24l-.212-3.995c-1.416.076-2.797.156-4.138.243l.257 3.993zm8.18-.437c1.33-.058 2.69-.11 4.098-.16l-.14-3.998c-1.417.05-2.794.104-4.13.162l.173 3.996zm8.203-.292c1.333-.038 2.7-.073 4.113-.106l-.092-4c-1.416.034-2.795.07-4.135.108l.115 3.998zm8.238-.19c1.33-.025 2.694-.047 4.096-.068l-.058-4c-1.406.02-2.777.044-4.11.068l.072 4zm8.192-.12c1.338-.015 2.707-.03 4.11-.04l-.033-4c-1.407.01-2.782.025-4.122.04l.045 4zm8.25-.072c1.34-.008 2.708-.016 4.108-.022l-.018-4c-1.402.006-2.773.014-4.114.022l.025 4zm8.206-.037l4.15-.01-.005-4-4.156.01.012 4zm8.243-.014h2.105v-4h-2.108l.002 4zm2.105 0c.63 0 1.267.005 1.922.013l.05-4c-.666-.008-1.328-.012-1.972-.012v4zm5.833.107c1.275.045 2.576.102 3.917.173l.21-3.995c-1.357-.07-2.694-.13-3.988-.175l-.14 3.997zm7.835.41c1.286.09 2.59.187 3.92.296l.327-3.986c-1.344-.11-2.674-.21-3.974-.3l-.273 3.99zm7.842.642c1.293.12 2.597.25 3.92.39l.42-3.977c-1.335-.14-2.66-.274-3.965-.396l-.375 3.982zm7.827.823c1.292.15 2.59.306 3.903.47l.498-3.968c-1.322-.166-2.64-.325-3.94-.476l-.46 3.973zm7.806.98c1.296.174 2.594.355 3.903.543l.57-3.96c-1.317-.19-2.633-.372-3.937-.548l-.535 3.964zm7.802 1.122c1.294.197 2.588.4 3.888.61l.637-3.948c-1.308-.212-2.618-.417-3.92-.616l-.605 3.955zm7.772 1.255c1.295.22 2.587.445 3.88.677l.706-3.937c-1.303-.233-2.61-.462-3.914-.684l-.672 3.944zm7.754 1.387c1.294.243 2.58.49 3.867.744l.773-3.924c-1.296-.255-2.6-.505-3.9-.75l-.74 3.93zm7.728 1.523c1.293.267 2.574.537 3.853.814l.846-3.91c-1.288-.278-2.59-.553-3.89-.822l-.81 3.918zm7.693 1.664c1.287.292 2.56.588 3.825.89l.926-3.892c-1.276-.304-2.57-.604-3.866-.9l-.885 3.902zm7.653 1.822c1.287.322 2.555.647 3.812.978l1.018-3.87c-1.27-.333-2.56-.664-3.86-.988l-.97 3.88zm7.606 2.003c1.28.355 2.533.713 3.772 1.078l1.13-3.838c-1.254-.37-2.537-.735-3.832-1.095l-1.07 3.854zm7.52 2.215c1.272.398 2.506.798 3.72 1.204l1.27-3.793c-1.232-.413-2.505-.825-3.795-1.23l-1.194 3.818zm7.407 2.488c1.262.457 2.47.913 3.646 1.378l1.47-3.72c-1.206-.475-2.468-.952-3.756-1.418l-1.36 3.76zm7.237 2.87c1.243.546 2.398 1.084 3.503 1.636l1.787-3.58c-1.154-.575-2.398-1.156-3.684-1.72l-1.606 3.664zm6.856 3.45c1.176.696 2.18 1.36 3.092 2.052l2.415-3.19c-1.016-.767-2.208-1.557-3.47-2.304l-2.037 3.444zm5.676 4.42c.397.466.66.838.9 1.28l3.505-1.926c-.35-.633-.843-1.335-1.356-1.942l-3.048 2.588z"/></defs></svg>