<svg width="80" height="80" viewBox="0 0 80 80" xmlns="http://www.w3.org/2000/svg" xmlns:xlink="http://www.w3.org/1999/xlink"><title>lock</title><desc>Created using Figma</desc><g transform="translate(22.63 17)" fill="#BDBDBD"><use xlink:href="#a"/><use xlink:href="#b"/><use xlink:href="#c"/><use xlink:href="#d"/></g><use xlink:href="#e" transform="translate(20 36.88)" fill="#828282"/><use xlink:href="#f" transform="translate(32.11 41.59)" fill="#E0E0E0"/><use xlink:href="#g" transform="translate(38.42 44.73)" fill="#333"/><defs><path id="a" d="M0 17.53c0 .086 0 .174.002.26L0 25.64h5.263v-7.85c-.002-.086 0-.26 0-.26 0-6.883 5.447-12.297 12.37-12.297C24.552 5.233 30 10.647 30 17.53v.086c0 .06.002.117 0 .175v2.094l-.002 1.308h2.633v1.046H30v1.047h5.263V17.79c.002-.086.003-.174.003-.26C35.263 7.847 27.37 0 17.633 0 7.892 0 0 7.848 0 17.53z"/><path id="b" d="M0 17.53c0 .086 0 .174.002.26L0 25.64h5.263v-7.85c-.002-.086 0-.26 0-.26 0-6.883 5.447-12.297 12.37-12.297C24.552 5.233 30 10.647 30 17.53v.086c0 .06.002.117 0 .175v2.094l-.002 1.308h2.633v1.046H30v1.047h5.263V17.79c.002-.086.003-.174.003-.26C35.263 7.847 27.37 0 17.633 0 7.892 0 0 7.848 0 17.53z"/><path id="c" d="M0 17.53c0 .086 0 .174.002.26L0 25.64h5.263v-7.85c-.002-.086 0-.26 0-.26 0-6.883 5.447-12.297 12.37-12.297C24.552 5.233 30 10.647 30 17.53v.086c0 .06.002.117 0 .175v2.094l-.002 1.308h2.633v1.046H30v1.047h5.263V17.79c.002-.086.003-.174.003-.26C35.263 7.847 27.37 0 17.633 0 7.892 0 0 7.848 0 17.53z"/><path id="d" d="M0 17.53c0 .086 0 .174.002.26L0 25.64h5.263v-7.85c-.002-.086 0-.26 0-.26 0-6.883 5.447-12.297 12.37-12.297C24.552 5.233 30 10.647 30 17.53v.086c0 .06.002.117 0 .175v2.094l-.002 1.308h2.633v1.046H30v1.047h5.263V17.79c.002-.086.003-.174.003-.26C35.263 7.847 27.37 0 17.633 0 7.892 0 0 7.848 0 17.53z"/><path id="e" d="M0 0h40v25.116H0V0z"/><path id="f" d="M16.316 8.11c0 4.48-3.653 8.11-8.158 8.11C3.652 16.22 0 12.59 0 8.11 0 3.63 3.652 0 8.158 0c4.505 0 8.158 3.63 8.158 8.11z"/><path id="g" d="M0 0h3.158v10.465H0V0z"/></defs></svg>
