<?xml version="1.0" encoding="UTF-8"?>
<svg version="1.1" viewBox="0 0 1773 600" xmlns="http://www.w3.org/2000/svg" xmlns:xlink="http://www.w3.org/1999/xlink">
<title>dots-bg3</title>
<desc>Created using Figma</desc>
<g transform="translate(-8614 -2496)">
<clipPath id="f" clip-rule="evenodd">
<path d="m8614 2496h1773v600h-1773v-600z" fill="#fff"/>
</clipPath>
<g clip-path="url(#f)">
<mask id="e" mask-type="alpha">
<use transform="translate(8834 2500)" fill="#C4C4C4" xlink:href="#c"/>
</mask>
<g mask="url(#e)">
<g opacity=".73">
<use transform="translate(8927 2498)" fill="#F2F2F2" fill-opacity=".1" xlink:href="#b"/>
</g>
</g>
<mask id="d">
<use transform="translate(8614 2496)" fill="white" xlink:href="#path2_fill"/>
</mask>
<g mask="url(#d)">
<use transform="translate(8614 2496)" xlink:href="#a"/>
</g>
</g>
</g>
<defs>
<path id="c" d="m0 0h1208v617h-1208v-617z"/>
<path id="b" d="m390.22 106.84c-3.065 1.225-5.272 1.715-6.62 4.656-2.207 5.391 2.084 12.13 8.091 11.15 9.807-1.716 9.317-16.051-1.471-15.806zm-40.824 21.809c-1.961 6.494 3.555 13.11 10.175 11.885 11.279-2.083 10.666-18.869-2.329-18.501-3.923 1.715-6.497 2.45-7.846 6.616zm25.132 6.862c-2.697 6.248 2.329 14.212 9.317 13.11 11.646-1.961 11.033-18.746-1.594-18.501-3.555 1.347-6.252 1.96-7.723 5.391zm24.396 8.944c-0.511 1.466-0.631 3.041-0.349 4.568 0.283 1.527 0.959 2.954 1.961 4.141s2.295 2.092 3.754 2.628c1.459 0.535 3.031 0.682 4.564 0.425 10.788-2.083 10.175-18.256-2.697-17.888-3.433 1.47-6.13 2.45-7.233 6.126zm-33.713-45.579c-3.188 1.4701-5.517 2.3281-6.498 6.0041-0.352 1.277-0.375 2.623-0.065 3.912 0.309 1.289 0.94 2.478 1.834 3.457 0.893 0.979 2.021 1.715 3.277 2.141 1.255 0.425 2.598 0.526 3.904 0.292 9.439-1.838 8.949-16.174-2.452-15.806zm-24.641-7.8415c-3.065 1.3478-5.394 2.3279-6.375 5.7586-0.355 1.2612-0.382 2.5918-0.08 3.866 0.303 1.275 0.924 2.452 1.807 3.42s1.998 1.696 3.24 2.115c1.242 0.418 2.57 0.514 3.859 0.278 9.317-1.715 8.705-15.805-2.451-15.438zm99.055 94.344c-0.433 1.5-0.472 3.086-0.112 4.604 0.361 1.519 1.107 2.919 2.167 4.065 1.061 1.146 2.399 1.999 3.886 2.477 1.487 0.477 3.072 0.563 4.602 0.249 10.788-2.083 10.175-18.624-3.065-18.256-3.801 1.715-6.375 2.695-7.478 6.861zm-0.981-61.875c-2.697 1.348-4.659 2.083-5.517 5.146-0.363 1.196-0.41 2.465-0.136 3.684s0.859 2.346 1.699 3.272c0.839 0.926 1.905 1.618 3.092 2.009 1.187 0.392 2.456 0.469 3.681 0.225 8.337-1.716 7.846-14.703-2.819-14.336zm-24.151 53.788c-0.379 1.599-0.36 3.267 0.055 4.857 0.416 1.59 1.215 3.054 2.329 4.263 1.113 1.21 2.506 2.128 4.057 2.674s3.212 0.703 4.838 0.459c11.523-2.206 10.91-19.849-3.31-19.482-3.923 1.716-6.743 2.818-7.969 7.229zm-96.235 227.65c-4.904 2.083-8.337 3.186-10.053 8.454-2.574 8.209 4.659 17.154 13.118 15.561 14.711-2.573 13.975-24.383-3.065-24.015zm105.43-252.03c-1.839 5.759 3.187 12.007 9.071 11.027 10.911-1.838 10.298-17.521-1.471-17.276-3.8 1.471-6.375 2.206-7.6 6.249zm-140.37-53.666c-2.942 1.3475-5.272 2.2055-6.375 5.3915-0.506 1.387-0.633 2.883-0.37 4.336s0.908 2.81 1.868 3.932c0.961 1.122 2.202 1.968 3.597 2.453 1.396 0.485 2.895 0.59 4.345 0.306 9.562-1.961 9.071-16.786-3.065-16.418zm-56.761 8.8215c-3.187 1.348-5.516 2.328-6.497 5.881-0.344 1.283-0.361 2.631-0.05 3.922 0.31 1.29 0.939 2.483 1.828 3.469 0.889 0.987 2.011 1.735 3.264 2.177 1.252 0.443 2.595 0.565 3.907 0.357 9.44-1.838 8.949-16.173-2.452-15.806zm-15.201 29.038c-2.452 5.882 2.574 13.111 8.826 12.253 11.524-1.593 11.156-17.644-0.858-17.889-3.923 1.471-6.497 1.838-7.968 5.636zm32.364-15.683c-1.839 6.127 3.31 12.498 9.563 11.395 10.91-1.96 10.297-18.011-2.085-17.643-3.677 1.47-6.252 2.328-7.478 6.248zm-8.949 24.628c-0.387 1.594-0.372 3.259 0.042 4.847 0.415 1.587 1.217 3.047 2.334 4.248 1.117 1.202 2.516 2.108 4.069 2.638 1.554 0.529 3.214 0.666 4.834 0.397 11.523-2.206 10.91-19.849-3.31-19.482-3.923 1.838-6.743 2.941-7.969 7.352zm90.228-24.75c-0.393 1.452-0.414 2.98-0.06 4.442 0.354 1.463 1.072 2.812 2.086 3.924 1.015 1.111 2.293 1.949 3.718 2.436 1.424 0.486 2.949 0.606 4.432 0.348 11.033-1.961 10.42-18.502-2.452-18.134-3.923 1.593-6.62 2.573-7.724 6.984zm-130.56 3.308c-2.942 1.225-5.271 1.715-6.497 4.656-2.33 5.391 2.084 12.13 8.091 11.15 9.807-1.716 9.317-16.051-1.594-15.806zm7.969 37.615c-2.085 6.861 3.8 13.845 10.788 12.497 11.769-2.205 11.156-19.849-2.697-19.481-4.046 1.838-6.743 2.696-8.091 6.984zm114.01-78.783c-3.188 1.2252-5.394 2.0829-6.375 5.6361s3.065 10.17 8.214 9.1893c9.072-1.5928 8.581-15.193-1.839-14.825zm-57.128 8.3316c-2.943 1.3478-5.149 2.0829-6.253 5.146-1.839 5.3915 2.82 11.15 8.337 10.048 9.194-1.716 8.704-15.561-2.084-15.194zm41.436 20.952c-1.839 6.126 3.31 12.498 9.685 11.395 10.788-1.96 10.175-17.889-2.207-17.644-3.678 1.593-6.252 2.451-7.478 6.249zm-32.978 16.296c-0.525 1.567-0.63 3.244-0.303 4.864 0.328 1.621 1.075 3.126 2.167 4.367 1.093 1.241 2.492 2.173 4.058 2.703s3.245 0.64 4.867 0.318c11.156-2.205 10.543-19.236-3.31-18.746-3.556 1.715-6.13 2.573-7.479 6.494zm24.029 7.596c-2.33 6.617 3.8 14.336 10.543 13.233 12.504-2.205 11.891-20.339-1.839-20.094-4.291 1.715-7.111 2.45-8.704 6.861zm122.47-21.441c-2.942 1.347-5.149 2.205-6.13 5.513-0.383 1.326-0.403 2.731-0.058 4.067 0.344 1.336 1.041 2.556 2.017 3.532 0.977 0.976 2.197 1.672 3.534 2.017 1.338 0.344 2.743 0.324 4.069-0.059 8.337-2.328 7.233-15.438-3.432-15.07zm13.24 319.18c11.769-2.328 11.156-20.217-3.065-19.849-3.923 1.838-6.743 2.818-8.091 7.106-0.507 1.622-0.589 3.347-0.238 5.01s1.123 3.208 2.243 4.486c1.119 1.279 2.549 2.249 4.151 2.818 1.603 0.568 3.324 0.716 5 0.429zm-19.002-53.788c-5.026 1.96-8.459 2.818-10.053 7.964-2.329 7.474 4.291 16.05 11.892 14.825 14.343-2.45 13.608-23.157-1.839-22.789zm32.242-15.806c-4.536 1.838-7.723 2.818-9.195 7.719-1.961 7.107 4.414 14.826 11.524 13.478 13.118-2.328 12.505-21.564-2.329-21.197zm-64.974 31.979c-4.904 1.96-8.214 2.818-10.053 7.841-2.697 7.719 4.046 17.031 12.137 15.561 14.711-2.45 13.975-23.647-2.084-23.402zm87.408-264.53c-2.329 1.103-4.168 1.961-5.026 4.534-0.346 1.122-0.393 2.315-0.135 3.461 0.257 1.146 0.809 2.205 1.602 3.071 0.793 0.867 1.799 1.512 2.918 1.87 1.119 0.359 2.312 0.419 3.461 0.175 7.478-1.593 6.988-13.478-2.82-13.111zm-61.541 295.16c14.098-1.593 13.975-20.952-0.613-21.932-5.394 1.961-7.969 1.961-10.053 7.352-2.819 7.229 3.433 15.315 10.666 14.58zm30.648-37.86c-4.168 1.838-7.11 2.818-8.459 7.474-2.207 6.984 4.291 14.58 11.524 13.233 12.504-2.451 11.769-21.075-3.065-20.707zm49.282-64.815c-4.168 1.715-7.233 2.573-8.459 6.984-1.838 6.371 3.556 13.355 10.053 12.252 12.014-2.083 11.401-19.359-1.594-19.236zm-8.581 24.505c-3.801 1.715-6.498 2.695-7.846 6.738-0.515 1.573-0.612 3.251-0.282 4.873 0.329 1.621 1.074 3.129 2.161 4.376s2.48 2.191 4.041 2.739c1.562 0.548 3.239 0.681 4.868 0.387 11.524-2.083 10.911-19.481-2.942-19.113zm-294.1-194.81c-1.962 6.127 3.187 12.498 9.562 11.273 10.42-1.961 9.93-17.644-2.452-17.399-3.433 1.593-6.007 2.451-7.11 6.126zm288.22 238.56c12.137-1.961 11.524-19.359-1.471-19.114-4.291 1.715-7.233 2.45-8.459 6.984-1.839 6.371 3.433 13.232 9.93 12.13zm-18.143-52.808c-4.904 1.96-8.214 2.818-9.685 7.964s4.536 14.703 11.401 13.6c13.608-2.328 12.995-21.932-1.716-21.564zm-65.342 31.611c-5.272 2.083-8.827 3.063-10.543 8.577-2.452 7.964 4.658 17.031 12.749 15.683 15.202-2.451 14.466-24.628-2.206-24.26zm106.78-170.06c-0.367 1.24-0.406 2.554-0.112 3.813 0.293 1.26 0.908 2.421 1.786 3.372 0.877 0.951 1.986 1.658 3.218 2.052s2.546 0.462 3.812 0.197c8.704-1.838 8.214-15.316-2.697-14.948-2.942 1.47-5.026 2.205-6.007 5.514zm14.221-28.794c-1.962 0.981-3.433 1.471-4.414 3.186-0.574 1.056-0.838 2.253-0.761 3.452 0.077 1.2 0.492 2.353 1.197 3.327 0.706 0.974 1.672 1.728 2.788 2.177 1.116 0.448 2.336 0.571 3.519 0.356 7.356-1.47 6.865-12.865-2.329-12.498zm0.735 79.641c-3.432 1.47-5.884 2.206-6.987 5.759-1.839 5.636 2.942 11.762 8.826 10.659 10.053-1.715 9.562-16.663-1.839-16.418zm-23.783-26.71c-1.716 5.758 3.188 11.885 8.95 10.905 10.665-1.716 10.175-17.154-1.472-17.031-3.677 1.47-6.252 2.205-7.478 6.126zm-1.839-61.752c-2.697 1.347-4.658 2.083-5.639 5.268-0.345 1.2-0.373 2.468-0.082 3.682s0.892 2.332 1.744 3.245c0.851 0.913 1.925 1.59 3.116 1.965 1.192 0.375 2.46 0.435 3.681 0.175 8.336-1.715 7.846-14.703-2.82-14.335zm-14.711 29.406c-0.414 1.456-0.428 2.996-0.043 4.46s1.157 2.798 2.234 3.862 2.421 1.82 3.89 2.188 3.01 0.335 4.462-0.096c9.195-2.45 8.091-16.908-3.8-16.541-3.31 1.471-5.762 2.451-6.743 6.127zm-95.99 250.56c14.343-1.593 14.221-21.196-0.613-22.177-5.149 1.961-7.846 1.838-9.93 6.984-3.065 7.352 2.942 16.051 10.543 15.193zm-17.531-55.871c-5.516 2.083-8.459 2.328-10.665 7.842-3.31 8.086 4.045 18.133 12.382 16.786 15.692-2.573 14.956-24.995-1.717-24.628zm-9.072 25.363c-4.658 2.083-7.845 3.185-9.439 8.331-2.329 7.964 5.026 16.296 13.117 14.703 13.853-2.573 13.118-23.402-3.678-23.034zm154.84-137.1c-3.678 1.471-6.252 2.328-7.478 6.249-1.839 6.126 3.31 12.497 9.562 11.395 10.911-1.961 10.298-18.011-2.084-17.644zm-8.214 24.015c-3.8 1.715-6.497 2.451-7.723 6.739-1.961 6.371 3.555 13.11 10.175 11.762 11.279-2.083 10.666-18.869-2.452-18.501zm-151.28 159.89c13.117-2.328 12.504-21.932-2.697-21.564-4.659 1.838-7.723 2.94-9.195 7.841-2.206 7.229 4.536 14.948 11.892 13.723zm110.95-298.96c-1.348 5.391 3.433 10.782 8.705 9.925 10.052-1.716 9.562-16.419-1.472-16.174-3.677 1.471-6.129 2.328-7.233 6.249zm-126.02 345.64c9.317-2.573 8.214-17.276-3.8-16.909-3.31 1.471-5.762 2.573-6.866 6.249-0.397 1.476-0.398 3.03-2e-3 4.507 0.395 1.476 1.172 2.822 2.253 3.903 1.082 1.081 2.429 1.858 3.906 2.253 1.477 0.394 3.032 0.393 4.509-3e-3zm-19.86-51.093c-4.413 1.838-7.478 2.696-8.827 7.474-1.961 6.616 4.046 14.09 10.911 12.865 12.627-2.205 12.014-20.706-2.084-20.339zm48.424 17.031c-3.678 1.593-6.252 2.695-7.355 6.861-0.425 1.488-0.462 3.06-0.107 4.566 0.355 1.507 1.089 2.897 2.134 4.039 1.044 1.142 2.364 1.998 3.833 2.487 1.469 0.488 3.039 0.592 4.56 0.303 10.911-2.083 10.298-18.624-3.065-18.256zm-56.883 8.577c-3.432 1.592-6.007 2.573-7.233 6.248-0.519 1.478-0.641 3.066-0.353 4.606 0.287 1.539 0.974 2.976 1.992 4.167s2.331 2.094 3.807 2.619c1.477 0.524 3.065 0.652 4.607 0.371 10.665-2.083 10.175-18.256-2.82-18.011zm32.61-17.154c-4.046 1.838-6.743 2.696-8.091 6.984-2.084 6.861 3.8 13.845 10.788 12.498 11.769-2.206 11.156-19.849-2.697-19.482zm19.492 49.99c9.195-1.838 8.582-16.173-3.065-15.806-3.065 1.593-5.271 2.328-6.252 5.882-0.366 1.317-0.386 2.706-0.059 4.034 0.326 1.327 0.99 2.549 1.926 3.546s2.113 1.736 3.418 2.147c1.305 0.41 2.693 0.478 4.032 0.197zm-57.496 8.454c9.194-1.838 8.582-15.56-2.207-15.193-2.942 1.225-5.149 1.961-6.129 5.146-0.441 1.24-0.551 2.573-0.321 3.869 0.23 1.295 0.792 2.509 1.633 3.522 0.84 1.013 1.929 1.79 3.161 2.256 1.231 0.465 2.562 0.603 3.863 0.4zm-67.671-65.183c-3.801 1.471-6.375 2.206-7.846 6.004-2.084 6.249 3.065 13.355 9.685 12.13 11.278-1.96 10.665-18.501-1.839-18.134zm49.282 15.806c-3.678 1.348-6.252 1.96-7.846 5.391-2.574 6.249 2.329 14.213 9.317 13.11 11.647-1.96 11.034-18.746-1.471-18.501zm-31.016 33.694c9.808-1.715 9.317-16.051-1.594-15.805-3.064 1.225-5.271 1.715-6.497 4.655-2.329 5.391 2.084 12.13 8.091 11.15zm24.396 7.842c9.93-1.716 9.317-15.928-1.471-15.806-3.065 1.348-5.271 1.838-6.497 4.779-2.33 5.391 1.961 12.129 7.968 11.027zm-18.511-49.623c-3.801 1.716-6.498 2.451-7.724 6.617-1.961 6.493 3.555 13.11 10.175 11.885 11.279-2.083 10.666-18.869-2.451-18.502zm198.6-0.367c9.44-1.838 8.827-16.418-3.065-16.051-2.82 1.348-5.149 2.206-6.252 5.269-0.523 1.365-0.665 2.846-0.413 4.285 0.253 1.439 0.891 2.783 1.846 3.889 0.956 1.106 2.194 1.933 3.582 2.392s2.875 0.534 4.302 0.216zm5.271-41.413c-3.555 1.47-6.252 2.328-7.355 6.248-1.962 6.127 3.187 12.498 9.562 11.395 10.788-1.96 10.175-18.011-2.207-17.643zm-233.78 75.352c9.194-1.838 8.704-15.806-2.452-15.561-3.187 1.471-5.394 2.328-6.375 5.882-0.354 1.261-0.381 2.591-0.079 3.866s0.924 2.452 1.807 3.42 1.998 1.696 3.24 2.114c1.242 0.419 2.57 0.515 3.859 0.279zm220.18-10.169c8.581-1.716 8.091-14.948-2.452-14.581-2.942 1.225-5.027 2.083-6.007 5.269-0.326 1.209-0.342 2.48-0.047 3.697 0.294 1.217 0.89 2.341 1.732 3.267 0.842 0.927 1.903 1.628 3.087 2.038 1.183 0.41 2.451 0.517 3.687 0.31zm40.578-40.924c8.704-1.837 8.214-15.193-2.697-14.825-2.942 1.348-5.027 2.205-6.007 5.391-0.367 1.24-0.406 2.554-0.112 3.814 0.293 1.259 0.908 2.421 1.785 3.372 0.877 0.95 1.986 1.657 3.219 2.052 1.232 0.394 2.545 0.462 3.812 0.196zm-18.512-49.254c-3.677 1.47-6.375 2.083-7.846 5.513-2.697 6.249 2.33 14.213 9.317 13.11 11.647-1.96 11.034-18.868-1.471-18.623zm-73.555 57.464c-3.923 1.715-6.743 2.573-7.969 6.861-1.961 6.371 3.555 13.233 10.175 12.007 11.524-2.083 10.911-19.236-2.206-18.868zm-4.536 42.27c9.194-2.573 8.091-16.908-3.801-16.54-3.187 1.47-5.639 2.45-6.62 6.003-0.43 1.452-0.463 2.992-0.095 4.46 0.368 1.469 1.124 2.811 2.189 3.888 1.064 1.076 2.399 1.848 3.864 2.233 1.464 0.385 3.006 0.37 4.463-0.044zm-19.86-50.97c-4.414 1.838-7.479 2.696-8.827 7.474-1.962 6.739 4.168 14.091 10.911 12.988 12.627-2.328 12.014-20.707-2.084-20.462zm56.883-7.719c-3.923 1.716-6.498 2.573-7.846 6.739-1.962 6.371 3.555 13.11 10.175 11.763 11.279-2.083 10.666-18.869-2.329-18.502zm-6.007 42.394c10.665-1.716 10.175-17.276-1.471-17.031-3.678 1.47-6.253 2.205-7.479 6.126-1.716 5.759 3.188 11.885 8.95 10.905zm-19.002-51.215c-3.923 1.838-6.865 2.818-8.214 7.106-0.574 1.692-0.691 3.506-0.34 5.258 0.35 1.752 1.156 3.38 2.337 4.722s2.694 2.349 4.388 2.92 3.509 0.685 5.261 0.333c12.014-2.206 11.402-20.707-3.432-20.339zm-275.47-45.089c9.807-1.716 9.317-16.051-1.594-15.806-3.065 1.225-5.271 1.715-6.497 4.656-2.33 5.391 2.084 12.13 8.091 11.15zm-17.163-148.5c-0.3585 1.228-0.3955 2.528-0.1074 3.775 0.2881 1.246 0.8917 2.398 1.7526 3.345 0.862 0.947 1.952 1.657 3.166 2.062 1.215 0.405 2.513 0.492 3.77 0.252 8.827-1.838 8.214-15.316-2.697-14.948-2.942 1.47-4.903 2.205-5.8842 5.514zm0.7356 115.54c9.0716-1.716 8.5816-15.193-1.8389-14.948-3.1874 1.348-5.5167 2.205-6.3749 5.636-0.3124 1.186-0.3279 2.431-0.045 3.625 0.283 1.194 0.8555 2.3 1.6673 3.22 0.8117 0.92 1.8377 1.627 2.9872 2.057 1.1496 0.43 2.3874 0.571 3.6043 0.41zm7.3556-140.78c-1.839 4.901 2.329 10.659 7.355 10.047 9.563-1.103 9.44-14.336-0.612-14.948-3.31 1.347-5.395 1.715-6.743 4.901zm-15.937 49.132c-1.8389 4.901 2.3292 10.537 7.3555 10.047 9.4396-1.225 9.3166-14.336-0.6129-14.948-3.31 1.225-5.5167 1.593-6.7426 4.901zm-7.6008 24.627c-1.8389 4.779 2.2067 10.537 7.3556 9.68 8.9493-1.471 8.4589-14.336-1.2259-14.336-2.9423 1.225-4.9038 1.716-6.1297 4.656zm8.7041 90.545c7.6008-1.592 7.1104-13.477-2.697-13.11-2.4519 1.226-4.2908 1.961-5.0263 4.534-0.377 1.113-0.4507 2.306-0.2135 3.457 0.2372 1.15 0.7768 2.217 1.5632 3.091 0.7865 0.873 1.7914 1.521 2.9116 1.878 1.1201 0.356 2.3151 0.408 3.462 0.15zm28.932-193.34c-2.942 1.348-5.026 2.083-6.007 5.391-0.297 1.157-0.303 2.37-0.016 3.529 0.286 1.16 0.855 2.231 1.657 3.117 0.801 0.886 1.81 1.559 2.935 1.961 1.126 0.401 2.334 0.517 3.515 0.338 8.582-1.716 8.091-14.703-2.084-14.336zm1.226 60.772c-2.452 6.004 2.452 13.233 8.704 12.375 11.524-1.592 11.156-17.766-0.858-18.011-3.8 1.471-6.375 1.961-7.846 5.636zm24.519-72.779c-0.436 1.335-0.523 2.758-0.251 4.136 0.271 1.377 0.892 2.662 1.802 3.731s2.079 1.888 3.396 2.376c1.316 0.489 2.737 0.633 4.124 0.417 9.685-1.838 9.072-16.419-2.451-16.051-3.188 1.348-5.394 2.083-6.62 5.391zm14.833-29.283c-3.187 1.225-5.516 2.083-6.375 5.636-0.32 1.181-0.34 2.424-0.058 3.615s0.857 2.293 1.673 3.205c0.815 0.913 1.846 1.608 2.999 2.021 1.152 0.414 2.39 0.534 3.6 0.348 9.072-1.593 8.582-15.193-1.839-14.825zm-31.506 78.415c-1.962 6.126 3.31 12.498 9.562 11.395 10.788-1.96 10.298-18.011-2.084-17.643-3.678 1.47-6.252 2.327-7.478 6.248zm8.214-24.505c-0.456 1.392-0.548 2.877-0.268 4.314 0.281 1.437 0.926 2.778 1.872 3.896s2.163 1.975 3.535 2.49c1.371 0.514 2.852 0.669 4.3 0.45 10.298-1.96 9.685-17.398-2.452-17.031-3.31 1.471-5.884 2.328-6.987 5.881zm-5.272 222.63c9.44-1.838 8.827-16.174-2.452-15.806-3.31 1.47-5.516 2.328-6.62 6.004-0.325 1.286-0.324 2.632 4e-3 3.918 0.327 1.285 0.971 2.468 1.872 3.442s2.031 1.707 3.288 2.133c1.257 0.427 2.6 0.533 3.908 0.309zm-24.641-9.067c8.091-1.593 7.723-14.09-2.207-13.723-2.697 1.225-4.781 1.961-5.639 5.024-0.335 1.127-0.375 2.321-0.116 3.468 0.26 1.147 0.81 2.208 1.597 3.081 0.788 0.873 1.787 1.53 2.902 1.906 1.114 0.377 2.307 0.461 3.463 0.244zm57.864 72.902c7.968-1.593 7.478-13.968-2.697-13.6-2.575 1.225-4.414 1.96-5.394 4.778-0.381 1.158-0.446 2.396-0.189 3.587 0.256 1.192 0.826 2.293 1.65 3.191 0.824 0.899 1.873 1.561 3.038 1.921 1.165 0.359 2.405 0.401 3.592 0.123zm-10.666-72.657c-3.678 1.47-6.129 1.96-7.6 5.514-2.452 5.881 2.574 13.11 8.826 12.129 11.156-1.715 10.788-17.643-1.226-17.643zm34.694 81.356c1.976-0.252 3.772-1.276 4.995-2.848 1.222-1.573 1.772-3.565 1.529-5.541s-1.259-3.776-2.827-5.005c-1.567-1.229-3.557-1.788-5.536-1.554-3.187 1.348-5.394 2.205-6.375 5.636-0.312 1.186-0.328 2.432-0.045 3.625 0.283 1.194 0.856 2.3 1.668 3.22 0.811 0.92 1.837 1.627 2.987 2.057 1.149 0.43 2.387 0.571 3.604 0.41zm-10.788-73.882c-3.801 1.715-6.498 2.573-7.723 6.739-2.085 6.616 3.555 13.477 10.42 12.13 11.401-2.206 10.788-19.237-2.697-18.869zm-5.149 42.148c9.685-1.96 9.072-16.786-3.065-16.418-2.942 1.348-5.271 2.205-6.375 5.391-0.505 1.387-0.633 2.884-0.37 4.337 0.264 1.452 0.908 2.809 1.869 3.931 0.96 1.122 2.201 1.969 3.597 2.453 1.395 0.485 2.894 0.591 4.344 0.306zm-24.886-8.699c9.071-1.715 8.581-15.561-2.207-15.193-2.942 1.348-5.149 2.083-6.252 5.146-1.839 5.391 2.819 11.15 8.459 10.047zm-23.783-8.944c7.233-2.083 6.252-13.6-3.188-13.233-2.452 1.103-4.536 1.96-5.271 4.656-0.356 1.18-0.387 2.433-0.091 3.629 0.297 1.196 0.91 2.29 1.775 3.167s1.951 1.506 3.143 1.819 2.446 0.3 3.632-0.038zm44.256-262.08c-0.421 1.52-0.448 3.123-0.079 4.657s1.121 2.95 2.188 4.113c1.066 1.164 2.41 2.038 3.907 2.539 1.497 0.502 3.097 0.616 4.649 0.33 11.034-2.205 10.421-18.991-3.065-18.623-3.8 1.715-6.374 2.818-7.6 6.984zm-30.771 197.51c-3.801 1.47-6.375 1.837-7.846 5.636-2.452 5.881 2.574 13.11 8.827 12.252 11.401-1.593 11.033-17.766-0.981-17.888zm59.335 90.667c10.788-1.96 10.298-17.888-2.084-17.643-3.678 1.593-6.253 2.45-7.478 6.249-1.962 6.126 3.31 12.497 9.562 11.394zm207.55-250.19c-4.658 2.206-7.846 3.308-9.439 8.454-2.452 7.964 5.026 16.174 13.117 14.703 13.853-2.573 13.118-23.524-3.678-23.157zm-158.88 188.08c15.079-2.573 14.343-24.75-2.697-24.383-5.149 2.083-8.704 3.186-10.42 8.577-2.575 8.209 4.781 17.153 13.117 15.806zm-1.348-162.84c15.691-2.573 14.956-25.24-2.085-24.872-5.148 1.96-8.581 2.695-10.543 7.596-3.432 8.332 3.678 18.869 12.628 17.276zm-18.144 105.62c-5.026 2.205-8.582 3.308-10.298 8.699-2.697 8.699 4.781 17.889 13.73 16.296 15.079-2.696 14.344-25.363-3.432-24.995zm105.43-155.61c-5.517 2.328-9.195 3.308-10.789 9.312-2.206 7.964 5.149 16.663 13.24 15.316 15.325-2.573 14.589-24.995-2.451-24.628zm-110.7 204.49c14.834-2.573 14.098-24.137-2.084-23.77-5.394 2.206-8.949 3.186-10.543 8.945-2.084 7.596 5.027 16.05 12.627 14.825zm137.3-171.78c15.57-2.573 14.834-24.872-1.839-24.627-5.516 2.205-8.459 2.45-10.665 7.964-3.188 7.964 4.045 18.011 12.504 16.663zm-80.788 0.735c15.201-2.695 14.466-25.24-3.31-24.872-5.027 2.083-8.582 3.186-10.298 8.577-2.82 8.699 4.781 17.888 13.608 16.295zm-118.06 58.812c-2.207 7.351 4.658 15.315 12.136 13.968 13.608-2.328 12.873-22.545-2.819-22.177-4.781 2.083-7.846 3.063-9.317 8.209zm17.898-32.959c-5.026 1.96-8.213 2.818-9.93 7.964-2.329 7.351 4.291 15.806 11.769 14.58 14.221-2.328 13.485-22.789-1.839-22.544zm132.89 201.06c14.466-1.225 15.079-19.971-0.245-22.544l-3.065 0.49c-1.634 0.538-3.135 1.417-4.403 2.579-1.268 1.161-2.275 2.579-2.953 4.159-3.065 7.474 3.188 15.929 10.666 15.316zm-107.76-112.36c-5.026 1.961-8.214 2.573-10.298 7.352-3.187 7.964 3.433 18.133 12.014 16.663 15.202-2.45 14.466-24.26-1.716-24.015zm-5.272 47.907c13.486-2.45 12.75-22.912-3.555-22.422-4.536 1.961-7.723 3.063-9.194 7.964-2.33 7.965 4.781 15.929 12.749 14.458zm183.28-179.62c-4.904 2.083-8.337 3.186-10.053 8.332-2.575 8.209 4.658 17.153 13.117 15.683 14.589-2.573 13.976-24.383-3.064-24.015zm50.508 97.897c-5.394 2.083-8.214 2.083-10.298 7.474-3.187 7.474 3.678 17.031 11.524 15.928 14.956-2.328 14.466-23.402-1.226-23.402zm-8.704 24.505c-5.149 1.96-8.337 3.185-10.053 8.576-2.329 7.842 5.026 16.051 12.75 14.826 14.466-2.573 13.73-23.893-2.697-23.402zm16.427-48.888c-5.026 2.083-8.336 2.819-10.052 8.087-2.33 7.351 4.29 16.051 11.891 14.703 14.343-2.328 13.608-23.035-1.839-22.79zm-24.764-8.576c-5.394 2.083-8.949 3.063-10.665 8.576-2.452 7.965 4.658 17.031 12.749 15.684 15.325-2.451 14.589-24.628-2.084-24.26zm33.959 6.494c14.098-1.593 13.975-20.952-0.613-21.932-5.394 2.083-8.092 1.96-10.053 7.351s3.31 15.438 10.666 14.581zm9.562 56.728c13.117-2.328 12.382-21.687-2.452-21.319-4.536 1.838-7.723 2.818-9.194 7.719-1.962 7.106 4.413 14.825 11.646 13.6zm-41.191 42.148c14.956-2.205 14.343-23.402-1.226-23.402-5.394 2.083-8.214 2.206-10.421 7.474-3.064 7.597 3.678 17.154 11.647 15.928zm-230.84-70.573c-5.148 2.083-8.458 3.185-10.052 8.576-2.329 7.842 4.904 16.173 12.749 14.826 14.344-2.451 13.731-23.77-2.697-23.402zm236.6-58.812c-4.904 1.96-8.337 2.696-10.053 7.719-2.82 7.842 4.045 17.031 12.137 15.683 14.711-2.573 13.975-23.77-2.084-23.402zm-16.06 48.152c-5.026 1.96-8.459 2.696-10.421 7.597-3.432 8.331 3.556 18.746 12.628 17.275 15.691-2.573 14.833-25.24-2.207-24.872zm56.638-6.371c-4.168 1.838-7.111 2.818-8.582 7.474-2.084 6.984 4.414 14.58 11.647 13.11 12.381-2.328 11.768-20.952-3.065-20.584zm-75.763-42.639c-3.187 8.087 4.046 18.134 12.505 16.786 15.569-2.573 14.834-24.872-1.839-24.627-5.517 2.205-8.459 2.45-10.666 7.841zm95.623 174.84c9.562-1.838 8.949-16.173-2.33-15.805-3.31 1.47-5.639 2.328-6.62 5.881-0.343 1.282-0.36 2.63-0.05 3.921 0.311 1.291 0.939 2.484 1.829 3.47 0.889 0.986 2.011 1.734 3.263 2.177 1.253 0.442 2.596 0.565 3.908 0.356zm-409.34-80.376c7.3556-1.225 7.233-12.129-0.8581-12.129-2.5745 0.98-4.4134 1.47-5.3941 4.043s2.0841 8.699 6.2522 8.086zm489.51-86.747c5.149-1.225 4.414-9.189-1.838-8.821-5.272 2.573-3.923 10.047 1.838 8.821zm-499.81 18.134c-1.3485 0.858-2.697 1.225-3.5552 2.45-2.3292 3.921 0.8582 9.68 6.0071 8.577s5.7618-11.272-2.4519-11.027zm149.56 65.795c15.692-2.573 14.956-25.24-2.084-24.872-5.027 1.96-8.459 2.696-10.421 7.596-3.555 8.332 3.556 18.869 12.505 17.276zm310.16-73.637c-0.328 1.116-0.367 2.297-0.113 3.431 0.254 1.135 0.793 2.186 1.565 3.056 0.772 0.869 1.752 1.529 2.849 1.916s2.275 0.489 3.422 0.297c8.214-1.593 7.723-14.091-2.207-13.723-2.697 1.225-4.658 1.96-5.516 5.023zm-440.97 52.563c7.7234-1.47 7.3556-13.722-1.8389-13.355-2.8196 1.225-4.7811 1.961-5.6392 5.024-0.2725 1.072-0.2767 2.194-0.0123 3.268 0.2643 1.075 0.7892 2.067 1.5283 2.891 0.739 0.823 1.6695 1.452 2.7093 1.831s2.157 0.496 3.2528 0.341zm504.35-140.17c0.736-0.368 0.49-0.735 0.245-1.471h-0.858c-0.735 0.613-0.735 1.838 0.613 1.471zm-24.028-6.739 1.103-0.98v-1.593l-0.981-1.103h-1.471c-0.46 0.257-0.874 0.588-1.226 0.98v1.716l0.859 1.102 1.716-0.122zm16.55 32.346 1.103-0.98v-1.593l-0.981-1.102h-1.471l-1.226 0.98v1.715l0.859 1.103 1.716-0.123zm-40.946 45.457c7.355-1.226 7.355-12.13-0.858-12.253-2.575 1.103-4.414 1.593-5.272 4.166s1.962 8.699 6.13 8.087zm33.1-19.482c3.555-0.98 2.697-6.738-1.839-6.371-4.536 0.368-3.065 7.597 1.839 6.371zm-1.226-84.051c0.736-0.49 0.49-0.735 0.245-1.47l-0.858-0.245c-0.735 0.735-0.858 1.96 0.613 1.715zm-19.86 126.44c-2.574 3.308-0.368 9.924 4.904 8.821 5.271-1.102 5.884-10.904-1.471-10.659-1.226 0.612-2.575 0.857-3.433 1.838zm-358.09-6.862c-3.31 7.964 3.433 18.134 11.892 16.909 15.692-2.328 15.079-24.383-1.226-24.383-5.394 2.083-8.459 2.206-10.666 7.474zm-38.739 59.915c-4.168 1.837-7.11 2.818-8.459 7.474-2.206 6.983 4.291 14.58 11.524 13.232 12.382-2.45 11.769-21.074-3.065-20.706zm30.526-34.185c-2.452 7.964 4.658 16.909 12.872 15.438 14.834-2.573 14.098-24.382-2.452-24.014-5.271 2.083-8.704 3.063-10.42 8.576zm-22.557 9.19c-4.414 1.96-7.478 3.063-8.827 7.841-2.329 7.474 4.536 15.193 12.137 13.845 12.872-2.45 12.259-22.054-3.31-21.686zm51.366-42.761c14.956-2.573 14.221-24.383-2.452-24.015-5.149 2.083-8.704 3.063-10.298 8.454-2.574 7.964 4.536 16.909 12.75 15.561zm198.72 81.111c3.678-8.822-4.291-18.869-13.73-17.154-4.904 0.858-6.866 3.799-9.44 7.107v0.367h-0.123c0.858-7.841-2.084-10.414-5.762-14.335h-0.245l3.555-0.245c3.073-0.681 5.832-2.362 7.846-4.778 5.272-6.984 1.839-18.134-5.639-20.339 10.543 2.45 19.492-7.352 14.956-17.644-3.432-8.087-19.247-10.905-22.557-1.103h-0.367c0.245-7.596-2.82-9.557-6.62-13.355h-0.368c2.084-0.735 4.904-0.245 6.865-1.103 5.639-2.327 10.175-11.027 5.884-18.011-4.29-6.983-20.105-8.454-22.924 1.961h-0.123c4.168-17.276-19.983-22.177-24.151-9.067h-0.245c1.839-9.434-6.497-18.011-16.182-15.07-4.168 1.225-6.007 3.798-8.214 6.861v0.245c-0.122-1.715-0.122-3.553-0.245-5.269-1.471-6.493-6.252-10.169-14.343-10.047l-4.659 1.471c-2.726 1.72-4.752 4.352-5.717 7.426-0.966 3.074-0.808 6.391 0.446 9.36 1.103 2.45 3.064 3.675 4.903 5.391h0.245l-4.045 0.367c-3.555 0.735-7.356 2.941-8.704 5.881h-0.368c2.329-8.699-9.44-16.295-17.776-12.865-1.67 0.721-3.174 1.778-4.417 3.105s-2.2 2.896-2.809 4.609c-0.61 1.713-0.86 3.533-0.734 5.347 0.125 1.814 0.623 3.583 1.463 5.195 0.883 1.979 2.39 3.614 4.29 4.656-5e-3 0.067 3e-3 0.134 0.024 0.197s0.055 0.121 0.099 0.171c-7.233-0.123-9.44 2.94-12.75 6.861v0.245h-0.245c1.716-15.928-19.247-18.991-24.396-6.493-3.8 9.066 4.291 19.481 14.098 17.398 4.414-0.858 6.375-3.308 8.827-6.249v-0.245c0 1.225 0.123 2.573 0.123 3.798 0.613 3.554 2.697 7.474 5.516 8.822l-3.677 0.49c-3.188 0.858-6.62 3.063-7.846 5.881l-0.368 0.245c0.368-16.663-21.209-18.011-25.254-4.288-4.046 13.723 18.511 21.687 23.17 10.292h0.245c0 5.269 1.594 10.047 5.026 11.64l0.491 0.613c-6.498 0-8.704 3.43-11.769 6.861v0.367h-0.123c1.716-15.928-19.247-18.991-24.396-6.616-3.8 9.067 4.291 19.604 14.098 17.521 4.414-0.98 6.375-3.431 8.827-6.249v-0.245c0.123 1.471 0.123 3.063 0.245 4.656 0.858 3.553 3.188 7.229 6.252 8.577 0.123 0 0.123 0.122 0.123 0.245-2.235-0.262-4.499 0.067-6.567 0.952-2.068 0.886-3.868 2.298-5.22 4.095-1.352 1.798-2.209 3.918-2.485 6.15-0.277 2.231 0.037 4.496 0.909 6.569 2.575 6.371 11.647 10.905 19.247 6.249 1.356-1.13 2.627-2.359 3.801-3.676v-0.245c0.122 1.47 0.368 2.94 0.613 4.411 1.103 3.798 3.432 5.391 5.884 7.841h0.245c-2.206 0.858-4.658 0.49-6.497 1.226-5.394 2.328-9.93 11.027-5.762 18.133 4.168 7.107 19.615 8.944 22.802-0.98h0.123c-1.349 9.434 6.13 18.256 16.305 15.193 4.168-1.225 5.884-3.676 8.214-6.739v3.921c0.535 3.516 2.427 6.683 5.271 8.822 7.11 4.901 18.266 0.98 19.86-6.372h0.123c-1.839 10.415 6.252 20.217 17.285 15.438 5.64-2.328 10.175-11.027 6.007-18.011-1.348-2.083-3.187-3.185-4.781-4.778h-0.245l5.394-0.49c4.168-1.225 5.639-3.676 8.214-6.371v-0.123h0.245c-2.084 9.924 8.704 17.276 17.899 13.355 6.007-2.573 9.93-11.64 5.516-18.746-1.226-1.838-3.187-2.941-4.903-4.411h3.432c3.444-0.41 6.601-2.119 8.827-4.778 4.536-5.881 2.942-17.031-3.801-19.482 0-0.122-0.122-0.245-0.122-0.367 2.878 0.522 5.848 8e-3 8.384-1.449 2.536-1.458 4.473-3.766 5.469-6.515h0.122c-3.677 16.418 18.634 20.584 23.906 7.719zm-32.977-63.468c0 1.348 0.122 2.696 0.122 4.044 1.226 5.268 4.291 6.861 8.091 9.556-5.639-1.347-12.014 0.858-13.853 4.779h-0.368c0-4.656-1.961-9.434-5.148-10.905-0.123-0.245-0.123-0.367-0.246-0.49 5.394-1.225 9.563-2.328 11.402-6.984zm-16.183-34.552c0.368 1.471-0.613 3.676-0.245 5.759 0.858 4.779 3.433 6.249 6.252 9.189h0.245l-4.658 0.245c-3.923 0.981-5.517 3.186-8.091 5.269 0-6.494-3.188-8.332-6.13-11.762 6.375 0 11.647-3.554 12.627-8.7zm-9.072 28.058 1.104 5.024c0.858 2.45 2.697 3.798 4.045 5.636h0.245l-5.148 1.103-3.801 2.328-0.981 0.98c-0.49-1.47-0.858-2.941-1.225-4.411l-2.207-3.308-1.471-1.47c3.923-1.716 7.723-2.083 9.439-5.882zm-3.555 35.287c-4.045 0.123-6.375 2.206-8.826 3.921-0.736-3.676-2.207-5.636-3.923-8.331 1.554-0.17 3.06-0.647 4.428-1.404s2.572-1.78 3.54-3.007c0.245 1.102 0.613 2.205 0.858 3.43l2.33 3.799 1.593 1.592zm-24.151-62.487c5.64-0.367 10.298-3.063 11.769-7.596 0 1.715 0 3.43 0.123 5.268 0.858 3.676 3.065 5.391 5.149 7.842h0.368l-4.782 0.612c-2.942 0.858-4.535 2.818-6.742 4.411-0.736-5.391-2.942-7.106-5.517-10.292h-0.368v-0.245zm2.697 20.217c0.368 1.347 0.613 2.695 0.981 4.043l2.207 3.921 1.471 1.347c-3.262 0.575-6.31 2.013-8.827 4.166-0.49-3.063-1.961-4.656-2.942-6.861l-1.471-1.593c3.433-1.96 6.375-1.96 8.581-5.023zm-8.458 25.975c0.367 1.347 0.858 2.573 1.226 3.798l2.084 3.431 0.49 0.367c-2.645 0.456-5.108 1.645-7.11 3.431-1.472-2.573-2.33-4.901-3.801-6.984 2.747-0.539 5.243-1.959 7.111-4.043zm-4.291 32.714c-3.31 0.367-5.272 2.205-7.478 3.798-0.481-2.745-1.664-5.32-3.433-7.474 2.697-0.613 5.394-1.593 6.988-3.431l1.839 4.411 1.716 2.206 0.368 0.49zm-11.646-87.36c3.8-0.858 7.6-3.553 8.826-7.106-0.122 0.98-0.122 2.082-0.245 3.185 0.613 4.043 2.207 8.209 5.394 9.68 0 0.122 0.123 0.245 0.123 0.367-6.007 0-8.214 2.696-11.401 5.391-0.123-6.126-3.433-8.086-6.498-11.272h-0.368l4.169-0.245zm-0.246 20.339 1.104 4.778c0.735 1.226 1.593 2.451 2.329 3.799l0.858 0.857-4.045 1.103-3.433 1.96-1.349 1.348c-0.944-3.112-2.531-5.992-4.658-8.454h-0.368c4.413-2.205 6.62-1.348 9.562-5.391zm-8.581 26.098 0.981 3.675 2.084 3.431 0.735 0.735c-3.432 0.735-5.271 2.206-7.601 3.921-0.76-2.219-1.746-4.354-2.942-6.371-0.377-0.439-0.787-0.849-1.226-1.226 3.065-1.715 5.885-1.592 7.969-4.165zm-15.692-35.41 0.49 4.288c0.847 2.669 2.367 5.074 4.414 6.984-3.867 0.432-7.443 2.262-10.053 5.146-1.839-4.288-1.839-8.331-6.13-10.169l-0.245-0.368c4.659 1.103 10.298-2.94 11.524-5.881zm-8.459 26.098c0.245 1.47 0.613 2.94 0.981 4.533l2.452 4.043 0.98 0.981c-4.536 0.612-6.374 2.695-9.194 4.778-0.736-5.023-3.187-6.616-5.639-9.679 4.658 0 8.704-1.838 10.42-4.656zm-8.214 24.995 0.858 3.92c0.736 1.348 1.472 2.696 2.33 4.044l1.471 1.47c-3.541 0.496-6.773 2.286-9.072 5.024l-1.103-4.411c-0.981-2.451-2.943-3.676-4.414-5.636 1.883 0.077 3.759-0.281 5.481-1.046s3.245-1.917 4.449-3.365zm-12.872 40.31v0.245c-0.123-1.348-0.368-2.695-0.613-4.043-0.981-3.676-3.31-5.146-5.517-7.597h2.943c3.31-0.612 6.742-2.328 8.213-4.778 1.839 4.043 1.472 8.332 5.394 10.169l-4.903 1.348c-2.452 0.98-3.678 3.063-5.517 4.656zm23.906 27.691c-3.923 1.347-5.517 3.675-7.724 6.616v-4.043c-0.613-3.676-2.697-7.597-5.762-8.822l-0.245-0.368c5.394 0.123 9.808-1.838 11.769-5.268l1.104 5.023c1.103 2.696 3.064 4.043 4.658 6.004h0.368l-4.168 0.858zm0.98-20.462c-0.367-5.023-2.574-6.984-4.781-9.924 3.801-0.368 7.356-1.838 9.195-4.166 0.245 1.225 0.613 2.45 0.98 3.675 0.368 1.226 1.349 2.206 1.962 3.309l1.839 1.837c-4.659 0.491-6.498 3.064-9.195 5.269zm8.459-26.343c-0.848-2.965-2.31-5.72-4.29-8.086 3.187-0.49 6.252-1.716 7.846-3.676 0 0 3.187 6.861 3.31 6.984 0.122 0.122 0.367 0.49 0.612 0.613-2.574 0.612-4.045 1.837-6.129 2.695l-1.349 1.47zm7.478 61.63h-0.122c0.981-5.269-1.471-11.15-5.026-12.743-0.123-0.122-0.123-0.245-0.246-0.245 5.149 0 8.95-2.082 11.156-5.023 1.962 4.166 1.839 8.209 5.885 10.169l0.368 0.368c-5.885 0-10.666 3.186-12.015 7.474zm13.608-31.489c-1.839 0.858-3.065 2.573-4.658 3.676-0.491-3.676-1.962-5.391-3.188-7.964l-1.103-1.103c3.555-1.47 6.375-1.47 8.582-4.288 0.367 1.225 0.735 2.573 1.225 3.798 0.491 1.225 1.349 2.206 2.085 3.308l1.348 1.471-4.291 1.102zm19.86 32.592c-4.29 0.98-8.091 3.92-9.194 8.086h-0.123c1.717-7.229-1.716-10.659-4.903-14.335h-0.246l3.923-0.49c3.065-0.735 6.62-2.818 7.724-5.391l1.103 5.023c1.349 3.308 3.678 4.534 5.884 6.739h0.368l-4.536 0.368zm10.421-25.363c-6.743 1.716-6.253 1.961-10.666 5.636 0-5.268-1.961-7.474-4.168-10.414 3.923-0.735 7.233-1.961 9.194-4.656 1.717 3.43 1.839 7.106 5.272 8.822l0.368 0.49v0.122zm6.987-25.117c-2.646 0.878-5.227 1.942-7.723 3.185l-1.103 1.103c-0.245-1.225-0.613-2.45-0.858-3.676-0.805-1.684-1.836-3.251-3.065-4.656 3.135-0.378 6.018-1.906 8.091-4.288l1.103 3.431c0.582 1.105 1.237 2.169 1.962 3.185 0.5 0.562 1.032 1.093 1.593 1.593v0.123zm15.447 33.694c-3.555 0.858-7.478 3.186-8.581 6.249-0.123 0.122-0.245 0.122-0.245 0.245 0.122-5.269-1.472-10.415-5.149-12.253-0.123 0-0.123-0.122-0.246-0.245 4.904 0 9.685-2.573 11.279-6.004 0.368 1.716 0.613 3.309 0.858 4.901 1.471 3.431 3.923 4.656 6.252 6.984h-4.168v0.123zm7.724-24.75c-3.065 0.735-6.62 2.573-7.724 5.023h-0.368c0-5.391-2.329-7.719-4.658-10.782 1.979-0.056 3.918-0.573 5.663-1.509 1.745-0.935 3.248-2.265 4.389-3.882 2.085 4.656 1.839 8.945 6.743 10.782l-4.045 0.368zm7.478-24.627c-3.31 0.98-5.027 2.94-7.356 4.778 0-4.288-1.839-6.004-3.065-8.699l-1.839-1.838c4.291-1.225 8.337-2.205 10.053-5.881 0.368 1.593 0.613 3.186 0.981 4.901s3.31 4.166 5.149 6.371h0.245l-4.168 0.368zm-103.59 74.862c-5.517 2.205-9.195 3.185-10.788 9.189-2.207 8.087 5.149 16.786 13.24 15.438 15.324-2.695 14.588-24.995-2.452-24.627zm237.71-154.63c-0.353 1.201-0.393 2.472-0.118 3.692 0.276 1.22 0.859 2.35 1.694 3.283 0.835 0.932 1.894 1.636 3.077 2.045s2.451 0.51 3.684 0.292c8.704-1.715 8.091-14.948-2.452-14.58-2.82 1.225-5.027 2.083-5.885 5.268zm14.221-28.793c-2.452 0.981-4.413 1.593-5.272 4.166-1.593 4.411 2.207 9.435 6.866 8.577 7.478-1.47 7.233-12.988-1.594-12.743zm-140.12 149.24c-3.555 8.331 3.556 18.746 12.627 17.276 15.692-2.573 14.834-25.24-2.206-24.873-5.027 1.961-8.459 2.696-10.421 7.597zm134.24-63.223c-0.379 1.236-0.425 2.549-0.134 3.808s0.909 2.419 1.792 3.363c0.882 0.945 1.998 1.64 3.235 2.015 1.237 0.376 2.552 0.42 3.811 0.126 8.704-1.715 8.091-15.193-2.82-14.825-2.82 1.347-4.904 2.205-5.884 5.513zm-333.58 64.57c13.73-2.45 12.994-22.912-2.82-22.544-4.659 1.96-7.723 2.941-9.44 7.719-2.574 7.597 4.414 16.173 12.26 14.825zm-75.272-62.364c-1.962 6.003 3.064 12.252 9.317 11.149 10.297-1.96 9.807-17.398-2.33-17.03-3.432 1.47-5.884 2.327-6.987 5.881zm15.201-30.631c-3.678 1.47-6.252 2.328-7.478 6.126-1.962 6.126 3.31 12.62 9.562 11.395 10.788-1.838 10.175-17.889-2.084-17.521zm63.503-51.828c-2.329 7.474 4.536 15.193 12.137 13.845 12.995-2.45 12.259-22.054-3.31-21.687-4.291 1.961-7.356 3.064-8.827 7.842zm-55.534 108.31c-3.678 1.716-6.375 2.818-7.601 6.984-0.431 1.516-0.464 3.117-0.097 4.65s1.123 2.945 2.194 4.102 2.422 2.018 3.922 2.503c1.501 0.484 3.101 0.574 4.646 0.262 11.034-2.083 10.421-18.868-3.064-18.501zm-5.149 42.394c2.292-0.325 4.361-1.547 5.752-3.397s1.99-4.176 1.665-6.467c-0.326-2.291-1.548-4.359-3.399-5.749-1.85-1.39-4.178-1.988-6.47-1.663-3.433 1.47-5.885 2.328-7.111 6.003-1.961 6.127 3.188 12.498 9.563 11.273zm5.149-60.037c-0.387 1.594-0.373 3.259 0.042 4.847 0.414 1.587 1.216 3.047 2.334 4.248 1.117 1.202 2.515 2.108 4.069 2.638 1.553 0.529 3.214 0.666 4.833 0.397 11.524-2.206 10.911-19.727-3.31-19.359-3.923 1.715-6.742 2.818-7.968 7.229zm19.492 69.226c11.769-2.328 11.156-19.849-2.697-19.481-4.046 1.715-6.743 2.573-8.091 6.983-2.084 6.739 3.8 13.723 10.788 12.498zm20.35-174.72c-3.923 1.837-6.62 2.94-7.846 7.351-1.961 6.739 4.414 13.478 11.279 12.13 11.524-2.206 10.788-19.849-3.433-19.481zm302.68 71.186c-3.923 1.715-6.743 2.696-8.091 6.984-0.537 1.613-0.645 3.337-0.314 5.004 0.332 1.667 1.091 3.219 2.204 4.504 1.112 1.285 2.54 2.259 4.143 2.826s3.326 0.708 5 0.408c11.892-2.205 11.279-20.094-2.942-19.726zm-295.33-31.734c-2.207 7.352 4.658 15.193 12.137 13.968 13.607-2.45 12.872-22.544-2.698-22.177-4.781 1.961-7.968 2.941-9.439 8.209zm-23.415-7.964c-2.084 6.739 4.168 14.091 11.033 12.743 12.259-2.206 11.524-20.339-2.697-19.972-4.168 1.838-6.988 2.696-8.336 7.229zm-8.092 24.628c-1.838 6.738 4.169 14.09 10.911 12.865 12.627-2.206 12.014-20.584-2.084-20.339-4.413 1.837-7.478 2.695-8.827 7.474zm-46.34 65.673c-0.4657 1.324-0.5783 2.747-0.3266 4.129 0.2517 1.381 0.859 2.673 1.7622 3.749 0.903 1.076 2.071 1.898 3.388 2.385 1.318 0.488 2.739 0.624 4.126 0.396 9.684-1.838 9.072-16.541-2.452-16.173-3.065 1.348-5.394 2.205-6.4976 5.514zm161.58 96.181c-4.536 2.083-7.724 3.186-9.195 8.209-0.54 1.863-0.6 3.832-0.176 5.724s1.32 3.647 2.604 5.101 2.914 2.561 4.74 3.217c1.826 0.657 3.788 0.842 5.704 0.538 13.608-2.573 12.873-23.157-3.677-22.789zm20.105 54.278c12.382-2.328 11.646-21.074-3.31-20.707-4.046 1.838-6.988 2.941-8.459 7.352-0.497 1.704-0.555 3.507-0.168 5.239 0.386 1.733 1.204 3.34 2.378 4.673 1.174 1.332 2.666 2.346 4.337 2.948s3.467 0.772 5.222 0.495zm-25.377-7.964c13.24-2.083 12.627-21.197-1.593-20.952-4.536 1.838-7.356 2.328-9.072 6.862-2.575 6.861 3.555 15.315 10.665 14.09zm38.74-63.835c-5.517 2.205-8.459 2.45-10.666 7.964-3.187 8.087 4.046 18.134 12.504 16.663 15.57-2.45 14.834-24.872-1.838-24.627zm-57.864 9.679c-4.536 1.961-7.724 3.063-9.195 7.964-2.329 7.964 4.781 15.929 12.75 14.458 13.485-2.45 12.75-22.912-3.555-22.422zm49.405 15.683c-4.904 2.083-8.091 3.186-9.563 8.455-2.329 7.719 4.782 15.805 12.505 14.457 13.975-2.573 13.24-23.279-2.942-22.912zm-80.053 22.055c12.872-1.103 13.485-17.766-0.246-19.972-4.903 1.838-7.355 1.593-9.317 6.494-1.961 4.901 2.943 14.09 9.563 13.478zm-34.204-85.645c-4.781 1.838-7.968 2.696-9.44 7.842-1.471 5.146 4.414 14.58 11.279 13.355 13.363-2.205 12.75-21.564-1.839-21.197zm59.458 94.099c13.117-2.206 12.504-20.952-1.471-20.707-4.291 1.593-7.111 2.206-8.827 6.372-2.82 6.738 3.065 15.438 10.298 14.335zm-40.701-40.433c12.872-2.328 12.259-21.319-2.452-21.074-4.291 1.838-7.233 2.695-8.827 7.229-2.452 6.984 3.923 15.07 11.279 13.845zm-24.028-8.699c11.523-2.206 10.91-19.849-3.433-19.482-3.8 1.838-6.62 2.941-7.846 7.352-0.387 1.594-0.372 3.259 0.042 4.847 0.415 1.587 1.217 3.047 2.334 4.249 1.118 1.201 2.516 2.107 4.069 2.637 1.554 0.529 3.214 0.666 4.834 0.397zm45.727-4.779c-4.414 2.083-7.478 3.063-8.95 7.964-2.329 7.597 4.659 15.438 12.26 13.968 13.24-2.45 12.504-22.299-3.31-21.932zm-74.291-121.79c-2.085 6.739 4.168 14.091 11.033 12.743 12.137-2.328 11.524-20.462-2.697-20.094-4.168 1.838-6.988 2.695-8.336 7.351zm243.1-83.929c-2.329 7.352 4.168 15.806 11.646 14.581 14.221-2.328 13.486-22.79-1.716-22.422-5.026 1.838-8.336 2.695-9.93 7.841zm17.776-31.488c-4.413 1.838-7.478 2.695-8.827 7.474-1.839 6.739 4.168 14.09 10.911 12.865 12.627-2.206 12.014-20.584-2.084-20.339zm16.182 31.979c-4.658 1.96-7.723 2.94-9.194 7.841-2.207 7.229 4.536 15.071 11.891 13.723 13.118-2.328 12.505-21.932-2.697-21.564zm-41.436-39.943c-4.046 1.715-6.988 2.818-8.336 7.229-2.207 7.351 4.29 14.825 11.646 13.355 12.382-2.328 11.769-21.074-3.31-20.584zm-17.286 31.733c-2.329 7.719 4.781 15.806 12.627 14.458 13.853-2.573 13.118-23.279-3.064-22.789-4.904 1.96-8.092 3.063-9.563 8.331zm-6.252-39.942c-4.536 1.715-7.478 2.328-9.194 6.738-2.575 6.984 3.555 15.316 10.665 14.213 13.363-2.205 12.75-21.196-1.471-20.951zm97.584 96.426c-0.565 1.681-0.68 3.48-0.335 5.219 0.346 1.739 1.141 3.358 2.305 4.695 1.165 1.338 2.66 2.348 4.335 2.93 1.676 0.582 3.475 0.716 5.219 0.389 12.136-2.328 11.523-20.707-3.31-20.339-3.923 1.715-6.866 2.818-8.214 7.106zm16.795-30.999c-4.045 1.716-6.742 2.573-8.091 6.862-1.961 6.371 3.555 13.232 10.175 12.007 11.647-2.083 11.034-19.236-2.084-18.869zm16.428 32.714c-3.923 1.716-6.498 2.451-7.846 6.617-1.962 6.493 3.555 13.11 10.175 11.884 11.278-2.082 10.665-18.868-2.329-18.501zm-58.232-10.782c-3.065 7.352 2.942 16.051 10.543 15.193 14.343-1.593 14.221-21.196-0.613-22.177-5.149 1.961-7.846 1.838-9.93 6.984zm16.918-30.631c-4.168 1.838-7.111 2.818-8.459 7.352-2.084 6.984 4.168 14.335 11.278 13.11 12.382-2.206 11.647-20.829-2.819-20.462zm-107.88-24.872c-0.54 1.863-0.6 3.831-0.176 5.724 0.424 1.892 1.32 3.647 2.604 5.101s2.914 2.561 4.74 3.217c1.826 0.657 3.788 0.842 5.704 0.538 13.608-2.573 12.873-23.157-3.677-22.789-4.536 2.083-7.724 3.185-9.195 8.209zm-33.223 16.173c-2.574 8.209 4.659 17.153 13.118 15.806 14.956-2.573 14.221-24.75-2.697-24.383-5.149 2.083-8.704 3.186-10.421 8.577zm-62.767-31.121c-4.781 1.96-7.969 2.818-9.44 7.964s4.414 14.58 11.279 13.355c13.362-2.205 12.75-21.564-1.839-21.319zm14.589 15.56c-2.33 7.842 4.781 15.929 12.749 14.458 13.485-2.573 12.75-22.912-3.555-22.544-4.536 2.083-7.723 3.185-9.194 8.086zm-8.214 22.912c-3.31 7.964 3.432 18.134 12.014 16.786 15.201-2.573 14.466-24.382-1.839-24.014-4.904 1.96-8.214 2.573-10.175 7.228zm-32.855 18.257c-2.329 7.841 5.026 16.05 12.75 14.702 14.466-2.45 13.73-23.769-2.697-23.402-5.149 2.083-8.337 3.308-10.053 8.7zm8.704-24.873c-2.697 7.597 4.413 16.051 12.137 14.703 13.853-2.45 13.117-22.912-2.697-22.544-4.659 1.96-7.724 2.94-9.44 7.841zm50.018-48.152c-4.291 1.716-7.233 2.573-8.827 7.107-2.452 7.106 3.923 15.07 11.279 13.845 12.872-2.328 12.259-21.319-2.452-20.952zm39.352 23.157c-0.514 1.855-0.556 3.809-0.119 5.684 0.436 1.875 1.335 3.611 2.615 5.049s2.901 2.533 4.714 3.183c1.812 0.651 3.759 0.837 5.662 0.542 13.363-2.45 12.627-22.912-3.677-22.422-4.536 1.961-7.601 3.063-9.195 7.964zm17.654-31.611c-4.414 1.96-7.356 2.818-8.827 7.597-1.962 6.861 4.413 14.335 11.278 13.11 12.75-2.328 12.014-21.075-2.451-20.707zm-122.35 41.658c-4.291 1.961-7.11 2.818-8.582 7.474-2.084 7.107 4.414 14.581 11.647 13.233 12.382-2.328 11.769-21.074-3.065-20.707zm89.493-25.607c-4.414 1.96-7.478 2.94-8.95 7.841-2.329 7.597 4.659 15.438 12.382 13.968 13.118-2.451 12.382-22.299-3.432-21.809zm-17.899 32.469c-2.084 7.596 5.026 16.05 12.627 14.702 14.834-2.45 14.098-24.014-2.084-23.647-5.517 2.206-8.949 3.063-10.543 8.945zm166.36-134.9 1.103-0.9802v-1.7153l-0.981-0.9802h-1.471c-0.46 0.257-0.874 0.5882-1.226 0.9802v1.7153l0.858 1.1028 1.717-0.1226zm-193.94 500.76c-5.272 2.573-3.923 10.047 1.839 8.7 5.761-1.348 4.413-9.067-1.839-8.7zm-7.111 26.588-1.226 0.368-0.858 1.838c0.103 0.559 0.366 1.077 0.758 1.491 0.392 0.413 0.895 0.704 1.449 0.837l1.471-0.491 0.858-1.837c-0.122-0.491-0.368-0.858-0.49-1.348-0.581-0.431-1.251-0.724-1.962-0.858zm-9.317-61.139c-2.452 1.102-4.29 1.592-5.271 4.288-0.981 2.695 2.206 9.312 6.865 8.454 7.478-1.348 7.233-12.987-1.594-12.742zm25.745 94.956c-0.736 0.735-0.736 1.96 0.613 1.715 1.348-0.245 0.613-0.735 0.368-1.593l-0.981-0.122zm-1.471-86.747c-1.962 0.857-3.433 1.47-4.414 3.185-0.586 1.066-0.855 2.278-0.775 3.491 0.081 1.214 0.507 2.38 1.229 3.359s1.71 1.732 2.846 2.168 2.373 0.538 3.566 0.294c7.233-1.593 6.742-12.865-2.452-12.497zm17.04 34.552c-5.271 2.45-3.923 9.556 1.471 8.454 1.112-0.206 2.097-0.842 2.742-1.769 0.646-0.928 0.899-2.072 0.706-3.185-0.194-1.113-0.819-2.105-1.74-2.761-0.921-0.655-2.063-0.921-3.179-0.739zm-7.968 26.71-1.226 0.98v1.715l0.98 1.103h1.594l1.103-0.98v-1.593l-0.858-1.103-1.593-0.122zm-48.792-16.418c-1.104 0.49-1.839 0.612-1.962 2.082-0.122 1.471 0.123 1.226 0.245 1.838 0.5 0.389 1.091 0.642 1.717 0.735 0.613 0.246 1.226-0.122 1.839-0.245 0.388-0.499 0.642-1.089 0.735-1.715 0.245-0.613-0.123-1.225-0.245-1.838-0.678-0.503-1.487-0.8-2.329-0.857zm-9.563-60.65c-2.084 1.103-3.8 1.838-4.536 4.043-0.375 1.098-0.437 2.279-0.179 3.41s0.826 2.168 1.641 2.995c0.814 0.827 1.843 1.41 2.97 1.686 1.128 0.275 2.31 0.232 3.414-0.127 6.498-2.205 5.394-12.374-3.31-12.007zm1.594 86.625c-0.735 0.735-0.735 1.96 0.613 1.715 1.349-0.245 0.613-0.858 0.368-1.593l-0.981-0.122zm-8.459-60.527c-1.211 0.238-2.322 0.836-3.187 1.715-2.084 2.696-0.123 7.719 3.8 7.107 1.159-0.097 2.234-0.645 2.991-1.527 0.758-0.882 1.137-2.027 1.057-3.187-0.081-1.159-0.615-2.24-1.487-3.009s-2.013-1.164-3.174-1.099zm32.978 68.613c-0.736 0.735-0.736 1.838 0.613 1.593 1.348-0.245 0.613-0.735 0.367-1.47l-0.98-0.123zm-8.827-60.649c-5.884 2.45-4.291 10.169 1.226 9.067 1.19-0.178 2.261-0.817 2.984-1.778 0.722-0.962 1.037-2.168 0.876-3.36-0.162-1.191-0.785-2.271-1.737-3.007-0.952-0.735-2.155-1.066-3.349-0.922zm56.638-10.17c-2.329 1.103-4.168 1.716-4.904 4.411-0.288 1.002-0.315 2.06-0.08 3.076 0.236 1.015 0.727 1.953 1.426 2.726 0.7 0.773 1.585 1.354 2.572 1.69 0.987 0.335 2.044 0.414 3.07 0.227 7.11-1.47 6.743-12.497-2.084-12.13zm-229.37-208.66c-1.2259 0.49-2.4518 0.612-3.1874 1.593-2.0841 2.818 0 7.719 3.8004 7.229 1.1591-0.097 2.2336-0.645 2.9911-1.527s1.137-2.027 1.0565-3.187c-0.0806-1.159-0.6148-2.24-1.487-3.009s-2.0123-1.164-3.1736-1.099zm287.73 286.71c-0.736 0.735-0.736 1.961 0.613 1.716 1.348-0.246 0.49-0.736 0.245-1.593l-0.858-0.123zm-1.716-86.992c-2.33 1.103-4.168 1.838-5.027 4.533-0.358 1.118-0.413 2.311-0.158 3.456 0.255 1.146 0.81 2.203 1.609 3.064 0.798 0.86 1.811 1.493 2.935 1.833s2.318 0.375 3.46 0.102c7.478-1.593 6.988-13.356-2.819-12.988zm16.917 34.919c-4.658 2.573-3.555 9.557 2.085 8.21 5.639-1.348 4.168-8.577-2.085-8.21zm15.692-52.195c-2.697 1.348-4.781 2.083-5.639 5.269-0.375 1.19-0.429 2.459-0.157 3.677 0.271 1.219 0.859 2.344 1.704 3.263s1.918 1.6 3.11 1.973c1.191 0.373 2.461 0.426 3.679 0.153 8.337-1.715 7.846-14.702-2.697-14.335zm-7.6 25.853c-1.594 0.735-2.943 1.102-3.801 2.45-2.697 4.044 0.491 10.292 5.885 9.067s6.375-11.762-2.084-11.517zm-170.4 29.16-1.104 0.491-0.98 1.837c0.095 0.584 0.371 1.122 0.789 1.54 0.418 0.417 0.956 0.693 1.54 0.788l1.348-0.49 0.859-1.838-0.368-1.347c-0.602-0.496-1.319-0.833-2.084-0.981zm121-46.436c-2.82 1.348-4.781 2.083-5.64 5.146-0.374 1.191-0.429 2.459-0.157 3.677 0.272 1.219 0.86 2.344 1.705 3.263s1.917 1.6 3.109 1.973 2.461 0.426 3.68 0.154c8.336-1.716 7.846-14.581-2.697-14.213zm-7.846 26.097c-1.349 0.858-2.82 1.226-3.555 2.574-2.575 4.043 0.858 9.924 6.007 8.699 5.149-1.226 6.007-11.64-2.452-11.273zm9.439 61.753c-0.735 0.735-0.735 1.96 0.613 1.592 1.349-0.367 0.613-0.735 0.368-1.47l-0.981-0.122zm-16.55-35.41c-1.103 0.49-2.206 0.613-2.942 1.593-0.735 0.98 0.491 6.371 3.555 6.004 1.008-0.082 1.943-0.56 2.598-1.329 0.655-0.77 0.978-1.769 0.896-2.776-0.081-1.007-0.559-1.941-1.33-2.596-0.77-0.655-1.769-0.977-2.777-0.896zm-8.213 26.71-0.736 0.858c-0.095 0.401-0.136 0.813-0.122 1.225l0.858 0.858h1.226l0.735-0.98c0.107-0.399 0.149-0.813 0.123-1.225l-0.858-0.736h-1.226zm32.732-18.133c-3.678 1.593-3.678 7.106 0.613 6.494 0.755-0.203 1.413-0.666 1.859-1.308s0.651-1.42 0.577-2.198c-0.073-0.778-0.42-1.504-0.978-2.051s-1.292-0.879-2.071-0.937zm7.233-26.343c-1.23 0.397-2.33 1.117-3.187 2.083-2.33 3.553 0.735 8.944 5.394 7.842 4.658-1.103 5.271-10.292-2.207-9.925zm17.531 35.165-1.226 0.49-0.858 1.838c0.49 1.47 0.735 1.837 2.206 2.328l1.349-0.491 0.981-1.837c-0.123-0.491-0.368-0.858-0.491-1.348-0.571-0.471-1.242-0.806-1.961-0.98zm-270.69-171.41c-1.199 0.271-2.3012 0.864-3.1874 1.716-2.0841 2.695 0 7.719 3.8004 7.106 1.1591-0.096 2.2336-0.645 2.9911-1.527s1.1371-2.026 1.0565-3.186-0.6148-2.241-1.487-3.01-2.0123-1.163-3.1736-1.099zm7.4782-25.607c-1.5937 0.612-3.0648 0.98-3.923 2.328-2.5744 3.798 0.4904 9.802 5.3941 8.822 4.9037-0.981 6.2522-11.395-1.4711-11.15zm1.1033 84.664c-1.1033 0.49-1.8389 0.613-2.084 2.083-0.0573 0.635 0.0704 1.273 0.3677 1.838 0.472 0.433 1.0773 0.692 1.7163 0.735 0.4904 0.245 1.1034-0.123 1.7163-0.368 0.2422-0.194 0.4429-0.436 0.5902-0.709 0.1474-0.274 0.2385-0.574 0.268-0.883 0.0572-0.636-0.0705-1.274-0.3678-1.838-0.2925-0.282-0.6383-0.503-1.0171-0.651-0.3789-0.147-0.7832-0.217-1.1896-0.207zm97.829 28.303c-2.451 1.103-4.413 1.715-5.149 4.411-0.735 2.695 2.452 8.209 6.375 7.474 7.111-1.225 6.866-12.007-1.226-11.885zm-90.596-54.523c-4.5359 2.695-3.5552 9.557 2.0841 8.209s4.1681-8.577-2.0841-8.209zm8.9493 59.547-0.7356 0.98c0 0.367-0.1226 0.735-0.1226 1.225l0.8582 0.735h1.2264l0.735-0.858c0.123-0.49 0.123-0.857 0.245-1.225l-0.98-0.735-1.2264-0.122zm-41.436-124.61c-5.3941 2.328-4.0455 9.066 0.8582 8.209 0.9779-0.24 1.8358-0.826 2.415-1.649 0.5793-0.824 0.8408-1.829 0.7361-2.83-0.1046-1.001-0.5683-1.93-1.3053-2.616s-1.6975-1.082-2.704-1.114zm17.286 117.38c-0.7356 0.735-0.7356 1.96 0.613 1.592 1.3485-0.367 0.4903-0.735 0.2451-1.47l-0.8581-0.122zm-16.427-189.67c5.7618-1.225 5.394-10.414-2.0841-10.047-1.2071 0.444-2.2972 1.156-3.1874 2.083-0.5836 0.845-0.9008 1.846-0.9109 2.873s0.2875 2.033 0.8544 2.889c0.5669 0.857 1.3772 1.524 2.3267 1.917 0.9495 0.392 1.9947 0.492 3.0013 0.285zm39.352 111.38c-1.3486 0.857-2.8197 1.225-3.5552 2.573-2.5745 4.043 0.8581 9.924 6.0075 8.699 5.148-1.225 6.007-11.64-2.4523-11.272zm-40.456 47.172c0.613 0.367 0.613 0.612 1.7163 0.612h0.1226c0.2425-0.208 0.4266-0.475 0.5341-0.776s0.1347-0.625 0.0789-0.939c-0.2339-0.244-0.5235-0.426-0.8439-0.533-0.3203-0.107-0.6618-0.134-0.995-0.08-0.3887 0.488-0.6043 1.092-0.613 1.716zm7.9686-111.74c-1.4712 0.612-2.8197 0.857-3.6778 2.082-2.3293 3.431 0.3678 9.067 4.9037 8.21 4.5359-0.858 5.8844-10.415-1.2259-10.292zm0.7355 83.929c-0.5524 0.161-1.0552 0.459-1.4623 0.866-0.407 0.407-0.7051 0.909-0.8669 1.462-0.0402 0.722 0.1878 1.434 0.6402 1.999 0.4524 0.566 1.0974 0.944 1.8116 1.064 0.3542-8e-3 0.7033-0.086 1.0275-0.229 0.3241-0.143 0.6169-0.348 0.8617-0.604 0.2447-0.256 0.4366-0.558 0.5647-0.888s0.1899-0.682 0.1819-1.036c-0.0081-0.354-0.0858-0.703-0.2288-1.027s-0.3484-0.617-0.6045-0.861c-0.2562-0.245-0.558-0.437-0.8883-0.565s-0.6826-0.189-1.0368-0.181zm25.377 91.403c-0.7355 0.735-0.7355 1.96 0.613 1.715s0.613-0.735 0.3678-1.47l-0.9808-0.245zm64.484-37.493c-1.226 0.613-2.575 0.858-3.31 1.838-2.575 3.308-0.368 9.924 4.903 8.822 5.272-1.103 5.762-10.905-1.593-10.66zm-48.792-14.335c-4.536 2.205-3.31 8.331 1.226 7.351 0.975-0.162 1.846-0.705 2.421-1.51 0.574-0.804 0.806-1.803 0.643-2.778-0.162-0.975-0.706-1.845-1.51-2.42-0.805-0.574-1.805-0.806-2.78-0.643zm49.895 100.22c-0.736 0.735-0.736 1.837 0.613 1.592 1.348-0.245 0.49-0.735 0.245-1.47l-0.858-0.122zm-9.194-59.425c-3.188 1.838-3.065 7.964 1.838 6.617 4.904-1.348 3.065-6.984-1.838-6.617zm33.835 67.389c-0.735 0.857-0.735 1.96 0.613 1.715 1.349-0.245 0.49-0.735 0.245-1.47l-0.858-0.245zm-8.827-60.16c-5.394 2.328-4.045 9.067 0.859 8.209 0.978-0.24 1.835-0.826 2.415-1.649 0.579-0.823 0.84-1.828 0.736-2.829-0.105-1.001-0.569-1.93-1.306-2.616s-1.697-1.082-2.704-1.115zm-7.968 26.833c-0.569 0.366-1.033 0.872-1.349 1.47l0.368 1.348 1.226 0.735 1.349-0.245 0.735-1.225c-0.122-1.47-0.735-2.083-2.329-2.083zm-50.018-101.08c-1.226 0.49-2.574 0.735-3.31 1.838-2.574 3.308-0.368 9.801 4.904 8.821 5.271-0.98 5.884-10.904-1.594-10.659zm10.543 60.159-1.716-0.368c-0.692 0.383-1.314 0.88-1.839 1.471-0.223 0.613-0.236 1.283-0.036 1.904s0.601 1.158 1.139 1.526c0.603 0.302 1.3 0.356 1.942 0.15s1.177-0.656 1.491-1.252c0.283-0.593 0.339-1.269 0.159-1.901-0.181-0.632-0.586-1.176-1.14-1.53zm-9.44 25.853c-0.735 0.735-0.735 1.96 0.613 1.592 1.349-0.367 0.491-0.735 0.246-1.47l-0.859-0.122zm23.538 9.434c0.613 0.368 0.613 0.613 1.717 0.613h0.122c0.368-0.613 0.613-0.613 0.613-1.716-0.51-0.436-1.169-0.655-1.839-0.612-0.368 0.612-0.613 0.612-0.613 1.715zm-8.336-62.242c-6.13 3.063-3.188 11.149 2.697 9.066 5.884-2.082 3.8-9.311-2.697-9.066zm8.091-26.098c-2.574 1.103-4.413 1.838-5.149 4.533-0.304 1.015-0.346 2.09-0.121 3.125 0.226 1.034 0.71 1.995 1.409 2.791 0.698 0.796 1.588 1.402 2.585 1.76 0.997 0.359 2.069 0.458 3.115 0.289 1.486-0.424 2.768-1.373 3.606-2.671 0.839-1.297 1.177-2.855 0.952-4.383s-0.997-2.923-2.174-3.924c-1.177-1.002-2.678-1.542-4.223-1.52zm229.13 135.51v0.245c0.488 0.388 1.092 0.604 1.716 0.612h0.123c0.368-0.612 0.613-0.612 0.613-1.715-0.234-0.243-0.524-0.426-0.844-0.533s-0.662-0.134-0.995-0.08c-0.2 0.189-0.357 0.417-0.463 0.671-0.105 0.253-0.157 0.525-0.15 0.8zm194.43-267.59c-6.743 3.063-3.433 11.272 2.329 9.312s3.801-9.557-2.329-9.312zm0.981 83.439c-3.188 1.47-3.065 6.616 0.858 5.759 0.679-0.203 1.262-0.643 1.642-1.24s0.532-1.311 0.428-2.012c-0.104-0.7-0.458-1.339-0.996-1.799-0.538-0.461-1.224-0.712-1.932-0.708zm-8.704-59.302c-1.349 0.613-2.575 0.736-3.31 1.716-2.452 3.063-0.491 9.189 4.29 8.331 1.317-0.149 2.523-0.811 3.356-1.841 0.834-1.03 1.229-2.346 1.1-3.664-0.129-1.319-0.771-2.534-1.788-3.384-1.017-0.849-2.327-1.265-3.648-1.158zm15.324-48.029c-4.536 2.695-3.433 9.679 2.207 8.209 5.639-1.47 4.168-8.454-2.207-8.209zm-12.995 132.45-1.716-0.367c-0.662 0.379-1.279 0.831-1.839 1.348-0.368 1.715-0.123 2.695 1.103 3.553 0.603 0.302 1.3 0.356 1.942 0.149 0.642-0.206 1.177-0.655 1.491-1.252 0.283-0.593 0.339-1.269 0.159-1.901-0.181-0.631-0.586-1.175-1.14-1.53zm14.956 33.817c-0.735 0.858-0.735 1.961 0.613 1.715 1.349-0.245 0.613-0.735 0.368-1.47l-0.981-0.245zm-0.735-83.684c-3.188 1.593-3.31 6.862 0.981 6.126 0.804-0.139 1.521-0.589 1.996-1.253s0.668-1.488 0.539-2.294c-0.129-0.805-0.57-1.528-1.228-2.011-0.658-0.482-1.48-0.687-2.288-0.568zm-32.487 14.581c-1.349 0.49-2.575 0.735-3.31 1.715-2.575 3.063-0.613 9.067 4.168 8.332 4.781-0.736 5.884-10.047-0.858-10.047zm-8.214 24.749c-6.865 3.063-3.555 11.273 2.207 9.312 5.762-1.96 3.923-9.557-2.207-9.312zm8.091 62.365c0.202 0.216 0.451 0.383 0.727 0.489s0.572 0.148 0.867 0.124h0.122c0.243-0.208 0.427-0.476 0.534-0.777 0.108-0.3 0.135-0.624 0.079-0.939-0.221-0.225-0.49-0.397-0.787-0.503-0.298-0.106-0.615-0.144-0.929-0.109-0.242 0.208-0.427 0.475-0.534 0.776s-0.135 0.625-0.079 0.939zm-6.988 23.035c-0.735 0.735-0.858 1.96 0.613 1.715s0.491-0.735 0.245-1.47l-0.858-0.245zm15.57-50.113-1.226 1.103v1.593l0.98 1.103h1.594l1.103-0.858v-1.715l-0.858-1.103-1.593-0.123zm32.732-15.56c-0.736 0.857-0.736 1.96 0.613 1.715 1.348-0.245 0.49-0.735 0.245-1.47l-0.858-0.245zm-33.713-68.981c-1.238 0.442-2.338 1.203-3.188 2.205-0.543 0.845-0.827 1.83-0.817 2.835 0.011 1.004 0.315 1.983 0.875 2.817 0.561 0.834 1.353 1.485 2.279 1.874 0.927 0.389 1.947 0.499 2.935 0.316 5.762-1.226 5.394-10.292-2.084-10.047zm49.65 20.094c-0.736 0.735-0.736 1.96 0.613 1.715 1.348-0.245 0.613-0.858 0.368-1.593l-0.981-0.122zm8.336-103.9c0.243-0.208 0.427-0.475 0.534-0.776 0.108-0.301 0.135-0.625 0.079-0.939-0.49-0.49-0.613-0.613-1.716-0.613-0.243 0.18-0.43 0.426-0.538 0.708-0.109 0.282-0.135 0.589-0.075 0.885v0.245c0.441 0.389 1.006 0.606 1.594 0.613l0.122-0.123zm-0.858-82.091c0.736-0.49 0.49-0.735 0.245-1.593h-0.858c-0.735 0.613-0.735 1.838 0.613 1.593zm0.613 161.36c-0.736 0.735-0.736 1.961 0.613 1.716s0.49-0.858 0.245-1.593l-0.858-0.123zm8.827-24.259-0.981-0.245c-0.736 0.857-0.736 1.96 0.613 1.715 1.348-0.245 0.613-0.735 0.368-1.47zm-0.981-80.131c0.858-0.49 0.613-0.735 0.368-1.47l-0.858-0.246c-0.859 0.736-0.859 1.961 0.49 1.716zm-16.673 46.314-1.226 1.103v1.715l0.981 0.98h1.594l1.103-0.857v-1.716l-0.981-0.98-1.471-0.245zm-6.252 24.26-1.594-0.368c-0.858 0.49-1.348 0.613-1.838 1.348-0.267 0.615-0.315 1.303-0.136 1.949 0.178 0.646 0.572 1.212 1.116 1.604 0.634 0.212 1.318 0.219 1.956 0.021s1.197-0.591 1.599-1.124c0.303-0.602 0.356-1.299 0.15-1.94-0.206-0.642-0.656-1.177-1.253-1.49zm-211.96 229c-3.678 1.47-3.678 6.984 0.613 6.371 0.844-0.083 1.62-0.497 2.159-1.152 0.538-0.654 0.795-1.495 0.714-2.339-0.081-0.843-0.494-1.62-1.147-2.16-0.654-0.54-1.495-0.799-2.339-0.72zm201.54-287.32c-4.168 2.328-3.065 8.087 1.471 7.107 0.816-0.312 1.495-0.903 1.914-1.669 0.42-0.765 0.553-1.655 0.376-2.51s-0.653-1.619-1.342-2.156c-0.689-0.536-1.547-0.81-2.419-0.772zm9.562 141.27c-0.736 0.736-0.736 1.961 0.613 1.593 1.348-0.367 0.49-0.735 0.245-1.47l-0.858-0.123zm-2.207-159.89c0.626 0.279 1.332 0.321 1.986 0.118s1.212-0.637 1.57-1.221c0.302-0.603 0.355-1.299 0.149-1.941-0.206-0.641-0.656-1.176-1.253-1.49l-1.594-0.367c-0.7 0.316-1.326 0.775-1.838 1.347-0.267 0.616-0.315 1.303-0.136 1.95 0.178 0.646 0.572 1.212 1.116 1.604zm-6.497 100.84c-3.187 1.593-3.065 6.616 0.858 5.881 0.386-0.056 0.758-0.188 1.093-0.388 0.336-0.2 0.628-0.464 0.862-0.776 0.233-0.313 0.403-0.669 0.498-1.047 0.096-0.379 0.117-0.772 0.06-1.158-0.056-0.387-0.188-0.758-0.388-1.093s-0.464-0.628-0.777-0.861-0.669-0.403-1.047-0.498c-0.379-0.096-0.773-0.116-1.159-0.06zm16.427-126.2 0.736-0.98c0.107-0.399 0.149-0.813 0.122-1.225l-0.858-0.736h-1.226l-0.735 0.858c-0.095 0.401-0.136 0.813-0.123 1.225l0.858 0.736 1.226 0.122zm-73.555 215.15c-4.659 2.696-3.556 9.557 2.084 8.209 5.639-1.347 4.168-8.576-2.084-8.209zm-105.55 73.27c-1.207 0.443-2.297 1.155-3.187 2.083-0.584 0.845-0.901 1.845-0.911 2.872s0.287 2.033 0.854 2.89c0.567 0.856 1.378 1.524 2.327 1.916 0.95 0.392 1.995 0.492 3.001 0.286 5.762-1.226 5.394-10.415-2.084-10.047zm106.9 11.394c-0.735 0.736-0.735 1.961 0.613 1.716 1.349-0.245 0.491-0.858 0.245-1.593l-0.858-0.123zm-97.461 49.745c-0.736 0.735-0.736 1.838 0.613 1.593 1.348-0.245 0.49-0.735 0.245-1.47l-0.858-0.123zm7.601-25.607-1.226 1.102v1.716l0.858 0.98h1.716l1.104-0.858v-1.715l-0.981-1.103-1.471-0.122zm7.846-26.22c-4.536 2.082-3.31 8.209 1.226 7.228 0.902-0.221 1.687-0.775 2.197-1.551 0.51-0.777 0.707-1.717 0.552-2.633-0.155-0.915-0.651-1.738-1.389-2.303-0.737-0.565-1.661-0.83-2.586-0.741zm8.213-25.853c-1.226 0.49-2.574 0.613-3.31 1.593-2.452 3.063-0.49 9.189 4.291 8.454 1.317-0.15 2.522-0.811 3.356-1.841 0.833-1.03 1.228-2.346 1.1-3.665-0.129-1.318-0.771-2.533-1.788-3.383-1.017-0.849-2.328-1.265-3.649-1.158zm-40.578 42.393c-4.536 2.206-3.31 8.209 1.226 7.229 0.902-0.221 1.688-0.775 2.198-1.552 0.51-0.776 0.707-1.716 0.552-2.632-0.156-0.915-0.652-1.738-1.389-2.303-0.738-0.565-1.662-0.83-2.587-0.742zm-17.163-35.164c-1.961 0.98-3.432 1.47-4.413 3.186-0.587 1.065-0.856 2.277-0.775 3.491 0.08 1.213 0.507 2.379 1.229 3.358s1.709 1.732 2.845 2.168 2.374 0.539 3.566 0.294c7.233-1.47 6.743-12.865-2.452-12.497zm66.445 53.788c-0.735 0.858-0.735 1.96 0.613 1.715 1.349-0.245 0.491-0.735 0.246-1.47l-0.859-0.245zm-74.168-27.813c-1.226 0.613-2.329 0.858-3.065 1.838-2.452 3.308 0.123 8.944 4.904 7.964s5.026-10.047-1.839-9.802zm9.194 61.017c-0.735 0.735-0.735 1.96 0.613 1.593 1.349-0.368 0.613-0.735 0.368-1.47l-0.981-0.123zm6.743-112.6c-3.188 1.226-5.517 2.083-6.375 5.636-0.858 3.554 3.065 10.17 8.214 9.19 9.072-1.593 8.581-15.193-1.839-14.826zm1.103 87.238c-0.607 0.357-1.113 0.863-1.471 1.47l0.368 1.348 1.226 0.735 1.348-0.245 0.736-1.226c0-1.47-0.736-2.082-2.207-2.082zm23.17-78.171c-1.839 0.98-3.31 1.47-4.413 3.186-0.587 1.066-0.856 2.277-0.775 3.491 0.08 1.214 0.507 2.379 1.229 3.358 0.722 0.98 1.709 1.732 2.845 2.168 1.136 0.437 2.374 0.539 3.566 0.295 7.356-1.593 6.865-12.865-2.452-12.498zm83.976 3.553-1.716-0.367c-0.662 0.379-1.278 0.831-1.839 1.348-0.212 0.633-0.219 1.316-0.021 1.954 0.198 0.637 0.591 1.197 1.124 1.599 0.629 0.254 1.327 0.283 1.975 0.082s1.206-0.62 1.581-1.185c0.222-0.613 0.235-1.283 0.035-1.904-0.199-0.621-0.6-1.158-1.139-1.527zm-10.298 27.201c0.203 0.215 0.451 0.382 0.727 0.488 0.276 0.107 0.573 0.149 0.867 0.124h0.245c0.389-0.488 0.605-1.091 0.613-1.715-0.509-0.436-1.169-0.656-1.839-0.613-0.242 0.208-0.426 0.476-0.534 0.777-0.107 0.301-0.134 0.624-0.079 0.939zm7.233-112.97c-2.329 1.103-4.168 1.961-5.026 4.534-0.315 1.07-0.35 2.203-0.1 3.291 0.25 1.087 0.777 2.092 1.528 2.916 0.752 0.825 1.703 1.443 2.763 1.794 1.059 0.35 2.192 0.422 3.287 0.208 7.478-1.593 6.988-13.11-2.452-12.743zm-16.55-34.306c-3.187 1.348-5.639 2.205-6.742 5.636-0.434 1.351-0.515 2.79-0.237 4.182 0.279 1.391 0.909 2.688 1.83 3.768s2.102 1.907 3.433 2.402c1.33 0.496 2.765 0.644 4.168 0.43 9.808-1.96 9.317-16.786-2.452-16.418zm25.745 94.221c-4.168 2.205-3.065 8.086 1.471 6.984 4.536-1.103 3.433-7.229-1.471-6.984zm-0.858-84.664c-2.697 1.225-4.659 1.96-5.517 5.023-0.299 1.064-0.326 2.185-0.08 3.262s0.758 2.076 1.49 2.904c0.731 0.829 1.658 1.461 2.697 1.839s2.155 0.491 3.249 0.327c7.846-1.471 7.478-13.723-1.839-13.355zm-31.874 100.35c-5.272 2.573-3.923 10.047 1.839 8.699 5.761-1.348 4.413-9.067-1.839-8.699zm-16.673-35.042c-2.82 1.225-4.781 1.96-5.639 5.023-0.365 1.118-0.431 2.312-0.191 3.463 0.24 1.152 0.777 2.22 1.558 3.099 0.781 0.88 1.778 1.54 2.893 1.915s2.309 0.452 3.463 0.223c8.214-1.593 7.723-13.968-2.084-13.723zm24.764 9.557c-1.226 0.612-2.575 0.858-3.433 1.838-2.574 3.43-0.368 9.924 4.904 8.821 5.271-1.102 5.884-10.904-1.471-10.659zm-16.182 51.092c-3.065 1.838-2.943 7.597 1.838 6.372 4.782-1.226 2.82-6.617-1.838-6.372zm-7.601 25.853-1.226 1.103v1.593l0.981 1.102h1.593l1.104-0.857v-1.716l-0.859-1.102-1.593-0.123zm24.764 8.944c-0.736 0.735-0.736 1.961 0.612 1.716 1.349-0.245 0.613-0.736 0.368-1.593l-0.98-0.123zm-33.223-70.084c-2.575 1.103-4.413 1.593-5.394 4.166s2.084 8.699 6.252 8.087c7.356-1.225 7.233-12.13-0.858-12.253zm39.965-41.045c-1.839 0.98-3.31 1.348-4.291 3.063-2.329 4.288 1.471 9.924 6.375 8.822 6.988-1.471 6.62-12.13-2.084-11.885zm-108.37-406.78c0.613 0.245 1.103-0.1225 1.716-0.2451 0.478-0.4539 0.782-1.0608 0.859-1.7153 0.057-0.6352-0.071-1.2735-0.368-1.8379-0.293-0.282-0.639-0.5031-1.017-0.6504-0.379-0.1472-0.784-0.2177-1.19-0.2072-1.103 0.4901-1.839 0.6126-2.084 2.0829-0.057 0.6352 0.07 1.2735 0.368 1.8378 0.472 0.4328 1.077 0.6921 1.716 0.7352zm-6.988 26.71c1.19-0.1777 2.262-0.8163 2.984-1.7777s1.037-2.1683 0.876-3.3597-0.785-2.2716-1.737-3.0069c-0.951-0.7353-2.154-1.0667-3.349-0.9224-6.007 2.4504-4.413 10.169 1.226 9.0667zm-7.968 26.343c7.478-1.4703 7.355-12.988-1.471-12.742-2.575 1.1027-4.414 1.5928-5.394 4.1658-1.594 4.4109 2.206 9.4344 6.865 8.5767zm-1.104-87.115c0.859-0.4901 0.613-0.73515 0.368-1.4703h-0.981c-0.735 0.61262-0.735 1.7153 0.613 1.4703zm-23.17 79.028c7.233-1.3477 6.743-12.742-1.838-12.497-2.575 1.1027-4.414 1.9603-5.149 4.6559-0.279 1.0066-0.301 2.067-0.064 3.0843 0.237 1.0172 0.725 1.9589 1.42 2.7389s1.575 1.3734 2.559 1.726c0.983 0.3525 2.04 0.4531 3.072 0.2923zm-9.93-61.384 1.349-0.2451 0.735-1.2252c0.041-0.2992 0.012-0.6036-0.085-0.8896-0.096-0.2861-0.258-0.5459-0.471-0.7594-0.214-0.2134-0.474-0.3747-0.76-0.4712-0.286-0.0966-0.591-0.1257-0.89-0.0853-0.613 0.6127-0.981 0.7352-1.349 1.5928 0.033 0.4568 0.116 0.9087 0.245 1.3478l1.226 0.7352zm17.163 34.919c1.159-0.0962 2.234-0.6446 2.991-1.5267 0.758-0.882 1.138-2.0267 1.057-3.1863-0.081-1.1597-0.615-2.2409-1.487-3.0099-0.872-0.7689-2.012-1.1637-3.174-1.0988-1.226 0.6126-2.451 0.7351-3.187 1.7153s0 7.719 3.8 7.1064zm7.724-26.588 1.471-0.3676c0.235-0.635 0.522-1.2497 0.858-1.8378-0.123-0.4901-0.368-0.9802-0.49-1.3478-0.572-0.4705-1.242-0.8057-1.962-0.9802l-1.226 0.4901-0.858 1.8379c0.124 0.5374 0.397 1.0292 0.787 1.4192 0.39 0.3899 0.882 0.6624 1.42 0.7862zm58.722 76.823c7.233-1.47 6.742-12.498-2.084-12.252-2.33 1.2252-4.169 1.8378-4.904 4.4109-0.315 1.0091-0.362 2.0824-0.139 3.1156 0.224 1.0329 0.711 1.9909 1.414 2.7799 0.703 0.79 1.599 1.384 2.6 1.725 1.001 0.34 2.073 0.417 3.113 0.221zm-1.349-86.87c0.736-0.3676 0.491-0.7351 0.245-1.4703h-0.858c-0.735 0.6126-0.735 1.8379 0.613 1.4703zm-8.214 26.098 1.349-0.49 0.981-1.8379c-0.198-0.436-0.362-0.8866-0.491-1.3478-0.571-0.4705-1.242-0.8056-1.961-0.9802l-1.226 0.4901-0.981 1.8379c0.095 0.5831 0.371 1.1215 0.789 1.5393 0.418 0.4177 0.957 0.6936 1.54 0.7886zm-14.711 52.93c7.233-1.4703 6.743-12.743-2.452-12.375-1.961 0.8577-3.432 1.3478-4.413 3.1856-0.551 1.0626-0.792 2.2588-0.694 3.4517 0.097 1.1929 0.529 2.3343 1.245 3.2933 0.717 0.9591 1.689 1.697 2.806 2.1293 1.116 0.4323 2.332 0.5415 3.508 0.3151zm-1.593-86.992c0.858-0.49009 0.613-0.85766 0.367-1.5928h-0.98c-0.736 0.61262-0.736 1.8379 0.613 1.5928zm8.826 60.772c1.13-0.2605 2.123-0.9329 2.783-1.8857s0.941-2.1176 0.788-3.2665-0.73-2.1994-1.617-2.946-2.021-1.1357-3.18-1.0911c-5.884 2.573-4.29 10.17 1.226 9.1893zm-162.93 1.9604c1.383-0.246 2.616-1.0215 3.435-2.1614 0.82-1.14 1.163-2.5546 0.955-3.943s-0.949-2.6411-2.066-3.4917c-1.118-0.8507-2.523-1.2322-3.917-1.0635-1.226 0.6126-2.575 0.8577-3.31 1.8378-2.575 3.3082-0.368 9.9245 4.903 8.8218zm24.519 8.9442c1.476-0.4212 2.75-1.3603 3.588-2.6448 0.839-1.2845 1.186-2.8283 0.977-4.3478s-0.959-2.9128-2.113-3.9241c-1.154-1.0112-2.634-1.5725-4.168-1.5807-2.575 1.1027-4.414 1.8378-5.272 4.6559-0.279 1.0066-0.301 2.067-0.064 3.0843s0.726 1.9589 1.421 2.7389 1.574 1.3734 2.558 1.726 2.04 0.4531 3.073 0.2923zm-33.713-70.451c0.858-0.4901 0.613-0.85767 0.368-1.5928h-0.981c-0.736 0.61262-0.736 1.8378 0.613 1.5928zm24.028 8.9443 1.349-0.3676 0.735-1.2253c0-1.4703-0.735-2.0829-2.206-2.0829-0.569 0.3658-1.034 0.8722-1.349 1.4703 0.123 0.4901 0.123 0.9802 0.245 1.4703l1.226 0.7352zm18.512 35.042c4.781-1.5928 3.8-9.1893-2.697-8.9442-6.13 3.0631-3.188 11.027 2.697 8.9442zm-25.622-8.5766c0.975-0.1625 1.846-0.7056 2.421-1.5098 0.575-0.8043 0.806-1.8037 0.644-2.7786-0.163-0.9749-0.706-1.8452-1.511-2.4197-0.805-0.5744-1.805-0.8059-2.78-0.6434-4.536 2.2054-3.31 8.2091 1.226 7.3515zm179.84 31.856c1.112-0.2059 2.097-0.8416 2.743-1.7691 0.645-0.9275 0.898-2.072 0.705-3.185-0.194-1.1131-0.819-2.1049-1.74-2.7601-0.921-0.6553-2.063-0.9212-3.179-0.7399-5.271 2.573-3.923 9.6794 1.471 8.4541zm-98.319-32.101c0.986-0.2444 1.849-0.8404 2.426-1.6759 0.578-0.8355 0.83-1.8531 0.71-2.8614-0.121-1.0082-0.606-1.9378-1.364-2.614s-1.737-1.0523-2.753-1.0578c-5.394 2.3279-3.923 9.0668 0.981 8.2091zm-16.427-35.41c0.388-0.44034 0.606-1.0056 0.613-1.5928v-0.24504c-0.528-0.39212-1.186-0.56748-1.839-0.4901-0.243 0.18004-0.43 0.4254-0.538 0.70744-0.109 0.28203-0.135 0.58911-0.075 0.88537 0.18 0.24269 0.425 0.4292 0.708 0.5376 0.282 0.1085 0.589 0.1345 0.885 0.075l0.246 0.1225zm-23.17 79.273c7.968-1.7153 7.478-14.09-2.698-13.723-2.574 1.2253-4.413 1.9604-5.394 4.901-0.38 1.1577-0.446 2.3959-0.189 3.5873 0.257 1.1913 0.827 2.2927 1.651 3.1911 0.824 0.8983 1.872 1.5611 3.037 1.9202 1.166 0.3592 2.405 0.4017 3.593 0.1231zm31.628-17.521c6.988-1.2253 6.866-12.007-1.225-11.885-2.452 1.1028-4.414 1.7154-5.149 4.4109-0.736 2.6955 2.451 8.2091 6.374 7.474zm-16.059-35.164c3.8-0.8577 2.942-6.9839-1.839-6.6163-4.781 0.3675-3.187 7.964 1.839 6.6163zm-17.286-34.919c0.858-0.4901 0.613-0.73515 0.368-1.4703l-0.858-0.24505c-0.858 0.85767-0.858 1.9604 0.49 1.7153zm9.44 61.507c6.13-1.3478 5.639-10.905-2.329-10.537-1.413 0.4896-2.649 1.3846-3.556 2.573-0.53 0.9098-0.782 1.9549-0.725 3.0062s0.421 2.0629 1.047 2.9099c0.626 0.8469 1.486 1.4922 2.475 1.8562 0.988 0.3639 2.062 0.4306 3.088 0.1918zm-18.021-35.042c0.412 0.0774 0.837 0.0617 1.242-0.0457 0.406-0.1075 0.782-0.3041 1.102-0.5755 0.32-0.2713 0.576-0.6107 0.748-0.9932s0.256-0.7986 0.247-1.2179c-0.01-0.4193-0.112-0.8312-0.301-1.2057s-0.459-0.7022-0.791-0.9591-0.717-0.4366-1.127-0.526c-0.409-0.0893-0.834-0.0861-1.243 0.0095-1.348 0.7352-1.839 0.9802-2.329 2.4505-0.07 0.7289 0.147 1.4562 0.605 2.0279s1.12 0.943 1.847 1.0352zm261.98 111.37 1.348-0.245 0.736-1.225c0.04-0.299 0.011-0.603-0.086-0.889-0.096-0.286-0.258-0.546-0.471-0.76-0.214-0.213-0.474-0.374-0.76-0.471s-0.591-0.126-0.89-0.085c-0.613 0.612-0.981 0.735-1.349 1.593 0.023 0.458 0.106 0.911 0.246 1.347l1.226 0.735zm9.439 58.812c0.903-0.221 1.688-0.776 2.198-1.552s0.707-1.716 0.552-2.632-0.652-1.739-1.389-2.303c-0.738-0.565-1.662-0.83-2.587-0.742-4.536 2.083-3.31 8.209 1.226 7.229zm-6.865 108.43c6.988-1.47 6.497-12.253-2.084-11.885-1.839 0.858-3.31 1.348-4.291 3.063-0.507 1.003-0.728 2.125-0.639 3.245 0.088 1.12 0.483 2.194 1.141 3.104 0.658 0.911 1.554 1.623 2.59 2.059s2.171 0.579 3.283 0.414zm5.884-192.85c0.859-0.49 0.613-0.858 0.368-1.593h-0.981c-0.735 0.613-0.735 1.838 0.613 1.593zm-15.569 51.95c0.976-0.162 1.846-0.705 2.421-1.51 0.575-0.804 0.807-1.803 0.644-2.778s-0.706-1.845-1.511-2.42c-0.804-0.574-1.804-0.806-2.78-0.643-4.536 2.205-3.31 8.331 1.226 7.351zm8.459 58.322c6.007-0.981 5.885-10.047-0.858-10.047-1.272 0.269-2.454 0.859-3.433 1.715-2.452 3.063-0.49 9.067 4.291 8.332zm-14.834 132.33c7.724-1.471 7.356-13.601-1.839-13.356-2.819 1.226-4.781 1.961-5.639 5.024-0.306 1.075-0.334 2.21-0.082 3.299s0.775 2.096 1.522 2.928 1.692 1.461 2.748 1.829 2.188 0.463 3.29 0.276zm8.214-24.873c7.356-1.593 6.865-13.11-2.452-12.742-2.329 1.102-4.291 1.838-5.026 4.533-0.316 1.07-0.35 2.204-0.1 3.291s0.776 2.092 1.528 2.917c0.751 0.825 1.703 1.442 2.762 1.793 1.06 0.35 2.192 0.422 3.288 0.208zm-26.97-22.177c-3.188 1.471-5.517 2.328-6.498 5.882-0.378 1.285-0.421 2.646-0.123 3.952 0.297 1.306 0.925 2.515 1.822 3.51s2.035 1.744 3.304 2.175c1.27 0.431 2.628 0.53 3.946 0.287 9.44-1.838 8.95-16.173-2.451-15.806zm-16.305 48.765c-2.942 1.47-5.272 2.205-6.375 5.514-0.519 1.381-0.655 2.877-0.395 4.33s0.907 2.808 1.874 3.925c0.966 1.116 2.215 1.951 3.616 2.417s2.902 0.547 4.345 0.232c9.684-1.96 9.071-16.786-3.065-16.418zm-48.179-246.76c6.497-1.592 6.007-11.639-2.452-11.272-1.349 0.735-2.82 1.226-3.678 2.573-2.452 4.044 0.981 9.925 6.13 8.699zm81.034-5.023c0.367-0.613 0.613-0.613 0.613-1.715-0.234-0.244-0.524-0.427-0.844-0.533-0.321-0.107-0.662-0.134-0.995-0.08-0.389 0.488-0.605 1.092-0.613 1.715 0.613 0.368 0.613 0.613 1.716 0.613h0.123zm-6.253 274.7c8.582-1.348 8.214-13.723-1.226-13.6-2.697 1.102-4.658 1.593-5.761 4.166-1.839 4.656 2.084 10.292 6.987 9.434zm-18.389-47.539c-3.187 1.47-5.516 2.205-6.62 5.636-1.961 5.881 2.943 12.007 9.072 10.782 9.93-1.838 9.317-16.786-2.452-16.418zm-31.874-214.91c5.762-1.225 5.272-10.292-2.206-10.047-1.238 0.443-2.338 1.203-3.188 2.206-0.557 0.854-0.847 1.854-0.835 2.873 0.013 1.02 0.328 2.012 0.906 2.852s1.392 1.49 2.34 1.867c0.948 0.376 1.986 0.463 2.983 0.249zm7.111-26.22c0.844-0.0833 1.62-0.4976 2.158-1.152 0.539-0.6545 0.796-1.4957 0.715-2.3392-0.082-0.8435-0.494-1.6204-1.148-2.1603-0.653-0.5399-1.494-0.7988-2.338-0.7198-3.678 1.4703-3.678 6.9839 0.613 6.3713zm9.439 59.547c6.743-1.47 6.375-11.885-2.084-11.517-1.593 0.735-2.942 1.102-3.8 2.328-2.697 4.043 0.49 10.292 5.884 9.189zm-25.744-93.731 0.858-0.9802c-0.02-0.4122 0.021-0.8251 0.123-1.2252l-0.981-0.7351h-1.226l-0.736 0.8576c0 0.3676-0.122 0.8577-0.122 1.2253l0.858 0.7351 1.226 0.1225zm-16.795-33.326c0.735-0.4901 0.49-0.7352 0.245-1.4703l-0.858-0.2451c-0.736 0.7352-0.736 1.9604 0.613 1.7154zm9.194 60.037c4.414-1.1027 3.678-7.9641-1.839-7.5965-4.29 2.3279-3.187 8.8217 1.839 7.5965zm-407.01 322.73c-0.5512 0.201-1.0483 0.527-1.4524 0.952s-0.7042 0.938-0.8769 1.498c-0.0401 0.723 0.1879 1.435 0.6402 2 0.4524 0.565 1.0975 0.944 1.8117 1.063 0.4124 0.078 0.8369 0.062 1.2425-0.045 0.4057-0.108 0.7822-0.305 1.1021-0.576s0.5752-0.611 0.7472-0.993c0.1721-0.383 0.2565-0.799 0.2472-1.218s-0.1122-0.831-0.301-1.206c-0.1889-0.374-0.459-0.702-0.7907-0.959s-0.7166-0.436-1.1265-0.526c-0.41-0.089-0.8348-0.086-1.2434 0.01zm463.52-334.25c0.736-0.4901 0.491-0.8577 0.246-1.5928h-0.859c-0.858 0.6126-0.858 1.8379 0.613 1.5928zm17.409 118.48c6.129-1.103 5.884-10.537-1.226-10.292-1.471 0.612-2.82 0.857-3.678 2.083-2.207 3.308 0.368 9.066 4.904 8.209zm-41.682-125.96c0.243-0.208 0.427-0.4756 0.534-0.7764 0.108-0.3008 0.135-0.6244 0.079-0.9389-0.51-0.4358-1.169-0.6556-1.839-0.6126-0.389 0.4882-0.604 1.0915-0.613 1.7153 0.613 0.3676 0.613 0.6126 1.716 0.6126h0.123zm25.377 93.118c1.268-0.244 2.389-0.977 3.121-2.041 0.732-1.063 1.016-2.372 0.791-3.643-0.226-1.271-0.942-2.403-1.995-3.15-1.053-0.748-2.358-1.051-3.634-0.845-1.173 0.314-2.235 0.951-3.064 1.838-2.452 3.308 0.122 8.822 4.781 7.841zm-16.673-33.081c0.987-0.343 1.82-1.025 2.351-1.924 0.531-0.9 0.725-1.958 0.549-2.987-0.177-1.029-0.713-1.963-1.513-2.634-0.801-0.671-1.813-1.037-2.858-1.032-5.271 2.573-3.923 9.68 1.471 8.577zm7.356-26.588 1.348-0.4901 0.858-1.8378c-0.109-0.4673-0.273-0.9197-0.49-1.3478-0.555-0.4959-1.232-0.8343-1.961-0.9802l-1.226 0.4901-0.859 1.8379c0.096 0.583 0.372 1.1215 0.79 1.5392 0.418 0.4178 0.956 0.6937 1.54 0.7887zm16.795 33.449c0.755-0.203 1.413-0.666 1.859-1.307 0.446-0.642 0.651-1.421 0.577-2.198-0.073-0.778-0.42-1.505-0.978-2.052s-1.292-0.878-2.071-0.937c-3.678 1.593-3.555 7.107 0.613 6.494zm-471.86 118.24c4.4133-1.103 3.6778-7.964-1.8389-7.597-4.2908 2.328-3.1874 8.822 1.8389 7.597zm-0.8582-84.052c0.3678-0.612 0.613-0.612 0.613-1.715-0.2339-0.243-0.5235-0.426-0.8439-0.533-0.3203-0.107-0.6618-0.134-0.995-0.08-0.2157 0.203-0.3829 0.451-0.489 0.727s-0.1485 0.572-0.124 0.866v0.245c0.4885 0.389 1.0922 0.604 1.7163 0.613l0.1226-0.123zm7.6008-25.117c0.7355-0.49 0.4904-0.735 0.2452-1.47l-0.8582-0.245c-0.7355 0.735-0.7355 1.96 0.613 1.715zm1.1033 84.787c4.5359-0.981 4.0456-8.087-1.5937-7.842-4.7811 2.328-3.5552 8.944 1.5937 7.842zm-32.732 14.09 0.7356-0.858c0.1014-0.4 0.1427-0.813 0.1226-1.225l-0.8582-0.735h-1.2259l-0.7355 0.858c-0.1014 0.4-0.1427 0.813-0.1226 1.225l0.8581 0.735h1.2259zm7.1104-24.26 1.3485-0.245c0.2567-0.428 0.5435-0.838 0.8582-1.225 0.0202-0.306-0.0272-0.612-0.1389-0.897s-0.2849-0.542-0.5073-0.753c-0.2224-0.21-0.4886-0.369-0.7795-0.465s-0.5994-0.127-0.9036-0.091c-0.604 0.379-1.0753 0.935-1.3485 1.593 0.1226 0.368 0.1226 0.858 0.2452 1.348l1.2259 0.735zm-31.874 95.446c-0.73556 0.736-0.73556 1.961 0.61296 1.716 1.3485-0.245 0.49038-0.858 0.24519-1.593l-0.85815-0.123zm40.701-120.2 0.7356-0.98c0.1226-0.368 0.1226-0.735 0.2451-1.225l-0.9807-0.735h-1.2259l-0.7356 0.857c0 0.49-0.1226 0.858-0.1226 1.226l0.8582 0.857h1.2259zm32.61-14.458c0.9754-0.162 1.8463-0.705 2.421-1.509 0.5748-0.805 0.8064-1.804 0.6438-2.779s-0.706-1.845-1.5106-2.42c-0.8047-0.574-1.8047-0.806-2.7801-0.643-4.536 2.205-3.31 8.332 1.2259 7.351zm-0.9808-84.541c0.8582-0.3676 0.613-0.7351 0.3678-1.4703h-0.9807c-0.7356 0.6127-0.7356 1.7154 0.6129 1.4703zm9.4397 143.84c6.9878-1.225 6.8652-12.007-1.2259-11.885-2.4519 0.98-4.4134 1.716-5.1489 4.411-0.2402 0.933-0.2523 1.909-0.0354 2.848 0.2168 0.938 0.6564 1.81 1.2814 2.543 0.6251 0.733 1.4174 1.305 2.31 1.667 0.8926 0.363 1.8594 0.505 2.8188 0.416zm-16.305-34.674c4.4134-1.103 3.6778-7.842-1.8388-7.597-4.2908 2.451-3.1875 8.822 1.8388 7.597zm8.8267 59.056c6.8652-1.347 6.3749-11.884-2.084-11.517-1.4712 0.735-2.9423 1.103-3.8004 2.451-2.6971 4.043 0.4903 10.292 5.8844 9.066zm-9.8074-143.6c0.7356-0.367 0.4904-0.735 0.2452-1.47h-0.8582c-0.7355 0.612-0.7355 1.715 0.613 1.47zm16.55 34.797c3.5552-0.613 3.1874-6.126-0.9807-6.004-4.1682 0.123-3.31 6.862 0.9807 6.004zm-48.669 141.02c-3.31 1.593-3.31 6.984 0.8581 6.126 0.8129-0.113 1.5472-0.545 2.0415-1.2s0.7081-1.479 0.5943-2.292c-0.1138-0.812-0.5458-1.546-1.2011-2.04-0.6552-0.494-1.48-0.708-2.2928-0.594zm1.2259 165.28c-0.7355 0.735-0.7355 1.838 0.613 1.593s0.4904-0.735 0.2452-1.47l-0.8582-0.123zm-0.4903-82.826-1.226 0.367-0.8581 1.838c0.1029 0.56 0.3662 1.078 0.7579 1.491 0.3917 0.414 0.8949 0.704 1.4487 0.837l1.4712-0.49 0.8581-1.838c-0.1285-0.461-0.2925-0.911-0.4904-1.347-0.5805-0.431-1.2512-0.724-1.9614-0.858zm8.3363-100.35c4.0455-0.981 3.5552-7.229-1.4712-6.984-4.0455 2.205-3.0648 8.086 1.4712 6.984zm-0.7356 160.02c0.2082 0.242 0.4759 0.426 0.7769 0.534 0.3009 0.107 0.6247 0.134 0.9394 0.079h0.1226c0.2157-0.202 0.3829-0.451 0.489-0.726 0.1061-0.276 0.1485-0.573 0.124-0.867v-0.245c-0.5345-0.39-1.1772-0.604-1.8389-0.613-0.2218 0.249-0.3906 0.54-0.4959 0.856-0.1054 0.316-0.1453 0.65-0.1171 0.982zm-32.242-146.17c0.85815-0.49 0.61297-0.735 0.36778-1.47l-0.98074-0.245c-0.73556 0.735-0.73556 1.96 0.61296 1.715zm31.997 60.772c-3.31 1.96-3.1874 7.964 1.8389 6.739 5.0263-1.226 2.9422-6.984-1.8389-6.739zm-23.66-84.909c0.2425-0.208 0.4266-0.476 0.5341-0.777s0.1347-0.624 0.0789-0.939c-0.4904-0.49-0.613-0.612-1.7163-0.612-0.2428 0.18-0.4294 0.425-0.538 0.707-0.1085 0.282-0.1345 0.589-0.075 0.886v0.245c0.4406 0.388 1.0062 0.605 1.5937 0.612l0.1226-0.122zm0.2452 160.87c-0.7356 0.735-0.7356 1.96 0.613 1.715 1.3485-0.245 0.4903-0.735 0.2451-1.593l-0.8581-0.122zm-8.5815-56.974c-0.73555 0.735-0.73555 1.96 0.61297 1.715 1.3485-0.245 0.61293-0.857 0.36778-1.592l-0.98075-0.123zm7.7233-25.117-0.7355 0.98c0 0.367-0.1226 0.735-0.1226 1.225l0.8581 0.735h1.226l0.8581-0.857c-0.0261-0.413 0.0153-0.827 0.1226-1.226l-0.9807-0.735-1.226-0.122zm8.459-25.363-1.226 0.49-0.9807 1.838c0.0951 0.583 0.3711 1.122 0.7891 1.539 0.418 0.418 0.9567 0.694 1.5401 0.789l1.3486-0.49 0.9807-1.838c-0.1979-0.436-0.3618-0.886-0.4904-1.348-0.5714-0.47-1.242-0.805-1.9614-0.98zm0.3677 83.071c-0.7355 0.736-0.7355 1.838 0.613 1.593s0.613-0.735 0.3678-1.47l-0.9808-0.123zm104.08-315.74 1.349-0.3676 0.858-1.8379-0.368-1.3478c-0.571-0.4705-1.242-0.8056-1.961-0.9801l-1.226 0.4901-0.981 1.8378c0.133 0.5535 0.424 1.0565 0.838 1.448 0.413 0.3915 0.931 0.6546 1.491 0.7575zm49.896 19.359c6.497-1.225 6.252-11.518-1.594-11.272-1.594 0.7352-3.065 1.1028-3.923 2.4505-2.452 3.676 0.49 9.802 5.517 8.822zm-8.704-61.385c0.367-0.6126 0.613-0.6126 0.613-1.7153-0.234-0.2434-0.524-0.4263-0.844-0.533-0.321-0.1067-0.662-0.1341-0.995-0.0797-0.226 0.2209-0.398 0.49-0.504 0.7872-0.107 0.2971-0.144 0.6145-0.109 0.9282 0.613 0.3675 0.613 0.6126 1.716 0.6126h0.123zm7.6-25.117c0.736-0.4901 0.491-0.7352 0.246-1.4703l-0.859-0.2451c-0.735 0.8577-0.735 1.9604 0.613 1.7154zm8.704 60.772c1.16-0.0962 2.234-0.6447 2.992-1.5267 0.757-0.8821 1.137-2.0268 1.056-3.1864s-0.615-2.2408-1.487-3.0098c-0.872-0.7689-2.012-1.1637-3.174-1.0988-1.211 0.238-2.322 0.8358-3.187 1.7153-2.084 2.6955-0.123 7.719 3.8 7.1064zm-25.254-9.6794c0.413 0.0774 0.837 0.0617 1.243-0.0457 0.405-0.1075 0.782-0.3041 1.102-0.5755s0.575-0.6107 0.747-0.9932 0.257-0.7986 0.247-1.2179c-9e-3 -0.4193-0.112-0.8312-0.301-1.2057-0.189-0.3746-0.459-0.7022-0.79-0.9591-0.332-0.2569-0.717-0.4366-1.127-0.526-0.41-0.0893-0.835-0.0861-1.243 0.0095-1.349 0.7352-1.839 0.9802-2.33 2.4505-0.069 0.7289 0.148 1.4562 0.606 2.0279 0.457 0.5717 1.12 0.943 1.846 1.0352zm-70.981 142.25c6.7426-1.471 6.2522-11.885-2.2067-11.518-1.4626 0.399-2.7809 1.207-3.8004 2.328-2.5744 4.044 0.613 10.292 6.0071 9.19zm103.47-158.79c0.413 0.0774 0.837 0.0618 1.243-0.0457 0.406-0.1074 0.782-0.304 1.102-0.5754s0.575-0.6107 0.747-0.9933c0.172-0.3825 0.257-0.7986 0.247-1.2179-9e-3 -0.4193-0.112-0.8312-0.301-1.2057-0.188-0.3745-0.459-0.7022-0.79-0.9591-0.332-0.2569-0.717-0.4366-1.127-0.5259-0.41-0.0894-0.835-0.0861-1.243 0.0095-0.551 0.201-1.048 0.5268-1.453 0.952-0.404 0.4251-0.704 0.938-0.876 1.4984-0.015 0.7166 0.223 1.4156 0.671 1.9753s1.078 0.9446 1.78 1.0878zm25.622 9.5569c0.999-0.3453 1.84-1.0371 2.372-1.9498 0.531-0.9127 0.717-1.9857 0.524-3.024-0.193-1.0382-0.752-1.9728-1.576-2.634-0.824-0.6611-1.857-1.0049-2.913-0.9689-5.272 2.573-3.801 9.6794 1.593 8.5767zm-64.729 32.959c4.659-1.1027 4.168-8.5767-2.084-8.2091-4.536 2.6955-3.555 9.5569 2.084 8.2091zm71.717-59.547c0.635 0.0442 1.27-0.0828 1.839-0.3676 0.408-0.4392 0.666-0.9972 0.736-1.5928 0.057-0.6352-0.071-1.2735-0.368-1.8378-0.604-0.5657-1.382-0.911-2.207-0.9802-1.103 0.6126-1.839 0.6126-1.961 2.2054-0.078 0.2876-0.096 0.5879-0.053 0.8827 0.042 0.2948 0.143 0.5781 0.298 0.8326 0.44 0.4963 1.055 0.8035 1.716 0.8577zm-14.466 52.44c6.498-1.5928 5.885-11.64-2.452-11.272-1.471 0.7351-2.819 1.2252-3.678 2.573-2.451 3.9208 0.981 9.8019 6.13 8.6992zm-9.194-61.385c0.233-0.215 0.411-0.4834 0.518-0.7822 0.106-0.2987 0.139-0.6189 0.095-0.9331-0.491-0.4901-0.613-0.6126-1.839-0.6126-0.194 0.2132-0.338 0.4664-0.423 0.7417s-0.108 0.5659-0.068 0.8511v0.245c0.441 0.3885 1.007 0.6059 1.594 0.6127l0.123-0.1226zm0.98 87.115c8.214-1.47 7.724-13.968-2.206-13.6-2.697 1.225-4.659 1.96-5.517 5.023-0.338 1.111-0.382 2.29-0.13 3.423s0.793 2.182 1.57 3.044c0.777 0.863 1.763 1.511 2.864 1.88 1.101 0.37 2.279 0.449 3.419 0.23zm-32.119 16.173c7.601-1.593 7.11-13.477-2.697-13.11-2.329 1.225-4.168 1.961-5.026 4.656-0.349 1.106-0.401 2.284-0.151 3.416s0.793 2.179 1.576 3.035c0.782 0.856 1.775 1.492 2.881 1.843 1.105 0.352 2.284 0.407 3.417 0.16zm-74.536-29.16c0.2425-0.209 0.4266-0.476 0.5341-0.777 0.1074-0.301 0.1346-0.624 0.0789-0.939-0.2446-0.2279-0.5354-0.4007-0.8527-0.5064s-0.6537-0.1419-0.9862-0.106c-0.3887 0.4882-0.6043 1.0914-0.613 1.7154 0.4721 0.417 1.0867 0.636 1.7163 0.613h0.1226zm9.1943 60.771c5.762-1.225 5.272-10.414-2.207-10.047-1.207 0.444-2.297 1.156-3.187 2.083-2.3292 3.554 0.736 8.945 5.394 7.964zm7.111-25.117c1.159-0.096 2.233-0.645 2.991-1.527 0.757-0.882 1.137-2.026 1.056-3.186-0.08-1.16-0.615-2.241-1.487-3.01s-2.012-1.164-3.173-1.099c-1.199 0.271-2.302 0.864-3.188 1.716-2.084 2.695 0 7.719 3.801 7.106zm-8.459-60.649c0.735-0.3676 0.49-0.7351 0.245-1.4703h-0.858c-0.736 0.6126-0.858 1.8379 0.613 1.4703zm-16.305 50.48 1.3485-0.491c0.3586-0.532 0.647-1.109 0.8582-1.715l-0.3678-1.47c-0.6077-0.382-1.2687-0.671-1.9615-0.858l-1.2259 0.49-0.9808 1.838c0.133 0.554 0.4239 1.057 0.8374 1.448 0.4135 0.392 0.9317 0.655 1.4919 0.758zm9.6848 60.404c6.2524-1.47 5.7614-11.272-2.4518-11.027-1.3486 0.735-2.6971 1.225-3.4326 2.45-2.4519 3.921 0.7355 9.68 5.8844 8.577zm138.9-89.688c7.111-2.083 6.13-13.6-3.187-13.233-2.575 1.1027-4.536 1.9603-5.394 4.6559-0.368 1.1921-0.403 2.4618-0.102 3.6724s0.926 2.3164 1.809 3.1984c0.882 0.8821 1.988 1.507 3.2 1.8075 1.211 0.3006 2.481 0.2654 3.674-0.1016zm-99.79-37.738c0.735-0.4901 0.49-0.7351 0.368-1.4702h-0.981c-0.736 0.6126-0.736 1.7153 0.613 1.4702zm-15.324 51.582c3.8-0.98 2.942-6.983-1.839-6.738s-3.188 7.964 1.839 6.738zm16.059 35.165c7.356-1.103 7.233-12.007-0.858-12.13-2.574 1.103-4.413 1.593-5.394 4.166s2.084 8.699 6.252 7.964zm8.091-25.363c1.353-0.178 2.58-0.882 3.417-1.958s1.215-2.439 1.054-3.792c-0.161-1.354-0.849-2.59-1.916-3.44-1.066-0.85-2.424-1.246-3.781-1.102-1.471 0.613-2.819 0.981-3.677 2.083-2.33 3.431 0.367 9.067 4.903 8.209zm-0.858-86.012c0.736-0.3676 0.491-0.7351 0.245-1.4703h-0.858c-0.735 0.6126-0.858 1.7154 0.613 1.4703zm-14.833 136.61c7.845-1.47 7.478-13.6-1.839-13.355-2.697 1.225-4.659 1.96-5.64 5.023-0.98 3.063 2.82 9.312 7.479 8.332z"/>
<path id="a" d="m0 0v-1h-1v1h1zm1773 0h1v-1h-1v1zm0 600v1h1v-1h-1zm-1773 0h-1v1h1v-1zm0-599h1773v-2h-1773v2zm1772-1v600h2v-600h-2zm1 599h-1773v2h1773v-2zm-1772 1v-600h-2v600h2z"/>
</defs>
</svg>
