<svg width="232" height="231" viewBox="0 0 232 231" version="1.1" xmlns="http://www.w3.org/2000/svg" xmlns:xlink="http://www.w3.org/1999/xlink">
<title>sandy</title>
<desc>Created using Figma</desc>
<g id="Canvas" transform="translate(-9889 -4173)">
<g id="sandy">
<g id="Ellipse">
<use xlink:href="#path0_fill" transform="translate(9889 4173)" fill="#FFFFFF"/>
</g>
<g id="Vector">
<use xlink:href="#path1_fill" transform="translate(9951.27 4178.49)" fill="#E0E0E0"/>
<use xlink:href="#path2_stroke" transform="translate(9951.27 4178.49)" fill="#333333"/>
</g>
<g id="Vector">
<use xlink:href="#path3_fill" transform="translate(9963.5 4280.74)" fill="#FFFFFF"/>
<use xlink:href="#path4_stroke" transform="translate(9963.5 4280.74)" fill="#333333"/>
</g>
<g id="Vector">
<use xlink:href="#path5_fill" transform="translate(9968.5 4233.94)" fill="#FFFFFF"/>
<mask id="mask0_outline_ins">
<use xlink:href="#path5_fill" fill="white" transform="translate(9968.5 4233.94)"/>
</mask>
<g mask="url(#mask0_outline_ins)">
<use xlink:href="#path6_stroke_2x" transform="translate(9968.5 4233.94)" fill="#333333"/>
</g>
</g>
<g id="Vector">
<use xlink:href="#path5_fill" transform="translate(9968.5 4233.94)" fill="#FFFFFF"/>
<use xlink:href="#path7_stroke" transform="translate(9968.5 4233.94)" fill="#333333"/>
</g>
<g id="Vector">
<use xlink:href="#path8_fill" transform="translate(10017.2 4274.24)" fill="#FFFFFF"/>
<use xlink:href="#path9_stroke" transform="translate(10017.2 4274.24)" fill="#333333"/>
</g>
<g id="Vector">
<use xlink:href="#path10_fill" transform="translate(9998.5 4260.04)" fill="#FFFFFF"/>
<use xlink:href="#path11_stroke" transform="translate(9998.5 4260.04)" fill="#333333"/>
</g>
<g id="Vector">
<use xlink:href="#path12_stroke" transform="translate(9993.7 4259.84)" fill="#333333"/>
</g>
<g id="Vector">
<use xlink:href="#path13_fill" transform="translate(10037.9 4260.04)" fill="#FFFFFF"/>
<use xlink:href="#path14_stroke" transform="translate(10037.9 4260.04)" fill="#333333"/>
</g>
<g id="Vector">
<use xlink:href="#path15_fill" transform="translate(9987.7 4250.34)" fill="#FFFFFF"/>
<use xlink:href="#path16_stroke" transform="translate(9987.7 4250.34)" fill="#333333"/>
</g>
<g id="Vector">
<use xlink:href="#path17_fill" transform="translate(10028.8 4250.14)" fill="#FFFFFF"/>
<use xlink:href="#path18_stroke" transform="translate(10028.8 4250.14)" fill="#333333"/>
</g>
<g id="Vector">
<use xlink:href="#path19_stroke" transform="translate(10032.9 4259.84)" fill="#333333"/>
</g>
<g id="Group">
<g id="Vector">
<use xlink:href="#path20_fill" transform="translate(10002.6 4299.24)" fill="#E0E0E0"/>
<use xlink:href="#path21_stroke" transform="translate(10002.6 4299.24)" fill="#333333"/>
</g>
<g id="Vector">
<use xlink:href="#path22_fill" transform="translate(10007.5 4299.24)" fill="#E0E0E0"/>
<use xlink:href="#path23_stroke" transform="translate(10007.5 4299.24)" fill="#333333"/>
</g>
</g>
<g id="Vector">
<use xlink:href="#path24_fill" transform="translate(9946.44 4195.95)" fill="#E0E0E0"/>
<use xlink:href="#path25_stroke" transform="translate(9946.44 4195.95)" fill="#333333"/>
</g>
<g id="Group 2">
<g id="Vector">
<use xlink:href="#path26_fill" transform="translate(9945 4361)" fill="#E0E0E0"/>
<use xlink:href="#path27_stroke" transform="translate(9945 4361)" fill="#333333"/>
</g>
<g id="Vector">
<use xlink:href="#path28_fill" transform="translate(10002.8 4361)" fill="#E0E0E0"/>
<use xlink:href="#path29_stroke" transform="translate(10002.8 4361)" fill="#333333"/>
</g>
<g id="Vector">
<use xlink:href="#path30_fill" transform="translate(10021.5 4202.84)" fill="#FFFFFF"/>
<use xlink:href="#path31_stroke" transform="translate(10021.5 4202.84)" fill="#333333"/>
</g>
<g id="Group">
<g id="Vector">
<use xlink:href="#path32_fill" transform="translate(9973.3 4203.34)" fill="#FFFFFF"/>
<use xlink:href="#path33_stroke" transform="translate(9973.3 4203.34)" fill="#333333"/>
</g>
<g id="Vector">
<use xlink:href="#path34_stroke" transform="translate(9951.44 4210.04)" fill="#333333"/>
</g>
<g id="Vector">
<use xlink:href="#path35_stroke" transform="translate(9974.6 4233.94)" fill="#333333"/>
</g>
<g id="Vector">
<use xlink:href="#path36_stroke" transform="translate(10032.5 4233.24)" fill="#333333"/>
</g>
</g>
<g id="Group">
<g id="Vector">
<use xlink:href="#path37_stroke" transform="translate(9956.27 4190.44)" fill="#333333"/>
</g>
<g id="Vector">
<use xlink:href="#path38_stroke" transform="translate(9957.2 4214.04)" fill="#333333"/>
</g>
</g>
</g>
</g>
</g>
<defs>
<path id="path0_fill" d="M 231.045 115.5C 231.045 179.289 179.324 231 115.523 231C 51.7213 231 0 179.289 0 115.5C 0 51.7111 51.7213 0 115.523 0C 179.324 0 231.045 51.7111 231.045 115.5Z"/>
<path id="path1_fill" d="M 54.4303 12.0463C 61.2303 23.3463 57.5303 37.9463 46.2303 44.7463L 36.1303 50.7463C 24.8303 57.5463 10.2303 53.8463 3.43031 42.5463C -0.0696945 36.6463 -6.16969 15.4463 16.9303 4.0463C 38.6303 -6.6537 51.2303 6.6463 54.4303 12.0463Z"/>
<path id="path2_stroke" d="M 54.4303 12.0463L 53.1398 12.811L 53.1451 12.8197L 54.4303 12.0463ZM 46.2303 44.7463L 46.9964 46.0359L 47.0037 46.0315L 46.2303 44.7463ZM 36.1303 50.7463L 35.3642 49.4567L 35.3569 49.4611L 36.1303 50.7463ZM 3.43031 42.5463L 2.1402 43.3116L 2.14507 43.3197L 3.43031 42.5463ZM 16.9303 4.0463L 16.2669 2.70096L 16.2665 2.70118L 16.9303 4.0463ZM 53.1451 12.8197C 59.5139 23.4031 56.0539 37.0841 45.4569 43.4611L 47.0037 46.0315C 59.0068 38.8085 62.9468 23.2895 55.7155 11.2729L 53.1451 12.8197ZM 45.4642 43.4567L 35.3642 49.4567L 36.8964 52.0359L 46.9964 46.0359L 45.4642 43.4567ZM 35.3569 49.4611C 24.7735 55.8299 11.0925 52.3698 4.71554 41.7729L 2.14507 43.3197C 9.36814 55.3228 24.8872 59.2628 36.9037 52.0315L 35.3569 49.4611ZM 4.72039 41.781C 3.11258 39.0707 0.815946 32.6264 1.69391 25.5433C 2.55658 18.5837 6.49513 10.8688 17.5941 5.39141L 16.2665 2.70118C 4.26548 8.62375 -0.295965 17.2089 -1.2833 25.1743C -2.25534 33.0162 0.248028 40.1219 2.14022 43.3116L 4.72039 41.781ZM 17.5937 5.39164C 28.0768 0.222561 36.1952 0.90817 42.0309 3.38922C 47.9403 5.90158 51.6668 10.3251 53.1399 12.811L 55.7207 11.2816C 53.9939 8.36748 49.8203 3.44101 43.2047 0.628375C 36.5154 -2.21558 27.4839 -2.82997 16.2669 2.70096L 17.5937 5.39164Z"/>
<path id="path3_fill" d="M 38.5 107.26L 0 80.2603L 3 80.2603C 10.3 80.2603 16.1008 74.5 16.1008 67.2L 16.1008 0L 64.7008 0L 64.7008 67.2C 64.7008 74.5 70.7008 80.2603 78.0008 80.2603"/>
<path id="path4_stroke" d="M 38.5 107.26L 37.6387 108.488C 38.1503 108.847 38.8306 108.851 39.3465 108.499L 38.5 107.26ZM 0 80.2603L 0 78.7603C -0.654464 78.7603 -1.23338 79.1846 -1.43041 79.8087C -1.62744 80.4328 -1.39709 81.1126 -0.861264 81.4884L 0 80.2603ZM 16.1008 0L 16.1008 -1.5C 15.2724 -1.5 14.6008 -0.828427 14.6008 3.33067e-16L 16.1008 0ZM 64.7008 0L 66.2008 0C 66.2008 -0.828427 65.5292 -1.5 64.7008 -1.5L 64.7008 0ZM 78.0008 80.2603L 78.8472 81.4986C 79.3903 81.1274 79.6281 80.4457 79.4339 79.8173C 79.2396 79.1888 78.6586 78.7603 78.0008 78.7603L 78.0008 80.2603ZM 39.3613 106.032L 0.861264 79.0322L -0.861264 81.4884L 37.6387 108.488L 39.3613 106.032ZM 0 81.7603L 3 81.7603L 3 78.7603L 0 78.7603L 0 81.7603ZM 3 81.7603C 11.1223 81.7603 17.6008 75.3345 17.6008 67.2L 14.6008 67.2C 14.6008 73.6655 9.47766 78.7603 3 78.7603L 3 81.7603ZM 17.6008 67.2L 17.6008 0L 14.6008 0L 14.6008 67.2L 17.6008 67.2ZM 16.1008 1.5L 64.7008 1.5L 64.7008 -1.5L 16.1008 -1.5L 16.1008 1.5ZM 63.2008 0L 63.2008 67.2L 66.2008 67.2L 66.2008 0L 63.2008 0ZM 63.2008 67.2C 63.2008 75.3638 69.9082 81.7603 78.0008 81.7603L 78.0008 78.7603C 71.4934 78.7603 66.2008 73.6362 66.2008 67.2L 63.2008 67.2ZM 39.3465 108.499L 78.8472 81.4986L 77.1543 79.0219L 37.6535 106.022L 39.3465 108.499Z"/>
<path id="path5_fill" d="M 1.52588e-06 2.44141e-05L 1.52588e-06 41.1C 1.52588e-06 63 13.5 97.1 50.3 97.1C 59.9 97.1 79.1 77 79.1 48.3L 79.1 2.44141e-05L 1.52588e-06 2.44141e-05L 1.52588e-06 2.44141e-05Z"/>
<path id="path6_stroke_2x" d="M 79.1 2.44141e-05L 80.1 2.44141e-05L 80.1 -0.999976L 79.1 -0.999976L 79.1 2.44141e-05ZM -0.999998 2.44141e-05L -0.999998 41.1L 1 41.1L 1 2.44141e-05L -0.999998 2.44141e-05ZM -0.999998 41.1C -0.993012 52.168 2.46452 66.4635 10.5339 77.8904C 18.674 89.3861 31.5388 98.1 50.3 98.1L 50.3 96.1C 32.2612 96.1 19.976 87.7639 12.1661 76.7346C 4.28548 65.6364 0.993015 51.932 1 41.1L -0.999998 41.1ZM 50.3 98.1C 53.0113 98.1 56.2219 96.7016 59.4451 94.3146C 62.6591 91.9302 66.072 88.4044 69.1205 84.0341C 75.1815 75.3221 80.0825 62.8363 80.1 48.3L 78.1 48.3C 78.1175 62.4637 73.4184 74.3779 67.4795 82.8909C 64.528 87.1331 61.3409 90.426 58.2549 92.7073C 55.1781 94.9859 52.3887 96.1 50.3 96.1L 50.3 98.1ZM 80.1 48.3L 80.1 2.44141e-05L 78.1 2.44141e-05L 78.1 48.3L 80.1 48.3ZM 79.1 -0.999976L 1.52588e-06 -0.999976L 1.52588e-06 1.00002L 79.1 1.00002L 79.1 -0.999976Z"/>
<path id="path7_stroke" d="M 79.1 2.44141e-05L 80.6 2.44141e-05L 80.6 -1.49998L 79.1 -1.49998L 79.1 2.44141e-05ZM -1.5 2.44141e-05L -1.5 41.1L 1.5 41.1L 1.5 2.44141e-05L -1.5 2.44141e-05ZM -1.5 41.1C -1.48952 52.227 2.00928 66.6703 10.1258 78.1793C 18.3485 89.7917 31.3582 98.6 50.3 98.6L 50.3 95.6C 32.4418 95.6 20.3014 87.3583 12.5742 76.4457C 4.74072 65.4297 1.48952 51.873 1.5 41.1L -1.5 41.1ZM 50.3 98.6C 53.1669 98.6 56.4829 97.1305 59.7427 94.7164C 62.9886 92.3063 66.458 88.7222 69.5308 84.3199C 75.6223 75.5581 80.5737 62.9295 80.6 48.3L 77.6 48.3C 77.6263 62.3705 72.9777 74.1419 67.0692 82.6051C 64.142 86.8153 61.0114 90.05 57.9573 92.3055C 54.9171 94.557 52.2331 95.6 50.3 95.6L 50.3 98.6ZM 80.6 48.3L 80.6 2.44141e-05L 77.6 2.44141e-05L 77.6 48.3L 80.6 48.3ZM 79.1 -1.49998L 1.52588e-06 -1.49998L 1.52588e-06 1.50002L 79.1 1.50002L 79.1 -1.49998Z"/>
<path id="path8_fill" d="M -1.52588e-06 10.4L 6.3 10.4C 9.2 10.4 11.5 8.10002 11.5 5.20002C 11.5 2.30002 9.2 1.2207e-05 6.3 1.2207e-05"/>
<path id="path9_stroke" d="M -1.52588e-06 8.89998C -0.828429 8.89998 -1.5 9.57155 -1.5 10.4C -1.5 11.2284 -0.828429 11.9 -1.52588e-06 11.9L -1.52588e-06 8.89998ZM 6.3 -1.49999C 5.47157 -1.49999 4.8 -0.828415 4.8 1.2207e-05C 4.8 0.828439 5.47157 1.50001 6.3 1.50001L 6.3 -1.49999ZM -1.52588e-06 11.9L 6.3 11.9L 6.3 8.89998L -1.52588e-06 8.89998L -1.52588e-06 11.9ZM 6.3 11.9C 10.0284 11.9 13 8.92847 13 5.20002L 10 5.20002C 10 7.27158 8.37159 8.89998 6.3 8.89998L 6.3 11.9ZM 13 5.20002C 13 1.4716 10.0284 -1.49999 6.3 -1.49999L 6.3 1.50001C 8.37157 1.50001 10 3.12845 10 5.20002L 13 5.20002Z"/>
<path id="path10_fill" d="M 5.4 2.70001C 5.4 4.20001 4.2 5.40002 2.7 5.40002C 1.2 5.40002 1.52588e-06 4.20001 1.52588e-06 2.70001C 1.52588e-06 1.20001 1.2 0 2.7 0C 4.2 0 5.4 1.20001 5.4 2.70001Z"/>
<path id="path11_stroke" d="M 3.9 2.70001C 3.9 3.37159 3.37157 3.90002 2.7 3.90002L 2.7 6.90002C 5.02843 6.90002 6.9 5.02843 6.9 2.70001L 3.9 2.70001ZM 2.7 3.90002C 2.02844 3.90002 1.5 3.3716 1.5 2.70001L -1.5 2.70001C -1.5 5.02843 0.37156 6.90002 2.7 6.90002L 2.7 3.90002ZM 1.5 2.70001C 1.5 2.02843 2.02844 1.5 2.7 1.5L 2.7 -1.5C 0.37156 -1.5 -1.5 0.371596 -1.5 2.70001L 1.5 2.70001ZM 2.7 1.5C 3.37157 1.5 3.9 2.02843 3.9 2.70001L 6.9 2.70001C 6.9 0.371591 5.02843 -1.5 2.7 -1.5L 2.7 1.5Z"/>
<path id="path12_stroke" d="M -1.52588e-06 -1.50001C -0.828429 -1.50001 -1.5 -0.828439 -1.5 -1.2207e-05C -1.5 0.828415 -0.828429 1.49999 -1.52588e-06 1.49999L -1.52588e-06 -1.50001ZM 16.9 1.49999C 17.7284 1.49999 18.4 0.828415 18.4 -1.2207e-05C 18.4 -0.828439 17.7284 -1.50001 16.9 -1.50001L 16.9 1.49999ZM -1.52588e-06 1.49999L 16.9 1.49999L 16.9 -1.50001L -1.52588e-06 -1.50001L -1.52588e-06 1.49999Z"/>
<path id="path13_fill" d="M 5.4 2.70001C 5.4 4.20001 4.2 5.40002 2.7 5.40002C 1.2 5.40002 3.05176e-06 4.20001 3.05176e-06 2.70001C 3.05176e-06 1.20001 1.2 0 2.7 0C 4.1 0 5.4 1.20001 5.4 2.70001Z"/>
<path id="path14_stroke" d="M 3.9 2.70001C 3.9 3.3716 3.37156 3.90002 2.7 3.90002L 2.7 6.90002C 5.02844 6.90002 6.9 5.02843 6.9 2.70001L 3.9 2.70001ZM 2.7 3.90002C 2.02844 3.90002 1.5 3.3716 1.5 2.70001L -1.5 2.70001C -1.5 5.02843 0.371562 6.90002 2.7 6.90002L 2.7 3.90002ZM 1.5 2.70001C 1.5 2.02843 2.02844 1.5 2.7 1.5L 2.7 -1.5C 0.371562 -1.5 -1.5 0.371596 -1.5 2.70001L 1.5 2.70001ZM 2.7 1.5C 3.30759 1.5 3.9 2.064 3.9 2.70001L 6.9 2.70001C 6.9 0.336023 4.89241 -1.5 2.7 -1.5L 2.7 1.5Z"/>
<path id="path15_fill" d="M 24 4.2C 24 4.2 19.2 -1.2207e-05 12 -1.2207e-05C 4.7 -1.2207e-05 -1.52588e-06 4.2 -1.52588e-06 4.2"/>
<path id="path16_stroke" d="M 23.0122 5.32886C 23.6357 5.87439 24.5833 5.81121 25.1289 5.18776C 25.6744 4.5643 25.6112 3.61666 24.9878 3.07114L 23.0122 5.32886ZM -0.9995 3.08152C -1.61722 3.63352 -1.67049 4.58178 -1.11848 5.1995C -0.566477 5.81722 0.381776 5.87049 0.999497 5.31848L -0.9995 3.08152ZM 24 4.2C 24.9878 3.07114 24.9873 3.07076 24.9869 3.07037C 24.9867 3.07022 24.9862 3.06981 24.9859 3.06951C 24.9855 3.06914 24.9844 3.06823 24.9836 3.06749C 24.9824 3.0665 24.9799 3.0643 24.9776 3.06232C 24.9742 3.05934 24.9673 3.0534 24.9603 3.04748C 24.9487 3.03757 24.9278 3.01984 24.9046 3.0005C 24.8628 2.9657 24.7927 2.9083 24.7098 2.84269C 24.5536 2.71935 24.3032 2.52909 23.9977 2.3149C 23.408 1.90253 22.489 1.3197 21.3708 0.758354C 19.1843 -0.331506 15.8513 -1.47881 12 -1.50001L 12 1.49999C 15.3487 1.47878 18.0156 2.43149 20.0292 3.44163C 21.0109 3.93029 21.742 4.39747 22.2773 4.77259C 22.5343 4.95216 22.7152 5.09003 22.8496 5.19637C 22.912 5.24561 22.952 5.27844 22.9841 5.30516C 22.9978 5.31658 23.0047 5.32244 23.0117 5.32842C 23.014 5.33045 23.0142 5.33054 23.0154 5.33159C 23.0154 5.33163 23.0147 5.331 23.0147 5.33097C 23.0149 5.3312 23.0135 5.33 23.0137 5.33011C 23.0135 5.32993 23.0131 5.32962 23.013 5.32953C 23.0126 5.32921 23.0122 5.32886 24 4.2ZM 12 -1.50001C 8.09868 -1.47881 4.76399 -0.330806 2.58847 0.759962C 1.47476 1.32251 0.562837 1.90745 -0.0198342 2.32059C -0.322097 2.53555 -0.570006 2.72699 -0.723951 2.85073C -0.805896 2.91672 -0.875453 2.97472 -0.916664 3.00971C -0.939636 3.02925 -0.960503 3.04727 -0.97199 3.05728C -0.978886 3.0633 -0.985802 3.06938 -0.989243 3.07241C -0.991533 3.07444 -0.994107 3.07672 -0.995249 3.07773C -0.996103 3.07849 -0.997168 3.07944 -0.997594 3.07982C -0.997948 3.08013 -0.998425 3.08056 -0.998602 3.08072C -0.99906 3.08112 -0.9995 3.08152 -1.52588e-06 4.2C 0.999497 5.31848 0.999093 5.31884 0.998706 5.31919C 0.998601 5.31928 0.998232 5.31961 0.998021 5.3198C 0.99816 5.31968 0.996684 5.32099 0.996965 5.32074C 0.996962 5.32074 0.996106 5.3215 0.996109 5.3215C 0.994976 5.3225 0.997178 5.32055 0.999397 5.31862C 1.00614 5.31273 1.01256 5.30718 1.02579 5.29595C 1.05699 5.26942 1.09554 5.23718 1.15637 5.18833C 1.28797 5.08239 1.46428 4.9457 1.71671 4.7669C 2.24341 4.39254 2.96274 3.92748 3.93653 3.44003C 5.936 2.43079 8.60131 1.47878 12 1.49999L 12 -1.50001Z"/>
<path id="path17_fill" d="M 18.9 4.60001L 18.9 2.10001C 17 1.00001 14.3 -2.44141e-05 11.1 -2.44141e-05C 4.4 -2.44141e-05 -3.05176e-06 4.60001 -3.05176e-06 4.60001"/>
<path id="path18_stroke" d="M 17.4 4.60001C 17.4 5.42844 18.0716 6.10001 18.9 6.10001C 19.7284 6.10001 20.4 5.42844 20.4 4.60001L 17.4 4.60001ZM 18.9 2.10001L 20.4 2.10001C 20.4 1.56476 20.1148 1.07006 19.6516 0.801873L 18.9 2.10001ZM -1.08397 3.56318C -1.65659 4.16184 -1.63549 5.11135 -1.03683 5.68398C -0.438176 6.2566 0.511337 6.2355 1.08396 5.63684L -1.08397 3.56318ZM 20.4 4.60001L 20.4 2.10001L 17.4 2.10001L 17.4 4.60001L 20.4 4.60001ZM 19.6516 0.801873C 17.6386 -0.357271 14.5646 -1.47649 11.1 -1.50002L 11.1 1.49998C 14.0354 1.47645 16.3614 2.3573 18.1485 3.39815L 19.6516 0.801873ZM 11.1 -1.50002C 7.45724 -1.47118 4.30335 -0.191239 2.27188 1.0101C 1.23186 1.63016 0.376052 2.27573 -0.168437 2.72921C -0.450896 2.96517 -0.682987 3.17539 -0.826901 3.311C -0.90346 3.38327 -0.968429 3.44673 -1.00693 3.48502C -1.02836 3.50635 -1.04778 3.52599 -1.05849 3.53692C -1.0649 3.54347 -1.07131 3.55006 -1.07451 3.55336C -1.07663 3.55555 -1.07901 3.55801 -1.08006 3.55911C -1.08085 3.55993 -1.08183 3.56095 -1.08222 3.56136C -1.08255 3.5617 -1.08299 3.56215 -1.08315 3.56232C -1.08357 3.56276 -1.08397 3.56318 -3.05176e-06 4.60001C 1.08396 5.63684 1.08359 5.63723 1.08324 5.6376C 1.08315 5.6377 1.08281 5.63805 1.08262 5.63825C 1.08274 5.63812 1.08142 5.6395 1.08167 5.63924C 1.08165 5.63925 1.08092 5.64002 1.08094 5.64C 1.08202 5.63888 1.08202 5.63887 1.08414 5.63671C 1.09049 5.63023 1.09659 5.62404 1.10902 5.61169C 1.13825 5.58259 1.17435 5.54722 1.23119 5.49371C 1.35408 5.37775 1.51808 5.2286 1.75281 5.0333C 2.2427 4.62427 2.90563 4.11984 3.80312 3.58989C 5.64666 2.49121 8.04277 1.47113 11.1 1.49998L 11.1 -1.50002Z"/>
<path id="path19_stroke" d="M 3.05176e-06 -1.50001C -0.828424 -1.50001 -1.5 -0.828439 -1.5 -1.2207e-05C -1.5 0.828415 -0.828424 1.49999 3.05176e-06 1.49999L 3.05176e-06 -1.50001ZM 14.8 1.49999C 15.6284 1.49999 16.3 0.828415 16.3 -1.2207e-05C 16.3 -0.828439 15.6284 -1.50001 14.8 -1.50001L 14.8 1.49999ZM 3.05176e-06 1.49999L 14.8 1.49999L 14.8 -1.50001L 3.05176e-06 -1.50001L 3.05176e-06 1.49999Z"/>
<path id="path20_fill" d="M 0 1.2207e-05L 15.9 1.2207e-05L 30.8 1.2207e-05"/>
<path id="path21_stroke" d="M 0 -1.49999C -0.828427 -1.49999 -1.5 -0.828415 -1.5 1.2207e-05C -1.5 0.828439 -0.828427 1.50001 0 1.50001L 0 -1.49999ZM 30.8 1.50001C 31.6284 1.50001 32.3 0.828439 32.3 1.2207e-05C 32.3 -0.828415 31.6284 -1.49999 30.8 -1.49999L 30.8 1.50001ZM 0 1.50001L 15.9 1.50001L 15.9 -1.49999L 0 -1.49999L 0 1.50001ZM 15.9 1.50001L 30.8 1.50001L 30.8 -1.49999L 15.9 -1.49999L 15.9 1.50001Z"/>
<path id="path22_fill" d="M 1.52588e-06 1.2207e-05L 22 1.2207e-05C 22 1.2207e-05 19.7 7.59999 12.6 7.59999C 5.5 7.49999 1.52588e-06 1.2207e-05 1.52588e-06 1.2207e-05Z"/>
<path id="path23_stroke" d="M 1.52588e-06 1.2207e-05L 1.52588e-06 -1.49999C -0.565253 -1.49999 -1.08251 -1.18222 -1.33801 -0.67801C -1.59352 -0.173797 -1.54388 0.431236 -1.2096 0.887059L 1.52588e-06 1.2207e-05ZM 22 1.2207e-05L 23.4357 0.434501C 23.5732 -0.0199411 23.4875 -0.512663 23.2045 -0.893931C 22.9216 -1.2752 22.4748 -1.49999 22 -1.49999L 22 1.2207e-05ZM 12.6 7.59999L 12.5789 9.09984C 12.5859 9.09994 12.593 9.09999 12.6 9.09999L 12.6 7.59999ZM 1.52588e-06 1.50001L 22 1.50001L 22 -1.49999L 1.52588e-06 -1.49999L 1.52588e-06 1.50001ZM 22 1.2207e-05C 20.5643 -0.434476 20.5645 -0.435048 20.5646 -0.435591C 20.5647 -0.435734 20.5648 -0.43625 20.5649 -0.436537C 20.5649 -0.436365 20.5655 -0.43827 20.5654 -0.437922C 20.5654 -0.43803 20.5657 -0.438882 20.5656 -0.438689C 20.565 -0.436684 20.5648 -0.43622 20.5636 -0.432367C 20.5601 -0.421384 20.5566 -0.410412 20.5496 -0.389541C 20.5335 -0.341095 20.5131 -0.281887 20.4802 -0.19315C 20.4096 -0.00168223 20.3134 0.242394 20.1661 0.562524C 19.8597 1.23278 19.4342 2.03539 18.7739 2.88505C 17.4883 4.55518 15.5333 6.09999 12.6 6.09999L 12.6 9.09999C 16.7667 9.09999 19.5117 6.8448 21.1511 4.71495C 21.9533 3.66462 22.5466 2.56723 22.8933 1.81249C 23.0725 1.42013 23.2115 1.07045 23.2944 0.846298C 23.3383 0.727223 23.3743 0.62315 23.3953 0.560268C 23.4069 0.525475 23.4171 0.493771 23.4228 0.475995C 23.4261 0.465468 23.4294 0.455031 23.431 0.44973C 23.4321 0.44627 23.4333 0.442447 23.4338 0.440715C 23.4342 0.439446 23.4347 0.437889 23.4349 0.437255C 23.435 0.436737 23.4352 0.436048 23.4353 0.435789C 23.4355 0.43513 23.4357 0.434501 22 1.2207e-05ZM 12.6211 6.10014C 9.57783 6.05727 6.75717 4.41164 4.5984 2.61069C 3.52737 1.71998 2.69681 0.85826 2.09129 0.176744C 1.79569 -0.155345 1.57808 -0.418816 1.42139 -0.614708C 1.34625 -0.708541 1.29389 -0.776075 1.25513 -0.826794C 1.23725 -0.850164 1.226 -0.865095 1.21689 -0.877273C 1.21306 -0.882385 1.21128 -0.884794 1.20933 -0.887416C 1.20872 -0.888243 1.20817 -0.888985 1.20849 -0.888562C 1.20846 -0.888592 1.20881 -0.888122 1.2088 -0.888136C 1.20889 -0.888009 1.2091 -0.887733 1.20914 -0.88767C 1.20936 -0.887367 1.20961 -0.887035 1.52588e-06 1.2207e-05C -1.2096 0.887059 -1.20932 0.887448 -1.20901 0.887866C -1.20888 0.888043 -1.20855 0.88849 -1.20829 0.888845C -1.20795 0.889314 -1.20716 0.890381 -1.20647 0.891319C -1.20544 0.892713 -1.20336 0.895534 -1.2013 0.898313C -1.1979 0.902901 -1.1917 0.911251 -1.1849 0.920333C -1.17277 0.936542 -1.15226 0.963738 -1.12812 0.995324C -1.08286 1.05452 -1.01012 1.14821 -0.920996 1.25965C -0.74917 1.47431 -0.481628 1.79755 -0.150661 2.17015C 0.496939 2.898 1.48513 3.91753 2.6766 4.91431C 5.04283 6.88835 8.52217 9.0427 12.5789 9.09984L 12.6211 6.10014Z"/>
<path id="path24_fill" d="M 60.558 0.789775C 40.358 -1.91022 25.558 2.18979 13.858 14.9898C 4.35797 25.3898 0.457973 39.4898 0.057973 53.2898C -0.642027 75.8898 5.05797 88.6898 13.858 99.4898C 26.358 114.79 32.658 110.99 32.658 110.99L 32.658 104.09L 32.658 60.1897C 32.658 53.7897 37.858 48.6897 44.158 48.6897L 69.358 48.6897C 75.558 48.6897 80.658 43.6898 80.858 37.4898L 81.158 37.4898C 81.358 43.6898 86.458 48.5898 92.658 48.5898L 101.258 48.5898L 101.258 92.5898C 101.258 92.5898 120.958 62.3897 108.958 31.6897C 97.958 3.58974 75.258 6.88975 75.258 6.88975C 75.258 6.88975 69.158 1.88978 60.558 0.789775Z"/>
<path id="path25_stroke" d="M 60.558 0.789775L 60.3592 2.27658L 60.3677 2.27765L 60.558 0.789775ZM 13.858 14.9898L 12.7508 13.9778L 12.7505 13.9781L 13.858 14.9898ZM 0.057973 53.2898L 1.55726 53.3362L 1.55734 53.3332L 0.057973 53.2898ZM 13.858 99.4898L 12.6951 100.437L 12.6964 100.439L 13.858 99.4898ZM 32.658 110.99L 33.4327 112.274C 33.8828 112.003 34.158 111.515 34.158 110.99L 32.658 110.99ZM 80.858 37.4898L 80.858 35.9898C 80.0484 35.9898 79.3849 36.6322 79.3588 37.4414L 80.858 37.4898ZM 81.158 37.4898L 82.6572 37.4414C 82.6311 36.6322 81.9676 35.9898 81.158 35.9898L 81.158 37.4898ZM 101.258 48.5898L 102.758 48.5898C 102.758 47.7613 102.086 47.0898 101.258 47.0898L 101.258 48.5898ZM 101.258 92.5898L 99.758 92.5898C 99.758 93.2535 100.194 93.8384 100.83 94.0276C 101.467 94.2167 102.152 93.9652 102.514 93.4093L 101.258 92.5898ZM 108.958 31.6897L 110.355 31.1437L 110.355 31.143L 108.958 31.6897ZM 75.258 6.88975L 74.3071 8.04984C 74.6331 8.31709 75.0566 8.4348 75.4738 8.37415L 75.258 6.88975ZM 60.7567 -0.697002C 40.2105 -3.44328 24.8675 0.721909 12.7508 13.9778L 14.9651 16.0018C 26.2485 3.65767 40.5055 -0.377167 60.3592 2.27655L 60.7567 -0.697002ZM 12.7505 13.9781C 2.93017 24.7288 -1.03491 39.2224 -1.4414 53.2463L 1.55734 53.3332C 1.95085 39.7572 5.78578 26.0508 14.9655 16.0014L 12.7505 13.9781ZM -1.44131 53.2433C -2.15201 76.1889 3.6574 89.3455 12.6951 100.437L 15.0208 98.5423C 6.45855 88.034 0.867958 75.5906 1.55725 53.3362L -1.44131 53.2433ZM 12.6964 100.439C 19.0451 108.21 23.9754 111.328 27.5055 112.411C 29.2811 112.956 30.685 112.979 31.6995 112.828C 32.1987 112.75 32.6466 112.618 32.8912 112.527C 33.0346 112.472 33.1739 112.41 33.244 112.376C 33.2887 112.354 33.3369 112.328 33.3589 112.316C 33.3745 112.308 33.3932 112.297 33.4009 112.293C 33.407 112.289 33.4151 112.285 33.4181 112.283C 33.4207 112.281 33.4244 112.279 33.4257 112.278C 33.4269 112.278 33.4287 112.277 33.4293 112.276C 33.431 112.275 33.4327 112.274 32.658 110.99C 31.8832 109.705 31.8849 109.704 31.8865 109.703C 31.887 109.703 31.8886 109.702 31.8896 109.702C 31.8887 109.702 31.8974 109.697 31.8955 109.698C 31.894 109.699 31.9089 109.69 31.9058 109.692C 31.9042 109.693 31.9235 109.682 31.9202 109.684C 31.9228 109.682 31.9288 109.68 31.9243 109.682C 31.8961 109.696 31.8878 109.7 31.8345 109.719C 31.6858 109.776 31.5439 109.822 31.2571 109.861C 30.6997 109.944 29.7474 109.961 28.3854 109.543C 25.6406 108.701 21.1709 106.07 15.0196 98.5408L 12.6964 100.439ZM 34.158 110.99L 34.158 104.09L 31.158 104.09L 31.158 110.99L 34.158 110.99ZM 34.158 104.09L 34.158 60.1897L 31.158 60.1897L 31.158 104.09L 34.158 104.09ZM 34.158 60.1897C 34.158 54.6266 38.6779 50.1897 44.158 50.1897L 44.158 47.1897C 37.0381 47.1897 31.158 52.9528 31.158 60.1897L 34.158 60.1897ZM 44.158 50.1897L 69.358 50.1897L 69.358 47.1897L 44.158 47.1897L 44.158 50.1897ZM 69.358 50.1897C 76.3785 50.1897 82.1314 44.5364 82.3572 37.5381L 79.3588 37.4414C 79.1845 42.8432 74.7375 47.1897 69.358 47.1897L 69.358 50.1897ZM 80.858 38.9898L 81.158 38.9898L 81.158 35.9898L 80.858 35.9898L 80.858 38.9898ZM 79.6588 37.5381C 79.8851 44.5537 85.6547 50.0898 92.658 50.0898L 92.658 47.0898C 87.2612 47.0898 82.8309 42.8259 82.6572 37.4414L 79.6588 37.5381ZM 92.658 50.0898L 101.258 50.0898L 101.258 47.0898L 92.658 47.0898L 92.658 50.0898ZM 99.758 48.5898L 99.758 92.5898L 102.758 92.5898L 102.758 48.5898L 99.758 48.5898ZM 101.258 92.5898C 102.514 93.4093 102.515 93.4087 102.515 93.408C 102.515 93.4076 102.516 93.4068 102.516 93.4061C 102.517 93.4048 102.519 93.4025 102.52 93.4001C 102.523 93.3958 102.528 93.3884 102.533 93.3799C 102.544 93.364 102.56 93.3383 102.58 93.3067C 102.619 93.246 102.678 93.1515 102.752 93.0318C 102.897 92.7976 103.113 92.441 103.378 91.9864C 103.9 91.088 104.645 89.7475 105.49 88.0634C 107.165 84.7192 109.303 79.8656 111.044 74.0843C 114.5 62.5759 116.447 46.8551 110.355 31.1437L 107.561 32.2358C 113.469 47.2244 111.566 61.9536 108.172 73.2202C 106.488 78.8264 104.451 83.4416 102.808 86.7192C 101.993 88.3461 101.292 89.6048 100.784 90.4779C 100.534 90.9091 100.338 91.2313 100.2 91.4544C 100.133 91.5634 100.083 91.6422 100.048 91.6977C 100.031 91.7242 100.02 91.7422 100.011 91.7556C 100.007 91.7617 100.005 91.7653 100.003 91.7684C 100.002 91.7696 100.002 91.7701 100.001 91.7707C 100.001 91.7708 100.001 91.7707 100.001 91.7708C 100.001 91.7706 100.002 91.7702 101.258 92.5898ZM 110.355 31.143C 104.701 16.6991 95.9624 10.1887 88.5173 7.35063C 84.836 5.95691 81.4277 5.45049 79.0612 5.31557C 77.8535 5.24858 76.8404 5.26856 76.1724 5.3051C 75.8274 5.32429 75.5429 5.34894 75.3627 5.36736C 75.2673 5.37717 75.1868 5.38659 75.1382 5.39262C 75.1114 5.39597 75.0873 5.39913 75.0737 5.40096C 75.0657 5.40204 75.0578 5.40314 75.0538 5.4037C 75.0512 5.40407 75.0483 5.40448 75.0469 5.40467C 75.046 5.40481 75.0448 5.40498 75.0443 5.40505C 75.0432 5.40521 75.0422 5.40535 75.258 6.88975C 75.4738 8.37415 75.4729 8.37427 75.4722 8.37438C 75.472 8.3744 75.4714 8.3745 75.4711 8.37454C 75.471 8.37455 75.4703 8.37465 75.4704 8.37463C 75.4719 8.37442 75.4723 8.37437 75.4752 8.37398C 75.4836 8.37284 75.4922 8.3717 75.5087 8.36966C 75.5467 8.36492 75.5949 8.35924 75.6685 8.35174C 75.8261 8.33554 76.0401 8.31674 76.3373 8.30057C 76.9537 8.26641 77.7999 8.2481 78.8923 8.31081C 81.1257 8.43525 84.0799 8.86008 87.4487 10.1539C 94.1036 12.6907 102.215 18.5804 107.561 32.2365L 110.355 31.143ZM 75.258 6.88975C 76.2089 5.72966 76.2085 5.72937 76.2081 5.72906C 76.208 5.72893 76.2076 5.7286 76.2073 5.72835C 76.2069 5.72801 76.2059 5.72724 76.2051 5.72658C 76.2039 5.72561 76.2014 5.72361 76.1991 5.72167C 76.1952 5.71854 76.188 5.71274 76.1803 5.70652C 76.1667 5.69554 76.1434 5.67695 76.1162 5.65552C 76.0656 5.61558 75.9839 5.55205 75.8839 5.47643C 75.6918 5.33114 75.3927 5.11171 75.0207 4.85557C 74.2935 4.35545 73.1907 3.65145 71.8392 2.92891C 69.1743 1.50878 65.244 -0.109702 60.7483 -0.698103L 60.3677 2.27765C 64.472 2.78925 67.8917 4.22076 70.4268 5.57562C 71.6753 6.24057 72.635 6.85531 73.3202 7.32706C 73.6545 7.55686 73.8992 7.73664 74.0742 7.86909C 74.1579 7.93233 74.2156 7.9773 74.2585 8.01114C 74.2781 8.0266 74.2902 8.03622 74.3001 8.04423C 74.3042 8.04751 74.3059 8.0489 74.308 8.05057C 74.3086 8.05105 74.3089 8.05135 74.3086 8.0511C 74.3087 8.05116 74.3081 8.05067 74.3081 8.0507C 74.308 8.05059 74.3077 8.05038 74.3077 8.05033C 74.3074 8.05009 74.3071 8.04984 75.258 6.88975Z"/>
<path id="path26_fill" d="M 18.5 0L 0 0C 0 0 14.6996 29.9396 34.0996 35.8396C 52.6996 41.5396 56.8996 27.0396 56.8996 27.0396L 50.6996 22.6396L 18.5 0Z"/>
<path id="path27_stroke" d="M 18.5 0L 19.3627 -1.22706L 18.9745 -1.5L 18.5 -1.5L 18.5 0ZM 0 0L 0 -1.5L -2.4075 -1.5L -1.34647 0.661081L 0 0ZM 34.0996 35.8396L 34.5391 34.4055L 34.5361 34.4045L 34.0996 35.8396ZM 56.8996 27.0396L 58.3404 27.457L 58.6369 26.4332L 57.7677 25.8164L 56.8996 27.0396ZM 50.6996 22.6396L 51.5677 21.4164L 51.5624 21.4126L 50.6996 22.6396ZM 18.5 -1.5L 0 -1.5L 0 1.5L 18.5 1.5L 18.5 -1.5ZM 0 0C -1.34647 0.661081 -1.34627 0.661488 -1.34601 0.662008C -1.34585 0.662334 -1.34554 0.662969 -1.34522 0.66362C -1.34467 0.664726 -1.34371 0.66668 -1.34262 0.668887C -1.34064 0.672911 -1.33737 0.67953 -1.33341 0.68753C -1.32587 0.702744 -1.31398 0.726679 -1.29897 0.756712C -1.26974 0.815186 -1.22476 0.904619 -1.16685 1.01835C -1.05267 1.24255 -0.879709 1.57784 -0.655954 2.00023C -0.211949 2.83823 0.451884 4.05598 1.30235 5.52276C 2.99543 8.4419 5.48471 12.4399 8.57012 16.601C 14.6992 24.8628 23.4702 34.1748 33.6632 37.2747L 34.5361 34.4045C 25.329 31.6045 17.0502 22.9967 10.9795 14.8136C 7.965 10.7523 5.56687 6.89667 3.89753 4.01775C 3.06678 2.5855 2.43064 1.41812 1.99498 0.595758C 1.7789 0.187959 1.61711 -0.125749 1.50649 -0.342994C 1.452 -0.449991 1.41207 -0.529396 1.38449 -0.584579C 1.37109 -0.611375 1.36161 -0.630472 1.35486 -0.644085C 1.35169 -0.650498 1.34959 -0.65474 1.348 -0.657974C 1.3473 -0.659396 1.34691 -0.660171 1.34656 -0.660885C 1.34644 -0.661145 1.34641 -0.661193 1.34635 -0.661324C 1.34638 -0.661259 1.34647 -0.661081 0 0ZM 33.6601 37.2738C 43.3995 40.2585 49.6486 37.9972 53.4546 34.7128C 55.2829 33.1178 56.5514 31.2636 57.2733 29.9276C 57.6441 29.2365 57.9178 28.6101 58.0792 28.1994C 58.1637 27.9833 58.2303 27.7958 58.2694 27.6799C 58.2906 27.6169 58.3086 27.5607 58.3188 27.5283C 58.3246 27.5096 58.3301 27.4916 58.3329 27.4822C 58.3347 27.4762 58.3366 27.4699 58.3375 27.4669C 58.3381 27.4648 58.3388 27.4623 58.3391 27.4613C 58.3394 27.4604 58.3397 27.4594 58.3398 27.459C 58.3401 27.4579 58.3404 27.457 56.8996 27.0396C 55.4588 26.6223 55.4591 26.6215 55.4593 26.6207C 55.4594 26.6205 55.4596 26.6197 55.4597 26.6193C 55.4597 26.6195 55.4603 26.6173 55.4602 26.6177C 55.4604 26.6171 55.4604 26.6171 55.4601 26.6181C 55.4587 26.6225 55.4579 26.6253 55.4552 26.6339C 55.4483 26.656 55.4405 26.6805 55.4264 26.7223C 55.3949 26.816 55.3531 26.9344 55.2864 27.1038C 55.1455 27.4637 54.9457 27.9256 54.6322 28.5048C 53.9854 29.7094 53.0413 31.124 51.4946 32.4415C 48.5507 34.9821 43.3997 37.1208 34.5391 34.4055L 33.6601 37.2738ZM 57.7677 25.8164L 51.5677 21.4164L 49.8315 23.8629L 56.0315 28.2629L 57.7677 25.8164ZM 51.5624 21.4126L 19.3627 -1.22706L 17.6373 1.22706L 49.8369 23.8667L 51.5624 21.4126Z"/>
<path id="path28_fill" d="M 38.2002 0L 56.7002 0C 56.7002 0 42.2 29.9396 22.8 35.8396C 4.2 41.5396 0 27.0396 0 27.0396L 6.2 22.6396L 38.2002 0Z"/>
<path id="path29_stroke" d="M 38.2002 0L 38.2002 -1.5L 37.7232 -1.5L 37.3339 -1.22453L 38.2002 0ZM 56.7002 0L 58.0502 0.653826L 59.0933 -1.5L 56.7002 -1.5L 56.7002 0ZM 22.8 35.8396L 22.3636 34.4045L 22.3605 34.4055L 22.8 35.8396ZM 0 27.0396L -0.868123 25.8164L -1.73731 26.4332L -1.44078 27.457L 0 27.0396ZM 6.2 22.6396L 5.33367 21.4151L 5.33188 21.4164L 6.2 22.6396ZM 38.2002 1.5L 56.7002 1.5L 56.7002 -1.5L 38.2002 -1.5L 38.2002 1.5ZM 56.7002 0C 55.3502 -0.653826 55.3503 -0.654007 55.3503 -0.654075C 55.3502 -0.653946 55.3502 -0.6539 55.3501 -0.653642C 55.3498 -0.65293 55.3494 -0.652161 55.3487 -0.650744C 55.3471 -0.647513 55.3451 -0.643284 55.3419 -0.636879C 55.3353 -0.623274 55.3259 -0.604202 55.3127 -0.577423C 55.2855 -0.522257 55.2461 -0.442904 55.1924 -0.335943C 55.0832 -0.118734 54.9235 0.194861 54.7102 0.602583C 54.28 1.42487 53.6516 2.59198 52.8302 4.02404C 51.1796 6.90274 48.8064 10.7576 45.8169 14.8183C 39.7966 23.0003 31.5679 31.6053 22.3636 34.4045L 23.2365 37.2747C 33.4321 34.174 42.1535 24.8592 48.2333 16.5963C 51.2938 12.4347 53.7582 8.43583 55.4326 5.51647C 56.2737 4.04951 56.9298 2.83149 57.3683 1.9934C 57.5893 1.57094 57.7601 1.23554 57.8729 1.0113C 57.93 0.897532 57.9744 0.808047 58.0033 0.749556C 58.0181 0.719507 58.0299 0.695546 58.0373 0.680324C 58.0412 0.672316 58.0444 0.665684 58.0464 0.661656C 58.0475 0.659445 58.0484 0.657486 58.049 0.656377C 58.0493 0.655724 58.0496 0.655086 58.0497 0.654759C 58.05 0.654236 58.0502 0.653826 56.7002 0ZM 22.3605 34.4055C 13.4999 37.1208 8.34895 34.9821 5.40499 32.4415C 3.85833 31.124 2.91426 29.7094 2.26743 28.5048C 1.95389 27.9256 1.75414 27.4637 1.61319 27.1038C 1.54655 26.9344 1.50476 26.816 1.47324 26.7223C 1.45912 26.6805 1.4513 26.656 1.44441 26.6339C 1.44172 26.6253 1.44088 26.6225 1.43955 26.6181C 1.43925 26.6171 1.43926 26.6171 1.43941 26.6177C 1.43931 26.6173 1.43996 26.6195 1.43991 26.6193C 1.44002 26.6197 1.44024 26.6205 1.4403 26.6207C 1.44053 26.6215 1.44078 26.6223 0 27.0396C -1.44078 27.457 -1.4405 27.4579 -1.4402 27.459C -1.44008 27.4594 -1.43977 27.4604 -1.43952 27.4613C -1.43922 27.4623 -1.43849 27.4648 -1.43787 27.4669C -1.43699 27.4699 -1.4351 27.4762 -1.43332 27.4822C -1.43047 27.4916 -1.42501 27.5096 -1.41918 27.5283C -1.40903 27.5607 -1.39101 27.6169 -1.36982 27.6799C -1.33074 27.7958 -1.26412 27.9833 -1.1796 28.1994C -1.0182 28.6101 -0.744512 29.2365 -0.373674 29.9276C 0.348246 31.2636 1.61667 33.1178 3.44501 34.7128C 7.25106 37.9972 13.5001 40.2585 23.2395 37.2738L 22.3605 34.4055ZM 0.868123 28.2629L 7.06813 23.8629L 5.33188 21.4164L -0.868123 25.8164L 0.868123 28.2629ZM 7.06634 23.8642L 39.0665 1.22453L 37.3339 -1.22453L 5.33367 21.4151L 7.06634 23.8642Z"/>
<path id="path30_fill" d="M 1.52588e-06 -1.2207e-05C 2.8 -1.2207e-05 5.8 19.4 5.8 30.6Z"/>
<path id="path31_stroke" d="M 1.52588e-06 -1.50001C -0.828426 -1.50001 -1.5 -0.828439 -1.5 -1.2207e-05C -1.5 0.828415 -0.828426 1.49999 1.52588e-06 1.49999L 1.52588e-06 -1.50001ZM 4.3 30.6C 4.3 31.4285 4.97157 32.1 5.8 32.1C 6.62842 32.1 7.3 31.4285 7.3 30.6L 4.3 30.6ZM 1.52588e-06 1.49999C -0.134403 1.49999 -0.244406 1.46995 -0.320205 1.43797C -0.298709 1.45232 -0.415802 1.39174 -0.427246 1.37828C -0.495553 1.33111 -0.337103 1.45861 -0.213914 1.65833C 0.0772408 2.10925 0.35012 2.74819 0.666718 3.68726C 1.31932 5.60895 1.9299 8.27303 2.4727 11.36C 3.56384 17.5533 4.30179 25.0733 4.3 30.6L 7.3 30.6C 7.29821 24.9268 6.53615 17.1467 5.42729 10.84C 4.8701 7.67698 4.20568 4.79105 3.50828 2.72523C 3.14988 1.67054 2.72901 0.706356 2.32017 0.0525829C 2.09336 -0.300042 1.76363 -0.694617 1.48037 -0.937096C 1.13259 -1.22363 0.630439 -1.50001 1.52588e-06 -1.50001L 1.52588e-06 1.49999Z"/>
<path id="path32_fill" d="M 7.62939e-07 3.29998C 2.2 1.99998 4.6 0.899988 7 -1.2207e-05Z"/>
<path id="path33_stroke" d="M -0.635911 2.22382C -1.23026 2.57502 -1.42736 3.34154 -1.07616 3.93589C -0.724953 4.53023 0.0415666 4.72734 0.635912 4.37613L -0.635911 2.22382ZM 7.43891 1.1704C 8.08531 0.927999 8.41281 0.207484 8.17041 -0.438916C 7.92801 -1.08532 7.2075 -1.41282 6.5611 -1.17042L 7.43891 1.1704ZM 0.635912 4.37613C 2.77915 3.10772 5.08016 2.05409 7.43891 1.1704L 6.5611 -1.17042C 4.11984 -0.254111 1.62086 0.892234 -0.635911 2.22382L 0.635912 4.37613Z"/>
<path id="path34_stroke" d="M 22.0644 92.3974C 22.6704 92.7279 23.4297 92.5046 23.7603 91.8986C 24.0909 91.2925 23.8676 90.5332 23.2615 90.2026L 22.0644 92.3974ZM 12.7629 82.2L 13.732 81.4104L 13.7292 81.407L 12.7629 82.2ZM 0.0629378 39.3L -1.18651 39.2629L -1.18653 39.2635L 0.0629378 39.3ZM 12.5629 4.20001L 13.4851 5.04388C 13.4914 5.03704 13.4976 5.03012 13.5037 5.02314L 12.5629 4.20001ZM 17.7438 0.976086C 18.2829 0.544824 18.3703 -0.241791 17.939 -0.780869C 17.5078 -1.31995 16.7211 -1.40735 16.1821 -0.976086L 17.7438 0.976086ZM 23.2615 90.2026C 21.2422 89.1012 18.0615 86.7239 13.732 81.4104L 11.7939 82.9896C 16.2644 88.4761 19.6836 91.0988 22.0644 92.3974L 23.2615 90.2026ZM 13.7292 81.407C 2.02174 67.2313 0.912511 52.9673 1.31241 39.3365L -1.18653 39.2635C -1.58664 53.0326 -0.295872 68.1687 11.7967 82.993L 13.7292 81.407ZM 1.31239 39.3371C 1.60889 29.3549 4.0832 15.3181 13.4851 5.04388L 11.6408 3.35614C 1.64268 14.2819 -0.883012 29.0451 -1.18651 39.2629L 1.31239 39.3371ZM 13.5037 5.02314C 14.8609 3.46959 16.2804 2.14564 17.7438 0.976086L 16.1821 -0.976086C 14.6455 0.254363 13.065 1.73043 11.6222 3.37688L 13.5037 5.02314Z"/>
<path id="path35_stroke" d="M 48.8403 0.155068C 48.926 -0.529957 48.4401 -1.15469 47.755 -1.24032C 47.07 -1.32595 46.4453 -0.840044 46.3597 -0.155019L 48.8403 0.155068ZM -1.21268 17.8968C -1.38011 18.5666 -0.972913 19.2452 -0.30317 19.4127C 0.366574 19.5801 1.04524 19.1729 1.21268 18.5031L -1.21268 17.8968ZM 46.3597 -0.155019C 46.035 2.44207 43.8471 4.44998 41.2 4.44998L 41.2 6.94998C 45.1529 6.94998 48.365 3.95798 48.8403 0.155068L 46.3597 -0.155019ZM 41.2 4.44998L 16 4.44998L 16 6.94998L 41.2 6.94998L 41.2 4.44998ZM 16 4.44998C 7.71296 4.44998 0.723147 10.1535 -1.21268 17.8968L 1.21268 18.5031C 2.87685 11.8464 8.88704 6.94998 16 6.94998L 16 4.44998Z"/>
<path id="path36_stroke" d="M 15.2 7.55C 15.8904 7.55 16.45 6.99036 16.45 6.3C 16.45 5.60964 15.8904 5.05 15.2 5.05L 15.2 7.55ZM 1.24949 -0.0356875C 1.22978 -0.725762 0.654376 -1.26919 -0.0356982 -1.24948C -0.725773 -1.22976 -1.2692 -0.654362 -1.24949 0.0357119L 1.24949 -0.0356875ZM 15.2 5.05L 6.5 5.05L 6.5 7.55L 15.2 7.55L 15.2 5.05ZM 6.5 5.05C 3.67195 5.05 1.33004 2.78365 1.24949 -0.0356875L -1.24949 0.0357119C -1.13004 4.21638 2.32805 7.55 6.5 7.55L 6.5 5.05Z"/>
<path id="path37_stroke" d="M -0.276602 23.9199C -0.0999452 24.5872 0.584274 24.985 1.25165 24.8084C 1.91902 24.6317 2.31682 23.9475 2.14016 23.2801L -0.276602 23.9199ZM 0.831781 10.8L 2.0318 11.15L 2.03369 11.1434L 0.831781 10.8ZM 9.29392 0.990804C 9.84111 0.569887 9.94348 -0.214921 9.52256 -0.762114C 9.10164 -1.30931 8.31684 -1.41167 7.76964 -0.990756L 9.29392 0.990804ZM 2.14016 23.2801C 1.25827 19.9587 0.678073 15.6962 2.03178 11.15L -0.368219 10.45C -1.81451 15.5038 -1.19471 20.4413 -0.276602 23.9199L 2.14016 23.2801ZM 2.03369 11.1434C 3.15631 7.14585 5.52891 3.87046 9.29392 0.990804L 7.76964 -0.990756C 3.73465 2.12959 0.907253 6.05418 -0.370124 10.4566L 2.03369 11.1434Z"/>
<path id="path38_stroke" d="M -1.4 0.400024C -1.4 1.22845 -0.728426 1.90002 0.100001 1.90002C 0.928428 1.90002 1.6 1.22845 1.6 0.400024L -1.4 0.400024ZM 1.5 0C 1.5 -0.828427 0.828426 -1.5 -1.52588e-06 -1.5C -0.828429 -1.5 -1.5 -0.828427 -1.5 0L 1.5 0ZM 1.6 0.400024C 1.6 0.129464 1.53258 -0.0802161 1.49887 -0.175744C 1.4836 -0.218063 1.46431 -0.267094 1.45579 -0.287888C 1.44746 -0.30811 1.44155 -0.322643 1.44273 -0.319538C 1.45031 -0.300577 1.5 -0.172194 1.5 0L -1.5 0C -1.5 0.372194 -1.40031 0.65059 -1.34273 0.794562C -1.33141 0.82271 -1.32246 0.844078 -1.31907 0.852374C -1.31526 0.861631 -1.32167 0.846608 -1.33012 0.82266C -1.34508 0.780262 -1.4 0.620585 -1.4 0.400024L 1.6 0.400024Z"/>
</defs>
</svg>
