<svg width="232" height="231" viewBox="0 0 232 231" version="1.1" xmlns="http://www.w3.org/2000/svg" xmlns:xlink="http://www.w3.org/1999/xlink"><title>sandy</title><desc>Created using Figma</desc><use xlink:href="#a" fill="#FFF"/><g transform="translate(62.27 5.49)"><use xlink:href="#b" fill="#E0E0E0"/><use xlink:href="#c" fill="#333"/></g><g transform="translate(74.5 107.74)"><use xlink:href="#d" fill="#FFF"/><use xlink:href="#e" fill="#333"/></g><g transform="translate(-9889 -4173)"><use xlink:href="#f" transform="translate(9968.5 4233.94)" fill="#FFF"/><mask id="g"><use xlink:href="#f" fill="#fff" transform="translate(9968.5 4233.94)"/></mask><use xlink:href="#h" transform="translate(9968.5 4233.94)" fill="#333" mask="url(#g)"/></g><g transform="translate(79.5 60.94)"><use xlink:href="#f" fill="#FFF"/><use xlink:href="#i" fill="#333"/></g><g transform="translate(128.2 101.24)"><use xlink:href="#j" fill="#FFF"/><use xlink:href="#k" fill="#333"/></g><g transform="translate(109.5 87.04)"><use xlink:href="#l" fill="#FFF"/><use xlink:href="#m" fill="#333"/></g><use xlink:href="#n" transform="translate(104.7 86.84)" fill="#333"/><g transform="translate(148.9 87.04)"><use xlink:href="#o" fill="#FFF"/><use xlink:href="#p" fill="#333"/></g><g transform="translate(98.7 77.34)"><use xlink:href="#q" fill="#FFF"/><use xlink:href="#r" fill="#333"/></g><g transform="translate(139.8 77.14)"><use xlink:href="#s" fill="#FFF"/><use xlink:href="#t" fill="#333"/></g><use xlink:href="#u" transform="translate(143.9 86.84)" fill="#333"/><g transform="translate(113.6 126.24)"><use xlink:href="#v" fill="#E0E0E0"/><use xlink:href="#w" fill="#333"/></g><g transform="translate(118.5 126.24)"><use xlink:href="#x" fill="#E0E0E0"/><use xlink:href="#y" fill="#333"/></g><g transform="translate(57.44 22.95)"><use xlink:href="#z" fill="#E0E0E0"/><use xlink:href="#A" fill="#333"/></g><g><g transform="translate(56 188)"><use xlink:href="#B" fill="#E0E0E0"/><use xlink:href="#C" fill="#333"/></g><g transform="translate(113.8 188)"><use xlink:href="#D" fill="#E0E0E0"/><use xlink:href="#E" fill="#333"/></g><g transform="translate(132.5 29.84)"><use xlink:href="#F" fill="#FFF"/><use xlink:href="#G" fill="#333"/></g><g transform="translate(84.3 30.34)"><use xlink:href="#H" fill="#FFF"/><use xlink:href="#I" fill="#333"/></g><use xlink:href="#J" transform="translate(62.44 37.04)" fill="#333"/><use xlink:href="#K" transform="translate(85.6 60.94)" fill="#333"/><use xlink:href="#L" transform="translate(143.5 60.24)" fill="#333"/><g><use xlink:href="#M" transform="translate(67.27 17.44)" fill="#333"/><use xlink:href="#N" transform="translate(68.2 41.04)" fill="#333"/></g></g><defs><path id="a" d="M231.045 115.5c0 63.789-51.721 115.5-115.522 115.5C51.721 231 0 179.289 0 115.5S51.721 0 115.523 0c63.801 0 115.522 51.711 115.522 115.5z"/><path id="b" d="M54.43 12.046c6.8 11.3 3.1 25.9-8.2 32.7l-10.1 6c-11.3 6.8-25.9 3.1-32.7-8.2-3.5-5.9-9.6-27.1 13.5-38.5 21.7-10.7 34.3 2.6 37.5 8z"/><path id="c" d="M54.43 12.046l-1.29.765.005.009 1.285-.774zm-8.2 32.7l.766 1.29.008-.005-.774-1.285zm-10.1 6l-.766-1.29-.007.005.773 1.285zm-32.7-8.2l-1.29.766.005.008 1.285-.774zm13.5-38.5l-.663-1.345.663 1.345zm36.215 8.774c6.369 10.583 2.909 24.264-7.688 30.641l1.547 2.57c12.003-7.222 15.943-22.741 8.712-34.758l-2.57 1.547zm-7.68 30.637l-10.1 6 1.531 2.579 10.1-6-1.532-2.58zM35.356 49.46C24.773 55.83 11.093 52.37 4.716 41.773l-2.57 1.547c7.222 12.003 22.741 15.943 34.758 8.712l-1.547-2.57zM4.72 41.781c-1.607-2.71-3.904-9.155-3.026-16.238.863-6.96 4.801-14.674 15.9-20.152l-1.328-2.69C4.267 8.624-.296 17.21-1.284 25.174-2.254 33.016.249 40.122 2.14 43.312l2.58-1.531zm12.874-36.39C28.077.224 36.195.909 42.03 3.39c5.91 2.513 9.636 6.936 11.109 9.422l2.58-1.53c-1.726-2.914-5.9-7.84-12.515-10.653-6.69-2.844-15.721-3.458-26.938 2.073l1.327 2.69z"/><path id="d" d="M38.5 107.26L0 80.26h3c7.3 0 13.1-5.76 13.1-13.06V0h48.6v67.2c0 7.3 6 13.06 13.3 13.06"/><path id="e" d="M38.5 107.26l-.861 1.228a1.5 1.5 0 0 0 1.707.011l-.846-1.239zM0 80.26v-1.5a1.5 1.5 0 0 0-.861 2.728L0 80.26zM16.1 0v-1.5A1.5 1.5 0 0 0 14.6 0h1.5zm48.6 0h1.5a1.5 1.5 0 0 0-1.5-1.5V0zM78 80.26l.847 1.239a1.5 1.5 0 0 0-.846-2.739v1.5zm-38.639 25.772l-38.5-27-1.722 2.456 38.5 27 1.722-2.456zM0 81.76h3v-3H0v3zm3 0c8.122 0 14.6-6.425 14.6-14.56h-3c0 6.465-5.122 11.56-11.6 11.56v3zM17.6 67.2V0h-3v67.2h3zM16.1 1.5h48.6v-3H16.1v3zM63.2 0v67.2h3V0h-3zm0 67.2c0 8.164 6.708 14.56 14.8 14.56v-3c-6.507 0-11.8-5.124-11.8-11.56h-3zm-23.854 41.299l39.501-27-1.693-2.477-39.5 27 1.692 2.477z"/><path id="f" d="M0 0v41.1c0 21.9 13.5 56 50.3 56 9.6 0 28.8-20.1 28.8-48.8V0H0z"/><path id="h" d="M79.1 0h1v-1h-1v1zM-1 0v41.1h2V0h-2zm0 41.1c.007 11.068 3.465 25.363 11.534 36.79C18.674 89.386 31.539 98.1 50.3 98.1v-2c-18.039 0-30.324-8.336-38.134-19.365C4.286 65.636.993 51.932 1 41.1h-2zm51.3 57c2.711 0 5.922-1.398 9.145-3.785 3.214-2.385 6.627-5.91 9.676-10.28C75.18 75.321 80.083 62.835 80.1 48.3h-2c.018 14.164-4.682 26.078-10.62 34.59-2.952 4.243-6.14 7.536-9.225 9.817-3.077 2.279-5.866 3.393-7.955 3.393v2zm29.8-49.8V0h-2v48.3h2zM79.1-1H0v2h79.1v-2z"/><path id="i" d="M79.1 0h1.5v-1.5h-1.5V0zM-1.5 0v41.1h3V0h-3zm0 41.1c.01 11.127 3.51 25.57 11.626 37.08C18.349 89.791 31.358 98.6 50.3 98.6v-3c-17.858 0-29.999-8.242-37.726-19.154C4.741 65.43 1.49 51.873 1.5 41.1h-3zm51.8 57.5c2.867 0 6.183-1.47 9.443-3.884 3.246-2.41 6.715-5.994 9.788-10.396C75.622 75.558 80.574 62.93 80.6 48.3h-3c.026 14.07-4.622 25.842-10.53 34.305-2.928 4.21-6.059 7.445-9.113 9.7-3.04 2.252-5.724 3.295-7.657 3.295v3zm30.3-50.3V0h-3v48.3h3zM79.1-1.5H0v3h79.1v-3z"/><path id="j" d="M0 10.4h6.3c2.9 0 5.2-2.3 5.2-5.2C11.5 2.3 9.2 0 6.3 0"/><path id="k" d="M0 8.9a1.5 1.5 0 0 0 0 3v-3zM6.3-1.5a1.5 1.5 0 1 0 0 3v-3zM0 11.9h6.3v-3H0v3zm6.3 0c3.728 0 6.7-2.972 6.7-6.7h-3c0 2.072-1.628 3.7-3.7 3.7v3zM13 5.2c0-3.728-2.972-6.7-6.7-6.7v3c2.072 0 3.7 1.628 3.7 3.7h3z"/><path id="l" d="M5.4 2.7c0 1.5-1.2 2.7-2.7 2.7C1.2 5.4 0 4.2 0 2.7 0 1.2 1.2 0 2.7 0c1.5 0 2.7 1.2 2.7 2.7z"/><path id="m" d="M3.9 2.7c0 .672-.528 1.2-1.2 1.2v3c2.328 0 4.2-1.872 4.2-4.2h-3zM2.7 3.9c-.672 0-1.2-.528-1.2-1.2h-3c0 2.328 1.872 4.2 4.2 4.2v-3zM1.5 2.7c0-.672.528-1.2 1.2-1.2v-3a4.189 4.189 0 0 0-4.2 4.2h3zm1.2-1.2c.672 0 1.2.528 1.2 1.2h3c0-2.328-1.872-4.2-4.2-4.2v3z"/><path id="n" d="M0-1.5a1.5 1.5 0 1 0 0 3v-3zm16.9 3a1.5 1.5 0 0 0 0-3v3zM0 1.5h16.9v-3H0v3z"/><path id="o" d="M5.4 2.7c0 1.5-1.2 2.7-2.7 2.7C1.2 5.4 0 4.2 0 2.7 0 1.2 1.2 0 2.7 0c1.4 0 2.7 1.2 2.7 2.7z"/><path id="p" d="M3.9 2.7c0 .672-.528 1.2-1.2 1.2v3c2.328 0 4.2-1.872 4.2-4.2h-3zM2.7 3.9c-.672 0-1.2-.528-1.2-1.2h-3c0 2.328 1.872 4.2 4.2 4.2v-3zM1.5 2.7c0-.672.528-1.2 1.2-1.2v-3a4.189 4.189 0 0 0-4.2 4.2h3zm1.2-1.2c.608 0 1.2.564 1.2 1.2h3c0-2.364-2.008-4.2-4.2-4.2v3z"/><path id="q" d="M24 4.2S19.2 0 12 0C4.7 0 0 4.2 0 4.2"/><path id="r" d="M23.012 5.329a1.5 1.5 0 0 0 1.976-2.258L23.012 5.33zM-1 3.082a1.5 1.5 0 1 0 2 2.236l-2-2.236zM24 4.2c.988-1.129.987-1.13.987-1.13h-.001l-.002-.003c-.002 0-.004-.003-.006-.005a1.505 1.505 0 0 0-.073-.061 16.103 16.103 0 0 0-.907-.686A21.656 21.656 0 0 0 21.37.758C19.184-.332 15.85-1.479 12-1.5v3c3.349-.021 6.016.931 8.03 1.942.98.488 1.712.955 2.247 1.33a11.717 11.717 0 0 1 .735.556l.003.004V5.33h-.001l-.001-.001L24 4.2zM12-1.5C8.099-1.479 4.764-.33 2.588.76A20.98 20.98 0 0 0-.02 2.32a15.508 15.508 0 0 0-.897.69 6.625 6.625 0 0 0-.078.068l-.003.002C-1 3.082-1 3.083 0 4.2s1 1.119.999 1.12H.998.997v.002c-.002 0 0-.001.002-.003l.027-.023a11.127 11.127 0 0 1 .69-.53c.527-.373 1.247-.839 2.22-1.326 2-1.01 4.665-1.961 8.064-1.94v-3z"/><path id="s" d="M18.9 4.6V2.1C17 1 14.3 0 11.1 0 4.4 0 0 4.6 0 4.6"/><path id="t" d="M17.4 4.6a1.5 1.5 0 0 0 3 0h-3zm1.5-2.5h1.5a1.5 1.5 0 0 0-.748-1.298L18.9 2.1zM-1.084 3.563a1.5 1.5 0 0 0 2.168 2.074l-2.168-2.074zM20.4 4.6V2.1h-3v2.5h3zM19.652.802C17.639-.358 14.565-1.476 11.1-1.5v3c2.935-.024 5.261.857 7.048 1.898L19.652.802zM11.1-1.5c-3.643.029-6.797 1.309-8.828 2.51a19.62 19.62 0 0 0-2.44 1.72 15.24 15.24 0 0 0-.839.755 6.327 6.327 0 0 0-.075.076l-.001.001S-1.084 3.563 0 4.6c1.084 1.037 1.084 1.037 1.083 1.038a.164.164 0 0 0-.002.002l.003-.003.025-.025c.03-.03.065-.065.122-.118.123-.116.287-.265.522-.46.49-.41 1.153-.914 2.05-1.444C5.647 2.49 8.043 1.47 11.1 1.5v-3z"/><path id="u" d="M0-1.5a1.5 1.5 0 1 0 0 3v-3zm14.8 3a1.5 1.5 0 0 0 0-3v3zM0 1.5h14.8v-3H0v3z"/><path id="v" d="M0 0h30.8"/><path id="w" d="M0-1.5a1.5 1.5 0 0 0 0 3v-3zm30.8 3a1.5 1.5 0 0 0 0-3v3zM0 1.5h15.9v-3H0v3zm15.9 0h14.9v-3H15.9v3z"/><path id="x" d="M0 0h22s-2.3 7.6-9.4 7.6C5.5 7.5 0 0 0 0z"/><path id="y" d="M0 0v-1.5A1.5 1.5 0 0 0-1.21.887L0 0zm22 0l1.436.435A1.5 1.5 0 0 0 22-1.5V0zm-9.4 7.6l-.021 1.5h.021V7.6zM0 1.5h22v-3H0v3zM22 0c-1.436-.434-1.436-.435-1.435-.436v-.002l-.001.006a10.223 10.223 0 0 1-.398.995c-.306.67-.732 1.472-1.392 2.322C17.488 4.555 15.534 6.1 12.6 6.1v3c4.167 0 6.912-2.255 8.551-4.385a15.88 15.88 0 0 0 1.742-2.903c.18-.392.319-.742.401-.966a10.33 10.33 0 0 0 .129-.37L23.43.45a.481.481 0 0 0 .003-.01V.438l.001-.001L22 0zm-9.379 6.1c-3.043-.043-5.864-1.688-8.023-3.49A23.154 23.154 0 0 1 1.255-.826a5.589 5.589 0 0 1-.038-.05l-.008-.01V-.89v.001L0 0c-1.21.887-1.21.887-1.209.888l.003.003a5.775 5.775 0 0 0 .078.104A23.865 23.865 0 0 0-.151 2.17a27.547 27.547 0 0 0 2.828 2.744C5.043 6.888 8.522 9.043 12.579 9.1l.042-3z"/><path id="z" d="M60.558.79c-20.2-2.7-35 1.4-46.7 14.2-9.5 10.4-13.4 24.5-13.8 38.3-.7 22.6 5 35.4 13.8 46.2 12.5 15.3 18.8 11.5 18.8 11.5v-50.8c0-6.4 5.2-11.5 11.5-11.5h25.2c6.2 0 11.3-5 11.5-11.2h.3c.2 6.2 5.3 11.1 11.5 11.1h8.6v44s19.7-30.2 7.7-60.9c-11-28.1-33.7-24.8-33.7-24.8s-6.1-5-14.7-6.1z"/><path id="A" d="M60.558.79l-.199 1.487h.009l.19-1.487zm-46.7 14.2l-1.107-1.012 1.107 1.012zm-13.8 38.3l1.5.046v-.003l-1.5-.043zm13.8 46.2l-1.163.947.001.002 1.162-.95zm18.8 11.5l.775 1.284a1.5 1.5 0 0 0 .725-1.284h-1.5zm48.2-73.5v-1.5a1.5 1.5 0 0 0-1.5 1.451l1.5.049zm.3 0l1.5-.049a1.5 1.5 0 0 0-1.5-1.451v1.5zm20.1 11.1h1.5a1.5 1.5 0 0 0-1.5-1.5v1.5zm0 44h-1.5a1.5 1.5 0 0 0 2.756.82l-1.256-.82zm7.7-60.9l1.397-.546v-.001l-1.397.547zm-33.7-24.8l-.95 1.16a1.5 1.5 0 0 0 1.166.324l-.216-1.484zM60.757-.697C40.21-3.443 24.867.722 12.75 13.978l2.214 2.024C26.25 3.658 40.505-.378 60.36 2.277l.398-2.974zM12.75 13.978C2.93 24.728-1.035 39.222-1.441 53.246l2.998.087c.394-13.576 4.229-27.282 13.409-37.332l-2.215-2.023zM-1.441 53.243c-.711 22.946 5.098 36.102 14.136 47.194l2.326-1.895C6.459 88.034.868 75.591 1.557 53.336l-2.998-.093zm14.137 47.196c6.35 7.771 11.28 10.889 14.81 11.972 1.775.545 3.179.568 4.194.417.499-.078.947-.21 1.191-.301a3.339 3.339 0 0 0 .468-.211l.042-.023.017-.01.008-.005a.005.005 0 0 0 .003-.002c.002-.001.004-.002-.771-1.286-.775-1.285-.773-1.286-.771-1.287l.003-.001.005-.004.01-.006.015-.008.004-.002a2.283 2.283 0 0 1-.667.179c-.557.083-1.51.1-2.872-.318-2.744-.842-7.214-3.473-13.365-11.002l-2.324 1.898zm21.462 10.551v-6.9h-3v6.9h3zm0-6.9v-43.9h-3v43.9h3zm0-43.9c0-5.563 4.52-10 10-10v-3c-7.12 0-13 5.763-13 13h3zm10-10h25.2v-3h-25.2v3zm25.2 0c7.02 0 12.773-5.654 13-12.652l-3-.097c-.174 5.402-4.62 9.749-10 9.749v3zm11.5-11.2h.3v-3h-.3v3zm-1.2-1.452c.227 7.016 5.997 12.552 13 12.552v-3c-5.397 0-9.827-4.264-10-9.649l-3 .097zm13 12.552h8.6v-3h-8.6v3zm7.1-1.5v44h3v-44h-3zm1.5 44c1.256.82 1.257.819 1.257.818l.001-.002.004-.006a.319.319 0 0 0 .013-.02l.047-.073.172-.275c.145-.234.361-.591.626-1.046a73.65 73.65 0 0 0 2.112-3.923 88.935 88.935 0 0 0 5.554-13.979c3.456-11.508 5.403-27.229-.689-42.94l-2.794 1.092c5.908 14.988 4.005 29.718.611 40.984a84.658 84.658 0 0 1-5.364 13.5 68.363 68.363 0 0 1-2.024 3.758c-.25.431-.446.753-.584.976-.067.11-.117.188-.152.244l-.037.058-.008.012-.002.003 1.257.819zm9.097-61.447c-5.654-14.444-14.393-20.954-21.838-23.792-3.681-1.394-7.09-1.9-9.456-2.035a26.868 26.868 0 0 0-2.889-.01 18.1 18.1 0 0 0-1.098.095 4.315 4.315 0 0 0-.03.004s-.002 0 .214 1.485c.216 1.484.215 1.484.214 1.484h-.002.005l.034-.004.16-.018c.157-.016.371-.035.668-.051a22.485 22.485 0 0 1 2.555.01c2.234.124 5.188.55 8.557 1.843 6.655 2.537 14.766 8.426 20.112 22.082l2.794-1.093zM75.258 6.89l.95-1.16v-.002l-.003-.001-.006-.005a8.78 8.78 0 0 1-.083-.066c-.05-.04-.132-.104-.232-.18a24.483 24.483 0 0 0-.863-.62c-.728-.5-1.83-1.205-3.182-1.927-2.665-1.42-6.595-3.039-11.09-3.627l-.381 2.976c4.104.511 7.524 1.943 10.059 3.298a29.684 29.684 0 0 1 2.893 1.751 20.158 20.158 0 0 1 .98.717l.008.007.95-1.161z"/><path id="B" d="M18.5 0H0s14.7 29.94 34.1 35.84c18.6 5.7 22.8-8.8 22.8-8.8l-6.2-4.4L18.5 0z"/><path id="C" d="M18.5 0l.863-1.227-.389-.273H18.5V0zM0 0v-1.5h-2.408L-1.346.661 0 0zm34.1 35.84l.44-1.434-.004-.002-.436 1.436zm22.8-8.8l1.44.417.297-1.024-.87-.617-.867 1.224zm-6.2-4.4l.868-1.224-.006-.003-.862 1.227zM18.5-1.5H0v3h18.5v-3zM0 0l-1.346.662v.002l.003.005a9.926 9.926 0 0 0 .044.088l.132.261c.114.225.287.56.511.982a106.78 106.78 0 0 0 1.958 3.523A120.005 120.005 0 0 0 8.57 16.6c6.13 8.262 14.9 17.574 25.093 20.674l.873-2.87c-9.207-2.8-17.486-11.408-23.556-19.591A115.606 115.606 0 0 1 1.995.596a65.173 65.173 0 0 1-.64-1.24l-.007-.014-.001-.003L0 0zm33.66 37.274c9.74 2.984 15.989.723 19.795-2.561 1.828-1.595 3.096-3.45 3.818-4.785.371-.692.645-1.318.806-1.729a12.192 12.192 0 0 0 .254-.717l.005-.015.001-.006v-.002c.001-.001.001-.002-1.44-.42l-1.44-.418v-.002l.001-.001-.005.016a7.717 7.717 0 0 1-.169.47c-.14.36-.34.822-.654 1.4-.647 1.205-1.59 2.62-3.137 3.937-2.944 2.541-8.095 4.68-16.956 1.965l-.879 2.868zm24.108-11.458l-6.2-4.4-1.736 2.447 6.2 4.4 1.736-2.447zm-6.206-4.403l-32.2-22.64-1.725 2.454 32.2 22.64 1.725-2.454z"/><path id="D" d="M38.2 0h18.5S42.2 29.94 22.8 35.84C4.2 41.54 0 27.04 0 27.04l6.2-4.4L38.2 0z"/><path id="E" d="M38.2 0v-1.5h-.477l-.39.275L38.2 0zm18.5 0l1.35.654L59.093-1.5H56.7V0zM22.8 35.84l-.436-1.436-.004.002.44 1.434zM0 27.04l-.868-1.224-.87.617.297 1.024L0 27.04zm6.2-4.4l-.866-1.225-.002.001.868 1.224zm32-21.14h18.5v-3H38.2v3zM56.7 0l-1.35-.654-.001.003-.007.014a12.186 12.186 0 0 1-.15.301c-.109.217-.269.53-.482.939a114.304 114.304 0 0 1-8.893 14.216C39.797 23 31.567 31.604 22.364 34.403l.872 2.87c10.196-3.1 18.918-12.415 24.997-20.678 3.06-4.161 5.525-8.16 7.2-11.08a105.606 105.606 0 0 0 1.935-3.523 70.202 70.202 0 0 0 .67-1.313l.008-.018.003-.006V.655C58.05.655 58.05.654 56.7 0zM22.36 34.406C13.5 37.12 8.35 34.982 5.405 32.44c-1.547-1.317-2.49-2.732-3.138-3.936a12.327 12.327 0 0 1-.794-1.783 3.657 3.657 0 0 1-.029-.088l-.004-.016v.003L0 27.04c-1.44.417-1.44.418-1.44.419v.002l.002.006.005.015a6.214 6.214 0 0 0 .063.198c.04.116.106.303.19.52.162.41.435 1.037.806 1.728.722 1.336 1.99 3.19 3.819 4.785 3.806 3.284 10.055 5.545 19.794 2.56l-.879-2.867zM.868 28.263l6.2-4.4-1.736-2.447-6.2 4.4 1.736 2.447zm6.198-4.399l32-22.64-1.732-2.449-32 22.64 1.732 2.45z"/><path id="F" d="M0 0c2.8 0 5.8 19.4 5.8 30.6z"/><path id="G" d="M0-1.5a1.5 1.5 0 1 0 0 3v-3zm4.3 32.1a1.5 1.5 0 1 0 3 0h-3zM0 1.5a.83.83 0 0 1-.32-.062.568.568 0 0 1-.107-.06c-.069-.047.09.08.213.28.291.451.564 1.09.88 2.03.653 1.921 1.264 4.585 1.807 7.672C3.563 17.553 4.302 25.073 4.3 30.6h3c-.002-5.673-.764-13.453-1.873-19.76-.557-3.163-1.221-6.049-1.919-8.115C3.15 1.671 2.73.706 2.32.053a4.93 4.93 0 0 0-.84-.99C1.133-1.224.63-1.5 0-1.5v3z"/><path id="H" d="M0 3.3C2.2 2 4.6.9 7 0z"/><path id="I" d="M-.636 2.224A1.25 1.25 0 1 0 .636 4.376L-.636 2.224zM7.44 1.17a1.25 1.25 0 0 0-.878-2.34l.878 2.34zM.636 4.376C2.779 3.108 5.08 2.054 7.439 1.17L6.56-1.17C4.12-.254 1.621.892-.636 2.224L.636 4.376z"/><path id="J" d="M22.064 92.397a1.25 1.25 0 0 0 1.198-2.194l-1.198 2.194zM12.763 82.2l.969-.79-.003-.003-.966.793zM.063 39.3l-1.25-.037 1.25.037zm12.5-35.1l.922.844.019-.02-.941-.824zm5.18-3.224a1.25 1.25 0 1 0-1.56-1.952l1.56 1.952zm5.519 89.227c-2.02-1.102-5.2-3.48-9.53-8.793l-1.938 1.58c4.47 5.486 7.89 8.109 10.27 9.407l1.198-2.194zm-9.533-8.796C2.022 67.231.913 52.967 1.312 39.337l-2.499-.074c-.4 13.77.891 28.906 12.984 43.73l1.932-1.586zM1.312 39.337c.297-9.982 2.771-24.019 12.173-34.293l-1.844-1.688C1.643 14.282-.883 29.046-1.187 39.263l2.5.074zM13.504 5.023a32.665 32.665 0 0 1 4.24-4.047L16.182-.976a36.27 36.27 0 0 0-4.56 4.353l1.882 1.646z"/><path id="K" d="M48.84.155a1.25 1.25 0 1 0-2.48-.31l2.48.31zM-1.213 17.897a1.25 1.25 0 1 0 2.426.606l-2.426-.606zM46.36-.155c-.325 2.597-2.513 4.605-5.16 4.605v2.5c3.953 0 7.165-2.992 7.64-6.795l-2.48-.31zM41.2 4.45H16v2.5h25.2v-2.5zm-25.2 0C7.713 4.45.723 10.153-1.213 17.897l2.426.606C2.877 11.846 8.887 6.95 16 6.95v-2.5z"/><path id="L" d="M15.2 7.55a1.25 1.25 0 1 0 0-2.5v2.5zM1.25-.036a1.25 1.25 0 1 0-2.5.072l2.5-.072zM15.2 5.05H6.5v2.5h8.7v-2.5zm-8.7 0c-2.828 0-5.17-2.266-5.25-5.086l-2.5.072c.12 4.18 3.578 7.514 7.75 7.514v-2.5z"/><path id="M" d="M-.277 23.92a1.25 1.25 0 0 0 2.417-.64l-2.417.64zM.832 10.8l1.2.35.002-.007L.832 10.8zM9.294.99A1.25 1.25 0 1 0 7.77-.99L9.294.99zM2.14 23.28c-.882-3.321-1.462-7.584-.108-12.13l-2.4-.7c-1.447 5.054-.827 9.991.091 13.47l2.417-.64zm-.106-12.137C3.156 7.146 5.529 3.87 9.294.991L7.77-.991C3.735 2.13.907 6.054-.37 10.457l2.404.686z"/><path id="N" d="M-1.4.4a1.5 1.5 0 0 0 3 0h-3zM1.5 0a1.5 1.5 0 0 0-3 0h3zm.1.4a1.726 1.726 0 0 0-.144-.688L1.443-.32A.905.905 0 0 1 1.5 0h-3c0 .372.1.65.157.795l.024.057c.004.01-.003-.005-.011-.03A1.277 1.277 0 0 1-1.4.4h3z"/></defs></svg>