<svg width="149" height="148" viewBox="0 0 149 148" version="1.1" xmlns="http://www.w3.org/2000/svg" xmlns:xlink="http://www.w3.org/1999/xlink">
<title>sandy</title>
<desc>Created using Figma</desc>
<g id="Canvas" transform="translate(-7991 -2676)">
<g id="sandy">
<g id="Ellipse">
<use xlink:href="#path0_fill" transform="translate(7991 2676)" fill="#F2F2F2"/>
</g>
<g id="Vector">
<use xlink:href="#path1_fill" transform="translate(8033.67 2689)" fill="#E0E0E0"/>
<use xlink:href="#path2_stroke" transform="translate(8033.67 2689)" fill="#333333"/>
</g>
<g id="Vector">
<use xlink:href="#path3_fill" transform="translate(8040.83 2742.94)" fill="#FFFFFF"/>
<use xlink:href="#path4_stroke" transform="translate(8040.83 2742.94)" fill="#333333"/>
</g>
<g id="Vector">
<use xlink:href="#path5_fill" transform="translate(8043.75 2721.61)" fill="#FFFFFF"/>
<mask id="mask0_outline_ins">
<use xlink:href="#path5_fill" fill="white" transform="translate(8043.75 2721.61)"/>
</mask>
<g mask="url(#mask0_outline_ins)">
<use xlink:href="#path6_stroke_2x" transform="translate(8043.75 2721.61)" fill="#333333"/>
</g>
</g>
<g id="Vector">
<use xlink:href="#path5_fill" transform="translate(8043.75 2721.61)" fill="#FFFFFF"/>
<use xlink:href="#path7_stroke" transform="translate(8043.75 2721.61)" fill="#333333"/>
</g>
<g id="Vector">
<use xlink:href="#path8_fill" transform="translate(8072.25 2745.31)" fill="#FFFFFF"/>
<use xlink:href="#path9_stroke" transform="translate(8072.25 2745.31)" fill="#333333"/>
</g>
<g id="Vector">
<use xlink:href="#path10_fill" transform="translate(8061.31 2736.96)" fill="#FFFFFF"/>
<use xlink:href="#path11_stroke" transform="translate(8061.31 2736.96)" fill="#333333"/>
</g>
<g id="Vector">
<use xlink:href="#path12_stroke" transform="translate(8058.5 2736.84)" fill="#333333"/>
</g>
<g id="Vector">
<use xlink:href="#path13_fill" transform="translate(8084.36 2736.96)" fill="#FFFFFF"/>
<use xlink:href="#path14_stroke" transform="translate(8084.36 2736.96)" fill="#333333"/>
</g>
<g id="Vector">
<use xlink:href="#path15_fill" transform="translate(8054.99 2731.25)" fill="#FFFFFF"/>
<use xlink:href="#path16_stroke" transform="translate(8054.99 2731.25)" fill="#333333"/>
</g>
<g id="Vector">
<use xlink:href="#path17_fill" transform="translate(8079.04 2731.13)" fill="#FFFFFF"/>
<use xlink:href="#path18_stroke" transform="translate(8079.04 2731.13)" fill="#333333"/>
</g>
<g id="Vector">
<use xlink:href="#path19_stroke" transform="translate(8081.44 2736.84)" fill="#333333"/>
</g>
<g id="Group">
<g id="Vector">
<use xlink:href="#path20_fill" transform="translate(8063.71 2760.01)" fill="#E0E0E0"/>
<use xlink:href="#path21_stroke" transform="translate(8063.71 2760.01)" fill="#333333"/>
</g>
<g id="Vector">
<use xlink:href="#path22_fill" transform="translate(8066.57 2760.01)" fill="#E0E0E0"/>
<use xlink:href="#path23_stroke" transform="translate(8066.57 2760.01)" fill="#333333"/>
</g>
</g>
<g id="Vector">
<use xlink:href="#path24_fill" transform="translate(8030.84 2699.27)" fill="#E0E0E0"/>
<use xlink:href="#path25_stroke" transform="translate(8030.84 2699.27)" fill="#333333"/>
</g>
<g id="Group 2">
<g id="Vector">
<use xlink:href="#path26_fill" transform="translate(8030 2790.14)" fill="#E0E0E0"/>
<use xlink:href="#path27_stroke" transform="translate(8030 2790.14)" fill="#333333"/>
</g>
<g id="Vector">
<use xlink:href="#path28_fill" transform="translate(8063.82 2790.14)" fill="#E0E0E0"/>
<use xlink:href="#path29_stroke" transform="translate(8063.82 2790.14)" fill="#333333"/>
</g>
<g id="Vector">
<use xlink:href="#path30_fill" transform="translate(8074.76 2703.32)" fill="#FFFFFF"/>
<use xlink:href="#path31_stroke" transform="translate(8074.76 2703.32)" fill="#333333"/>
</g>
<g id="Group">
<g id="Vector">
<use xlink:href="#path32_fill" transform="translate(8046.56 2703.61)" fill="#FFFFFF"/>
<use xlink:href="#path33_stroke" transform="translate(8046.56 2703.61)" fill="#333333"/>
</g>
<g id="Vector">
<use xlink:href="#path34_stroke" transform="translate(8033.77 2707.55)" fill="#333333"/>
</g>
<g id="Vector">
<use xlink:href="#path35_stroke" transform="translate(8047.32 2721.61)" fill="#333333"/>
</g>
<g id="Vector">
<use xlink:href="#path36_stroke" transform="translate(8081.2 2721.2)" fill="#333333"/>
</g>
</g>
<g id="Group">
<g id="Vector">
<use xlink:href="#path37_stroke" transform="translate(8036.59 2696.03)" fill="#333333"/>
</g>
<g id="Vector">
<use xlink:href="#path38_stroke" transform="translate(8037.14 2709.9)" fill="#333333"/>
</g>
</g>
</g>
</g>
</g>
<defs>
<path id="path0_fill" d="M 148.1 74C 148.1 114.869 114.947 148 74.05 148C 33.1533 148 0 114.869 0 74C 0 33.1309 33.1533 0 74.05 0C 114.947 0 148.1 33.1309 148.1 74Z"/>
<path id="path1_fill" d="M 31.85 7.08422C 35.829 13.7295 33.664 22.3156 27.0518 26.3145L 21.1417 29.843C 14.5295 33.842 5.98629 31.6661 2.00725 25.0207C -0.0407819 21.551 -3.61021 9.0837 9.90681 2.37956C 22.6046 -3.91293 29.9775 3.90857 31.85 7.08422Z"/>
<path id="path2_stroke" d="M 31.85 7.08422L 30.9886 7.59215L 30.9921 7.59794L 31.85 7.08422ZM 27.0518 26.3145L 27.5644 27.1731L 27.5693 27.1702L 27.0518 26.3145ZM 21.1417 29.843L 20.6291 28.9844L 20.6242 28.9873L 21.1417 29.843ZM 2.00725 25.0207L 1.14606 25.5291L 1.14929 25.5345L 2.00725 25.0207ZM 9.90681 2.37956L 9.46278 1.48354L 9.46248 1.48369L 9.90681 2.37956ZM 30.9921 7.59794C 34.6867 13.7683 32.678 21.7432 26.5343 25.4588L 27.5693 27.1702C 34.65 22.8879 36.9714 13.6908 32.708 6.5705L 30.9921 7.59794ZM 26.5391 25.4559L 20.6291 28.9844L 21.6544 30.7016L 27.5644 27.1731L 26.5391 25.4559ZM 20.6242 28.9873C 14.4925 32.6957 6.56351 30.6835 2.86521 24.507L 1.14929 25.5345C 5.40906 32.6486 14.5665 34.9882 21.6592 30.6987L 20.6242 28.9873ZM 2.86842 24.5124C 1.93861 22.9372 0.602379 19.1724 1.11261 15.0355C 1.61278 10.9801 3.894 6.47801 10.3511 3.27542L 9.46248 1.48369C 2.40259 4.98524 -0.289982 10.0689 -0.872345 14.7907C -1.44464 19.4308 0.0278551 23.6346 1.14608 25.5291L 2.86842 24.5124ZM 10.3508 3.27557C 16.4543 0.250936 21.1662 0.657212 24.545 2.10091C 27.9736 3.56587 30.1363 6.14669 30.9886 7.59213L 32.7114 6.5763C 31.6912 4.84609 29.2313 1.92835 25.3308 0.261764C 21.3806 -1.42607 16.0571 -1.78431 9.46278 1.48354L 10.3508 3.27557Z"/>
<path id="path3_fill" d="M 22.5284 63.0779L 0 47.1996L 1.75546 47.1996C 6.02707 47.1996 9.42141 43.8121 9.42141 39.5191L 9.42141 0L 37.8598 0L 37.8598 39.5191C 37.8598 43.8121 41.3707 47.1996 45.6423 47.1996"/>
<path id="path4_stroke" d="M 22.5284 63.0779L 21.9523 63.8952C 22.2941 64.1362 22.7498 64.1389 23.0946 63.9021L 22.5284 63.0779ZM 0 47.1996L 0 46.1996C -0.435876 46.1996 -0.821542 46.482 -0.953252 46.8975C -1.08496 47.313 -0.932375 47.7659 -0.576098 48.017L 0 47.1996ZM 9.42141 0L 9.42141 -1C 8.86912 -1 8.42141 -0.552285 8.42141 2.22045e-16L 9.42141 0ZM 37.8598 0L 38.8598 0C 38.8598 -0.552285 38.4121 -1 37.8598 -1L 37.8598 0ZM 45.6423 47.1996L 46.2085 48.0239C 46.5696 47.7758 46.7272 47.3216 46.5974 46.9032C 46.4675 46.4848 46.0804 46.1996 45.6423 46.1996L 45.6423 47.1996ZM 23.1045 62.2605L 0.576098 46.3823L -0.576098 48.017L 21.9523 63.8952L 23.1045 62.2605ZM 0 48.1996L 1.75546 48.1996L 1.75546 46.1996L 0 46.1996L 0 48.1996ZM 1.75546 48.1996C 6.58001 48.1996 10.4214 44.3638 10.4214 39.5191L 8.42141 39.5191C 8.42141 43.2605 5.47413 46.1996 1.75546 46.1996L 1.75546 48.1996ZM 10.4214 39.5191L 10.4214 0L 8.42141 0L 8.42141 39.5191L 10.4214 39.5191ZM 9.42141 1L 37.8598 1L 37.8598 -1L 9.42141 -1L 9.42141 1ZM 36.8598 0L 36.8598 39.5191L 38.8598 39.5191L 38.8598 0L 36.8598 0ZM 36.8598 39.5191C 36.8598 44.3833 40.8375 48.1996 45.6423 48.1996L 45.6423 46.1996C 41.9039 46.1996 38.8598 43.2409 38.8598 39.5191L 36.8598 39.5191ZM 23.0946 63.9021L 46.2085 48.0239L 45.0761 46.3754L 21.9621 62.2536L 23.0946 63.9021Z"/>
<path id="path5_fill" d="M 8.92871e-07 1.43575e-05L 8.92871e-07 24.1702C 8.92871e-07 37.0492 7.89955 57.1028 29.4331 57.1028C 35.0506 57.1028 46.2855 45.2824 46.2855 28.4044L 46.2855 1.43575e-05L 8.92871e-07 1.43575e-05Z"/>
<path id="path6_stroke_2x" d="M 46.2855 1.43575e-05L 48.2855 1.43575e-05L 48.2855 -1.99999L 46.2855 -1.99999L 46.2855 1.43575e-05ZM -2 1.43575e-05L -2 24.1702L 2 24.1702L 2 1.43575e-05L -2 1.43575e-05ZM -2 24.1702C -2 30.9555 0.0667092 39.607 5.00653 46.6181C 10.0015 53.7075 17.9396 59.1028 29.4331 59.1028L 29.4331 55.1028C 19.3931 55.1028 12.6146 50.4713 8.27642 44.3142C 3.88307 38.0787 2 30.2639 2 24.1702L -2 24.1702ZM 29.4331 59.1028C 31.4632 59.1028 33.6412 58.077 35.6303 56.5965C 37.674 55.0755 39.7507 52.9039 41.6096 50.2222C 45.3303 44.8547 48.2855 37.2878 48.2855 28.4044L 44.2855 28.4044C 44.2855 36.3989 41.6233 43.1813 38.3222 47.9434C 36.6701 50.3267 34.8848 52.1651 33.2421 53.3878C 31.5447 54.6511 30.2119 55.1028 29.4331 55.1028L 29.4331 59.1028ZM 48.2855 28.4044L 48.2855 1.43575e-05L 44.2855 1.43575e-05L 44.2855 28.4044L 48.2855 28.4044ZM 46.2855 -1.99999L 8.92871e-07 -1.99999L 8.92871e-07 2.00001L 46.2855 2.00001L 46.2855 -1.99999Z"/>
<path id="path7_stroke" d="M 46.2855 1.43575e-05L 47.2855 1.43575e-05L 47.2855 -0.999986L 46.2855 -0.999986L 46.2855 1.43575e-05ZM -0.999999 1.43575e-05L -0.999999 24.1702L 1 24.1702L 1 1.43575e-05L -0.999999 1.43575e-05ZM -0.999999 24.1702C -0.999999 30.7826 1.0208 39.2249 5.824 46.0421C 10.6548 52.8984 18.303 58.1028 29.4331 58.1028L 29.4331 56.1028C 19.0297 56.1028 11.9613 51.2804 7.45895 44.8902C 2.92898 38.4608 1 30.4368 1 24.1702L -0.999999 24.1702ZM 29.4331 58.1028C 31.1503 58.1028 33.1171 57.2205 35.0333 55.7943C 36.9767 54.3479 38.9806 52.2596 40.7877 49.6525C 44.4036 44.4363 47.2855 37.0656 47.2855 28.4044L 45.2855 28.4044C 45.2855 36.6211 42.55 43.5996 39.144 48.5131C 37.4403 50.971 35.5821 52.8927 33.8391 54.1899C 32.0688 55.5076 30.5247 56.1028 29.4331 56.1028L 29.4331 58.1028ZM 47.2855 28.4044L 47.2855 1.43575e-05L 45.2855 1.43575e-05L 45.2855 28.4044L 47.2855 28.4044ZM 46.2855 -0.999986L 8.92871e-07 -0.999986L 8.92871e-07 1.00001L 46.2855 1.00001L 46.2855 -0.999986Z"/>
<path id="path8_fill" d="M -8.92871e-07 6.11604L 3.68646 6.11604C 5.3834 6.11604 6.72925 4.76348 6.72925 3.05804C 6.72925 1.3526 5.3834 7.17874e-06 3.68646 7.17874e-06"/>
<path id="path9_stroke" d="M -8.92871e-07 5.11604C -0.552286 5.11604 -1 5.56376 -1 6.11604C -1 6.66833 -0.552286 7.11604 -8.92871e-07 7.11604L -8.92871e-07 5.11604ZM 3.68646 -0.999993C 3.13417 -0.999993 2.68646 -0.552278 2.68646 7.17874e-06C 2.68646 0.552292 3.13417 1.00001 3.68646 1.00001L 3.68646 -0.999993ZM -8.92871e-07 7.11604L 3.68646 7.11604L 3.68646 5.11604L -8.92871e-07 5.11604L -8.92871e-07 7.11604ZM 3.68646 7.11604C 5.94038 7.11604 7.72925 5.31106 7.72925 3.05804L 5.72925 3.05804C 5.72925 4.2159 4.82642 5.11604 3.68646 5.11604L 3.68646 7.11604ZM 7.72925 3.05804C 7.72925 0.805039 5.94039 -0.999993 3.68646 -0.999993L 3.68646 1.00001C 4.82641 1.00001 5.72925 1.90017 5.72925 3.05804L 7.72925 3.05804Z"/>
<path id="path10_fill" d="M 3.15982 1.58783C 3.15982 2.46995 2.45764 3.17566 1.57991 3.17566C 0.702182 3.17566 8.92871e-07 2.46995 8.92871e-07 1.58783C 8.92871e-07 0.705706 0.702182 0 1.57991 0C 2.45764 0 3.15982 0.705706 3.15982 1.58783Z"/>
<path id="path11_stroke" d="M 2.15982 1.58783C 2.15982 1.92239 1.90065 2.17566 1.57991 2.17566L 1.57991 4.17566C 3.01463 4.17566 4.15982 3.01752 4.15982 1.58783L 2.15982 1.58783ZM 1.57991 2.17566C 1.25918 2.17566 1 1.92239 1 1.58783L -0.999999 1.58783C -0.999999 3.01752 0.145186 4.17566 1.57991 4.17566L 1.57991 2.17566ZM 1 1.58783C 1 1.25327 1.25918 1 1.57991 1L 1.57991 -1C 0.145186 -1 -0.999999 0.158144 -0.999999 1.58783L 1 1.58783ZM 1.57991 1C 1.90065 1 2.15982 1.25327 2.15982 1.58783L 4.15982 1.58783C 4.15982 0.158141 3.01463 -1 1.57991 -1L 1.57991 1Z"/>
<path id="path12_stroke" d="M 0 -1.00001C -0.552285 -1.00001 -1 -0.552297 -1 -1.2207e-05C -1 0.552273 -0.552285 0.999988 0 0.999988L 0 -1.00001ZM 9.88907 0.999988C 10.4414 0.999988 10.8891 0.552273 10.8891 -1.2207e-05C 10.8891 -0.552297 10.4414 -1.00001 9.88907 -1.00001L 9.88907 0.999988ZM 0 0.999988L 9.88907 0.999988L 9.88907 -1.00001L 0 -1.00001L 0 0.999988Z"/>
<path id="path13_fill" d="M 3.15982 1.58783C 3.15982 2.46995 2.45764 3.17566 1.57991 3.17566C 0.702183 3.17566 1.78574e-06 2.46995 1.78574e-06 1.58783C 1.78574e-06 0.705706 0.702183 0 1.57991 0C 2.39912 0 3.15982 0.705706 3.15982 1.58783Z"/>
<path id="path14_stroke" d="M 2.15982 1.58783C 2.15982 1.92239 1.90064 2.17566 1.57991 2.17566L 1.57991 4.17566C 3.01463 4.17566 4.15982 3.01752 4.15982 1.58783L 2.15982 1.58783ZM 1.57991 2.17566C 1.25918 2.17566 1 1.92239 1 1.58783L -0.999998 1.58783C -0.999998 3.01752 0.145187 4.17566 1.57991 4.17566L 1.57991 2.17566ZM 1 1.58783C 1 1.25327 1.25918 1 1.57991 1L 1.57991 -1C 0.145187 -1 -0.999998 0.158144 -0.999998 1.58783L 1 1.58783ZM 1.57991 1C 1.86609 1 2.15982 1.27704 2.15982 1.58783L 4.15982 1.58783C 4.15982 0.134368 2.93216 -1 1.57991 -1L 1.57991 1Z"/>
<path id="path15_fill" d="M 14.0436 2.46995C 14.0436 2.46995 11.2349 -7.17874e-06 7.02182 -7.17874e-06C 2.75021 -7.17874e-06 -8.92871e-07 2.46995 -8.92871e-07 2.46995"/>
<path id="path16_stroke" d="M 13.3833 3.22089C 13.798 3.5856 14.4299 3.54505 14.7946 3.13031C 15.1593 2.71558 15.1188 2.08371 14.704 1.719L 13.3833 3.22089ZM -0.668182 1.72595C -1.07908 2.09497 -1.11303 2.72723 -0.743999 3.13813C -0.374973 3.54903 0.257281 3.58297 0.66818 3.21394L -0.668182 1.72595ZM 14.0436 2.46995C 14.704 1.719 14.7037 1.71875 14.7034 1.7185C 14.7033 1.7184 14.703 1.71813 14.7028 1.71793C 14.7023 1.71753 14.7018 1.7171 14.7013 1.71663C 14.7002 1.71569 14.699 1.71459 14.6975 1.71335C 14.6947 1.71087 14.6911 1.7078 14.6869 1.70415C 14.6784 1.69687 14.6671 1.68728 14.6531 1.67556C 14.6252 1.65213 14.5862 1.62012 14.5367 1.58077C 14.4377 1.50211 14.296 1.39391 14.1143 1.26613C 13.7516 1.01093 13.2266 0.675605 12.5617 0.34144C 11.2345 -0.325444 9.3245 -1.00001 7.02182 -1.00001L 7.02182 0.999993C 8.93225 0.999993 10.5331 1.56041 11.6636 2.1285C 12.2275 2.41182 12.668 2.69399 12.9636 2.9019C 13.1111 3.00568 13.2217 3.09045 13.2928 3.14686C 13.3283 3.17505 13.3538 3.19611 13.369 3.20885C 13.3766 3.21522 13.3816 3.21951 13.384 3.22157C 13.3852 3.22259 13.3858 3.22306 13.3856 3.22296C 13.3856 3.2229 13.3854 3.22271 13.385 3.22236C 13.3848 3.22219 13.3845 3.22198 13.3842 3.22174C 13.3841 3.22161 13.3839 3.2214 13.3838 3.22134C 13.3835 3.22112 13.3833 3.22089 14.0436 2.46995ZM 7.02182 -1.00001C 4.69145 -1.00001 2.78109 -0.326364 1.45791 0.342519C 0.795379 0.677439 0.274885 1.0137 -0.0843053 1.26995C -0.264124 1.39823 -0.404205 1.50696 -0.502159 1.58615C -0.551157 1.62576 -0.589682 1.65803 -0.617434 1.68173C -0.631313 1.69358 -0.642505 1.70329 -0.650974 1.71071C -0.655208 1.71442 -0.658762 1.71756 -0.661632 1.7201C -0.663067 1.72138 -0.66433 1.7225 -0.665422 1.72348C -0.665968 1.72396 -0.666471 1.72441 -0.666931 1.72483C -0.667161 1.72503 -0.667474 1.72531 -0.667589 1.72542C -0.667891 1.72569 -0.668182 1.72595 -8.92871e-07 2.46995C 0.66818 3.21394 0.66791 3.21419 0.66765 3.21442C 0.667577 3.21449 0.667327 3.21471 0.667181 3.21484C 0.666889 3.2151 0.666637 3.21533 0.666426 3.21552C 0.666005 3.21589 0.665746 3.21612 0.665649 3.21621C 0.665456 3.21638 0.665912 3.21597 0.667012 3.21501C 0.669211 3.21308 0.673984 3.20893 0.681291 3.20269C 0.69591 3.1902 0.720643 3.16941 0.755189 3.14148C 0.824324 3.08559 0.932475 3.00136 1.07723 2.89808C 1.3672 2.69122 1.80123 2.40999 2.3602 2.12742C 3.48004 1.56133 5.08059 0.999993 7.02182 0.999993L 7.02182 -1.00001Z"/>
<path id="path17_fill" d="M 11.0594 2.70519L 11.0594 1.23498C 9.94759 0.58809 8.36768 -1.43575e-05 6.49519 -1.43575e-05C 2.57467 -1.43575e-05 -1.78574e-06 2.70519 -1.78574e-06 2.70519"/>
<path id="path18_stroke" d="M 10.0594 2.70519C 10.0594 3.25747 10.5071 3.70519 11.0594 3.70519C 11.6117 3.70519 12.0594 3.25747 12.0594 2.70519L 10.0594 2.70519ZM 11.0594 1.23498L 12.0594 1.23498C 12.0594 0.878917 11.87 0.549711 11.5623 0.370643L 11.0594 1.23498ZM -0.724368 2.01577C -1.10512 2.41583 -1.08947 3.0488 -0.689417 3.42955C -0.28936 3.81031 0.343611 3.79466 0.724365 3.3946L -0.724368 2.01577ZM 12.0594 2.70519L 12.0594 1.23498L 10.0594 1.23498L 10.0594 2.70519L 12.0594 2.70519ZM 11.5623 0.370643C 10.329 -0.346962 8.57723 -1.00001 6.49519 -1.00001L 6.49519 0.999986C 8.15812 0.999986 9.56621 1.52314 10.5565 2.09932L 11.5623 0.370643ZM 6.49519 -1.00001C 4.30242 -1.00001 2.50182 -0.243957 1.2651 0.493779C 0.644661 0.863886 0.157027 1.23466 -0.178752 1.51605C -0.346966 1.65701 -0.478026 1.77635 -0.569558 1.86309C -0.615351 1.90648 -0.651336 1.9418 -0.677216 1.96768C -0.690159 1.98062 -0.700583 1.99121 -0.708452 1.99928C -0.712387 2.00332 -0.715683 2.00672 -0.718337 2.00948C -0.719664 2.01085 -0.720831 2.01207 -0.721836 2.01312C -0.722339 2.01364 -0.722801 2.01413 -0.723223 2.01457C -0.723434 2.01479 -0.723721 2.01509 -0.723826 2.0152C -0.724102 2.01549 -0.724368 2.01577 -1.78574e-06 2.70519C 0.724365 3.3946 0.724118 3.39486 0.723881 3.39511C 0.723815 3.39518 0.723587 3.39542 0.723455 3.39556C 0.72319 3.39583 0.722963 3.39607 0.722774 3.39627C 0.722396 3.39666 0.72217 3.3969 0.722096 3.39698C 0.721947 3.39713 0.722403 3.39666 0.723459 3.39557C 0.725573 3.3934 0.730085 3.3888 0.736957 3.38193C 0.750706 3.36818 0.773864 3.34538 0.80613 3.31481C 0.870715 3.2536 0.97143 3.1616 1.10585 3.04895C 1.37534 2.82312 1.7764 2.51759 2.2897 2.21139C 3.32044 1.59653 4.76744 0.999986 6.49519 0.999986L 6.49519 -1.00001Z"/>
<path id="path19_stroke" d="M 0 -1.00001C -0.552285 -1.00001 -1 -0.552297 -1 -1.2207e-05C -1 0.552273 -0.552285 0.999988 0 0.999988L 0 -1.00001ZM 8.66026 0.999988C 9.21254 0.999988 9.66026 0.552273 9.66026 -1.2207e-05C 9.66026 -0.552297 9.21254 -1.00001 8.66026 -1.00001L 8.66026 0.999988ZM 0 0.999988L 8.66026 0.999988L 8.66026 -1.00001L 0 -1.00001L 0 0.999988Z"/>
<path id="path20_fill" d="M 0 1.2207e-05L 9.30392 1.2207e-05L 18.0227 1.2207e-05"/>
<path id="path21_stroke" d="M 0 -0.999988C -0.552285 -0.999988 -1 -0.552273 -1 1.2207e-05C -1 0.552297 -0.552285 1.00001 0 1.00001L 0 -0.999988ZM 18.0227 1.00001C 18.575 1.00001 19.0227 0.552297 19.0227 1.2207e-05C 19.0227 -0.552273 18.575 -0.999988 18.0227 -0.999988L 18.0227 1.00001ZM 0 1.00001L 9.30392 1.00001L 9.30392 -0.999988L 0 -0.999988L 0 1.00001ZM 9.30392 1.00001L 18.0227 1.00001L 18.0227 -0.999988L 9.30392 -0.999988L 9.30392 1.00001Z"/>
<path id="path22_fill" d="M 8.92871e-07 7.17874e-06L 12.8733 7.17874e-06C 12.8733 7.17874e-06 11.5275 4.46942 7.37292 4.46942C 3.21834 4.41061 8.92871e-07 7.17874e-06 8.92871e-07 7.17874e-06Z"/>
<path id="path23_stroke" d="M 8.92871e-07 7.17874e-06L 8.92871e-07 -0.999993C -0.376407 -0.999993 -0.720929 -0.788626 -0.891471 -0.453069C -1.06201 -0.117512 -1.02968 0.285385 -0.807809 0.589451L 8.92871e-07 7.17874e-06ZM 12.8733 7.17874e-06L 13.8309 0.288343C 13.9221 -0.0145116 13.8646 -0.342657 13.6759 -0.596509C 13.4873 -0.850362 13.1896 -0.999993 12.8733 -0.999993L 12.8733 7.17874e-06ZM 7.37292 4.46942L 7.35876 5.46932C 7.36348 5.46939 7.3682 5.46942 7.37292 5.46942L 7.37292 4.46942ZM 8.92871e-07 1.00001L 12.8733 1.00001L 12.8733 -0.999993L 8.92871e-07 -0.999993L 8.92871e-07 1.00001ZM 12.8733 7.17874e-06C 11.9158 -0.288329 11.9159 -0.288711 11.916 -0.289076C 11.9161 -0.289175 11.9162 -0.289524 11.9162 -0.289724C 11.9164 -0.290122 11.9165 -0.290455 11.9165 -0.290723C 11.9167 -0.291257 11.9168 -0.29153 11.9168 -0.291546C 11.9168 -0.291577 11.9165 -0.29058 11.9159 -0.288588C 11.9146 -0.2846 11.9121 -0.276644 11.9082 -0.264982C 11.9004 -0.241641 11.8874 -0.20358 11.8688 -0.15291C 11.8315 -0.0513771 11.7721 0.0996019 11.6883 0.283415C 11.5195 0.653637 11.2578 1.14285 10.8872 1.62666C 10.1485 2.59117 9.03694 3.46942 7.37292 3.46942L 7.37292 5.46942C 9.86348 5.46942 11.5022 4.11296 12.475 2.84276C 12.9602 2.20922 13.2947 1.58108 13.508 1.11329C 13.6153 0.878096 13.6935 0.679903 13.746 0.537014C 13.7723 0.465474 13.7923 0.407512 13.8062 0.365384C 13.8132 0.34431 13.8188 0.32717 13.8229 0.314244C 13.8249 0.30778 13.8266 0.302367 13.8279 0.298039C 13.8286 0.295875 13.8292 0.293983 13.8297 0.292365C 13.8299 0.291556 13.8301 0.290817 13.8303 0.290146C 13.8304 0.289811 13.8306 0.28936 13.8306 0.289192C 13.8308 0.288759 13.8309 0.288343 12.8733 7.17874e-06ZM 7.38707 3.46952C 5.64922 3.44492 4.02615 2.49873 2.77098 1.44636C 2.15587 0.930636 1.65914 0.414489 1.31674 0.0274704C 1.1461 -0.165407 1.01527 -0.324536 0.928718 -0.433243C 0.885477 -0.487552 0.853397 -0.529138 0.833036 -0.555903C 0.822859 -0.569281 0.815621 -0.578942 0.81139 -0.584622C 0.809276 -0.587461 0.807914 -0.589305 0.807314 -0.590119C 0.807014 -0.590525 0.806905 -0.590675 0.806987 -0.590563C 0.807028 -0.590506 0.807117 -0.590385 0.807255 -0.590197C 0.807323 -0.590104 0.807462 -0.589913 0.807496 -0.589867C 0.807647 -0.58966 0.80781 -0.589436 8.92871e-07 7.17874e-06C -0.807809 0.589451 -0.807621 0.589708 -0.807421 0.589982C -0.807338 0.590096 -0.807125 0.590387 -0.806958 0.590614C -0.806625 0.59107 -0.806242 0.591593 -0.805809 0.592184C -0.804943 0.593364 -0.803878 0.594814 -0.802615 0.596527C -0.80009 0.599953 -0.796772 0.604437 -0.79267 0.609945C -0.784468 0.620959 -0.773128 0.636072 -0.758719 0.655012C -0.729908 0.692885 -0.688787 0.746115 -0.635912 0.812523C -0.530233 0.945251 -0.377175 1.13116 -0.181181 1.3527C 0.209689 1.7945 0.77721 2.38468 1.48601 2.97896C 2.87865 4.14659 4.94203 5.43511 7.35876 5.46932L 7.38707 3.46952Z"/>
<path id="path24_fill" d="M 35.4356 0.464453C 23.6156 -1.12337 14.9553 1.28778 8.10902 8.81523C 2.55008 14.9313 0.267984 23.2232 0.033923 31.3388C -0.375683 44.6294 2.95968 52.1569 8.10902 58.5082C 15.4234 67.5059 19.1099 65.2711 19.1099 65.2711L 19.1099 61.2134L 19.1099 35.3965C 19.1099 31.6328 22.1527 28.6336 25.8391 28.6336L 40.585 28.6336C 44.2129 28.6336 47.1972 25.6932 47.3142 22.0471L 47.4898 22.0471C 47.6068 25.6932 50.5911 28.5748 54.219 28.5748L 59.2513 28.5748L 59.2513 54.4504C 59.2513 54.4504 70.7788 36.6903 63.757 18.6362C 57.3203 2.11106 44.0374 4.05174 44.0374 4.05174C 44.0374 4.05174 40.4679 1.11134 35.4356 0.464453Z"/>
<path id="path25_stroke" d="M 35.4356 0.464453L 35.3025 1.45557L 35.3081 1.45629L 35.4356 0.464453ZM 8.10902 8.81523L 7.36924 8.14239L 7.36902 8.14263L 8.10902 8.81523ZM 0.033923 31.3388L 1.03345 31.3696L 1.03351 31.3676L 0.033923 31.3388ZM 8.10902 58.5082L 7.33224 59.138L 7.33307 59.139L 8.10902 58.5082ZM 19.1099 65.2711L 19.6283 66.1263C 19.9273 65.945 20.1099 65.6208 20.1099 65.2711L 19.1099 65.2711ZM 47.3142 22.0471L 47.3142 21.0471C 46.7744 21.0471 46.332 21.4755 46.3147 22.015L 47.3142 22.0471ZM 47.4898 22.0471L 48.4892 22.015C 48.4719 21.4755 48.0296 21.0471 47.4898 21.0471L 47.4898 22.0471ZM 59.2513 28.5748L 60.2513 28.5748C 60.2513 28.0225 59.8036 27.5748 59.2513 27.5748L 59.2513 28.5748ZM 59.2513 54.4504L 58.2513 54.4504C 58.2513 54.8933 58.5427 55.2835 58.9674 55.4093C 59.3921 55.535 59.849 55.3664 60.0901 54.9949L 59.2513 54.4504ZM 63.757 18.6362L 64.689 18.2737L 64.6888 18.2732L 63.757 18.6362ZM 44.0374 4.05174L 43.4015 4.82358C 43.6193 5.00298 43.9027 5.08203 44.1819 5.04124L 44.0374 4.05174ZM 35.5688 -0.526645C 23.5161 -2.14571 14.4929 0.309897 7.36924 8.14239L 8.84881 9.48807C 15.4177 2.26565 23.715 -0.101025 35.3025 1.45555L 35.5688 -0.526645ZM 7.36902 8.14263C 1.59754 14.4925 -0.727327 23.0462 -0.965661 31.31L 1.03351 31.3676C 1.26329 23.4002 3.50262 15.3701 8.84903 9.48783L 7.36902 8.14263ZM -0.965602 31.308C -1.38227 44.8276 2.02517 52.5921 7.33225 59.138L 8.8858 57.8784C 3.8942 51.7217 0.6309 44.4312 1.03345 31.3696L -0.965602 31.308ZM 7.33307 59.139C 11.0556 63.7182 13.9593 65.5724 16.0577 66.2194C 17.1141 66.5451 17.9547 66.5606 18.5678 66.4687C 18.8719 66.4231 19.1133 66.3521 19.291 66.2849C 19.3797 66.2514 19.4521 66.2189 19.5084 66.1912C 19.5365 66.1774 19.5605 66.1647 19.5805 66.1538C 19.5905 66.1483 19.5995 66.1432 19.6074 66.1386C 19.6114 66.1363 19.6151 66.1341 19.6186 66.1321C 19.6203 66.1311 19.622 66.1301 19.6236 66.1291C 19.6244 66.1286 19.6256 66.1279 19.626 66.1277C 19.6271 66.127 19.6283 66.1263 19.1099 65.2711C 18.5915 64.416 18.5926 64.4153 18.5937 64.4147C 18.594 64.4145 18.5951 64.4138 18.5958 64.4134C 18.5972 64.4126 18.5985 64.4118 18.5998 64.411C 18.6024 64.4095 18.6048 64.4081 18.6069 64.4068C 18.6113 64.4043 18.6149 64.4023 18.6177 64.4008C 18.6233 64.3977 18.6257 64.3965 18.625 64.3969C 18.6237 64.3975 18.6098 64.4043 18.5834 64.4143C 18.5309 64.4341 18.4271 64.4674 18.2714 64.4908C 17.9647 64.5367 17.4265 64.5485 16.647 64.3082C 15.0736 63.8231 12.4769 62.2959 8.88498 57.8774L 7.33307 59.139ZM 20.1099 65.2711L 20.1099 61.2134L 18.1099 61.2134L 18.1099 65.2711L 20.1099 65.2711ZM 20.1099 61.2134L 20.1099 35.3965L 18.1099 35.3965L 18.1099 61.2134L 20.1099 61.2134ZM 20.1099 35.3965C 20.1099 32.186 22.704 29.6336 25.8391 29.6336L 25.8391 27.6336C 21.6013 27.6336 18.1099 31.0796 18.1099 35.3965L 20.1099 35.3965ZM 25.8391 29.6336L 40.585 29.6336L 40.585 27.6336L 25.8391 27.6336L 25.8391 29.6336ZM 40.585 29.6336C 44.7644 29.6336 48.1797 26.253 48.3137 22.0792L 46.3147 22.015C 46.2146 25.1334 43.6614 27.6336 40.585 27.6336L 40.585 29.6336ZM 47.3142 23.0471L 47.4898 23.0471L 47.4898 21.0471L 47.3142 21.0471L 47.3142 23.0471ZM 46.4903 22.0792C 46.6246 26.2645 50.051 29.5748 54.219 29.5748L 54.219 27.5748C 51.1311 27.5748 48.589 25.1218 48.4892 22.015L 46.4903 22.0792ZM 54.219 29.5748L 59.2513 29.5748L 59.2513 27.5748L 54.219 27.5748L 54.219 29.5748ZM 58.2513 28.5748L 58.2513 54.4504L 60.2513 54.4504L 60.2513 28.5748L 58.2513 28.5748ZM 59.2513 54.4504C 60.0901 54.9949 60.0904 54.9945 60.0906 54.994C 60.0908 54.9938 60.0911 54.9933 60.0914 54.9928C 60.0921 54.9919 60.0928 54.9906 60.0938 54.9892C 60.0957 54.9862 60.0983 54.9821 60.1016 54.977C 60.1082 54.9667 60.1175 54.9521 60.1294 54.9334C 60.1531 54.8958 60.1873 54.8413 60.2309 54.7704C 60.318 54.6287 60.443 54.4215 60.5984 54.153C 60.9092 53.616 61.342 52.8335 61.8377 51.8396C 62.8283 49.8531 64.0734 47.015 65.0954 43.6003C 67.1359 36.7819 68.3095 27.5826 64.689 18.2737L 62.825 18.9987C 66.2263 27.7439 65.1471 36.4517 63.1793 43.0269C 62.1971 46.309 60.9992 49.0393 60.0479 50.947C 59.5725 51.9002 59.1596 52.6462 58.8674 53.1511C 58.7214 53.4034 58.6056 53.5954 58.5273 53.7227C 58.4881 53.7863 58.4584 53.8337 58.439 53.8645C 58.4293 53.8798 58.4221 53.891 58.4177 53.898C 58.4154 53.9014 58.4139 53.9038 58.413 53.9052C 58.4126 53.9058 58.4123 53.9062 58.4123 53.9064C 58.4122 53.9064 58.4123 53.9063 58.4123 53.9064C 58.4124 53.9062 58.4125 53.906 59.2513 54.4504ZM 64.6888 18.2732C 61.3686 9.74905 56.2309 5.89497 51.8412 4.21323C 49.6635 3.37894 47.6971 3.08919 46.27 3.00832C 45.5558 2.96785 44.9742 2.97954 44.5654 3.00216C 44.3609 3.01347 44.1994 3.02753 44.0857 3.03924C 44.0288 3.0451 43.9839 3.05036 43.9516 3.05441C 43.9354 3.05643 43.9224 3.05815 43.9125 3.05948C 43.9076 3.06015 43.9035 3.06072 43.9002 3.06118C 43.8986 3.06141 43.8971 3.06162 43.8959 3.0618C 43.8953 3.06189 43.8945 3.062 43.8942 3.06204C 43.8935 3.06215 43.8928 3.06225 44.0374 4.05174C 44.1819 5.04124 44.1814 5.04132 44.1808 5.0414C 44.1807 5.04141 44.1803 5.04148 44.18 5.04151C 44.1796 5.04157 44.1794 5.0416 44.1793 5.04161C 44.1793 5.04162 44.18 5.04152 44.1815 5.04132C 44.1845 5.04091 44.1906 5.04009 44.1998 5.03895C 44.2181 5.03666 44.2485 5.03305 44.2905 5.02872C 44.3746 5.02007 44.5046 5.00858 44.6759 4.9991C 45.0187 4.98014 45.5251 4.96932 46.1568 5.00511C 47.4214 5.07678 49.178 5.33468 51.1257 6.08086C 54.9866 7.56005 59.7087 10.9982 62.8252 18.9991L 64.6888 18.2732ZM 44.0374 4.05174C 44.6732 3.2799 44.6729 3.27971 44.6727 3.27951C 44.6726 3.27942 44.6723 3.27921 44.6721 3.27904C 44.6717 3.27871 44.6713 3.27833 44.6708 3.27791C 44.6697 3.27707 44.6685 3.27605 44.667 3.27485C 44.6641 3.27246 44.6603 3.26936 44.6556 3.26558C 44.6462 3.25802 44.6334 3.24773 44.6172 3.23486C 44.5847 3.20913 44.5386 3.17309 44.4793 3.12803C 44.3608 3.03796 44.1896 2.91171 43.9698 2.75969C 43.5305 2.45592 42.8949 2.04777 42.0962 1.61943C 40.5037 0.765318 38.2351 -0.183912 35.5631 -0.527386L 35.3081 1.45629C 37.6685 1.75971 39.7007 2.60412 41.151 3.38194C 41.8737 3.76956 42.445 4.13693 42.8322 4.4047C 43.0257 4.53846 43.1726 4.64698 43.269 4.72023C 43.3172 4.75684 43.3526 4.78461 43.3749 4.80226C 43.386 4.81109 43.3939 4.81738 43.3983 4.82099C 43.4006 4.82279 43.402 4.82392 43.4025 4.82436C 43.4028 4.82458 43.4028 4.82463 43.4027 4.8245C 43.4026 4.82443 43.4024 4.82432 43.4023 4.82417C 43.4022 4.82409 43.402 4.82395 43.4019 4.82391C 43.4017 4.82375 43.4015 4.82358 44.0374 4.05174Z"/>
<path id="path26_fill" d="M 10.8253 0L 0 0C 0 0 8.60151 17.607 19.9535 21.0767C 30.8373 24.4287 33.2949 15.9015 33.2949 15.9015L 29.667 13.314L 10.8253 0Z"/>
<path id="path27_stroke" d="M 10.8253 0L 11.4024 -0.816683L 11.143 -1L 10.8253 -1L 10.8253 0ZM 0 0L 0 -1L -1.60148 -1L -0.898512 0.438949L 0 0ZM 19.9535 21.0767L 20.2478 20.121L 20.2458 20.1203L 19.9535 21.0767ZM 33.2949 15.9015L 34.2558 16.1785L 34.4518 15.4984L 33.8756 15.0874L 33.2949 15.9015ZM 29.667 13.314L 30.2477 12.4998L 30.2441 12.4973L 29.667 13.314ZM 10.8253 -1L 0 -1L 0 1L 10.8253 1L 10.8253 -1ZM 0 0C -0.898512 0.438949 -0.898384 0.43921 -0.898224 0.439539C -0.898126 0.439738 -0.897932 0.440134 -0.897738 0.440532C -0.897348 0.441328 -0.896827 0.442392 -0.896175 0.443721C -0.89487 0.446379 -0.893042 0.4501 -0.890691 0.454868C -0.885991 0.464404 -0.879205 0.478131 -0.870354 0.495926C -0.852654 0.531516 -0.826695 0.583386 -0.792656 0.650564C -0.724583 0.784913 -0.624169 0.980536 -0.492842 1.22966C -0.230232 1.72782 0.156256 2.4404 0.655216 3.3051C 1.65235 5.03313 3.10264 7.3756 4.9152 9.83109C 8.50352 14.6922 13.6558 20.1975 19.6612 22.033L 20.2458 20.1203C 14.8992 18.4862 10.0747 13.4531 6.52429 8.64331C 4.76748 6.26334 3.3579 3.98721 2.3875 2.30551C 1.9027 1.46534 1.52851 0.77527 1.27638 0.296995C 1.15034 0.057899 1.05487 -0.12814 0.991397 -0.253401C 0.959665 -0.316027 0.935939 -0.363448 0.920397 -0.394698C 0.912626 -0.410322 0.906902 -0.421903 0.903247 -0.429319C 0.901419 -0.433026 0.900109 -0.435693 0.899319 -0.437303C 0.898924 -0.438108 0.898659 -0.438649 0.898524 -0.438924C 0.898457 -0.439061 0.898454 -0.439067 0.89842 -0.439137C 0.89845 -0.439076 0.898512 -0.438949 0 0ZM 19.6591 22.0324C 25.3957 23.7991 29.0985 22.4637 31.3608 20.5016C 32.4631 19.5456 33.1805 18.4781 33.6222 17.654C 33.8439 17.2405 33.9987 16.8836 34.0996 16.625C 34.1501 16.4956 34.1874 16.3903 34.2128 16.3143C 34.2256 16.2762 34.2354 16.2455 34.2425 16.2227C 34.246 16.2113 34.2489 16.2018 34.2511 16.1944C 34.2522 16.1907 34.2532 16.1875 34.254 16.1849C 34.2543 16.1836 34.2547 16.1824 34.255 16.1813C 34.2552 16.1808 34.2554 16.1801 34.2554 16.1798C 34.2556 16.1791 34.2558 16.1785 33.2949 15.9015C 32.334 15.6246 32.3342 15.624 32.3344 15.6235C 32.3344 15.6234 32.3345 15.6229 32.3346 15.6226C 32.3348 15.622 32.3349 15.6216 32.335 15.6213C 32.3352 15.6207 32.3352 15.6206 32.3351 15.621C 32.3349 15.6218 32.334 15.6245 32.3326 15.6291C 32.3297 15.6384 32.3244 15.6551 32.3165 15.6787C 32.3007 15.726 32.2745 15.8006 32.2365 15.8978C 32.1605 16.0925 32.0383 16.3755 31.8595 16.7091C 31.5003 17.3791 30.9231 18.2338 30.0504 18.9907C 28.363 20.4542 25.3951 21.7063 20.2478 20.121L 19.6591 22.0324ZM 33.8756 15.0874L 30.2477 12.4998L 29.0863 14.1281L 32.7143 16.7157L 33.8756 15.0874ZM 30.2441 12.4973L 11.4024 -0.816683L 10.2482 0.816683L 29.0899 14.1306L 30.2441 12.4973Z"/>
<path id="path28_fill" d="M 22.3529 0L 33.1782 0C 33.1782 0 24.6934 17.607 13.3415 21.0767C 2.45764 24.4287 0 15.9015 0 15.9015L 3.62795 13.314L 22.3529 0Z"/>
<path id="path29_stroke" d="M 22.3529 0L 22.3529 -1L 22.0336 -1L 21.7734 -0.814988L 22.3529 0ZM 33.1782 0L 34.0791 0.434122L 34.7702 -1L 33.1782 -1L 33.1782 0ZM 13.3415 21.0767L 13.0492 20.1203L 13.0471 20.121L 13.3415 21.0767ZM 0 15.9015L -0.580672 15.0874L -1.1569 15.4984L -0.960887 16.1785L 0 15.9015ZM 3.62795 13.314L 3.04847 12.499L 3.04727 12.4998L 3.62795 13.314ZM 22.3529 1L 33.1782 1L 33.1782 -1L 22.3529 -1L 22.3529 1ZM 33.1782 0C 32.2774 -0.434122 32.2774 -0.434252 32.2775 -0.434314C 32.2774 -0.434246 32.2774 -0.434242 32.2774 -0.434106C 32.2772 -0.433833 32.277 -0.433295 32.2766 -0.432493C 32.2758 -0.430888 32.2745 -0.428227 32.2727 -0.424524C 32.2691 -0.41712 32.2635 -0.40555 32.2558 -0.389937C 32.2405 -0.358709 32.2171 -0.311311 32.1858 -0.248709C 32.1232 -0.123495 32.0289 0.062494 31.9045 0.301537C 31.6555 0.779709 31.2859 1.46966 30.8066 2.3097C 29.8471 3.99115 28.4521 6.26692 26.71 8.64647C 23.1891 13.4555 18.3939 18.4867 13.0492 20.1203L 13.6338 22.033C 19.641 20.1969 24.7642 14.6898 28.3237 9.82793C 30.1218 7.37203 31.5575 5.02919 32.5437 3.30091C 33.0371 2.43608 33.4191 1.72338 33.6785 1.22512C 33.8082 0.975941 33.9074 0.780268 33.9746 0.645872C 34.0082 0.57867 34.0338 0.526778 34.0513 0.491165C 34.06 0.473359 34.0667 0.459621 34.0714 0.450074C 34.0737 0.4453 34.0755 0.441574 34.0768 0.43891C 34.0774 0.437578 34.0779 0.436512 34.0783 0.435714C 34.0785 0.435315 34.0787 0.434916 34.0788 0.434717C 34.079 0.434386 34.0791 0.434122 33.1782 0ZM 13.0471 20.121C 7.89986 21.7063 4.93196 20.4542 3.2445 18.9907C 2.37184 18.2338 1.79459 17.3791 1.43542 16.7091C 1.2566 16.3755 1.1344 16.0925 1.05841 15.8978C 1.02048 15.8006 0.994264 15.726 0.978423 15.6787C 0.970508 15.6551 0.965201 15.6384 0.962332 15.6291C 0.960897 15.6245 0.960074 15.6218 0.95984 15.621C 0.959723 15.6206 0.959753 15.6207 0.959929 15.6213C 0.960017 15.6216 0.960141 15.622 0.9603 15.6226C 0.96038 15.6229 0.960527 15.6234 0.960567 15.6235C 0.960723 15.624 0.960887 15.6246 0 15.9015C -0.960887 16.1785 -0.960704 16.1791 -0.960511 16.1798C -0.960434 16.1801 -0.96023 16.1808 -0.960075 16.1813C -0.959764 16.1824 -0.959414 16.1836 -0.959023 16.1849C -0.958242 16.1875 -0.9573 16.1907 -0.956194 16.1944C -0.953983 16.2018 -0.951115 16.2113 -0.947567 16.2227C -0.940472 16.2455 -0.93065 16.2762 -0.917908 16.3143C -0.892434 16.3903 -0.855215 16.4956 -0.804688 16.625C -0.703767 16.8836 -0.548932 17.2405 -0.327286 17.654C 0.114471 18.4781 0.831867 19.5456 1.9341 20.5016C 4.19641 22.4637 7.89925 23.7991 13.6358 22.0324L 13.0471 20.121ZM 0.580672 16.7157L 4.20862 14.1281L 3.04727 12.4998L -0.580672 15.0874L 0.580672 16.7157ZM 4.20742 14.129L 22.9324 0.814988L 21.7734 -0.814988L 3.04847 12.499L 4.20742 14.129Z"/>
<path id="path30_fill" d="M 8.92871e-07 -7.17874e-06C 1.63843 -7.17874e-06 3.39388 11.4088 3.39388 17.9953L 8.92871e-07 -7.17874e-06Z"/>
<path id="path31_stroke" d="M 8.92871e-07 -1.00001C -0.552284 -1.00001 -0.999999 -0.552292 -0.999999 -7.17874e-06C -0.999999 0.552278 -0.552284 0.999993 8.92871e-07 0.999993L 8.92871e-07 -1.00001ZM 2.39388 17.9953C 2.39388 18.5476 2.8416 18.9953 3.39388 18.9953C 3.94617 18.9953 4.39388 18.5476 4.39388 17.9953L 2.39388 17.9953ZM 8.92871e-07 0.999993C -0.202798 0.999993 -0.318143 0.909482 -0.329644 0.899959C -0.33822 0.892858 -0.301024 0.923238 -0.22966 1.03642C -0.0873077 1.2622 0.0857769 1.64653 0.273832 2.20478C 0.645236 3.30729 1.00798 4.8823 1.32634 6.70022C 1.96204 10.3303 2.39388 14.7705 2.39388 17.9953L 4.39388 17.9953C 4.39388 14.6337 3.94799 10.0762 3.29636 6.35522C 2.97105 4.49761 2.58773 2.80876 2.16918 1.56629C 1.96226 0.952045 1.72939 0.39361 1.46214 -0.0302632C 1.3287 -0.241903 1.16018 -0.463066 0.945884 -0.640504C 0.728665 -0.820365 0.407603 -1.00001 8.92871e-07 -1.00001L 8.92871e-07 0.999993Z"/>
<path id="path32_fill" d="M 4.46436e-07 1.94066C 1.28734 1.17615 2.6917 0.529267 4.09607 -7.17874e-06L 4.46436e-07 1.94066Z"/>
<path id="path33_stroke" d="M -0.510614 1.08085C -0.985474 1.36285 -1.14181 1.97641 -0.85981 2.45127C -0.577805 2.92613 0.0357544 3.08247 0.510614 2.80047L -0.510614 1.08085ZM 4.44873 0.935743C 4.96553 0.740972 5.22659 0.16413 5.03182 -0.352671C 4.83704 -0.869471 4.2602 -1.13053 3.7434 -0.935757L 4.44873 0.935743ZM 0.510614 2.80047C 1.73837 2.07134 3.08805 1.44855 4.44873 0.935743L 3.7434 -0.935757C 2.29535 -0.39002 0.836302 0.280957 -0.510614 1.08085L 0.510614 2.80047Z"/>
<path id="path34_stroke" d="M 12.7806 54.5688C 13.2649 54.8343 13.8727 54.6569 14.1382 54.1726C 14.4036 53.6883 14.2263 53.0805 13.742 52.815L 12.7806 54.5688ZM 7.46826 48.3404L 8.24504 47.7106L 8.24282 47.7079L 7.46826 48.3404ZM 0.0368282 23.1116L -0.962735 23.0821L -0.96275 23.0826L 0.0368282 23.1116ZM 7.35123 2.46995L 8.09064 3.14321C 8.09563 3.13773 8.10056 3.13219 8.10543 3.12659L 7.35123 2.46995ZM 10.5525 0.779343C 10.9829 0.433283 11.0513 -0.196178 10.7052 -0.626597C 10.3592 -1.05702 9.72972 -1.1254 9.2993 -0.779343L 10.5525 0.779343ZM 13.742 52.815C 12.5994 52.1887 10.7636 50.8171 8.24504 47.7106L 6.69148 48.9702C 9.32225 52.215 11.3485 53.7838 12.7806 54.5688L 13.742 52.815ZM 8.24282 47.7079C 1.50425 39.4559 0.805054 31.1042 1.03641 23.1407L -0.96275 23.0826C -1.19952 31.2325 -0.494351 40.1705 6.6937 48.9729L 8.24282 47.7079ZM 1.03639 23.1412C 1.20918 17.2949 2.65192 9.11631 8.09064 3.14321L 6.61182 1.7967C 0.698584 8.29094 -0.784431 17.0491 -0.962735 23.0821L 1.03639 23.1412ZM 8.10543 3.12659C 8.88239 2.2342 9.71658 1.45142 10.5525 0.779343L 9.2993 -0.779343C 8.37976 -0.0400232 7.4585 0.823845 6.59702 1.81331L 8.10543 3.12659Z"/>
<path id="path35_stroke" d="M 28.8456 0.12344C 28.9138 -0.424621 28.5247 -0.924173 27.9767 -0.992339C 27.4286 -1.06051 26.9291 -0.671474 26.8609 -0.123412L 28.8456 0.12344ZM -0.970426 10.4617C -1.10375 10.9976 -0.777349 11.5402 -0.241398 11.6735C 0.294554 11.8068 0.837106 11.4804 0.970426 10.9445L -0.970426 10.4617ZM 26.8609 -0.123412C 26.6864 1.27975 25.5129 2.35206 24.1083 2.35206L 24.1083 4.35206C 26.5657 4.35206 28.552 2.48401 28.8456 0.12344L 26.8609 -0.123412ZM 24.1083 2.35206L 9.36243 2.35206L 9.36243 4.35206L 24.1083 4.35206L 24.1083 2.35206ZM 9.36243 2.35206C 4.3836 2.35206 0.190341 5.79537 -0.970426 10.4617L 0.970426 10.9445C 1.91621 7.14242 5.32993 4.35206 9.36243 4.35206L 9.36243 2.35206Z"/>
<path id="path36_stroke" d="M 8.89432 4.70492C 9.4466 4.70492 9.89432 4.2572 9.89432 3.70492C 9.89432 3.15264 9.4466 2.70492 8.89432 2.70492L 8.89432 4.70492ZM 0.999597 -0.0284104C 0.983902 -0.580472 0.523645 -1.01528 -0.0284167 -0.999589C -0.580478 -0.983894 -1.01529 -0.523637 -0.999595 0.0284248L 0.999597 -0.0284104ZM 8.89432 2.70492L 3.80349 2.70492L 3.80349 4.70492L 8.89432 4.70492L 8.89432 2.70492ZM 3.80349 2.70492C 2.29759 2.70492 1.04276 1.48979 0.999597 -0.0284104L -0.999595 0.0284248C -0.925726 2.6268 1.21333 4.70492 3.80349 4.70492L 3.80349 2.70492Z"/>
<path id="path37_stroke" d="M -0.421787 14.1334C -0.28112 14.6675 0.265863 14.9864 0.799933 14.8458C 1.334 14.7051 1.65292 14.1581 1.51225 13.624L -0.421787 14.1334ZM 0.486718 6.3513L 1.44711 6.63002L 1.4486 6.62475L 0.486718 6.3513ZM 5.60401 0.791163C 6.04095 0.453373 6.12133 -0.17467 5.78354 -0.611609C 5.44575 -1.04855 4.81771 -1.12892 4.38077 -0.791134L 5.60401 0.791163ZM 1.51225 13.624C 1.01151 11.7229 0.696658 9.21581 1.44709 6.63001L -0.473656 6.07258C -1.36165 9.13237 -0.974319 12.0357 -0.421787 14.1334L 1.51225 13.624ZM 1.4486 6.62475C 2.08358 4.39122 3.46371 2.44579 5.60401 0.791163L 4.38077 -0.791134C 1.95688 1.08273 0.294226 3.37148 -0.475166 6.07784L 1.4486 6.62475Z"/>
<path id="path38_stroke" d="M -0.941484 0.235247C -0.941484 0.787532 -0.493769 1.23525 0.0585157 1.23525C 0.6108 1.23525 1.05852 0.787532 1.05852 0.235247L -0.941484 0.235247ZM 0.999999 0C 0.999999 -0.552285 0.552284 -1 -8.92871e-07 -1C -0.552286 -1 -1 -0.552285 -1 0L 0.999999 0ZM 1.05852 0.235247C 1.05852 0.057651 1.01448 -0.079614 0.992889 -0.141106C 0.981458 -0.173657 0.970406 -0.200769 0.965616 -0.212483C 0.963625 -0.217353 0.959947 -0.226271 0.959634 -0.227033C 0.958377 -0.230091 0.958178 -0.230603 0.958381 -0.230093C 0.959472 -0.227352 0.97144 -0.19752 0.981795 -0.154158C 0.992738 -0.108333 0.999999 -0.0559731 0.999999 0L -1 0C -1 0.114781 -0.985425 0.2186 -0.96351 0.310372C -0.942184 0.39968 -0.915586 0.469947 -0.899866 0.509447C -0.896006 0.519146 -0.892547 0.527594 -0.890204 0.533295C -0.886918 0.541292 -0.887052 0.540932 -0.885615 0.544447C -0.883547 0.549505 -0.888199 0.538474 -0.894144 0.521546C -0.904766 0.491299 -0.941484 0.383439 -0.941484 0.235247L 1.05852 0.235247Z"/>
</defs>
</svg>
