<svg width="149" height="148" viewBox="0 0 149 148" version="1.1" xmlns="http://www.w3.org/2000/svg" xmlns:xlink="http://www.w3.org/1999/xlink"><title>sandy</title><desc>Created using Figma</desc><use xlink:href="#a" fill="#F2F2F2"/><g transform="translate(42.67 13)"><use xlink:href="#b" fill="#E0E0E0"/><use xlink:href="#c" fill="#333"/></g><g transform="translate(49.83 66.94)"><use xlink:href="#d" fill="#FFF"/><use xlink:href="#e" fill="#333"/></g><g transform="translate(-7991 -2676)"><use xlink:href="#f" transform="translate(8043.75 2721.61)" fill="#FFF"/><mask id="g"><use xlink:href="#f" fill="#fff" transform="translate(8043.75 2721.61)"/></mask><use xlink:href="#h" transform="translate(8043.75 2721.61)" fill="#333" mask="url(#g)"/></g><g transform="translate(52.75 45.61)"><use xlink:href="#f" fill="#FFF"/><use xlink:href="#i" fill="#333"/></g><g transform="translate(81.25 69.31)"><use xlink:href="#j" fill="#FFF"/><use xlink:href="#k" fill="#333"/></g><g transform="translate(70.31 60.96)"><use xlink:href="#l" fill="#FFF"/><use xlink:href="#m" fill="#333"/></g><use xlink:href="#n" transform="translate(67.5 60.84)" fill="#333"/><g transform="translate(93.36 60.96)"><use xlink:href="#o" fill="#FFF"/><use xlink:href="#p" fill="#333"/></g><g transform="translate(63.99 55.25)"><use xlink:href="#q" fill="#FFF"/><use xlink:href="#r" fill="#333"/></g><g transform="translate(88.04 55.13)"><use xlink:href="#s" fill="#FFF"/><use xlink:href="#t" fill="#333"/></g><use xlink:href="#u" transform="translate(90.44 60.84)" fill="#333"/><g transform="translate(72.71 84.01)"><use xlink:href="#v" fill="#E0E0E0"/><use xlink:href="#w" fill="#333"/></g><g transform="translate(75.57 84.01)"><use xlink:href="#x" fill="#E0E0E0"/><use xlink:href="#y" fill="#333"/></g><g transform="translate(39.84 23.27)"><use xlink:href="#z" fill="#E0E0E0"/><use xlink:href="#A" fill="#333"/></g><g><g transform="translate(39 114.14)"><use xlink:href="#B" fill="#E0E0E0"/><use xlink:href="#C" fill="#333"/></g><g transform="translate(72.82 114.14)"><use xlink:href="#D" fill="#E0E0E0"/><use xlink:href="#E" fill="#333"/></g><g transform="translate(83.76 27.32)"><use xlink:href="#F" fill="#FFF"/><use xlink:href="#G" fill="#333"/></g><g transform="translate(55.56 27.61)"><use xlink:href="#H" fill="#FFF"/><use xlink:href="#I" fill="#333"/></g><use xlink:href="#J" transform="translate(42.77 31.55)" fill="#333"/><use xlink:href="#K" transform="translate(56.32 45.61)" fill="#333"/><use xlink:href="#L" transform="translate(90.2 45.2)" fill="#333"/><g><use xlink:href="#M" transform="translate(45.59 20.03)" fill="#333"/><use xlink:href="#N" transform="translate(46.14 33.9)" fill="#333"/></g></g><defs><path id="a" d="M148.1 74c0 40.869-33.153 74-74.05 74S0 114.869 0 74C0 33.13 33.153 0 74.05 0s74.05 33.13 74.05 74z"/><path id="b" d="M31.85 7.084c3.979 6.646 1.814 15.232-4.798 19.23l-5.91 3.529c-6.612 3.999-15.156 1.823-19.135-4.822C-.04 21.55-3.61 9.084 9.907 2.38c12.698-6.293 20.07 1.529 21.943 4.704z"/><path id="c" d="M31.85 7.084l-.861.508.003.006.858-.514zm-4.798 19.23l.512.86.005-.004-.517-.856zm-5.91 3.529l-.513-.859-.005.003.518.856zM2.007 25.021l-.86.508.002.006.858-.514zm7.9-22.641l-.444-.896.444.896zm21.085 5.218c3.695 6.17 1.686 14.145-4.458 17.86l1.035 1.712c7.081-4.282 9.402-13.48 5.139-20.6l-1.716 1.028zM26.54 25.456l-5.91 3.528 1.025 1.718 5.91-3.529-1.025-1.717zm-5.915 3.531c-6.131 3.709-14.06 1.697-17.759-4.48L1.15 25.534c4.26 7.115 13.417 9.454 20.51 5.165l-1.035-1.712zM2.868 24.512c-.93-1.575-2.266-5.34-1.755-9.476.5-4.056 2.781-8.558 9.238-11.76l-.889-1.792C2.402 4.985-.29 10.069-.872 14.79c-.573 4.64.9 8.844 2.018 10.738l1.722-1.017zm7.483-21.236C16.454.25 21.166.657 24.545 2.1c3.429 1.465 5.591 4.046 6.444 5.491l1.722-1.016c-1.02-1.73-3.48-4.648-7.38-6.314-3.95-1.688-9.274-2.046-15.868 1.222l.888 1.792z"/><path id="d" d="M22.528 63.078L0 47.2h1.755c4.272 0 7.666-3.388 7.666-7.68V0H37.86v39.52c0 4.292 3.51 7.68 7.782 7.68"/><path id="e" d="M22.528 63.078l-.576.817a1 1 0 0 0 1.143.007l-.567-.824zM0 47.2v-1a1 1 0 0 0-.576 1.817L0 47.2zM9.421 0v-1a1 1 0 0 0-1 1h1zM37.86 0h1a1 1 0 0 0-1-1v1zm7.782 47.2l.566.824a1 1 0 0 0-.566-1.824v1zM23.104 62.26L.577 46.383l-1.152 1.635 22.528 15.878 1.152-1.635zM0 48.2h1.755v-2H0v2zm1.755 0c4.825 0 8.666-3.836 8.666-8.68h-2c0 3.74-2.947 6.68-6.666 6.68v2zm8.666-8.68V0h-2v39.52h2zM9.421 1H37.86v-2H9.42v2zM36.86 0v39.52h2V0h-2zm0 39.52c0 4.863 3.977 8.68 8.782 8.68v-2c-3.738 0-6.782-2.96-6.782-6.68h-2zM23.095 63.901l23.114-15.878-1.133-1.649-23.114 15.879 1.133 1.648z"/><path id="f" d="M0 0v24.17c0 12.88 7.9 32.933 29.433 32.933 5.618 0 16.852-11.82 16.852-28.699V0H0z"/><path id="h" d="M46.285 0h2v-2h-2v2zM-2 0v24.17h4V0h-4zm0 24.17c0 6.785 2.067 15.437 7.007 22.448 4.995 7.09 12.933 12.485 24.426 12.485v-4c-10.04 0-16.818-4.632-21.157-10.789C3.883 38.08 2 30.264 2 24.17h-4zm31.433 34.933c2.03 0 4.208-1.026 6.197-2.507 2.044-1.52 4.12-3.692 5.98-6.374 3.72-5.367 6.675-12.934 6.675-21.818h-4c0 7.995-2.662 14.777-5.963 19.54-1.652 2.383-3.437 4.221-5.08 5.444-1.697 1.263-3.03 1.715-3.809 1.715v4zm18.852-30.699V0h-4v28.404h4zM46.285-2H0v4h46.285v-4z"/><path id="i" d="M46.285 0h1v-1h-1v1zM-1 0v24.17h2V0h-2zm0 24.17c0 6.613 2.02 15.055 6.824 21.872 4.83 6.856 12.479 12.06 23.61 12.06v-2c-10.404 0-17.473-4.822-21.975-11.212C2.929 38.46 1 30.437 1 24.17h-2zm30.433 33.933c1.717 0 3.684-.883 5.6-2.309 1.944-1.446 3.948-3.534 5.755-6.141 3.616-5.217 6.498-12.587 6.498-21.249h-2c0 8.217-2.736 15.196-6.142 20.11-1.704 2.457-3.562 4.379-5.305 5.676-1.77 1.318-3.314 1.913-4.406 1.913v2zm17.852-29.699V0h-2v28.404h2zM46.285-1H0v2h46.285v-2z"/><path id="j" d="M0 6.116h3.686A3.03 3.03 0 0 0 6.73 3.058 3.03 3.03 0 0 0 3.686 0"/><path id="k" d="M0 5.116a1 1 0 0 0 0 2v-2zM3.686-1a1 1 0 1 0 0 2v-2zM0 7.116h3.686v-2H0v2zm3.686 0A4.03 4.03 0 0 0 7.73 3.058h-2a2.03 2.03 0 0 1-2.043 2.058v2zM7.73 3.058A4.03 4.03 0 0 0 3.686-1v2c1.14 0 2.043.9 2.043 2.058h2z"/><path id="l" d="M3.16 1.588c0 .882-.702 1.588-1.58 1.588C.702 3.176 0 2.47 0 1.588 0 .706.702 0 1.58 0c.878 0 1.58.706 1.58 1.588z"/><path id="m" d="M2.16 1.588c0 .334-.26.588-.58.588v2a2.577 2.577 0 0 0 2.58-2.588h-2zm-.58.588A.577.577 0 0 1 1 1.588h-2a2.577 2.577 0 0 0 2.58 2.588v-2zM1 1.588C1 1.253 1.26 1 1.58 1v-2A2.577 2.577 0 0 0-1 1.588h2zM1.58 1c.32 0 .58.253.58.588h2A2.577 2.577 0 0 0 1.58-1v2z"/><path id="n" d="M0-1a1 1 0 1 0 0 2v-2zm9.89 2a1 1 0 1 0 0-2v2zM0 1h9.89v-2H0v2z"/><path id="o" d="M3.16 1.588c0 .882-.702 1.588-1.58 1.588C.702 3.176 0 2.47 0 1.588 0 .706.702 0 1.58 0c.82 0 1.58.706 1.58 1.588z"/><path id="p" d="M2.16 1.588c0 .334-.26.588-.58.588v2a2.577 2.577 0 0 0 2.58-2.588h-2zm-.58.588A.577.577 0 0 1 1 1.588h-2a2.577 2.577 0 0 0 2.58 2.588v-2zM1 1.588C1 1.253 1.26 1 1.58 1v-2A2.577 2.577 0 0 0-1 1.588h2zM1.58 1c.286 0 .58.277.58.588h2C4.16.134 2.932-1 1.58-1v2z"/><path id="q" d="M14.044 2.47S11.234 0 7.022 0C2.75 0 0 2.47 0 2.47"/><path id="r" d="M13.383 3.22a1 1 0 1 0 1.321-1.501l-1.32 1.502zM-.668 1.727A1 1 0 1 0 .668 3.214L-.668 1.726zm14.712.744l.66-.752h-.001l-.002-.001-.004-.004-.01-.009a3.974 3.974 0 0 0-.15-.123 9.068 9.068 0 0 0-.423-.315c-.362-.255-.887-.59-1.552-.925C11.235-.325 9.325-1 7.022-1v2c1.91 0 3.511.56 4.642 1.128.563.284 1.004.566 1.3.774a7.184 7.184 0 0 1 .42.32l.002.001h-.001v-.001h-.001l.66-.752zM7.022-1c-2.33 0-4.24.674-5.564 1.343-.663.334-1.183.67-1.542.927a8.763 8.763 0 0 0-.578.45l-.003.003a.108.108 0 0 0-.003.002L0 2.47l.668.744-.002.002.001-.001a1.497 1.497 0 0 1 .088-.074c.07-.055.177-.14.322-.243.29-.207.724-.488 1.283-.77A10.346 10.346 0 0 1 7.022 1v-2z"/><path id="s" d="M11.06 2.705v-1.47A9.138 9.138 0 0 0 6.494 0C2.575 0 0 2.705 0 2.705"/><path id="t" d="M10.06 2.705a1 1 0 1 0 2 0h-2zm1-1.47h1a1 1 0 0 0-.498-.864l-.503.864zm-11.784.78a1 1 0 0 0 1.448 1.38l-1.448-1.38zm12.783.69v-1.47h-2v1.47h2zM11.562.371A10.138 10.138 0 0 0 6.495-1v2c1.663 0 3.071.523 4.061 1.1L11.563.37zM6.495-1C4.302-1 2.502-.244 1.265.494c-.62.37-1.108.74-1.444 1.022a8.621 8.621 0 0 0-.54.493c0 .002-.002.003-.003.004l-.001.002.723.69.724.69a.05.05 0 0 0-.002.002l.001-.001a1.505 1.505 0 0 1 .083-.081c.065-.061.165-.153.3-.266.27-.226.67-.531 1.184-.838C3.32 1.597 4.767 1 6.495 1v-2z"/><path id="u" d="M0-1a1 1 0 1 0 0 2v-2zm8.66 2a1 1 0 0 0 0-2v2zM0 1h8.66v-2H0v2z"/><path id="v" d="M0 0h18.023"/><path id="w" d="M0-1a1 1 0 1 0 0 2v-2zm18.023 2a1 1 0 1 0 0-2v2zM0 1h9.304v-2H0v2zm9.304 0h8.719v-2h-8.72v2z"/><path id="x" d="M0 0h12.873s-1.345 4.47-5.5 4.47C3.218 4.41 0 0 0 0z"/><path id="y" d="M0 0v-1A1 1 0 0 0-.808.59L0 0zm12.873 0l.958.288A1 1 0 0 0 12.873-1v1zm-5.5 4.47l-.014 1h.014v-1zM0 1h12.873v-2H0v2zm12.873-1a126.685 126.685 0 0 1-.957-.29v-.002.003l-.008.024c-.008.023-.02.061-.04.112a7.038 7.038 0 0 1-.982 1.78c-.738.964-1.85 1.842-3.513 1.842v2c2.49 0 4.13-1.356 5.102-2.626A9.041 9.041 0 0 0 13.806.365a4.18 4.18 0 0 0 .017-.05l.005-.017A.46.46 0 0 0 13.83.29c0-.001 0-.002-.957-.29zM7.387 3.47c-1.738-.025-3.36-.971-4.616-2.024A13.858 13.858 0 0 1 .929-.434 7.12 7.12 0 0 1 .807-.59L0 0l-.807.59a.205.205 0 0 0 .004.007 3.368 3.368 0 0 0 .044.058l.123.158a15.858 15.858 0 0 0 2.122 2.166c1.393 1.168 3.456 2.456 5.873 2.49l.028-2z"/><path id="z" d="M35.436.464c-11.82-1.587-20.48.824-27.327 8.351C2.55 14.931.268 23.223.034 31.34c-.41 13.29 2.926 20.818 8.075 27.17 7.314 8.997 11 6.762 11 6.762V35.397c0-3.764 3.044-6.763 6.73-6.763h14.746c3.628 0 6.612-2.94 6.73-6.587h.175a6.737 6.737 0 0 0 6.729 6.528h5.032V54.45s11.528-17.76 4.506-35.814C57.32 2.111 44.037 4.052 44.037 4.052s-3.57-2.94-8.601-3.588z"/><path id="A" d="M35.436.464l-.133.992h.005l.128-.992zM8.109 8.815l-.74-.673.74.673zM.034 31.34l1 .03v-.001l-1-.03zm8.075 27.17l-.777.629.001.001.776-.63zm11 6.762l.52.855a1 1 0 0 0 .48-.855h-1zm28.205-43.224v-1a1 1 0 0 0-1 .968l1 .032zm.176 0l1-.032a1 1 0 0 0-1-.968v1zm11.761 6.528h1a1 1 0 0 0-1-1v1zm0 25.875h-1a1 1 0 0 0 1.84.545l-.84-.545zm4.506-35.814l.932-.362-.932.362zM44.037 4.052l-.636.772a1 1 0 0 0 .78.217l-.144-.99zM35.57-.527c-12.053-1.619-21.076.837-28.2 8.67l1.48 1.345C15.418 2.266 23.715-.1 35.303 1.456l.266-1.983zm-28.2 8.67C1.598 14.493-.727 23.046-.966 31.31l2 .058c.23-7.968 2.469-15.998 7.815-21.88l-1.48-1.345zM-.966 31.308c-.416 13.52 2.991 21.284 8.298 27.83l1.554-1.26C3.894 51.722.63 44.431 1.033 31.37l-1.999-.062zm8.3 27.831c3.722 4.58 6.625 6.433 8.724 7.08 1.056.326 1.897.342 2.51.25.304-.046.545-.117.723-.184a2.467 2.467 0 0 0 .316-.146l.012-.007a.22.22 0 0 0 .007-.004c.001-.001.002-.002-.516-.857a38.296 38.296 0 0 1-.514-.858.141.141 0 0 0 .01-.006.517.517 0 0 1 .019-.01l-.042.017c-.052.02-.156.053-.312.077-.306.046-.845.058-1.624-.183-1.573-.485-4.17-2.012-7.762-6.43l-1.552 1.261zm12.776 6.132v-4.058h-2v4.058h2zm0-4.058V35.397h-2v25.816h2zm0-25.816c0-3.211 2.594-5.763 5.73-5.763v-2c-4.239 0-7.73 3.446-7.73 7.763h2zm5.73-5.763h14.745v-2H25.839v2zm14.745 0c4.18 0 7.595-3.381 7.729-7.555l-2-.064c-.1 3.118-2.653 5.619-5.729 5.619v2zm6.73-6.587h.175v-2h-.176v2zm-.825-.968a7.737 7.737 0 0 0 7.729 7.496v-2a5.737 5.737 0 0 1-5.73-5.56l-1.999.064zm7.729 7.496h5.032v-2H54.22v2zm4.032-1V54.45h2V28.575h-2zm1 25.875l.84.544v-.001l.003-.004a1.421 1.421 0 0 1 .035-.056l.102-.163c.087-.141.212-.349.367-.617.311-.537.744-1.32 1.24-2.313a52.179 52.179 0 0 0 3.257-8.24c2.04-6.818 3.215-16.017-.406-25.326l-1.864.725c3.401 8.745 2.322 17.453.354 24.028a50.167 50.167 0 0 1-3.131 7.92c-.476.953-.888 1.7-1.18 2.204a25.05 25.05 0 0 1-.429.713l-.021.034-.005.007v.001l.838.544zm5.438-36.177C61.369 9.75 56.23 5.895 51.84 4.213a18.599 18.599 0 0 0-5.571-1.205 15.355 15.355 0 0 0-1.705-.006 10.226 10.226 0 0 0-.665.06h-.004-.002l.143.99.144.99h-.001.002a1.468 1.468 0 0 1 .108-.013c.085-.009.215-.02.386-.03.343-.019.85-.03 1.48.006a16.6 16.6 0 0 1 4.97 1.076c3.86 1.479 8.583 4.917 11.7 12.918l1.863-.726zM44.037 4.052l.636-.772v-.001l-.002-.001-.004-.003a1.242 1.242 0 0 0-.05-.04 14.122 14.122 0 0 0-.647-.475 19.63 19.63 0 0 0-1.874-1.14c-1.592-.855-3.86-1.804-6.533-2.147l-.255 1.983c2.36.304 4.393 1.148 5.843 1.926a17.63 17.63 0 0 1 1.681 1.023 12.085 12.085 0 0 1 .57.42v-.001l.635-.772z"/><path id="B" d="M10.825 0H0s8.602 17.607 19.953 21.077C30.837 24.429 33.295 15.9 33.295 15.9l-3.628-2.587L10.825 0z"/><path id="C" d="M10.825 0l.577-.817L11.143-1h-.318v1zM0 0v-1h-1.601L-.9.439 0 0zm19.953 21.077l.295-.956h-.002l-.293.956zM33.295 15.9l.96.277.197-.68-.576-.41-.581.814zm-3.628-2.587l.58-.814-.003-.003-.577.817zM10.825-1H0v2h10.825v-2zM0 0c-.899.439-.898.44-.898.44l.002.004A7.073 7.073 0 0 0-.793.65 62.588 62.588 0 0 0 .655 3.306a70.315 70.315 0 0 0 4.26 6.525c3.589 4.861 8.74 10.367 14.746 12.202l.585-1.913c-5.347-1.634-10.171-6.667-13.722-11.477A68.317 68.317 0 0 1 1.276.297 38.79 38.79 0 0 1 .9-.437V-.44L0 0zm19.66 22.032c5.736 1.767 9.439.432 11.7-1.53a10.095 10.095 0 0 0 2.74-3.877 6.752 6.752 0 0 0 .151-.43l.003-.01.001-.004v-.001s0-.002-.96-.278a85.555 85.555 0 0 1-.96-.28v-.001l-.002.008-.017.05a7.542 7.542 0 0 1-.457 1.03 8.098 8.098 0 0 1-1.809 2.282c-1.687 1.463-4.655 2.715-9.802 1.13l-.589 1.911zm14.216-6.945L30.248 12.5l-1.162 1.628 3.628 2.588 1.162-1.629zm-3.632-2.59L11.402-.817 10.248.817 29.09 14.13l1.154-1.634z"/><path id="D" d="M22.353 0h10.825s-8.485 17.607-19.836 21.077C2.457 24.429 0 15.9 0 15.9l3.628-2.587L22.353 0z"/><path id="E" d="M22.353 0v-1h-.32l-.26.185.58.815zm10.825 0l.901.434L34.77-1h-1.592v1zM13.342 21.077l-.293-.957-.002.001.294.956zM0 15.9l-.58-.814-.577.411.196.68.961-.277zm3.628-2.587l-.58-.815.58.815zM22.353 1h10.825v-2H22.353v2zm10.825-1l-.9-.434-.001.002-.004.007-.017.035a38.652 38.652 0 0 1-.351.691 67.58 67.58 0 0 1-5.194 8.345c-3.522 4.81-8.317 9.84-13.662 11.474l.585 1.913c6.007-1.836 11.13-7.343 14.69-12.205a69.556 69.556 0 0 0 5.354-8.603 40.478 40.478 0 0 0 .373-.734l.02-.04a2.71 2.71 0 0 1 .007-.015V.435l-.9-.435zm-20.13 20.121c-5.148 1.585-8.116.333-9.803-1.13a8.099 8.099 0 0 1-2.187-3.093 4.834 4.834 0 0 1-.098-.277v.002c0 .001 0 .002-.96.279l-.96.278v.001l.001.004.003.01a2.563 2.563 0 0 0 .038.12c.026.075.063.18.113.31a10.097 10.097 0 0 0 2.739 3.877c2.262 1.962 5.965 3.297 11.702 1.53l-.589-1.911zM.58 16.716l3.628-2.588L3.047 12.5-.58 15.087l1.162 1.629zm3.626-2.587L22.932.815l-1.159-1.63L3.048 12.499l1.16 1.63z"/><path id="F" d="M0 0c1.638 0 3.394 11.409 3.394 17.995L0 0z"/><path id="G" d="M0-1a1 1 0 0 0 0 2v-2zm2.394 18.995a1 1 0 1 0 2 0h-2zM0 1A.534.534 0 0 1-.33.9c-.008-.007.029.023.1.136.143.226.316.61.504 1.169.371 1.102.734 2.677 1.052 4.495.636 3.63 1.068 8.07 1.068 11.295h2c0-3.361-.446-7.919-1.098-11.64-.325-1.857-.708-3.546-1.127-4.789C1.962.952 1.73.394 1.462-.03a2.555 2.555 0 0 0-.516-.61A1.482 1.482 0 0 0 0-1v2z"/><path id="H" d="M0 1.94C1.287 1.177 2.692.53 4.096 0L0 1.94z"/><path id="I" d="M-.51 1.08A1 1 0 0 0 .51 2.8L-.51 1.08zM4.448.937a1 1 0 1 0-.706-1.872L4.45.936zM.51 2.8C1.738 2.071 3.088 1.45 4.449.936L3.743-.936C2.295-.39.836.281-.51 1.081L.511 2.8z"/><path id="J" d="M12.78 54.569a1 1 0 1 0 .962-1.754l-.961 1.754zM7.469 48.34l.777-.63-.002-.002-.775.632zM.037 23.112l-1-.03 1 .03zM7.35 2.47l.74.673a.974.974 0 0 0 .014-.016l-.754-.657zM10.553.78A1 1 0 0 0 9.299-.78L10.553.78zm3.189 52.035c-1.143-.626-2.978-1.998-5.497-5.104l-1.554 1.26c2.631 3.244 4.657 4.813 6.09 5.598l.961-1.754zm-5.5-5.107C1.505 39.456.806 31.104 1.037 23.14l-1.999-.058c-.237 8.15.469 17.087 7.657 25.89l1.549-1.265zM1.037 23.14C1.21 17.295 2.652 9.116 8.091 3.143L6.61 1.797C.7 8.29-.783 17.049-.962 23.082l2 .06zm7.07-20.014A19.207 19.207 0 0 1 10.552.779L9.299-.779C8.38-.04 7.46.824 6.597 1.813l1.508 1.314z"/><path id="K" d="M28.846.123a1 1 0 1 0-1.985-.246l1.985.246zM-.97 10.462a1 1 0 0 0 1.94.482l-1.94-.482zM26.86-.123c-.174 1.403-1.347 2.475-2.752 2.475v2c2.458 0 4.444-1.868 4.738-4.229L26.86-.123zm-2.752 2.475H9.362v2h14.746v-2zm-14.746 0C4.384 2.352.19 5.795-.97 10.462l1.94.482c.946-3.802 4.36-6.592 8.392-6.592v-2z"/><path id="L" d="M8.894 4.705a1 1 0 0 0 0-2v2zM1-.028a1 1 0 0 0-2 .056l2-.056zm7.894 2.733h-5.09v2h5.09v-2zm-5.09 0A2.82 2.82 0 0 1 1-.028l-2 .056c.074 2.599 2.213 4.677 4.803 4.677v-2z"/><path id="M" d="M-.422 14.133a1 1 0 0 0 1.934-.509l-1.934.51zm.909-7.782l.96.279.002-.005-.962-.274zM5.604.791A1 1 0 1 0 4.381-.79L5.604.79zM1.512 13.624c-.5-1.901-.815-4.408-.065-6.994l-1.92-.557c-.889 3.06-.501 5.963.051 8.06l1.934-.509zm-.063-7C2.084 4.392 3.464 2.447 5.604.792L4.381-.79C1.957 1.083.294 3.37-.475 6.078l1.924.547z"/><path id="N" d="M-.941.235a1 1 0 1 0 2 0h-2zM1 0a1 1 0 1 0-2 0h2zm.059.235a1.133 1.133 0 0 0-.093-.447L.96-.227.958-.23c.001.003.013.032.024.076C.992-.108 1-.056 1 0h-2a1.333 1.333 0 0 0 .11.533l.004.011-.008-.022A.868.868 0 0 1-.941.235h2z"/></defs></svg>