<svg width="1024" height="300" xmlns="http://www.w3.org/2000/svg">
 <g>
  <title>background</title>
  <rect x="-1" y="-1" width="1026" height="302" id="canvas_background" fill="none"/>
 </g>

 <g>
  <title>Layer 1</title>
  <path stroke="null" fill="#000000" stroke-width="1.5" stroke-opacity="null" d="m291.55,146.4225l107.99999,-108l107.99999,108l-107.99999,108l-107.99999,-108z" id="svg_6"/>
  <path stroke="null" id="svg_1" d="m25,122.89836l88.23478,0l27.26523,-79.44914l27.26524,79.44914l88.23476,0l-71.38331,49.10171l27.26664,79.44914l-71.38334,-49.10305l-71.38332,49.10305l27.26664,-79.44914l-71.38333,-49.10171l0.00001,0z" stroke-opacity="null" stroke-width="1.5" fill="#000000"/>
  <ellipse stroke="null" ry="88" rx="91.5" id="svg_2" cy="142" cx="649.5" stroke-opacity="null" stroke-width="1.5" fill="#000000"/>
  <path id="svg_4" d="m797.92502,94.62307l44.36818,-44.85307l47.13163,47.64633l47.13163,-47.64633l44.36859,44.85307l-47.13164,47.64672l47.13164,47.64672l-44.36859,44.85349l-47.13163,-47.64673l-47.13163,47.64673l-44.36818,-44.85349l47.13124,-47.64672l-47.13124,-47.64672z" stroke-opacity="null" stroke-width="1.5" stroke="null" fill="#000000"/>
 </g>
</svg>
