<svg xmlns="http://www.w3.org/2000/svg" xmlns:xlink="http://www.w3.org/1999/xlink" viewBox="0 0 503 659"><defs><style>.cls-1{fill:none;}.cls-2{fill:#a7d01f;}.cls-3{fill:#dadbdc;}.cls-4,.cls-8,.cls-9{fill:#fff;}.cls-5{fill:#c3c5c6;}.cls-6{fill:#353847;}.cls-7{clip-path:url(#clip-path);}.cls-8{font-size:15px;font-family:Raleway-SemiBold, Raleway;font-weight:700;letter-spacing:0em;}.cls-9{font-size:72px;font-family:Raleway-Medium, Raleway;}.cls-10{font-size:48px;}</style><clipPath id="clip-path"><rect class="cls-1" width="131.9" height="28.83"/></clipPath><symbol id="SitePoint_Logo_" data-name="SitePoint Logo " viewBox="0 0 131.9 28.8"><g class="cls-7"><path class="cls-4" d="M33.8,17.9a2.4,2.4,0,0,0,.9.8l1.1.4,1.4.2h1.1l1.1-.3a1.6,1.6,0,0,0,.8-.6,1.7,1.7,0,0,0,.3-1,1.4,1.4,0,0,0-.7-1.3,3.9,3.9,0,0,0-1.6-.7L36,14.8l-2.2-.6A4.8,4.8,0,0,1,32.2,13a2.4,2.4,0,0,1-.7-2A2.5,2.5,0,0,1,32,9.3a3.4,3.4,0,0,1,1.2-1.2,5.9,5.9,0,0,1,1.6-.7l1.8-.2,2.2.2a4.4,4.4,0,0,1,1.7.7,2.7,2.7,0,0,1,1.3,1.3,5.3,5.3,0,0,1,.5,2H40a2,2,0,0,0-.3-1.1l-.8-.7-1-.3H35.8l-.9.3a1.3,1.3,0,0,0-.7.5,1.2,1.2,0,0,0-.3.9,1.1,1.1,0,0,0,.4.9,2,2,0,0,0,1.1.6l1.4.4,1.6.4,1.7.4a6.1,6.1,0,0,1,1.4.7,3.5,3.5,0,0,1,1,1.1,2.5,2.5,0,0,1,.4,1.6,3.9,3.9,0,0,1-.5,2A4.4,4.4,0,0,1,41,20.3a8.4,8.4,0,0,1-1.9.7l-2.1.2a7.1,7.1,0,0,1-2.1-.3,5.4,5.4,0,0,1-1.9-.7,4.4,4.4,0,0,1-1.3-1.4,4.6,4.6,0,0,1-.5-2.1h2.3a2.1,2.1,0,0,0,.3,1.2"/><rect class="cls-4" x="45.6" y="7.5" width="2.3" height="13.35"/><path class="cls-4" d="M57.2,7.5v2H54.5v8.3a1.3,1.3,0,0,0,.1.6c0,.1.1.3.2.3l.5.2h1.9v2H54l-1-.5a1.6,1.6,0,0,1-.6-.8,6.1,6.1,0,0,1-.2-1.5V9.5H49.9v-2h2.3v-4h2.3v4Z"/><path class="cls-4" d="M69.5,20a6.1,6.1,0,0,1-3.9,1.2,7.8,7.8,0,0,1-2.8-.5,6.6,6.6,0,0,1-2.1-1.5A5.9,5.9,0,0,1,59.5,17a8.7,8.7,0,0,1-.5-2.8,8.2,8.2,0,0,1,.5-2.8,6.7,6.7,0,0,1,1.3-2.2,8,8,0,0,1,2.1-1.5,7.1,7.1,0,0,1,2.6-.5,5.6,5.6,0,0,1,3,.8,5,5,0,0,1,2,1.8,7.7,7.7,0,0,1,1,2.5,7.8,7.8,0,0,1,.2,2.6H61.4a7.8,7.8,0,0,0,.2,1.6,3.2,3.2,0,0,0,.8,1.4,3,3,0,0,0,1.4,1,5.3,5.3,0,0,0,1.9.4,4.5,4.5,0,0,0,2.4-.7,3.1,3.1,0,0,0,1.2-2h2.2a5.3,5.3,0,0,1-2,3.4M69,11.5a2.7,2.7,0,0,0-.9-1.2,2.5,2.5,0,0,0-1.2-.8l-1.5-.3a3.8,3.8,0,0,0-1.6.3,2.5,2.5,0,0,0-1.2.8,2.7,2.7,0,0,0-.9,1.2,5.8,5.8,0,0,0-.3,1.4h7.9a3.2,3.2,0,0,0-.3-1.4"/><path class="cls-4" d="M76.4,7.5V9.3h.1a3.8,3.8,0,0,1,1.7-1.6,7.6,7.6,0,0,1,2.7-.5,6.1,6.1,0,0,1,2.8.6,5.8,5.8,0,0,1,1.9,1.5,5.1,5.1,0,0,1,1.2,2.3,7.5,7.5,0,0,1,.4,2.6,7.7,7.7,0,0,1-.4,2.7,5.1,5.1,0,0,1-1.1,2.2,4.8,4.8,0,0,1-2,1.5,6.1,6.1,0,0,1-2.8.6H79.8l-1.2-.4a3.4,3.4,0,0,1-1.2-.6,2.8,2.8,0,0,1-.9-1h-.1V26H74.2V7.5Zm8.2,4.8a4,4,0,0,0-.8-1.6,2.8,2.8,0,0,0-1.3-1.1,4.1,4.1,0,0,0-1.9-.4,4,4,0,0,0-2,.4,4.7,4.7,0,0,0-1.3,1.1,5.1,5.1,0,0,0-.7,1.7,5.7,5.7,0,0,0-.3,1.8,5.8,5.8,0,0,0,.3,1.9,4.6,4.6,0,0,0,.7,1.6,3.8,3.8,0,0,0,1.4,1.1,3.9,3.9,0,0,0,2,.5,3.8,3.8,0,0,0,3.2-1.6,5.1,5.1,0,0,0,.7-1.7,6.2,6.2,0,0,0,.2-1.9,11,11,0,0,0-.2-1.8"/><path class="cls-4" d="M89.6,11.5a6.5,6.5,0,0,1,1.3-2.3A4.6,4.6,0,0,1,93,7.8a6.5,6.5,0,0,1,2.9-.6,6.1,6.1,0,0,1,2.8.6,4.6,4.6,0,0,1,2.1,1.4,6.5,6.5,0,0,1,1.3,2.3,7.6,7.6,0,0,1,.5,2.7,8.7,8.7,0,0,1-.5,2.8,7.1,7.1,0,0,1-1.3,2.2,4.6,4.6,0,0,1-2.1,1.4,6.1,6.1,0,0,1-2.8.6,6.5,6.5,0,0,1-2.9-.6,4.6,4.6,0,0,1-2.1-1.4A7.1,7.1,0,0,1,89.6,17a8.6,8.6,0,0,1-.4-2.8,7.7,7.7,0,0,1,.4-2.7m2.3,4.9a5.1,5.1,0,0,0,.9,1.6,4.2,4.2,0,0,0,1.4.9,3.6,3.6,0,0,0,3.3,0,4.2,4.2,0,0,0,1.4-.9,5.1,5.1,0,0,0,.9-1.6,7.8,7.8,0,0,0,.4-2.2,6.5,6.5,0,0,0-.4-2.1,3.5,3.5,0,0,0-.9-1.6,3.3,3.3,0,0,0-1.4-1,4.5,4.5,0,0,0-1.6-.3,4.7,4.7,0,0,0-1.7.3,3.3,3.3,0,0,0-1.4,1,3.5,3.5,0,0,0-.9,1.6,6.6,6.6,0,0,0-.3,2.1,7.8,7.8,0,0,0,.3,2.2"/><rect class="cls-4" x="105.4" y="7.5" width="2.3" height="13.35"/><path class="cls-4" d="M113.3,7.5V9.7h0a4.8,4.8,0,0,1,4.5-2.5,5.3,5.3,0,0,1,2.3.4,4,4,0,0,1,1.5,1,3.5,3.5,0,0,1,.7,1.5,6.4,6.4,0,0,1,.3,2v8.8h-2.3V11.8a2.9,2.9,0,0,0-.7-1.9,2.8,2.8,0,0,0-2.1-.7,4.8,4.8,0,0,0-1.8.3,5.7,5.7,0,0,0-1.3.8,3.7,3.7,0,0,0-.7,1.4,4.1,4.1,0,0,0-.3,1.6v7.6h-2.3V7.5Z"/><path class="cls-4" d="M131.9,7.5v2h-2.8v8.3c0,.2.1.4.1.6a.3.3,0,0,0,.3.3l.5.2h1.9v2h-3.3a3.1,3.1,0,0,1-1-.5,2.2,2.2,0,0,1-.5-.8,3.4,3.4,0,0,1-.2-1.5V9.5h-2.4v-2h2.4v-4h2.2v4Z"/><path class="cls-4" d="M.8,12.7l2.1,2,6.6,6.2,2.8-2.8a.9.9,0,0,0,0-1.2L9.7,14.6h0L6.9,11.9a1.1,1.1,0,0,1,0-1.3l7.6-7.3L11,0,2.9,7.9.8,9.9a1.9,1.9,0,0,0,0,2.8"/><path class="cls-4" d="M23.3,16.2l-2.1-2.1L14.6,8l-2.8,2.7a.9.9,0,0,0,0,1.2l2.6,2.3h0l2.8,2.7a1.1,1.1,0,0,1,0,1.3L9.6,25.5l3.5,3.3L21.2,21l2.1-2.1a1.8,1.8,0,0,0,0-2.7"/><path class="cls-4" d="M48,4.8a1.3,1.3,0,1,1-1.3-1.3A1.3,1.3,0,0,1,48,4.8"/><path class="cls-4" d="M107.8,4.8a1.3,1.3,0,1,1-1.3-1.3,1.3,1.3,0,0,1,1.3,1.3"/></g></symbol><symbol id="BG-single" data-name="BG-single" viewBox="0 0 503 659"><rect class="cls-2" width="503" height="659"/><use width="131.9" height="28.83" transform="translate(346.8 45.3)" xlink:href="#SitePoint_Logo_"/></symbol><symbol id="Tagline_2" data-name="Tagline 2" viewBox="0 0 344.4 16.2"><text class="cls-8" transform="translate(0 12.8)">BECAUSE EVERY SECOND COSTS REAL MONEY </text></symbol><symbol id="Plane2" data-name="Plane2" viewBox="0 0 345.1 247.1"><polygon class="cls-3" points="118.8 202.4 73.8 152.3 178.1 216.6 118.8 202.4"/><polygon class="cls-3" points="118.8 202.4 103 198.5 73.8 152.3 118.8 202.4"/><polygon class="cls-4" points="103 198.5 178.1 216.6 79 247.1 72.7 244.6 103 198.5"/><polygon class="cls-4" points="114.8 177.6 134.4 148.6 165.7 151.4 178.1 216.6 114.8 177.6"/><polygon class="cls-4" points="165.7 151.4 320.2 169.1 178.1 216.6 165.7 151.4"/><polygon class="cls-4" points="134.4 148.6 163.4 118.8 234 118.8 165.7 151.4 134.4 148.6"/><polygon class="cls-4" points="165.7 151.4 317.7 156.9 234 118.8 165.7 151.4"/><polygon class="cls-3" points="317.7 156.9 343.1 172 345.1 177.3 320.2 169.1 132.2 151.8 134.4 148.6 136 146.9 317.7 156.9"/><polygon class="cls-5" points="287 180.2 320.2 169.1 345.1 177.3 287 180.2"/><polygon class="cls-3" points="178.7 118.8 144.5 78.3 234 118.8 178.7 118.8"/><polygon class="cls-3" points="144.5 78.3 178.7 118.8 163.4 118.8 144.5 78.3"/><path class="cls-6" d="M101.4,138.2l-1,2.4,3,1.4,3.2,1.2.9-2.5-3.1-1.2Z"/><path class="cls-6" d="M92.9,133.7,91.5,136l.9.5,2,1.2,3,1.5,1.2-2.3-2.9-1.5-2-1.1Z"/><path class="cls-6" d="M85,128.2l-1.7,2,.8.7,1.8,1.4,2.8,1.9,1.5-2.1-2.7-1.9-1.8-1.4Z"/><path class="cls-6" d="M78.2,121.5l-2.1,1.6,2.3,2.6a30.3,30.3,0,0,0,2.4,2.3l1.8-1.9-2.3-2.2Z"/><path class="cls-6" d="M73.7,113.3l-2.5.8a24.4,24.4,0,0,0,1.3,3.2l1.1,2.1a3.7,3.7,0,0,0,.6.9l2.2-1.4A32,32,0,0,1,73.7,113.3Z"/><path class="cls-6" d="M72.9,104.1l-2.6-.4c-.1,0-.1,1.8-.2,3.5a6,6,0,0,0,.2,2.4,8.7,8.7,0,0,1,.1,1.1l2.6-.4a6.7,6.7,0,0,0-.1-1,11.5,11.5,0,0,1-.2-2.1A29,29,0,0,1,72.9,104.1Z"/><path class="cls-6" d="M76.2,95.5,74,94.1l-.6.9-.2.4a3.3,3.3,0,0,0-.3.6l-.5,1.2a24.4,24.4,0,0,0-1.3,3.2l2.5.8a25.4,25.4,0,0,1,1.2-2.9c.1-.4.3-.8.4-1.1l.2-.4.3-.4Z"/><path class="cls-6" d="M82.8,89.7,82,87.2a19.8,19.8,0,0,0-3.3,1.7,21.2,21.2,0,0,0-2.6,2.5L78,93.1a24.8,24.8,0,0,1,2.3-2A11.7,11.7,0,0,1,82.8,89.7Z"/><path class="cls-6" d="M90.5,91.3l1.9-1.8a8.9,8.9,0,0,0-3.1-2.2,6.9,6.9,0,0,0-2.6-.6H85.6v2.6h.8a4.5,4.5,0,0,1,1.8.5A7.5,7.5,0,0,1,90.5,91.3Z"/><path class="cls-6" d="M91.1,98.7l2.2,1.5a11.7,11.7,0,0,0,1.3-3.6,6.1,6.1,0,0,0,0-2.7,5.8,5.8,0,0,0-.3-1.2l-2.5.8a5.3,5.3,0,0,1,.2,2.7A8.2,8.2,0,0,1,91.1,98.7Z"/><path class="cls-6" d="M83.9,104l1,2.4,1-.4,2.1-1.1a21,21,0,0,0,2.9-2l-1.7-2a24.8,24.8,0,0,1-2.5,1.8l-1.9.9Z"/><path class="cls-6" d="M74.7,106.4l.4,2.7,3.3-.7,2.3-.5,1-.3-.7-2.5-1,.2-2.1.6Z"/><path class="cls-6" d="M65.1,106.5l-.2,2.7h3.4a9.6,9.6,0,0,0,2.4,0h1v-2.7H68.4Z"/><path class="cls-6" d="M55.6,105.1l-.6,2.5,3.3.8,3.4.4.3-2.6-3.2-.4Z"/><path class="cls-6" d="M46.3,102.4l-.9,2.5,1,.3,2.2.7,3.2,1,.7-2.5-3.1-1-2.1-.7Z"/><path class="cls-6" d="M37.4,98.5l-1.2,2.4,3.1,1.4a22,22,0,0,0,3,1.3l1-2.4-3-1.3Z"/><path class="cls-6" d="M29,93.7l-1.5,2.2,5.8,3.5,1.3-2.3S28.9,93.8,29,93.7Z"/><path class="cls-6" d="M21.2,87.9l-1.7,2s5.2,4.3,5.3,4.1l1.6-2.1C26.3,92,21.2,87.9,21.2,87.9Z"/><path class="cls-6" d="M14.3,81.2l-2,1.7s1.1,1.3,2.3,2.5l2.5,2.3,1.7-1.9-2.3-2.2C15.3,82.4,14.3,81.2,14.3,81.2Z"/><path class="cls-6" d="M8.6,73.5,6.3,74.8a5.7,5.7,0,0,0,.6.9,10.7,10.7,0,0,0,1.3,1.9l2,2.8,2-1.6-1.8-2.7L9.1,74.3Z"/><path class="cls-6" d="M4.5,64.8,2,65.6S4.5,72,4.7,71.9l2.4-1.2C6.8,70.8,4.5,64.8,4.5,64.8Z"/><path class="cls-6" d="M2.8,55.5l-2.7.2L.5,59a15,15,0,0,0,.4,2.4l.3,1,2.5-.6a3.5,3.5,0,0,0-.2-1,9.8,9.8,0,0,1-.4-2.1C2.9,57.1,2.8,55.5,2.8,55.5Z"/><path class="cls-6" d="M3,45.9.3,45.6A33.3,33.3,0,0,0,.1,49c0,.8-.1,1.7-.1,2.3v1.1H2.7a4.5,4.5,0,0,1-.1-1,14.8,14.8,0,0,0,.1-2.2C2.8,47.5,3,45.9,3,45.9Z"/><path class="cls-6" d="M4.7,36.4l-2.6-.7L1.3,39,.7,42.3l2.6.4.6-3.2Z"/><path class="cls-6" d="M7.6,27.1l-2.5-.9S4.6,27.8,4,29.3a13.6,13.6,0,0,0-.7,2.2l-.3,1,2.5.8.3-1,.7-2.1Z"/><path class="cls-6" d="M11.5,18.2,9.2,17.1s-.8,1.4-1.5,3-1.3,3-1.3,3l2.4,1.1s.6-1.5,1.3-3Z"/><path class="cls-6" d="M16.3,9.7,14,8.3s-.8,1.5-1.7,2.9l-1.6,2.9L13,15.4l1.6-2.9Z"/><path class="cls-6" d="M21.6,1.5,19.4,0,17.6,2.8c-1,1.3-1.9,2.8-1.9,2.8L18,7l1.7-2.8Z"/></symbol><symbol id="Title_2" data-name="Title 2" viewBox="0 0 374.5 120.4"><text class="cls-9" transform="translate(0 61.6)">BACK-END<tspan class="cls-10"><tspan x="14.2" y="48">PERFORMANCE</tspan></tspan></text></symbol></defs><title>Backend-single</title><g id="Layer_2" data-name="Layer 2"><g id="Book_2" data-name="Book 2"><g id="Title-1"><use width="503" height="659" xlink:href="#BG-single"/><use id="Tagline_2-3" data-name="Tagline 2" width="344.4" height="16.23" transform="translate(84.2 602.6)" xlink:href="#Tagline_2"/><use width="345.1" height="247.13" transform="translate(104.7 321.5)" xlink:href="#Plane2"/><use width="374.5" height="120.36" transform="translate(100.9 151.8)" xlink:href="#Title_2"/></g></g></g></svg>