<svg xmlns="http://www.w3.org/2000/svg" xmlns:xlink="http://www.w3.org/1999/xlink" viewBox="0 0 503 659"><defs><style>.cls-1{fill:none;}.cls-2{fill:#a7d01f;}.cls-3{clip-path:url(#clip-path);}.cls-4,.cls-5,.cls-7{fill:#fff;}.cls-5{font-size:72px;font-family:Raleway-Medium, Raleway;}.cls-6{font-size:48px;}.cls-7{font-size:15px;font-family:Raleway-SemiBold, Raleway;font-weight:700;letter-spacing:0em;}.cls-8{fill:#e2e3e4;}.cls-9{fill:#ededee;}.cls-10{fill:#353847;}</style><clipPath id="clip-path"><rect class="cls-1" width="131.9" height="28.83"/></clipPath><symbol id="SitePoint_Logo_" data-name="SitePoint Logo " viewBox="0 0 131.9 28.8"><g class="cls-3"><path class="cls-4" d="M33.8,17.9a2.4,2.4,0,0,0,.9.8l1.1.4,1.4.2h1.1l1.1-.3a1.6,1.6,0,0,0,.8-.6,1.7,1.7,0,0,0,.3-1,1.4,1.4,0,0,0-.7-1.3,3.9,3.9,0,0,0-1.6-.7L36,14.8l-2.2-.6A4.8,4.8,0,0,1,32.2,13a2.4,2.4,0,0,1-.7-2A2.5,2.5,0,0,1,32,9.3a3.4,3.4,0,0,1,1.2-1.2,5.9,5.9,0,0,1,1.6-.7l1.8-.2,2.2.2a4.4,4.4,0,0,1,1.7.7,2.7,2.7,0,0,1,1.3,1.3,5.3,5.3,0,0,1,.5,2H40a2,2,0,0,0-.3-1.1l-.8-.7-1-.3H35.8l-.9.3a1.3,1.3,0,0,0-.7.5,1.2,1.2,0,0,0-.3.9,1.1,1.1,0,0,0,.4.9,2,2,0,0,0,1.1.6l1.4.4,1.6.4,1.7.4a6.1,6.1,0,0,1,1.4.7,3.5,3.5,0,0,1,1,1.1,2.5,2.5,0,0,1,.4,1.6,3.9,3.9,0,0,1-.5,2A4.4,4.4,0,0,1,41,20.3a8.4,8.4,0,0,1-1.9.7l-2.1.2a7.1,7.1,0,0,1-2.1-.3,5.4,5.4,0,0,1-1.9-.7,4.4,4.4,0,0,1-1.3-1.4,4.6,4.6,0,0,1-.5-2.1h2.3a2.1,2.1,0,0,0,.3,1.2"/><rect class="cls-4" x="45.6" y="7.5" width="2.3" height="13.35"/><path class="cls-4" d="M57.2,7.5v2H54.5v8.3a1.3,1.3,0,0,0,.1.6c0,.1.1.3.2.3l.5.2h1.9v2H54l-1-.5a1.6,1.6,0,0,1-.6-.8,6.1,6.1,0,0,1-.2-1.5V9.5H49.9v-2h2.3v-4h2.3v4Z"/><path class="cls-4" d="M69.5,20a6.1,6.1,0,0,1-3.9,1.2,7.8,7.8,0,0,1-2.8-.5,6.6,6.6,0,0,1-2.1-1.5A5.9,5.9,0,0,1,59.5,17a8.7,8.7,0,0,1-.5-2.8,8.2,8.2,0,0,1,.5-2.8,6.7,6.7,0,0,1,1.3-2.2,8,8,0,0,1,2.1-1.5,7.1,7.1,0,0,1,2.6-.5,5.6,5.6,0,0,1,3,.8,5,5,0,0,1,2,1.8,7.7,7.7,0,0,1,1,2.5,7.8,7.8,0,0,1,.2,2.6H61.4a7.8,7.8,0,0,0,.2,1.6,3.2,3.2,0,0,0,.8,1.4,3,3,0,0,0,1.4,1,5.3,5.3,0,0,0,1.9.4,4.5,4.5,0,0,0,2.4-.7,3.1,3.1,0,0,0,1.2-2h2.2a5.3,5.3,0,0,1-2,3.4M69,11.5a2.7,2.7,0,0,0-.9-1.2,2.5,2.5,0,0,0-1.2-.8l-1.5-.3a3.8,3.8,0,0,0-1.6.3,2.5,2.5,0,0,0-1.2.8,2.7,2.7,0,0,0-.9,1.2,5.8,5.8,0,0,0-.3,1.4h7.9a3.2,3.2,0,0,0-.3-1.4"/><path class="cls-4" d="M76.4,7.5V9.3h.1a3.8,3.8,0,0,1,1.7-1.6,7.6,7.6,0,0,1,2.7-.5,6.1,6.1,0,0,1,2.8.6,5.8,5.8,0,0,1,1.9,1.5,5.1,5.1,0,0,1,1.2,2.3,7.5,7.5,0,0,1,.4,2.6,7.7,7.7,0,0,1-.4,2.7,5.1,5.1,0,0,1-1.1,2.2,4.8,4.8,0,0,1-2,1.5,6.1,6.1,0,0,1-2.8.6H79.8l-1.2-.4a3.4,3.4,0,0,1-1.2-.6,2.8,2.8,0,0,1-.9-1h-.1V26H74.2V7.5Zm8.2,4.8a4,4,0,0,0-.8-1.6,2.8,2.8,0,0,0-1.3-1.1,4.1,4.1,0,0,0-1.9-.4,4,4,0,0,0-2,.4,4.7,4.7,0,0,0-1.3,1.1,5.1,5.1,0,0,0-.7,1.7,5.7,5.7,0,0,0-.3,1.8,5.8,5.8,0,0,0,.3,1.9,4.6,4.6,0,0,0,.7,1.6,3.8,3.8,0,0,0,1.4,1.1,3.9,3.9,0,0,0,2,.5,3.8,3.8,0,0,0,3.2-1.6,5.1,5.1,0,0,0,.7-1.7,6.2,6.2,0,0,0,.2-1.9,11,11,0,0,0-.2-1.8"/><path class="cls-4" d="M89.6,11.5a6.5,6.5,0,0,1,1.3-2.3A4.6,4.6,0,0,1,93,7.8a6.5,6.5,0,0,1,2.9-.6,6.1,6.1,0,0,1,2.8.6,4.6,4.6,0,0,1,2.1,1.4,6.5,6.5,0,0,1,1.3,2.3,7.6,7.6,0,0,1,.5,2.7,8.7,8.7,0,0,1-.5,2.8,7.1,7.1,0,0,1-1.3,2.2,4.6,4.6,0,0,1-2.1,1.4,6.1,6.1,0,0,1-2.8.6,6.5,6.5,0,0,1-2.9-.6,4.6,4.6,0,0,1-2.1-1.4A7.1,7.1,0,0,1,89.6,17a8.6,8.6,0,0,1-.4-2.8,7.7,7.7,0,0,1,.4-2.7m2.3,4.9a5.1,5.1,0,0,0,.9,1.6,4.2,4.2,0,0,0,1.4.9,3.6,3.6,0,0,0,3.3,0,4.2,4.2,0,0,0,1.4-.9,5.1,5.1,0,0,0,.9-1.6,7.8,7.8,0,0,0,.4-2.2,6.5,6.5,0,0,0-.4-2.1,3.5,3.5,0,0,0-.9-1.6,3.3,3.3,0,0,0-1.4-1,4.5,4.5,0,0,0-1.6-.3,4.7,4.7,0,0,0-1.7.3,3.3,3.3,0,0,0-1.4,1,3.5,3.5,0,0,0-.9,1.6,6.6,6.6,0,0,0-.3,2.1,7.8,7.8,0,0,0,.3,2.2"/><rect class="cls-4" x="105.4" y="7.5" width="2.3" height="13.35"/><path class="cls-4" d="M113.3,7.5V9.7h0a4.8,4.8,0,0,1,4.5-2.5,5.3,5.3,0,0,1,2.3.4,4,4,0,0,1,1.5,1,3.5,3.5,0,0,1,.7,1.5,6.4,6.4,0,0,1,.3,2v8.8h-2.3V11.8a2.9,2.9,0,0,0-.7-1.9,2.8,2.8,0,0,0-2.1-.7,4.8,4.8,0,0,0-1.8.3,5.7,5.7,0,0,0-1.3.8,3.7,3.7,0,0,0-.7,1.4,4.1,4.1,0,0,0-.3,1.6v7.6h-2.3V7.5Z"/><path class="cls-4" d="M131.9,7.5v2h-2.8v8.3c0,.2.1.4.1.6a.3.3,0,0,0,.3.3l.5.2h1.9v2h-3.3a3.1,3.1,0,0,1-1-.5,2.2,2.2,0,0,1-.5-.8,3.4,3.4,0,0,1-.2-1.5V9.5h-2.4v-2h2.4v-4h2.2v4Z"/><path class="cls-4" d="M.8,12.7l2.1,2,6.6,6.2,2.8-2.8a.9.9,0,0,0,0-1.2L9.7,14.6h0L6.9,11.9a1.1,1.1,0,0,1,0-1.3l7.6-7.3L11,0,2.9,7.9.8,9.9a1.9,1.9,0,0,0,0,2.8"/><path class="cls-4" d="M23.3,16.2l-2.1-2.1L14.6,8l-2.8,2.7a.9.9,0,0,0,0,1.2l2.6,2.3h0l2.8,2.7a1.1,1.1,0,0,1,0,1.3L9.6,25.5l3.5,3.3L21.2,21l2.1-2.1a1.8,1.8,0,0,0,0-2.7"/><path class="cls-4" d="M48,4.8a1.3,1.3,0,1,1-1.3-1.3A1.3,1.3,0,0,1,48,4.8"/><path class="cls-4" d="M107.8,4.8a1.3,1.3,0,1,1-1.3-1.3,1.3,1.3,0,0,1,1.3,1.3"/></g></symbol><symbol id="BG-single" data-name="BG-single" viewBox="0 0 503 659"><rect class="cls-2" width="503" height="659"/><use width="131.9" height="28.83" transform="translate(346.8 45.3)" xlink:href="#SitePoint_Logo_"/></symbol><symbol id="tagline" data-name="tagline" viewBox="0 0 344.4 16.2"><text class="cls-7" transform="translate(0 12.8)">BECAUSE EVERY SECOND COSTS REAL MONEY </text></symbol><symbol id="Title-1" data-name="Title-1" viewBox="0 0 424.9 120.4"><text class="cls-5" transform="translate(0 61.6)">FRONT-END<tspan class="cls-6"><tspan x="64.6" y="48">PERFORMANCE</tspan></tspan></text></symbol></defs><title>Frontend-cover</title><g id="Layer_2" data-name="Layer 2"><g id="Book_1" data-name="Book 1"><use width="503" height="659" xlink:href="#BG-single"/><use id="tagline-3" data-name="tagline" width="344.4" height="16.23" transform="translate(79.9 599)" xlink:href="#tagline"/><g id="_Group_" data-name="&lt;Group&gt;"><path class="cls-8" d="M208.6,511.6a27.8,27.8,0,0,0,2.7-2.1c49.1-17.9,92.2-43.3,130.3-79a328.9,328.9,0,0,1-29.2,40.4,416.1,416.1,0,0,1-90.3,45C216.7,514.3,214,513.4,208.6,511.6Z"/><path class="cls-8" d="M344.1,437.9C304.4,471,260.6,494,211.3,509.5l-7-2.4c54.5-19.1,101.6-47.3,142.2-88.5C345.7,426.3,345.2,430.2,344.1,437.9Z"/><path class="cls-4" d="M204.3,507.1l-1.5-7c55.3-18.5,103.2-46.7,144.3-88.3-.2,2.7-.3,4.1-.6,6.8C305.9,459.8,258.8,488,204.3,507.1Z"/><path class="cls-9" d="M344.1,437.9c1.5-10.4,2.1-15.7,3-26.1,6.9-9.2,13.3-18.4,19.5-28.2l4,2.5A388.8,388.8,0,0,1,344.1,437.9Z"/><path class="cls-8" d="M344.1,437.9a309.4,309.4,0,0,0,43.2-43.2c-6.8-3.2-10.2-5-16.7-8.6A388.8,388.8,0,0,1,344.1,437.9Z"/><path class="cls-8" d="M387.3,394.7c3.5-8.7,5-13,7.7-21.7a248.5,248.5,0,0,1-24.4,13.1C377.1,389.7,380.5,391.5,387.3,394.7Z"/><path class="cls-9" d="M347.1,411.8c6.9-9.2,13.3-18.4,19.5-28.2a242,242,0,0,1-21.2-13.9C346.5,383.7,347.1,397.8,347.1,411.8Z"/><path class="cls-4" d="M297.1,454.1a539.9,539.9,0,0,1-29.2-50.6c9.4-7.8,18.1-15.6,26.9-24.3a264.1,264.1,0,0,0,50.6-9.5c1.1,14,1.7,28.1,1.7,42.1A380.5,380.5,0,0,1,297.1,454.1Z"/><path class="cls-8" d="M267.9,403.5l-5.9-3.9A220.4,220.4,0,0,0,280.8,381c5.6-.6,8.4-.9,14-1.8C286,387.9,277.3,395.7,267.9,403.5Z"/><path class="cls-4" d="M294.8,379.2c-8.8,8.7-17.5,16.5-26.9,24.3l-5.9-3.9"/><path class="cls-4" d="M208.6,511.6l2.6,6.6a413.7,413.7,0,0,0,99.6-49c-.6-2-.9-2.9-1.6-4.9A398.8,398.8,0,0,1,208.6,511.6Z"/><path class="cls-4" d="M310.8,469.2a421,421,0,0,0,55.7-42.9c-8.1,4.3-12.2,6.3-20.5,10.1a450.3,450.3,0,0,1-36.8,27.9C309.9,466.3,310.2,467.2,310.8,469.2Z"/><path class="cls-8" d="M387.3,394.7l10.1,6.4c5.8-8,8.5-12,13.5-20.2A264.4,264.4,0,0,1,387.3,394.7Z"/><path class="cls-9" d="M346,436.4c9-3.8,13.5-5.9,22.3-10.3l.2-.2a401.1,401.1,0,0,0,52.7-14,264.6,264.6,0,0,1-25.8-12l-2-1.2-6.1-4A406.5,406.5,0,0,1,346,436.4Z"/><path class="cls-4" d="M310.8,469.2a421,421,0,0,0,55.7-42.9,415.4,415.4,0,0,0,54.7-14.4,681.1,681.1,0,0,1,6.1,74.1,521.2,521.2,0,0,1-52,39.3A471.8,471.8,0,0,1,310.8,469.2Z"/><path class="cls-8" d="M427.3,486l-6.3.3a502.5,502.5,0,0,1-53.5,41.8l8.9-.7A494.4,494.4,0,0,0,427.3,486Z"/><path class="cls-10" d="M91,383.1l-2.5-1s.3-1.3.7-2.7l.8-2.7,2.4,1.2-.8,2.6Z"/><path class="cls-10" d="M89.8,391.2l-2.6-.7v-.9c.1-.5.2-1.3.3-2a23.2,23.2,0,0,1,.4-2.8l2.5.9-.4,2.8c-.1.7-.1,1.4-.2,1.9Z"/><path class="cls-10" d="M89.9,399.7l-2.6-.4a5.1,5.1,0,0,0-.1-.9,14.1,14.1,0,0,1-.1-2.1c-.1-1.5-.1-3-.1-3l2.6.7s0,1.4.1,2.8.1,1.5.1,2A6.2,6.2,0,0,1,89.9,399.7Z"/><path class="cls-10" d="M91.9,408.4H89.4l-1-3.1c-.4-1.6-.7-3.1-.7-3.1l2.6.3s.3,1.4.7,2.9S91.9,408.4,91.9,408.4Z"/><path class="cls-10" d="M96.7,416.6l-2,1a13.5,13.5,0,0,1-2.2-3c-.5-.7-.9-1.5-1.3-2.1l-.5-.9,2.5-.4A45.1,45.1,0,0,0,96.7,416.6Z"/><path class="cls-10" d="M104.5,423a16.3,16.3,0,0,0-.9,1.9,25.5,25.5,0,0,1-3.4-2.1,12.9,12.9,0,0,1-2.1-1.7l-.9-.8L99,419l.8.7a9.4,9.4,0,0,0,1.8,1.4A34.3,34.3,0,0,0,104.5,423Z"/><path class="cls-10" d="M114.2,426.3a17.9,17.9,0,0,0,.2,2.3l-1.1-.2h-.6l-.7-.2-1.3-.4a27.9,27.9,0,0,1-3.7-1.3,15.2,15.2,0,0,0,.6-2l3.3,1.1,1.2.3.4.2h.6Z"/><path class="cls-10" d="M122.8,425.5l1.9,2a12.2,12.2,0,0,1-3.2,1.1,14.1,14.1,0,0,1-3.5.3,20.2,20.2,0,0,1-.7-2.3,24.8,24.8,0,0,0,3-.2A10.3,10.3,0,0,0,122.8,425.5Z"/><path class="cls-10" d="M125,419.5l2.5-.2a7.6,7.6,0,0,1,.5,3.3,5.9,5.9,0,0,1-.5,2.1l-.5.8-2.5-1.5a2.5,2.5,0,0,0,.4-.6,3.3,3.3,0,0,0,.4-1.5A5,5,0,0,0,125,419.5Z"/><path class="cls-10" d="M118.6,414.8c-.1-.9-.1-1.4-.2-2.3a15.7,15.7,0,0,1,3.8,1.2,16.6,16.6,0,0,1,2.4,1.6l.9.9-1.9,1.2a8.2,8.2,0,0,0-2.3-1.7A9.2,9.2,0,0,0,118.6,414.8Z"/><path class="cls-10" d="M110.3,416.2l-1.7-2.2.9-.4,2.1-.6a26.5,26.5,0,0,1,3.2-.6,21.8,21.8,0,0,1,.9,2.3l-2.8.5-1.8.6Z"/><path class="cls-10" d="M103.4,420.4l-2.2-1.9,2.3-1.7,1.7-1,.8-.5,1.8,2.1-.7.4-1.6,1Z"/><path class="cls-10" d="M98.2,426.3l-2.5-1.6,1.7-2.2c.4-.6.9-1,1.2-1.4l.6-.6,2.4,1.8a2.8,2.8,0,0,0-.6.6,7.7,7.7,0,0,0-1.2,1.3Z"/><path class="cls-10" d="M94.6,433.2l-2.8-1.4,1.1-2.5,1.4-2.3,2.6,1.5-1.3,2.3A20.8,20.8,0,0,0,94.6,433.2Z"/><path class="cls-10" d="M92.2,440.8l-2.9-1.1a2.7,2.7,0,0,1,.2-.9A16.7,16.7,0,0,1,90,437l.8-2.7,2.8,1.3-.8,2.6c-.1.6-.3,1.3-.4,1.8A2.4,2.4,0,0,0,92.2,440.8Z"/><path class="cls-10" d="M91.2,448.9l-3-.9.2-2.8a19.9,19.9,0,0,1,.4-2.8l2.9,1a23.7,23.7,0,0,0-.4,2.7C91.3,447.5,91.2,448.9,91.2,448.9Z"/><path class="cls-10" d="M91.6,457.5l-3.1-.7c-.1,0-.4-5.9-.4-5.9l3,.8S91.4,457.4,91.6,457.5Z"/><path class="cls-10" d="M93.4,466.2l-3-.2s-1.6-6.2-1.4-6.2l3,.5C91.8,460.3,93.4,466.2,93.4,466.2Z"/><path class="cls-10" d="M97,475.1H94.1s-.8-1.5-1.5-3.1L91.4,469l3,.2,1.2,3A26.6,26.6,0,0,0,97,475.1Z"/><path class="cls-10" d="M102.5,483.9l-2.7.5-.7-.9-1.4-2.1-2-3.1,2.8-.2,2,2.9,1.3,2Z"/><path class="cls-10" d="M110.2,492l-2.2,1.1s-6-5.6-5.7-5.7l2.5-.8C104.6,486.7,110.2,492,110.2,492Z"/><path class="cls-10" d="M120.1,498.9l-1.5,1.6-3.8-2.2-2.4-1.8a5.6,5.6,0,0,1-1.1-.8l1.9-1.3,1,.8,2.3,1.5Z"/><path class="cls-10" d="M131.4,504.3a11.1,11.1,0,0,1-.9,1.9s-2-.7-4.1-1.7l-2.8-1.3-1.2-.6,1.3-1.8,1.2.6,2.6,1.2Z"/><path class="cls-10" d="M143.5,508.3c-.1.8-.2,1.3-.3,2.1l-4.3-1.2-4.3-1.4a15.9,15.9,0,0,0,.7-2l4.1,1.3Z"/><path class="cls-10" d="M155.9,510.9c0,.9.1,1.3.1,2.2l-4.3-.8-3-.6-1.3-.3c.1-.8.1-1.3.2-2.1l1.3.3,2.8.5Z"/><path class="cls-10" d="M168.3,512.2l.5,2.2-4.3-.3-4.3-.4c-.1-.9-.1-1.4-.2-2.3l4.1.5Z"/><path class="cls-10" d="M180.5,512.4l.8,2.2H173l-.7-2.2h8.2Z"/><path class="cls-10" d="M192.4,511.7a21.2,21.2,0,0,1,1.1,2.1l-4,.4c-2,.2-4.1.2-4.1.2a14.5,14.5,0,0,1-.9-2.2s2,0,4-.2Z"/></g><use width="424.9" height="120.36" transform="translate(60.7 152.3)" xlink:href="#Title-1"/></g></g></svg>