<svg xmlns="http://www.w3.org/2000/svg" viewBox="0 0 140 138"><defs><style>.cls-1{fill:#fc8b10;}.cls-2{fill:#fcfcfc;}.cls-3{fill:#ffdfc0;}.cls-4{fill:#4f4f4f;}</style></defs><title>Asset 2</title><g id="Layer_2" data-name="Layer 2"><g id="Layer_1-2" data-name="Layer 1"><rect class="cls-1" width="140" height="138"/><rect class="cls-2" x="45.09" y="51.56" width="49.75" height="35.11"/><rect class="cls-3" x="52.29" y="57.93" width="23.78" height="22.78"/><g id="_Group_" data-name="&lt;Group&gt;"><path id="_Compound_Path_" data-name="&lt;Compound Path&gt;" class="cls-4" d="M77.51,57.09H51.19V81.71H77.51ZM75.82,80H52.87V58.77H75.82Z"/><path id="_Compound_Path_2" data-name="&lt;Compound Path&gt;" class="cls-4" d="M85.33,81.71a4.18,4.18,0,1,0-4.18-4.18A4.18,4.18,0,0,0,85.33,81.71Zm0-6.67a2.49,2.49,0,1,1-2.5,2.49A2.49,2.49,0,0,1,85.33,75Z"/><rect id="_Path_" data-name="&lt;Path&gt;" class="cls-4" x="81.34" y="57.09" width="7.93" height="1.68"/><rect id="_Path_2" data-name="&lt;Path&gt;" class="cls-4" x="81.34" y="61.68" width="7.93" height="1.68"/><rect id="_Path_3" data-name="&lt;Path&gt;" class="cls-4" x="81.34" y="66.28" width="7.93" height="1.68"/><path id="_Compound_Path_3" data-name="&lt;Compound Path&gt;" class="cls-4" d="M47.67,88.24h44.5a3.09,3.09,0,0,0,3.08-3.08V53.25a3.09,3.09,0,0,0-3.08-3.08H68a4.76,4.76,0,0,0-1-2.1l3-3.19-1.23-1.14-3,3.21a4.67,4.67,0,0,0-4.9,0L56.4,42l-1.25,1.13L59.59,48a4.76,4.76,0,0,0-1,2.15H47.67a3.08,3.08,0,0,0-3.08,3.08V85.16A3.08,3.08,0,0,0,47.67,88.24ZM63.28,47.92a3.1,3.1,0,0,1,3,2.25H60.31A3.1,3.1,0,0,1,63.28,47.92Zm-17,5.33a1.4,1.4,0,0,1,1.4-1.4h44.5a1.4,1.4,0,0,1,1.39,1.4V85.16a1.4,1.4,0,0,1-1.39,1.4H47.67a1.4,1.4,0,0,1-1.4-1.4Z"/></g></g></g></svg>