<svg xmlns="http://www.w3.org/2000/svg" viewBox="0 0 585 431.9"><defs><style>.cls-1{fill:#fff;}.cls-2{fill:#f7e6d5;}.cls-3{fill:#d8802b;}</style></defs><title>book6</title><g id="Layer_2" data-name="Layer 2"><g id="Layer_1-2" data-name="Layer 1"><polygon class="cls-1" points="7 154.3 263.9 6 575.3 185.8 318.4 334.1 7 154.3"/><polygon class="cls-1" points="557 200.2 323.2 335.4 323.2 423.7 557 288.5 557 200.2"/><polygon class="cls-2" points="319.9 423.7 7 243 7 154.8 319.9 335.4 319.9 423.7"/><path class="cls-3" d="M585,219.6l-11-5.9h-.1l-9.9-5.4v-7.2l6.3-3.6L585,190,256.9,0,0,150.4v96.3L321.1,431.8h.1L585,279.6l-11-5.9h-.1l-9.9-5.4v-6.7l21-12.1-11-5.9h-.1l-9.9-5.4v-6.7ZM328,368,549,240.4v17.5L328,385.2Zm0-13.3V337.5L549,209.9V227Zm-15.2-23.8.2.3v80.6L15,239.4V158.1L256.6,15.5,557,189.9ZM328,398,549,270.4v17.5L328,415.2Z"/><polygon id="label" class="cls-2" points="368.7 130.3 211.2 221.2 119.2 168.1 276.7 77.1 368.7 130.3"/></g></g></svg>